<?xml version="1.0" encoding="utf-8"?>
<!-- Generator: Adobe Illustrator 23.0.3, SVG Export Plug-In . SVG Version: 6.00 Build 0)  -->
<svg version="1.1" id="Capa_1" xmlns="http://www.w3.org/2000/svg" xmlns:xlink="http://www.w3.org/1999/xlink" x="0px" y="0px"
	 viewBox="0 0 1200 1200" enable-background="new 0 0 1200 1200" xml:space="preserve">
<g>
	<path fill="#100A38" d="M975.775,573.969l-28.055,32.838c-49.777,58.263-116.453,103.347-179.608,121.7
		c0.914,4.478,1.704,8.967,2.43,13.46c0.022,0.099,0.047,0.205,0.068,0.304c0.029,0.134,0.025,0.267,0.046,0.401
		c6.869,43.055,5.157,86.59-5.165,127.085c-4.453,17.475-11.295,37.446-16.794,53.492c-3.66,10.684-7.811,22.794-8.048,25.438
		c0.028,0.399,0.028,0.418-22.003,146.912c17.511,3.55,30.731,19.072,30.731,37.625c0,9.249-7.526,16.775-16.775,16.775h-89.747
		c-17.507,0-31.752-14.244-31.752-31.752V968.22c0-6.896-5.61-12.505-12.505-12.505c-6.896,0-12.506,5.61-12.506,12.505v150.028
		c0,17.507-14.244,31.752-31.752,31.752h-89.747c-9.249,0-16.775-7.526-16.775-16.775c0-18.554,13.22-34.076,30.731-37.625
		c-22.031-146.494-22.031-146.518-22.009-147.207c-0.231-2.348-4.382-14.458-8.042-25.142
		c-5.499-16.047-12.341-36.018-16.794-53.492c-10.693-41.951-12.165-87.137-4.421-131.678c0.007-0.034,0.004-0.067,0.011-0.101
		c0.005-0.022,0.011-0.046,0.016-0.069c0.593-3.404,1.226-6.805,1.928-10.199c-62.286-18.788-127.983-63.581-176.957-120.904
		l-28.055-32.836c-7.126-8.338-6.711-20.56,0.943-27.825c3.709-3.522,8.477-5.44,13.535-5.466c0.736-4.456,2.985-8.685,6.68-11.841
		c3.693-3.156,8.22-4.715,12.735-4.748c0.817-4.99,3.453-9.399,7.511-12.516c8.376-6.421,20.512-4.924,27.634,3.413l14.564,17.046
		l0.074-0.221c2.918-8.786,11.794-14.372,20.636-12.991c9.551,1.49,16.375,9.854,15.872,19.453l-1.673,32.04
		c37.175,43.428,106.804,45.654,132.581,44.863c0.701-1.079,1.409-2.155,2.125-3.223c3.465-5.171,6.804-10.027,10.102-14.72
		c-25.598-18.05-49.744-42.22-71.542-72.028c-47.096-64.403-75.213-145.151-75.213-215.999C340.791,166.281,457.071,50,600,50
		c142.93,0,259.211,116.281,259.211,259.209c0,70.848-28.117,151.596-75.213,215.999c-22.331,30.537-47.125,55.163-73.421,73.346
		c3.002,4.292,6.041,8.723,9.178,13.403c0.692,1.032,1.374,2.072,2.051,3.115c26.239,1.117,97.471-0.363,135.459-44.756
		l-1.673-32.04c-0.502-9.6,6.321-17.963,15.872-19.453c8.833-1.373,17.718,4.206,20.636,12.989l0.074,0.223l14.564-17.046
		c7.122-8.338,19.258-9.84,27.63-3.415c4.059,3.118,6.697,7.528,7.514,12.518c4.515,0.031,9.042,1.592,12.735,4.748
		c3.695,3.156,5.943,7.385,6.68,11.841c5.057,0.026,9.824,1.942,13.535,5.465v0.002
		C982.484,553.409,982.898,565.632,975.775,573.969z"/>
	<path fill="#9CC867" d="M760.363,704.416c-3.299-10.18-7.016-20.026-10.912-27.886c-1.735-3.5-5.977-4.933-9.477-3.196
		c-3.5,1.735-4.931,5.977-3.196,9.477c7.799,15.736,15.581,42.365,19.893,61.988c6.585,41.189,4.958,82.803-4.896,121.464
		c-4.313,16.924-11.053,36.596-16.469,52.402c-6.309,18.416-8.63,25.495-8.796,29.405c-1.354,9.05-22.747,151.315-22.969,152.788
		c-0.307,2.036,0.29,4.104,1.634,5.666c1.343,1.561,3.299,2.459,5.36,2.459h0.473c10.164,0,18.87,6.31,22.456,15.216
		c-0.732,0.176-1.494,0.271-2.28,0.271h-89.743c-6.188,0-11.851-2.288-16.187-6.061c0-0.055-0.016-0.105-0.016-0.16V968.221
		c0-4.985-1.401-9.637-3.792-13.631c13.238-0.415,26.457-1.15,39.613-2.289c3.89-0.338,6.772-3.766,6.435-7.657
		c-0.338-3.892-3.757-6.772-7.657-6.435c-40.636,3.52-81.851,3.514-122.495-0.024c-3.911-0.331-7.321,2.542-7.659,6.433
		c-0.338,3.892,2.542,7.319,6.433,7.659c13.161,1.145,26.381,1.885,39.62,2.305c-2.395,3.996-3.798,8.652-3.798,13.641v147.303
		c-4.53,5.462-11.367,8.946-19.005,8.946h-89.321c3.518-9.047,12.29-15.486,22.555-15.486h0.474c2.059,0,4.016-0.898,5.359-2.459
		c1.343-1.561,1.941-3.629,1.634-5.666c-0.221-1.476-21.656-144.005-22.972-152.813c-0.185-3.951-2.513-11.051-8.792-29.379
		c-5.416-15.806-12.158-35.478-16.47-52.402c-10.192-39.986-11.59-83.097-4.209-125.639c4.239-19.267,12.035-41.913,19.915-57.813
		c1.735-3.5,0.304-7.742-3.196-9.477c-3.503-1.737-7.742-0.304-9.477,3.196c-4,8.07-7.96,17.774-11.504,27.921l-0.79-0.165
		c-70.756-19.378-136.135-69.306-179.877-120.542l-22.291-26.054c0.244-0.472,0.536-0.917,0.925-1.286
		c1.152-1.096,2.669-1.657,4.234-1.573c1.574,0.083,3.003,0.783,4.029,1.975l0.013,0.015v0.001c2.535,2.968,6.999,3.315,9.971,0.782
		c2.968-2.535,3.321-6.999,0.783-9.969c-2.043-2.393-1.76-6,0.631-8.044c2.392-2.039,5.989-1.76,8.035,0.625l0.005,0.006h0.001
		c2.533,2.968,7,3.324,9.97,0.785c2.97-2.537,3.321-7,0.786-9.97c-1.028-1.201-1.503-2.732-1.337-4.304
		c0.164-1.571,0.951-2.97,2.212-3.939c2.323-1.782,6.105-1.151,8.269,1.382l17.961,21.019c2.618,3.068,6.714,4.489,10.661,3.716
		c3.957-0.775,7.203-3.633,8.471-7.457l1.721-5.182c0.753-2.272,2.958-3.814,5.035-3.475c2.718,0.424,4.033,2.705,3.927,4.74
		l-1.733,33.168c-0.15,2.853,0.769,5.624,2.59,7.805c41.883,50.133,117.794,52.13,148.474,50.654
		c2.297-0.111,4.398-1.329,5.631-3.27c1.293-2.035,2.602-4.061,3.945-6.063c2.05-3.059,4.051-5.998,6.03-8.87
		c31.048,23.526,65.839,37.724,102.584,37.724c37.151,0,72.324-14.531,103.62-38.518c2.157,3.122,4.341,6.329,6.578,9.666
		c1.31,1.955,2.585,3.931,3.847,5.915c1.219,1.915,3.284,3.129,5.551,3.263c24.421,1.439,107.546,2.06,151.458-50.502
		c1.819-2.179,2.739-4.95,2.589-7.8l-1.734-33.171c-0.104-2.035,1.211-4.316,3.929-4.74c2.059-0.332,4.28,1.203,5.034,3.474
		l1.721,5.179c1.268,3.828,4.514,6.686,8.472,7.461c3.961,0.772,8.044-0.648,10.661-3.714l17.959-21.022
		c2.158-2.526,5.947-3.163,8.266-1.383c1.263,0.972,2.052,2.372,2.215,3.943c0.167,1.574-0.308,3.102-1.336,4.303
		c-2.537,2.969-2.184,7.433,0.786,9.97c2.966,2.542,7.435,2.188,9.969-0.785h0.003l0.005-0.006c2.04-2.388,5.645-2.661,8.034-0.625
		c2.389,2.043,2.674,5.644,0.638,8.035l-0.005,0.006v0.003c-2.538,2.97-2.185,7.433,0.784,9.969c2.966,2.54,7.433,2.186,9.968-0.782
		c1.028-1.201,2.463-1.909,4.042-1.992c1.364-0.073,2.68,0.37,3.765,1.208l-23.674,27.704
		C897.044,635.135,831.38,685.197,760.363,704.416z M354.924,309.209c0-135.13,109.936-245.065,245.065-245.065
		c78.959,0,149.27,37.573,194.119,95.737c21.993,37.416,34.628,80.994,34.628,127.533c0,139.252-112.887,319.207-252.137,319.207
		c-26.939,0-52.884-6.756-77.222-18.632C415.337,531.204,354.924,411.901,354.924,309.209z M676.072,455.964
		c47.118,21.622,106.436-6.882,132.493-63.664s8.985-120.34-38.131-141.962c-47.116-21.622-106.436,6.88-132.493,63.662
		S628.956,434.342,676.072,455.964z M572.609,489.868c-1.956-3.379-6.285-4.534-9.664-2.578c-3.381,1.956-4.534,6.283-2.578,9.664
		c8.161,14.101,23.343,22.861,39.621,22.861c16.278,0,31.46-8.759,39.621-22.86c1.956-3.381,0.803-7.707-2.578-9.664
		c-3.379-1.958-7.709-0.801-9.664,2.578c-5.641,9.746-16.133,15.802-27.38,15.802C588.742,505.672,578.25,499.617,572.609,489.868z
		 M391.415,392.3c26.057,56.782,85.377,85.285,132.493,63.664c47.116-21.622,64.189-85.182,38.131-141.963
		c-26.057-56.782-85.377-85.284-132.493-63.662S365.358,335.519,391.415,392.3z"/>
	<path fill="#5F9D2A" d="M571.938,1115.523v2.725c0,1.107-0.131,2.182-0.327,3.234c-0.03,0.162-0.052,0.327-0.086,0.487
		c-0.215,0.991-0.518,1.947-0.893,2.869c-0.071,0.176-0.147,0.35-0.224,0.523c-0.405,0.912-0.872,1.791-1.421,2.613
		c-0.074,0.111-0.159,0.214-0.235,0.323c-0.564,0.806-1.185,1.568-1.872,2.268c-0.052,0.053-0.098,0.113-0.151,0.165
		c-0.562,0.559-1.2,1.034-1.834,1.513c-3.547,1.975-7.621,3.117-11.963,3.117H463.19c-0.019,0-0.038,0-0.058,0
		c-0.068-0.047-0.142-0.086-0.205-0.139c-0.196-0.164-0.357-0.362-0.499-0.576c-0.066-0.099-0.147-0.187-0.199-0.295
		c-0.165-0.344-0.276-0.72-0.276-1.126c0-0.805,0.044-1.599,0.121-2.383c0.026-0.267,0.077-0.526,0.111-0.791
		c0.067-0.514,0.135-1.027,0.234-1.53c0.06-0.307,0.143-0.604,0.215-0.906c0.107-0.448,0.212-0.897,0.344-1.336
		c0.095-0.316,0.207-0.623,0.314-0.933c0.102-0.295,0.209-0.587,0.321-0.876h89.321
		C560.571,1124.469,567.408,1120.985,571.938,1115.523z M965.011,564.783c2.159-2.528,2.193-6.366,0.073-8.379
		c-0.146-0.139-0.313-0.243-0.47-0.365l-23.674,27.704c-43.895,51.392-109.56,101.454-180.576,120.672
		c1.079,3.329,2.109,6.69,3.09,10.032c27.831-7.896,54.79-20.467,79.899-35.969c1.718-1.076,3.429-2.178,5.138-3.286
		c32.71-21.22,63.137-47.926,88.465-77.574L965.011,564.783z M256.263,583.743l-22.291-26.054c-1.875,3.639,0.638,6.673,2.87,9.285
		c3.217,3.765,6.434,7.531,9.651,11.296c5.921,6.93,11.812,13.886,17.767,20.787c29.003,33.61,63.538,62.484,101.739,85.086
		c21.253,12.574,43.999,22.963,67.669,30.059c0.366-1.166,0.762-2.319,1.142-3.482c0.431-2.144,1.632-4.126,2.119-6.271
		C366.173,685.072,300.004,634.98,256.263,583.743z M641.441,1124.469c-6.188,0-11.851-2.288-16.187-6.061
		c0.01,1.078,0.123,2.13,0.319,3.153c0.06,0.312,0.159,0.607,0.235,0.913c1.509,6.066,6.223,10.901,12.202,12.622
		c1.124,0.157,2.264,0.265,3.431,0.265h89.743c1.247,0,2.436-0.24,3.531-0.667c0.072-0.103,0.153-0.198,0.21-0.311
		c0.039-0.078,0.08-0.154,0.111-0.236c0.11-0.289,0.187-0.595,0.187-0.922c0-0.817-0.043-1.624-0.122-2.42
		c-0.027-0.267-0.08-0.526-0.116-0.791c-0.069-0.525-0.136-1.051-0.239-1.565c-0.062-0.309-0.15-0.607-0.224-0.912
		c-0.11-0.456-0.215-0.914-0.35-1.359c-0.098-0.321-0.219-0.63-0.329-0.945c-0.122-0.347-0.243-0.695-0.379-1.035
		c-0.732,0.176-1.494,0.271-2.28,0.271H641.441z M701.416,610.166c-0.041-0.06-0.083-0.121-0.124-0.181
		c-0.879-1.272-1.74-2.469-2.611-3.713c-31.522,19.155-64.939,29.218-98.693,29.218c-34.461,0-68.567-10.497-100.667-30.441
		c-0.008,0.011-0.016,0.022-0.023,0.033c-0.409,0.581-0.822,1.178-1.232,1.765c-0.802,1.147-1.605,2.298-2.415,3.471
		c-0.146,0.211-0.294,0.429-0.44,0.641c31.048,23.526,65.839,37.724,102.584,37.724C634.947,648.685,670.12,634.153,701.416,610.166
		z M576.6,606.622c-26.939,0-52.884-6.756-77.222-18.632c30.946,20.91,65.092,33.356,100.611,33.356
		c131.982,0,245.067-171.631,245.067-312.137c0-56.171-19.042-107.951-50.948-149.328c21.993,37.416,34.628,80.994,34.628,127.533
		C828.737,426.666,715.85,606.622,576.6,606.622z"/>
	<path fill="#FFFFFF" d="M412.45,321.713c0-11.509,9.33-20.838,20.838-20.838c11.509,0,20.838,9.329,20.838,20.838
		c0,11.508-9.329,20.838-20.838,20.838C421.78,342.551,412.45,333.221,412.45,321.713z M679.814,342.551
		c11.509,0,20.838-9.33,20.838-20.838c0-11.509-9.329-20.838-20.838-20.838c-11.508,0-20.838,9.329-20.838,20.838
		C658.976,333.221,668.306,342.551,679.814,342.551z M671.48,388.393c6.904,0,12.502-5.598,12.502-12.502
		c0-6.905-5.598-12.504-12.502-12.504c-6.906,0-12.504,5.599-12.504,12.504C658.976,382.795,664.573,388.393,671.48,388.393z
		 M423.03,387.169c6.906,0,12.504-5.598,12.504-12.502s-5.598-12.502-12.504-12.502c-6.905,0-12.502,5.598-12.502,12.502
		S416.126,387.169,423.03,387.169z"/>
</g>
</svg>
