<?xml version="1.0" encoding="utf-8"?>
<!-- Generator: Adobe Illustrator 23.0.6, SVG Export Plug-In . SVG Version: 6.00 Build 0)  -->
<svg version="1.1" id="Layer_1" xmlns="http://www.w3.org/2000/svg" xmlns:xlink="http://www.w3.org/1999/xlink" x="0px" y="0px"
	 viewBox="0 0 1200 1200" enable-background="new 0 0 1200 1200" xml:space="preserve">
<g>
	<g>
		<g>
			<linearGradient id="SVGID_1_" gradientUnits="userSpaceOnUse" x1="703.2916" y1="7.3116" x2="370.7022" y2="536.8535">
				<stop  offset="0.014" style="stop-color:#E3A6E8"/>
				<stop  offset="0.486" style="stop-color:#D36DE8"/>
				<stop  offset="1" style="stop-color:#7D60C9"/>
			</linearGradient>
			<polygon fill="url(#SVGID_1_)" points="337.607,337.557 531.437,532.924 640.894,66.953 			"/>
			<linearGradient id="SVGID_2_" gradientUnits="userSpaceOnUse" x1="685.5465" y1="11.7546" x2="396.6211" y2="420.5238">
				<stop  offset="0.014" style="stop-color:#E3A6E8"/>
				<stop  offset="0.486" style="stop-color:#D36DE8"/>
				<stop  offset="1" style="stop-color:#7D60C9"/>
			</linearGradient>
			<path fill="url(#SVGID_2_)" d="M590.657,280.816l50.236-213.864L398.168,283.522
				C457.876,304.998,525.314,300.191,590.657,280.816z"/>
			<linearGradient id="SVGID_3_" gradientUnits="userSpaceOnUse" x1="678.3022" y1="22.418" x2="463.6984" y2="321.5627">
				<stop  offset="0.014" style="stop-color:#E3A6E8"/>
				<stop  offset="0.486" style="stop-color:#D36DE8"/>
				<stop  offset="1" style="stop-color:#7D60C9"/>
			</linearGradient>
			<path fill="url(#SVGID_3_)" d="M514.556,179.676c32.658,5.408,66.003,6.842,98.884,4.15l27.454-116.874L514.556,179.676z"/>
			<radialGradient id="SVGID_4_" cx="440.5397" cy="216.9372" r="270.3278" gradientUnits="userSpaceOnUse">
				<stop  offset="0" style="stop-color:#FFFEFF"/>
				<stop  offset="1" style="stop-color:#FFFEFF;stop-opacity:0"/>
			</radialGradient>
			<polygon fill="url(#SVGID_4_)" points="337.607,337.557 531.437,532.924 640.894,66.953 522.992,477.42 			"/>
			<linearGradient id="SVGID_5_" gradientUnits="userSpaceOnUse" x1="13.9986" y1="948.1628" x2="572.4651" y2="547.3809">
				<stop  offset="0.014" style="stop-color:#E3A6E8"/>
				<stop  offset="0.486" style="stop-color:#D36DE8"/>
				<stop  offset="1" style="stop-color:#7D60C9"/>
			</linearGradient>
			<polygon fill="url(#SVGID_5_)" points="531.437,532.924 531.437,955.194 337.607,1029.049 337.607,337.557 			"/>
			<linearGradient id="SVGID_6_" gradientUnits="userSpaceOnUse" x1="162.4508" y1="841.2596" x2="566.7043" y2="551.1483">
				<stop  offset="0.014" style="stop-color:#E3A6E8"/>
				<stop  offset="0.486" style="stop-color:#D36DE8"/>
				<stop  offset="1" style="stop-color:#7D60C9"/>
			</linearGradient>
			<path fill="url(#SVGID_6_)" d="M531.437,954.46V532.924l-193.83-195.368v479.912C413.089,844.551,482.868,892.517,531.437,954.46
				z"/>
			<linearGradient id="SVGID_7_" gradientUnits="userSpaceOnUse" x1="197.9981" y1="728.8721" x2="522.6683" y2="495.8734">
				<stop  offset="0.014" style="stop-color:#E3A6E8"/>
				<stop  offset="0.486" style="stop-color:#D36DE8"/>
				<stop  offset="1" style="stop-color:#7D60C9"/>
			</linearGradient>
			<path fill="url(#SVGID_7_)" d="M337.607,337.557V708.28c69.751,0.155,139.149,27.568,193.83,72.425V532.924L337.607,337.557z"/>
			<linearGradient id="SVGID_8_" gradientUnits="userSpaceOnUse" x1="283.1473" y1="618.4183" x2="495.2139" y2="466.2294">
				<stop  offset="0.014" style="stop-color:#E3A6E8"/>
				<stop  offset="0.486" style="stop-color:#D36DE8"/>
				<stop  offset="1" style="stop-color:#7D60C9"/>
			</linearGradient>
			<path fill="url(#SVGID_8_)" d="M394.962,568.253c51.158,31.263,100.549,67.771,136.475,113.759V532.924l-193.83-195.368v216.231
				C356.801,553.848,376.108,558.101,394.962,568.253z"/>
			<radialGradient id="SVGID_9_" cx="-19.1566" cy="957.953" r="530.6912" gradientUnits="userSpaceOnUse">
				<stop  offset="0" style="stop-color:#FFFEFF"/>
				<stop  offset="1" style="stop-color:#FFFEFF;stop-opacity:0"/>
			</radialGradient>
			<polygon fill="url(#SVGID_9_)" points="366.894,981.584 531.437,955.194 337.607,1029.049 337.607,337.557 			"/>
			<linearGradient id="SVGID_10_" gradientUnits="userSpaceOnUse" x1="255.6065" y1="774.7736" x2="563.3829" y2="553.8988">
				<stop  offset="0" style="stop-color:#D36DE8"/>
				<stop  offset="0.5503" style="stop-color:#7D60C9"/>
				<stop  offset="1" style="stop-color:#02B1F7"/>
			</linearGradient>
			<polygon opacity="0.3" fill="url(#SVGID_10_)" points="531.437,532.924 531.437,955.194 496.38,554.977 337.607,337.557 			"/>
			<radialGradient id="SVGID_11_" cx="19.4732" cy="1051.5242" r="751.5825" gradientUnits="userSpaceOnUse">
				<stop  offset="0" style="stop-color:#FFFEFF"/>
				<stop  offset="1" style="stop-color:#FFFEFF;stop-opacity:0"/>
			</radialGradient>
			<polygon fill="url(#SVGID_11_)" points="531.437,532.924 531.437,955.194 516,554.977 337.607,337.557 			"/>
			<linearGradient id="SVGID_12_" gradientUnits="userSpaceOnUse" x1="319.9202" y1="1206.3224" x2="624.6543" y2="987.6308">
				<stop  offset="0.014" style="stop-color:#E3A6E8"/>
				<stop  offset="0.486" style="stop-color:#D36DE8"/>
				<stop  offset="1" style="stop-color:#7D60C9"/>
			</linearGradient>
			<polygon fill="url(#SVGID_12_)" points="531.437,955.194 631.279,1020.169 633.338,1145.979 337.607,1029.049 			"/>
			<linearGradient id="SVGID_13_" gradientUnits="userSpaceOnUse" x1="359.8462" y1="986.0814" x2="545.6076" y2="1039.9253">
				<stop  offset="0.014" style="stop-color:#E3A6E8"/>
				<stop  offset="0.486" style="stop-color:#D36DE8"/>
				<stop  offset="1" style="stop-color:#7D60C9"/>
			</linearGradient>
			<path fill="url(#SVGID_13_)" d="M631.279,1020.169l-99.841-64.975l-60.13,22.912c-18.368,29.103-38.618,57.789-65.961,77.727
				l227.993,90.146L631.279,1020.169z"/>
			<linearGradient id="SVGID_14_" gradientUnits="userSpaceOnUse" x1="430.6813" y1="1158.2444" x2="594.4521" y2="1040.7147">
				<stop  offset="0.014" style="stop-color:#E3A6E8"/>
				<stop  offset="0.486" style="stop-color:#D36DE8"/>
				<stop  offset="1" style="stop-color:#7D60C9"/>
			</linearGradient>
			<path fill="url(#SVGID_14_)" d="M631.279,1020.169l-99.841-64.975l-7.212,2.748c15.559,47.936,26.21,99.612,7.16,147.726
				l101.953,40.311L631.279,1020.169z"/>
			<radialGradient id="SVGID_15_" cx="928.936" cy="1220.3988" r="615.8287" gradientUnits="userSpaceOnUse">
				<stop  offset="0" style="stop-color:#FFFEFF"/>
				<stop  offset="1" style="stop-color:#FFFEFF;stop-opacity:0"/>
			</radialGradient>
			<polygon fill="url(#SVGID_15_)" points="531.437,955.194 380.233,1029.049 633.338,1145.979 337.607,1029.049 			"/>
			<linearGradient id="SVGID_16_" gradientUnits="userSpaceOnUse" x1="531.4374" y1="1050.5863" x2="633.3384" y2="1050.5863">
				<stop  offset="0" style="stop-color:#D36DE8"/>
				<stop  offset="0.5503" style="stop-color:#7D60C9"/>
				<stop  offset="1" style="stop-color:#02B1F7"/>
			</linearGradient>
			<polygon opacity="0.3" fill="url(#SVGID_16_)" points="531.437,955.194 631.279,1020.169 633.338,1145.979 601.396,1029.049 			
				"/>
			<linearGradient id="SVGID_17_" gradientUnits="userSpaceOnUse" x1="626.3163" y1="-264.5501" x2="658.8273" y2="4405.0586">
				<stop  offset="0.014" style="stop-color:#E3A6E8"/>
				<stop  offset="0.486" style="stop-color:#D36DE8"/>
				<stop  offset="1" style="stop-color:#7D60C9"/>
			</linearGradient>
			<polygon fill="url(#SVGID_17_)" points="531.437,532.924 640.894,459.215 735.24,532.924 735.24,946.53 631.279,1020.169 
				531.437,955.194 			"/>
			<linearGradient id="SVGID_18_" gradientUnits="userSpaceOnUse" x1="627.8098" y1="128.1084" x2="656.2842" y2="4217.9419">
				<stop  offset="0.014" style="stop-color:#E3A6E8"/>
				<stop  offset="0.486" style="stop-color:#D36DE8"/>
				<stop  offset="1" style="stop-color:#7D60C9"/>
			</linearGradient>
			<path fill="url(#SVGID_18_)" d="M536.4,529.582l-4.963,3.342v422.269l99.841,64.975L735.24,946.53v-57.287
				C728.669,742.52,671.229,603.848,536.4,529.582z"/>
			<radialGradient id="SVGID_19_" cx="193.0873" cy="983.9211" r="623.8061" gradientUnits="userSpaceOnUse">
				<stop  offset="0" style="stop-color:#FFFEFF"/>
				<stop  offset="1" style="stop-color:#FFFEFF;stop-opacity:0"/>
			</radialGradient>
			<polygon fill="url(#SVGID_19_)" points="531.437,532.924 640.894,459.215 555.487,547.549 557.779,944.452 631.279,1020.169 
				531.437,955.194 			"/>
			<linearGradient id="SVGID_20_" gradientUnits="userSpaceOnUse" x1="585.2859" y1="624.0676" x2="588.2858" y2="187.5777">
				<stop  offset="0.014" style="stop-color:#E3A6E8"/>
				<stop  offset="0.486" style="stop-color:#D36DE8"/>
				<stop  offset="1" style="stop-color:#7D60C9"/>
			</linearGradient>
			<polygon fill="url(#SVGID_20_)" points="640.894,459.215 640.894,66.953 531.437,532.924 			"/>
			<linearGradient id="SVGID_21_" gradientUnits="userSpaceOnUse" x1="585.8297" y1="544.9225" x2="588.1913" y2="201.3073">
				<stop  offset="0.014" style="stop-color:#E3A6E8"/>
				<stop  offset="0.486" style="stop-color:#D36DE8"/>
				<stop  offset="1" style="stop-color:#7D60C9"/>
			</linearGradient>
			<path fill="url(#SVGID_21_)" d="M613.935,181.72l-82.498,351.204l109.456-73.709V166.261
				C631.592,170.921,622.59,176.057,613.935,181.72z"/>
			<linearGradient id="SVGID_22_" gradientUnits="userSpaceOnUse" x1="585.5663" y1="583.2455" x2="587.217" y2="343.0609">
				<stop  offset="0.014" style="stop-color:#E3A6E8"/>
				<stop  offset="0.486" style="stop-color:#D36DE8"/>
				<stop  offset="1" style="stop-color:#7D60C9"/>
			</linearGradient>
			<path fill="url(#SVGID_22_)" d="M582.792,314.301l-51.355,218.623l109.456-73.709v-182.36
				C619.368,283.915,599.593,297.47,582.792,314.301z"/>
			<linearGradient id="SVGID_23_" gradientUnits="userSpaceOnUse" x1="585.2859" y1="624.0676" x2="588.2858" y2="187.5777">
				<stop  offset="0" style="stop-color:#D36DE8"/>
				<stop  offset="0.5503" style="stop-color:#7D60C9"/>
				<stop  offset="1" style="stop-color:#02B1F7"/>
			</linearGradient>
			<polygon opacity="0.3" fill="url(#SVGID_23_)" points="640.894,459.215 640.894,66.953 631.279,451.272 531.437,532.924 			"/>
			<linearGradient id="SVGID_24_" gradientUnits="userSpaceOnUse" x1="810.319" y1="338.749" x2="621.3234" y2="278.7503">
				<stop  offset="0.014" style="stop-color:#E3A6E8"/>
				<stop  offset="0.486" style="stop-color:#D36DE8"/>
				<stop  offset="1" style="stop-color:#7D60C9"/>
			</linearGradient>
			<polygon fill="url(#SVGID_24_)" points="735.24,532.924 640.894,459.215 640.894,66.953 			"/>
			<linearGradient id="SVGID_25_" gradientUnits="userSpaceOnUse" x1="785.4953" y1="408.3502" x2="634.8757" y2="360.5345">
				<stop  offset="0.014" style="stop-color:#E3A6E8"/>
				<stop  offset="0.486" style="stop-color:#D36DE8"/>
				<stop  offset="1" style="stop-color:#7D60C9"/>
			</linearGradient>
			<path fill="url(#SVGID_25_)" d="M640.893,221.917v237.299l94.346,73.709l-58.569-289.268
				C665.341,235.58,653.401,228.295,640.893,221.917z"/>
			<linearGradient id="SVGID_26_" gradientUnits="userSpaceOnUse" x1="766.3889" y1="461.9204" x2="645.3068" y2="423.4816">
				<stop  offset="0.014" style="stop-color:#E3A6E8"/>
				<stop  offset="0.486" style="stop-color:#D36DE8"/>
				<stop  offset="1" style="stop-color:#7D60C9"/>
			</linearGradient>
			<path fill="url(#SVGID_26_)" d="M640.893,341.188v118.027l94.346,73.709l-27.052-133.606
				C691.076,375.041,668.903,354.799,640.893,341.188z"/>
			<g>
				<linearGradient id="SVGID_27_" gradientUnits="userSpaceOnUse" x1="810.319" y1="338.749" x2="621.3234" y2="278.7503">
					<stop  offset="0" style="stop-color:#D36DE8"/>
					<stop  offset="0.5503" style="stop-color:#7D60C9"/>
					<stop  offset="1" style="stop-color:#02B1F7"/>
				</linearGradient>
				<polygon opacity="0.3" fill="url(#SVGID_27_)" points="735.24,532.924 640.894,459.215 640.894,66.953 654.386,445.462 				"/>
			</g>
			<linearGradient id="SVGID_28_" gradientUnits="userSpaceOnUse" x1="946.8955" y1="199.5765" x2="691.8516" y2="298.471">
				<stop  offset="0.014" style="stop-color:#E3A6E8"/>
				<stop  offset="0.486" style="stop-color:#D36DE8"/>
				<stop  offset="1" style="stop-color:#7D60C9"/>
			</linearGradient>
			<polygon fill="url(#SVGID_28_)" points="917.17,389.908 735.24,532.924 640.894,66.953 			"/>
			<linearGradient id="SVGID_29_" gradientUnits="userSpaceOnUse" x1="929.1204" y1="231.9799" x2="730.524" y2="346.6335">
				<stop  offset="0.014" style="stop-color:#E3A6E8"/>
				<stop  offset="0.486" style="stop-color:#D36DE8"/>
				<stop  offset="1" style="stop-color:#7D60C9"/>
			</linearGradient>
			<path fill="url(#SVGID_29_)" d="M917.17,389.908L761.017,207.372c-32.427-1.304-64.604-4.833-94.307-12.911l68.529,338.464
				L917.17,389.908z"/>
			<linearGradient id="SVGID_30_" gradientUnits="userSpaceOnUse" x1="865.7711" y1="216.3511" x2="740.8806" y2="471.2506">
				<stop  offset="0.014" style="stop-color:#E3A6E8"/>
				<stop  offset="0.486" style="stop-color:#D36DE8"/>
				<stop  offset="1" style="stop-color:#7D60C9"/>
			</linearGradient>
			<path fill="url(#SVGID_30_)" d="M688.159,300.393l47.081,232.531l181.93-143.016l-39.783-46.506
				C810.31,347.147,744.667,335.187,688.159,300.393z"/>
			<radialGradient id="SVGID_31_" cx="779.0321" cy="299.9387" r="191.5262" gradientUnits="userSpaceOnUse">
				<stop  offset="0" style="stop-color:#FFFEFF"/>
				<stop  offset="1" style="stop-color:#FFFEFF;stop-opacity:0"/>
			</radialGradient>
			<polygon fill="url(#SVGID_31_)" points="917.17,389.908 735.24,532.924 640.894,66.953 749.346,490.281 			"/>
			<linearGradient id="SVGID_32_" gradientUnits="userSpaceOnUse" x1="820.7555" y1="333.077" x2="829.4235" y2="866.1634">
				<stop  offset="0.014" style="stop-color:#E3A6E8"/>
				<stop  offset="0.486" style="stop-color:#D36DE8"/>
				<stop  offset="1" style="stop-color:#7D60C9"/>
			</linearGradient>
			<polygon fill="url(#SVGID_32_)" points="735.24,946.53 917.17,1029.049 917.17,389.908 735.24,532.924 			"/>
			<linearGradient id="SVGID_33_" gradientUnits="userSpaceOnUse" x1="823.5239" y1="459.6877" x2="829.8488" y2="848.6694">
				<stop  offset="0.014" style="stop-color:#E3A6E8"/>
				<stop  offset="0.486" style="stop-color:#D36DE8"/>
				<stop  offset="1" style="stop-color:#7D60C9"/>
			</linearGradient>
			<path fill="url(#SVGID_33_)" d="M917.17,835.105V389.908L735.24,532.924v326.309C791.951,838.069,854.664,830.941,917.17,835.105
				z"/>
			<linearGradient id="SVGID_34_" gradientUnits="userSpaceOnUse" x1="823.5787" y1="425.264" x2="828.8784" y2="751.1969">
				<stop  offset="0.014" style="stop-color:#E3A6E8"/>
				<stop  offset="0.486" style="stop-color:#D36DE8"/>
				<stop  offset="1" style="stop-color:#7D60C9"/>
			</linearGradient>
			<path fill="url(#SVGID_34_)" d="M735.24,532.924v250.717c53.602-34.352,117.488-48.5,181.93-50.199V389.908L735.24,532.924z"/>
			<linearGradient id="SVGID_35_" gradientUnits="userSpaceOnUse" x1="824.0515" y1="396.5368" x2="828.3856" y2="693.8516">
				<stop  offset="0.014" style="stop-color:#E3A6E8"/>
				<stop  offset="0.486" style="stop-color:#D36DE8"/>
				<stop  offset="1" style="stop-color:#7D60C9"/>
			</linearGradient>
			<path fill="url(#SVGID_35_)" d="M735.24,532.924V698.61c51.042-36.886,116.065-54.254,181.93-61.595V389.908L735.24,532.924z"/>
			<linearGradient id="SVGID_36_" gradientUnits="userSpaceOnUse" x1="820.1344" y1="419.3351" x2="833.1365" y2="600.4977">
				<stop  offset="0.014" style="stop-color:#E3A6E8"/>
				<stop  offset="0.486" style="stop-color:#D36DE8"/>
				<stop  offset="1" style="stop-color:#7D60C9"/>
			</linearGradient>
			<path fill="url(#SVGID_36_)" d="M735.24,532.924v85.002c31.241-38.473,69.738-72.539,109.457-100.674
				c22.768-14.23,47.285-23.195,72.474-26.943V389.908L735.24,532.924z"/>
			<radialGradient id="SVGID_37_" cx="1311.9836" cy="1136.0488" r="678.1089" gradientUnits="userSpaceOnUse">
				<stop  offset="0" style="stop-color:#FFFEFF"/>
				<stop  offset="1" style="stop-color:#FFFEFF;stop-opacity:0"/>
			</radialGradient>
			<polygon fill="url(#SVGID_37_)" points="735.24,946.53 917.17,1029.049 917.17,389.908 897.536,997.498 			"/>
			<linearGradient id="SVGID_38_" gradientUnits="userSpaceOnUse" x1="1049.9573" y1="664.2766" x2="709.4651" y2="670.2764">
				<stop  offset="0" style="stop-color:#D36DE8"/>
				<stop  offset="0.5503" style="stop-color:#7D60C9"/>
				<stop  offset="1" style="stop-color:#02B1F7"/>
			</linearGradient>
			<polygon opacity="0.3" fill="url(#SVGID_38_)" points="735.24,946.53 761.171,562.167 917.17,389.908 735.24,532.924 			"/>
			<linearGradient id="SVGID_39_" gradientUnits="userSpaceOnUse" x1="506.5114" y1="1216.7325" x2="880.0051" y2="948.6958">
				<stop  offset="0.014" style="stop-color:#E3A6E8"/>
				<stop  offset="0.486" style="stop-color:#D36DE8"/>
				<stop  offset="1" style="stop-color:#7D60C9"/>
			</linearGradient>
			<polygon fill="url(#SVGID_39_)" points="917.17,1029.049 633.338,1145.979 631.279,1020.169 735.239,946.53 			"/>
			<linearGradient id="SVGID_40_" gradientUnits="userSpaceOnUse" x1="513.4856" y1="1174.1958" x2="808.1184" y2="962.7535">
				<stop  offset="0.014" style="stop-color:#E3A6E8"/>
				<stop  offset="0.486" style="stop-color:#D36DE8"/>
				<stop  offset="1" style="stop-color:#7D60C9"/>
			</linearGradient>
			<path fill="url(#SVGID_40_)" d="M631.279,1020.169l2.06,125.81l38.269-15.766c27.705-62.052,74.192-116.801,130.444-153.379
				L735.24,946.53L631.279,1020.169z"/>
			<linearGradient id="SVGID_41_" gradientUnits="userSpaceOnUse" x1="525.0801" y1="1160.0264" x2="773.9445" y2="981.4295">
				<stop  offset="0" style="stop-color:#D36DE8"/>
				<stop  offset="0.5503" style="stop-color:#7D60C9"/>
				<stop  offset="1" style="stop-color:#02B1F7"/>
			</linearGradient>
			<polygon opacity="0.3" fill="url(#SVGID_41_)" points="655.162,1029.049 633.338,1145.979 631.279,1020.169 735.24,946.53 			"/>
			<radialGradient id="SVGID_42_" cx="1086.057" cy="1189.2722" r="317.1341" gradientUnits="userSpaceOnUse">
				<stop  offset="0" style="stop-color:#FFFEFF"/>
				<stop  offset="1" style="stop-color:#FFFEFF;stop-opacity:0"/>
			</radialGradient>
			<polygon fill="url(#SVGID_42_)" points="917.17,1029.049 633.338,1145.979 870.492,1029.049 735.24,946.53 			"/>
		</g>
		<linearGradient id="SVGID_43_" gradientUnits="userSpaceOnUse" x1="378.9434" y1="480.8061" x2="399.4825" y2="480.8061">
			<stop  offset="0" style="stop-color:#D36DE8"/>
			<stop  offset="0.5503" style="stop-color:#7D60C9"/>
			<stop  offset="1" style="stop-color:#02B1F7"/>
		</linearGradient>
		<path opacity="0.3" fill="url(#SVGID_43_)" d="M378.943,379.221c0,0,16.267,207.988,19.225,203.085
			c2.957-4.903,0-183.708,0-183.708L378.943,379.221z"/>
	</g>
	<g>
		
			<radialGradient id="SVGID_44_" cx="709.8446" cy="743.4682" r="54.7773" gradientTransform="matrix(0.7071 -0.7071 0.7071 0.7071 -336.4216 81.0018)" gradientUnits="userSpaceOnUse">
			<stop  offset="0" style="stop-color:#FFFEFF"/>
			<stop  offset="1" style="stop-color:#FFFEFF;stop-opacity:0"/>
		</radialGradient>
		<circle opacity="0.37" fill="url(#SVGID_44_)" cx="691.226" cy="104.777" r="54.777"/>
		
			<radialGradient id="SVGID_45_" cx="709.8446" cy="743.4682" r="54.7773" gradientTransform="matrix(0.7071 -0.7071 0.7071 0.7071 -336.4216 81.0018)" gradientUnits="userSpaceOnUse">
			<stop  offset="0" style="stop-color:#FFFEFF"/>
			<stop  offset="1" style="stop-color:#FFFEFF;stop-opacity:0"/>
		</radialGradient>
		<circle opacity="0.37" fill="url(#SVGID_45_)" cx="691.226" cy="104.777" r="54.777"/>
		
			<radialGradient id="SVGID_46_" cx="709.8446" cy="743.4682" r="54.7773" gradientTransform="matrix(0.7071 -0.7071 0.7071 0.7071 -336.4216 81.0018)" gradientUnits="userSpaceOnUse">
			<stop  offset="0" style="stop-color:#FFFEFF"/>
			<stop  offset="1" style="stop-color:#FFFEFF;stop-opacity:0"/>
		</radialGradient>
		<circle opacity="0.37" fill="url(#SVGID_46_)" cx="691.226" cy="104.777" r="54.777"/>
		
			<radialGradient id="SVGID_47_" cx="709.8446" cy="743.4682" r="54.7773" gradientTransform="matrix(0.7071 -0.7071 0.7071 0.7071 -336.4216 81.0018)" gradientUnits="userSpaceOnUse">
			<stop  offset="0" style="stop-color:#FFFEFF"/>
			<stop  offset="1" style="stop-color:#FFFEFF;stop-opacity:0"/>
		</radialGradient>
		<circle opacity="0.37" fill="url(#SVGID_47_)" cx="691.226" cy="104.777" r="54.777"/>
		
			<radialGradient id="SVGID_48_" cx="709.8446" cy="743.4682" r="54.7773" gradientTransform="matrix(0.7071 -0.7071 0.7071 0.7071 -336.4216 81.0018)" gradientUnits="userSpaceOnUse">
			<stop  offset="0" style="stop-color:#FFFEFF"/>
			<stop  offset="1" style="stop-color:#FFFEFF;stop-opacity:0"/>
		</radialGradient>
		<circle opacity="0.37" fill="url(#SVGID_48_)" cx="691.226" cy="104.777" r="54.777"/>
	</g>
	<g>
		
			<radialGradient id="SVGID_49_" cx="661.4481" cy="724.5884" r="54.7773" gradientTransform="matrix(0.7071 -0.7071 0.7071 0.7071 -336.4216 81.0018)" gradientUnits="userSpaceOnUse">
			<stop  offset="0" style="stop-color:#FFFEFF"/>
			<stop  offset="1" style="stop-color:#FFFEFF;stop-opacity:0"/>
		</radialGradient>
		<circle opacity="0.37" fill="url(#SVGID_49_)" cx="643.654" cy="125.649" r="54.777"/>
		
			<radialGradient id="SVGID_50_" cx="661.4481" cy="724.5884" r="54.7773" gradientTransform="matrix(0.7071 -0.7071 0.7071 0.7071 -336.4216 81.0018)" gradientUnits="userSpaceOnUse">
			<stop  offset="0" style="stop-color:#FFFEFF"/>
			<stop  offset="1" style="stop-color:#FFFEFF;stop-opacity:0"/>
		</radialGradient>
		<circle opacity="0.37" fill="url(#SVGID_50_)" cx="643.654" cy="125.649" r="54.777"/>
		
			<radialGradient id="SVGID_51_" cx="661.4481" cy="724.5884" r="54.7773" gradientTransform="matrix(0.7071 -0.7071 0.7071 0.7071 -336.4216 81.0018)" gradientUnits="userSpaceOnUse">
			<stop  offset="0" style="stop-color:#FFFEFF"/>
			<stop  offset="1" style="stop-color:#FFFEFF;stop-opacity:0"/>
		</radialGradient>
		<circle opacity="0.37" fill="url(#SVGID_51_)" cx="643.654" cy="125.649" r="54.777"/>
		
			<radialGradient id="SVGID_52_" cx="661.4481" cy="724.5884" r="54.7773" gradientTransform="matrix(0.7071 -0.7071 0.7071 0.7071 -336.4216 81.0018)" gradientUnits="userSpaceOnUse">
			<stop  offset="0" style="stop-color:#FFFEFF"/>
			<stop  offset="1" style="stop-color:#FFFEFF;stop-opacity:0"/>
		</radialGradient>
		<circle opacity="0.37" fill="url(#SVGID_52_)" cx="643.654" cy="125.649" r="54.777"/>
		
			<radialGradient id="SVGID_53_" cx="661.4481" cy="724.5884" r="54.7773" gradientTransform="matrix(0.7071 -0.7071 0.7071 0.7071 -336.4216 81.0018)" gradientUnits="userSpaceOnUse">
			<stop  offset="0" style="stop-color:#FFFEFF"/>
			<stop  offset="1" style="stop-color:#FFFEFF;stop-opacity:0"/>
		</radialGradient>
		<circle opacity="0.37" fill="url(#SVGID_53_)" cx="643.654" cy="125.649" r="54.777"/>
	</g>
	<g>
		
			<radialGradient id="SVGID_54_" cx="14.3809" cy="1343.6608" r="54.7773" gradientTransform="matrix(0.7071 -0.7071 0.7071 0.7071 -336.4216 81.0018)" gradientUnits="userSpaceOnUse">
			<stop  offset="0" style="stop-color:#FFFEFF"/>
			<stop  offset="1" style="stop-color:#FFFEFF;stop-opacity:0"/>
		</radialGradient>
		<circle opacity="0.37" fill="url(#SVGID_54_)" cx="623.859" cy="1020.945" r="54.777"/>
		
			<radialGradient id="SVGID_55_" cx="14.3809" cy="1343.6608" r="54.7773" gradientTransform="matrix(0.7071 -0.7071 0.7071 0.7071 -336.4216 81.0018)" gradientUnits="userSpaceOnUse">
			<stop  offset="0" style="stop-color:#FFFEFF"/>
			<stop  offset="1" style="stop-color:#FFFEFF;stop-opacity:0"/>
		</radialGradient>
		<circle opacity="0.37" fill="url(#SVGID_55_)" cx="623.859" cy="1020.945" r="54.777"/>
		
			<radialGradient id="SVGID_56_" cx="14.3809" cy="1343.6608" r="54.7773" gradientTransform="matrix(0.7071 -0.7071 0.7071 0.7071 -336.4216 81.0018)" gradientUnits="userSpaceOnUse">
			<stop  offset="0" style="stop-color:#FFFEFF"/>
			<stop  offset="1" style="stop-color:#FFFEFF;stop-opacity:0"/>
		</radialGradient>
		<circle opacity="0.37" fill="url(#SVGID_56_)" cx="623.859" cy="1020.945" r="54.777"/>
		
			<radialGradient id="SVGID_57_" cx="14.3809" cy="1343.6608" r="54.7773" gradientTransform="matrix(0.7071 -0.7071 0.7071 0.7071 -336.4216 81.0018)" gradientUnits="userSpaceOnUse">
			<stop  offset="0" style="stop-color:#FFFEFF"/>
			<stop  offset="1" style="stop-color:#FFFEFF;stop-opacity:0"/>
		</radialGradient>
		<circle opacity="0.37" fill="url(#SVGID_57_)" cx="623.859" cy="1020.945" r="54.777"/>
		
			<radialGradient id="SVGID_58_" cx="14.3809" cy="1343.6608" r="54.7773" gradientTransform="matrix(0.7071 -0.7071 0.7071 0.7071 -336.4216 81.0018)" gradientUnits="userSpaceOnUse">
			<stop  offset="0" style="stop-color:#FFFEFF"/>
			<stop  offset="1" style="stop-color:#FFFEFF;stop-opacity:0"/>
		</radialGradient>
		<circle opacity="0.37" fill="url(#SVGID_58_)" cx="623.859" cy="1020.945" r="54.777"/>
	</g>
	<g>
		
			<radialGradient id="SVGID_59_" cx="661.4481" cy="795.5488" r="54.7773" gradientTransform="matrix(0.7071 -0.7071 0.7071 0.7071 -336.4216 81.0018)" gradientUnits="userSpaceOnUse">
			<stop  offset="0" style="stop-color:#FFFEFF"/>
			<stop  offset="1" style="stop-color:#FFFEFF;stop-opacity:0"/>
		</radialGradient>
		<circle opacity="0.37" fill="url(#SVGID_59_)" cx="693.831" cy="175.825" r="54.777"/>
		
			<radialGradient id="SVGID_60_" cx="661.4481" cy="795.5488" r="54.7773" gradientTransform="matrix(0.7071 -0.7071 0.7071 0.7071 -336.4216 81.0018)" gradientUnits="userSpaceOnUse">
			<stop  offset="0" style="stop-color:#FFFEFF"/>
			<stop  offset="1" style="stop-color:#FFFEFF;stop-opacity:0"/>
		</radialGradient>
		<circle opacity="0.37" fill="url(#SVGID_60_)" cx="693.831" cy="175.825" r="54.777"/>
		
			<radialGradient id="SVGID_61_" cx="661.4481" cy="795.5488" r="54.7773" gradientTransform="matrix(0.7071 -0.7071 0.7071 0.7071 -336.4216 81.0018)" gradientUnits="userSpaceOnUse">
			<stop  offset="0" style="stop-color:#FFFEFF"/>
			<stop  offset="1" style="stop-color:#FFFEFF;stop-opacity:0"/>
		</radialGradient>
		<circle opacity="0.37" fill="url(#SVGID_61_)" cx="693.831" cy="175.825" r="54.777"/>
		
			<radialGradient id="SVGID_62_" cx="661.4481" cy="795.5488" r="54.7773" gradientTransform="matrix(0.7071 -0.7071 0.7071 0.7071 -336.4216 81.0018)" gradientUnits="userSpaceOnUse">
			<stop  offset="0" style="stop-color:#FFFEFF"/>
			<stop  offset="1" style="stop-color:#FFFEFF;stop-opacity:0"/>
		</radialGradient>
		<circle opacity="0.37" fill="url(#SVGID_62_)" cx="693.831" cy="175.825" r="54.777"/>
		
			<radialGradient id="SVGID_63_" cx="661.4481" cy="795.5488" r="54.7773" gradientTransform="matrix(0.7071 -0.7071 0.7071 0.7071 -336.4216 81.0018)" gradientUnits="userSpaceOnUse">
			<stop  offset="0" style="stop-color:#FFFEFF"/>
			<stop  offset="1" style="stop-color:#FFFEFF;stop-opacity:0"/>
		</radialGradient>
		<circle opacity="0.37" fill="url(#SVGID_63_)" cx="693.831" cy="175.825" r="54.777"/>
	</g>
	<g>
		
			<radialGradient id="SVGID_64_" cx="-183.5705" cy="1136.7908" r="54.7773" gradientTransform="matrix(0.7071 -0.7071 0.7071 0.7071 -336.4216 81.0018)" gradientUnits="userSpaceOnUse">
			<stop  offset="0" style="stop-color:#FFFEFF"/>
			<stop  offset="1" style="stop-color:#FFFEFF;stop-opacity:0"/>
		</radialGradient>
		<circle opacity="0.37" fill="url(#SVGID_64_)" cx="337.607" cy="1014.638" r="54.777"/>
		
			<radialGradient id="SVGID_65_" cx="-183.5705" cy="1136.7908" r="54.7773" gradientTransform="matrix(0.7071 -0.7071 0.7071 0.7071 -336.4216 81.0018)" gradientUnits="userSpaceOnUse">
			<stop  offset="0" style="stop-color:#FFFEFF"/>
			<stop  offset="1" style="stop-color:#FFFEFF;stop-opacity:0"/>
		</radialGradient>
		<circle opacity="0.37" fill="url(#SVGID_65_)" cx="337.607" cy="1014.638" r="54.777"/>
		
			<radialGradient id="SVGID_66_" cx="-183.5705" cy="1136.7908" r="54.7773" gradientTransform="matrix(0.7071 -0.7071 0.7071 0.7071 -336.4216 81.0018)" gradientUnits="userSpaceOnUse">
			<stop  offset="0" style="stop-color:#FFFEFF"/>
			<stop  offset="1" style="stop-color:#FFFEFF;stop-opacity:0"/>
		</radialGradient>
		<circle opacity="0.37" fill="url(#SVGID_66_)" cx="337.607" cy="1014.638" r="54.777"/>
		
			<radialGradient id="SVGID_67_" cx="-183.5705" cy="1136.7908" r="54.7773" gradientTransform="matrix(0.7071 -0.7071 0.7071 0.7071 -336.4216 81.0018)" gradientUnits="userSpaceOnUse">
			<stop  offset="0" style="stop-color:#FFFEFF"/>
			<stop  offset="1" style="stop-color:#FFFEFF;stop-opacity:0"/>
		</radialGradient>
		<circle opacity="0.37" fill="url(#SVGID_67_)" cx="337.607" cy="1014.638" r="54.777"/>
		
			<radialGradient id="SVGID_68_" cx="-183.5705" cy="1136.7908" r="54.7773" gradientTransform="matrix(0.7071 -0.7071 0.7071 0.7071 -336.4216 81.0018)" gradientUnits="userSpaceOnUse">
			<stop  offset="0" style="stop-color:#FFFEFF"/>
			<stop  offset="1" style="stop-color:#FFFEFF;stop-opacity:0"/>
		</radialGradient>
		<circle opacity="0.37" fill="url(#SVGID_68_)" cx="337.607" cy="1014.638" r="54.777"/>
	</g>
	<g>
		
			<radialGradient id="SVGID_69_" cx="14.3809" cy="1223.9446" r="54.7773" gradientTransform="matrix(0.7071 -0.7071 0.7071 0.7071 -336.4216 81.0018)" gradientUnits="userSpaceOnUse">
			<stop  offset="0" style="stop-color:#FFFEFF"/>
			<stop  offset="1" style="stop-color:#FFFEFF;stop-opacity:0"/>
		</radialGradient>
		<circle opacity="0.37" fill="url(#SVGID_69_)" cx="539.207" cy="936.292" r="54.777"/>
		
			<radialGradient id="SVGID_70_" cx="14.3809" cy="1223.9446" r="54.7773" gradientTransform="matrix(0.7071 -0.7071 0.7071 0.7071 -336.4216 81.0018)" gradientUnits="userSpaceOnUse">
			<stop  offset="0" style="stop-color:#FFFEFF"/>
			<stop  offset="1" style="stop-color:#FFFEFF;stop-opacity:0"/>
		</radialGradient>
		<circle opacity="0.37" fill="url(#SVGID_70_)" cx="539.207" cy="936.292" r="54.777"/>
		
			<radialGradient id="SVGID_71_" cx="14.3809" cy="1223.9446" r="54.7773" gradientTransform="matrix(0.7071 -0.7071 0.7071 0.7071 -336.4216 81.0018)" gradientUnits="userSpaceOnUse">
			<stop  offset="0" style="stop-color:#FFFEFF"/>
			<stop  offset="1" style="stop-color:#FFFEFF;stop-opacity:0"/>
		</radialGradient>
		<circle opacity="0.37" fill="url(#SVGID_71_)" cx="539.207" cy="936.292" r="54.777"/>
		
			<radialGradient id="SVGID_72_" cx="14.3809" cy="1223.9446" r="54.7773" gradientTransform="matrix(0.7071 -0.7071 0.7071 0.7071 -336.4216 81.0018)" gradientUnits="userSpaceOnUse">
			<stop  offset="0" style="stop-color:#FFFEFF"/>
			<stop  offset="1" style="stop-color:#FFFEFF;stop-opacity:0"/>
		</radialGradient>
		<circle opacity="0.37" fill="url(#SVGID_72_)" cx="539.207" cy="936.292" r="54.777"/>
		
			<radialGradient id="SVGID_73_" cx="14.3809" cy="1223.9446" r="54.7773" gradientTransform="matrix(0.7071 -0.7071 0.7071 0.7071 -336.4216 81.0018)" gradientUnits="userSpaceOnUse">
			<stop  offset="0" style="stop-color:#FFFEFF"/>
			<stop  offset="1" style="stop-color:#FFFEFF;stop-opacity:0"/>
		</radialGradient>
		<circle opacity="0.37" fill="url(#SVGID_73_)" cx="539.207" cy="936.292" r="54.777"/>
	</g>
	
		<radialGradient id="SVGID_74_" cx="328.3859" cy="1313.6235" r="138.8727" gradientTransform="matrix(0.8861 -0.4635 0.4635 0.8861 -203.5302 -253.4338)" gradientUnits="userSpaceOnUse">
		<stop  offset="0" style="stop-color:#FFFEFF"/>
		<stop  offset="1" style="stop-color:#FFFEFF;stop-opacity:0"/>
	</radialGradient>
	<path opacity="0.37" fill="url(#SVGID_74_)" d="M720.378,765.313c1.589,40.14-9.584,175.49-30.4,186.378
		c-20.815,10.888-39.868-141.121-43.805-169.326c-3.247-23.265,37.493-207.4,58.309-218.287
		C725.298,553.19,719.449,741.841,720.378,765.313z"/>
	
		<radialGradient id="SVGID_75_" cx="137.9702" cy="1132.6752" r="178.4233" gradientTransform="matrix(0.8791 -0.4766 0.4766 0.8791 -218.7808 -216.4754)" gradientUnits="userSpaceOnUse">
		<stop  offset="0" style="stop-color:#FFFEFF"/>
		<stop  offset="1" style="stop-color:#FFFEFF;stop-opacity:0"/>
	</radialGradient>
	<path opacity="0.37" fill="url(#SVGID_75_)" d="M438.889,962.054c-26.596,14.417-54.032-180.964-59.64-217.208
		c-4.626-29.897,44.323-267.788,70.919-282.205C476.765,448.223,465.486,947.637,438.889,962.054z"/>
	
		<radialGradient id="SVGID_76_" cx="962.101" cy="712.0414" r="127.8053" gradientTransform="matrix(-0.8735 0.4869 -0.4869 -0.8735 1998.6217 892.2275)" gradientUnits="userSpaceOnUse">
		<stop  offset="0" style="stop-color:#FFFEFF"/>
		<stop  offset="1" style="stop-color:#FFFEFF;stop-opacity:0"/>
	</radialGradient>
	<path opacity="0.37" fill="url(#SVGID_76_)" d="M811.94,560.663c18.928-10.55,40.224,129.161,44.545,155.074
		c3.565,21.375-29.493,192.177-48.422,202.727C789.135,929.015,793.012,571.213,811.94,560.663z"/>
	
		<radialGradient id="SVGID_77_" cx="55.4929" cy="711.0681" r="166.675" gradientTransform="matrix(0.5923 -0.8057 0.8057 0.5923 -59.6769 368.5895)" gradientUnits="userSpaceOnUse">
		<stop  offset="0" style="stop-color:#FFFEFF"/>
		<stop  offset="1" style="stop-color:#FFFEFF;stop-opacity:0"/>
	</radialGradient>
	<path opacity="0.37" fill="url(#SVGID_77_)" d="M554.543,976.965c-16.011,21.781-27.506-107.519-21.476-210.749
		c6.794-116.315-9.493-233.911,6.517-255.692C555.595,488.743,570.554,955.184,554.543,976.965z"/>
	
		<radialGradient id="SVGID_78_" cx="42.3488" cy="693.1866" r="166.675" gradientTransform="matrix(0.5923 -0.8057 0.8057 0.5923 -59.6769 368.5895)" gradientUnits="userSpaceOnUse">
		<stop  offset="0" style="stop-color:#FFFEFF"/>
		<stop  offset="1" style="stop-color:#FFFEFF;stop-opacity:0"/>
	</radialGradient>
	<path opacity="0.37" fill="url(#SVGID_78_)" d="M532.351,976.965c-16.011,21.781-27.506-107.519-21.476-210.749
		c6.794-116.315-9.493-233.911,6.517-255.692C533.402,488.743,548.361,955.184,532.351,976.965z"/>
	
		<radialGradient id="SVGID_79_" cx="267.4312" cy="1641.2715" r="74.6174" gradientTransform="matrix(0.8282 -0.0786 0.0566 0.5962 375.0676 21.8958)" gradientUnits="userSpaceOnUse">
		<stop  offset="0" style="stop-color:#FFFEFF"/>
		<stop  offset="1" style="stop-color:#FFFEFF;stop-opacity:0"/>
	</radialGradient>
	<path opacity="0.37" fill="url(#SVGID_79_)" d="M625.65,1024.319c-10.022,0.951,23.904-25.389,54.64-43.465
		c34.632-20.367,64.088-45.456,74.11-46.407C764.424,933.496,635.673,1023.367,625.65,1024.319z"/>
	
		<radialGradient id="SVGID_80_" cx="267.3209" cy="1641.2715" r="74.6791" gradientTransform="matrix(0.8282 -0.0786 0.0566 0.5962 375.0676 21.8958)" gradientUnits="userSpaceOnUse">
		<stop  offset="0" style="stop-color:#FFFEFF"/>
		<stop  offset="1" style="stop-color:#FFFEFF;stop-opacity:0"/>
	</radialGradient>
	<path opacity="0.37" fill="url(#SVGID_80_)" d="M625.65,1024.319c-10.022,0.951,18.469-35.326,49.205-53.402
		c34.632-20.367,69.523-35.519,79.545-36.47C764.424,933.496,635.673,1023.367,625.65,1024.319z"/>
	
		<radialGradient id="SVGID_81_" cx="-249.4699" cy="1105.5376" r="66.1591" gradientTransform="matrix(0.469 -0.6871 0.4946 0.3377 202.9792 537.7481)" gradientUnits="userSpaceOnUse">
		<stop  offset="0" style="stop-color:#FFFEFF"/>
		<stop  offset="1" style="stop-color:#FFFEFF;stop-opacity:0"/>
	</radialGradient>
	<path opacity="0.37" fill="url(#SVGID_81_)" d="M634.973,1148.989c-5.676,8.315-8.244-36.346-9.604-71.977
		c-1.51-39.56,0.234-53.688,5.91-62.003S640.649,1140.674,634.973,1148.989z"/>
	
		<radialGradient id="SVGID_82_" cx="422.3345" cy="975.9507" r="66.3032" gradientTransform="matrix(0.8302 0.0528 -0.038 0.5977 272.5704 -110.52)" gradientUnits="userSpaceOnUse">
		<stop  offset="0" style="stop-color:#FFFEFF"/>
		<stop  offset="1" style="stop-color:#FFFEFF;stop-opacity:0"/>
	</radialGradient>
	<path opacity="0.37" fill="url(#SVGID_82_)" d="M530.229,530.915c-10.047-0.639,17.68-31.03,47.629-50.381
		c33.252-21.485,55.663-21.8,65.71-21.161S540.277,531.553,530.229,530.915z"/>
	
		<radialGradient id="SVGID_83_" cx="422.4328" cy="975.9507" r="66.2536" gradientTransform="matrix(0.8302 0.0528 -0.038 0.5977 272.5704 -110.52)" gradientUnits="userSpaceOnUse">
		<stop  offset="0" style="stop-color:#FFFEFF"/>
		<stop  offset="1" style="stop-color:#FFFEFF;stop-opacity:0"/>
	</radialGradient>
	<path opacity="0.37" fill="url(#SVGID_83_)" d="M530.229,530.915c-10.047-0.639,19.92-21.247,49.869-40.598
		c33.252-21.485,53.423-31.583,63.47-30.944S540.277,531.553,530.229,530.915z"/>
	
		<radialGradient id="SVGID_84_" cx="712.7022" cy="747.3309" r="66.2536" gradientTransform="matrix(1.2955 0.0824 -0.076 1.1949 -41.0068 -493.8089)" gradientUnits="userSpaceOnUse">
		<stop  offset="0" style="stop-color:#FFFEFF"/>
		<stop  offset="1" style="stop-color:#FFFEFF;stop-opacity:0"/>
	</radialGradient>
	<path opacity="0.37" fill="url(#SVGID_84_)" d="M737.098,530.988c-15.678-0.997,31.709-42.993,79.034-82.478
		c52.543-43.839,84.335-64.57,100.013-63.573C931.823,385.933,752.776,531.985,737.098,530.988z"/>
	
		<radialGradient id="SVGID_85_" cx="713.9408" cy="747.3309" r="65.6312" gradientTransform="matrix(1.2955 0.0824 -0.076 1.1949 -41.0068 -493.8089)" gradientUnits="userSpaceOnUse">
		<stop  offset="0" style="stop-color:#FFFEFF"/>
		<stop  offset="1" style="stop-color:#FFFEFF;stop-opacity:0"/>
	</radialGradient>
	<path opacity="0.37" fill="url(#SVGID_85_)" d="M819.822,459.344c52.543-43.839,80.645-75.404,96.323-74.407
		c15.678,0.997-163.368,147.048-179.047,146.051"/>
	
		<radialGradient id="SVGID_86_" cx="807.9802" cy="833.5306" r="71.9995" gradientTransform="matrix(-0.0824 1.2955 -1.1949 -0.076 1499.9067 -553.0906)" gradientUnits="userSpaceOnUse">
		<stop  offset="0" style="stop-color:#FFFEFF"/>
		<stop  offset="1" style="stop-color:#FFFEFF;stop-opacity:0"/>
	</radialGradient>
	<path opacity="0.37" fill="url(#SVGID_86_)" d="M453.702,420.281c43.839,52.543,75.404,80.645,74.407,96.323
		c-0.997,15.678-182.436-157.939-181.439-173.617L453.702,420.281z"/>
</g>
</svg>
