<?xml version="1.0" encoding="utf-8"?>
<!-- Generator: Adobe Illustrator 24.0.2, SVG Export Plug-In . SVG Version: 6.00 Build 0)  -->
<svg version="1.1" id="Capa_1" xmlns="http://www.w3.org/2000/svg" xmlns:xlink="http://www.w3.org/1999/xlink" x="0px" y="0px"
	 viewBox="0 0 1200 1200" enable-background="new 0 0 1200 1200" xml:space="preserve">
<g>
	<path fill="#9895C1" d="M651.678,630.406c2.005,2.922,4.304,3.92,6.789,5.621c11.556-4.65,22.008-13.658,34.213-18.182
		c22.961-8.548,49.155-3.408,70.847-14.602c16.013-7.391,39.096-32.445,20.953-47.884c-13.646-8.319-31.197-3.107-47.317-4.688
		c-19.589-1.889-37.95-11.423-57.165-12.563c-17.152-0.853-34.424-2.24-51.47-3.938c-48.525-5.056-97.564-8.455-145.623-15.125
		c-27.221-2.608-97.601,25.089-113.152,46.727c-6.361,15.915,16.437,19.441-1.166,45.515c36.258,26.176,85.051,11.934,126.645,9.286
		c38.913-2.422,77.506,4.71,114.829,14.647c9.772-6.692,18.492-16.587,20.549-28.244c0.747-5.468,9.047-5.691,10.174-0.395
		C643.034,615.205,646.257,623.482,651.678,630.406z M623.299,600.892c-19.679,7.616-42.591,3.152-61.753-2.656
		c-26.053-7.951-52.657-8.622-79.579-6c-3.755,5.244-6.759,11.038-8.866,17.126c-0.755,2.909-1.986,7.158-4.836,8.453
		c-2.328-0.47-3.971-3.55-4.133-5.757c-1.638-6.648-4.214-13.181-7.299-19.267c-60.892,8.96-56.957-36.736-3.646-43.074
		c5.049-7.21,1-25.856,11.37-25.698c9.223,0.873,6.901,18.134,10.427,24.188c-1.522-1.43,30.532-7.791,30.676-8.308
		c61.144-20.501,97.098,4.852,154,15.737c4.931,0.684,7.223-0.327,12.493-1.593c8.905-1.763,17.647-0.121,25.939,3.388
		c16.264,6.899,15.442,28.355-1.402,33.987C669.217,599.421,653.772,587.323,623.299,600.892z"/>
	<path fill="#8B86B5" d="M900.738,592.233c-30.212,26.843-76.665,21.085-108.84,43.194c-31.324,30.363-69.798,55.112-114.551,57.712
		c-57.922,4.307-113.382-9.843-170.844-9.493c-63.579-1.725-159.557,8.133-209.156-38.437c2.876,8.514,6.264,19.368,13.562,24.689
		c3.157,1.581,4.39,5.513,2.615,8.585c-5.146,5.214-10.872,8.234-14.097,14.885c78.758,15.519,164.904,39.957,245.129,41.546
		c55.94-0.695,113.623-6.069,168.491-16.56c56.651-11.19,100.725-48.722,152.398-72.801c25.415-12.714,55.128-16.491,80.651-27.523
		c143.355-84.587-188.993-148.786-244.033-143.394c-12.3-0.097-24.634,0.537-36.901,1.504c-16.699,0.425-31.486-4.473-47.908-3.069
		c-28.745,0.184-53.824,17.427-82.481,19.226c-41.713,3.723-85.248-10.801-123.493,10.582
		c-25.246,14.751-54.317,25.274-84.041,23.781c-23.832-0.517-57.529-7.455-68.44,17.872c0.797,30.513,61.235,29.581,60.456,66.673
		c-0.328,4.615-2.157,9.642-4.756,13.237c-3.06,4.893-7.55,8.153-6.406,12.837c50.006,41.472,136.569,31.457,198.584,33.57
		c28.551,0.178,57.356,3.124,85.647,6.337c60.879,8.391,129.311,8.871,176.141-37.056c14.964-16.776,36.927-26.471,57.864-31.342
		c25.173-7.657,56.547-8.656,72.4-31.662c6.513-10.73,4.532-23.198-6.414-30.264c-36.311-20.887-79.642-24.656-120.599-32.329
		c-61.04-12.948-122.234-7.941-183.123,2.274c30.808,2.927,61.415,6.843,92.283,8.466c17.848,1.167,33.939,8.469,50.774,11.942
		c19.382,4.137,41.546-4.203,59.751,8.453c16.207,10.769,12.611,34.319,1.477,47.291c-12.86,17.029-34.189,26.002-54.724,27.452
		c-19.384,1.715-38.374,0.835-55.261,11.277c-11.474,8.31-29.51,10.409-37.705,23.363c-2.856,4.249-4.914,9.383-6.764,14.253
		c-0.357,1.764-2.144,3.926-3.57,4.265c-1.225-0.547-3.157-3.086-3.289-4.364c-3.93-11.704-13.581-19.656-23.014-27.18
		c-36.836-8.698-74.843-15.15-112.64-12.025c-39.051,3.901-80.542,14.722-118.643-0.773c-18.509-7.835-26.098-13.632-13.934-33.048
		c1.328-11.579-13.281-21.527-4.253-36.094c16.281-25.197,65.147-41.101,93.364-50.542c29.655-8.499,59.9,1.963,89.317,3.798
		c20.311,1.233,40.335-3.796,60.501-6.39c56.407-10.329,114.603-13.054,171.002-2.108
		C814.504,513.132,956.473,523.201,900.738,592.233z M616.517,715.388c-38.111,7.712-77.543,9.212-116.2,5.186
		c-6.716-1.668-42.478-3.57-40.615-11.551c2.401-5.891,34.061,0.053,41.621-0.92c25.372,1.246,50.709,2.112,76.124,1.572
		c12.716-0.165,25.434-0.67,38.224-1.121C619.757,708.307,620.561,714.64,616.517,715.388z M897.228,626.884
		c-20.997,8.806-46.814,10.336-65.81,21.968c-14.208,9.045-26.793,24.326-42.559,32.891c-4.857,2.1-19.781,10.552-22.205,3.041
		c-0.184-1.678,0.863-3.206,2.418-3.683c34.881-13.888,46.552-52.542,90.974-56.042
		C864.991,624.885,910.285,613.707,897.228,626.884z M847.293,540.793c6.868-8.099,44.503,18.232,31.635,24.501
		c-1.263,0.304-2.401-0.187-3.346-0.921c-4.698-3.058-9.382-3.937-14.688-7.002C856.845,554.624,842.788,545.434,847.293,540.793z
		 M809.721,565.705c8.994-7.159,15.831-17.226,17.278-27.997c0.616-5.665,9.268-5.894,10.242-0.36
		c1.13,5.454,2.829,10.746,4.883,15.69c1.832,3.938,4.308,9.285,7.799,11.43c3.218,1.549,3.65,6.234,0.768,8.328
		c-9.083,5.768-12.774,15.275-15.985,25.052c-0.131,1.439-2.21,3.522-3.27,3.694c-3.586-1.973-3.532-6.949-5.421-10.173
		c-3.696-7.8-9.651-13.95-16.047-19.819C808.285,570.005,808.174,567.388,809.721,565.705z M342.951,541.056
		c-21.287,8.128-44.002-0.569-65.587,5.026c-1.956,0.546-4.006-0.651-4.44-2.646c8.085-17.99,36.919-11.92,52.646-10.208
		c5.398,0.715,10.617,1.147,15.988,1.106C345.29,534.191,346.394,539.734,342.951,541.056z"/>
	<path fill="#76729D" d="M734.691,723.242c8.624-2.315,16.769-4.977,22.119-7.772C749.57,718.451,742.197,721.007,734.691,723.242z"
		/>
	<path fill="#676191" d="M312.366,401.096c-0.194,0.061-0.384,0.137-0.578,0.2c30.71-13.098,64.53-19.443,96.256-7.062
		c25.03,8.071,52.967,4.821,78.117,2.751c-16.201,2.921-36.905,7.294-52.785,9.678C392.863,412.713,352.93,388.748,312.366,401.096z
		 M657.693,580.384c10.984,0.356,24.009,2.266,34.189-1.247c13.803-6.239-4.43-13-11.444-12.843
		c-29.897,6.881-60.035-8.781-87.589-16.788c-38.14-15.029-77.277-1.548-115.741,4.187c6.043,14.579,33.8,11.975,11.475,30.199
		c55.335-12.598,91.044,18.094,130.74,4.602C630.457,584.754,644.48,579.444,657.693,580.384z M183.522,733.91
		c2.161,4.37,5.059,8.408,8.413,11.997c-53.92-18.021-27.301-63.196-84.942-85.772c-4.444-1.554-8.602-4.735-11.259-8.559
		c9.733,3.965,16.596,11.09,28.424,13.655c17.904,2.199,31.544-8.528,35.076,16.896c2.195,9.893,6.504,22.174,17.315,25.403
		C177.338,716.617,179.264,725.538,183.522,733.91z M613.572,779.657c14.028-3.047,27.759-7,41.359-11.156
		c-58.437,21.187-120.045,40.403-182.629,40.216c-52.956-5.794-101.869-28.917-154.079-39.842
		c-83.634-20.633-141.724,7.273-133.131-108.095c16.876,68.808,93.411,77.734,151.45,90.546
		C426.474,772.971,520.697,801.285,613.572,779.657z M107.69,574.786c1.788,2.546,3.772,4.85,5.826,7.06
		c-18.243-6.937-45.168-19.148-41.829-42.017c19.754-22.477,28.206-25.708,33.142-58.311c8.766-37.076,46.305-58.962,82.05-64.068
		c46.759,0.599,58.488,18.008,108.852-8.487c-34.652,36.637-86.987,18.305-117.172,55.438c-10.186,4.413-20.031,9.654-29.187,15.952
		c-4.114-6.942-2.638-27.289-11.296-27.978c-3.571-0.347-6.747,2.265-7.095,5.835c-0.701,7.189-2.776,14.261-5.803,20.913
		c-3.094,6.749-7.361,13.01-12.597,18.339c-4.182,4.478,1.771,8.844,4.272,12.408C102.585,527.445,92.369,554.608,107.69,574.786z
		 M1041.711,660.092c10.29-46.605,49.97-65.68,79.934-97.473c28.102-32.846,17.532-63.809-21.209-79.766
		c-20.638-8.952-40.519-19.96-62.057-26.599c-64.834-21.244-133.537-22.829-200.625-32.244
		c-74.642-9.306-151.098-40.634-225.92-17.738c1.845,2.25,4.043,4.226,6.391,6.04c-3.573,4.009-6.621,8.431-8.922,13.307
		c32.406-1.795,65.049,0.532,97.413,0.973c24.711,0.712,49.758-3.368,74.154,2.275c22.007,3.187,36.293,25.02,59.352,24.029
		c47.723,2.802,101.726,0.874,142.48,29.526c7.367,6.61,12.766,15.006,20.867,20.791c11.333,8.94,24.583,15.533,34.72,25.988
		c26.316,35.14,11.901,90.311-19.699,117.711c-11.282,20.583-18.98,44.301-41.244,55.965
		c-28.081,18.157-62.782,21.434-92.186,36.096c-46.538,29.951-63.188,22.96-113.856,28.263
		c-14.879,2.532-31.641,10.005-35.841,25.744c-0.894,3.51-1.248,8.221,3.065,9.413c12.213,2.842,22.888-4.128,33.692-9.824
		c12.245-7.432,26.749-12.629,40.438-17.356c61.422-21.937,126.629-34.287,185.359-63.176c0.001,0.001,0.002,0.003,0.003,0.004
		c0.001-0.001,0.002-0.001,0.003-0.002c-2.776-2.971-5.595-5.888-8.469-8.726c12.453-12.755,23.439-27.539,31.755-43.521
		c0.74,1.534,1.563,3.021,2.437,4.487c1.246,1.179,8.009,13.225,9.667,15.412C1036.84,673.484,1039.438,666.831,1041.711,660.092z
		 M1098.363,501.513c2.262-4.697,7.488-0.497,10.152,1.611c11.367,9.713,16.044,25.837,13.604,40.372
		c-4.489,27.305-32.406,40.557-52.115,56.307c-17.616,2.555,13.607-22.765,16.406-26.435c18.816-15.729,29.532-32.381,19.824-57.209
		c-1.775-4.021-4.034-7.986-7.072-10.908C1098.149,504.255,1097.865,502.792,1098.363,501.513z M1058.412,576.323
		c3.051-9.234,12.35-14.131,18.146-21.266c10.18-11.434,9.552-27.292,9.171-41.388c7.655-8.116,12.734,14.043,12.474,19.336
		c0.177,10.83-4.171,21.659-11.596,29.534c-6.283,7.087-16.015,10.22-22.118,16.724
		C1062.32,582.15,1057.393,579.75,1058.412,576.323z M1027.214,487.417c-4.923,9.963-29.815-15.371-34.354-19.417
		c-16.679-8.653-35.364-14.781-53.969-17.803c-2.504-0.205-3.999-3.265-2.53-5.323c11.848-6.746,27.959-1.811,40.28,1.85
		c14.875,4.022,27.828,12.432,36.19,25.671C1016.17,477.724,1027.042,481.193,1027.214,487.417z"/>
	<path fill="#4B456E" d="M1016.36,668.668c0.296-0.935,0.797-1.76,1.441-2.45C1017.327,667.039,1016.847,667.856,1016.36,668.668z
		 M650.565,593.718c-13.657,1.019-28.119,9.052-42.817,10.831c-25.959,3.099-49.591-9.541-74.585-12.328
		c-17.044-2.758-34.002-0.987-51.196,0.014c-3.755,5.244-6.759,11.038-8.866,17.126c-0.755,2.909-1.986,7.158-4.836,8.453
		c-2.329-0.469-3.971-3.551-4.133-5.757c-1.638-6.647-4.214-13.181-7.299-19.267c-60.892,8.959-56.957-36.736-3.646-43.074
		c5.049-7.21,0.999-25.855,11.37-25.698c9.223,0.873,6.9,18.134,10.427,24.188c-1.537-1.417,30.543-7.8,30.676-8.308
		c61.144-20.501,97.098,4.851,154,15.737c4.931,0.683,7.223-0.327,12.493-1.594c8.905-1.763,17.647-0.121,25.939,3.389
		c16.264,6.898,15.442,28.355-1.402,33.987C681.255,597.049,666.083,593.049,650.565,593.718z M480.726,574.81
		c-7.718-3.793-14.311-10.79-17.132-18.988c-2.905,6.183-6.781,11.899-11.252,17.023c8.128,5.968,12.737,15.216,15.552,24.602
		c0.953-2.745,2.07-5.426,3.372-8.014c-0.298-1.426,0.664-2.84,1.877-3.43C475.315,582.049,477.841,578.293,480.726,574.81z
		 M649.42,580.553c13.775-1.155,29.427,3.015,42.463-1.417c4.401-1.537,7.202-5.388,2.644-8.668
		c-11.192-8.11-24.164-0.829-36.514-2.267c-22.807-3.404-44.249-12.252-65.163-18.695c-38.14-15.029-77.277-1.548-115.741,4.186
		c6.042,14.579,33.8,11.976,11.475,30.199c25.093-4.348,51.162-3.391,75.779,3.049c14.253,3.261,27.575,6.972,41.681,4.981
		C620.776,589.531,633.206,581.975,649.42,580.553z M809.967,571.551c-1.942-1.744-1.717-4.935,0.406-6.431
		c8.78-7.047,15.173-16.956,16.625-27.412c0.616-5.665,9.268-5.894,10.241-0.36c1.13,5.454,2.829,10.746,4.884,15.69
		c1.833,3.938,4.308,9.285,7.799,11.43c3.218,1.55,3.649,6.234,0.768,8.329c-9.084,5.768-12.774,15.275-15.985,25.051
		c-0.132,1.439-2.209,3.522-3.27,3.694c-1.258-0.605-3.028-2.823-3.179-4.286C825.265,586.817,817.915,578.777,809.967,571.551z
		 M819.183,569.033c4.608,5.179,8.854,11.027,11.594,17.513c1.578-6.314,4.447-12.647,9.13-17.38
		c-3.887-4.201-6.388-9.147-8.461-14.32C828.307,560.308,823.951,565.07,819.183,569.033z M696.9,815.126
		c-6.185-5.408-14.353-5.59-22.061-5.015l0.002,0.018c-25.7,3.069-50.765,19.668-75.554,23.414
		c-15.76,2.044-35.671-1.836-49.115,10.779c-5.899,4.727-5.183,15.666,2.139,18.642c14.357,7.673,31.029-0.511,45.124-1.937
		c26.221-1.812,58.806,8.537,79.336-13.994c2.843-2.33,3.817-7.952,7.409-8.359C695.978,839.716,706.179,824.788,696.9,815.126z
		 M660.297,380.079c2.209,0.506,3.619,0.202,5.036,0.003l-0.003-0.018c55.971-10.847,62.306,13.166,91.748,3.019
		c6.804-2.73,12.164-14.431,4.185-19.147c-5.789-2.834-11.685-1.755-16.952-1.501c-8.598,0.249-17.13-2.834-25.785-5.13
		c-18.485-4.146-44.32-9.14-57.928,8.019C656.954,368.89,652.996,377.972,660.297,380.079z M489.168,839.487
		c-8.311-3.208-14.164,3.113-21.54,3.223c-9.348,2.236-27.145-8.749-33.304,0.941l0.016,0.007
		c-10.004,23.161,36.435,28.655,50.586,22.084C495.681,861.975,502.134,845.273,489.168,839.487z M76.642,622.449
		c-0.946-12.129,1.452-24.667-3.048-36.464c-15.027-21.109-37.073,24.625-12.715,41.893l0.012-0.012
		c2.487,5.458,14.562,9.458,15.781,0.955C76.663,628.427,76.65,623.011,76.642,622.449z M798.812,381.673
		c8.401,11.971,36.028,9.092,49.279,10.908l0.003-0.018c10.633,4.165,17.863-8.115,8.759-14.977
		C844.649,368.549,794.953,353.445,798.812,381.673z M770.468,687.839c25.035-2.796,41.707-26.682,60.95-38.985
		c19.001-11.635,44.805-13.161,65.809-21.971c1.414-0.519,2.375-1.929,2.256-3.505c-0.377-7.742-33.091,1.666-39.438,1.678
		c-25.375,2.151-47.227,19.657-63.295,37.399c-8.337,8.131-16.974,15.359-27.613,18.628
		C765.206,682.084,766.339,688.403,770.468,687.839z M341.557,534.333c-22.169,0.64-48.973-11.542-67.732,5.881
		c-2.395,2.348-0.014,6.774,3.326,5.913c16.02-3.815,31.537-1.059,48.009-1.521c5.757-1.016,17.767-0.034,19.922-6.793
		C345.068,535.878,343.49,534.321,341.557,534.333z M462.07,713.294c37.652,10.336,77.3,10.88,115.989,7.752
		c7.381-1.711,40.577-2.028,41.193-9.163c1.376-6.936-35.486-0.835-41.805-2.209c-25.415,0.541-50.752-0.324-76.124-1.569
		c-12.692-0.545-25.37-1.316-38.222-1.583C459.242,706.321,458.199,712.301,462.07,713.294z M1099.312,505.398
		c16.106,17.316,12.941,47.075-5.837,61.232c-9.458,8.983-19.183,18.354-27.998,27.981c-2.748,2.853,1.225,7.579,4.526,5.189
		c24.048-17.883,59.784-37.812,51.809-73.203c-2.248-10.925-8.501-21.958-18.812-26.973
		C1099.551,497.974,1096.301,502.88,1099.312,505.398z M1060.605,580.371c3.016,1.112,4.635-2.361,6.799-3.817
		c19.37-10.013,36.991-30.838,29.061-54.108c-0.942-4.928-8.882-17.349-11.137-6.641c1.959,13.515,0.213,28.49-8.77,39.252
		C1072.99,560.697,1051.961,573.682,1060.605,580.371z M1021.289,479.987c-11.843-8.603-18.09-24.385-32.897-28.831
		c-12.831-4.923-42.049-16.278-52.585-4.862c0.088,6.251,10.29,3.857,14.397,5.953c16.471,5.589,35.663,8.331,48.412,20.984
		c6.799,7.078,17.101,16.523,27.107,16.183C1030.371,485.805,1024.017,482.192,1021.289,479.987z M1080.849,451.642
		c12.875,1.978,25.002,6.812,35.226,14.974c6.529,4.416,17.814,19.213,26.387,13.372c1.018-1.633,0.52-3.781-1.111-4.799
		c-12.863-10.974-23.027-29.103-41.967-31.812C1094.324,441.254,1069.301,443.52,1080.849,451.642z M848.134,546.65
		c6.931,9.03,18.43,13.038,28.03,18.117c2.485,1.818,6.251-0.668,5.452-3.713c-3.375-10.395-13.025-14.064-21.354-19.685
		C856.254,538.217,840.876,538.314,848.134,546.65z M214.221,581.84c-1.455-4.679-7.772-6.718-11.001-10.266
		c-25.061-19.915-36.114-32.803-0.849-49.883c3.115-1.857,1.354-7.057-2.339-6.439c-37.908,3.677-45.403,38.755-12.417,57.927
		C192.188,575.559,213.253,592.068,214.221,581.84z M203.58,528.938c-13.003,0.001-17.729,18.034-10.504,27.185
		c3.132,4.404,12.306,11.106,12.541,2.298c-0.946-4.211-2.632-6.451-2.868-9.659C200.981,542.93,211.124,530.721,203.58,528.938z
		 M694.446,748.449c0.574-0.155,4.235-1.063,8.746-2.259c-2.878,5.224-6.527,10.126-10.143,14.482
		c-67.333,33.434-144.789,60.909-221.257,61.269c-27.235-1.12-53.584-11.554-79.64-18.686
		c-38.371-11.688-76.135-24.034-115.652-29.972c-31.845-5.072-66.085-7.314-96.462-19.802
		c-36.216-11.727-33.593-38.914-52.806-63.805c-12.436-16.896-40.23-16.964-45.784-39.418c-2.011-6.394,3.689-12.874,10.088-12.483
		c6.685,0.593,13.115,4.305,18.392,7.612c21.014,19.627,44.471-4.56,55.817,24.275c3.189,9.902,2.276,22.12,10.434,29.732
		c-0.26-20.78,3.166-42.725-0.717-62.977c-10.037-16.888-27.41-26.486-43.201-38.355c-17.387-8.081-37.285-11.622-53.155-23.69
		c-17.317-11.598-26.831-37.912-6.413-51.61c14-11.747,17.992-25.341,20.865-43.92c9.227-43.106,52.134-68.692,93.269-74.342
		c58.78,2.493,57.116,17.626,117.036-14.084c23.854-10.301,50.514-17.407,77.084-15.809c15.522,1.752,29.491,8.148,44.664,10.568
		c20.532,7.412,73.766-9.645,82.115,6.652c5.997,19.425-32.066,17.77-42.615,21.297c-20.075,3.557-41.323,8.256-61.966,4.897
		c-55.083-9.174-78.376-22.781-125.792,15.654c-25.407,13.021-55.987,9.411-80.492,23.794c45.83-13.754,93.704-18.171,140.38-27.232
		c85.551-8.479,171.747-6.211,255.649-26.119c-1.577,2.203-3.518,4.089-5.537,5.922c0.903,0.769,1.695,1.584,2.432,2.408
		c-90.429,27.607-186.812,18.767-278.762,35.862c-53.736,10.381-110.808,10.596-158.879,39.103
		c1.52,7.586,11.706,10.413,7.241,17.753c-18.101,14.295-18.911,13.731-19.245,37.823l-6.814,0.985
		c-2.222-10.063-5.997-19.771-12.111-28.161c-49.981,72.471,61.745,74.037,73.249,137.427c10.484,46.559,55.717,68.566,99.499,75.67
		c45.436,8.961,90.784,21.136,135.827,31.117C529.468,783.828,597.365,778.65,694.446,748.449z M311.794,401.305
		c40.68-12.869,80.888,11.483,121.588,5.351c15.823-2.368,36.673-6.771,52.782-9.662c-25.141,2.052-53.096,5.318-78.122-2.77
		C376.314,381.866,342.498,388.18,311.794,401.305z M145.01,501.174c-4.019-5.571-6.437-11.517-8.571-17.78
		c-3.289,6.73-7.86,12.79-13.016,18.18c3.221,4.577,6.175,9.395,8.704,14.453C134.032,509.635,139.742,504.538,145.01,501.174z
		 M113.522,581.851c-21.78-19.763-13.696-52.072,3.327-71.973c-2.507-3.559-8.449-7.93-4.259-12.404
		c5.207-5.375,9.495-11.606,12.59-18.34c3.034-6.654,5.111-13.734,5.803-20.921c0.346-3.567,3.514-6.175,7.08-5.83
		c8.761,0.738,7.155,21.054,11.312,27.975c9.159-6.32,18.987-11.542,29.173-15.97c30.189-37.111,82.337-18.727,117.196-55.417
		c-50.705,26.548-61.898,9.045-108.865,8.488c-35.724,5.091-73.315,26.981-82.035,64.07c-4.965,32.574-13.445,35.91-33.168,58.29
		C68.371,562.748,95.261,574.84,113.522,581.851z M191.936,745.893c-9.874-10.25-14.306-24.585-15.385-38.355
		c-10.824-3.275-15.117-15.5-17.328-25.419c-3.476-25.39-17.183-14.715-35.055-16.875c-11.824-2.55-18.67-9.728-28.4-13.629
		c2.651,3.821,6.811,6.976,11.233,8.517C164.512,682.579,138.093,727.965,191.936,745.893z M654.919,768.492
		c-104.4,38.246-215.062,9.3-318.37-17.171c-58.009-12.776-134.636-21.779-151.453-90.549
		c-8.526,115.432,49.345,87.45,133.142,108.093c52.187,10.944,101.124,34.055,154.059,39.849
		C534.878,808.905,596.483,789.707,654.919,768.492z M1149.949,523.745c-1.978-40.026-47.972-46.695-76.978-60.82
		c-71.084-38.437-155.344-40.069-233.327-51.905c-76.076-10.282-157.036-41.812-231.975-10.352c1.243,1.915,2.615,3.794,4.16,5.597
		c55.021-17.396,112.995-3.426,168.059,7.417c47.657,10.622,96.61,15.073,145.065,20.336c50.638,5.998,102.536,13.64,148.552,36.705
		c26.04,12.411,69.517,24.38,63.429,61.114c-8.644,44.088-59.458,59.116-81.182,95.238c-10.414,16.31-13.147,35.827-22.333,52.622
		c1.605,2.312,3.272,4.591,5.007,6.836c11.878-16.178,15.594-36.892,26.854-53.203
		C1091.523,596.31,1152.011,577.117,1149.949,523.745z M600.269,429.579c1.489,3.096,2.801,6.255,4.039,9.442
		c-131.697,12.219-265.182,27.702-392.17,65.449c-23.075,7.738-74.453,20.179-55.125,53.479
		c8.907,13.018,24.749,20.14,38.464,27.628c69.825,33.85-4.706,83.824,73.144,100.481c-9.913-9.481-13.741-10.695-1.276-20.575
		c7.639-7.701,13.481-17.869,14.958-28.481c0.629-6.287,9.787-7.609,12.271-1.943c0.02-8.804,7.841-14.823,10.674-21.4
		c2.704-24.996-38.004-29.024-50.838-46.422c-22.98-24.245,2.521-51.024,29.412-53.951c29.513-3.225,55.955,4.877,83.869-4.847
		c13.547-3.787,25.118-10.519,37.717-17.06c39.192-22.513,86.111-8.7,128.243-11.764c21.382-1.421,39.991-11.569,60.847-16.398
		c23.868-6.493,48.759,0.192,72.479,0.216c83.479-5.751,167.579,12.156,245.226,42.079c26.881,11.297,57.055,21.638,73.757,47.379
		c19.249,29.589-6.931,64.521-35.243,75.353c-26.759,11.565-54.891,14.484-80.755,27.178c-38.12,17.98-73.947,42.957-113.151,60.047
		c-10.758,7.002-59.888,15.973-61.539,16.504c-50.043,6.741-100.189,12.067-150.867,11.767
		c-81.408-2.264-168.554-27.566-248.18-43.973c-1.549,3.417-2.809,7.145-4.072,10.726c-0.261,1.982-2.601,4.938-4.286,5.217
		c-2.783-1.226-4.126-5.081-4.817-7.772c-1.69-4.587-3.994-8.869-6.867-12.829c-105.22-19.33-9.907-72.13-96.515-106.602
		c-32.217-13.672-55.859-50.787-18.737-74.983c14.527-9.723,31.445-14.465,47.616-20.069
		c126.343-39.11,258.894-54.661,390.027-67.259C599.156,427.317,599.722,428.444,600.269,429.579z M297.341,645.2
		c2.881,8.52,6.266,19.38,13.575,24.701c3.157,1.563,4.366,5.53,2.609,8.571c-5.13,5.248-10.886,8.228-14.107,14.905
		c78.775,15.494,164.901,39.964,245.146,41.524c55.919-0.69,113.621-6.064,168.488-16.555
		c56.65-11.176,100.722-48.718,152.384-72.801c25.409-12.706,55.146-16.465,80.651-27.521
		c143.394-84.562-188.998-148.8-244.028-143.387c-12.298-0.102-24.635,0.528-36.892,1.489c-16.717,0.463-31.475-4.483-47.911-3.061
		c-28.745,0.184-53.84,17.438-82.487,19.217c-41.708,3.761-85.25-10.796-123.478,10.594c-25.271,14.742-54.3,25.28-84.058,23.769
		c-23.819-0.499-57.536-7.444-68.435,17.887c0.365,30.94,66.377,30.523,59.943,70.378c-0.702,8.523-11.624,14.909-10.647,22.357
		c49.587,41.37,136.909,31.527,198.593,33.567c28.531,0.182,57.351,3.111,85.629,6.36c60.887,8.356,129.317,8.883,176.153-37.082
		c14.971-16.745,36.929-26.477,57.868-31.325c25.171-7.661,56.547-8.66,72.399-31.674c6.504-10.723,4.51-23.202-6.416-30.265
		c-36.323-20.878-79.634-24.651-120.602-32.314c-61.049-12.971-122.23-7.924-183.128,2.263c30.809,2.941,61.419,6.852,92.282,8.465
		c17.851,1.175,33.946,8.476,50.786,11.951c19.374,4.128,41.536-4.187,59.756,8.437c35.415,31.94-19.446,75.637-53.261,74.767
		c-19.385,1.696-38.368,0.822-55.258,11.261c-11.484,8.303-29.5,10.43-37.717,23.369c-2.83,4.254-4.915,9.368-6.76,14.241
		c-0.341,1.792-2.161,3.925-3.567,4.286c-1.21-0.566-3.143-3.087-3.274-4.365c-3.958-11.69-13.56-19.683-23.024-27.177
		c-36.823-8.724-74.833-15.157-112.645-12.03c-29.301,2.819-58.897,9.717-88.689,6.494c-16.333-2.349-62.55-10.484-46.448-35.028
		c12.693-18.312-30.358-31.722,22.68-62.898c39.537-21.463,84.314-40.609,129.866-28.717c15.835,2.42,31.091,5.13,46.873,3.032
		c42.431-4.918,84.459-14.237,127.364-15.492c57.775,0.48,113.947,10.238,170.059,23.82c17.55,5.833,37.38,10.145,49.854,25.315
		c19.138,27.215-10.705,55.973-36.627,62.31c-61.413,17.585-62.773,10.411-111.364,54.091
		c-61.092,46.168-140.793,28.708-210.785,22.568C472.009,677.195,358.796,700.201,297.341,645.2z M647.04,623.267
		c2.67,5.17,6.381,10.178,11.419,12.75c11.572-4.622,22.033-13.65,34.23-18.179c22.933-8.54,49.168-3.409,70.829-14.587
		c16.044-7.415,39.061-32.421,20.976-47.885c-15.882-9.55-37.235-1.395-55.312-5.856c-23.901-6.391-46.597-12.995-71.229-12.773
		c-48.875-5.092-98.192-7.915-146.741-14.16c-28.378-6.519-56.251-3.736-82.593,8.437c-19.87,9.735-45.323,16.449-58.852,34.759
		c-6.176,13.115,14.672,22.679,0.905,41.631c-1.573,3.137-3.177,3.568-0.717,5.323c37.177,23.708,83.858,10.799,125.288,7.853
		c38.891-2.439,77.51,4.713,114.827,14.639c9.751-6.698,18.5-16.573,20.549-28.241c0.745-5.458,9.054-5.699,10.168-0.399
		C642.248,612.442,644.389,618.1,647.04,623.267z M643.633,637.002c-3.531-4.292-6.325-9.015-8.464-14.054
		c-4.181,6.743-10.091,12.398-16.476,16.822c6.168,5.8,11.964,12.447,15.624,20.255c0,0.027,0.027,0.053,0.027,0.08
		c2.054-7.546,5.986-15.029,12.111-20.229C645.416,638.945,644.432,637.96,643.633,637.002z M272.587,675.65
		c5.724,6.307,10.997,13.522,14.453,21.454c1.956-7.74,5.537-15.554,11.339-21.321c-4.84-5.117-7.903-11.224-10.514-17.54
		C283.881,664.916,278.49,670.806,272.587,675.65z M997.798,712.158c-58.694,28.78-123.786,41.159-185.14,63.055
		c-13.69,4.726-28.201,9.937-40.437,17.368c-11.168,5.671-23.847,14.527-35.934,8.572c-6.407-18.769,19.407-31.828,35.016-33.913
		c74.539-6.582,57.092,2.094,125.3-33.327c31.276-12.461,67.978-17.18,93.809-40.947c12.902-10.47,17.474-26.653,25.038-40.738
		c5.087-9.186,14.514-15.085,19.777-24.381c20.151-30.61,26.732-84.353-7.264-107.561c-9.586-7.059-20.062-12.973-28.977-20.87
		c-7.518-6.733-13.105-15.745-21.784-21.238c-39.653-22.406-87.323-23.146-131.649-25.022
		c-26.854,2.508-40.187-19.818-64.683-24.288c-24.403-5.634-49.44-1.561-74.154-2.275c-32.366-0.435-65.008-2.772-97.414-0.969
		c-2.083,4.184-3.496,8.852-4.374,13.362c50.145-2.49,101.815,1.887,151.775-0.23c34.885-0.888,41.234,16.21,68.512,24.865
		c48.724,5.925,101.087,0.202,145.252,24.646c6.819,4.375,11.032,10.72,17.008,16.715c12.989,12.83,29.039,19.936,40.379,30.184
		c20.534,23.101,13.847,62.257-1.702,86.692c-28.364,41.881-83.119,50.475-128.297,65.4c0-0.001-176.128,53.208-176.128,53.208
		c-1.98,0.969-6.456,2.366-11.22,3.722c0.789,2.241,1.673,4.446,2.617,6.626c0.522-0.214,1.04-0.438,1.576-0.633
		c-0.027-0.107-0.053-0.187-0.08-0.293l185.922-53.527c34.805-10.603,71.352-17.983,102.69-37.85
		c-23.323,58.736-100.178,49.442-146.261,82.436c-37.065,21.921-86.59-0.776-121.164,28.291c-19.082,15.416-20.8,49.919,11.34,46.98
		c25.201-3.89,44.229-22.297,68.593-28.292c62.374-23.143,129.077-37.05,187.385-70.245c-1.703-1.882-3.374-3.777-5.11-5.644
		C997.951,712.08,997.881,712.11,997.798,712.158z"/>
	<path fill="#76729D" d="M897.856,687.255c31.415-9.976,64.579-17.471,93.241-33.644c39.086-20.046,60.649-69.022,43.385-110.144
		c-10.898-17.193-31.403-22.378-47.005-38.488c-10.556-13.006-21.816-21.863-38.437-26.029c-31.38-9.978-64.66-12.12-97.578-13.071
		c-16.967,0.571-37.111-2.71-50.599-14.561c-27.054-19.209-62.446-10.664-94.253-11.79c-34.13-0.46-67.703-2.762-101.682-0.543
		c-0.069,0.339-0.162,0.679-0.227,1.018c-0.126-0.329-0.266-0.652-0.393-0.981c-131.697,12.219-265.182,27.702-392.17,65.449
		c-23.075,7.738-74.453,20.179-55.125,53.479c8.907,13.018,24.749,20.14,38.464,27.628c69.825,33.85-4.706,83.824,73.144,100.481
		c-9.891-9.455-13.759-10.725-1.276-20.575c7.639-7.701,13.481-17.869,14.958-28.481c0.629-6.287,9.787-7.609,12.271-1.943
		c0.02-8.796,7.841-14.829,10.674-21.4c3.456-16.891-19.806-25.444-32.047-32.42c-24.89-11.209-41.21-42.287-11.738-59.73
		c19.453-12.807,45.542-8.746,66.142-7.878c43.672,3.777,70.411-24.827,109.636-33.461c45.765-7.211,92.618,9.425,136.122-10.593
		c20.701-7.982,43.48-10.996,65.665-8.409c10.99,1.382,20.188,3.377,30.637,2.049c82.614-5.074,165.715,12.653,242.538,42.294
		c26.881,11.295,57.055,21.64,73.757,47.379c27.475,50.966-36.002,81.012-76.659,88.608
		c-41.622,10.266-76.349,33.871-113.655,54.888C746.5,727.02,687.181,735.198,630.084,739.37
		c-111.486,16.527-225.623-15.839-333.861-39.604c-1.549,3.417-2.81,7.145-4.072,10.726c-0.267,1.985-2.607,4.967-4.312,5.217
		c-2.746-1.242-4.108-5.089-4.791-7.772c-1.69-4.587-3.994-8.869-6.867-12.829c-105.22-19.33-9.907-72.13-96.515-106.602
		c-32.217-13.672-55.859-50.787-18.737-74.983c14.527-9.723,31.445-14.465,47.616-20.069
		c126.343-39.11,258.894-54.661,390.027-67.259c-2.577-4.777-5.145-9.543-8.788-13.748
		c-90.429,27.607-186.812,18.767-278.762,35.862c-53.736,10.381-110.808,10.596-158.879,39.103
		c1.52,7.586,11.706,10.413,7.241,17.753c-18.101,14.295-18.911,13.731-19.245,37.823l-6.814,0.985
		c-2.222-10.063-5.997-19.771-12.111-28.161c-49.982,72.471,61.745,74.037,73.249,137.427c10.486,46.56,55.715,68.566,99.499,75.67
		c45.437,8.961,90.784,21.136,135.827,31.117c99.696,23.802,167.63,18.628,264.71-11.605c0.521-0.127,4.181-1.036,8.693-2.232
		c1.717-2.971,3.348-6.072,4.817-9.364c0.768,2.48,1.609,4.93,2.5,7.359c4.763-1.356,9.24-2.753,11.22-3.722L897.856,687.255z
		 M206.525,531.663c0.322,1.114-0.105,2.274-0.551,3.284c-1.661,4.659-3.529,8.912-3.226,13.815
		c-0.335,3.567,6.585,11.74,0.112,13.963c-7.352-0.631-13.607-10.187-13.2-17.738C188.328,537.605,200.891,522.442,206.525,531.663z
		 M214.221,581.84c0.093,0.828-0.182,1.598-0.671,2.273h0c-5.426,4.361-20.303-7.974-25.937-10.933
		c-20.651-11.572-31.398-37.888-7.05-52.069c4.125-2.911,30.013-11.416,21.808,0.579v0.006
		c-44.074,20.621-13.504,37.575,10.532,57.547h0.009C213.694,579.866,214.269,580.843,214.221,581.84z"/>
	<path fill="#ECC478" d="M74.299,445.832c-3.469-7.502-7.815-14.5-12.584-21.082c7.007-7.172,12.884-15.515,17.107-24.647
		c2.869,9.005,6.017,17.508,12.129,25.185c-7.123,8.321-10.973,19.258-13.01,29.82C76.87,451.959,75.692,448.846,74.299,445.832z
		 M526.78,306.49c-5.252,9.681-11.808,18.59-19.405,26.489c7.165,10.302,13.754,21.491,18.236,33.423
		c2.667-11.537,7.238-23.434,14.747-32.902C533.895,324.967,530.289,316.08,526.78,306.49z M371.138,833.598
		c-5.252,9.682-11.808,18.59-19.405,26.489c7.165,10.302,13.754,21.491,18.236,33.424c2.667-11.537,7.238-23.434,14.748-32.902
		C378.253,852.075,374.647,843.188,371.138,833.598z M1061.202,379.007c-5.252,9.681-11.808,18.59-19.405,26.489
		c7.165,10.302,13.754,21.491,18.236,33.423c2.667-11.537,7.238-23.434,14.747-32.902
		C1068.317,397.484,1064.711,388.597,1061.202,379.007z M289.138,661.281c-0.465-1.005-0.848-2.029-1.263-3.045
		c-3.99,6.677-9.365,12.553-15.289,17.402c5.721,6.343,11.016,13.507,14.447,21.479c1.976-7.767,5.545-15.526,11.334-21.337
		C294.287,671.494,291.583,666.451,289.138,661.281z M637.74,628.269c-0.964-1.742-1.803-3.524-2.579-5.324
		c-4.162,6.756-10.077,12.38-16.462,16.833c6.188,5.814,12.013,12.499,15.653,20.337c2.05-7.55,5.955-15.032,12.09-20.231
		C642.779,636.582,640.088,632.469,637.74,628.269z M469.445,566.054c-2.661-3.151-4.429-6.573-5.85-10.232
		c-2.905,6.183-6.782,11.899-11.252,17.023c8.128,5.968,12.737,15.216,15.552,24.602c0.953-2.745,2.07-5.426,3.372-8.013
		c-0.298-1.426,0.664-2.84,1.877-3.431c2.172-3.954,4.698-7.711,7.583-11.194C476.545,572.589,472.626,569.835,469.445,566.054z
		 M830.777,586.546c1.578-6.314,4.446-12.647,9.13-17.38c-3.887-4.201-6.389-9.148-8.461-14.32
		c-3.14,5.462-7.496,10.224-12.263,14.187C823.792,574.211,828.038,580.06,830.777,586.546z M136.55,483.757
		c-0.041-0.117-0.07-0.236-0.11-0.353c-3.318,6.72-7.859,12.801-13.02,18.18c3.23,4.554,6.177,9.371,8.714,14.446
		c1.895-6.423,7.619-11.459,12.877-14.863C141.065,495.7,138.709,489.868,136.55,483.757z M710.509,744.186
		c-0.891-2.429-1.732-4.879-2.5-7.359c-5.385,12.073-13.175,22.906-22.465,31.979c8.736,11.368,16.673,24.456,21.361,38.634
		c2.719-13.625,7.525-27.705,16.499-38.432C717.612,761.611,713.801,752.976,710.509,744.186z M1033.418,679.696
		c-0.001-0.002-0.003-0.004-0.004-0.006h0c-3.618-5.564-9.36-14.352-12.104-19.899c-8.287,16.03-19.333,30.756-31.755,43.521
		c2.875,2.838,5.693,5.755,8.469,8.726h0c11.007,11.86,21.212,24.647,29.302,38.784c3.318-18.598,10.052-37.268,21.647-52.639
		c-4.132-3.976-7.497-7.511-10.548-11.652C1036.69,684.287,1035.023,682.008,1033.418,679.696z M587.353,410.039
		c8.437,8.178,12.971,19.325,17.348,29.963c1.795-10.214,6.518-20,13.524-27.69c-7.787-5.815-12.761-14.504-16.753-23.082
		C598.185,396.882,593.717,404.421,587.353,410.039z"/>
</g>
</svg>
