<?xml version="1.0" encoding="utf-8"?>
<!-- Designed by Vexels.com - 2020 All Rights Reserved - https://vexels.com/terms-and-conditions/  -->
<svg version="1.1" id="Capa_1" xmlns="http://www.w3.org/2000/svg" xmlns:xlink="http://www.w3.org/1999/xlink" x="0px" y="0px"
	 viewBox="0 0 1200 1200" enable-background="new 0 0 1200 1200" xml:space="preserve">
<g>
	<g>
		<path fill="#2E243F" d="M784.763,784.762c-117.686,117.685-235.431,215.778-336.522,284.196
			c170.477,55.011,364.953,14.973,500.322-120.396s175.407-329.845,120.396-500.322
			C1000.54,549.331,902.448,667.076,784.763,784.762z"/>
	</g>
	<g>
		<g>
			<g>
				<g>
					<path fill="#5E5265" d="M1082.36,500.147c-3.602-17.473-7.892-34.833-13.402-51.907
						c-68.418,101.091-166.51,218.836-284.196,336.522c-117.686,117.685-235.431,215.778-336.522,284.196
						c17.075,5.51,34.435,9.799,51.908,13.402c95.781-67.386,204.792-159.593,313.705-268.507
						C922.768,704.94,1014.975,595.929,1082.36,500.147z"/>
				</g>
			</g>
		</g>
	</g>
	<g>
		<path fill="#FFFFFF" d="M964.482,268.178c-5.166-5.666-10.441-11.268-15.919-16.746c-192.507-192.507-504.623-192.507-697.13,0
			s-192.507,504.623,0,697.13c5.477,5.477,11.08,10.754,16.746,15.919c110.292-68.054,246.413-178.055,382.33-313.973
			S896.427,378.47,964.482,268.178z"/>
	</g>
	<g>
		
			<ellipse transform="matrix(0.2625 -0.9649 0.9649 0.2625 50.1029 1512.4817)" fill="#16002C" cx="1014.458" cy="723.466" rx="56.743" ry="34.069"/>
	</g>
	<g>
		
			<ellipse transform="matrix(0.5537 -0.8327 0.8327 0.5537 -277.7973 1178.7767)" fill="#16002C" cx="960.83" cy="848.557" rx="27.357" ry="16.426"/>
	</g>
	<g>
		<g>
			<path fill="#BDB3BD" d="M948.563,251.432c-13.547-13.547-27.743-26.034-42.391-37.675
				C602.825,553.359,288.705,658.422,115.508,690.775c17.606,94.435,62.868,184.729,135.926,257.787
				c5.477,5.477,11.08,10.754,16.746,15.919c110.292-68.054,246.413-178.055,382.33-313.973s245.918-272.038,313.972-382.33
				C959.316,262.512,954.04,256.91,948.563,251.432z"/>
		</g>
	</g>
	<g>
		<g>
			<path fill="#938493" d="M230.375,926.037c6.766,7.658,13.734,15.2,21.058,22.525c5.477,5.477,11.08,10.754,16.746,15.919
				c110.292-68.054,246.413-178.055,382.33-313.973s245.918-272.038,313.972-382.33c-5.166-5.666-10.441-11.268-15.919-16.746
				c-11.214-11.214-22.958-21.551-34.95-31.434C847.818,334.933,730.545,483.296,582.35,631.491
				C458.628,755.213,334.8,857.352,230.375,926.037z"/>
		</g>
	</g>
	<g>
		<g>
			
				<ellipse transform="matrix(0.2156 -0.9765 0.9765 0.2156 -322.4287 590.0119)" fill="#938493" cx="206.034" cy="495.699" rx="65.948" ry="39.596"/>
		</g>
	</g>
	<g>
		<g>
			
				<ellipse transform="matrix(0.4155 -0.9096 0.9096 0.4155 -196.8506 448.2643)" fill="#938493" cx="250.359" cy="377.297" rx="23.675" ry="14.215"/>
		</g>
	</g>
	<path fill="#16002C" d="M1123.712,76.279c-53.098-53.105-156.711-20.244-272.188,49.653c5.327,2.725,10.574,5.651,15.825,8.567
		c11.112-6.239,22.129-12.615,33.601-18.212l19.531-9.928l19.984-9.028c26.763-11.519,54.375-22.129,83.362-25.956l-21.042,5.626
		c-6.847,2.393-13.606,5.043-20.385,7.54c-6.839,2.331-13.287,5.761-19.936,8.58c-6.631,2.887-13.193,5.909-19.554,9.397
		l-19.244,10.02l-18.779,10.906c-9.353,5.225-18.385,11.019-27.416,16.804c4.234,2.476,8.443,5.01,12.622,7.612
		c9.113-5.144,18.228-10.275,27.653-14.873l19.531-9.927l19.984-9.029c26.763-11.518,54.375-22.128,83.363-25.956l-21.043,5.626
		c-6.847,2.393-13.606,5.042-20.385,7.54c-6.839,2.331-13.286,5.761-19.935,8.581c-6.631,2.887-13.193,5.908-19.554,9.397
		l-19.244,10.021l-18.779,10.907c-7.618,4.255-15.018,8.895-22.383,13.596c3.969,2.584,7.921,5.206,11.836,7.905
		c19.893-10.245,40.187-19.728,61.014-27.932c26.997-10.183,55.348-19.274,84.432-18.592c-14.429,0.695-28.516,3.972-42.148,8.358
		c-13.664,4.34-26.978,9.68-40.06,15.52c-18.713,8.617-36.901,18.317-54.715,28.666c5.145,3.695,10.288,7.396,15.332,11.291
		c80.546-43.354,118.553-45.081,127.092-40.989c4.926,10.654,1.191,64.691-75.487,185.631
		c-69.595,109.761-176.257,238.548-300.355,362.638c-124.09,124.09-252.878,230.76-362.631,300.347
		c-120.937,76.69-174.982,80.437-185.64,75.503c-4.104-8.541-2.373-46.55,40.988-127.103c-3.82-4.947-7.446-9.993-11.073-15.037
		c-12.094,20.748-23.239,42.042-32.746,64.077c-5.509,13.202-10.583,26.63-14.224,40.479c-3.651,13.802-6.192,28.093-5.186,42.527
		c-3.886-28.939,4.504-57.966,14.042-85.11c8.92-24.389,19.772-48.023,31.694-71.063c0.001,0.002,0.003,0.004,0.004,0.006
		c-2.54-3.69-5.009-7.414-7.447-11.151c0.003,0.005,0.007,0.01,0.01,0.016c-14.864,24.286-29.581,48.817-41.396,74.743
		c-6.584,12.916-11.381,26.55-16.479,40.083l-6.173,20.811c-1.307,7.091-2.347,14.271-3.542,21.468
		c0.381-29.347,10.192-57.626,20.904-84.655c10.639-27.297,24.307-53.197,38.153-78.947c0.678-1.206,1.421-2.371,2.103-3.575
		c0.001,0.002,0.002,0.003,0.003,0.005c-2.42-3.897-4.782-7.819-7.094-11.764c-0.855,1.364-1.774,2.686-2.623,4.054
		c-15.087,24.637-30.059,49.511-42.048,75.818c-6.584,12.916-11.381,26.55-16.479,40.083l-6.173,20.811
		c-1.307,7.091-2.347,14.271-3.542,21.469c0.381-29.347,10.191-57.626,20.904-84.655c10.639-27.298,24.307-53.198,38.153-78.947
		c1.807-3.217,3.77-6.339,5.609-9.536c-2.848-5.136-5.713-10.266-8.378-15.476C56.037,966.995,23.176,1070.606,76.28,1123.718
		c18.184,18.176,42.264,26.282,70.732,26.282c154.195,0,436.565-238.016,600.773-402.216
		C942.298,553.264,1240.371,192.938,1123.712,76.279z"/>
</g>
</svg>
