<?xml version="1.0" encoding="utf-8"?>
<!-- Designed by Vexels.com - 2020 All Rights Reserved - https://vexels.com/terms-and-conditions/  -->
<svg version="1.1" id="Capa_1" xmlns="http://www.w3.org/2000/svg" xmlns:xlink="http://www.w3.org/1999/xlink" x="0px" y="0px"
	 viewBox="0 0 1200 1200" enable-background="new 0 0 1200 1200" xml:space="preserve">
<g>
	<path fill="#909DBB" d="M86.228,940.223c0.508-1.402,0.843-2.898,1.55-4.19c6.35-11.609,12.623-23.264,19.205-34.742
		c5.415-9.443,11.037-18.781,16.896-27.955c8.297-12.991,16.724-25.906,25.405-38.642c14.348-21.049,29.521-41.501,45.396-61.43
		c3.235-4.061,6.454-8.136,9.707-12.183c1.571-1.954,3.064-4.03,5.705-4.696c0,0.001,0.061,0.138,0.061,0.138
		c0.147,1.142,0.899,1.776,1.871,2.226l0.187,0.315c0.117,1.243,0.739,2.136,1.861,2.682c0.381,0.503,0.762,1.006,1.143,1.509
		c0.129,1.181,0.761,1.983,1.846,2.442c0.407,0.527,0.813,1.054,1.22,1.581c0.128,1.168,0.739,1.975,1.819,2.431
		c0.402,0.525,0.804,1.049,1.207,1.575c0.478,1.052,0.867,2.157,1.457,3.141c0.688,1.147,1.547,2.191,2.34,3.274
		c1.228,1.678,1.255,3.385,0.213,5.172c-1.436,2.464-2.862,4.936-4.239,7.433c-5.348,9.702-10.512,19.502-14.505,29.856
		c-3.417,8.859-5.348,17.978-4.624,27.569c0.305,4.046,1.726,7.435,4.493,10.372c2.373,2.518,5.211,4.218,8.483,5.2
		c3.708,1.113,7.49,1.779,11.382,1.917c8.461,0.301,16.754-0.994,24.953-2.778c15.623-3.399,30.693-8.606,45.52-14.536
		c1.558-0.623,3.156-1.198,4.136-2.709c2.071,0.221,3.878-0.628,5.688-1.431c5.127-2.275,10.263-4.533,15.36-6.876
		c1.783-0.82,3.462-1.866,5.188-2.809c0.909-0.308,1.871-0.511,2.717-0.944c2.699-1.381,5.354-2.847,8.025-4.281
		c1.537-0.64,3.122-1.185,4.605-1.933c24.259-12.246,47.875-25.645,71.145-39.665c1.137-0.685,2.165-1.548,3.244-2.329
		c1.329-0.688,2.707-1.298,3.981-2.075c26.286-16.04,52.079-32.842,77.458-50.278c1.366-0.939,2.615-2.049,3.918-3.079
		c1.426-0.851,2.924-1.602,4.267-2.568c19.657-14.143,39.298-28.308,58.923-42.496c1.2-0.867,2.232-1.966,3.343-2.957
		c0.728-0.271,1.28-0.665,1.1-1.571l-0.058,0.238c0.876,0.072,1.405-0.197,1.178-1.203l-0.116,0.425c0,0,0.425,0.118,0.425,0.118
		c1.414-0.861,2.913-1.61,4.231-2.599c40.793-30.61,80.687-62.345,119.47-95.469c1.396-1.193,2.678-2.519,4.013-3.783
		c0.496-0.442,0.992-0.884,1.488-1.326c0.226,0.018,0.347-0.086,0.363-0.313c0.653-0.574,1.307-1.147,1.96-1.721l0.049-0.033
		c1.084-0.768,2.237-1.454,3.24-2.315c38.137-32.75,75.249-66.617,111.028-101.934c1.185-1.169,2.245-2.465,3.363-3.702
		c1.016-0.865,2.094-1.668,3.038-2.605c21.922-21.766,43.174-44.166,63.665-67.285c0.992-1.119,1.833-2.373,2.744-3.564
		c0.614-0.557,1.305-1.05,1.829-1.682c9.48-11.419,18.944-22.85,28.389-34.297c0.517-0.626,0.831-1.42,1.239-2.136
		c0,0,0.025-0.041,0.025-0.041c0.527-0.632,1.053-1.264,1.58-1.896c1.792-2.149,3.709-4.208,5.336-6.475
		c1.228-1.71,2.085-3.686,3.107-5.544c1.998-0.789,3.096-2.545,4.262-4.153c5.119-7.053,10.246-14.102,15.222-21.254
		c8.245-11.85,15.562-24.267,22.027-37.17c4.509-8.999,8.636-18.173,10.964-28.034c1.08-4.574,1.998-9.207,1.785-13.912
		c-0.333-7.349-4.165-14.61-13.363-16.717c-5.244-1.201-10.54-2.251-15.932-1.702c-5.497,0.56-11.026,1.159-16.419,2.308
		c-17.591,3.748-34.621,9.338-51.213,16.271c-6.028,2.519-12.072,5-18.108,7.498c-5.503-6.041-10.988-12.099-16.522-18.112
		c-1.225-1.331-2.301-2.909-4.235-3.378c-0.11-0.472-0.073-1.066-0.351-1.398c-3.926-4.697-7.855-9.396-12.648-13.268
		c-0.854-0.996-1.659-2.041-2.571-2.98c-3.796-3.909-7.623-7.786-11.44-11.675c-0.054-0.555-0.108-1.111-0.163-1.666
		c0.093-3.431,1.744-5.974,4.612-7.699c4.09-2.46,8.244-4.816,12.37-7.216c0.362-0.049,0.724-0.098,1.085-0.147
		c0,0-0.109,0.047-0.109,0.047c1.599-0.466,3.29-0.733,4.781-1.43c7.75-3.625,15.518-7.222,23.151-11.083
		c15.915-8.051,32.311-14.859,49.46-19.817c10.875-3.144,22.015-4.655,33.283-4.722c7.701-0.046,15.463,0.529,22.993,2.277
		c8.492,1.971,16.914,4.289,25.272,6.773c4.818,1.432,9.313,3.74,13.696,6.282c6.86,3.978,13.182,8.708,19.154,13.834
		c6.966,5.979,12.282,13.407,15.475,22.029c2.8,7.563,4.51,15.444,4.382,23.628c-0.071,4.534-0.347,9.029-0.884,13.54
		c-1.056,8.858-2.797,17.548-5.334,26.094c-1.623,5.467-3.124,10.971-4.705,16.45c-1.209,4.19-2.331,8.411-3.717,12.542
		c-3.43,10.223-8.184,19.892-13.603,29.151c-8.218,14.041-16.736,27.922-25.568,41.586c-12.573,19.453-26.737,37.796-40.469,56.431
		c-9.154,12.423-18.497,24.718-28.111,36.787c-8.982,11.276-18.41,22.199-27.688,33.238c-4.531,5.391-9.165,10.696-13.756,16.036
		c-5.356,6.229-10.663,12.502-16.091,18.668c-6.426,7.3-12.927,14.535-19.453,21.746c-6.3,6.961-12.618,13.908-19.032,20.765
		c-6.415,6.859-12.948,13.609-19.448,20.389c-8.359,8.718-16.648,17.505-25.138,26.095c-6.01,6.081-12.241,11.949-18.484,17.794
		c-9.057,8.482-18.199,16.874-27.33,25.277c-8.02,7.381-16.169,14.625-24.089,22.111c-9.402,8.887-19.683,16.713-29.623,24.949
		c-9.685,8.025-19.621,15.751-29.217,23.88c-12.034,10.195-24.402,19.962-36.812,29.686c-12.938,10.138-25.892,20.257-38.742,30.506
		c-7.734,6.169-15.304,12.544-22.908,18.874c-6.444,5.363-12.784,10.852-19.26,16.175c-4.794,3.939-9.737,7.697-14.607,11.543
		c-8.162,6.445-16.195,13.054-24.876,18.82c-7.408,4.92-14.712,9.996-22.071,14.988c-5.969,4.05-12.028,7.972-17.916,12.137
		c-18.355,12.984-36.463,26.324-55.007,39.029c-26.578,18.208-53.359,36.113-81.616,51.713c-13.223,7.3-26.406,14.662-39.903,21.438
		c-12.596,6.324-25.32,12.381-38.271,17.967c-18.637,8.039-37.867,13.601-58.238,14.778c-4.517,0.261-9.032,0.65-13.53,1.149
		c-9.382,1.04-18.743,1.123-28.104-0.189c-22.685-3.181-40.725-13.839-53.38-33.147c-6.04-9.215-9.267-19.302-9.253-30.364
		C86.138,948.612,86.195,944.418,86.228,940.223z M676.103,674.157c-0.277-0.196-0.554-0.392-0.831-0.588
		c-0.593,0.259-1.237,0.44-1.772,0.789c-6.745,4.403-13.568,8.695-20.188,13.279c-12.83,8.885-25.296,18.292-38.456,26.707
		c-5.37,3.434-10.769,6.844-15.942,10.562c-10.899,7.834-21.722,15.779-32.458,23.836c-11.408,8.561-22.743,17.221-33.99,25.993
		c-8.994,7.015-17.629,14.497-26.738,21.354c-16.357,12.311-32.987,24.258-49.431,36.454c-9.711,7.202-19.492,14.306-29.794,20.634
		c-16.013,9.837-31.918,19.86-48.417,28.889c-1.725,0.944-3.177,2.43-4.641,3.788c-0.76,0.704-1.055,1.741-0.505,2.766
		c0.528,0.984,1.471,1.413,2.526,1.321c1.16-0.101,2.351-0.267,3.443-0.649c2.372-0.83,4.769-1.657,7.018-2.765
		c10.689-5.264,21.398-10.494,31.968-15.99c7.59-3.946,15.073-8.122,22.426-12.493c22.968-13.653,44.778-29.044,66.167-45.005
		c14.925-11.137,29.583-22.631,44.472-33.823c8.706-6.544,16.923-13.747,25.25-20.782c8.327-7.036,16.308-14.495,24.816-21.3
		c13.888-11.108,28.049-21.878,42.158-32.707c7.857-6.031,15.526-12.285,22.891-18.9c3.117-2.799,5.993-5.872,8.887-8.908
		C675.554,675.997,675.734,674.987,676.103,674.157z M231.077,953.366c-0.722,0.072-1.516,0.072-2.272,0.241
		c-1.963,0.439-3.9,0.994-5.864,1.429c-9.35,2.071-18.85,3.085-28.347,4.21c-10.848,1.285-21.692,1.981-32.618,1.796
		c-7.043-0.119-13.534-2.023-19.862-4.912c-8.442-3.855-13.24-10.522-15.354-19.35c-0.273-1.141-0.368-2.331-0.716-3.445
		c-0.498-1.595-1.023-3.206-1.773-4.691c-1.016-2.01-2.635-2.89-3.945-2.443c-1.38,0.472-2.318,2.068-2.348,4.1
		c-0.01,0.666,0.119,1.334,0.17,2.002c0.103,1.337,0.167,2.678,0.3,4.012c0.946,9.486,4.848,17.483,12.674,23.058
		c6.462,4.603,13.754,7.686,21.494,9.534c6.785,1.621,13.676,1.32,20.526,0.519c6.161-0.721,12.31-1.595,18.429-2.613
		c9.434-1.569,18.865-3.234,27.869-6.604c3.452-1.292,6.816-2.823,10.191-4.311C230.508,955.513,231.538,955.061,231.077,953.366z"
		/>
	<path fill="#F4B13F" d="M568.778,681.477c-1.11,0.991-2.143,2.09-3.343,2.957c-19.625,14.188-39.266,28.353-58.923,42.496
		c-1.343,0.966-2.841,1.717-4.265,2.567c-0.052-2.553,0.61-4.92,1.436-7.341c3.305-9.686,7.097-19.186,10.625-28.785
		c3.764-10.241,7.905-20.312,12.538-30.165c4.708-10.011,9.682-19.911,14.92-29.656c4.917-9.148,10.08-18.187,15.587-26.991
		c8.001-12.788,16.372-25.354,25.334-37.495c13.145-17.807,26.452-35.494,39.715-53.213c4.018-5.368,8.133-10.663,12.17-16.017
		c0.442-0.587,0.663-1.341,1.392-2.865c-1.574,0.645-2.378,0.812-2.983,1.252c-1.76,1.279-3.458,2.648-5.151,4.016
		c-6.648,5.369-13.323,10.706-19.91,16.149c-3.226,2.665-6.297,5.518-9.41,8.318c-6.474,5.823-13.115,11.476-19.348,17.547
		c-9.605,9.355-18.992,18.926-28.092,28.796c-6.704,7.271-13.351,14.585-19.682,22.166c-6.118,7.326-12.025,14.833-17.61,22.596
		c-7.64,10.619-15.056,21.378-21.976,32.477c-2.926,4.693-5.887,9.367-8.716,14.118c-5.06,8.497-10.151,16.978-15.009,25.59
		c-4.859,8.613-9.424,17.391-14.162,26.072c-5.379,9.858-10.789,19.699-16.217,29.529c-3.89,7.043-7.796,14.076-11.769,21.072
		c-1.735,3.056-3.946,5.874-5.407,9.045c-1.374,2.981-3.896,5.577-3.633,9.216c-1.079,0.78-2.107,1.644-3.244,2.329
		c-23.27,14.02-46.886,27.419-71.145,39.665c-1.482,0.748-3.067,1.294-4.602,1.932c0.397-1.446,0.591-2.988,1.23-4.315
		c1.162-2.413,2.563-4.714,3.91-7.036c4.208-7.252,8.407-14.509,12.667-21.73c4.346-7.368,8.714-14.723,13.158-22.033
		c4.092-6.73,8.322-13.376,12.446-20.088c5.002-8.142,9.954-16.315,14.932-24.473c8.039-13.175,16.118-26.325,24.105-39.531
		c4.687-7.749,9.153-15.631,13.86-23.367c3.397-5.583,7.028-11.023,10.553-16.528c4.795-7.488,9.48-15.049,14.407-22.449
		c7.159-10.75,14.326-21.502,21.798-32.034c7.082-9.983,14.33-19.867,21.925-29.462c8.942-11.297,18.333-22.239,27.538-33.328
		c1.819-2.192,3.623-4.401,5.522-6.523c3.688-4.121,7.464-8.163,11.154-12.282c2.683-2.995,5.303-6.047,7.924-9.097
		c3.385-3.938,6.712-7.927,10.122-11.843c3.191-3.665,6.493-7.233,9.687-10.896c6.054-6.945,11.764-14.22,18.168-20.823
		c8.518-8.784,16.802-17.838,26.245-25.692c0.549-0.457,0.814-1.256,1.708-2.695c-1.801,0.485-2.784,0.565-3.577,0.995
		c-3.979,2.161-8.036,4.218-11.83,6.674c-8.866,5.738-17.652,11.604-26.36,17.578c-4.56,3.128-8.985,6.473-13.295,9.939
		c-6.399,5.146-12.731,10.382-18.926,15.77c-6.572,5.717-13.026,11.574-19.383,17.53c-4.161,3.899-8.174,7.973-12.042,12.163
		c-4.316,4.676-8.418,9.55-12.566,14.378c-5.022,5.846-10.036,11.699-14.975,17.615c-3.331,3.989-6.48,8.13-9.794,12.132
		c-4.169,5.034-8.408,10.01-12.646,14.986c-5.431,6.378-10.865,12.753-16.346,19.087c-3.07,3.548-6.228,7.02-9.363,10.51
		c-5.598,6.231-11.018,12.636-16.857,18.633c-10.537,10.823-21.274,21.454-32.037,32.054c-4.535,4.466-9.28,8.728-14.055,12.941
		c-6.909,6.096-13.911,12.086-20.91,18.079c-7.256,6.213-14.371,12.61-21.883,18.499c-8.455,6.628-16.448,13.79-24.415,20.945
		c-7.495,6.731-15.319,13.042-23.077,19.428c-7.503,6.176-15.409,11.87-23.542,17.234c-8.404,5.543-16.588,11.403-24.407,17.765
		c-2.19,1.782-4.349,3.74-7.227,4.465c-2.008-2.176-4.001-4.365-6.028-6.523c-1.344-1.431-2.735-2.817-4.105-4.224
		c-0.402-0.525-0.804-1.049-1.207-1.575c-0.607-0.811-1.213-1.62-1.818-2.43c-0.407-0.527-0.813-1.054-1.221-1.583
		c-0.144-0.503-0.287-1.005-0.431-1.506c0.871-2.693,2.829-4.43,5.029-6.076c9.402-7.032,18.364-14.563,26.549-23.025
		c5.353-5.533,10.945-10.825,16.684-15.99c8.584-7.726,16.43-16.248,25.075-23.948c5.751-5.122,10.971-10.839,16.438-16.279
		c1.069-1.064,2.084-2.22,3.299-3.091c3.987-2.859,7.225-6.486,10.587-9.993c0.926-0.966,1.872-1.915,2.855-2.822
		c4.678-4.313,9.364-8.617,14.061-12.908c4.079-3.726,8.116-7.501,12.28-11.131c8.207-7.153,16.321-14.401,24.013-22.111
		c4.737-4.748,9.553-9.42,14.214-14.241c6.752-6.984,13.398-14.07,20.086-21.116c0.346-0.364,0.66-0.758,0.989-1.139
		c3.715-4.309,7.405-8.641,11.152-12.921c3.198-3.652,6.485-7.227,9.69-10.874c1.657-1.885,3.254-3.827,4.811-5.796
		c0.614-0.776,1.13-1.66,1.521-2.567c0.151-0.35-0.031-1.059-0.319-1.321c-0.291-0.266-0.997-0.386-1.358-0.219
		c-4.255,1.969-8.507,3.948-12.706,6.033c-9.925,4.929-20.137,9.165-30.594,12.818c-1.6,0.559-3.166,1.136-4.198,2.596
		c-2.922-0.161-5.627,0.718-8.305,1.726c-11.458,4.312-22.688,9.152-33.603,14.697c-5.377,2.731-10.624,5.72-16.015,8.421
		c-10.379,5.2-20.023,11.575-29.346,18.419c-8.369,6.144-16.53,12.574-24.713,18.966c-10.704,8.36-20.965,17.229-30.323,27.096
		c-3.687,3.888-7.346,7.805-10.924,11.794c-3.464,3.863-7.065,7.643-10.151,11.797c-6.789,9.14-13.44,18.392-19.86,27.795
		c-4.435,6.496-8.389,13.321-12.558,19.999c-3.762-4.762-6.854-9.933-9.413-15.429c0.966-1.138,2.121-2.164,2.866-3.43
		c5.099-8.673,10.005-17.461,15.186-26.085c4.318-7.188,8.834-14.263,13.428-21.279c7.649-11.683,16.842-22.156,26.286-32.374
		c7.397-8.004,15.139-15.716,23.622-22.596c8.466-6.866,16.946-13.73,25.686-20.238c12.914-9.616,25.957-19.055,39.484-27.825
		c13.699-8.882,28.01-16.551,42.932-23.139c8.133-3.591,16.232-7.267,24.277-11.052c14.141-6.653,27.595-14.56,40.932-22.674
		c7.164-4.358,14.148-9.012,21.708-12.718c4.209-2.063,8.241-4.509,12.261-6.934c5.746-3.467,11.433-7.034,17.099-10.63
		c10.342-6.563,20.78-12.987,30.924-19.845c5.999-4.056,12.11-7.824,18.61-10.988c3.337-1.624,6.463-3.56,9.122-6.195
		c0.711-0.705,1.501-1.348,2.323-1.923c10.169-7.116,20.075-14.619,30.666-21.117c5.574-3.42,11.251-6.671,16.869-10.019
		c5.481-3.265,11.15-6.153,16.964-8.781c8.096-3.66,16.025-7.716,24.239-11.083c14.593-5.982,29.292-11.719,44.053-17.275
		c8.628-3.248,17.452-5.982,26.21-8.877c5.575-1.843,11.383-3.115,16.753-5.42c12.328-5.293,24.475-11.01,36.651-16.653
		c8.673-4.019,17.317-8.109,25.895-12.328c9.028-4.44,18.093-8.834,26.906-13.676c12.645-6.948,25.126-14.191,38.149-20.431
		c5.75-2.755,11.524-5.458,17.264-8.231c1.126-0.544,2.634-0.757,2.873-2.813c-0.902-0.2-1.818-0.563-2.74-0.58
		c-3.692-0.071-7.386-0.056-11.079-0.033c-3.692,0.022-7.441-0.299-11.061,0.235c-4.689,0.692-9.359,0.703-14.053,0.756
		c-1.678,0.019-3.365-0.012-5.03,0.158c-5.331,0.547-10.668,1.078-15.977,1.798c-10.132,1.375-20.261,2.787-30.365,4.356
		c-6.795,1.055-13.551,2.368-20.312,3.635c-18.963,3.554-37.991,6.832-56.424,12.735c-4.953,1.586-9.976,2.999-14.821,4.868
		c-11.584,4.469-23.119,9.069-34.602,13.79c-11.027,4.534-22.101,8.89-33.625,12.035c-5.584,1.524-11.145,2.214-16.862,0.875
		c-2.146-0.503-4.17-1.148-5.988-2.478c-2.996-2.193-5.827-4.447-7.709-7.799c-1.47-2.617-3.111-3.023-5.952-2.114
		c-0.637,0.204-1.251,0.488-1.858,0.774c-12.142,5.72-24.273,11.465-36.425,17.165c-8.664,4.064-17.495,7.726-26.523,10.916
		c-17.584,6.213-35.572,11.077-53.554,15.941c-17.983,4.865-36.064,9.37-54.014,14.35c-9.697,2.69-19.21,6.039-28.802,9.105
		c-1.44,0.46-2.905,0.92-3.717,2.377c-4.193,1.131-8.442,2.088-12.568,3.426c-12.561,4.073-25.063,8.329-37.614,12.437
		c-4.283,1.402-8.642,2.576-12.967,3.852c-1.468,0.33-2.963,0.568-4.395,1.01c-5.123,1.583-10.207,3.292-15.339,4.848
		c-7.06,2.14-14.136,4.229-21.23,6.254c-5.159,1.473-10.341,2.873-15.548,4.163c-1.416,0.351-2.967,0.295-4.444,0.217
		c-0.983-0.052-1.66-1.584-1.042-2.361c0.923-1.16,1.926-2.324,3.108-3.2c4.443-3.293,8.925-6.54,13.48-9.678
		c12.313-8.483,25.425-15.639,38.724-22.387c10.303-5.228,20.904-9.918,31.581-14.346c15.484-6.421,31.159-12.384,46.747-18.555
		c5.457-2.16,10.913-4.325,16.339-6.56c1.672-0.689,3.573-1.132,4.48-3.002c4.77-1.581,9.567-3.085,14.304-4.76
		c10.429-3.686,20.783-7.589,31.248-11.168c22.203-7.595,44.473-14.997,66.681-22.578c5.546-1.893,10.962-4.163,16.438-6.26
		c1.78-0.453,3.635-0.717,5.328-1.39c9.196-3.656,18.376-7.354,27.514-11.153c7.433-3.091,14.907-6.117,22.164-9.587
		c8.016-3.833,15.852-8.053,23.684-12.258c13.457-7.225,26.516-15.122,39.228-23.593c3.908-2.604,7.91-5.067,11.862-7.606
		c4.798-3.084,9.743-5.967,14.351-9.313c11.537-8.377,22.921-16.964,34.36-25.476c0.805-0.599,1.655-1.183,2.307-1.928
		c0.482-0.551,0.676-1.354,0.959-1.962c-0.552-0.444-0.783-0.786-1.061-0.83c-4.301-0.682-8.584-1.581-12.98-1.315
		c-4.741,0.287-9.367-0.597-13.977-1.474c-9.994-1.901-18.253-7.371-26.379-13.069c-0.675-0.473-1.21-1.158-1.768-1.782
		c-1.284-1.439-1.457-3.118-0.372-4.622c1.263-1.752,2.627-3.535,4.291-4.877c9.023-7.275,19.219-11.491,30.985-11.46
		c14.434,0.039,28.868-0.017,43.302,0.049c3.175,0.014,6.354,0.3,9.519,0.597c1.58,0.148,3.01,0.053,4.263-0.991
		c3.472-2.893,6.939-5.792,10.409-8.688c1.733,0.993,3.534,1.886,5.189,2.996c17.259,11.568,33.656,24.239,48.941,38.329
		c0.733,0.676,1.553,1.259,2.332,1.885c0.055,0.556,0.109,1.111,0.164,1.669c-1.048,0.837-2.071,1.708-3.153,2.499
		c-1.917,1.402-3.998,2.558-6.395,2.741c-2.762,0.211-5.163,1.304-7.581,2.496c-3.907,1.927-7.795,3.913-11.802,5.613
		c-8.019,3.403-16.114,6.625-24.172,9.936c-0.773,0.318-1.508,0.731-2.255,1.111c-2.553,1.298-3.641,3.383-3.216,6.2
		c0.431,2.854,1.307,5.559,3.204,7.808c3.952,4.686,8.498,8.575,14.504,10.39c3.528,1.066,7.065,2.112,10.628,3.056
		c8.585,2.277,17.289,4.092,25.698,7.044c11.233,3.944,22.56,7.592,34.195,10.222c3.921,0.886,7.792,2.008,11.653,3.137
		c5.153,1.506,10.215,3.253,14.998,5.76c5.192,2.721,10.454,5.308,15.685,7.954c1.135,1.652,2.321,3.272,3.397,4.962
		c4.589,7.206,9.194,14.402,13.696,21.661c3.443,5.55,6.788,11.162,10.073,16.807c0.912,1.568,1.455,3.351,2.168,5.035
		c-5.688-0.837-10.547,1.194-15.07,4.365c-1.098,0.77-2.146,1.609-3.244,2.379c-3.98,2.791-7.833,5.793-11.985,8.3
		c-8.476,5.118-16.802,10.414-24.629,16.509c-5.684,4.426-11.697,8.428-17.487,12.721c-6.192,4.591-12.369,9.21-18.418,13.987
		c-6.705,5.296-13.2,10.858-19.888,16.175c-11.412,9.073-22.969,17.965-34.331,27.101c-4.3,3.458-8.394,7.215-12.284,11.131
		c-5.547,5.585-10.82,11.442-16.209,17.183c-0.115,0.122-0.223,0.25-0.333,0.377c-6.387,7.318-12.773,14.636-19.159,21.953
		c-7.379,8.454-14.826,16.85-22.117,25.379c-6.748,7.894-13.355,15.909-19.978,23.909c-5.235,6.323-10.47,12.648-15.578,19.073
		c-7.823,9.838-15.527,19.769-23.299,29.647c-10.569,13.435-21.115,26.888-31.743,40.276c-11.46,14.435-23.008,28.8-34.509,43.202
		c-3.66,4.583-7.296,9.184-10.94,13.78c-1.048,1.322-2.133,2.635-1.74,4.515l-0.425-0.118c0,0,0.116-0.425,0.121-0.422
		c-0.391,0.402-0.787,0.801-1.183,1.201c0,0,0.058-0.238,0.058-0.238C569.512,680.429,569.145,680.953,568.778,681.477z
		 M889.808,287.148c-4.979-0.188-9.253,1.378-13.316,3.403c-5.252,2.618-10.409,5.441-15.495,8.371
		c-4.504,2.595-8.988,5.265-13.242,8.243c-7.691,5.383-15.179,11.055-22.797,16.544c-8.576,6.179-17.26,12.209-25.789,18.451
		c-7.987,5.845-15.913,11.781-23.714,17.87c-6.21,4.847-12.238,9.93-18.26,15.012c-4.738,3.998-9.574,7.922-13.961,12.287
		c-10.7,10.645-21.92,20.793-31.61,32.424c-3.755,4.507-7.535,8.992-11.294,13.496c-0.32,0.383-0.606,0.808-0.836,1.25
		c-0.848,1.627,0.393,3.573,2.259,3.464c0.819-0.048,1.688-0.211,2.42-0.561c1.509-0.722,2.967-1.562,4.401-2.429
		c4.882-2.952,9.706-6.002,14.622-8.895c13.012-7.658,26.143-15.116,39.073-22.911c14.221-8.573,28.335-17.328,42.375-26.195
		c19.435-12.274,38.239-25.532,58.017-37.275c10.446-6.202,19.449-14.281,28.638-22.111c1.783-1.519,3.501-3.171,4.97-4.988
		c1.891-2.34,3.705-4.791,5.188-7.401c2.982-5.25,1.687-10.958-2.297-14.683C896.352,287.892,893.206,286.897,889.808,287.148z"/>
	<path fill="#C2C8DD" d="M86.228,940.223c-0.034,4.194-0.09,8.389-0.096,12.583c-0.014,11.062,3.213,21.149,9.253,30.364
		c12.656,19.308,30.695,29.966,53.38,33.147c9.361,1.313,18.722,1.23,28.104,0.189c4.497-0.499,9.013-0.888,13.53-1.149
		c20.371-1.177,39.601-6.739,58.238-14.778c12.95-5.586,25.674-11.644,38.271-17.967c13.497-6.776,26.68-14.138,39.903-21.438
		c28.257-15.6,55.038-33.505,81.616-51.713c18.545-12.705,36.653-26.046,55.007-39.029c5.888-4.165,11.946-8.087,17.916-12.137
		c7.359-4.993,14.663-10.068,22.071-14.988c8.682-5.766,16.715-12.375,24.876-18.82c4.871-3.846,9.814-7.604,14.607-11.543
		c6.477-5.323,12.817-10.812,19.26-16.175c7.604-6.329,15.174-12.705,22.908-18.874c12.85-10.249,25.804-20.368,38.742-30.506
		c12.41-9.724,24.778-19.491,36.812-29.686c9.596-8.129,19.531-15.855,29.217-23.88c9.94-8.236,20.221-16.062,29.623-24.949
		c7.92-7.486,16.069-14.73,24.089-22.111c9.131-8.403,18.273-16.794,27.33-25.277c6.242-5.846,12.473-11.714,18.484-17.794
		c8.49-8.589,16.779-17.377,25.138-26.095c6.5-6.779,13.033-13.53,19.448-20.389c6.413-6.857,12.732-13.804,19.032-20.765
		c6.526-7.211,13.027-14.446,19.453-21.746c5.428-6.166,10.734-12.439,16.091-18.668c4.592-5.34,9.226-10.645,13.756-16.036
		c9.278-11.039,18.706-21.962,27.688-33.238c9.614-12.069,18.957-24.365,28.111-36.787c13.732-18.635,27.896-36.978,40.469-56.431
		c8.832-13.664,17.35-27.545,25.568-41.586c5.419-9.259,10.173-18.927,13.603-29.151c1.386-4.131,2.508-8.353,3.717-12.542
		c1.581-5.48,3.082-10.983,4.705-16.45c2.538-8.546,4.279-17.237,5.334-26.094c0.538-4.511,0.813-9.006,0.884-13.54
		c0.128-8.184-1.582-16.065-4.382-23.628c-3.193-8.622-8.509-16.05-15.475-22.029c-5.973-5.126-12.295-9.856-19.154-13.834
		c-4.383-2.542-8.878-4.849-13.696-6.282c-8.358-2.484-16.78-4.802-25.272-6.773c-7.53-1.748-15.292-2.323-22.993-2.277
		c-11.268,0.067-22.408,1.578-33.283,4.722c-17.149,4.958-33.545,11.766-49.46,19.817c-7.633,3.861-15.401,7.458-23.151,11.083
		c-1.49,0.697-3.182,0.965-4.781,1.43c1.219-1.94,3.276-2.851,5.124-3.914c16.239-9.342,32.424-18.784,48.824-27.836
		c19.923-10.997,40.222-21.279,60.971-30.65c1.368-0.618,2.805-1.083,4.208-1.615c1.206,3.183,1.864,3.703,4.559,3.305
		c1.323-0.195,2.633-0.539,3.921-0.911c8.708-2.515,17.45-4.919,26.101-7.616c16.043-5.001,32.194-9.561,48.845-12.035
		c6.796-1.01,13.642-1.818,20.496-2.263c5.852-0.38,11.747-0.153,17.622-0.118c7.766,0.046,15.379,1.3,22.878,3.219
		c4.907,1.256,9.568,3.224,13.781,6.033c11.593,7.73,18.576,18.7,21.876,32.072c3.026,12.26,2.672,24.639,0.594,36.985
		c-2.825,16.776-7.601,33.044-13.769,48.865c-6.647,17.046-14.452,33.582-22.729,49.908c-7.137,14.077-14.675,27.926-22.568,41.585
		c-13.869,24-29.215,47.036-45.64,69.359c-6.862,9.325-13.638,18.715-20.603,27.962c-4.54,6.028-9.275,11.915-14.065,17.748
		c-4.15,5.054-8.587,9.872-12.723,14.937c-1.789,2.192-3.214,4.699-4.67,7.142c-1.685,2.828-2.367,5.901-1.706,9.193
		c-0.284,1.897-1.47,3.294-2.614,4.714c-4.049,5.026-8.111,10.042-12.14,15.084c-1.34,1.677-2.593,3.423-3.884,5.137
		c-2.14,2.591-4.281,5.181-6.422,7.771c-1.136,1.221-2.323,2.399-3.398,3.671c-9.625,11.388-19.168,22.845-28.852,34.182
		c-37.018,43.332-75.947,84.903-115.857,125.57c-1.517,1.546-2.909,3.215-4.359,4.827c-0.339,0.355-0.678,0.71-1.017,1.065
		c0,0,0.017-0.017,0.017-0.017c-1.495,1.327-3.045,2.597-4.475,3.99c-22.127,21.549-44.233,43.118-66.364,64.663
		c-1.069,1.041-2.316,1.899-3.479,2.842c-0.667-0.08-1.345-0.105-1.998-0.25c-4.931-1.093-9.297,0.348-13.355,3.021
		c-1.539,1.013-3.02,2.137-4.417,3.338c-7.886,6.779-15.728,13.609-23.606,20.397c-5.591,4.818-11.162,9.659-16.837,14.376
		c-6.063,5.04-12.227,9.96-18.366,14.908c-14.628,11.791-29.176,23.685-43.927,35.322c-17.915,14.135-35.926,28.151-54.039,42.032
		c-22.781,17.458-45.9,34.466-69.523,50.773c-13.813,9.535-27.659,19.026-41.606,28.364c-15.761,10.552-31.621,20.957-47.5,31.332
		c-7.165,4.681-14.405,9.256-21.741,13.663c-14.242,8.557-28.541,17.022-42.881,25.414c-14.197,8.308-28.531,16.38-43.269,23.7
		c-13.98,6.944-28.025,13.758-42.053,20.607c-18.736,9.147-38.233,16.438-57.811,23.514c-11.856,4.285-24.059,7.389-36.262,10.511
		c-12.44,3.183-25.039,4.585-37.862,4.67c-8.329,0.055-16.365-1.434-24.329-3.551c-4.409-1.172-8.61-2.999-12.199-5.829
		c-7.492-5.909-12.607-13.411-14.471-22.912c-1.522-7.76-2.819-15.535-1.346-23.47c0.091-0.491,0.096-1.003,0.1-1.506
		c0.076-9.787,1.835-19.354,3.763-28.9c0.665-3.29,1.319-6.582,1.905-9.886c0.514-2.9,0.323-5.694-1.667-8.097
		c-0.281-2.417,0.562-4.621,1.437-6.771c3.389-8.325,6.757-16.661,10.324-24.91c2.377-5.498,5.031-10.88,7.661-16.264
		C84.122,943.226,85.252,941.762,86.228,940.223z"/>
	<path fill="#F4C141" d="M380.325,389.585c0.813-1.458,2.278-1.917,3.717-2.377c9.592-3.066,19.105-6.414,28.802-9.105
		c17.95-4.98,36.031-9.485,54.014-14.35c17.982-4.865,35.97-9.728,53.554-15.941c9.028-3.19,17.859-6.853,26.523-10.916
		c12.152-5.699,24.283-11.444,36.425-17.165c0.607-0.286,1.221-0.57,1.858-0.774c2.841-0.909,4.482-0.503,5.952,2.114
		c1.881,3.351,4.713,5.606,7.709,7.799c1.817,1.33,3.841,1.975,5.988,2.478c5.717,1.339,11.278,0.649,16.862-0.875
		c11.525-3.145,22.598-7.502,33.625-12.035c11.483-4.721,23.018-9.322,34.602-13.79c4.845-1.869,9.868-3.282,14.821-4.868
		c18.433-5.903,37.46-9.181,56.424-12.735c6.76-1.267,13.517-2.579,20.312-3.635c10.104-1.569,20.233-2.982,30.365-4.356
		c5.31-0.72,10.646-1.251,15.977-1.798c1.665-0.171,3.352-0.139,5.03-0.158c4.694-0.053,9.363-0.065,14.053-0.756
		c3.62-0.534,7.369-0.213,11.061-0.235c3.693-0.022,7.387-0.038,11.079,0.033c0.922,0.018,1.838,0.38,2.74,0.58
		c-0.24,2.056-1.747,2.269-2.873,2.813c-5.74,2.774-11.515,5.477-17.264,8.231c-13.023,6.239-25.504,13.483-38.149,20.431
		c-8.813,4.843-17.878,9.236-26.906,13.676c-8.578,4.219-17.221,8.308-25.895,12.328c-12.176,5.642-24.323,11.36-36.651,16.653
		c-5.37,2.305-11.178,3.577-16.753,5.42c-8.759,2.895-17.582,5.63-26.21,8.877c-14.761,5.556-29.46,11.293-44.053,17.275
		c-8.214,3.367-16.143,7.423-24.239,11.083c-5.814,2.628-11.484,5.516-16.964,8.781c-5.619,3.347-11.295,6.599-16.869,10.019
		c-10.591,6.498-20.497,14.001-30.666,21.117c-0.821,0.575-1.611,1.218-2.323,1.923c-2.659,2.635-5.785,4.57-9.122,6.195
		c-6.5,3.164-12.611,6.932-18.61,10.988c-10.144,6.858-20.582,13.282-30.924,19.845c-5.667,3.596-11.353,7.163-17.099,10.63
		c-4.02,2.425-8.051,4.871-12.261,6.934c-7.561,3.706-14.545,8.359-21.708,12.718c-13.337,8.114-26.791,16.021-40.932,22.674
		c-8.045,3.785-16.143,7.461-24.277,11.052c-14.922,6.588-29.233,14.258-42.932,23.139c-13.527,8.77-26.57,18.209-39.484,27.825
		c-8.74,6.508-17.22,13.372-25.686,20.238c-8.484,6.88-16.225,14.593-23.622,22.596c-9.444,10.219-18.636,20.691-26.286,32.374
		c-4.594,7.016-9.11,14.091-13.428,21.279c-5.181,8.623-10.087,17.411-15.186,26.085c-0.745,1.267-1.9,2.292-2.866,3.43
		c-0.511-0.655-1.128-1.253-1.515-1.975c-3.95-7.356-7.887-14.719-11.763-22.115c-0.69-1.317-1.083-2.788-1.614-4.19
		c0.708-0.709,1.516-1.343,2.111-2.136c7.748-10.329,15.52-20.632,24.343-30.098c5.94-6.373,11.632-12.981,17.662-19.266
		c4.987-5.198,10.261-10.111,15.576-14.995c7.775-7.145,15.367-14.489,23.507-21.226c8.651-7.16,17.201-14.456,26.091-21.31
		c13.424-10.351,27.565-19.688,41.894-28.75c13.053-8.255,26.429-15.941,40.031-23.232c13.305-7.132,26.71-14.077,40.099-21.049
		c11.16-5.81,22.311-11.639,33.558-17.277c9.596-4.81,19.282-9.445,29.006-13.992c6.227-2.912,12.509-5.749,18.928-8.195
		c4.992-1.902,9.344-4.463,12.7-8.64c0.418-0.521,0.954-0.947,1.388-1.457c2.169-2.555,4.341-5.109,6.456-7.708
		c0.268-0.33,0.446-1.114,0.252-1.357c-0.36-0.451-1.008-0.866-1.57-0.916c-0.81-0.073-1.666,0.125-2.474,0.324
		c-4.073,1.004-8.149,1.999-12.202,3.081c-17.18,4.587-34.333,9.277-51.533,13.787c-17.856,4.682-35.673,9.49-53.188,15.339
		c-8.434,2.816-16.82,5.776-25.21,8.719c-18.547,6.505-36.532,14.358-54.179,22.97c-9.947,4.854-19.776,9.965-29.513,15.228
		c-8.259,4.464-16.513,8.995-24.412,14.055c-16.806,10.766-33.483,21.752-49.073,34.268c-9.805,7.872-19.553,15.81-28.385,24.805
		c-7.052,7.183-14.207,14.266-21.346,21.363c-1.544,1.535-3.213,2.942-4.825,4.408c-0.53-1.391-1.219-2.744-1.564-4.179
		c-2.717-11.298-5.396-22.606-8.01-33.928c-0.407-1.765-0.423-3.62-0.619-5.433c1.414-1.175,2.907-2.266,4.227-3.538
		c7.003-6.75,13.569-13.951,21.158-20.097c5.341-4.325,10.328-9.107,15.815-13.228c10.328-7.757,20.805-15.326,31.4-22.716
		c16.809-11.724,34.265-22.445,52.433-31.918c25.01-13.039,50.408-25.254,76.885-35.135c15.264-5.696,30.629-11.106,46.222-15.762
		c18.006-5.376,36.205-10.116,54.364-14.968c20.918-5.589,41.868-11.062,62.835-16.464c15.44-3.978,30.955-7.665,46.384-11.68
		c5.992-1.559,11.943-3.327,17.334-6.632c6.292-3.858,12.821-7.329,19.111-11.191c5.428-3.333,10.732-6.882,15.952-10.534
		c2.037-1.425,3.73-3.356,5.493-5.143c0.344-0.349,0.287-1.093,0.534-2.179c-2.125,0.426-3.746,0.705-5.344,1.081
		c-4.901,1.153-9.768,2.473-14.697,3.487c-5.603,1.152-11.178,2.318-16.341,4.905c-1.408,0.706-2.839,1.032-4.305,0.111
		c-1.369-0.86-2.852-0.817-4.382-0.568c-2.649,0.432-5.305,0.818-7.961,1.203c-12.949,1.874-25.893,3.785-38.852,5.585
		c-3.981,0.553-8.004,0.814-12.01,1.177c-6.342,0.574-12.684,1.16-19.032,1.667c-5.849,0.467-11.72,0.692-17.554,1.284
		c-7.672,0.778-15.343,1.641-22.969,2.771c-13.607,2.017-27.189,4.209-40.764,6.438
		C392.167,387.211,386.256,388.459,380.325,389.585z"/>
	<path fill="#F18D3F" d="M804.52,658.714c1.45-1.612,2.842-3.281,4.359-4.827c39.91-40.667,78.84-82.238,115.857-125.57
		c9.685-11.336,19.227-22.794,28.852-34.182c1.075-1.272,2.263-2.45,3.397-3.669c0.524,0.828,1.398,1.607,1.516,2.487
		c0.514,3.812,1.048,7.648,1.137,11.485c0.317,13.737,0.044,27.443-1.795,41.111c-1.32,9.808-2.948,19.552-5.149,29.184
		c-2.014,8.816-4.369,17.56-6.776,26.279c-2.551,9.24-3.857,18.697-5.295,28.136c-0.428,2.811-0.729,5.641-1.088,8.462
		c-0.577,2.478-1.153,4.956-1.73,7.434c-2.974,7.66-5.712,15.422-8.962,22.964c-16.127,37.413-37.382,71.678-63.904,102.612
		c-33.631,39.226-72.753,71.886-117.718,97.443c-39.477,22.438-81.698,37.418-126.22,46.064c-1.97,0.382-3.988,0.515-5.982,0.763
		c1.321-1.505,2.542-3.111,3.981-4.49c2.538-2.434,5.255-4.68,7.814-7.093c5.975-5.637,11.42-11.824,17.862-16.984
		c1.818-1.456,3.326-3.31,4.921-5.033c2.162-2.336,4.22-4.769,6.413-7.074c3.007-3.16,6.2-6.147,9.131-9.374
		c4.28-4.711,8.417-9.553,12.582-14.368c6.028-6.97,12.076-13.923,18.028-20.959c13.777-16.287,26.031-33.716,38.066-51.29
		c10.049-14.673,19.799-29.551,29.624-44.377c3.149-4.753,6.268-9.538,9.132-14.465c6.067-10.438,12.093-20.905,17.875-31.502
		c4.174-7.649,7.979-15.502,11.826-23.325c0.714-1.451,0.845-3.189,1.245-4.795c0,0-0.017,0.017-0.017,0.017
		C803.843,659.424,804.181,659.069,804.52,658.714z"/>
	<path fill="#F4C141" d="M766.297,148.209c-3.469,2.896-6.937,5.795-10.409,8.688c-1.253,1.044-2.683,1.139-4.263,0.991
		c-3.165-0.297-6.344-0.582-9.519-0.597c-14.434-0.066-28.868-0.01-43.302-0.049c-11.766-0.032-21.962,4.184-30.985,11.46
		c-1.665,1.342-3.028,3.125-4.291,4.877c-1.084,1.504-0.912,3.184,0.372,4.622c0.558,0.625,1.093,1.309,1.768,1.782
		c8.126,5.698,16.385,11.168,26.379,13.069c4.61,0.877,9.236,1.761,13.977,1.474c4.396-0.266,8.679,0.632,12.98,1.315
		c0.278,0.044,0.51,0.387,1.061,0.83c-0.283,0.608-0.477,1.411-0.959,1.962c-0.652,0.746-1.502,1.329-2.307,1.928
		c-11.439,8.511-22.823,17.098-34.36,25.476c-4.608,3.346-9.553,6.229-14.351,9.313c-3.951,2.539-7.954,5.002-11.862,7.606
		c-12.712,8.471-25.771,16.368-39.228,23.593c-7.832,4.205-15.668,8.425-23.684,12.258c-7.257,3.47-14.731,6.496-22.164,9.587
		c-9.138,3.799-18.318,7.497-27.514,11.153c-1.693,0.673-3.548,0.937-5.326,1.393c0.723-0.687,1.372-1.481,2.18-2.047
		c3.846-2.695,7.729-5.336,11.609-7.98c12.917-8.802,24.68-19.049,36.507-29.21c6.737-5.788,13.341-11.732,19.938-17.681
		c6.969-6.285,13.976-12.535,20.74-19.036c4.465-4.292,8.615-8.924,12.751-13.542c5.254-5.866,10.369-11.856,15.494-17.836
		c0.712-0.83,1.667-1.75,0.786-3.425c-0.675,0.355-1.445,0.596-2.004,1.081c-3.167,2.744-6.314,5.511-9.41,8.334
		c-10.294,9.385-21.174,18.063-32.287,26.438c-12.062,9.09-24.688,17.337-37.728,24.986c-14.936,8.761-30.554,16.139-46.256,23.34
		c-11.126,5.102-22.491,9.683-33.708,14.592c-17.849,7.812-36.094,14.494-54.734,20.2c-22.181,6.79-44.785,11.723-67.529,16.044
		c-26.862,5.103-53.776,9.933-80.692,14.749c-12.873,2.303-25.759,4.586-38.806,5.75c-4.173,0.372-8.336,0.852-12.512,1.173
		c-7.85,0.604-15.7,1.488-23.561,1.611c-16.274,0.257-32.554,0.099-48.831,0.089c-1.675-0.001-3.351-0.13-5.024-0.243
		c-3.509-0.237-7.016-0.502-10.524-0.756c0.293-1.119,0.436-2.306,0.903-3.347c4.015-8.947,8.076-17.874,12.163-26.789
		c0.409-0.892,1.078-1.666,1.628-2.492c2.176,0.131,4.352,0.368,6.528,0.371c14.103,0.018,28.207-0.013,42.31-0.037
		c1.175-0.002,2.352-0.02,3.523-0.107c7.688-0.572,15.382-1.091,23.06-1.774c7.849-0.698,15.724-1.279,23.515-2.414
		c17.268-2.516,34.51-5.223,51.725-8.079c27.151-4.505,54.315-8.929,81.235-14.732c23.029-4.964,45.617-11.414,67.484-20.132
		c23.383-9.323,46.614-19.037,69.765-28.922c8.785-3.751,17.168-8.445,25.715-12.747c0.634-0.319,1.625-0.609,1.128-1.966
		c-0.617,0.164-1.261,0.252-1.834,0.502c-3.383,1.478-6.722,3.059-10.127,4.483c-8.205,3.432-16.375,6.958-24.673,10.151
		c-12.531,4.822-25.16,9.387-37.744,14.07c-15.592,5.803-31.464,10.73-47.607,14.719c-12.867,3.179-25.809,6.041-38.827,8.601
		c-19.453,3.825-39.031,6.606-58.767,8.364c-4.175,0.372-8.342,0.853-12.521,1.16c-8.191,0.602-16.38,1.329-24.584,1.611
		c-8.211,0.282-16.418-0.218-24.636-0.672c-10.758-0.595-21.41-1.748-31.938-3.873c-9.046-1.826-18.02-4.027-26.98-6.245
		c-7.496-1.856-14.92-3.991-22.057-7.009c-2.006-0.849-4.074-1.55-6.114-2.319c2.099-4.545,5.049-8.504,8.399-12.184
		c1.969,0.405,3.94,0.811,5.912,1.211c11.998,2.434,23.97,5.012,36.005,7.247c7.74,1.437,15.541,2.576,23.428,3.044
		c7.69,0.456,15.363,1.184,23.051,1.668c8.4,0.529,16.723-1.052,25.107-1.086c0.167-0.001,0.333-0.039,0.5-0.058
		c7.991-0.912,15.99-1.757,23.971-2.752c9.148-1.141,18.286-2.365,27.415-3.647c12.303-1.728,24.419-4.396,36.503-7.258
		c15.021-3.558,30.056-7.052,44.666-12.102c12.364-4.274,24.718-8.583,37.014-13.046c11.508-4.177,23.026-8.353,34.378-12.93
		c17.887-7.212,35.473-15.101,52.606-24.005c17.143-8.909,33.698-18.732,49.504-29.849c16.225-11.412,31.305-24.165,45.457-38.036
		c3.953-3.875,7.808-7.849,11.774-11.71c1.433-1.395,3.058-2.593,4.596-3.881c2.065,0.659,4.17,1.212,6.188,1.992
		c20.939,8.088,41.058,17.869,60.296,29.433C758.032,142.566,762.12,145.461,766.297,148.209z"/>
	<path fill="#F5D67B" d="M380.325,389.585c5.931-1.126,11.842-2.374,17.797-3.352c13.574-2.229,27.157-4.421,40.764-6.438
		c7.626-1.131,15.297-1.993,22.969-2.771c5.835-0.592,11.706-0.817,17.554-1.284c6.348-0.507,12.69-1.093,19.032-1.667
		c4.006-0.363,8.029-0.624,12.01-1.177c12.959-1.8,25.903-3.711,38.852-5.585c2.656-0.384,5.312-0.771,7.961-1.203
		c1.531-0.25,3.013-0.293,4.382,0.568c1.466,0.921,2.897,0.595,4.305-0.111c5.163-2.587,10.737-3.753,16.341-4.905
		c4.929-1.014,9.796-2.333,14.697-3.487c1.598-0.376,3.219-0.655,5.344-1.081c-0.247,1.085-0.189,1.83-0.534,2.179
		c-1.763,1.786-3.456,3.718-5.493,5.143c-5.22,3.652-10.524,7.201-15.952,10.534c-6.29,3.862-12.819,7.333-19.111,11.191
		c-5.39,3.305-11.341,5.072-17.334,6.632c-15.43,4.015-30.945,7.702-46.384,11.68c-20.967,5.402-41.917,10.875-62.835,16.464
		c-18.159,4.852-36.358,9.592-54.364,14.968c-15.594,4.656-30.958,10.065-46.222,15.762c-26.478,9.881-51.875,22.095-76.885,35.135
		c-18.169,9.473-35.625,20.194-52.433,31.918c-10.595,7.39-21.072,14.959-31.4,22.716c-5.488,4.122-10.474,8.903-15.815,13.228
		c-7.589,6.145-14.155,13.346-21.158,20.097c-1.319,1.272-2.813,2.363-4.227,3.538c-0.346-1.285-0.828-2.551-1.014-3.859
		c-1.248-8.759-2.563-17.51-3.605-26.294c-1.299-10.947-2.054-21.942-2.201-32.971c-0.027-2,0.071-4.001,0.11-6.006
		c1.811-0.495,3.303-1.499,4.794-2.637c13.985-10.675,28.319-20.849,43.264-30.154c18.393-11.452,37.729-21.05,57.611-29.595
		c5.233-2.249,10.462-4.507,15.684-6.779c12.287-5.347,24.535-10.786,36.865-16.033c9.401-4.001,18.91-7.746,28.353-11.649
		c1.834-0.758,3.87-1.23,5.132-2.994c4.324-1.278,8.682-2.452,12.966-3.854c12.55-4.108,25.052-8.364,37.614-12.437
		C371.883,391.673,376.132,390.716,380.325,389.585z"/>
	<path fill="#F5D67B" d="M154.709,347.569c3.508,0.254,7.015,0.519,10.524,0.756c1.673,0.113,3.349,0.242,5.024,0.243
		c16.278,0.01,32.558,0.168,48.831-0.089c7.86-0.124,15.711-1.007,23.561-1.611c4.176-0.321,8.34-0.801,12.512-1.173
		c13.047-1.164,25.933-3.447,38.806-5.75c26.916-4.815,53.83-9.646,80.692-14.749c22.744-4.321,45.347-9.253,67.529-16.044
		c18.64-5.706,36.885-12.388,54.734-20.2c11.216-4.909,22.581-9.49,33.708-14.592c15.703-7.201,31.32-14.579,46.256-23.34
		c13.04-7.649,25.666-15.896,37.728-24.986c11.113-8.375,21.992-17.053,32.287-26.438c3.096-2.823,6.243-5.59,9.41-8.334
		c0.559-0.485,1.329-0.726,2.004-1.081c0.881,1.675-0.074,2.595-0.786,3.425c-5.125,5.98-10.24,11.97-15.494,17.836
		c-4.136,4.618-8.286,9.25-12.751,13.542c-6.763,6.501-13.771,12.752-20.74,19.036c-6.597,5.949-13.201,11.893-19.938,17.681
		c-11.826,10.16-23.589,20.408-36.507,29.21c-3.881,2.644-7.764,5.286-11.609,7.98c-0.808,0.566-1.457,1.361-2.18,2.047
		c-5.477,2.094-10.894,4.365-16.439,6.258c-22.208,7.581-44.478,14.983-66.681,22.578c-10.465,3.58-20.819,7.482-31.248,11.168
		c-4.737,1.674-9.534,3.178-14.304,4.759c-0.335,0.012-0.677-0.014-1.004,0.043c-17.687,3.053-35.372,6.117-52.683,10.974
		c-10.989,3.083-21.904,6.42-32.499,10.672c-10.271,4.122-20.47,8.432-30.629,12.824c-19.092,8.254-37.979,16.947-56.591,26.25
		c-13.837,6.916-27.111,14.74-39.832,23.509c-8.56,5.901-16.993,11.987-25.509,17.952c-14.438,10.114-28.528,20.642-40.799,33.406
		c-1.252,1.302-2.882,2.241-4.337,3.349c-0.009-2.671-0.193-5.356,0.006-8.012c0.561-7.502,1.261-14.995,1.954-22.486
		c0.091-0.985,0.464-1.943,0.705-2.915c4.747-4.229,9.717-8.237,14.197-12.733c9.225-9.259,18.248-18.721,27.222-28.224
		c2.866-3.035,5.439-6.37,7.921-9.734c2.815-3.815,2.819-8.224,1.545-12.524c-1.876-6.329-8.115-10.006-15.046-8.948
		c-2.798,0.427-5.504,1.443-8.26,2.157c-4.702,1.218-9.411,2.408-14.117,3.61c0.47-1.94,0.799-3.928,1.433-5.813
		c3.031-9.016,6.119-18.014,9.255-26.995C153.113,350.507,153.988,349.064,154.709,347.569z"/>
	<path fill="#F5D67B" d="M142.378,621.814c1.612-1.466,3.281-2.874,4.825-4.408c7.139-7.098,14.294-14.18,21.346-21.363
		c8.832-8.995,18.58-16.932,28.385-24.805c15.59-12.517,32.266-23.502,49.073-34.268c7.898-5.06,16.153-9.591,24.412-14.055
		c9.737-5.263,19.566-10.374,29.513-15.228c17.647-8.612,35.632-16.465,54.179-22.97c8.391-2.943,16.777-5.903,25.21-8.719
		c17.515-5.849,35.332-10.657,53.188-15.339c17.2-4.51,34.353-9.201,51.533-13.787c4.053-1.082,8.129-2.077,12.202-3.081
		c0.808-0.199,1.664-0.397,2.474-0.324c0.562,0.051,1.209,0.466,1.57,0.916c0.194,0.243,0.016,1.027-0.252,1.357
		c-2.115,2.599-4.288,5.152-6.456,7.708c-0.433,0.511-0.969,0.936-1.388,1.457c-3.355,4.178-7.707,6.739-12.7,8.64
		c-6.419,2.445-12.701,5.283-18.928,8.195c-9.724,4.547-19.41,9.182-29.006,13.992c-11.247,5.638-22.399,11.466-33.558,17.277
		c-13.39,6.972-26.795,13.917-40.099,21.049c-13.602,7.291-26.978,14.977-40.031,23.232c-14.329,9.062-28.47,18.4-41.894,28.75
		c-8.889,6.854-17.44,14.15-26.091,21.31c-8.14,6.737-15.731,14.081-23.507,21.226c-5.315,4.883-10.589,9.797-15.576,14.995
		c-6.03,6.285-11.722,12.893-17.662,19.266c-8.823,9.466-16.595,19.769-24.343,30.098c-0.595,0.793-1.402,1.427-2.111,2.136
		c-0.761-1.294-1.631-2.539-2.267-3.893c-8.216-17.498-15.193-35.478-20.798-53.981C143.088,625.438,142.787,623.61,142.378,621.814
		z"/>
	<path fill="#909DBB" d="M63.905,992.799c1.99,2.404,2.182,5.197,1.667,8.097c-0.586,3.304-1.241,6.596-1.905,9.886
		c-1.929,9.546-3.687,19.113-3.763,28.9c-0.004,0.503-0.009,1.015-0.1,1.506c-1.473,7.935-0.176,15.709,1.346,23.47
		c1.864,9.501,6.979,17.003,14.471,22.912c3.588,2.83,7.79,4.657,12.199,5.829c7.963,2.117,16,3.607,24.329,3.551
		c12.823-0.085,25.422-1.487,37.862-4.67c12.203-3.123,24.407-6.227,36.262-10.511c19.579-7.075,39.075-14.367,57.811-23.514
		c14.028-6.848,28.073-13.662,42.053-20.607c14.737-7.32,29.072-15.392,43.269-23.7c14.34-8.392,28.639-16.857,42.881-25.414
		c7.336-4.408,14.576-8.982,21.741-13.663c15.879-10.375,31.739-20.78,47.5-31.332c13.947-9.338,27.793-18.828,41.606-28.364
		c23.624-16.307,46.742-33.315,69.523-50.773c18.113-13.88,36.124-27.897,54.039-42.032c14.75-11.637,29.298-23.531,43.927-35.322
		c6.139-4.948,12.302-9.868,18.366-14.908c5.675-4.717,11.247-9.559,16.837-14.376c7.878-6.788,15.72-13.618,23.606-20.397
		c1.397-1.201,2.879-2.324,4.417-3.338c4.058-2.673,8.424-4.114,13.355-3.021c0.652,0.145,1.331,0.169,1.997,0.25
		c-0.88,0.994-1.691,2.06-2.65,2.97c-4.121,3.906-8.315,7.735-12.423,11.655c-2.527,2.412-4.947,4.937-7.415,7.411
		c-0.994,0.397-1.807,0.966-2.019,2.11l0.017-0.071c-1.689,1.325-3.461,2.558-5.054,3.989
		c-15.783,14.177-31.539,28.386-47.298,42.59c-4.707,4.242-9.401,8.498-14.102,12.747c-1.584,1.222-3.214,2.39-4.746,3.675
		c-19.145,16.057-38.282,32.124-57.403,48.209c-2.171,1.826-4.239,3.775-6.354,5.667c-3.191,2.432-6.401,4.84-9.569,7.301
		c-16.423,12.76-32.844,25.523-49.22,38.343c-0.71,0.556-0.97,1.685-1.439,2.547c-1.305,0.703-2.718,1.26-3.899,2.13
		c-11.479,8.457-22.851,17.059-34.388,25.433c-11.538,8.375-23.141,16.669-34.879,24.761c-14.225,9.807-28.537,19.492-42.963,29
		c-21.714,14.312-43.762,28.105-66.325,41.046c-12.511,7.176-25.142,14.152-37.832,21.007c-9.297,5.022-18.696,9.872-28.196,14.498
		c-18.711,9.111-37.764,17.432-57.34,24.562c-15.003,5.464-30.213,10.186-45.773,13.723c-10.8,2.454-21.707,4.124-32.832,4.626
		c-6.229,0.281-12.411,0.165-18.557-0.376c-14.02-1.234-26.954-5.631-37.683-15.067c-8.857-7.79-14.02-17.881-16.703-29.244
		c-2.532-10.721-2.564-21.553-1.467-32.497c1.582-15.79,5.358-31.041,10.348-46.04C61.663,996.072,62.049,994.018,63.905,992.799z"
		/>
	<path fill="#F5D67B" d="M253.148,201.124c1.323-1.487,2.527-3.104,3.988-4.44c15.154-13.854,30.858-27.038,47.688-38.835
		c0.943-0.661,2.028-1.118,3.046-1.67c0.398,1.272,0.865,2.528,1.181,3.82c0.807,3.298,2.179,6.323,4.037,9.165
		c3.945,6.032,9.682,9.619,16.23,12.182c8.47,3.316,17.448,3.394,26.285,3.675c6.49,0.207,13.04-0.785,19.533-1.512
		c15.055-1.685,29.824-4.927,44.294-9.308c16.396-4.965,32.32-11.244,48.064-18.033c13.533-5.835,25.899-13.457,37.374-22.578
		c3.268-2.597,6.367-5.527,9.046-8.721c6.506-7.757,5.786-17-0.726-23.642c-1.78-1.816-3.736-3.332-6.007-4.505
		c-3.601-1.86-7.331-3.314-11.268-4.286c-1.026-0.253-2.461-0.263-2.508-2.277c2.594-0.909,5.309-1.694,8.048-2.428
		c4.696-1.259,9.377-2.576,14.065-3.869c2.996-0.32,5.99-0.888,8.989-0.915c12.246-0.112,24.505-0.417,36.736,0.02
		c16.936,0.605,33.804,2.33,50.499,5.327c9.572,1.718,19.076,3.821,28.593,5.833c1.781,0.377,3.479,1.147,5.213,1.736
		c-0.618,1.895-2.188,2.884-3.699,3.96c-12.022,8.556-24.145,16.97-36.688,24.743c-12.823,7.946-25.673,15.874-39.222,22.559
		c-9.167,4.523-18.304,9.139-27.668,13.223c-16.158,7.048-32.899,12.539-49.806,17.493c-11.906,3.489-23.81,7.012-35.821,10.109
		c-12.986,3.349-26.028,6.553-39.167,9.22c-17.242,3.5-34.5,7.025-52.053,8.748c-8.334,0.818-16.644,2.318-24.987,2.496
		c-15.907,0.34-31.834,1.032-47.741-0.66C276.655,206.477,264.828,204.243,253.148,201.124z"/>
	<path fill="#F5D67B" d="M687.267,108.568c-1.537,1.288-3.163,2.486-4.596,3.881c-3.966,3.861-7.821,7.836-11.774,11.71
		c-14.152,13.872-29.232,26.625-45.457,38.036c-15.806,11.117-32.361,20.94-49.504,29.849
		c-17.133,8.904-34.719,16.793-52.606,24.005c-11.352,4.577-22.87,8.753-34.378,12.93c-12.297,4.463-24.65,8.772-37.014,13.046
		c-14.61,5.05-29.644,8.544-44.666,12.102c-12.084,2.862-24.2,5.53-36.503,7.258c-9.129,1.282-18.267,2.505-27.415,3.647
		c-7.98,0.996-15.98,1.841-23.971,2.752c-0.167,0.019-0.333,0.058-0.5,0.058c-8.384,0.035-16.707,1.616-25.107,1.086
		c-7.688-0.484-15.362-1.212-23.051-1.668c-7.887-0.468-15.688-1.607-23.428-3.044c-12.035-2.234-24.007-4.813-36.005-7.247
		c-1.972-0.4-3.942-0.805-5.912-1.211c2.008-2.85,3.869-5.812,6.046-8.522c6.038-7.516,12.17-14.958,18.353-22.356
		c1.589-1.901,3.505-3.529,5.271-5.282c10.317,4.565,20.99,8.013,32.037,10.318c13.489,2.814,27.063,4.895,40.884,4.911
		c8.223,0.01,16.446-0.021,24.67-0.052c1.677-0.006,3.365,0.009,5.029-0.164c8.335-0.866,16.661-1.814,24.994-2.691
		c14.19-1.494,28.245-3.858,42.25-6.541c17.145-3.285,34.112-7.347,51.015-11.695c22.272-5.728,44.357-12.076,66.131-19.497
		c14.315-4.879,28.273-10.608,41.792-17.379c5.548-2.779,10.978-5.791,16.475-8.673c11.599-6.082,22.797-12.85,33.75-20.007
		c7.018-4.586,13.847-9.473,20.628-14.406c9.635-7.009,18.904-14.474,27.42-22.838c1.312-1.289,2.773-2.429,4.198-3.599
		c1.587-1.303,2.936-2.758,3.434-4.827C675.594,104.496,681.431,106.532,687.267,108.568z"/>
	<path fill="#F4C141" d="M669.758,102.461c-0.498,2.069-1.846,3.524-3.434,4.827c-1.425,1.17-2.886,2.31-4.198,3.599
		c-8.516,8.364-17.786,15.829-27.42,22.838c-6.781,4.933-13.61,9.821-20.628,14.406c-10.952,7.157-22.151,13.925-33.75,20.007
		c-5.496,2.882-10.927,5.894-16.475,8.673c-13.519,6.771-27.476,12.5-41.792,17.379c-21.773,7.421-43.858,13.769-66.131,19.497
		c-16.903,4.347-33.869,8.41-51.015,11.695c-14.005,2.683-28.06,5.046-42.25,6.541c-8.333,0.878-16.659,1.825-24.994,2.691
		c-1.664,0.173-3.352,0.158-5.029,0.164c-8.223,0.031-16.446,0.062-24.67,0.052c-13.821-0.016-27.396-2.097-40.884-4.911
		c-11.048-2.305-21.72-5.753-32.037-10.318c2.631-4.021,13.997-15.624,18.097-18.475c11.68,3.118,23.508,5.351,35.549,6.632
		c15.907,1.692,31.834,1,47.741,0.66c8.343-0.178,16.653-1.678,24.987-2.496c17.553-1.723,34.811-5.248,52.053-8.748
		c13.139-2.667,26.181-5.871,39.167-9.22c12.011-3.098,23.915-6.621,35.821-10.109c16.907-4.954,33.647-10.445,49.806-17.493
		c9.364-4.085,18.501-8.7,27.668-13.223c13.549-6.686,26.399-14.613,39.222-22.559c12.543-7.773,24.666-16.187,36.688-24.743
		c1.511-1.075,3.08-2.064,3.699-3.96c0.839,0.052,1.719-0.051,2.504,0.178C655.297,98.149,662.525,100.313,669.758,102.461z"/>
	<path fill="#F4C141" d="M515.518,83.863c-4.687,1.293-9.368,2.609-14.065,3.869c-2.739,0.734-5.454,1.519-8.048,2.428
		c0.047,2.014,1.482,2.023,2.508,2.277c3.937,0.972,7.667,2.426,11.268,4.286c2.272,1.174,4.227,2.69,6.007,4.505
		c6.511,6.642,7.232,15.885,0.726,23.642c-2.679,3.194-5.778,6.123-9.046,8.721c-11.476,9.121-23.841,16.742-37.374,22.578
		c-15.744,6.789-31.668,13.068-48.064,18.033c-14.47,4.382-29.239,7.623-44.294,9.308c-6.493,0.727-13.043,1.718-19.533,1.512
		c-8.837-0.281-17.815-0.359-26.285-3.675c-6.548-2.563-12.285-6.15-16.23-12.182c-1.859-2.842-3.23-5.867-4.037-9.165
		c-0.316-1.292-0.783-2.547-1.181-3.82c1.547-1.268,3.001-2.675,4.654-3.784c27.295-18.304,56.388-33.094,87.189-44.557
		c25.722-9.573,52.123-16.531,79.283-20.483c9.623-1.4,19.315-2.349,28.988-3.385C510.47,83.703,513.005,83.887,515.518,83.863z
		 M360.266,135.456c-1.042,0.156-1.578,0.127-2.018,0.319c-6.318,2.762-12.365,6.044-17.959,10.068
		c-2.02,1.453-3.776,3.331-5.44,5.204c-2.425,2.73-2.047,5.144,1.111,7.051c1.556,0.94,3.309,1.683,5.071,2.131
		c4.554,1.157,9.179,1.928,13.906,2.034c9.081,0.202,18.063-0.853,27.062-1.854c10.516-1.169,20.919-2.964,31.222-5.325
		c18.197-4.169,35.802-10.124,52.998-17.392c11.522-4.87,22.103-11.238,32.056-18.73c1.062-0.8,2.082-1.706,2.935-2.72
		c1.223-1.452,0.895-3.265-0.731-4.329c-0.829-0.543-1.766-1.002-2.72-1.259c-2.264-0.609-4.546-1.203-6.857-1.575
		c-9.658-1.552-19.398-1.125-29.121-1.1c-2.151,0.005-3.785,0.744-5.195,2.483c-4.575,5.641-9.944,10.412-16.169,14.21
		c-2.576,1.572-5.044,3.319-7.573,4.969c-5.63,3.672-11.471,6.945-17.695,9.524c-9.525,3.947-19.432,6.23-29.669,7.414
		c-4.994,0.577-9.683-0.193-14.329-1.693c-3.611-1.166-6.519-3.388-8.687-6.545C361.812,137.391,361.069,136.504,360.266,135.456z
		 M389.636,126.373c2.159,0.878,3.801,0.471,5.437,0.192c5.966-1.019,11.731-2.695,17.374-4.916
		c7.939-3.125,16.216-5.378,23.892-9.188c0.795-0.395,2.046-0.455,1.876-1.873C428.113,111.26,396.448,120.772,389.636,126.373z"/>
	<path fill="#F4B13F" d="M706.713,753.293c2.468-2.474,4.887-4.999,7.415-7.411c4.108-3.92,8.302-7.749,12.423-11.655
		c0.959-0.909,1.77-1.975,2.65-2.97c1.165-0.944,2.411-1.802,3.48-2.843c22.131-21.545,44.237-43.114,66.364-64.663
		c1.43-1.393,2.981-2.663,4.475-3.99c-0.4,1.606-0.531,3.343-1.245,4.795c-3.847,7.822-7.652,15.676-11.826,23.325
		c-5.783,10.597-11.808,21.064-17.875,31.502c-2.864,4.927-5.982,9.713-9.132,14.465c-9.825,14.826-19.576,29.703-29.624,44.377
		c-12.035,17.574-24.289,35.004-38.066,51.29c-5.951,7.035-11.999,13.989-18.028,20.959c-4.165,4.815-8.301,9.657-12.582,14.368
		c-2.931,3.227-6.124,6.214-9.131,9.374c-2.193,2.305-4.252,4.738-6.413,7.074c-1.595,1.723-3.103,3.576-4.921,5.033
		c-6.442,5.16-11.886,11.347-17.862,16.984c-2.558,2.413-5.276,4.66-7.814,7.093c-1.439,1.38-2.66,2.985-3.981,4.491
		c-4.248,1.346-8.601,2.006-13.052,2.022c0.801-1.464,1.49-3.003,2.42-4.38c6.652-9.851,13.339-19.679,20.044-29.494
		c3.211-4.699,6.563-9.303,9.717-14.04c9.276-13.931,18.57-27.851,27.688-41.885c5.927-9.122,11.596-18.412,17.313-27.668
		c8.005-12.959,15.944-25.958,23.922-38.934c0.983-1.599,1.723-3.255,1.64-5.181c0,0-0.017,0.071-0.017,0.071
		C705.78,755.094,706.437,754.375,706.713,753.293z"/>
	<path fill="#F4C141" d="M386.79,568.068c1.031-1.46,2.598-2.037,4.198-2.596c10.457-3.653,20.669-7.889,30.594-12.818
		c4.199-2.085,8.451-4.064,12.706-6.033c0.361-0.167,1.067-0.047,1.358,0.219c0.288,0.263,0.469,0.971,0.319,1.321
		c-0.39,0.908-0.907,1.791-1.521,2.567c-1.557,1.969-3.154,3.91-4.811,5.796c-3.205,3.647-6.492,7.221-9.69,10.874
		c-3.748,4.28-7.437,8.612-11.152,12.921c-0.328,0.381-0.643,0.775-0.989,1.139c-6.688,7.046-13.333,14.132-20.086,21.116
		c-4.661,4.821-9.477,9.493-14.214,14.241c-7.692,7.71-15.807,14.958-24.013,22.111c-4.164,3.629-8.201,7.405-12.28,11.131
		c-4.697,4.291-9.384,8.595-14.061,12.908c-0.983,0.907-1.93,1.856-2.855,2.822c-3.362,3.508-6.6,7.134-10.587,9.993
		c-1.215,0.871-2.23,2.028-3.299,3.091c-5.468,5.44-10.688,11.158-16.438,16.279c-8.646,7.7-16.492,16.223-25.075,23.948
		c-5.739,5.165-11.332,10.457-16.684,15.99c-8.185,8.461-17.146,15.992-26.549,23.025c-2.201,1.646-4.158,3.383-5.028,6.077
		c-0.471-0.311-0.943-0.624-1.416-0.936c-0.381-0.503-0.762-1.006-1.144-1.511c-0.621-0.895-1.24-1.787-1.86-2.68
		c0,0-0.187-0.315-0.188-0.317c-0.119-1.167-1.022-1.672-1.869-2.224c0,0-0.061-0.137-0.061-0.138
		c-3.784-5.293-7.568-10.586-11.351-15.878c0.863-0.793,1.704-1.61,2.59-2.375c5.706-4.922,11.433-9.819,17.132-14.748
		c6.079-5.258,12.109-10.572,18.207-15.808c5.716-4.909,11.547-9.685,17.228-14.632c6.693-5.827,13.272-11.785,19.914-17.671
		c8.145-7.217,16.363-14.353,24.439-21.645c8.451-7.631,16.834-15.339,25.131-23.137c8.666-8.146,17.275-16.357,25.763-24.688
		c11.006-10.802,21.875-21.744,32.788-32.641C383.595,571.507,385.174,569.769,386.79,568.068z"/>
	<path fill="#F4C141" d="M125.754,484.681c1.455-1.108,3.085-2.046,4.337-3.349c12.271-12.763,26.361-23.292,40.799-33.406
		c8.516-5.965,16.949-12.052,25.509-17.952c12.721-8.769,25.995-16.593,39.832-23.509c18.612-9.303,37.499-17.996,56.591-26.25
		c10.159-4.392,20.358-8.702,30.629-12.824c10.595-4.252,21.51-7.589,32.499-10.672c17.311-4.857,34.996-7.921,52.683-10.974
		c0.327-0.057,0.669-0.031,1.004-0.043c-0.907,1.871-2.808,2.314-4.48,3.003c-5.426,2.235-10.882,4.4-16.339,6.56
		c-15.588,6.171-31.262,12.134-46.747,18.555c-10.677,4.428-21.279,9.118-31.581,14.346c-13.298,6.748-26.411,13.904-38.724,22.387
		c-4.554,3.138-9.036,6.385-13.48,9.678c-1.182,0.876-2.185,2.039-3.108,3.2c-0.618,0.777,0.058,2.308,1.042,2.361
		c1.478,0.079,3.028,0.134,4.444-0.217c5.207-1.29,10.389-2.69,15.548-4.163c7.094-2.026,14.17-4.114,21.23-6.254
		c5.131-1.555,10.216-3.265,15.339-4.848c1.432-0.442,2.928-0.68,4.395-1.01c-1.261,1.765-3.297,2.238-5.131,2.996
		c-9.443,3.903-18.952,7.648-28.353,11.649c-12.33,5.247-24.577,10.686-36.865,16.033c-5.222,2.273-10.452,4.53-15.684,6.779
		c-19.882,8.545-39.218,18.144-57.611,29.595c-14.945,9.305-29.28,19.479-43.264,30.154c-1.491,1.138-2.983,2.143-4.794,2.637
		C125.005,500.985,124.881,492.827,125.754,484.681z"/>
	<path fill="#F5D67B" d="M386.79,568.068c-1.616,1.701-3.195,3.438-4.855,5.095c-10.913,10.897-21.782,21.839-32.788,32.641
		c-8.488,8.331-17.097,16.542-25.763,24.688c-8.297,7.798-16.68,15.506-25.131,23.137c-8.076,7.293-16.295,14.428-24.439,21.645
		c-6.642,5.886-13.221,11.843-19.914,17.671c-5.682,4.947-11.512,9.724-17.228,14.632c-6.098,5.236-12.128,10.55-18.207,15.808
		c-5.699,4.93-11.426,9.827-17.132,14.748c-0.886,0.765-1.727,1.582-2.59,2.375c-3.144-3.544-5.766-7.432-7.753-11.734
		c4.17-6.674,8.124-13.499,12.559-19.995c6.42-9.403,13.071-18.655,19.86-27.795c3.086-4.154,6.687-7.935,10.151-11.797
		c3.577-3.989,7.236-7.906,10.924-11.794c9.358-9.867,19.619-18.735,30.323-27.096c8.184-6.392,16.344-12.822,24.713-18.966
		c9.323-6.844,18.967-13.22,29.346-18.419c5.391-2.701,10.638-5.69,16.015-8.421c10.915-5.545,22.145-10.385,33.603-14.697
		C381.163,568.787,383.868,567.908,386.79,568.068z"/>
	<path fill="#F5D67B" d="M196.982,267.943c2.04,0.769,4.108,1.471,6.114,2.319c7.138,3.019,14.562,5.153,22.057,7.009
		c8.96,2.219,17.935,4.42,26.98,6.245c10.528,2.125,21.18,3.278,31.938,3.873c8.218,0.454,16.424,0.954,24.636,0.672
		c8.204-0.282,16.393-1.008,24.584-1.611c4.18-0.307,8.346-0.788,12.521-1.16c19.736-1.758,39.314-4.539,58.767-8.364
		c13.018-2.559,25.96-5.421,38.827-8.601c16.142-3.988,32.015-8.916,47.607-14.719c12.584-4.683,25.213-9.249,37.744-14.07
		c8.298-3.193,16.469-6.719,24.673-10.151c3.405-1.424,6.744-3.006,10.127-4.483c0.573-0.25,1.216-0.338,1.834-0.502
		c0.496,1.357-0.494,1.646-1.128,1.966c-8.547,4.302-16.93,8.996-25.715,12.747c-23.151,9.885-46.382,19.599-69.765,28.922
		c-21.866,8.718-44.455,15.168-67.484,20.132c-26.921,5.803-54.085,10.227-81.235,14.732c-17.215,2.856-34.458,5.563-51.725,8.079
		c-7.79,1.135-15.666,1.716-23.515,2.414c-7.679,0.683-15.372,1.201-23.06,1.774c-1.171,0.087-2.348,0.105-3.523,0.107
		c-14.103,0.023-28.207,0.054-42.31,0.037c-2.176-0.003-4.352-0.24-6.528-0.371c0.808-1.832,1.523-3.711,2.44-5.484
		c6.684-12.925,14.003-25.482,22.048-37.609C194.806,270.469,195.946,269.241,196.982,267.943z"/>
	<path fill="#F18D3F" d="M704.712,755.332c0.083,1.926-0.657,3.582-1.64,5.181c-7.978,12.975-15.917,25.975-23.922,38.934
		c-5.718,9.256-11.387,18.547-17.313,27.668c-9.118,14.034-18.412,27.954-27.688,41.885c-3.154,4.737-6.506,9.34-9.717,14.04
		c-6.705,9.815-13.392,19.643-20.044,29.494c-0.93,1.377-1.618,2.916-2.42,4.38c-5.467,0.802-10.911,1.842-16.404,2.35
		c-8.013,0.741-16.06,1.11-24.095,1.607c-0.998,0.062-2.007-0.064-3.009-0.103c0.837-1.625,1.456-3.413,2.542-4.848
		c7.063-9.338,14.251-18.582,21.353-27.89c11.167-14.635,22.247-29.337,33.468-43.93c5.608-7.293,11.542-14.335,17.128-21.644
		c1.898-2.483,4.602-4.482,5.305-7.796c4.7-4.249,9.395-8.505,14.102-12.747c15.759-14.204,31.515-28.412,47.298-42.59
		C701.251,757.89,703.023,756.657,704.712,755.332z"/>
	<path fill="#909DBB" d="M982.048,457.757c-0.661-3.292,0.021-6.365,1.706-9.193c1.456-2.444,2.88-4.95,4.67-7.142
		c4.135-5.065,8.573-9.884,12.723-14.937c4.79-5.833,9.524-11.72,14.065-17.748c6.965-9.247,13.741-18.637,20.603-27.962
		c16.425-22.323,31.771-45.358,45.64-69.359c7.893-13.659,15.432-27.508,22.568-41.585c8.277-16.326,16.082-32.862,22.729-49.908
		c6.169-15.82,10.945-32.088,13.769-48.865c2.079-12.346,2.432-24.725-0.594-36.985c-3.301-13.372-10.283-24.342-21.876-32.072
		c-4.213-2.809-8.874-4.777-13.781-6.033c-7.5-1.919-15.112-3.174-22.878-3.219c-5.875-0.034-11.77-0.262-17.622,0.118
		c-6.853,0.446-13.7,1.254-20.496,2.263c-16.652,2.474-32.802,7.034-48.845,12.035c-8.651,2.697-17.394,5.101-26.101,7.616
		c-1.288,0.372-2.598,0.716-3.921,0.911c-2.695,0.397-3.353-0.122-4.559-3.305c5.031-2.292,9.969-4.811,15.105-6.829
		c17.489-6.872,34.953-13.861,53.198-18.55c12.835-3.299,25.736-6.215,38.991-7.534c8.058-0.802,16.099-1.03,24.118-0.583
		c10.818,0.604,21.229,3.201,30.769,8.593c12.117,6.849,20.101,17.112,24.263,30.271c3.69,11.669,4.35,23.663,3.191,35.828
		c-0.797,8.366-2.042,16.628-3.973,24.808c-2.856,12.1-6.521,23.933-10.889,35.576c-7.677,20.46-17.075,40.128-27.228,59.439
		c-8.588,16.334-17.926,32.254-27.619,47.959c-14.276,23.13-29.277,45.783-45.167,67.84c-8.235,11.431-16.475,22.86-24.895,34.155
		c-7.719,10.354-15.65,20.551-23.576,30.748C985.031,455.527,983.422,456.551,982.048,457.757z"/>
	<path fill="#F4B13F" d="M638.258,814.658c-0.703,3.314-3.408,5.314-5.305,7.796c-5.586,7.309-11.52,14.351-17.128,21.644
		c-11.221,14.593-22.301,29.295-33.468,43.93c-7.103,9.308-14.29,18.552-21.353,27.89c-1.086,1.435-1.705,3.223-2.542,4.848
		c-0.817,0.171-1.631,0.485-2.447,0.49c-7.19,0.05-14.38,0.055-21.57,0.04c-0.655-0.001-1.31-0.239-1.964-0.366
		c0.545-0.833,1.023-1.72,1.643-2.493c3.437-4.289,6.948-8.52,10.361-12.828c7.036-8.88,14.063-17.767,21.007-26.718
		c1.614-2.081,3.625-3.96,4.262-6.684c2.116-1.892,4.183-3.841,6.354-5.667c19.122-16.085,38.258-32.152,57.403-48.209
		C635.043,817.048,636.673,815.88,638.258,814.658z"/>
	<path fill="#F4B13F" d="M141.882,384.872c4.706-1.202,9.415-2.393,14.117-3.61c2.757-0.714,5.462-1.729,8.26-2.157
		c6.931-1.059,13.17,2.618,15.046,8.948c1.274,4.3,1.271,8.709-1.545,12.524c-2.482,3.364-5.056,6.7-7.921,9.734
		c-8.974,9.503-17.998,18.965-27.222,28.224c-4.48,4.496-9.45,8.504-14.197,12.733c0.114-2.002,0.091-4.024,0.361-6.005
		c2.542-18.643,6.282-37.046,11.25-55.195C140.515,388.299,141.258,386.602,141.882,384.872z"/>
	<path fill="#F4B13F" d="M939.535,637.611c0.359-2.821,0.66-5.651,1.088-8.462c1.438-9.439,2.744-18.895,5.295-28.136
		c2.407-8.72,4.762-17.463,6.776-26.279c2.201-9.632,3.829-19.375,5.149-29.184c1.839-13.667,2.112-27.373,1.795-41.111
		c-0.089-3.837-0.623-7.673-1.137-11.485c-0.119-0.88-0.992-1.659-1.516-2.487c2.143-2.593,4.285-5.183,6.424-7.774
		c0.187,2.338,0.526,4.674,0.543,7.013c0.346,47.669-6.024,94.361-20.499,139.86c-0.863,2.713-1.958,5.353-2.945,8.028
		C940.185,637.59,939.86,637.596,939.535,637.611z"/>
	<path fill="#F18D3F" d="M569.753,872.208c-0.638,2.723-2.648,4.603-4.262,6.684c-6.945,8.951-13.972,17.838-21.007,26.718
		c-3.413,4.308-6.924,8.539-10.361,12.828c-0.62,0.773-1.099,1.66-1.643,2.493c-2.326,0.052-4.654,0.208-6.976,0.137
		c-5.327-0.163-10.651-0.437-15.977-0.667c0.469-0.863,0.729-1.993,1.438-2.548c16.376-12.82,32.797-25.583,49.22-38.343
		C563.353,877.048,566.563,874.641,569.753,872.208z"/>
	<path fill="#DEA15B" d="M939.535,637.611c0.325-0.015,0.649-0.02,0.974-0.017c-0.25,2.719-0.821,5.322-2.704,7.45
		C938.382,642.566,938.959,640.089,939.535,637.611z"/>
	<path fill="#C2C8DD" d="M840.828,176.358c-0.362,0.049-0.723,0.098-1.085,0.147C840.104,176.456,840.466,176.407,840.828,176.358z"
		/>
	<path fill="#F4C141" d="M231.44,782.032c2.878-0.725,5.037-2.683,7.227-4.465c7.82-6.362,16.003-12.222,24.407-17.765
		c8.134-5.364,16.04-11.058,23.542-17.234c7.758-6.386,15.582-12.697,23.077-19.428c7.967-7.155,15.96-14.317,24.415-20.945
		c7.512-5.889,14.627-12.286,21.883-18.499c6.999-5.993,14.001-11.983,20.91-18.079c4.775-4.213,9.52-8.475,14.055-12.941
		c10.764-10.599,21.501-21.23,32.037-32.054c5.839-5.997,11.259-12.402,16.857-18.633c3.136-3.49,6.293-6.962,9.363-10.51
		c5.481-6.334,10.915-12.709,16.346-19.087c4.237-4.977,8.477-9.952,12.646-14.986c3.315-4.003,6.464-8.143,9.794-12.132
		c4.939-5.915,9.953-11.769,14.975-17.615c4.148-4.828,8.25-9.702,12.566-14.378c3.868-4.191,7.881-8.265,12.042-12.163
		c6.357-5.955,12.811-11.813,19.383-17.53c6.194-5.389,12.527-10.625,18.926-15.77c4.31-3.466,8.735-6.811,13.295-9.939
		c8.708-5.975,17.495-11.84,26.36-17.578c3.794-2.456,7.851-4.513,11.83-6.674c0.793-0.43,1.776-0.51,3.577-0.995
		c-0.894,1.439-1.159,2.238-1.708,2.695c-9.444,7.854-17.727,16.909-26.245,25.692c-6.404,6.604-12.114,13.878-18.168,20.823
		c-3.193,3.663-6.495,7.232-9.687,10.896c-3.41,3.916-6.737,7.905-10.122,11.843c-2.621,3.05-5.241,6.102-7.924,9.097
		c-3.691,4.119-7.466,8.161-11.154,12.282c-1.899,2.122-3.702,4.331-5.522,6.523c-9.204,11.089-18.595,22.031-27.538,33.328
		c-7.595,9.595-14.843,19.479-21.925,29.462c-7.472,10.532-14.639,21.284-21.798,32.034c-4.927,7.4-9.612,14.961-14.407,22.449
		c-3.525,5.505-7.156,10.945-10.553,16.528c-4.707,7.736-9.173,15.618-13.86,23.367c-7.987,13.206-16.067,26.356-24.105,39.531
		c-4.977,8.158-9.93,16.331-14.932,24.473c-4.123,6.711-8.354,13.358-12.446,20.088c-4.444,7.309-8.812,14.665-13.158,22.033
		c-4.26,7.221-8.459,14.479-12.667,21.73c-1.347,2.321-2.748,4.622-3.91,7.036c-0.639,1.327-0.833,2.869-1.23,4.315
		c-2.674,1.434-5.329,2.9-8.028,4.281c-0.845,0.432-1.808,0.636-2.718,0.945c0.03-3.452,1.42-6.549,2.726-9.616
		c6.308-14.811,13.04-29.43,20.295-43.804c3.099-6.139,6.082-12.341,9.34-18.395c4.447-8.265,9.114-16.41,13.672-24.616
		c5.372-9.671,10.712-19.36,16.099-29.023c1.632-2.928,3.371-5.797,5.066-8.69c4.999-8.533,9.882-17.138,15.038-25.575
		c4.543-7.435,9.394-14.682,14.107-22.013c0.09-0.141,0.232-0.29,0.235-0.438c0.009-0.466,0.133-1.083-0.109-1.359
		c-0.247-0.281-0.996-0.448-1.313-0.276c-0.869,0.472-1.688,1.083-2.419,1.756c-5.687,5.233-10.905,10.938-15.686,16.976
		c-8.324,10.514-16.565,21.105-23.813,32.422c-3.437,5.367-7.12,10.576-10.565,15.938c-4.35,6.771-8.685,13.557-12.82,20.46
		c-8.445,14.094-16.647,28.334-25.147,42.394c-6.943,11.486-13.182,23.356-19.765,35.039c-4.193,7.44-8.722,14.694-13.229,21.951
		c-0.751,1.209-2.16,2.01-3.265,3l-0.006,0.007c1.32-3.252,2.56-6.539,3.979-9.748c2.097-4.745,4.447-9.381,6.456-14.161
		c2.077-4.942,2.445-10.06,0.65-15.215c-3.289-9.44-11.108-13.294-19.369-13.072c-4.815,0.129-9.524,1.898-13.479,5.006
		c-3.421,2.688-6.745,5.507-10.254,8.074c-2.678,1.959-4.834,4.682-8.156,5.725c-0.669-0.491-1.422-0.901-1.995-1.486
		c-6.315-6.445-12.62-12.899-18.878-19.399C233.396,784.75,232.469,783.342,231.44,782.032z"/>
	<path fill="#F18D3F" d="M571.307,679.483c-0.393-1.88,0.692-3.192,1.74-4.515c3.644-4.596,7.28-9.197,10.94-13.78
		c11.502-14.402,23.049-28.767,34.509-43.202c10.628-13.388,21.174-26.841,31.743-40.276c7.771-9.878,15.476-19.809,23.299-29.647
		c5.108-6.424,10.344-12.75,15.578-19.073c6.623-8,13.229-16.015,19.978-23.909c7.292-8.529,14.738-16.925,22.117-25.379
		c6.387-7.317,12.773-14.635,19.159-21.953c0.11-0.126,0.219-0.255,0.333-0.377c5.389-5.741,10.662-11.598,16.209-17.183
		c3.89-3.916,7.984-7.673,12.284-11.131c11.361-9.136,22.918-18.028,34.331-27.101c6.689-5.317,13.183-10.879,19.888-16.175
		c6.048-4.778,12.225-9.396,18.418-13.987c5.79-4.293,11.803-8.295,17.487-12.721c7.827-6.095,16.153-11.392,24.629-16.509
		c4.152-2.507,8.006-5.509,11.985-8.3c1.098-0.77,2.146-1.609,3.244-2.379c4.523-3.172,9.382-5.202,15.07-4.366
		c1.463,2.719,2.918,5.443,4.392,8.156c0.926,1.704,1.881,3.392,2.823,5.087c-1.022,1.858-1.879,3.834-3.107,5.544
		c-1.627,2.267-3.544,4.326-5.334,6.472c-0.526,0.631-1.054,1.265-1.582,1.899c0,0-0.025,0.041-0.025,0.04
		c-1.785-0.119-3.245,0.68-4.646,1.644c-2.899,1.996-5.858,3.913-8.681,6.011c-5.112,3.798-9.979,7.945-15.242,11.514
		c-9.444,6.404-18.616,13.14-27.424,20.391c-9.961,8.201-19.865,16.46-28.976,25.617c-5.199,5.225-10.421,10.414-15.194,16.062
		c-6.05,7.159-12.522,13.961-18.668,21.042c-5.6,6.451-11.214,12.878-17.168,19.012c-4.431,4.565-8.661,9.327-12.936,14.041
		c-2.924,3.224-5.794,6.499-8.65,9.785c-3.514,4.044-6.982,8.127-10.48,12.184c-4.921,5.706-9.899,11.364-14.767,17.116
		c-6.274,7.413-12.477,14.887-18.683,22.357c-5.031,6.055-10.026,12.139-15.027,18.218c-1.084,1.317-1.875,2.778-1.992,4.528
		c0,0-0.049,0.033-0.049,0.033c-0.99,0.19-1.669,0.736-1.96,1.721c-0.016,0.226-0.137,0.331-0.361,0.31
		c-0.495,0.441-0.993,0.885-1.49,1.328c-1.335,1.264-2.617,2.59-4.013,3.783c-38.782,33.124-78.677,64.859-119.47,95.469
		C574.22,677.873,572.722,678.622,571.307,679.483z"/>
	<path fill="#F4C141" d="M416.889,784.93c-0.263-3.639,2.259-6.235,3.633-9.216c1.461-3.172,3.672-5.989,5.407-9.045
		c3.973-6.996,7.879-14.03,11.769-21.072c5.429-9.83,10.839-19.671,16.217-29.529c4.737-8.682,9.303-17.459,14.162-26.072
		c4.858-8.612,9.949-17.094,15.009-25.59c2.83-4.751,5.79-9.425,8.716-14.118c6.92-11.099,14.337-21.859,21.976-32.477
		c5.585-7.763,11.492-15.27,17.61-22.596c6.331-7.581,12.978-14.895,19.682-22.166c9.1-9.869,18.487-19.441,28.092-28.796
		c6.233-6.071,12.874-11.724,19.348-17.547c3.113-2.8,6.184-5.653,9.41-8.318c6.587-5.443,13.262-10.78,19.91-16.149
		c1.694-1.368,3.391-2.737,5.151-4.016c0.605-0.44,1.409-0.607,2.983-1.252c-0.729,1.524-0.949,2.278-1.392,2.865
		c-4.037,5.354-8.152,10.649-12.17,16.017c-13.264,17.719-26.571,35.406-39.715,53.213c-8.963,12.141-17.333,24.707-25.334,37.495
		c-5.508,8.804-10.67,17.843-15.587,26.991c-5.238,9.744-10.212,19.645-14.92,29.656c-4.634,9.853-8.774,19.924-12.538,30.165
		c-3.528,9.598-7.32,19.099-10.625,28.785c-0.826,2.42-1.488,4.788-1.436,7.341c-1.304,1.031-2.553,2.142-3.919,3.08
		c-25.38,17.436-51.172,34.238-77.458,50.278C419.595,783.632,418.218,784.242,416.889,784.93z"/>
	<path fill="#F18D3F" d="M870.69,243.897c7.081,9.979,14.183,19.943,21.221,29.952c1.148,1.633,2.011,3.466,3.005,5.206
		c-5.232-2.646-10.494-5.233-15.686-7.954c-4.783-2.507-9.844-4.254-14.998-5.76c-3.861-1.128-7.732-2.25-11.653-3.137
		c-11.635-2.63-22.962-6.278-34.195-10.222c-8.408-2.952-17.112-4.767-25.698-7.044c-3.562-0.945-7.1-1.99-10.628-3.056
		c-6.006-1.815-10.552-5.704-14.504-10.39c-1.896-2.249-2.773-4.953-3.204-7.808c-0.425-2.817,0.663-4.903,3.216-6.2
		c0.747-0.38,1.482-0.793,2.255-1.111c8.058-3.311,16.153-6.533,24.172-9.936c4.007-1.7,7.895-3.686,11.802-5.613
		c2.418-1.192,4.819-2.285,7.581-2.496c2.397-0.183,4.478-1.339,6.395-2.741c1.082-0.791,2.105-1.662,3.153-2.499
		c3.815,3.887,7.643,7.764,11.438,11.672c0.912,0.94,1.717,1.984,2.57,2.979c-1.46,1.354-2.928,2.701-4.374,4.07
		c-0.717,0.679-1.45,1.356-2.072,2.119c-0.502,0.615-0.19,1.821,0.51,2.188c0.584,0.306,1.204,0.562,1.832,0.766
		c5.699,1.851,11.403,3.686,17.105,5.526c1.934,0.469,3.01,2.047,4.235,3.378C859.702,231.798,865.187,237.856,870.69,243.897z"/>
	<path fill="#C2C8DD" d="M676.103,674.157c-0.369,0.83-0.55,1.84-1.14,2.459c-2.894,3.036-5.771,6.108-8.887,8.908
		c-7.365,6.615-15.033,12.869-22.891,18.9c-14.109,10.83-28.27,21.599-42.158,32.707c-8.508,6.805-16.489,14.264-24.816,21.3
		c-8.327,7.036-16.544,14.238-25.25,20.782c-14.889,11.192-29.548,22.686-44.472,33.823c-21.39,15.961-43.2,31.352-66.167,45.005
		c-7.353,4.371-14.837,8.547-22.426,12.493c-10.57,5.496-21.279,10.726-31.968,15.99c-2.249,1.108-4.645,1.935-7.018,2.765
		c-1.092,0.382-2.283,0.548-3.443,0.649c-1.055,0.092-1.998-0.337-2.526-1.321c-0.55-1.025-0.255-2.062,0.505-2.766
		c1.464-1.358,2.916-2.844,4.641-3.788c16.5-9.029,32.404-19.052,48.417-28.889c10.301-6.328,20.083-13.432,29.794-20.634
		c16.444-12.196,33.075-24.143,49.431-36.454c9.11-6.856,17.745-14.339,26.738-21.354c11.246-8.772,22.582-17.432,33.99-25.993
		c10.736-8.057,21.558-16.002,32.458-23.836c5.173-3.718,10.572-7.128,15.942-10.562c13.159-8.415,25.626-17.822,38.456-26.707
		c6.62-4.584,13.443-8.876,20.188-13.279c0.535-0.349,1.179-0.53,1.772-0.789C675.549,673.765,675.826,673.961,676.103,674.157z"/>
	<path fill="#F4B13F" d="M702.882,574.239c0.117-1.75,0.908-3.21,1.992-4.528c5.002-6.079,9.997-12.163,15.027-18.218
		c6.207-7.47,12.409-14.944,18.683-22.357c4.867-5.752,9.846-11.409,14.767-17.116c3.499-4.057,6.966-8.141,10.48-12.184
		c2.856-3.286,5.725-6.561,8.65-9.785c4.275-4.714,8.505-9.476,12.936-14.041c5.954-6.134,11.568-12.561,17.168-19.012
		c6.146-7.081,12.618-13.883,18.668-21.042c4.774-5.649,9.995-10.837,15.194-16.062c9.111-9.157,19.016-17.416,28.976-25.617
		c8.808-7.252,17.98-13.988,27.424-20.391c5.263-3.569,10.13-7.716,15.242-11.514c2.824-2.098,5.782-4.015,8.681-6.011
		c1.401-0.964,2.861-1.763,4.646-1.644c-0.409,0.716-0.723,1.51-1.239,2.136c-9.445,11.448-18.91,22.879-28.389,34.297
		c-0.524,0.632-1.216,1.124-1.829,1.682c-0.736,0.386-1.586,0.645-2.192,1.179c-6.514,5.738-13.106,11.394-19.44,17.327
		c-5.606,5.25-10.911,10.811-15.892,16.685c-3.993,4.709-8.381,9.08-12.45,13.727c-5.827,6.656-11.508,13.44-17.29,20.136
		c-1.124,1.301-2.024,2.651-2.183,4.401c-1.118,1.237-2.178,2.533-3.363,3.702c-35.779,35.317-72.89,69.184-111.028,101.934
		C705.119,572.785,703.966,573.471,702.882,574.239z"/>
	<path fill="#F4B13F" d="M300.917,845.197c-0.81-0.792-1.606-1.598-2.432-2.371c-0.948-0.887-1.923-1.745-2.887-2.614
		c1.104-0.988,2.514-1.789,3.265-2.999c4.507-7.258,9.037-14.511,13.229-21.951c6.583-11.682,12.822-23.553,19.765-35.039
		c8.5-14.06,16.703-28.3,25.147-42.394c4.136-6.903,8.471-13.688,12.82-20.46c3.444-5.362,7.128-10.571,10.565-15.938
		c7.247-11.317,15.489-21.908,23.813-32.422c4.78-6.038,9.999-11.743,15.686-16.976c0.731-0.673,1.55-1.284,2.419-1.756
		c0.317-0.172,1.067-0.005,1.313,0.276c0.242,0.276,0.118,0.893,0.109,1.359c-0.003,0.148-0.145,0.297-0.235,0.438
		c-4.714,7.331-9.564,14.578-14.107,22.013c-5.156,8.438-10.039,17.042-15.038,25.575c-1.695,2.893-3.434,5.762-5.066,8.69
		c-5.387,9.663-10.727,19.352-16.099,29.023c-4.558,8.205-9.225,16.351-13.672,24.616c-3.257,6.054-6.241,12.256-9.34,18.395
		c-7.255,14.374-13.987,28.993-20.295,43.804c-1.306,3.066-2.695,6.164-2.726,9.616c-1.725,0.942-3.403,1.989-5.187,2.809
		c-5.097,2.343-10.232,4.601-15.36,6.876C304.795,844.569,302.989,845.419,300.917,845.197z"/>
	<path fill="#C2C8DD" d="M231.077,953.366c0.461,1.695-0.569,2.147-1.445,2.533c-3.375,1.488-6.739,3.02-10.191,4.311
		c-9.004,3.37-18.435,5.034-27.869,6.604c-6.119,1.018-12.268,1.893-18.429,2.613c-6.85,0.801-13.741,1.102-20.526-0.519
		c-7.739-1.848-15.032-4.932-21.494-9.534c-7.827-5.575-11.729-13.572-12.674-23.058c-0.133-1.334-0.197-2.675-0.3-4.012
		c-0.052-0.668-0.18-1.336-0.17-2.002c0.03-2.032,0.968-3.628,2.348-4.1c1.309-0.448,2.928,0.432,3.945,2.443
		c0.751,1.485,1.275,3.096,1.773,4.691c0.348,1.114,0.442,2.305,0.716,3.445c2.114,8.828,6.912,15.495,15.354,19.35
		c6.328,2.889,12.818,4.793,19.862,4.912c10.926,0.185,21.77-0.511,32.618-1.796c9.497-1.125,18.998-2.139,28.347-4.21
		c1.964-0.435,3.901-0.99,5.864-1.429C229.561,953.438,230.356,953.438,231.077,953.366z"/>
	<path fill="#F18D3F" d="M820.513,466.287c0.16-1.75,1.06-3.1,2.183-4.401c5.781-6.696,11.462-13.48,17.29-20.136
		c4.069-4.647,8.457-9.018,12.45-13.727c4.981-5.874,10.286-11.435,15.892-16.685c6.333-5.932,12.926-11.588,19.44-17.327
		c0.606-0.534,1.455-0.792,2.192-1.179c-0.911,1.191-1.752,2.445-2.744,3.564c-20.49,23.119-41.743,45.519-63.665,67.285
		C822.607,464.619,821.529,465.422,820.513,466.287z"/>
	<path fill="#F4B13F" d="M849.933,222.407c-5.703-1.84-11.407-3.675-17.105-5.526c-0.628-0.204-1.248-0.459-1.832-0.766
		c-0.699-0.367-1.012-1.572-0.51-2.188c0.622-0.762,1.355-1.439,2.072-2.119c1.446-1.369,2.914-2.716,4.374-4.07
		c4.795,3.873,8.724,8.572,12.65,13.27C849.86,221.341,849.823,221.935,849.933,222.407z"/>
	<path fill="#F4B13F" d="M700.872,575.993c0.292-0.986,0.97-1.531,1.96-1.721C702.179,574.846,701.526,575.419,700.872,575.993z"/>
	<path fill="#F4B13F" d="M921.442,354.677c0.528-0.634,1.056-1.268,1.582-1.899C922.495,353.413,921.969,354.045,921.442,354.677z"
		/>
	<path fill="#F4B13F" d="M699.021,577.632c0.498-0.443,0.995-0.887,1.49-1.328C700.013,576.748,699.517,577.19,699.021,577.632z"/>
	<path fill="#F18D3F" d="M569.821,680.144c0.396-0.399,0.792-0.799,1.183-1.201C571.225,679.947,570.697,680.216,569.821,680.144z"
		/>
	<path fill="#F18D3F" d="M568.778,681.477c0.367-0.524,0.734-1.047,1.1-1.571C570.058,680.812,569.506,681.206,568.778,681.477z"/>
	<path fill="#F18D3F" d="M889.808,287.148c3.398-0.251,6.544,0.744,9.35,3.367c3.984,3.725,5.279,9.433,2.297,14.683
		c-1.483,2.61-3.297,5.061-5.188,7.401c-1.469,1.817-3.187,3.468-4.97,4.988c-9.189,7.83-18.192,15.909-28.638,22.111
		c-19.778,11.743-38.582,25-58.017,37.275c-14.04,8.867-28.154,17.621-42.375,26.195c-12.929,7.795-26.061,15.253-39.073,22.911
		c-4.916,2.893-9.74,5.944-14.622,8.895c-1.434,0.867-2.892,1.707-4.401,2.429c-0.732,0.35-1.601,0.514-2.42,0.561
		c-1.865,0.109-3.106-1.837-2.259-3.464c0.23-0.442,0.516-0.867,0.836-1.25c3.759-4.504,7.54-8.989,11.294-13.496
		c9.69-11.632,20.91-21.78,31.61-32.424c4.387-4.364,9.223-8.288,13.961-12.287c6.022-5.082,12.05-10.165,18.26-15.012
		c7.802-6.089,15.728-12.025,23.714-17.87c8.529-6.242,17.213-12.272,25.789-18.451c7.618-5.489,15.106-11.16,22.797-16.544
		c4.254-2.978,8.738-5.648,13.242-8.243c5.085-2.93,10.243-5.752,15.495-8.371C880.555,288.526,884.829,286.961,889.808,287.148z"/>
	<path fill="#F4B13F" d="M804.52,658.714c-0.339,0.355-0.678,0.71-1.017,1.065C803.842,659.424,804.181,659.069,804.52,658.714z"/>
	<path fill="#F18D3F" d="M706.713,753.293c-0.276,1.082-0.933,1.801-2.019,2.11C704.906,754.259,705.719,753.69,706.713,753.293z"/>
	<path fill="#F5D67B" d="M360.266,135.456c0.803,1.049,1.546,1.936,2.198,2.885c2.167,3.157,5.076,5.379,8.687,6.545
		c4.645,1.5,9.335,2.271,14.329,1.693c10.237-1.184,20.144-3.467,29.669-7.414c6.224-2.579,12.065-5.853,17.695-9.524
		c2.529-1.649,4.997-3.397,7.573-4.969c6.225-3.798,11.594-8.569,16.169-14.21c1.411-1.739,3.044-2.477,5.195-2.483
		c9.723-0.025,19.463-0.452,29.121,1.1c2.311,0.372,4.593,0.966,6.857,1.575c0.953,0.256,1.89,0.716,2.72,1.259
		c1.626,1.065,1.954,2.877,0.731,4.329c-0.853,1.014-1.873,1.92-2.935,2.72c-9.953,7.492-20.534,13.861-32.056,18.73
		c-17.197,7.268-34.801,13.223-52.998,17.392c-10.303,2.361-20.706,4.155-31.222,5.325c-8.999,1.001-17.981,2.057-27.062,1.854
		c-4.727-0.105-9.352-0.876-13.906-2.034c-1.762-0.448-3.514-1.191-5.071-2.131c-3.158-1.908-3.536-4.322-1.111-7.051
		c1.664-1.873,3.42-3.752,5.44-5.204c5.595-4.024,11.641-7.306,17.959-10.068C358.688,135.583,359.224,135.612,360.266,135.456z"/>
	<path fill="#F5D67B" d="M389.636,126.373c6.812-5.601,38.478-15.113,48.579-15.785c0.169,1.418-1.082,1.478-1.876,1.873
		c-7.676,3.81-15.953,6.063-23.892,9.188c-5.642,2.221-11.407,3.897-17.374,4.916C393.437,126.844,391.795,127.25,389.636,126.373z"
		/>
	<path fill="#F4B13F" d="M295.592,840.221c-1.001-0.578-2.069-1.068-2.994-1.749c-11.935-8.787-23.267-18.305-34.164-28.341
		c-1.092-1.006-2.014-2.196-3.014-3.3c3.322-1.043,5.479-3.766,8.156-5.725c3.509-2.567,6.833-5.386,10.254-8.074
		c3.955-3.108,8.664-4.877,13.479-5.006c8.261-0.222,16.08,3.632,19.369,13.072c1.796,5.155,1.428,10.274-0.65,15.215
		c-2.009,4.78-4.359,9.416-6.456,14.161C298.152,833.681,296.912,836.968,295.592,840.221z"/>
</g>
</svg>
