<?xml version="1.0" encoding="utf-8"?>
<!-- Designed by Vexels.com - 2020 All Rights Reserved - https://vexels.com/terms-and-conditions/  -->
<svg version="1.1" id="Capa_1" xmlns="http://www.w3.org/2000/svg" xmlns:xlink="http://www.w3.org/1999/xlink" x="0px" y="0px"
	 viewBox="0 0 1200 1200" enable-background="new 0 0 1200 1200" xml:space="preserve">
<g>
	<path fill="#F18C3F" d="M327.192,1079.091c-1.384-0.642-2.822-1.188-4.144-1.94c-27.809-15.82-54.015-33.955-78.592-54.434
		c-3.015-2.512-6.005-5.054-8.945-7.652c-1.138-1.006-2.104-2.206-3.147-3.317c0.928-0.415,1.823-1.077,2.788-1.203
		c3.898-0.506,7.818-0.837,11.728-1.25c4.929-0.52,9.867-0.978,14.783-1.607c5.769-0.738,11.526-1.581,17.274-2.467
		c10.667-1.645,21.269-3.616,31.557-6.966c7.49-2.439,14.987-4.866,22.412-7.493c4.993-1.767,9.862-3.886,14.796-5.822
		c2.07-0.812,4.144-1.62,6.253-2.322c4.061-1.351,8.267-2.344,12.193-4.004c4.711-1.992,9.283-4.367,13.735-6.893
		c2.036-1.155,3.718-2.991,5.406-4.673c0.822-0.818,1.454-1.926,1.887-3.016c1.808-4.551-0.569-9.768-5.331-11.085
		c-5.114-1.414-10.393-2.156-15.718-2.168c-15.414-0.034-30.828-0.009-46.242,0.033c-1.876,0.005-3.751,0.252-5.625,0.396
		c-2.385,0.184-4.767,0.524-7.153,0.54c-10.276,0.072-20.553,0.164-30.827,0.031c-10.599-0.138-21.192,0.377-31.803-0.82
		c-7.103-0.801-14.341-0.176-21.503-1.131c-5.411-0.721-10.902-0.825-16.352-1.273c-0.56-0.046-1.082-0.563-2.209-1.187
		c1.607-0.767,2.582-1.423,3.657-1.712c4.134-1.111,8.318-2.036,12.449-3.155c12.392-3.358,24.837-6.544,37.128-10.241
		c9.988-3.004,19.772-6.683,29.667-10.002c13.814-4.633,27.321-10.055,40.389-16.464c13.831-6.783,27.523-13.859,41.128-21.086
		c6.642-3.528,12.993-7.615,19.389-11.587c3.528-2.191,6.548-5.076,8.541-8.73c4.566-8.372,4.512-15.154-2.34-22.518
		c-2.331-2.505-4.783-4.903-7.27-7.255c-3.495-3.304-7.604-5.006-12.519-5.078c-4.893-0.071-9.518,0.927-14.079,2.488
		c-9.724,3.327-19.596,6.176-29.573,8.607c-13.805,3.363-27.671,6.474-41.515,9.676c-5.837,1.35-11.65,2.841-17.534,3.949
		c-10.257,1.931-20.564,3.594-30.843,5.406c-9.945,1.753-19.875,3.591-29.824,5.318c-7.755,1.346-15.514,2.676-23.3,3.826
		c-5.748,0.849-11.544,1.366-17.311,2.086c-9.17,1.144-18.35,2.015-27.612,1.873c-7.363-0.113-14.729-0.022-22.093-0.021
		c-1.14-2.097-2.281-4.194-3.42-6.29c-0.318-0.574-0.637-1.15-0.955-1.725c-5.611-9.268-10.556-18.869-14.499-28.969
		c-0.3-0.611-0.601-1.224-0.902-1.837c-1.964-2.909-3.414-6.048-4.226-9.468c-0.278-0.602-0.557-1.205-0.836-1.808
		c-0.749-1.788-1.498-3.576-2.247-5.362c-0.272-0.607-0.545-1.215-0.818-1.823c-0.423-1.074-0.846-2.148-1.268-3.22
		c-0.285-0.642-0.571-1.285-0.857-1.928c-0.403-1.054-0.805-2.108-1.207-3.161c0.001-1.136,0.001-2.273,0.001-3.773
		c5.055,0.791,9.775-0.08,14.433-0.84c11.818-1.929,23.575-4.235,35.358-6.382c4.378-0.797,8.748-1.647,13.143-2.336
		c9.462-1.484,18.942-2.849,28.407-4.317c13.381-2.076,26.466-5.552,39.631-8.614c10.496-2.442,20.864-5.442,31.273-8.252
		c3.8-1.026,7.56-2.203,11.327-3.346c0.753-0.228,1.723-0.266,1.902-1.758c-0.891-0.179-1.822-0.514-2.758-0.532
		c-8.9-0.166-17.738-1.08-26.565-2.132c-2.377-0.284-4.733-0.747-7.113-1c-4.247-0.452-8.546-0.563-12.747-1.272
		c-4.093-0.691-8.172-0.754-12.278-0.757c-12.672-0.009-25.344,0-38.016-0.005c-1.712-0.001-3.428,0.021-5.135-0.085
		c-2.603-0.161-5.048-0.935-7.287-2.272c-3.47-2.072-3.558-6.378-0.047-8.248c4.129-2.198,8.327-3.859,13.149-3.814
		c12.157,0.114,24.317,0.042,36.475,0.081c1.534,0.005,3.067,0.232,4.6,0.363c2.383,0.204,4.764,0.426,7.147,0.615
		c1.534,0.122,3.08,0.129,4.607,0.307c7.811,0.907,15.605,2.009,23.504,1.768c1.198-0.036,2.401-0.058,3.595,0.01
		c9.604,0.553,19.128-0.859,28.696-1.182c4.262-0.144,8.506-0.781,12.763-1.141c3.573-0.302,7.149-0.588,10.73-0.765
		c3.076-0.152,6.219,0.216,9.228-0.279c4.607-0.758,9.205-0.725,13.823-0.745c4.452-0.019,8.906,0.039,13.357-0.039
		c1.873-0.033,3.771-0.172,5.606-0.53c12.932-2.526,25.853-5.108,38.773-7.698c13.595-2.725,27.144-5.603,40.439-9.636
		c11.464-3.477,23.022-6.664,34.605-9.725c14.405-3.806,28.791-7.618,42.714-13.012c9.909-3.839,19.843-7.701,28.931-13.2
		c13.043-7.893,26.41-15.166,39.863-22.308c2.405-1.277,4.839-2.685,6.842-4.494c3.805-3.438,7.393-7.13,10.909-10.869
		c2.556-2.719,3.781-6.052,3.574-9.859c-0.257-4.736-1.839-6.304-6.674-6.459c-1.198-0.038-2.397-0.015-3.596-0.014
		c-8.22,0.001-16.44,0.013-24.659-0.002c-1.711-0.003-3.427-0.037-5.131-0.171c-7.492-0.588-14.977-1.654-22.472-1.73
		c-11.106-0.113-22.252-0.906-33.332,0.722c-1.346,0.198-2.735,0.135-4.103,0.135c-26.029,0.011-52.059,0.016-78.088,0.008
		c-1.71-0.001-3.427-0.048-5.129-0.202c-6.295-0.57-12.592-1.124-18.874-1.817c-7.475-0.824-14.958-1.631-22.396-2.726
		c-8.802-1.296-17.543-3.007-26.341-4.332c-17.284-2.602-34.37-6.168-51.301-10.453c-10.12-2.561-20.121-5.59-30.219-8.245
		c-14.077-3.702-28.06-7.706-41.815-12.47c-10.212-3.537-19.989-8.082-29.547-13.1c-0.819-0.43-1.473-1.173-2.312-1.859
		c1.011-1.222,2.026-1.052,3.029-0.979c3.575,0.26,7.148,0.593,10.729,0.729c3.249,0.123,6.507,0.081,9.76,0.016
		c9.57-0.192,19.162,0.577,28.704-0.95c6.581-1.053,13.218-1.762,19.827-2.642c6.44-0.857,12.876-1.742,19.316-2.601
		c6.948-0.927,13.928-1.657,20.84-2.802c8.269-1.37,16.512-2.937,24.703-4.71c5.01-1.084,9.91-2.684,14.838-4.125
		c0.887-0.259,2.091-0.365,2.186-2.016c-1.244-0.922-2.809-0.663-4.278-0.667c-7.877-0.022-15.755-0.017-23.632,0.018
		c-1.536,0.007-3.073,0.176-4.608,0.289c-3.065,0.226-6.127,0.583-9.196,0.671c-4.278,0.122-8.562,0.008-12.842,0.072
		c-2.049,0.03-4.096,0.219-6.142,0.367c-2.555,0.184-5.105,0.456-7.662,0.589c-4.12,0.214-8.183-0.575-12.266-0.808
		c-8.544-0.489-16.968-1.991-25.514-2.55c-6.326-0.414-12.634-0.545-18.954-0.724c-2.562-0.073-5.122-0.239-7.68-0.415
		c-2.385-0.164-4.764-0.42-7.149-0.588c-1.706-0.121-3.423-0.1-5.126-0.253c-6.295-0.567-12.589-1.149-18.877-1.786
		c-7.646-0.774-15.287-1.603-22.926-2.446c-0.237-0.026-0.427-0.469-0.866-0.983c0.742-0.603,1.395-1.376,2.228-1.773
		c6.951-3.315,13.917-6.599,20.922-9.797c1.542-0.704,3.228-1.201,4.9-1.497c7.916-1.402,15.835-2.798,23.782-4.007
		c6.76-1.028,13.563-1.771,20.339-2.692c5.593-0.76,11.173-1.61,16.764-2.391c6.941-0.969,13.886-1.916,20.831-2.857
		c8.302-1.126,16.59-2.391,24.916-3.3c5.939-0.649,11.932-0.806,17.901-1.193c0.853-0.055,1.701-0.187,2.554-0.255
		c3.064-0.245,6.125-0.576,9.193-0.691c4.105-0.153,8.27,0.26,12.31-0.294c4.785-0.656,9.547-0.71,14.335-0.772
		c1.539-0.02,3.088-0.04,4.614-0.216c5.094-0.589,10.182-1.238,15.269-1.888c2.205-0.281,4.396-0.821,6.605-0.893
		c6.836-0.223,13.607-1.563,20.477-1.171c0.676,0.039,1.363-0.107,2.044-0.174c5.95-0.592,11.902-1.165,17.849-1.786
		c4.929-0.514,9.871-0.951,14.773-1.658c10.159-1.467,20.3-3.06,30.438-4.664c5.069-0.802,10.166-1.526,15.163-2.668
		c8.839-2.02,17.651-4.186,26.396-6.574c5.604-1.53,11.099-3.484,16.581-5.423c2.077-0.735,4.036-1.871,5.929-3.021
		c0.61-0.371,1.111-1.351,1.171-2.092c0.094-1.164-0.914-1.792-1.919-2.092c-0.972-0.291-2.003-0.436-3.019-0.517
		c-1.192-0.095-2.396-0.068-3.594-0.068c-29.625,0.005-59.251,0.01-88.876,0.03c-1.71,0.001-3.425,0.068-5.128,0.212
		c-6.808,0.577-13.605,1.305-20.421,1.769c-6.99,0.476-13.954,1.466-20.991,1.168c-1.011-0.043-2.033,0.256-3.055,0.351
		c-2.211,0.205-4.423,0.501-6.638,0.541c-4.965,0.091-9.932,0.029-14.898,0.071c-1.709,0.014-3.419,0.125-5.126,0.237
		c-3.578,0.236-7.152,0.565-10.733,0.737c-2.905,0.14-5.884-0.265-8.716,0.229c-5.795,1.01-11.604,0.713-17.414,0.85
		c-2.049,0.048-4.12,0.086-6.137,0.409c-6.138,0.98-12.296,0.533-18.449,0.408c-0.523-0.011-1.034-0.571-2.146-1.228
		c0.863-0.528,1.272-0.842,1.73-1.048c3.591-1.61,7.182-3.219,10.789-4.791c8.943-3.895,17.925-7.7,26.833-11.672
		c8.751-3.902,17.431-7.966,26.143-11.956c0.467-0.214,0.942-0.409,1.417-0.605c9.361-3.882,18.238-8.658,26.598-14.387
		c4.106-2.814,7.946-5.94,11.333-9.604c3.06-3.311,5.52-6.995,6.789-11.349c0.422-1.449,0.827-3.081,0.579-4.515
		c-0.972-5.616-3.475-10.33-8.684-13.254c-3.332-1.87-6.885-3.04-10.643-3.597c-4.737-0.701-9.474-1.41-14.227-1.987
		c-4.071-0.494-8.157-1.028-12.249-1.159c-11.108-0.357-22.224,0.336-33.335-0.953c-8.875-1.03-17.735,1.01-26.629,1.095
		c-0.169,0.002-0.339,0.047-0.508,0.076c-7.251,1.242-14.497,2.509-21.753,3.723c-10.463,1.749-20.925,3.503-31.401,5.173
		c-9.116,1.453-18.198,3.228-27.487,3.263c-0.848,0.003-1.692,0.254-2.542,0.335c-2.211,0.209-4.424,0.545-6.637,0.553
		c-13.699,0.048-27.399,0.028-41.099,0.007c-1.538-0.002-3.076-0.132-4.612-0.235c-3.578-0.241-7.153-0.696-10.732-0.722
		c-13.357-0.098-26.714-0.02-40.071-0.091c-4.271-0.022-8.547-0.266-12.499-2.209c0.34-1.299,0.551-2.649,1.04-3.889
		c2.912-7.381,5.874-14.742,8.862-22.092c0.376-0.924,0.999-1.748,1.508-2.618c7.48-2.408,14.984-4.746,22.431-7.251
		c4.531-1.524,9.075-3.083,13.438-5.019c9.521-4.225,18.974-8.612,28.37-13.11c5.562-2.663,11.248-4.957,17.08-6.938
		c8.25-2.802,16.472-5.69,24.695-8.57c1.123-0.393,2.253-0.843,3.266-1.455c2.309-1.397,2.833-2.845,2.214-5.612
		c-0.178-0.794-0.394-1.58-0.609-2.434c2.188-1.279,4.512-1.213,6.546-2.011c1.56-0.612,3.237-1.258,4.453-2.347
		c2.399-2.148,1.719-5.848-1.167-7.264c-0.908-0.446-1.921-0.736-2.918-0.932c-3.514-0.691-7.036-1.342-10.565-1.95
		c-8.321-1.431-16.752-1.233-25.044-0.451c-12.222,1.153-24.36,3.205-36.529,4.903c-3.381,0.472-6.755,1-10.119,1.583
		c-1.767,0.306-3.399,0.23-4.857-0.926c0.57-1.223,1.006-2.533,1.732-3.656c6.73-10.408,13.504-20.787,20.292-31.157
		c0.455-0.695,1.128-1.248,1.7-1.868c4.298,0.178,8.53-0.219,12.743-1.136c12.044-2.621,24.121-5.09,36.156-7.746
		c5.847-1.29,11.615-2.933,17.448-4.292c7.665-1.786,15.331-3.595,23.051-5.118c5.534-1.092,11.17-1.658,16.739-2.586
		c11.815-1.97,23.644-3.875,35.41-6.106c5.525-1.048,11.103-2.048,16.338-4.376c1.984-0.882,4.287-1.064,6.454-1.519
		c4.016-0.843,8.074-1.518,12.047-2.53c2.206-0.562,4.125-1.847,4.35-4.479c0.169-1.979-1.227-3.554-4.201-4.494
		c-3.261-1.031-6.546-2.081-9.897-2.719c-6.891-1.31-13.848-2.201-20.888-2.195c-9.248,0.008-18.497-0.005-27.745,0.027
		c-1.88,0.007-3.761,0.148-5.638,0.274c-3.237,0.218-6.469,0.6-9.709,0.683c-4.792,0.122-9.59,0.04-14.386,0.05
		c-3.937,0.008-7.859-0.027-11.761,0.797c-2.666,0.563-5.419,0.724-8.138,1.026c-1.039,0.115-2.087,0.115-2.65-1.421
		c0.485-0.673,0.95-1.604,1.665-2.265c3.766-3.48,7.475-7.038,11.424-10.303c14.692-12.15,30.628-22.462,47.501-31.298
		c10.006-5.24,20.125-10.276,30.317-15.145c8.335-3.982,16.811-7.678,25.303-11.318c7.082-3.035,14.467-5.254,21.764-7.719
		c9.427-3.184,19.086-5.448,28.662-8.048c2.475-0.672,5-1.162,7.471-1.848c5.278-1.465,10.494-3.175,15.811-4.476
		c12.971-3.174,25.97-6.237,38.989-9.21c5.672-1.295,11.392-2.434,17.138-3.337c8.447-1.327,16.952-2.287,25.405-3.576
		c8.192-1.249,16.427-0.942,24.596-0.388c4.951,0.336,9.888,0.688,14.847,0.7c9.248,0.023,18.497,0.011,27.745-0.01
		c1.71-0.004,3.467,0.106,5.121-0.234c3.902-0.803,7.835-0.628,11.766-0.784c7.857-0.31,15.709-0.745,23.561-1.164
		c1.019-0.054,2.022-0.419,3.041-0.468c2.557-0.124,5.182-0.534,7.666-0.13c4.265,0.695,8.529,0.548,12.795,0.78
		c4.6,0.25,9.181,0.842,13.766,1.328c0.215,0.023,0.386,0.463,0.577,0.709c-0.189,0.245-0.344,0.664-0.572,0.708
		c-2.349,0.455-4.697,0.962-7.071,1.24c-6.28,0.735-12.575,1.343-18.86,2.037c-13.621,1.503-27.121,3.834-40.477,6.805
		c-15.541,3.458-30.995,7.329-46.412,11.307c-15.747,4.062-31.405,8.466-47.099,12.729c-10.739,2.917-21.461,5.897-32.214,8.759
		c-8.602,2.29-17.23,4.487-25.866,6.65c-8.637,2.164-17.313,4.168-25.94,6.37c-5.417,1.383-10.074,4.03-13.818,8.363
		c-4.71,5.45-6.836,13.281-2.839,20.975c1.779,3.424,4.262,6.41,7.684,8.039c4.513,2.149,9.334,3.138,14.47,1.805
		c7.953-2.065,15.999-3.771,23.967-5.778c14.961-3.769,30.104-6.464,45.458-7.971c4.082-0.401,8.206-0.536,12.238-1.221
		c3.923-0.666,7.832-0.698,11.768-0.746c3.937-0.048,7.918,0.202,11.797-0.307c3.931-0.516,7.835-0.679,11.771-0.686
		c8.049-0.013,16.099-0.015,24.148-0.046c1.711-0.007,3.47,0.113,5.121-0.232c4.242-0.886,8.517-0.706,12.793-0.787
		c2.906-0.055,5.813-0.181,8.715-0.353c2.727-0.162,5.448-0.607,8.173-0.617c16.441-0.059,32.883-0.033,49.324-0.02
		c1.711,0.001,3.426,0.048,5.132,0.173c8.178,0.597,16.355,1.213,24.53,1.852c4.942,0.387,9.882,0.796,14.816,1.271
		c1.355,0.131,2.692,0.504,4.022,0.828c0.632,0.154,1.389,0.296,1.205,1.592c-2.204,0.432-4.513,0.946-6.844,1.332
		C647.22,218.1,631.601,221.95,616.027,226c-10.105,2.628-20.198,5.302-30.321,7.857c-9.462,2.388-18.985,4.537-28.43,6.99
		c-13.256,3.443-26.457,7.098-39.697,10.604c-6.29,1.666-12.64,3.104-18.92,4.806c-16.69,4.522-33.371,9.073-50.026,13.719
		c-19.127,5.336-38.27,10.622-57.315,16.238c-15.453,4.557-31.098,8.276-46.844,11.597c-9.044,1.908-18.162,3.466-27.073,5.97
		c-9.416,2.646-18.596,5.89-27.313,10.395c-3.451,1.783-6.164,4.344-8.422,7.366c-1.094,1.465-1.729,3.318-2.352,5.073
		c-0.48,1.35,0.668,2.494,1.976,2.065c1.787-0.586,3.544-1.275,5.284-1.991c2.849-1.173,5.66-2.436,8.512-3.602
		c10.008-4.092,20.215-7.58,30.911-9.354c6.237-1.035,12.556-1.563,18.802-2.551c12.006-1.899,23.954-4.082,35.514-8.008
		c4.374-1.486,8.821-2.771,13.269-4.023c2.134-0.601,4.338-1.214,6.529-1.289c3.683-0.126,7.089-1.168,10.448-2.449
		c6.581-2.509,13.387-4.202,20.232-5.765c4.506-1.029,9.039-1.934,13.542-2.976c12.018-2.78,24.202-4.606,36.377-6.518
		c6.415-1.008,12.798-2.333,19.108-3.87c9.48-2.309,18.844-5.095,28.334-7.358c5.647-1.347,11.424-2.182,17.171-3.067
		c9.126-1.405,18.275-2.555,27.489-3.357c5.475-0.476,10.917-0.663,16.387-0.713c1.192-0.011,2.423,0.01,3.572,0.282
		c4.467,1.059,5.936,5.703,2.949,9.139c-1.262,1.451-2.773,2.532-4.623,3.118c-2.938,0.931-5.876,1.859-8.806,2.812
		c-4.069,1.323-8.138,2.643-12.192,4.01c-6.814,2.298-13.583,4.731-20.434,6.912c-4.072,1.297-8.206,2.583-12.411,3.244
		c-12.332,1.938-24.69,3.75-37.083,5.236c-7.342,0.88-14.529,2.251-21.61,4.322c-9.857,2.883-19.729,5.72-29.599,8.56
		c-4.935,1.42-9.92,2.679-14.812,4.233c-7.833,2.489-15.649,5.047-23.39,7.806c-4.017,1.432-7.865,3.341-11.764,5.09
		c-0.322,0.144-0.45,0.721-0.949,1.582c1.974-0.272,3.474-0.383,4.932-0.696c15.078-3.231,30.388-4.947,45.648-6.976
		c11.865-1.577,23.745-3.042,35.621-4.538c10.517-1.325,21.039-2.621,31.557-3.939c4.41-0.553,8.814-1.158,13.227-1.688
		c3.735-0.448,7.469-0.977,11.22-1.193c6.314-0.364,12.577-1.528,18.936-1.203c0.843,0.043,1.698-0.195,2.55-0.263
		c2.894-0.231,5.802-0.734,8.683-0.613c9.78,0.41,19.467-1.042,29.214-1.335c4.922-0.148,9.915-0.401,14.825-0.94
		c5.29-0.581,10.563-0.881,15.868-0.961c0.85-0.013,1.695-0.226,2.547-0.306c2.381-0.222,4.763-0.431,7.147-0.628
		c1.704-0.141,3.412-0.231,5.115-0.386c5.955-0.541,11.906-1.144,17.865-1.64c5.621-0.468,11.253-0.8,16.876-1.248
		c3.918-0.312,7.832-0.677,11.74-1.094c5.098-0.544,10.177-1.315,15.285-1.712c6.868-0.534,13.571-1.731,20.077-4.006
		c2.263-0.791,4.559-1.487,6.819-2.287c4.543-1.607,9.217-2.537,13.998-3.127c6.786-0.839,13.543-1.914,20.318-2.853
		c3.047-0.423,6.097-0.949,9.162-1.093c4.1-0.192,8.189-0.108,12.272-0.862c4.888-0.902,9.103,0.813,12.694,4.15
		c1.996,1.855,2.251,4.27,0.542,6.399c-0.737,0.919-1.657,1.755-2.644,2.397c-2.005,1.303-4.071,2.529-6.187,3.643
		c-5.9,3.107-12.123,5.534-17.921,8.894c-8.14,4.717-16.509,9.039-24.769,13.55c-0.707,0.386-1.614,0.703-1.43,2.119
		c0.56,0.055,1.177,0.184,1.788,0.163c3.586-0.125,7.17-0.34,10.757-0.414c2.259-0.046,4.447,0.478,6.39,1.655
		c2.55,1.545,3.024,4.886,0.985,7.077c-0.802,0.862-1.771,1.704-2.834,2.162c-2.818,1.213-5.688,2.336-8.61,3.267
		c-5.217,1.662-10.497,3.126-15.733,4.732c-3.274,1.004-6.466,2.311-9.782,3.131c-4.534,1.121-8.738,2.944-12.879,5.034
		c-5.807,2.932-11.684,5.726-17.52,8.601c-4.448,2.191-8.931,4.32-13.307,6.648c-9.678,5.149-19.383,10.264-29.655,14.121
		c-12.98,4.873-26.068,9.46-39.124,14.129c-11.159,3.99-21.898,8.964-32.137,14.845c-11.862,6.813-23.351,14.276-34.985,21.483
		c-0.863,0.534-1.658,1.219-2.37,1.946c-1.226,1.253-1.554,2.685-0.971,3.698c0.705,1.226,1.938,1.271,3.136,1.35
		c0.682,0.045,1.377,0.1,2.053,0.026c4.586-0.499,9.211-0.793,13.745-1.596c14.661-2.6,29.306-5.3,43.924-8.132
		c17.141-3.321,34.254-6.788,51.366-10.259c7.045-1.429,14.053-3.039,21.081-4.557c4.682-1.011,9.435-1.768,14.034-3.067
		c5.112-1.445,10.126-1.479,15.197-0.167c0.901,0.233,1.718,0.792,2.565,1.196c-0.596,1.97-0.986,3.64-1.604,5.221
		c-1.412,3.612-3.408,6.419-7.583,7.624c-5.412,1.562-10.656,3.743-15.905,5.827c-12.316,4.891-25.065,8.008-38.143,10.079
		c-9.459,1.498-18.868,3.378-28.008,6.391c-9.268,3.055-18.571,6.003-27.873,8.955c-3.263,1.036-6.572,1.923-9.844,2.933
		c-0.553,0.171-1.022,0.616-2.292,1.413c1.773,0.352,2.701,0.654,3.643,0.704c4.463,0.24,8.864-0.502,13.294-0.822
		c7.359-0.532,14.601-1.777,21.873-2.835c14.73-2.142,29.445-4.38,44.155-6.653c9.806-1.515,19.644-2.891,29.374-4.809
		c13.258-2.613,26.421-5.705,39.637-8.531c1.812-0.387,3.83-0.94,5.518-0.506c2.328,0.598,4.499,1.37,6.977,0.963
		c1.293-0.212,2.221,0.947,2.136,2.301c-0.053,0.849-0.375,1.69-0.367,2.532c0.036,3.655-1.812,5.998-4.859,7.806
		c-3.123,1.853-5.468,4.608-7.745,7.417c-1.39,1.714-2.83,3.514-4.609,4.763c-6.298,4.419-12.629,8.815-19.178,12.846
		c-7.282,4.482-14.772,8.636-22.254,12.785c-7.032,3.899-14.036,7.89-21.294,11.331c-11.75,5.57-23.283,11.622-35.415,16.37
		c-8.926,3.493-17.794,7.142-26.779,10.476c-7.857,2.915-15.855,5.45-23.766,8.223c-7.103,2.49-14.174,5.073-21.258,7.618
		c-8.377,3.01-16.747,6.04-25.131,9.03c-7.897,2.816-15.706,5.939-23.737,8.303c-11.654,3.431-23.506,6.181-35.21,9.449
		c-8.571,2.393-17.09,5.026-25.127,8.934c-2.455,1.194-4.835,2.569-7.136,4.039c-1.083,0.692-2.332,1.541-2.011,3.535
		c0.947,0,1.906,0.104,2.836-0.019c3.045-0.404,6.083-0.862,9.116-1.352c6.748-1.09,13.607-1.205,20.324-2.742
		c7.341-1.68,14.878-2.14,22.413-2.324c10.769-0.263,21.577,0.722,32.303-0.975c0.503-0.08,1.028-0.066,1.539-0.032
		c8.149,0.54,15.969-1.537,23.875-2.961c8.25-1.486,16.499-2.981,24.775-4.307c4.045-0.648,8.149-0.934,12.228-1.362
		c5.438-0.57,10.875-1.166,16.32-1.663c5.106-0.466,10.266-0.532,15.321-1.306c4.614-0.706,9.207-0.657,13.822-0.768
		c2.733-0.066,5.465-0.244,8.193-0.428c2.215-0.149,4.426-0.377,6.637-0.581c2.211-0.203,4.438-0.311,6.629-0.648
		c9.638-1.485,19.261-3.068,28.898-4.556c8.452-1.305,16.903-2.631,25.38-3.758c7.117-0.946,14.291-1.469,21.4-2.468
		c4.425-0.622,8.905-0.483,13.278-1.091c6.496-0.904,12.976-0.712,19.472-0.825c5.182-0.09,10.237,0.804,15.218,2.063
		c2.305,0.582,4.598,1.441,6.7,2.546c4.406,2.316,4.609,5.776,0.625,8.726c-2.755,2.041-5.651,3.846-8.903,5.056
		c-1.578,0.587-3.341,1.064-4.265,2.677c-2.589,4.523-6.949,6.998-11.159,9.59c-4.831,2.974-10.1,5.029-15.498,6.752
		c-5.064,1.616-10.008,3.481-14.639,6.166c-2.806,1.627-5.749,3.083-8.765,4.275c-13.374,5.286-26.809,10.4-40.739,14.103
		c-3.128,0.832-6.14,2.126-9.161,3.321c-5.408,2.141-10.716,4.556-16.195,6.491c-3.477,1.228-6.482,2.888-9.129,5.469
		c-6.487,6.327-12.414,13.241-19.636,18.811c-0.696,0.537-0.993,1.591-1.832,3.008c1.659-0.132,2.658-0.05,3.557-0.31
		c4.276-1.235,8.555-2.471,12.778-3.872c17.092-5.67,34.48-10.203,52.241-13.155c4.508-0.749,9.204-0.453,13.814-0.458
		c2.03-0.002,3.628,1.099,4.227,3.149c0.672,2.301,0.354,4.474-1.626,6.043c-1.06,0.839-2.271,1.562-3.521,2.075
		c-8.394,3.445-16.787,6.876-25.657,9.011c-6.655,1.601-13.365,3.136-19.817,5.375c-10.669,3.703-21.113,8.045-31.718,11.936
		c-9.057,3.323-17.501,7.73-25.53,13.064c-5.561,3.694-11.503,6.738-17.731,9.245c-3.641,1.465-7.084,3.427-10.579,5.237
		c-0.492,0.255-0.775,0.914-1.624,1.97c1.844,0.054,2.971,0.222,4.065,0.096c7.472-0.857,14.944-1.726,22.403-2.69
		c6.953-0.898,13.899-1.854,20.83-2.905c6.428-0.975,12.813-2.244,19.251-3.143c7.617-1.063,15.273-1.846,22.907-2.791
		c9.164-1.135,18.318-2.345,27.484-3.459c4.411-0.536,8.837-0.956,13.261-1.373c6.293-0.592,12.591-1.133,18.887-1.696
		c2.382-0.213,4.763-0.427,7.145-0.641c5.277-0.473,10.553-0.95,15.83-1.418c2.722-0.241,5.46-0.355,8.164-0.725
		c3.634-0.498,7.173-0.258,10.661,0.836c2.472,0.775,4.198,2.314,4.673,4.94c0.474,2.618-0.439,4.859-2.641,6.232
		c-2.156,1.343-4.471,2.625-6.894,3.305c-4.272,1.198-8.65,2.097-13.036,2.793c-6.078,0.965-12.216,1.549-18.308,2.437
		c-13.373,1.95-26.732,3.994-40.098,5.988c-3.551,0.53-7.146,0.83-10.654,1.562c-11.225,2.341-22.408,4.88-33.625,7.256
		c-12.239,2.592-24.312,5.811-36.256,9.504c-13.086,4.047-26.234,7.854-39.487,11.333c-10.261,2.693-20.423,5.785-30.557,8.929
		c-6.536,2.028-12.88,4.68-19.423,6.682c-12.438,3.807-24.839,7.736-37.484,10.865c-10.133,2.508-20.148,5.49-30.209,8.286
		c-0.807,0.224-1.619,0.554-2.311,1.013c-0.302,0.2-0.306,0.848-0.438,1.267c0.43,0.229,0.752,0.56,1.016,0.519
		c5.978-0.929,11.926-0.714,17.865,0.339c0.5,0.089,1.025,0.046,1.539,0.047c6.851,0.009,13.701,0.047,20.552,0
		c1.702-0.012,3.403-0.3,5.104-0.461c6.464-0.61,12.872-1.698,19.413-1.604c10.445,0.151,20.897,0.195,31.34-0.004
		c6.83-0.13,13.692-0.437,20.461-1.286c4.965-0.623,9.895-0.625,14.851-0.733c2.737-0.059,5.485-0.033,8.207-0.278
		c5.445-0.49,10.877-1.131,16.313-1.727c5.266-0.578,10.532-1.153,15.793-1.776c6.283-0.745,12.558-1.552,18.839-2.312
		c7.637-0.924,15.278-1.811,22.914-2.745c6.28-0.768,12.539-1.749,18.836-2.323c6.464-0.59,12.963-0.8,19.447-1.178
		c0.854-0.05,1.724-0.027,2.559-0.184c7.992-1.504,16.057-0.658,24.088-0.702c1.815-0.01,3.703,0.629,5.433,1.293
		c1.836,0.704,2.274,2.797,0.837,4.204c-1.313,1.285-2.851,2.564-4.534,3.209c-5.912,2.264-11.899,4.346-17.917,6.314
		c-3.575,1.169-7.214,2.257-10.907,2.922c-7.406,1.334-14.884,2.265-22.304,3.529c-6.406,1.09-12.906,1.945-19.13,3.723
		c-14.318,4.089-28.542,8.527-42.716,13.099c-16.453,5.307-32.872,10.707-48.698,17.787c-9.523,4.26-19.376,7.781-28.972,11.888
		c-4.707,2.014-9.185,4.572-13.724,6.964c-0.834,0.44-1.855,1.089-0.952,2.709c1.165,0.029,2.559,0.332,3.82,0.048
		c4.405-0.992,8.858-0.715,13.302-0.814c2.393-0.053,4.785-0.19,7.174-0.347c2.727-0.179,5.448-0.595,8.173-0.61
		c13.187-0.071,26.375,0.003,39.562-0.082c3.237-0.021,6.482-0.359,9.705-0.716c3.792-0.421,7.525-0.367,11.185,0.785
		c0.802,0.253,1.597,0.619,2.3,1.079c1.242,0.814,1.522,2.488,0.506,3.573c-0.922,0.984-1.948,2.01-3.138,2.574
		c-2.306,1.093-4.714,2.031-7.165,2.744c-2.788,0.812-5.652,1.401-8.513,1.923c-5.379,0.982-10.671,2.409-16.203,2.602
		c-4.432,0.155-8.852,0.762-13.268,1.25c-4.417,0.488-8.826,1.059-13.233,1.628c-5.255,0.679-10.547,1.171-15.748,2.144
		c-10.098,1.89-20.151,4.047-29.757,7.821c-5.253,2.064-10.564,4.029-15.652,6.45c-6.641,3.16-13.216,6.504-19.579,10.183
		c-5.92,3.422-11.532,7.377-17.267,11.116c-6.898,4.497-14.047,8.49-21.743,11.512c-9.239,3.627-18.41,7.426-27.577,11.232
		c-1.655,0.687-3.657,0.962-4.947,3.099c0.905,0.429,1.571,0.951,2.298,1.058c11.168,1.648,22.31,3.582,33.532,4.722
		c6.939,0.705,14.011,0.4,21.009,0.14c4.938-0.184,9.849-1.073,14.776-1.608c3.568-0.388,7.139-0.763,10.716-1.052
		c5.622-0.454,11.263-0.704,16.872-1.272c8.161-0.827,16.292-1.96,24.454-2.779c7.822-0.784,15.593-1.956,23.464-2.445
		c4.947-0.307,9.885-0.699,14.845-0.716c7.193-0.025,14.387,0.061,21.579-0.031c5.033-0.064,9.859,1.02,14.669,2.268
		c0.981,0.254,1.962,0.661,2.825,1.19c4.851,2.973,4.49,6.92,0.306,9.046c-2.106,1.07-3.499,2.629-4.278,4.855
		c-0.588,1.679-1.847,2.894-3.375,3.741c-2.238,1.24-4.451,2.604-6.833,3.487c-3.685,1.367-7.469,2.507-11.273,3.507
		c-12.586,3.305-25.197,6.517-37.804,9.741c-13.62,3.482-26.978,7.751-40.02,13.013c-11.112,4.482-22.22,8.979-33.408,13.266
		c-10.879,4.168-21.594,8.678-32.038,13.846c-5.518,2.731-11.125,5.283-16.709,7.878c-5.77,2.681-11.09,6.055-16.205,9.844
		c-7.424,5.499-14.883,10.978-22.6,16.051c-13.727,9.022-27.468,18.039-41.761,26.169c-1.084,0.617-2.918,1.03-2.318,2.797
		c0.458,1.348,2.048,0.903,3.197,0.996c0.851,0.068,1.712,0.003,2.568,0.025c5.998,0.156,11.948-0.45,17.922-0.872
		c5.135-0.362,10.219-0.934,15.278-1.75c13.849-2.232,27.669-4.666,41.771-4.593c0.683,0.004,1.373-0.029,2.05-0.118
		c6.611-0.867,13.199-2.03,19.837-2.543c5.957-0.46,11.97-0.297,17.956-0.231c2.422,0.027,4.251,1.461,5.067,3.737
		c0.86,2.399-0.16,4.497-2.081,5.861c-2.069,1.469-4.307,2.863-6.679,3.715c-10.807,3.885-21.917,6.731-33.112,9.278
		c-8.561,1.948-17.325,1.92-25.988,2.796c-9.728,0.983-19.4,2.199-28.837,4.706c-13.593,3.613-27.333,6.32-41.307,7.92
		C332.106,1077.522,329.666,1078.455,327.192,1079.091z M433.272,421.742c0.871-0.151,1.706-0.334,2.552-0.436
		c3.894-0.471,7.782-1.146,11.691-1.307c3.433-0.142,6.812-0.448,10.154-1.186c10.255-2.264,20.05-5.595,28.584-12.003
		c1.608-1.207,3.602-1.904,5.421-2.829c0.905-0.46,1.849-0.852,2.715-1.375c0.71-0.429,0.722-1.691,0.094-2.242
		c-0.254-0.223-0.515-0.49-0.821-0.594c-2.029-0.692-2.955-2.083-3.049-4.226c-0.231-5.234-3.608-8.465-7.781-10.638
		c-4.431-2.307-9.43-3.254-14.424-2.8c-11.015,1.001-21.372,4.339-31.133,9.539c-2.47,1.316-4.411,3.163-6.044,5.413
		c-3.219,4.439-5.396,9.427-7.665,14.364c-1.204,2.62-0.646,4.918,1.344,7.027C427.219,420.897,430.215,421.34,433.272,421.742z"/>
	<path fill="#EB673F" d="M425.826,1122.202c-2.467-0.675-4.98-1.219-7.395-2.046c-20.567-7.042-40.693-15.172-60.28-24.61
		c-1.527-0.736-2.949-1.689-4.42-2.542c1.718-8,7.117-10.966,15.354-11.805c0.34-0.035,0.687,0.007,1.027-0.027
		c5.949-0.59,11.916-1.043,17.841-1.813c9.16-1.189,18.298-2.496,27.573-2.311c4.107,0.082,8.218,0.13,12.27-0.816
		c0.984-0.23,2.046-0.117,3.071-0.19c5.625-0.402,11.273-0.609,16.868-1.267c10.189-1.197,20.346-2.656,30.515-4.023
		c1.695-0.228,3.372-0.602,5.07-0.801c9.846-1.153,19.712-2.151,29.539-3.444c7.966-1.048,15.885-2.455,23.83-3.67
		c17.281-2.643,34.315-6.44,51.124-11.193c12.847-3.633,25.614-7.552,38.403-11.391c2.95-0.885,5.853-1.934,8.751-2.981
		c0.532-0.192,0.936-0.741,1.756-1.421c-2.74-1.349-5.092-0.849-7.396-0.566c-9.498,1.166-18.947,2.818-28.563,2.79
		c-0.854-0.003-1.737-0.012-2.556,0.188c-4.048,0.988-8.165,0.802-12.271,0.806c-8.563,0.009-17.128-0.106-25.69,0.035
		c-11.655,0.191-23.241-0.549-34.788-2.052c-2.714-0.353-5.429-0.701-8.135-1.107c-7.089-1.063-14.243-1.619-21.096-4.125
		c-6.035-2.207-10.851-5.675-14.367-11.028c-1.406-2.141-1.816-4.452-1.267-6.87c0.827-3.644,2.573-6.667,6.165-8.346
		c2.979-1.393,6.011-2.464,9.357-2.433c9.829,0.091,19.409-1.925,28.95-3.85c8.734-1.762,17.508-3.139,26.307-4.466
		c6.593-0.994,13.182-2.142,19.678-3.633c10.506-2.412,20.932-5.172,31.396-7.769c14.644-3.635,28.839-8.688,43.063-13.644
		c4.201-1.464,8.399-2.96,12.51-4.655c6.002-2.475,11.852-5.324,17.892-7.695c16.428-6.449,32.02-14.737,48.211-21.704
		c1.563-0.673,2.988-1.663,4.495-2.473c1.203-0.647,2.425-1.259,3.652-1.86c3.99-1.955,8.108-3.687,11.954-5.892
		c7.272-4.168,14.916-7.632,21.989-12.199c7.178-4.634,14.75-8.656,22.116-13.003c3.979-2.348,7.903-4.79,11.824-7.233
		c3.631-2.263,7.236-4.567,10.826-6.893c0.87-0.564,1.695-1.266,0.817-2.729c-0.833-0.126-1.83-0.42-2.82-0.398
		c-2.218,0.05-4.439,0.195-6.648,0.414c-4.931,0.488-9.848,1.129-14.785,1.551c-5.789,0.495-11.615,0.618-17.382,1.277
		c-7.646,0.874-15.251,2.079-22.982,1.898c-0.849-0.02-1.708,0.118-2.554,0.237c-6.434,0.906-12.849,2.003-19.389,1.801
		c-1.02-0.032-2.047,0.142-3.07,0.223c-7.491,0.596-14.982,1.196-22.473,1.786c-0.511,0.04-1.027-0.003-1.541,0.01
		c-5.827,0.149-11.603-0.416-17.405-0.901c-6.63-0.555-13.299-0.334-19.972-0.944c-7.667-0.701-15.28-1.8-22.928-2.607
		c-3.534-0.373-7.021-1.511-10.434-2.602c-2.967-0.948-5.526-2.661-7.35-5.329c-3.036-4.444-2.417-9.421,1.918-12.682
		c1.888-1.42,4.044-2.715,6.283-3.39c5.402-1.63,10.856-3.295,16.411-4.165c12.324-1.93,24.66-3.909,37.162-4.441
		c1.336-0.057,2.685-0.49,3.962-0.936c0.523-0.183,0.871-0.863,1.542-1.575c-0.944-0.648-1.571-1.192-2.291-1.55
		c-2.145-1.068-4.343-2.028-6.489-3.094c-5.803-2.884-10.415-7.116-14.076-12.44c-1.16-1.688-2.489-3.259-3.701-4.913
		c-0.705-0.961-1.564-1.898-1.949-2.988c-0.946-2.681-2.755-4.658-4.644-6.674c-4.377-4.672-3.596-10.323,1.801-13.86
		c0.571-0.374,1.198-0.662,1.797-0.994c3.947-2.186,8.227-3.394,12.636-4.134c10.292-1.728,20.609-3.262,31.085-3.26
		c0.683,0,1.389,0,2.045-0.161c4.045-0.994,8.162-0.802,12.268-0.836c1.711-0.014,3.427-0.042,5.131-0.176
		c7.491-0.592,14.97-1.564,22.47-1.753c8.752-0.221,17.39-1.459,26.026-2.495c11.031-1.323,21.974-3.44,32.913-5.442
		c15.824-2.897,31.61-6.004,47.414-9.012c20.17-3.839,40.346-7.653,60.512-11.512c7.728-1.479,15.439-3.043,23.154-4.588
		c13.092-2.621,26.195-5.189,39.26-7.936c3.155-0.663,6.297-1.685,9.228-3.018c2.291-1.043,4.45-2.606,6.302-4.33
		c2.606-2.427,1.859-5.116-1.473-6.188c-1.138-0.366-2.308-0.69-3.489-0.856c-5.415-0.763-10.836-2.036-16.262-2.07
		c-11.962-0.076-23.965-1.048-35.896,0.73c-0.842,0.125-1.71,0.073-2.564,0.126c-6.14,0.385-12.279,0.775-18.419,1.169
		c-0.341,0.022-0.678,0.105-1.018,0.13c-3.405,0.257-6.807,0.642-10.217,0.728c-4.964,0.126-9.933-0.002-14.899,0.059
		c-1.876,0.023-3.749,0.264-5.622,0.42c-2.213,0.184-4.424,0.387-6.636,0.577c-5.618,0.483-11.252,0.825-16.848,1.485
		c-4.923,0.58-9.803,1.522-14.706,2.28c-0.668,0.103-1.378,0.175-2.03,0.056c-0.432-0.079-0.983-0.449-1.14-0.829
		c-0.157-0.38-0.06-1.161,0.223-1.375c1.349-1.023,2.734-2.033,4.222-2.831c12.393-6.639,25.446-11.829,38.348-17.349
		c7.864-3.364,15.753-6.67,23.619-10.031c6.766-2.891,13.525-5.8,20.269-8.743c4.235-1.848,8.497-3.648,12.641-5.684
		c26.121-12.829,52.248-25.648,78.293-38.63c8.112-4.043,15.997-8.543,23.95-12.901c7.052-3.865,14.111-7.722,21.061-11.766
		c8.134-4.732,16.163-9.645,24.216-14.515c2.196-1.328,4.388-2.684,6.45-4.206c5.069-3.743,6.802-9.566,4.709-15.509
		c-1.706-4.844-5.141-7.854-9.894-9.722c-8.581-3.371-17.448-3.07-26.35-2.359c-4.937,0.395-9.837,1.262-14.775,1.612
		c-6.305,0.447-12.575,1.545-18.932,1.178c-0.339-0.02-0.692,0.007-1.022,0.085c-5.236,1.239-10.563,0.775-15.861,0.882
		c-2.223,0.045-4.446,0.139-6.665,0.283c-3.237,0.21-6.466,0.58-9.705,0.708c-4.104,0.163-8.269-0.236-12.308,0.323
		c-4.274,0.591-8.518,0.703-12.794,0.729c-4.281,0.026-8.639-0.446-12.826,0.193c-7.008,1.068-14.006,0.669-21.011,0.848
		c-1.879,0.048-3.758,0.185-5.633,0.322c-2.895,0.211-5.783,0.577-8.681,0.662c-5.809,0.171-11.648-0.346-17.402,0.927
		c-0.822,0.182-1.709,0.057-2.561,0.124c-5.451,0.432-10.907,0.813-16.349,1.341c-4.931,0.478-9.845,1.135-14.769,1.689
		c-8.491,0.956-16.98,1.93-25.477,2.823c-4.928,0.518-9.867,0.959-14.809,1.318c-6.306,0.459-12.621,0.79-18.93,1.205
		c-0.849,0.056-1.682,0.334-2.531,0.421c-4.93,0.503-9.862,0.984-14.795,1.465c-2.38,0.232-4.764,0.418-7.14,0.676
		c-4.789,0.521-9.549,0.708-14.276-0.568c-1.899-0.512-3.437-1.478-4.718-2.926c-2.145-2.423-2.436-4.888-0.345-7.404
		c1.387-1.669,3.168-3.155,5.053-4.232c2.661-1.52,5.589-2.568,8.39-3.847c12.971-5.924,26.429-10.435,40.303-13.679
		c4.911-1.148,9.292-3.344,13.689-5.689c7.247-3.864,14.519-7.712,21.971-11.154c9.474-4.375,19.129-8.359,28.723-12.473
		c8.65-3.709,17.303-7.413,25.992-11.031c6.319-2.631,12.701-5.109,19.045-7.681c1.104-0.448,2.198-0.953,3.216-1.565
		c0.581-0.349,0.932-0.982,0.143-1.91c-1.165,0.136-2.513,0.201-3.822,0.465c-2.517,0.508-4.986,1.287-7.518,1.677
		c-13.862,2.136-27.508,5.569-41.536,6.723c-6.638,0.546-13.253,1.321-19.898,1.854c-6.333,0.507-12.553,0.667-18.886-0.003
		c-3.896-0.413-7.826-0.557-11.728-1.13c-5.774-0.849-11.412-2.231-17.018-3.799c-1.701-0.476-3.173-1.143-4.107-2.787
		c-1.731-3.049-1.671-5.85,0.991-8.42c2.061-1.99,4.471-3.821,7.051-5.03c5.258-2.465,10.604-4.901,16.149-6.561
		c11.64-3.485,23.424-6.493,35.165-9.637c11.415-3.057,23.015-5.204,34.646-7.287c11.283-2.021,22.501-4.509,33.619-7.303
		c9.62-2.418,19.064-5.54,28.578-8.379c3.444-1.028,6.903-2.028,10.287-3.232c10.483-3.729,20.953-7.495,31.39-11.35
		c9.794-3.618,19.578-7.27,29.292-11.097c5.727-2.256,11.355-4.783,16.945-7.367c6.368-2.944,12.648-6.081,18.957-9.152
		c0.611-0.298,1.191-0.683,1.732-1.097c2.967-2.269,3.565-4.582,2.096-8.115c-1.358-3.266-3.534-5.847-6.61-7.615
		c-6.284-3.611-13.104-4.721-20.255-4.276c-2.219,0.138-4.443,0.186-6.664,0.293c-1.879,0.091-3.758,0.183-5.635,0.316
		c-3.066,0.218-6.125,0.593-9.193,0.677c-4.792,0.131-9.655-0.412-14.369,0.218c-6.326,0.845-12.64,0.571-18.951,0.915
		c-4.937,0.269-9.897,0.816-14.75,1.744c-6.552,1.254-13.013,2.99-19.511,4.523c-11.997,2.831-23.96,5.819-35.998,8.46
		c-17.724,3.889-35.493,7.578-53.265,11.244c-3.842,0.792-7.766,1.441-11.674,1.598c-6.498,0.261-13.018,0.223-19.519,0.007
		c-3.221-0.107-6.463-0.703-9.615-1.426c-2.884-0.662-5.317-2.33-7.255-4.617c-3.49-4.121-3.473-9.495,0.074-13.55
		c2.384-2.725,5.072-5.146,8.296-6.807c6.087-3.136,12.122-6.429,18.424-9.075c7.776-3.265,15.059-7.445,22.217-11.746
		c8.199-4.927,15.811-10.822,23.747-16.195c7.792-5.275,15.386-10.856,23.68-15.37c3.454-1.88,6.82-3.927,10.168-5.993
		c0.993-0.613,1.816-1.52,2.651-2.358c0.172-0.172,0.153-0.678,0.038-0.951c-0.111-0.263-0.48-0.619-0.705-0.599
		c-1.181,0.105-2.366,0.254-3.526,0.5c-19.255,4.073-38.492,8.225-57.763,12.222c-10.559,2.19-21.169,4.131-31.76,6.168
		c-7.898,1.519-15.81,2.964-23.697,4.535c-3.69,0.735-7.34,1.675-11.003,2.548c-3.328,0.793-6.65,1.616-9.973,2.431
		c-7.612,1.869-15.061,0.469-22.258-1.768c-8.063-2.505-11.32-11.633-7.068-18.789c1.3-2.187,2.824-4.385,4.71-6.053
		c5.528-4.889,11.481-9.21,18.606-11.587c11.688-3.899,23.375-7.805,35.072-11.678c8.686-2.876,16.74-6.953,24.039-12.486
		c5.314-4.028,10.564-8.143,15.946-12.079c5.801-4.242,11.751-8.28,17.584-12.478c11.81-8.501,23.864-16.642,36.185-24.384
		c3.912-2.458,7.859-4.872,11.887-7.133c14.326-8.041,28.614-16.145,42.522-24.898c1.007-0.634,2.036-1.275,2.896-2.082
		c0.397-0.372,0.409-1.153,0.579-1.692c-1.747-1.238-3.221-0.376-4.672-0.075c-6.536,1.358-13.025,2.98-19.601,4.095
		c-10.624,1.8-21.3,3.295-31.96,4.885c-10.168,1.516-20.163,3.879-30.208,6.009c-8.873,1.882-17.781,3.602-26.668,5.417
		c-14.913,3.044-29.737,6.614-45.001,7.586c-1.019,0.065-2.021,0.361-3.037,0.508c-6.378,0.922-12.649,0.337-18.778-1.56
		c-1.604-0.496-3.224-1.264-4.55-2.28c-7.167-5.488-7.806-15.699-1.453-22.125c2.325-2.352,5.067-3.933,8.321-4.831
		c8.138-2.246,16.514-2.812,24.836-3.708c3.279-0.353,5.983-1.419,7.945-4.054c4.3-5.774,10.148-9.656,16.363-12.913
		c8.795-4.609,17.963-8.432,27.272-11.912c3.847-1.438,7.619-3.076,11.417-4.643c9.175-3.784,18.345-7.579,27.516-11.371
		c2.684-1.11,5.389-2.173,8.037-3.363c1.022-0.459,1.025-2.039,0.018-2.522c-2.003-0.96-4.029-1.904-6.121-2.639
		c-5.003-1.756-10.041-3.412-15.08-5.063c-12.079-3.958-24.499-6.356-37.051-8.214c-11.17-1.653-22.32-3.443-33.457-5.305
		c-8.607-1.439-17.182-3.048-25.957-3.035c-1.021,0.001-2.042-0.198-3.065-0.283c-2.893-0.239-5.785-0.645-8.68-0.666
		c-10.789-0.081-21.579-0.018-32.369-0.05c-2.05-0.006-4.101-0.161-6.148-0.307c-2.895-0.206-5.785-0.48-8.679-0.701
		c-1.365-0.104-2.742-0.077-4.098-0.239c-4.922-0.585-9.836-1.242-14.757-1.839c-7.86-0.954-15.518-2.658-22.762-5.959
		c-3.884-1.77-6.861-4.674-8.841-8.281c-3.661-6.666,0.344-15.551,8.042-18.292c1.913-0.681,3.985-0.979,6.011-1.268
		c6.433-0.918,12.903-1.596,19.313-2.65c9.792-1.61,19.529-3.554,29.32-5.169c6.071-1.001,12.186-1.798,18.307-2.424
		c5.947-0.609,11.886-1.491,17.904-1.194c1.009,0.05,2.033-0.26,3.054-0.353c2.381-0.215,4.764-0.543,7.148-0.567
		c7.535-0.078,15.079,0.166,22.603-0.129c3.792-0.149,7.469-0.135,11.113,0.926c5.736,2.002,11.073,4.799,16.169,8.075
		c3.351,3.354,7.74,4.784,12.005,6.444c0.452,0.241,0.903,0.483,1.353,0.722c1.398,2.142,3.639,2.801,5.937,3.361
		c0.417,0.23,0.834,0.459,1.25,0.687c1.342,2.186,3.598,2.821,5.864,3.439c0.446,0.255,0.893,0.51,1.337,0.762
		c0.785,1.477,2.188,1.995,3.687,2.366c0.257,0.212,0.436,0.477,0.534,0.79c1.527,0.762,3.057,1.529,4.587,2.296
		c0.26,0.219,0.445,0.489,0.55,0.806c0.754,0.429,1.51,0.862,2.267,1.296c0.577,0.199,1.154,0.398,1.729,0.595
		c0.745,1.518,2.158,2.046,3.656,2.445c0.193,0.279,0.387,0.559,0.577,0.834c0.849,0.4,1.702,0.804,2.554,1.208
		c0.249,0.208,0.419,0.467,0.507,0.772c0.756,0.449,1.516,0.902,2.276,1.355c0.255,0.223,0.511,0.447,0.763,0.667
		c0.781,0.461,1.564,0.925,2.347,1.389c0.337,0.099,0.578,0.308,0.719,0.625c0.773,0.474,1.549,0.952,2.325,1.429
		c0.258,0.22,0.515,0.441,0.77,0.658c0.877,0.438,1.757,0.88,2.637,1.321c0.237,0.201,0.392,0.453,0.46,0.751
		c2.155,1.48,4.313,2.964,6.471,4.449c0.327,0.094,0.559,0.297,0.691,0.606c0.766,0.483,1.535,0.97,2.305,1.456
		c0.273,0.245,0.545,0.49,0.816,0.732c1.122,0.78,2.246,1.563,3.37,2.346c0.334,0.107,0.57,0.321,0.706,0.64
		c1.142,0.808,2.285,1.62,3.429,2.431c0.318,0.089,0.54,0.287,0.661,0.589c1.146,0.828,2.295,1.66,3.443,2.492
		c0.322,0.094,0.546,0.297,0.67,0.604c1.135,0.824,2.272,1.651,3.409,2.479c0.341,0.121,0.583,0.347,0.723,0.676
		c1.503,1.314,2.746,3.03,4.964,3.269c0.378,0.292,0.756,0.584,1.132,0.874c0.726,1.834,2.04,2.944,4.017,3.23
		c0.374,0.299,0.748,0.597,1.121,0.893c0.713,1.791,2.001,2.896,3.915,3.248c0.749,0.609,1.498,1.217,2.246,1.824
		c0.995,2.239,2.543,3.835,5.052,4.305c0.373,0.311,0.747,0.622,1.119,0.93c1.349,2.482,3.115,4.496,5.982,5.259
		c1.089,0.965,2.178,1.93,3.265,2.893c2.382,3.49,4.944,6.789,9.07,8.404c2.115,2.001,4.23,4.002,6.344,6.001
		c3.476,4.831,7.644,8.976,12.466,12.468c2.004,2.113,4.008,4.226,6.011,6.338c1.611,4.115,4.924,6.661,8.389,9.066
		c0.633,0.73,1.265,1.46,1.897,2.189c0.749,2.908,2.774,4.695,5.315,6.028c0.624,0.736,1.247,1.472,1.87,2.206
		c0.514,2.419,2.093,3.936,4.229,4.982c0.304,0.389,0.608,0.779,0.911,1.167c0.342,1.956,1.462,3.265,3.311,3.968
		c0.276,0.355,0.551,0.711,0.826,1.065c-0.031,0.705-0.061,1.411-0.091,2.117c-4.69,0.967-9.385,1.917-14.071,2.906
		c-8.766,1.85-17.21,4.835-25.013,9.09c-8.544,4.66-16.676,10.098-24.842,15.419c-6.731,4.385-13.184,9.194-19.886,13.625
		c-4.276,2.827-8.791,5.292-13.18,7.949c-5.85,3.541-5.968,9.332-0.268,13.117c0.707,0.469,1.477,0.939,2.284,1.142
		c2.144,0.54,4.306,1.168,6.494,1.342c5.696,0.452,11.238-0.509,16.701-2.155c8.26-2.489,15.834-6.452,23.277-10.679
		c11.632-6.606,23.725-12.237,36.209-16.992c9.272-3.532,18.694-6.668,28.034-10.025c1.108-0.398,2.116-1.075,3.17-1.623
		c0.896,1.003,1.946,1.907,2.664,3.024c6.776,10.545,13.511,21.117,20.209,31.712c0.712,1.126,1.114,2.447,1.659,3.678
		c-1.378,0.687-2.835,1.251-4.12,2.082c-6.22,4.02-13.089,6.73-19.825,9.65c-10.985,4.763-22.122,9.179-33.22,13.679
		c-6.033,2.446-12.161,4.608-18.653,5.552c-0.561,0.082-1.059,0.602-1.976,1.153c1.198,0.837,1.952,1.512,2.826,1.949
		c3.972,1.984,8.249,2.26,12.542,1.768c8.682-0.996,17.242-2.635,25.6-5.266c13.237-4.167,26.115-9.27,38.877-14.69
		c1.868-0.793,3.909-1.181,5.87-1.757c1.467,2.493,3.066,4.918,4.382,7.488c23.317,45.539,40.746,93.192,51.383,143.271
		c0.529,2.491,0.736,5.049,1.093,7.577c-1.421,0.577-2.897,1.044-4.252,1.746c-11.089,5.748-22.141,11.566-33.233,17.308
		c-6.84,3.54-13.842,6.782-20.564,10.529c-6.748,3.762-13.872,6.665-20.826,9.956c-4.171,1.974-8.266,4.129-12.277,6.409
		c-1.602,0.91-3.073,2.217-4.277,3.622c-2.307,2.691-1.631,6.088,1.495,7.789c1.165,0.634,2.563,1.041,3.886,1.142
		c3.414,0.259,6.813,0.149,10.219-0.53c8.872-1.769,16.922-5.569,24.576-10.136c5.54-3.306,11.353-5.439,17.629-6.735
		c8.043-1.662,15.998-3.743,24.023-5.503c6.348-1.392,12.742-2.57,19.116-3.843c0.414,2.179,0.942,4.343,1.224,6.539
		c3.361,26.17,4.779,52.446,4.376,78.829c-0.385,25.188-2.691,50.2-6.656,75.066c-8.084,50.697-23.539,99.08-45.577,145.423
		c-20.397,42.894-46.026,82.382-76.812,118.541c-53.839,63.236-118.414,112.441-193.672,147.589
		c-45.094,21.061-92.279,35.448-141.411,43.451c-33.039,5.382-66.295,7.675-99.755,6.857c-23.125-0.565-46.138-2.553-69.018-5.987
		c-1.511-0.227-2.986-0.694-4.477-1.049c1.609-0.562,3.184-1.258,4.831-1.663c15.786-3.883,31.693-7.218,47.635-10.391
		c7.391-1.472,14.822-2.538,22.403-2.459c2.709,0.028,5.451-0.46,8.125-0.983c1.274-0.249,2.582-0.936,3.596-1.764
		c1.914-1.563,1.918-3.553,0.283-5.366c-2.062-2.287-4.82-3.312-7.708-3.745c-4.221-0.632-8.486-1.218-12.744-1.308
		c-13.341-0.282-26.664-0.21-39.927,1.813c-11.492,1.753-23.052,3.053-34.577,4.594c-8.184,1.095-16.352,1.052-24.548,0.063
		c-4.918-0.593-9.867-0.946-14.81-1.302c-1.697-0.122-3.42,0.033-5.127,0.131c-4.092,0.235-8.178,0.629-12.272,0.741
		c-5.303,0.146-10.612,0.079-15.918,0.107C429.441,1121.28,427.543,1121.211,425.826,1122.202z"/>
	<path fill="#ED743E" d="M833.212,104.486c-3.644-1.061-7.321-1.075-11.113-0.926c-7.524,0.295-15.069,0.051-22.603,0.129
		c-2.385,0.025-4.767,0.353-7.148,0.567c-1.021,0.092-2.045,0.402-3.054,0.353c-6.017-0.297-11.957,0.585-17.904,1.194
		c-6.122,0.627-12.236,1.423-18.307,2.424c-9.791,1.615-19.529,3.558-29.32,5.169c-6.409,1.054-12.88,1.732-19.313,2.65
		c-2.026,0.289-4.098,0.587-6.011,1.268c-7.698,2.742-11.702,11.626-8.042,18.292c1.98,3.607,4.957,6.511,8.841,8.281
		c7.245,3.301,14.903,5.005,22.762,5.959c4.921,0.597,9.835,1.254,14.757,1.839c1.356,0.161,2.734,0.135,4.098,0.239
		c2.894,0.221,5.784,0.495,8.679,0.701c2.047,0.146,4.098,0.301,6.148,0.307c10.79,0.031,21.58-0.031,32.369,0.05
		c2.895,0.022,5.787,0.428,8.68,0.666c1.023,0.085,2.044,0.284,3.065,0.283c8.774-0.012,17.35,1.596,25.957,3.035
		c11.137,1.862,22.287,3.652,33.457,5.305c12.552,1.858,24.973,4.256,37.051,8.214c5.039,1.651,10.077,3.307,15.08,5.063
		c2.092,0.734,4.118,1.679,6.121,2.639c1.008,0.483,1.004,2.063-0.018,2.522c-2.648,1.189-5.353,2.253-8.037,3.363
		c-9.171,3.792-18.341,7.587-27.516,11.371c-3.798,1.567-7.57,3.205-11.417,4.643c-9.308,3.48-18.477,7.302-27.272,11.912
		c-6.215,3.257-12.062,7.139-16.363,12.913c-1.963,2.636-4.666,3.701-7.945,4.054c-8.322,0.896-16.698,1.462-24.836,3.708
		c-3.254,0.898-5.996,2.479-8.321,4.831c-6.352,6.426-5.713,16.637,1.453,22.125c1.326,1.016,2.946,1.783,4.55,2.28
		c6.128,1.897,12.4,2.483,18.778,1.56c1.016-0.147,2.018-0.443,3.037-0.508c15.265-0.972,30.088-4.542,45.001-7.586
		c8.888-1.814,17.795-3.534,26.668-5.417c10.045-2.131,20.04-4.493,30.208-6.009c10.659-1.589,21.336-3.084,31.96-4.885
		c6.576-1.114,13.065-2.737,19.601-4.095c1.451-0.301,2.925-1.163,4.672,0.075c-0.169,0.539-0.182,1.32-0.579,1.692
		c-0.86,0.807-1.889,1.448-2.896,2.082c-13.908,8.753-28.196,16.857-42.522,24.898c-4.028,2.261-7.975,4.675-11.887,7.133
		c-12.321,7.742-24.374,15.882-36.185,24.384c-5.833,4.199-11.783,8.236-17.584,12.478c-5.382,3.936-10.632,8.051-15.946,12.079
		c-7.299,5.533-15.353,9.609-24.039,12.486c-11.697,3.873-23.383,7.779-35.072,11.678c-7.125,2.377-13.077,6.697-18.606,11.587
		c-1.886,1.668-3.411,3.866-4.71,6.053c-4.252,7.155-0.995,16.284,7.068,18.789c7.198,2.236,14.646,3.636,22.258,1.768
		c3.323-0.816,6.644-1.639,9.973-2.431c3.662-0.872,7.312-1.813,11.003-2.548c7.887-1.571,15.799-3.016,23.697-4.535
		c10.591-2.037,21.201-3.978,31.76-6.168c19.27-3.997,38.508-8.149,57.763-12.222c1.16-0.245,2.345-0.395,3.526-0.5
		c0.226-0.02,0.594,0.336,0.705,0.599c0.116,0.274,0.134,0.779-0.038,0.951c-0.835,0.838-1.657,1.745-2.651,2.358
		c-3.348,2.066-6.714,4.113-10.168,5.993c-8.294,4.514-15.888,10.094-23.68,15.37c-7.936,5.373-15.548,11.268-23.747,16.195
		c-7.158,4.302-14.44,8.482-22.217,11.746c-6.302,2.646-12.337,5.939-18.424,9.075c-3.224,1.661-5.912,4.082-8.296,6.807
		c-3.547,4.054-3.564,9.429-0.074,13.55c1.937,2.287,4.371,3.956,7.255,4.617c3.152,0.723,6.394,1.319,9.615,1.426
		c6.501,0.216,13.022,0.254,19.519-0.007c3.909-0.157,7.833-0.805,11.674-1.598c17.772-3.666,35.541-7.355,53.265-11.244
		c12.039-2.642,24.001-5.63,35.998-8.46c6.499-1.533,12.959-3.269,19.511-4.523c4.853-0.929,9.813-1.476,14.75-1.744
		c6.311-0.343,12.625-0.07,18.951-0.915c4.714-0.63,9.576-0.087,14.369-0.218c3.068-0.084,6.128-0.46,9.193-0.677
		c1.876-0.133,3.755-0.226,5.635-0.316c2.221-0.107,4.446-0.155,6.664-0.293c7.151-0.445,13.971,0.665,20.255,4.276
		c3.076,1.767,5.253,4.349,6.61,7.615c1.469,3.533,0.87,5.845-2.096,8.115c-0.541,0.414-1.121,0.799-1.732,1.097
		c-6.309,3.071-12.588,6.208-18.957,9.152c-5.59,2.584-11.217,5.111-16.945,7.367c-9.714,3.827-19.498,7.479-29.292,11.097
		c-10.437,3.855-20.907,7.621-31.39,11.35c-3.384,1.204-6.843,2.204-10.287,3.232c-9.513,2.839-18.957,5.961-28.578,8.379
		c-11.118,2.794-22.336,5.282-33.619,7.303c-11.631,2.083-23.231,4.23-34.646,7.287c-11.741,3.144-23.525,6.152-35.165,9.637
		c-5.546,1.66-10.891,4.096-16.149,6.561c-2.58,1.209-4.99,3.04-7.051,5.03c-2.662,2.57-2.722,5.371-0.991,8.42
		c0.934,1.644,2.406,2.311,4.107,2.787c5.606,1.568,11.245,2.95,17.018,3.799c3.901,0.573,7.832,0.717,11.728,1.13
		c6.333,0.671,12.553,0.511,18.886,0.003c6.645-0.533,13.26-1.308,19.898-1.854c14.028-1.155,27.674-4.587,41.536-6.723
		c2.532-0.39,5.001-1.169,7.518-1.677c1.308-0.264,2.657-0.33,3.822-0.465c0.789,0.928,0.438,1.561-0.143,1.91
		c-1.018,0.612-2.112,1.117-3.216,1.565c-6.344,2.572-12.726,5.049-19.045,7.681c-8.688,3.618-17.342,7.322-25.992,11.031
		c-9.594,4.114-19.249,8.098-28.723,12.473c-7.452,3.442-14.724,7.289-21.971,11.154c-4.397,2.344-8.777,4.54-13.689,5.689
		c-13.873,3.244-27.332,7.755-40.303,13.679c-2.801,1.279-5.729,2.328-8.39,3.847c-1.885,1.077-3.666,2.563-5.053,4.232
		c-2.091,2.516-1.8,4.981,0.345,7.404c1.281,1.447,2.819,2.413,4.718,2.926c4.727,1.276,9.487,1.089,14.276,0.568
		c2.377-0.259,4.761-0.445,7.14-0.676c4.932-0.481,9.865-0.961,14.795-1.465c0.849-0.087,1.682-0.365,2.531-0.421
		c6.309-0.415,12.624-0.747,18.93-1.205c4.942-0.36,9.881-0.8,14.809-1.318c8.497-0.893,16.986-1.867,25.477-2.823
		c4.924-0.554,9.838-1.211,14.769-1.689c5.442-0.528,10.898-0.908,16.349-1.341c0.853-0.068,1.739,0.057,2.561-0.124
		c5.755-1.273,11.594-0.757,17.402-0.927c2.898-0.085,5.786-0.451,8.681-0.662c1.876-0.137,3.754-0.274,5.633-0.322
		c7.005-0.179,14.003,0.22,21.011-0.848c4.188-0.638,8.545-0.167,12.826-0.193c4.276-0.026,8.52-0.138,12.794-0.729
		c4.039-0.559,8.204-0.16,12.308-0.323c3.239-0.129,6.468-0.499,9.705-0.708c2.218-0.144,4.442-0.238,6.665-0.283
		c5.298-0.107,10.625,0.357,15.861-0.882c0.329-0.078,0.683-0.105,1.022-0.085c6.357,0.367,12.627-0.731,18.932-1.178
		c4.938-0.35,9.839-1.217,14.775-1.612c8.901-0.712,17.768-1.012,26.35,2.359c4.754,1.867,8.188,4.878,9.894,9.722
		c2.094,5.942,0.36,11.766-4.709,15.509c-2.062,1.522-4.254,2.878-6.45,4.206c-8.053,4.871-16.082,9.783-24.216,14.515
		c-6.95,4.043-14.009,7.901-21.061,11.766c-7.952,4.358-15.838,8.858-23.95,12.901c-26.045,12.981-52.172,25.8-78.293,38.63
		c-4.145,2.036-8.407,3.836-12.641,5.684c-6.744,2.943-13.502,5.852-20.269,8.743c-7.866,3.361-15.755,6.666-23.619,10.031
		c-12.902,5.519-25.955,10.71-38.348,17.349c-1.489,0.797-2.874,1.808-4.222,2.831c-0.283,0.214-0.379,0.995-0.223,1.375
		c0.157,0.38,0.708,0.75,1.14,0.829c0.653,0.12,1.362,0.048,2.03-0.056c4.903-0.758,9.783-1.7,14.706-2.28
		c5.597-0.659,11.231-1.002,16.848-1.485c2.212-0.19,4.423-0.392,6.636-0.577c1.873-0.156,3.747-0.397,5.622-0.42
		c4.966-0.061,9.936,0.067,14.899-0.059c3.41-0.087,6.812-0.471,10.217-0.728c0.341-0.026,0.678-0.109,1.018-0.13
		c6.139-0.394,12.279-0.784,18.419-1.169c0.854-0.054,1.722-0.001,2.564-0.126c11.931-1.778,23.934-0.805,35.896-0.73
		c5.425,0.034,10.846,1.307,16.262,2.07c1.181,0.166,2.351,0.49,3.489,0.856c3.332,1.072,4.079,3.762,1.473,6.188
		c-1.852,1.724-4.01,3.287-6.302,4.33c-2.931,1.334-6.073,2.355-9.228,3.018c-13.065,2.747-26.168,5.315-39.26,7.936
		c-7.715,1.544-15.426,3.109-23.154,4.588c-20.167,3.859-40.342,7.673-60.512,11.512c-15.804,3.008-31.59,6.115-47.414,9.012
		c-10.939,2.003-21.882,4.12-32.913,5.442c-8.637,1.036-17.274,2.274-26.026,2.495c-7.5,0.189-14.979,1.162-22.47,1.753
		c-1.705,0.135-3.42,0.162-5.131,0.176c-4.107,0.034-8.224-0.158-12.268,0.836c-0.656,0.161-1.362,0.161-2.045,0.161
		c-10.476-0.001-20.793,1.533-31.085,3.26c-4.409,0.74-8.689,1.947-12.636,4.134c-0.599,0.332-1.226,0.62-1.797,0.994
		c-5.397,3.537-6.178,9.188-1.801,13.86c1.889,2.016,3.698,3.993,4.644,6.674c0.385,1.09,1.244,2.027,1.949,2.988
		c1.212,1.653,2.541,3.225,3.701,4.913c3.66,5.323,8.272,9.555,14.076,12.44c2.145,1.066,4.344,2.026,6.489,3.094
		c0.72,0.358,1.347,0.902,2.291,1.55c-0.671,0.712-1.019,1.393-1.542,1.575c-1.277,0.446-2.626,0.879-3.962,0.936
		c-12.502,0.532-24.838,2.512-37.162,4.441c-5.555,0.87-11.01,2.535-16.411,4.165c-2.239,0.675-4.396,1.97-6.283,3.39
		c-4.334,3.261-4.954,8.239-1.918,12.682c1.823,2.668,4.383,4.381,7.35,5.329c3.412,1.091,6.9,2.229,10.434,2.602
		c7.648,0.807,15.26,1.906,22.928,2.607c6.673,0.61,13.341,0.39,19.972,0.944c5.802,0.485,11.578,1.05,17.405,0.901
		c0.513-0.013,1.03,0.03,1.541-0.01c7.492-0.59,14.982-1.189,22.473-1.786c1.023-0.081,2.05-0.255,3.07-0.223
		c6.54,0.202,12.954-0.894,19.389-1.801c0.846-0.119,1.705-0.257,2.554-0.237c7.731,0.18,15.337-1.025,22.982-1.898
		c5.767-0.659,11.593-0.782,17.382-1.277c4.936-0.422,9.853-1.063,14.785-1.551c2.209-0.218,4.43-0.364,6.648-0.414
		c0.99-0.022,1.987,0.272,2.82,0.398c0.878,1.464,0.053,2.166-0.817,2.729c-3.59,2.326-7.195,4.631-10.826,6.893
		c-3.921,2.444-7.845,4.885-11.824,7.233c-7.366,4.347-14.938,8.369-22.116,13.003c-7.074,4.567-14.717,8.03-21.989,12.199
		c-3.846,2.205-7.964,3.936-11.954,5.892c-1.227,0.601-2.449,1.213-3.652,1.86c-1.507,0.81-2.931,1.801-4.495,2.473
		c-16.19,6.967-31.783,15.255-48.211,21.704c-6.04,2.371-11.891,5.22-17.892,7.695c-4.111,1.695-8.309,3.191-12.51,4.655
		c-14.224,4.957-28.418,10.009-43.063,13.644c-10.464,2.597-20.89,5.357-31.396,7.769c-6.496,1.491-13.084,2.639-19.678,3.633
		c-8.799,1.326-17.573,2.704-26.307,4.466c-9.54,1.924-19.12,3.941-28.95,3.85c-3.346-0.031-6.378,1.04-9.357,2.433
		c-3.592,1.679-5.338,4.703-6.165,8.346c-0.549,2.418-0.139,4.729,1.267,6.87c3.516,5.353,8.332,8.822,14.367,11.028
		c6.853,2.506,14.007,3.062,21.096,4.125c2.706,0.406,5.421,0.754,8.135,1.107c11.547,1.503,23.134,2.243,34.788,2.052
		c8.561-0.14,17.126-0.026,25.69-0.035c4.106-0.004,8.222,0.182,12.271-0.806c0.819-0.2,1.703-0.19,2.556-0.188
		c9.615,0.028,19.064-1.624,28.563-2.79c2.304-0.283,4.657-0.783,7.396,0.566c-0.82,0.68-1.223,1.228-1.756,1.421
		c-2.898,1.047-5.801,2.096-8.751,2.981c-12.788,3.839-25.555,7.758-38.403,11.391c-16.81,4.754-33.844,8.55-51.124,11.193
		c-7.945,1.215-15.863,2.622-23.83,3.67c-9.827,1.292-19.693,2.291-29.539,3.444c-1.698,0.199-3.374,0.573-5.07,0.801
		c-10.168,1.366-20.326,2.826-30.515,4.023c-5.595,0.657-11.243,0.865-16.868,1.267c-1.024,0.073-2.086-0.04-3.071,0.19
		c-4.052,0.947-8.163,0.899-12.27,0.816c-9.275-0.186-18.413,1.122-27.573,2.311c-5.926,0.769-11.893,1.223-17.841,1.813
		c-0.34,0.034-0.687-0.008-1.027,0.027c-8.237,0.839-13.636,3.806-15.354,11.805c-1.415-0.562-2.888-1.012-4.235-1.707
		c-6.337-3.274-12.65-6.594-18.944-9.95c-1.184-0.631-2.243-1.498-3.36-2.256c2.474-0.635,4.914-1.568,7.428-1.856
		c13.974-1.6,27.713-4.307,41.307-7.92c9.437-2.508,19.109-3.723,28.837-4.706c8.664-0.875,17.427-0.848,25.988-2.796
		c11.195-2.547,22.304-5.393,33.112-9.278c2.371-0.852,4.61-2.247,6.679-3.715c1.921-1.363,2.941-3.462,2.081-5.861
		c-0.816-2.276-2.645-3.71-5.067-3.737c-5.986-0.066-11.999-0.23-17.956,0.231c-6.638,0.513-13.226,1.677-19.837,2.543
		c-0.677,0.089-1.367,0.122-2.05,0.118c-14.101-0.074-27.922,2.36-41.771,4.593c-5.059,0.816-10.144,1.387-15.278,1.75
		c-5.974,0.422-11.924,1.028-17.922,0.872c-0.856-0.022-1.717,0.043-2.568-0.025c-1.149-0.092-2.739,0.352-3.197-0.996
		c-0.6-1.767,1.234-2.18,2.318-2.797c14.293-8.13,28.033-17.147,41.761-26.169c7.717-5.072,15.176-10.551,22.6-16.051
		c5.115-3.789,10.434-7.162,16.205-9.844c5.585-2.595,11.191-5.148,16.709-7.878c10.444-5.168,21.159-9.677,32.038-13.846
		c11.188-4.287,22.296-8.783,33.408-13.266c13.042-5.261,26.401-9.53,40.02-13.013c12.607-3.224,25.218-6.435,37.804-9.741
		c3.804-0.999,7.588-2.14,11.273-3.507c2.382-0.883,4.595-2.247,6.833-3.487c1.528-0.847,2.787-2.062,3.375-3.741
		c0.779-2.226,2.172-3.785,4.278-4.855c4.185-2.126,4.545-6.073-0.306-9.046c-0.863-0.529-1.844-0.936-2.825-1.19
		c-4.81-1.247-9.636-2.332-14.669-2.268c-7.192,0.092-14.386,0.006-21.579,0.031c-4.96,0.017-9.898,0.409-14.845,0.716
		c-7.871,0.489-15.642,1.661-23.464,2.445c-8.162,0.818-16.292,1.951-24.454,2.779c-5.609,0.569-11.25,0.818-16.872,1.272
		c-3.577,0.289-7.148,0.665-10.716,1.052c-4.927,0.535-9.838,1.425-14.776,1.608c-6.997,0.26-14.07,0.565-21.009-0.14
		c-11.222-1.14-22.363-3.074-33.532-4.722c-0.728-0.107-1.394-0.629-2.298-1.058c1.29-2.137,3.293-2.413,4.947-3.099
		c9.167-3.805,18.339-7.605,27.577-11.232c7.696-3.021,14.844-7.015,21.743-11.512c5.735-3.739,11.347-7.694,17.267-11.116
		c6.364-3.679,12.939-7.023,19.579-10.183c5.089-2.421,10.399-4.387,15.652-6.45c9.607-3.774,19.66-5.931,29.757-7.821
		c5.201-0.973,10.493-1.465,15.748-2.144c4.408-0.57,8.816-1.14,13.233-1.628c4.416-0.488,8.836-1.095,13.268-1.25
		c5.532-0.194,10.824-1.62,16.203-2.602c2.861-0.522,5.724-1.111,8.513-1.923c2.45-0.714,4.859-1.651,7.165-2.744
		c1.19-0.564,2.217-1.59,3.138-2.574c1.016-1.084,0.735-2.758-0.506-3.573c-0.702-0.461-1.497-0.827-2.3-1.079
		c-3.66-1.153-7.393-1.206-11.185-0.785c-3.223,0.357-6.468,0.695-9.705,0.716c-13.187,0.086-26.375,0.011-39.562,0.082
		c-2.725,0.015-5.447,0.431-8.173,0.61c-2.389,0.157-4.781,0.294-7.174,0.347c-4.444,0.098-8.897-0.178-13.302,0.814
		c-1.262,0.284-2.656-0.018-3.82-0.048c-0.903-1.62,0.118-2.27,0.952-2.709c4.539-2.392,9.017-4.949,13.724-6.964
		c9.596-4.106,19.448-7.627,28.972-11.888c15.826-7.08,32.245-12.48,48.698-17.787c14.173-4.572,28.397-9.01,42.716-13.099
		c6.224-1.777,12.724-2.632,19.13-3.723c7.42-1.263,14.898-2.195,22.304-3.529c3.693-0.665,7.333-1.753,10.907-2.922
		c6.018-1.968,12.005-4.049,17.917-6.314c1.683-0.645,3.221-1.924,4.534-3.209c1.437-1.407,0.999-3.499-0.837-4.204
		c-1.73-0.664-3.618-1.303-5.433-1.293c-8.031,0.044-16.097-0.802-24.088,0.702c-0.835,0.157-1.705,0.134-2.559,0.184
		c-6.484,0.379-12.983,0.589-19.447,1.178c-6.297,0.574-12.556,1.556-18.836,2.323c-7.636,0.933-15.277,1.82-22.914,2.745
		c-6.281,0.76-12.557,1.567-18.839,2.312c-5.26,0.624-10.527,1.198-15.793,1.776c-5.435,0.597-10.867,1.237-16.313,1.727
		c-2.722,0.245-5.47,0.219-8.207,0.278c-4.956,0.107-9.886,0.11-14.851,0.733c-6.769,0.849-13.631,1.156-20.461,1.286
		c-10.443,0.198-20.895,0.155-31.34,0.004c-6.541-0.095-12.949,0.994-19.413,1.604c-1.701,0.16-3.402,0.449-5.104,0.461
		c-6.85,0.047-13.701,0.009-20.552,0c-0.514-0.001-1.039,0.041-1.539-0.047c-5.938-1.053-11.887-1.267-17.865-0.339
		c-0.264,0.041-0.586-0.289-1.016-0.519c0.131-0.419,0.136-1.067,0.438-1.267c0.692-0.458,1.504-0.788,2.311-1.013
		c10.06-2.797,20.076-5.779,30.209-8.286c12.645-3.129,25.046-7.058,37.484-10.865c6.543-2.003,12.886-4.654,19.423-6.682
		c10.135-3.144,20.296-6.236,30.557-8.929c13.253-3.478,26.401-7.286,39.487-11.333c11.944-3.694,24.017-6.912,36.256-9.504
		c11.218-2.376,22.401-4.916,33.625-7.256c3.507-0.731,7.103-1.032,10.654-1.562c13.366-1.994,26.725-4.038,40.098-5.988
		c6.092-0.888,12.23-1.471,18.308-2.437c4.386-0.697,8.764-1.595,13.036-2.793c2.422-0.679,4.738-1.961,6.894-3.305
		c2.202-1.372,3.115-3.614,2.641-6.232c-0.475-2.626-2.201-4.165-4.673-4.94c-3.488-1.094-7.027-1.333-10.661-0.836
		c-2.704,0.37-5.442,0.484-8.164,0.725c-5.277,0.468-10.554,0.945-15.83,1.418c-2.382,0.214-4.763,0.428-7.145,0.641
		c-6.296,0.563-12.594,1.104-18.887,1.696c-4.424,0.416-8.85,0.837-13.261,1.373c-9.166,1.114-18.321,2.324-27.484,3.459
		c-7.634,0.945-15.29,1.728-22.907,2.791c-6.438,0.899-12.823,2.167-19.251,3.143c-6.931,1.052-13.878,2.007-20.83,2.905
		c-7.459,0.964-14.93,1.833-22.403,2.69c-1.094,0.126-2.221-0.043-4.065-0.096c0.849-1.056,1.132-1.716,1.624-1.97
		c3.495-1.81,6.938-3.772,10.579-5.237c6.228-2.506,12.17-5.55,17.731-9.245c8.029-5.334,16.473-9.741,25.53-13.064
		c10.605-3.891,21.05-8.234,31.718-11.936c6.451-2.239,13.162-3.774,19.817-5.375c8.87-2.134,17.262-5.565,25.657-9.011
		c1.25-0.513,2.462-1.235,3.521-2.075c1.98-1.569,2.298-3.742,1.626-6.043c-0.599-2.051-2.197-3.151-4.227-3.149
		c-4.61,0.005-9.306-0.292-13.814,0.458c-17.761,2.952-35.149,7.484-52.241,13.155c-4.223,1.401-8.502,2.638-12.778,3.872
		c-0.9,0.26-1.898,0.178-3.557,0.31c0.839-1.417,1.136-2.472,1.832-3.008c7.223-5.569,13.149-12.484,19.636-18.811
		c2.647-2.581,5.652-4.241,9.129-5.469c5.479-1.935,10.786-4.35,16.195-6.491c3.02-1.195,6.033-2.49,9.161-3.321
		c13.93-3.704,27.366-8.818,40.739-14.103c3.016-1.192,5.959-2.648,8.765-4.275c4.631-2.686,9.575-4.55,14.639-6.166
		c5.398-1.723,10.667-3.777,15.498-6.752c4.21-2.592,8.571-5.068,11.159-9.59c0.924-1.614,2.686-2.09,4.265-2.677
		c3.252-1.21,6.147-3.015,8.903-5.056c3.984-2.951,3.781-6.41-0.625-8.726c-2.102-1.105-4.395-1.964-6.7-2.546
		c-4.981-1.258-10.035-2.153-15.218-2.063c-6.496,0.113-12.976-0.079-19.472,0.825c-4.372,0.608-8.853,0.47-13.278,1.091
		c-7.108,0.998-14.283,1.522-21.4,2.468c-8.477,1.127-16.928,2.453-25.38,3.758c-9.638,1.488-19.26,3.071-28.898,4.556
		c-2.191,0.338-4.418,0.445-6.629,0.648c-2.212,0.203-4.422,0.431-6.637,0.581c-2.729,0.184-5.46,0.362-8.193,0.428
		c-4.615,0.111-9.208,0.062-13.822,0.768c-5.055,0.774-10.215,0.839-15.321,1.306c-5.445,0.497-10.882,1.093-16.32,1.663
		c-4.08,0.428-8.183,0.714-12.228,1.362c-8.276,1.326-16.526,2.821-24.775,4.307c-7.906,1.424-15.726,3.501-23.875,2.961
		c-0.511-0.034-1.037-0.047-1.539,0.032c-10.727,1.697-21.534,0.712-32.303,0.975c-7.535,0.184-15.072,0.644-22.413,2.324
		c-6.718,1.538-13.576,1.652-20.324,2.742c-3.032,0.49-6.071,0.948-9.116,1.352c-0.929,0.123-1.889,0.019-2.836,0.019
		c-0.321-1.994,0.927-2.843,2.011-3.535c2.301-1.47,4.681-2.845,7.136-4.039c8.038-3.909,16.557-6.541,25.127-8.934
		c11.704-3.268,23.556-6.019,35.21-9.449c8.031-2.364,15.84-5.487,23.737-8.303c8.384-2.99,16.754-6.021,25.131-9.03
		c7.084-2.545,14.154-5.128,21.258-7.618c7.911-2.773,15.909-5.308,23.766-8.223c8.985-3.334,17.853-6.983,26.779-10.476
		c12.132-4.748,23.665-10.8,35.415-16.37c7.258-3.441,14.262-7.432,21.294-11.331c7.482-4.148,14.971-8.302,22.254-12.785
		c6.549-4.031,12.88-8.427,19.178-12.846c1.779-1.248,3.219-3.049,4.609-4.763c2.278-2.809,4.623-5.564,7.745-7.417
		c3.047-1.808,4.895-4.151,4.859-7.806c-0.008-0.842,0.314-1.683,0.367-2.532c0.085-1.354-0.843-2.513-2.136-2.301
		c-2.479,0.407-4.649-0.364-6.977-0.963c-1.688-0.434-3.706,0.119-5.518,0.506c-13.216,2.826-26.38,5.918-39.637,8.531
		c-9.729,1.918-19.568,3.294-29.374,4.809c-14.71,2.273-29.426,4.512-44.155,6.653c-7.273,1.057-14.515,2.303-21.873,2.835
		c-4.43,0.32-8.831,1.062-13.294,0.822c-0.942-0.051-1.87-0.352-3.643-0.704c1.27-0.797,1.739-1.243,2.292-1.413
		c3.271-1.009,6.581-1.897,9.844-2.933c9.302-2.952,18.605-5.9,27.873-8.955c9.14-3.013,18.549-4.893,28.008-6.391
		c13.078-2.071,25.827-5.189,38.143-10.079c5.249-2.084,10.493-4.266,15.905-5.827c4.175-1.205,6.171-4.012,7.583-7.624
		c0.618-1.581,1.008-3.252,1.604-5.221c-0.847-0.404-1.664-0.963-2.565-1.196c-5.071-1.312-10.085-1.277-15.197,0.167
		c-4.6,1.3-9.352,2.056-14.034,3.067c-7.027,1.517-14.036,3.128-21.081,4.557c-17.112,3.471-34.225,6.938-51.366,10.259
		c-14.618,2.832-29.263,5.533-43.924,8.132c-4.534,0.804-9.158,1.097-13.745,1.596c-0.676,0.074-1.37,0.019-2.053-0.026
		c-1.199-0.08-2.431-0.124-3.136-1.35c-0.583-1.013-0.254-2.445,0.971-3.698c0.711-0.727,1.507-1.411,2.37-1.946
		c11.634-7.207,23.123-14.669,34.985-21.483c10.239-5.881,20.979-10.855,32.137-14.845c13.056-4.669,26.144-9.256,39.124-14.129
		c10.272-3.856,19.977-8.972,29.655-14.121c4.376-2.328,8.859-4.457,13.307-6.648c5.836-2.875,11.713-5.669,17.52-8.601
		c4.141-2.09,8.345-3.913,12.879-5.034c3.316-0.82,6.508-2.127,9.782-3.131c5.236-1.606,10.516-3.07,15.733-4.732
		c2.922-0.931,5.792-2.054,8.61-3.267c1.063-0.458,2.032-1.3,2.834-2.162c2.039-2.192,1.565-5.532-0.985-7.077
		c-1.944-1.177-4.131-1.701-6.39-1.655c-3.587,0.074-7.171,0.289-10.757,0.414c-0.612,0.021-1.229-0.108-1.788-0.163
		c-0.184-1.416,0.724-1.733,1.43-2.119c8.26-4.512,16.629-8.834,24.769-13.55c5.798-3.36,12.021-5.787,17.921-8.894
		c2.116-1.114,4.182-2.34,6.187-3.643c0.987-0.642,1.907-1.478,2.644-2.397c1.709-2.129,1.454-4.544-0.542-6.399
		c-3.59-3.337-7.806-5.051-12.694-4.15c-4.083,0.753-8.172,0.669-12.272,0.862c-3.065,0.144-6.115,0.67-9.162,1.093
		c-6.774,0.94-13.531,2.015-20.318,2.853c-4.781,0.591-9.456,1.521-13.998,3.127c-2.26,0.799-4.556,1.496-6.819,2.287
		c-6.507,2.275-13.21,3.472-20.077,4.006c-5.108,0.397-10.187,1.168-15.285,1.712c-3.908,0.417-7.822,0.782-11.74,1.094
		c-5.623,0.448-11.255,0.78-16.876,1.248c-5.959,0.496-11.909,1.099-17.865,1.64c-1.702,0.155-3.411,0.245-5.115,0.386
		c-2.383,0.197-4.766,0.406-7.147,0.628c-0.851,0.079-1.697,0.293-2.547,0.306c-5.305,0.08-10.578,0.381-15.868,0.961
		c-4.909,0.539-9.903,0.791-14.825,0.94c-9.746,0.294-19.434,1.745-29.214,1.335c-2.881-0.121-5.789,0.381-8.683,0.613
		c-0.852,0.068-1.707,0.306-2.55,0.263c-6.359-0.325-12.622,0.838-18.936,1.203c-3.751,0.216-7.485,0.745-11.22,1.193
		c-4.413,0.53-8.817,1.135-13.227,1.688c-10.518,1.318-21.04,2.614-31.557,3.939c-11.876,1.497-23.756,2.961-35.621,4.538
		c-15.26,2.029-30.57,3.745-45.648,6.976c-1.457,0.312-2.958,0.423-4.932,0.696c0.5-0.861,0.628-1.437,0.949-1.582
		c3.899-1.75,7.747-3.659,11.764-5.09c7.741-2.759,15.557-5.317,23.39-7.806c4.892-1.554,9.877-2.813,14.812-4.233
		c9.87-2.84,19.741-5.677,29.599-8.56c7.081-2.071,14.268-3.442,21.61-4.322c12.393-1.486,24.752-3.298,37.083-5.236
		c4.205-0.661,8.339-1.947,12.411-3.244c6.85-2.181,13.62-4.615,20.434-6.912c4.054-1.367,8.124-2.687,12.192-4.01
		c2.93-0.953,5.869-1.882,8.806-2.812c1.85-0.586,3.361-1.668,4.623-3.118c2.988-3.435,1.518-8.079-2.949-9.139
		c-1.15-0.273-2.38-0.293-3.572-0.282c-5.469,0.05-10.912,0.236-16.387,0.713c-9.214,0.801-18.364,1.952-27.489,3.357
		c-5.746,0.885-11.524,1.72-17.171,3.067c-9.49,2.263-18.854,5.049-28.334,7.358c-6.311,1.537-12.693,2.862-19.108,3.87
		c-12.175,1.912-24.358,3.738-36.377,6.518c-4.503,1.041-9.036,1.947-13.542,2.976c-6.845,1.563-13.651,3.256-20.232,5.765
		c-3.36,1.281-6.765,2.323-10.448,2.449c-2.191,0.075-4.395,0.688-6.529,1.289c-4.448,1.253-8.895,2.538-13.269,4.023
		c-11.56,3.927-23.507,6.11-35.514,8.008c-6.246,0.988-12.565,1.517-18.802,2.551c-10.696,1.774-20.903,5.262-30.911,9.354
		c-2.852,1.166-5.663,2.43-8.512,3.602c-1.74,0.716-3.497,1.405-5.284,1.991c-1.308,0.429-2.456-0.715-1.976-2.065
		c0.624-1.755,1.258-3.609,2.352-5.073c2.258-3.022,4.972-5.583,8.422-7.366c8.718-4.504,17.897-7.749,27.313-10.395
		c8.911-2.504,18.029-4.062,27.073-5.97c15.746-3.322,31.391-7.041,46.844-11.597c19.045-5.616,38.188-10.902,57.315-16.238
		c16.655-4.646,33.337-9.197,50.026-13.719c6.28-1.701,12.63-3.14,18.92-4.806c13.24-3.506,26.441-7.161,39.697-10.604
		c9.445-2.453,18.968-4.602,28.43-6.99c10.123-2.555,20.217-5.229,30.321-7.857c15.574-4.051,31.193-7.901,47.085-10.534
		c2.331-0.386,4.64-0.9,6.844-1.332c0.185-1.296-0.573-1.438-1.205-1.592c-1.33-0.324-2.667-0.697-4.022-0.828
		c-4.934-0.475-9.874-0.884-14.816-1.271c-8.175-0.64-16.352-1.256-24.53-1.852c-1.706-0.124-3.421-0.172-5.132-0.173
		c-16.442-0.013-32.883-0.038-49.324,0.02c-2.725,0.01-5.445,0.455-8.173,0.617c-2.902,0.172-5.809,0.298-8.715,0.353
		c-4.276,0.081-8.551-0.099-12.793,0.787c-1.652,0.345-3.411,0.225-5.121,0.232c-8.049,0.032-16.099,0.033-24.148,0.046
		c-3.936,0.006-7.841,0.169-11.771,0.686c-3.879,0.509-7.86,0.259-11.797,0.307c-3.935,0.048-7.845,0.081-11.768,0.746
		c-4.032,0.684-8.157,0.82-12.238,1.221c-15.354,1.507-30.497,4.202-45.458,7.971c-7.969,2.007-16.014,3.713-23.967,5.778
		c-5.136,1.333-9.956,0.344-14.47-1.805c-3.422-1.629-5.905-4.615-7.684-8.039c-3.996-7.694-1.871-15.525,2.839-20.975
		c3.744-4.333,8.401-6.98,13.818-8.363c8.626-2.202,17.303-4.206,25.94-6.37c8.635-2.163,17.263-4.36,25.866-6.65
		c10.753-2.863,21.475-5.842,32.214-8.759c15.695-4.263,31.353-8.667,47.099-12.729c15.418-3.977,30.872-7.849,46.412-11.307
		c13.356-2.972,26.857-5.302,40.477-6.805c6.285-0.694,12.58-1.302,18.86-2.037c2.374-0.278,4.721-0.785,7.071-1.24
		c0.228-0.044,0.383-0.462,0.572-0.708c-0.191-0.247-0.362-0.687-0.577-0.709c-4.585-0.486-9.166-1.078-13.766-1.328
		c-4.266-0.232-8.531-0.085-12.795-0.78c-2.483-0.405-5.108,0.006-7.666,0.13c-1.019,0.049-2.022,0.414-3.041,0.468
		c-7.852,0.419-15.704,0.854-23.561,1.164c-3.931,0.155-7.864-0.02-11.766,0.784c-1.654,0.34-3.411,0.23-5.121,0.234
		c-9.248,0.022-18.497,0.033-27.745,0.01c-4.959-0.012-9.896-0.365-14.847-0.7c-8.169-0.554-16.404-0.861-24.596,0.388
		c-8.454,1.289-16.958,2.249-25.405,3.576c-5.746,0.903-11.466,2.042-17.138,3.337c-13.019,2.973-26.018,6.036-38.989,9.21
		c-5.317,1.301-10.533,3.012-15.811,4.476c-2.471,0.686-4.996,1.176-7.471,1.848c-9.576,2.6-19.235,4.864-28.662,8.048
		c-7.297,2.465-14.682,4.684-21.764,7.719c-8.492,3.64-16.968,7.336-25.303,11.318c-10.192,4.869-20.311,9.905-30.317,15.145
		c-16.873,8.836-32.809,19.148-47.501,31.298c-3.948,3.265-7.658,6.822-11.424,10.303c-0.715,0.661-1.18,1.592-1.665,2.265
		c0.563,1.535,1.611,1.536,2.65,1.421c2.719-0.301,5.471-0.463,8.138-1.026c3.902-0.823,7.825-0.789,11.761-0.797
		c4.795-0.009,9.593,0.073,14.386-0.05c3.24-0.083,6.472-0.465,9.709-0.683c1.877-0.126,3.758-0.268,5.638-0.274
		c9.248-0.032,18.497-0.019,27.745-0.027c7.04-0.006,13.997,0.885,20.888,2.195c3.351,0.637,6.636,1.687,9.897,2.719
		c2.973,0.94,4.37,2.515,4.201,4.494c-0.225,2.632-2.143,3.917-4.35,4.479c-3.973,1.012-8.031,1.686-12.047,2.53
		c-2.167,0.455-4.469,0.637-6.454,1.519c-5.236,2.328-10.813,3.328-16.338,4.376c-11.766,2.231-23.595,4.137-35.41,6.106
		c-5.569,0.928-11.205,1.495-16.739,2.586c-7.72,1.523-15.385,3.332-23.051,5.118c-5.833,1.359-11.601,3.002-17.448,4.292
		c-12.036,2.656-24.113,5.125-36.156,7.746c-4.213,0.917-8.445,1.314-12.743,1.136c1.064-1.74,2.016-3.563,3.211-5.21
		c21.972-30.285,46.892-57.928,74.212-83.497c44.613-41.753,95.617-73.517,151.531-97.725
		c34.054-14.743,69.411-25.335,105.646-33.148c20.947-4.517,42.112-7.528,63.449-9.381c1.688-0.147,3.4-0.021,5.104-0.023
		c-8.059,2.85-16.136,5.661-24.177,8.57c-3.698,1.338-7.392,2.722-10.972,4.34c-11.542,5.215-23.178,10.144-35.223,14.145
		c-17.374,5.771-34.645,11.856-51.905,17.964c-4.503,1.593-8.823,3.716-13.174,5.712c-0.99,0.454-1.759,1.391-2.959,2.376
		c0.985,0.562,1.506,1.061,2.09,1.149c1.176,0.178,2.385,0.178,3.581,0.17c6.324-0.046,12.621-0.145,18.946-0.842
		c6.771-0.747,13.635-0.129,20.469-1.066c8.802-1.208,17.655-2.017,26.39-3.74c8.053-1.589,16.104-3.227,24.21-4.499
		c11.662-1.831,23.361-3.462,34.799-6.425c12.114-3.138,24.395-5.251,36.778-6.97c12.871-1.787,25.705-3.847,38.535-5.91
		c9.131-1.468,18.249-2.819,27.547-2.431c2.895,0.121,5.811-0.117,8.712-0.286c2.896-0.168,5.784-0.477,8.679-0.679
		c1.535-0.107,3.097,0.021,4.612-0.195c8.472-1.209,16.957-2.151,25.539-1.929c1.355,0.035,2.733-0.181,4.075-0.423
		c3.919-0.705,7.819-0.699,11.741-0.012c1.51,0.265,3.055,0.428,4.588,0.453c5.982,0.098,11.981-0.203,17.908,0.974
		c0.827,0.164,1.707,0.081,2.563,0.081c8.559,0.006,17.118,0.053,25.676-0.032c1.843-0.018,3.68-0.525,5.521-0.807
		c1.977,0.496,4.003,0.848,5.922,1.511c18.564,6.408,36.669,13.939,54.384,22.406C830.702,102.731,831.924,103.677,833.212,104.486z
		 M951.378,656.068c-5.258,1.298-9.508,2.706-13.438,5.003c-0.42,0.245-0.73,1.223-0.584,1.708c0.107,0.355,1.153,0.776,1.598,0.626
		c4.014-1.348,7.958-2.881,11.492-5.277C950.671,657.977,950.718,657.563,951.378,656.068z M1007.776,628.712
		c-1.389-0.143-2.474,0.542-2.319,1.427c0.064,0.367,0.569,0.857,0.945,0.931c1.166,0.23,2.255-0.52,2.114-1.413
		C1008.455,629.272,1007.975,628.952,1007.776,628.712z"/>
	<path fill="#ED743E" d="M85.516,412.525c3.952,1.943,8.228,2.187,12.499,2.209c13.357,0.07,26.715-0.007,40.071,0.091
		c3.579,0.026,7.154,0.481,10.732,0.722c1.536,0.104,3.075,0.233,4.612,0.235c13.7,0.021,27.399,0.042,41.099-0.007
		c2.213-0.008,4.426-0.343,6.637-0.553c0.851-0.081,1.695-0.331,2.542-0.335c9.289-0.036,18.371-1.81,27.487-3.263
		c10.476-1.669,20.938-3.424,31.401-5.173c7.256-1.213,14.502-2.48,21.753-3.723c0.169-0.029,0.338-0.075,0.508-0.076
		c8.893-0.085,17.754-2.125,26.629-1.095c11.11,1.289,22.227,0.596,33.335,0.953c4.092,0.131,8.178,0.665,12.249,1.159
		c4.753,0.577,9.49,1.285,14.227,1.987c3.758,0.556,7.311,1.727,10.643,3.597c5.209,2.924,7.711,7.638,8.684,13.254
		c0.248,1.434-0.157,3.066-0.579,4.515c-1.269,4.354-3.729,8.038-6.789,11.349c-3.387,3.664-7.226,6.79-11.333,9.604
		c-8.36,5.729-17.237,10.505-26.598,14.387c-0.474,0.197-0.95,0.391-1.417,0.605c-8.712,3.99-17.391,8.054-26.143,11.956
		c-8.908,3.972-17.891,7.777-26.833,11.672c-3.608,1.571-7.199,3.181-10.789,4.791c-0.458,0.206-0.868,0.52-1.73,1.048
		c1.112,0.657,1.624,1.218,2.146,1.228c6.153,0.125,12.311,0.573,18.449-0.408c2.016-0.322,4.088-0.36,6.137-0.409
		c5.81-0.137,11.62,0.16,17.414-0.85c2.832-0.494,5.81-0.089,8.716-0.229c3.581-0.172,7.155-0.501,10.733-0.737
		c1.707-0.112,3.417-0.223,5.126-0.237c4.966-0.042,9.933,0.02,14.898-0.071c2.216-0.041,4.427-0.337,6.638-0.541
		c1.021-0.094,2.044-0.393,3.055-0.351c7.037,0.297,14.001-0.692,20.991-1.168c6.815-0.464,13.613-1.192,20.421-1.769
		c1.703-0.144,3.418-0.211,5.128-0.212c29.625-0.02,59.251-0.025,88.876-0.03c1.199,0,2.402-0.028,3.594,0.068
		c1.015,0.081,2.047,0.226,3.019,0.517c1.005,0.301,2.013,0.929,1.919,2.092c-0.06,0.741-0.562,1.721-1.171,2.092
		c-1.892,1.151-3.851,2.286-5.929,3.021c-5.482,1.94-10.977,3.893-16.581,5.423c-8.746,2.388-17.557,4.554-26.396,6.574
		c-4.997,1.142-10.094,1.866-15.163,2.668c-10.138,1.604-20.279,3.197-30.438,4.664c-4.902,0.708-9.844,1.144-14.773,1.658
		c-5.947,0.62-11.899,1.194-17.849,1.786c-0.681,0.068-1.368,0.213-2.044,0.174c-6.87-0.393-13.641,0.948-20.477,1.171
		c-2.209,0.072-4.4,0.612-6.605,0.893c-5.087,0.649-10.175,1.298-15.269,1.888c-1.526,0.176-3.074,0.196-4.614,0.216
		c-4.788,0.062-9.55,0.116-14.335,0.772c-4.04,0.554-8.205,0.14-12.31,0.294c-3.069,0.115-6.13,0.446-9.193,0.691
		c-0.853,0.068-1.7,0.2-2.554,0.255c-5.968,0.387-11.961,0.545-17.901,1.193c-8.326,0.909-16.614,2.174-24.916,3.3
		c-6.945,0.942-13.89,1.888-20.831,2.857c-5.59,0.781-11.171,1.631-16.764,2.391c-6.777,0.92-13.58,1.664-20.339,2.692
		c-7.947,1.209-15.866,2.605-23.782,4.007c-1.672,0.296-3.358,0.793-4.9,1.497c-7.005,3.198-13.971,6.483-20.922,9.797
		c-0.832,0.397-1.486,1.17-2.228,1.773c0.439,0.514,0.63,0.957,0.866,0.983c7.639,0.843,15.279,1.672,22.926,2.446
		c6.288,0.637,12.582,1.218,18.877,1.786c1.702,0.153,3.42,0.133,5.126,0.253c2.385,0.169,4.764,0.425,7.149,0.588
		c2.558,0.175,5.118,0.342,7.68,0.415c6.321,0.179,12.629,0.31,18.954,0.724c8.546,0.559,16.969,2.062,25.514,2.55
		c4.083,0.233,8.146,1.022,12.266,0.808c2.557-0.133,5.107-0.404,7.662-0.589c2.046-0.147,4.093-0.337,6.142-0.367
		c4.28-0.063,8.564,0.05,12.842-0.072c3.069-0.088,6.13-0.445,9.196-0.671c1.535-0.113,3.071-0.283,4.608-0.289
		c7.877-0.035,15.755-0.04,23.632-0.018c1.469,0.004,3.034-0.255,4.278,0.667c-0.095,1.651-1.299,1.757-2.186,2.016
		c-4.928,1.442-9.828,3.042-14.838,4.125c-8.191,1.772-16.435,3.34-24.703,4.71c-6.911,1.145-13.892,1.875-20.84,2.802
		c-6.44,0.859-12.876,1.744-19.316,2.601c-6.61,0.879-13.246,1.588-19.827,2.642c-9.542,1.527-19.133,0.758-28.704,0.95
		c-3.252,0.065-6.511,0.107-9.76-0.016c-3.58-0.136-7.153-0.469-10.729-0.729c-1.003-0.073-2.019-0.242-3.029,0.979
		c0.839,0.687,1.493,1.429,2.312,1.859c9.558,5.018,19.336,9.563,29.547,13.1c13.755,4.764,27.739,8.768,41.815,12.47
		c10.098,2.656,20.099,5.684,30.219,8.245c16.931,4.285,34.018,7.851,51.301,10.453c8.798,1.325,17.539,3.036,26.341,4.332
		c7.438,1.095,14.921,1.902,22.396,2.726c6.282,0.693,12.579,1.246,18.874,1.817c1.702,0.154,3.419,0.202,5.129,0.202
		c26.029,0.008,52.059,0.003,78.088-0.008c1.369-0.001,2.758,0.062,4.103-0.135c11.08-1.628,22.226-0.835,33.332-0.722
		c7.496,0.076,14.98,1.142,22.472,1.73c1.705,0.134,3.42,0.168,5.131,0.171c8.22,0.015,16.44,0.003,24.659,0.002
		c1.199,0,2.398-0.024,3.596,0.014c4.836,0.155,6.417,1.724,6.674,6.459c0.207,3.807-1.018,7.14-3.574,9.859
		c-3.516,3.739-7.104,7.431-10.909,10.869c-2.003,1.809-4.437,3.217-6.842,4.494c-13.453,7.143-26.82,14.415-39.863,22.308
		c-9.088,5.5-19.022,9.362-28.931,13.2c-13.923,5.394-28.309,9.206-42.714,13.012c-11.584,3.061-23.141,6.248-34.605,9.725
		c-13.295,4.033-26.844,6.911-40.439,9.636c-12.92,2.59-25.841,5.172-38.773,7.698c-1.834,0.358-3.733,0.497-5.606,0.53
		c-4.451,0.078-8.904,0.02-13.357,0.039c-4.618,0.019-9.216-0.013-13.823,0.745c-3.009,0.495-6.151,0.128-9.228,0.279
		c-3.581,0.176-7.157,0.463-10.73,0.765c-4.257,0.36-8.501,0.998-12.763,1.141c-9.569,0.323-19.092,1.735-28.696,1.182
		c-1.195-0.069-2.398-0.047-3.595-0.01c-7.898,0.241-15.692-0.861-23.504-1.768c-1.527-0.177-3.073-0.185-4.607-0.307
		c-2.384-0.189-4.765-0.412-7.147-0.615c-1.533-0.131-3.066-0.358-4.6-0.363c-12.158-0.04-24.317,0.033-36.475-0.081
		c-4.822-0.045-9.02,1.616-13.149,3.814c-3.511,1.869-3.423,6.176,0.047,8.248c2.239,1.337,4.684,2.112,7.287,2.272
		c1.707,0.105,3.423,0.084,5.135,0.085c12.672,0.006,25.344-0.003,38.016,0.005c4.106,0.003,8.185,0.066,12.278,0.757
		c4.2,0.709,8.499,0.82,12.747,1.272c2.379,0.253,4.736,0.717,7.113,1c8.827,1.052,17.665,1.966,26.565,2.132
		c0.936,0.017,1.867,0.352,2.758,0.532c-0.179,1.492-1.149,1.529-1.902,1.758c-3.768,1.143-7.527,2.32-11.327,3.346
		c-10.409,2.81-20.776,5.811-31.273,8.252c-13.165,3.062-26.25,6.538-39.631,8.614c-9.464,1.468-18.945,2.834-28.407,4.317
		c-4.395,0.689-8.765,1.539-13.143,2.336c-11.783,2.146-23.54,4.453-35.358,6.382c-4.659,0.76-9.379,1.631-14.433,0.84
		c0,1.5,0,2.637-0.001,3.773c-1.11-2.293-2.39-4.519-3.302-6.886c-9.791-25.417-17.663-51.416-23.495-78.024
		c-6.679-30.476-10.578-61.299-11.918-92.474c-0.882-20.53-0.645-41.038,0.739-61.519c3.503-51.837,14.087-102.225,31.572-151.157
		C83.872,415.512,84.772,414.046,85.516,412.525z"/>
	<path fill="#ED743E" d="M120.945,872.75c7.364,0,14.73-0.091,22.093,0.021c9.263,0.142,18.443-0.729,27.612-1.873
		c5.768-0.719,11.564-1.237,17.311-2.086c7.785-1.15,15.545-2.481,23.3-3.826c9.949-1.726,19.879-3.565,29.824-5.318
		c10.279-1.812,20.586-3.476,30.843-5.406c5.884-1.108,11.697-2.599,17.534-3.949c13.844-3.203,27.71-6.313,41.515-9.676
		c9.977-2.431,19.848-5.28,29.573-8.607c4.561-1.561,9.186-2.559,14.079-2.488c4.916,0.071,9.024,1.774,12.519,5.078
		c2.487,2.351,4.939,4.75,7.27,7.255c6.852,7.365,6.906,14.147,2.34,22.518c-1.993,3.655-5.013,6.539-8.541,8.73
		c-6.396,3.973-12.747,8.06-19.389,11.587c-13.605,7.226-27.297,14.302-41.128,21.086c-13.068,6.409-26.575,11.831-40.389,16.464
		c-9.895,3.319-19.679,6.998-29.667,10.002c-12.291,3.697-24.736,6.883-37.128,10.241c-4.131,1.12-8.315,2.044-12.449,3.155
		c-1.075,0.289-2.05,0.945-3.657,1.712c1.127,0.624,1.649,1.141,2.209,1.187c5.45,0.448,10.942,0.552,16.352,1.273
		c7.162,0.955,14.4,0.329,21.503,1.131c10.611,1.197,21.204,0.682,31.803,0.82c10.274,0.133,20.552,0.041,30.827-0.031
		c2.385-0.017,4.768-0.357,7.153-0.54c1.875-0.144,3.75-0.391,5.625-0.396c15.414-0.042,30.828-0.067,46.242-0.033
		c5.326,0.012,10.604,0.753,15.718,2.168c4.762,1.317,7.139,6.534,5.331,11.085c-0.433,1.09-1.066,2.198-1.887,3.016
		c-1.688,1.682-3.371,3.517-5.406,4.673c-4.452,2.526-9.024,4.901-13.735,6.893c-3.926,1.66-8.132,2.653-12.193,4.004
		c-2.108,0.702-4.183,1.51-6.253,2.322c-4.934,1.936-9.802,4.055-14.796,5.822c-7.425,2.627-14.922,5.054-22.412,7.493
		c-10.288,3.35-20.89,5.321-31.557,6.966c-5.748,0.886-11.505,1.729-17.274,2.467c-4.916,0.629-9.853,1.087-14.783,1.607
		c-3.91,0.413-7.83,0.744-11.728,1.25c-0.965,0.125-1.86,0.787-2.788,1.203c-1.132-0.745-2.406-1.339-3.372-2.257
		c-8.153-7.749-16.26-15.545-24.344-23.365c-0.713-0.69-1.165-1.649-1.738-2.484c5.712,1.058,11.42,2.14,17.138,3.167
		c5.719,1.027,11.437,2.034,17.275,2.21c3.064,0.093,6.127,0.804,9.174,0.708c10.007-0.317,19.614-2.699,28.945-6.232
		c0.931-0.353,1.797-0.993,2.558-1.654c1.612-1.4,1.761-3.058,0.223-4.398c-1.264-1.101-2.713-2.152-4.265-2.725
		c-2.555-0.942-5.22-1.736-7.907-2.139c-8.108-1.214-16.249-2.208-24.377-3.291c-6.266-0.835-12.587-1.382-18.784-2.574
		c-11.585-2.229-23.098-4.834-34.64-7.284c-1.004-0.213-1.997-0.489-3.009-0.647c-1.79-0.279-2.001-0.081-3.038,2.477
		c-1.93-2.156-3.925-4.259-5.777-6.48c-2.958-3.549-5.857-7.15-8.704-10.789c-0.824-1.053-1.384-2.312-2.066-3.477
		c1.523-0.193,3.066-0.293,4.568-0.595c4.193-0.843,8.365-1.79,12.553-2.66c14.258-2.963,28.341-6.571,42.065-11.48
		c11.598-4.149,23.179-8.344,34.754-12.557c14.33-5.215,29.077-9.057,43.809-12.856c11.98-3.089,22.627-8.698,32.893-15.257
		c3.185-2.035,5.906-4.692,7.741-8.074c3.977-7.329,0.57-15.284-7.532-17.26c-3.138-0.765-6.405-1.134-9.635-1.364
		c-7.034-0.499-13.984,0.555-20.946,1.403c-5.984,0.728-11.704,2.513-17.464,4.13c-11.525,3.237-23.188,5.995-34.478,10.052
		c-8.373,3.008-16.809,5.842-25.212,8.767c-7.272,2.532-14.57,4.992-21.794,7.653c-6.926,2.55-14.041,4.349-21.222,5.977
		c-12.014,2.724-24.008,5.541-35.999,8.365c-1.488,0.35-2.932,0.931-4.353,1.51c-1.052,0.428-1.526,1.334-1.443,2.472
		c0.05,0.681,0.177,1.356,0.269,2.034c-0.959-1.17-2.063-2.25-2.854-3.523c-6.264-10.081-12.49-20.186-18.664-30.323
		C121.935,875.65,121.525,874.148,120.945,872.75z"/>
	<path fill="#F18C3F" d="M769.033,78.164c-1.84,0.282-3.678,0.788-5.521,0.807c-8.558,0.086-17.117,0.038-25.676,0.032
		c-0.855-0.001-1.735,0.083-2.563-0.081c-5.927-1.177-11.926-0.876-17.908-0.974c-1.532-0.025-3.078-0.188-4.588-0.453
		c-3.922-0.688-7.822-0.694-11.741,0.012c-1.342,0.242-2.72,0.458-4.075,0.423c-8.582-0.222-17.067,0.72-25.539,1.929
		c-1.516,0.216-3.077,0.088-4.612,0.195c-2.895,0.202-5.783,0.511-8.679,0.679c-2.901,0.168-5.817,0.407-8.712,0.286
		c-9.298-0.388-18.416,0.962-27.547,2.431c-12.83,2.063-25.664,4.123-38.535,5.91c-12.382,1.719-24.664,3.833-36.778,6.97
		c-11.438,2.963-23.138,4.594-34.799,6.425c-8.106,1.273-16.157,2.91-24.21,4.499c-8.734,1.724-17.587,2.533-26.39,3.74
		c-6.834,0.938-13.698,0.32-20.469,1.066c-6.325,0.697-12.621,0.796-18.946,0.842c-1.195,0.009-2.405,0.008-3.581-0.17
		c-0.584-0.088-1.105-0.588-2.09-1.149c1.2-0.985,1.969-1.922,2.959-2.376c4.351-1.996,8.672-4.119,13.174-5.712
		c17.26-6.108,34.531-12.192,51.905-17.964c12.046-4.001,23.681-8.93,35.223-14.145c3.58-1.618,7.275-3.002,10.972-4.34
		c8.041-2.909,16.118-5.72,24.177-8.57c5.086-0.564,10.176-1.109,15.262-1.701c6.111-0.711,12.21-1.529,18.327-2.182
		c10.365-1.106,20.739-2.134,31.113-3.163c4.761-0.472,9.523-0.98,14.297-1.272c6.843-0.417,13.638,0.005,20.438,1.068
		c17.564,2.747,35.165,5.263,52.497,9.307c18.482,4.313,36.907,8.846,54.973,14.708C763.984,76.083,766.489,77.184,769.033,78.164z"
		/>
	<path fill="#EB673F" d="M144.231,910.774c-0.092-0.678-0.219-1.353-0.269-2.034c-0.083-1.138,0.391-2.044,1.443-2.472
		c1.421-0.579,2.865-1.159,4.353-1.51c11.991-2.825,23.985-5.641,35.999-8.365c7.181-1.628,14.296-3.427,21.222-5.977
		c7.224-2.66,14.522-5.121,21.794-7.653c8.403-2.926,16.839-5.759,25.212-8.767c11.29-4.056,22.953-6.815,34.478-10.052
		c5.759-1.618,11.479-3.402,17.464-4.13c6.962-0.847,13.912-1.902,20.946-1.403c3.231,0.229,6.497,0.598,9.635,1.364
		c8.101,1.976,11.509,9.931,7.532,17.26c-1.835,3.382-4.556,6.039-7.741,8.074c-10.265,6.559-20.913,12.168-32.893,15.257
		c-14.732,3.799-29.479,7.641-43.809,12.856c-11.575,4.213-23.156,8.408-34.754,12.557c-13.723,4.909-27.807,8.516-42.065,11.48
		c-4.188,0.87-8.36,1.817-12.553,2.66c-1.502,0.302-3.044,0.402-4.568,0.595c-0.28-0.357-0.561-0.714-0.842-1.071
		c-0.228-1.402-0.928-2.445-2.281-2.991c-0.272-0.362-0.545-0.723-0.817-1.084c-0.209-1.418-0.905-2.471-2.271-3.021
		c-0.271-0.365-0.542-0.731-0.813-1.095c-0.201-1.402-0.888-2.447-2.223-3.015c-0.278-0.394-0.556-0.788-0.833-1.181
		c-0.462-0.625-0.925-1.25-1.387-1.876c-0.239-0.348-0.478-0.696-0.716-1.043c-0.169-1.426-0.838-2.498-2.192-3.084
		c-0.28-0.393-0.561-0.786-0.84-1.179c-0.433-0.627-0.867-1.256-1.301-1.884c-0.257-0.378-0.515-0.756-0.772-1.133
		c-0.45-0.648-0.9-1.296-1.35-1.944c-0.241-0.364-0.482-0.727-0.722-1.091c-0.46-0.664-0.921-1.329-1.381-1.993
		C144.688,911.476,144.46,911.125,144.231,910.774z"/>
	<path fill="#ED743E" d="M127.611,324.142c1.458,1.156,3.09,1.232,4.857,0.926c3.363-0.583,6.738-1.111,10.119-1.583
		c12.17-1.697,24.307-3.75,36.529-4.903c8.292-0.782,16.723-0.98,25.044,0.451c3.529,0.607,7.052,1.259,10.565,1.95
		c0.997,0.196,2.01,0.487,2.918,0.932c2.886,1.416,3.566,5.116,1.167,7.264c-1.215,1.088-2.892,1.734-4.453,2.347
		c-2.034,0.798-4.358,0.732-6.546,2.011c0.215,0.854,0.431,1.64,0.609,2.434c0.619,2.767,0.095,4.215-2.214,5.612
		c-1.012,0.612-2.143,1.062-3.266,1.455c-8.224,2.88-16.445,5.768-24.695,8.57c-5.833,1.981-11.518,4.275-17.08,6.938
		c-9.396,4.498-18.849,8.885-28.37,13.11c-4.363,1.936-8.907,3.495-13.438,5.019c-7.448,2.505-14.952,4.843-22.431,7.251
		c0.456-1.447,0.776-2.954,1.387-4.332c7.947-17.933,16.904-35.352,26.797-52.289C125.78,326.156,126.77,325.192,127.611,324.142z"
		/>
	<path fill="#F18C3F" d="M1049.035,284.921c-1.054,0.548-2.062,1.225-3.17,1.623c-9.34,3.357-18.762,6.493-28.034,10.025
		c-12.484,4.755-24.577,10.386-36.209,16.992c-7.443,4.227-15.017,8.19-23.277,10.679c-5.463,1.646-11.005,2.607-16.701,2.155
		c-2.188-0.174-4.35-0.802-6.494-1.342c-0.808-0.204-1.578-0.673-2.284-1.142c-5.7-3.785-5.581-9.576,0.268-13.117
		c4.39-2.657,8.905-5.122,13.18-7.949c6.702-4.431,13.156-9.24,19.886-13.625c8.167-5.321,16.298-10.759,24.842-15.419
		c7.804-4.256,16.247-7.24,25.013-9.09c4.686-0.989,9.38-1.938,14.071-2.906c0.578,0.011,1.156,0.023,1.734,0.034
		c1.969,2.306,4.032,4.539,5.884,6.936c2.994,3.876,5.886,7.834,8.742,11.814C1047.459,281.944,1048.192,283.472,1049.035,284.921z"
		/>
	<path fill="#F18C3F" d="M425.826,1122.202c1.717-0.991,3.615-0.922,5.498-0.932c5.306-0.028,10.615,0.039,15.918-0.107
		c4.094-0.112,8.181-0.506,12.272-0.741c1.707-0.098,3.43-0.254,5.127-0.131c4.943,0.356,9.892,0.709,14.81,1.302
		c8.196,0.989,16.363,1.032,24.548-0.063c11.525-1.541,23.085-2.841,34.577-4.594c13.263-2.023,26.586-2.095,39.927-1.813
		c4.257,0.09,8.523,0.676,12.744,1.308c2.888,0.433,5.646,1.458,7.708,3.745c1.635,1.813,1.63,3.804-0.283,5.366
		c-1.015,0.828-2.323,1.516-3.596,1.764c-2.674,0.522-5.416,1.011-8.125,0.983c-7.581-0.079-15.012,0.987-22.403,2.459
		c-15.941,3.174-31.849,6.509-47.635,10.391c-1.647,0.405-3.222,1.102-4.831,1.663c-1.862-0.152-3.746-0.17-5.582-0.476
		c-25.413-4.233-50.434-10.123-75.004-17.884C429.563,1123.833,427.714,1122.956,425.826,1122.202z"/>
	<path fill="#F18C3F" d="M1143.858,527.543c-6.374,1.273-12.769,2.451-19.116,3.843c-8.024,1.759-15.979,3.841-24.023,5.503
		c-6.276,1.297-12.089,3.43-17.629,6.735c-7.654,4.567-15.704,8.367-24.576,10.136c-3.406,0.679-6.804,0.789-10.219,0.53
		c-1.323-0.1-2.721-0.508-3.886-1.142c-3.126-1.701-3.802-5.098-1.495-7.789c1.205-1.405,2.676-2.712,4.277-3.622
		c4.012-2.28,8.106-4.435,12.277-6.409c6.955-3.291,14.079-6.193,20.826-9.956c6.722-3.748,13.724-6.989,20.564-10.529
		c11.092-5.742,22.144-11.56,33.233-17.308c1.355-0.702,2.832-1.17,4.252-1.746c0.339,0.961,0.825,1.897,0.995,2.887
		c1.559,9.106,3.069,18.22,4.572,27.335C1143.993,526.506,1143.88,527.032,1143.858,527.543z"/>
	<path fill="#EB673F" d="M182.204,961.259c1.037-2.558,1.248-2.756,3.038-2.477c1.012,0.158,2.005,0.434,3.009,0.647
		c11.542,2.45,23.055,5.055,34.64,7.284c6.197,1.192,12.518,1.739,18.784,2.574c8.128,1.083,16.269,2.077,24.377,3.291
		c2.687,0.402,5.353,1.197,7.907,2.139c1.552,0.572,3,1.624,4.265,2.725c1.538,1.339,1.389,2.998-0.223,4.398
		c-0.762,0.661-1.627,1.302-2.558,1.654c-9.331,3.533-18.938,5.916-28.945,6.232c-3.047,0.096-6.111-0.615-9.174-0.708
		c-5.838-0.177-11.556-1.184-17.275-2.21c-5.718-1.026-11.426-2.109-17.138-3.167c0,0-0.043-0.045-0.043-0.045
		c-2.281-4.903-6.348-8.127-10.565-11.209c-0.94-1.061-1.881-2.121-2.82-3.181c-0.633-2.554-2.236-4.204-4.71-5.041
		C183.915,963.197,183.06,962.228,182.204,961.259z"/>
	<path fill="#F18C3F" d="M1081.488,337.453c-1.961,0.576-4.002,0.964-5.87,1.757c-12.763,5.42-25.64,10.523-38.877,14.69
		c-8.358,2.631-16.918,4.27-25.6,5.266c-4.293,0.493-8.57,0.216-12.542-1.768c-0.874-0.436-1.628-1.112-2.826-1.949
		c0.918-0.551,1.415-1.071,1.976-1.153c6.492-0.944,12.62-3.105,18.653-5.552c11.098-4.5,22.234-8.917,33.22-13.679
		c6.736-2.92,13.605-5.631,19.825-9.65c1.285-0.83,2.742-1.395,4.12-2.082C1076.842,327.685,1079.465,332.401,1081.488,337.453z"/>
	<path fill="#ED743E" d="M997.459,222.679c-4.822-3.492-8.99-7.637-12.466-12.468c0.843,0.546,1.799,0.971,2.506,1.653
		c2.819,2.72,5.591,5.492,8.311,8.312C996.492,220.883,996.916,221.838,997.459,222.679z"/>
	<path fill="#ED743E" d="M192.301,972.387c4.217,3.082,8.284,6.306,10.565,11.209C199.118,980.887,194.47,975.956,192.301,972.387z"
		/>
	<path fill="#ED743E" d="M978.649,204.21c-4.126-1.615-6.688-4.914-9.07-8.404C973.333,197.823,976.169,200.824,978.649,204.21z"/>
	<path fill="#ED743E" d="M1011.859,238.083c-3.466-2.404-6.778-4.95-8.389-9.066C1006.845,231.506,1009.855,234.33,1011.859,238.083
		z"/>
	<path fill="#ED743E" d="M861.386,119.006c-4.265-1.66-8.654-3.09-12.005-6.444C853.547,114.406,857.911,115.879,861.386,119.006z"
		/>
	<path fill="#ED743E" d="M966.315,192.913c-2.868-0.762-4.633-2.776-5.982-5.259C962.951,188.701,964.821,190.593,966.315,192.913z"
		/>
	<path fill="#ED743E" d="M1019.071,246.299c-2.54-1.333-4.566-3.119-5.315-6.028
		C1016.092,241.785,1018.051,243.629,1019.071,246.299z"/>
	<path fill="#ED743E" d="M916.545,154.031c-2.158-1.485-4.316-2.969-6.471-4.449C913.037,149.9,915.156,151.436,916.545,154.031z"/>
	<path fill="#ED743E" d="M959.213,186.724c-2.509-0.47-4.057-2.066-5.052-4.305C956.426,183.176,957.977,184.766,959.213,186.724z"
		/>
	<path fill="#ED743E" d="M1025.169,253.487c-2.136-1.046-3.715-2.563-4.229-4.982
		C1022.895,249.705,1024.505,251.196,1025.169,253.487z"/>
	<path fill="#ED743E" d="M184.771,964.165c2.474,0.837,4.078,2.487,4.71,5.041C187.324,968.072,185.915,966.242,184.771,964.165z"/>
	<path fill="#ED743E" d="M868.675,123.089c-2.298-0.56-4.539-1.22-5.937-3.361C864.911,120.51,867.028,121.385,868.675,123.089z"/>
	<path fill="#ED743E" d="M875.789,127.215c-2.266-0.618-4.522-1.253-5.864-3.439C872.063,124.614,874.203,125.444,875.789,127.215z"
		/>
	<path fill="#ED743E" d="M941.731,172.351c-2.217-0.239-3.46-1.955-4.964-3.269C939.186,169.018,940.541,170.559,941.731,172.351z"
		/>
	<path fill="#ED743E" d="M1029.392,258.622c-1.849-0.703-2.969-2.012-3.311-3.968C1027.72,255.532,1028.924,256.77,1029.392,258.622
		z"/>
	<path fill="#ED743E" d="M946.88,176.455c-1.977-0.286-3.29-1.395-4.017-3.23C944.742,173.633,945.943,174.88,946.88,176.455z"/>
	<path fill="#ED743E" d="M951.916,180.595c-1.914-0.351-3.201-1.456-3.915-3.248C949.867,177.757,951.035,179.003,951.916,180.595z"
		/>
	<path fill="#ED743E" d="M885.935,133.43c-1.53-0.767-3.06-1.534-4.587-2.296C883.309,131.044,884.798,131.885,885.935,133.43z"/>
	<path fill="#ED743E" d="M923.727,159.172c-1.124-0.783-2.248-1.566-3.37-2.346C922.255,156.499,923.157,157.596,923.727,159.172z"
		/>
	<path fill="#ED743E" d="M894.138,138.572c-1.498-0.4-2.911-0.927-3.656-2.445C891.759,136.858,893.478,136.925,894.138,138.572z"/>
	<path fill="#ED743E" d="M880.814,130.344c-1.499-0.371-2.903-0.89-3.687-2.366C878.403,128.696,880.141,128.691,880.814,130.344z"
		/>
	<path fill="#ED743E" d="M936.044,168.407c-1.137-0.827-2.274-1.655-3.409-2.479C934.528,165.72,935.519,166.743,936.044,168.407z"
		/>
	<path fill="#ED743E" d="M931.966,165.324c-1.148-0.832-2.297-1.664-3.443-2.492C930.432,162.616,931.43,163.652,931.966,165.324z"
		/>
	<path fill="#ED743E" d="M927.862,162.243c-1.144-0.812-2.288-1.623-3.429-2.431C926.333,159.558,927.32,160.587,927.862,162.243z"
		/>
	<path fill="#ED743E" d="M151.283,921.05c1.354,0.586,2.023,1.659,2.192,3.084C152.267,923.444,151.416,922.502,151.283,921.05z"/>
	<path fill="#ED743E" d="M156.412,928.235c1.335,0.569,2.022,1.614,2.223,3.015C157.417,930.595,156.562,929.674,156.412,928.235z"
		/>
	<path fill="#ED743E" d="M159.447,932.345c1.366,0.55,2.062,1.603,2.271,3.021C160.488,934.714,159.626,933.786,159.447,932.345z"/>
	<path fill="#ED743E" d="M162.535,936.451c1.353,0.546,2.053,1.59,2.281,2.991C163.572,938.812,162.718,937.887,162.535,936.451z"/>
	<path fill="#ED743E" d="M919.541,156.094c-0.769-0.487-1.538-0.973-2.305-1.456C918.466,154.398,919.18,154.967,919.541,156.094z"
		/>
	<path fill="#ED743E" d="M909.614,148.831c-0.88-0.442-1.76-0.883-2.637-1.321C908.14,147.389,909.175,147.516,909.614,148.831z"/>
	<path fill="#ED743E" d="M906.207,146.852c-0.776-0.478-1.552-0.955-2.325-1.429C905.107,145.172,905.826,145.737,906.207,146.852z"
		/>
	<path fill="#ED743E" d="M903.163,144.798c-0.783-0.464-1.567-0.928-2.347-1.389C902.056,143.102,902.745,143.72,903.163,144.798z"
		/>
	<path fill="#ED743E" d="M900.052,142.742c-0.76-0.453-1.52-0.907-2.276-1.355C899.019,141.031,899.645,141.704,900.052,142.742z"/>
	<path fill="#ED743E" d="M897.269,140.614c-0.852-0.404-1.705-0.808-2.554-1.208C895.865,139.186,896.828,139.347,897.269,140.614z"
		/>
	<path fill="#ED743E" d="M888.752,135.532c-0.757-0.433-1.514-0.867-2.267-1.296C887.701,133.869,888.346,134.492,888.752,135.532z"
		/>
	<path fill="#ED743E" d="M90.916,810.319c0.286,0.643,0.572,1.286,0.857,1.928C91.487,811.604,91.202,810.961,90.916,810.319z"/>
	<path fill="#ED743E" d="M93.041,815.467c0.273,0.608,0.546,1.216,0.818,1.823C93.586,816.682,93.314,816.075,93.041,815.467z"/>
	<path fill="#ED743E" d="M96.106,822.652c0.279,0.603,0.558,1.206,0.836,1.808C96.663,823.857,96.384,823.254,96.106,822.652z"/>
	<path fill="#ED743E" d="M101.168,833.929c0.301,0.613,0.602,1.226,0.902,1.837C101.769,835.153,101.469,834.541,101.168,833.929z"
		/>
	<path fill="#ED743E" d="M116.569,864.735c0.319,0.576,0.637,1.151,0.955,1.725C117.206,865.884,116.887,865.309,116.569,864.735z"
		/>
	<path fill="#ED743E" d="M147.02,914.91c0.45,0.648,0.9,1.297,1.35,1.944C147.92,916.206,147.47,915.558,147.02,914.91z"/>
	<path fill="#ED743E" d="M149.142,917.988c0.434,0.628,0.868,1.256,1.301,1.884C150.009,919.243,149.575,918.615,149.142,917.988z"
		/>
	<path fill="#ED743E" d="M154.191,925.178c0.463,0.626,0.925,1.251,1.387,1.876C155.116,926.428,154.654,925.803,154.191,925.178z"
		/>
	<path fill="#ED743E" d="M1031.86,261.839c-0.578-0.011-1.156-0.023-1.734-0.034c0.03-0.706,0.06-1.412,0.091-2.117
		C1030.766,260.405,1031.313,261.122,1031.86,261.839z"/>
	<path fill="#ED743E" d="M144.917,911.826c0.461,0.665,0.921,1.329,1.381,1.993C145.837,913.155,145.377,912.49,144.917,911.826z"/>
	<path fill="#ED743E" d="M433.272,421.742c-3.056-0.402-6.052-0.845-8.363-3.293c-1.99-2.109-2.548-4.408-1.344-7.027
		c2.27-4.937,4.446-9.925,7.665-14.364c1.632-2.251,3.573-4.097,6.044-5.413c9.761-5.2,20.118-8.538,31.133-9.539
		c4.994-0.454,9.993,0.493,14.424,2.8c4.173,2.173,7.55,5.403,7.781,10.638c0.094,2.143,1.021,3.533,3.049,4.226
		c0.306,0.104,0.567,0.371,0.821,0.594c0.628,0.551,0.616,1.813-0.094,2.242c-0.866,0.523-1.811,0.914-2.715,1.375
		c-1.819,0.926-3.813,1.622-5.421,2.829c-8.535,6.408-18.329,9.739-28.584,12.003c-3.342,0.738-6.72,1.045-10.154,1.186
		c-3.908,0.161-7.796,0.836-11.691,1.307C434.978,421.407,434.143,421.59,433.272,421.742z"/>
	<path fill="#EB673F" d="M951.378,656.068c-0.661,1.495-0.707,1.909-0.932,2.061c-3.534,2.396-7.479,3.929-11.492,5.277
		c-0.445,0.15-1.491-0.271-1.598-0.626c-0.146-0.485,0.164-1.463,0.584-1.708C941.87,658.774,946.121,657.366,951.378,656.068z"/>
	<path fill="#EB673F" d="M1007.776,628.712c0.199,0.24,0.68,0.56,0.74,0.946c0.141,0.892-0.948,1.642-2.114,1.413
		c-0.376-0.074-0.881-0.564-0.945-0.931C1005.302,629.254,1006.387,628.569,1007.776,628.712z"/>
</g>
</svg>
