<?xml version="1.0" encoding="utf-8"?>
<!-- Designed by Vexels.com - 2020 All Rights Reserved - https://vexels.com/terms-and-conditions/  -->
<svg version="1.1" id="Capa_1" xmlns="http://www.w3.org/2000/svg" xmlns:xlink="http://www.w3.org/1999/xlink" x="0px" y="0px"
	 viewBox="0 0 1200 1200" enable-background="new 0 0 1200 1200" xml:space="preserve">
<g>
	<path fill="#588B47" d="M444.219,143.149c10.221-6.762,22.366-6.049,33.642-7.794c24.323-3.764,48.917-4.948,73.614-4.476
		c46.375,0.887,91.383,9.176,135.403,23.427c1.29,1.305,2.581,2.613,3.871,3.92c0,0-0.276-0.187-0.275-0.187
		c14.901,14.397,29.735,28.862,44.722,43.167c10.791,10.301,21.873,20.296,32.668,30.593c20.641,19.686,42.07,38.646,61.547,59.433
		c32.943,35.158,61.936,73.249,80.465,118.45c12.067,29.436,22.557,59.339,31.183,89.966c6.525,23.168,10.332,46.804,13.76,70.526
		c0.895,6.191,2.077,12.77-1.77,19.928c-16.556,1.284-33.136,0.251-51.065-1.728c1.302,4.186,2.202,7.076,3.101,9.967
		c-6.828,1.013-12.453-2.292-18.255-5.041c-22.051-10.448-44.096-20.908-66.209-31.223c-2.852-1.33-6.088-1.833-9.148-2.718
		c-0.511-0.198-1.021-0.398-1.53-0.598c0.449,0.26,0.897,0.521,1.346,0.781c0.724,2.426,0.8,5.385,2.28,7.191
		c8.138,9.937,16.227,19.965,25.06,29.269c22.393,23.589,49.701,40.674,77.657,56.626c11.103,6.335,23.229,10.873,34.89,16.229
		c-0.102,2.364-0.205,4.728-0.305,7.091c-8.28-1.071-16.533-2.684-24.848-3.112c-26.707-1.374-52.226-8.057-77.058-17.324
		c-42.909-16.011-85.263-33.406-126.714-52.952c-3.983-1.878-8.52-2.579-12.799-3.826c-10.768-10.213-22.568-18.598-37.6-21.256
		c-14.14-8.878-28.343-17.657-42.408-26.651c-38.001-24.3-74.396-50.749-108.32-80.573c-9.611-8.45-20.05-15.957-30.109-23.897
		c1.537-9.046-2.386-15.851-9.857-22.79c-4.661,0.461-10.201,1.01-15.742,1.558c-4.368-5.486-8.317-11.378-13.172-16.391
		c-30.967-31.975-63.355-62.503-92.719-96.125c-22.714-26.008-40.566-54.933-57.945-84.356c-4.566-7.731-7.786-16.257-11.624-24.418
		c2.363-2.018,4.726-4.036,7.089-6.054c8.085-1.409,14.849-5.04,19.772-11.769c9.105-3.307,18.211-6.615,27.315-9.912
		c-0.586,3.108-1.178,6.203-1.754,9.302c-1.627,8.751,3.439,14.043,11.938,11.87c4.966-1.27,9.717-3.506,14.436-5.597
		c18.436-8.168,37.591-14.037,57.365-17.799c51.933-9.878,104.306-9.658,156.806-6.71c18.086,1.015,36.197,1.638,54.304,2.207
		c4.349,0.137,9.292,0.78,11.791-4.699c-1.948-6.566-8.257-7.748-13.393-9.821c-8.386-3.385-17.316-5.425-25.688-8.838
		c-13.405-5.464-27.248-8.565-41.633-8.233c-25.88,0.598-51.753,1.631-77.619,2.718
		C475.188,141.151,459.708,142.251,444.219,143.149z M693.391,262.494c4.855-4.148,6.332-9.403,4.906-15.505
		c-1.2-5.132-6.092-8.754-11.229-8.496c-4.998,0.251-9.109,4.965-8.228,10.794c0.539,3.563,2.916,6.848,4.468,10.257
		c-3.287,2.986-7.086,5.58-9.742,9.05c-4.08,5.333-1.786,14.223,4.308,16.21c9.388,3.061,18.848,3.46,27.32-3.124
		c4.949-3.846,4.83-9.279-0.388-12.504C701.056,266.859,697.199,264.716,693.391,262.494z M825.545,371.961
		c-1.022-19.065-13.69-29.697-28.414-38.524c-2.408-1.443-6.26-0.926-9.376-0.616c-3.733,0.372-6.432,5.806-4.532,9.033
		c1.605,2.726,3.575,5.383,5.894,7.513c5.219,4.793,10.755,9.241,16.162,13.828c-15.195,11.476-15.947,13.844-10.556,33.199
		c-6.861-1.488-13.672-3.896-20.593-4.267c-12.891-0.691-19.59,10.973-13.472,22.37c6.274,11.688,17.533,17.074,30.42,14.496
		c2.511-0.502,4.953-1.41,7.478-1.775c11.459-1.656,16.883-8.241,16.445-19.763c6.709-0.917,12.127-4.034,14.808-10.351
		c2.58-6.081,2.014-12.376-0.849-18.375C827.873,376.45,826.687,374.216,825.545,371.961z M614.116,321.946
		c-2.331,0.027-5.253,0.959-6.872-0.102c-3.693-2.419-6.557-6.068-10.108-8.752c-4.829-3.65-10.596-3.488-14.055-0.122
		c-3.699,3.599-4.539,9.044-2.289,14.126c2.172,4.907,5.441,8.549,10.721,10.214c9.746,3.073,19.395,6.475,29.209,9.305
		c8.892,2.564,9.611,1.939,15.505-8.808c8.74-10.37,9.467-12.394,3.366-21.734c-13.281-20.329-30.872-36.535-50.478-50.62
		c-0.675-0.485-2.196,0.21-4.685,0.531c1.812,3.656,3.178,7.064,5.084,10.136c5.81,9.36,12.22,18.37,17.617,27.955
		C610.239,309.593,611.839,315.961,614.116,321.946z M678.408,453.778c5.095-5.87,4.745-11.656-0.268-17.368
		c-20.481-23.336-41.303-46.331-66.195-65.166c-1.214-0.918-3.184-0.836-7.163-1.779c2.63,4.458,3.935,7.145,5.667,9.522
		c7.229,9.924,14.762,19.632,21.787,29.696c2.087,2.989,2.879,6.883,4.264,10.362c-5.389-1.895-10.757-3.854-16.174-5.667
		c-5.363-1.795-10.694,1.634-10.761,7.435c-0.043,3.715,0.566,7.74,2.047,11.114c4.27,9.728,11.565,17.186,20.841,21.974
		c8.515,4.396,17.574,7.995,26.748,10.771c7.116,2.153,14.838,3.08,22.908-1.56C680.667,459.476,679.538,456.627,678.408,453.778z
		 M434.353,267.147c-7.588,17.694-4.229,28.214,12.06,33.078c13.032,3.892,26.521,4.286,39.054-2.796
		c1.509-0.853,2.451-2.709,3.644-4.087c-3.039-5.467-8.286-5.902-13.251-6.889c5.752-9.405,6.823-19.403,2.163-29.325
		c-5.35-11.391-14.026-19.847-25.879-24.464c-2.858-1.113-6.282-0.993-9.452-1.044c-10.574-0.172-19.368,12.43-14.832,21.628
		C430.121,257.833,432.194,262.511,434.353,267.147z M611.268,463.433c7.353,6.96,11.336,11.123,15.716,14.813
		c32.303,27.207,66.346,52.009,102.606,73.695c4.992,2.985,10.209,5.646,15.514,8.031c2.894,1.301,6.28,2.572,9.279,2.261
		c2.808-0.291,5.979-2.2,7.812-4.386c0.792-0.944-0.714-5.177-2.333-6.526c-4.441-3.703-9.345-6.921-14.33-9.889
		c-37.323-22.214-74.683-44.366-112.101-66.419C627.489,471.509,621.199,468.596,611.268,463.433z M564.686,194.266
		c-0.028-1.115-0.057-2.23-0.085-3.345c-6.895-1.347-13.752-2.949-20.692-3.991c-15.909-2.386-31.832-4.733-47.808-6.584
		c-4.986-0.578-10.265-0.031-15.219,0.958c-4.136,0.826-6.81,4.51-5.856,8.632c0.613,2.651,3.223,5.775,5.72,6.824
		c3.392,1.425,7.543,1.514,11.347,1.406c21.244-0.608,42.484-1.394,63.719-2.269C558.787,195.775,561.729,194.83,564.686,194.266z
		 M500.631,352.212c5.758,20.432,18.766,38.966,32.656,47.453c1.605,0.981,3.633,2.178,5.284,1.952
		c2.254-0.308,4.764-1.471,6.322-3.082c0.885-0.916,0.692-3.789-0.083-5.189c-1.197-2.162-3.2-3.933-5.05-5.669
		c-10.268-9.638-20.569-19.242-30.918-28.794C506.644,356.854,504.198,355.094,500.631,352.212z M734.978,241.793
		c-0.31-10.256-4.847-18.037-14.103-22.53c-2.205-1.07-6.256,0.01-8.604,1.474c-1.599,0.997-2.424,4.403-2.351,6.692
		c0.18,5.636,4.282,9.113,8.39,12.185C722.997,243.119,728.064,245.632,734.978,241.793z M927.899,552.94
		c-0.182-10.942-10.479-18.268-18.932-15.237c-5.861,2.101-8.491,8.958-4.969,13.949c2.168,3.071,4.85,5.913,7.765,8.288
		c3.167,2.581,7.31,3.355,10.551,0.529C924.965,558.155,926.632,554.713,927.899,552.94z"/>
	<path fill="#F1DD93" d="M100.814,444.661c-2.34-5.996-4.278-12.187-7.081-17.958C67.908,373.553,53.228,317.51,50.353,258.489
		c-1.303-26.741,0.6-53.061,12.493-77.864c8.066-16.822,19.92-30.313,34.653-41.22c11.135-8.244,23.852-12.296,38.05-12.739
		c28.954-0.903,56.765,3.533,83.489,14.823c4.721,1.994,9.743,3.275,14.612,4.88c-0.553,1.817-1.093,3.639-1.975,6.617
		c14.714,10.459,29.763,21.157,44.811,31.854c-7.382,0.808-13.82-2.155-20.556-4.58c-19.436-6.999-38.995-13.674-58.641-20.062
		c-13.207-4.294-27.057-3.549-40.434-1.887c-29.074,3.612-47.437,32.768-41.209,63.925c4.103,20.527,11.504,39.691,23.484,57.021
		c17.287,25.007,34.318,50.19,51.567,75.222c24.954,36.214,51.729,71.059,79.54,105.105c3.965,4.853,7.781,10.706,15.484,10.256
		l-0.062-0.077c-0.296,3.947,0.912,6.626,5.454,6.502c-0.483,2.716,0.7,4.155,3.368,4.468l-0.181-0.176
		c1.222,1.499,2.445,2.997,3.667,4.496c0,0-0.213-0.232-0.213-0.232c1.268,1.452,2.536,2.904,3.804,4.356
		c0,0-0.152-0.166-0.152-0.166c1.265,1.407,2.529,2.813,3.794,4.22c0,0-0.068-0.076-0.068-0.076
		c1.234,1.369,2.467,2.739,3.701,4.108c0,0-0.002,0.005-0.002,0.005c-0.004,3.792,1.332,6.36,5.653,6.202l-1.592,1.02l1.613-0.969
		c-0.34,2.664,0.874,4.043,3.508,4.245l-0.825,0.794c0,0,0.714-0.895,0.714-0.895c1.245,1.45,2.49,2.901,3.735,4.351
		c0,0-0.238-0.228-0.238-0.228c1.486,1.418,2.972,2.836,4.458,4.254c3.474,3.912,6.948,7.825,10.423,11.737
		c1.378,1.442,2.755,2.884,4.133,4.326c0,0-0.138-0.141-0.138-0.141c1.334,1.348,2.668,2.695,4.003,4.043
		c0,0-0.124-0.123-0.124-0.123c1.338,1.341,2.676,2.681,4.014,4.022l-0.122-0.12c1.345,1.333,2.691,2.667,4.036,4.001
		c0,0-0.128-0.126-0.128-0.126c1.368,1.319,2.736,2.638,4.104,3.957l-0.11-0.127c-0.796,6.869,4.258,10.496,8.25,14.602
		c18.999,19.539,40.09,36.708,61.112,53.964c25.013,20.531,49.339,41.945,74.947,61.698
		c51.818,39.969,104.851,78.328,161.269,111.63c22.85,13.488,46.265,26.208,70.253,37.513c21.63,10.193,44.428,17.894,66.653,26.837
		c57.185,23.011,116.682,33.072,178.198,33.777c36.309,0.416,68.68-10.941,99.726-28.086c3.483-1.923,6.496-4.315,6.876-8.732
		c0,0-0.086,0.12-0.086,0.12c1.76-0.99,3.519-1.98,5.279-2.97c8.692-7.081,16.782-14.49,14.853-27.345
		c-0.805-2.998-1.116-6.252-2.502-8.957c-5.761-11.247-11.766-22.372-17.863-33.442c-1.731-3.142-2.082-5.814,0.602-8.461
		c7.051,8.424,14.535,16.527,21.053,25.345c10.356,14.009,21.112,27.859,27.212,44.501c-0.177,11.694-5.529,21.397-13.167,29.45
		c-7.968,8.4-16.309,16.982-25.99,23.104c-19.104,12.081-38.762,23.52-59.091,33.362c-21.681,10.497-45.104,15.553-69.402,16.178
		c-9.65,0.248-19.255,2.295-28.904,2.512c-16.797,0.38-33.669,0.833-50.404-0.307c-23.175-1.578-46.25-4.615-69.373-6.97
		c-1.255-0.128-2.563,0.275-3.847,0.431c-3.188-0.493-6.497-0.597-9.545-1.542c-29.036-9.002-58.441-17.019-86.956-27.463
		c-83.107-30.442-160.566-72.096-233.603-121.906c-34.24-23.35-67.555-48.058-101.329-72.096
		c-45.541-32.412-87.487-69.024-125.973-109.496c-39.712-41.761-78.763-84.153-118.148-126.225c-1.296-1.384-3.174-3.31-4.637-3.192
		c-2.152,0.174-4.174,1.962-6.248,3.052c-6.919-4.16-9.833-11.493-14.035-17.791C107.625,455.325,104.249,449.973,100.814,444.661z
		 M554.237,766.133c-41.314-30.244-82.622-60.496-123.954-90.715c-3.132-2.29-6.247-4.757-9.732-6.349
		c-1.881-0.859-4.53-0.036-7.354,0.042c2.12,11.349,10.212,16.249,17.387,21.448c22.046,15.972,44.182,31.844,66.726,47.098
		c17.154,11.607,34.983,22.213,52.512,33.265c8.954,8.593,20.253,12.919,31.553,17.188c0.505,0.191,1.604-1.196,3.298-2.538
		C575.039,777.935,565.296,771.066,554.237,766.133z M351.469,602.888c11.786,12.234,11.786,12.234,23.69,17.189
		c-4.337-9.376-4.337-9.376-19.62-21.444c-49.328-49.902-94.987-103.113-140.431-156.497
		c-31.13-36.568-61.644-73.663-92.464-110.496c-1.939-2.318-4.155-4.404-8.718-9.201c0.86,5.891,0.613,8.547,1.645,10.537
		c5.364,10.341,10.184,21.124,16.819,30.614c12.629,18.065,25.433,36.161,39.826,52.806c30.564,35.347,61.736,70.197,93.525,104.445
		C292.664,549.851,320.634,577.906,351.469,602.888z M317.227,605.261c0.858-1.039,1.716-2.079,2.574-3.118
		c-1.672-2.659-3.217-5.408-5.034-7.962c-21.496-30.213-47.33-56.755-72.856-83.347c-27.432-28.578-52.016-59.479-77.907-89.311
		c-10.641-12.262-21.474-24.295-35.197-33.284c-3.374-2.21-6.878-4.135-10.57-0.955c-3.329,2.867-3.755,6.786-2.272,10.667
		c3.233,8.458,5.909,17.278,10.309,25.108c8.582,15.27,18.412,29.805,31.228,42.002c33.804,32.173,67.314,64.663,101.598,96.315
		c14.243,13.149,30.06,24.609,45.375,36.563C308.301,600.924,312.954,602.848,317.227,605.261z M187.359,377.012
		c-1.236-5.297-1.227-7.289-2.11-8.736c-12.138-19.921-24.324-39.813-36.648-59.619c-19.512-31.359-39.77-62.279-55.575-95.794
		c-1.101-2.334-2.319-4.664-3.831-6.742c-2.437-3.349-5.709-5.385-10.02-4.079c-4.129,1.25-6.502,4.454-6.817,8.553
		c-0.241,3.128-0.033,6.643,1.179,9.468c4.327,10.086,8.2,20.563,14.007,29.78c14.161,22.477,28.845,44.661,44.22,66.323
		c10.478,14.763,22.217,28.665,33.911,42.513C170.981,364.963,176.468,371.481,187.359,377.012z M656.016,819.14
		c2.626,9.353,8.544,13.444,14.635,16.578c11.481,5.906,22.978,12.272,35.195,16.156c35.106,11.159,70.649,20.992,107.201,26.221
		c9.344,1.336,19.04,0.2,28.976,0.2c-2.193-6.23-7.213-5.8-11.391-6.784c-41.549-9.779-82.686-20.937-122.608-36.238
		c-13.883-5.321-27.792-10.58-41.799-15.56C663.63,818.789,660.511,819.341,656.016,819.14z"/>
	<path fill="#432113" d="M1103.282,820.494c1.93,12.859-6.16,20.267-14.859,27.352c-1.762,0.991-3.517,1.979-5.273,2.967
		c0,0,0.086-0.12,0.086-0.118c-4.235,1.439-8.654,2.487-12.674,4.382c-19.936,9.399-40.695,12.274-62.503,9.21
		c-10.888-1.53-21.894-2.492-32.88-3.006c-27.232-1.276-54.23-4.355-80.995-9.488c-64.545-12.378-126.891-31.461-185.928-60.778
		c-64.004-31.784-124.639-69.166-182.529-110.932c-54.676-39.447-107.889-80.825-158.745-125.166
		c-3.315-2.891-7.338-4.968-11.032-7.423c0,0,0.11,0.127,0.109,0.127c-1.368-1.319-2.736-2.638-4.104-3.956
		c0,0,0.128,0.126,0.128,0.125c-1.345-1.334-2.69-2.667-4.035-4c0,0,0.122,0.12,0.121,0.12c-1.338-1.341-2.676-2.681-4.014-4.022
		c0,0,0.124,0.123,0.123,0.122c-1.334-1.348-2.668-2.695-4.002-4.042c0,0,0.138,0.141,0.138,0.14
		c-1.378-1.442-2.755-2.884-4.133-4.326c-3.474-3.912-6.949-7.825-10.426-11.739c-1.487-1.418-2.971-2.835-4.455-4.252
		c0,0,0.238,0.228,0.236,0.227c-1.246-1.45-2.49-2.9-3.734-4.349c0,0-0.714,0.895-0.714,0.895s0.825-0.794,0.822-0.795
		c-1.17-1.415-2.338-2.829-3.506-4.244c0,0-1.613,0.969-1.613,0.969s1.592-1.02,1.59-1.019c-1.885-2.067-3.768-4.135-5.65-6.203
		c0,0,0.002-0.005,0.002-0.005c-1.234-1.37-2.467-2.738-3.701-4.107c0,0,0.067,0.076,0.067,0.075
		c-1.265-1.407-2.529-2.813-3.793-4.22c0,0,0.152,0.166,0.151,0.165c-1.268-1.452-2.536-2.904-3.804-4.355
		c0,0,0.213,0.232,0.212,0.231c-1.223-1.499-2.445-2.997-3.666-4.495c0,0,0.181,0.176,0.179,0.175
		c-1.126-1.484-2.249-2.968-3.368-4.465c-1.815-2.177-3.633-4.341-5.451-6.504c0,0,0.062,0.077,0.062,0.076
		c-8.557-13.419-16.991-26.918-25.703-40.235c-9.468-14.474-19.386-28.656-28.736-43.205c-5.603-8.719-9.829-18.074-7.76-28.977
		c2.955,2.413,6.531,4.355,8.769,7.312c25.716,33.969,54.025,65.758,81.852,97.952c19.151,25.032,42.568,45.872,65.836,66.837
		c1.73,1.558,4.55,1.904,6.864,2.814l-0.07-0.066c1.332,1.32,2.664,2.639,3.997,3.959l-0.097-0.079
		c5.224,7.875,11.232,14.674,21.473,15.659c2.057,2.446,3.814,5.248,6.223,7.274c8.919,7.5,17.947,14.88,27.127,22.059
		c25.002,19.552,49.863,39.297,75.293,58.277c8.74,6.524,18.834,11.33,28.61,16.334c8.636,4.42,17.835,7.727,26.534,12.036
		c43.575,21.584,86.907,43.667,130.654,64.894c22.714,11.021,46.088,20.688,69.232,30.809c2.683,1.173,5.807,1.339,10.914,2.445
		c-2.473-3.605-3.148-5.582-4.518-6.424c-8.28-5.085-16.787-9.8-25.095-14.84c-39.327-23.858-78.949-47.252-117.826-71.824
		c-41.104-25.98-80.152-54.946-117.394-86.243c-13.87-11.656-27.021-24.175-40.322-36.492c-2.087-1.932-5.188-4.404-1.31-9.118
		c5.248,3.112,10.712,6.211,16.037,9.534c29.683,18.526,59.055,37.569,89.06,55.557c43.339,25.982,86.742,51.903,130.844,76.548
		c36.775,20.551,74.524,39.4,115.057,51.793c28.441,8.696,56.914,17.287,86.401,26.237c3.541-4.735,9.521-8.098,8.76-17.29
		c-6.116-2.195-12.691-4.664-19.338-6.919c-17.162-5.823-34.51-11.136-51.505-17.41c-29.868-11.027-58.342-25.033-85.291-42.048
		c-4.156-2.624-9.425-4.373-10.176-11.291c2.068,0,4.096-0.55,5.644,0.08c48.211,19.628,98.912,30.611,149.148,43.214
		c8.788,2.205,17.53,4.292,26.76,0.728c1.536-3.891,3.345-7.367,4.276-11.065c1.892-7.509,3.309-15.138,4.921-22.717
		c0.102-2.364,0.205-4.728,0.309-7.092c5.894-15.13,4.242-30.968,4.367-46.639c0.687-5.128-0.853-9.308-6.225-10.376
		c-5.634-1.121-11.45-1.328-17.186-1.934l0.163,0.107c-5.44-5.423-12.051-7.925-19.676-7.899l0.229,0.151
		c-1.542-3.578-4.447-4.451-8-4.042l0.236,0.116c-0.899-2.89-1.799-5.78-3.101-9.967c17.929,1.979,34.509,3.012,51.065,1.728
		c3.847-7.158,2.665-13.737,1.77-19.928c-3.428-23.722-7.234-47.357-13.76-70.526c-8.626-30.627-19.117-60.53-31.183-89.966
		c-18.529-45.2-47.522-83.291-80.465-118.45c-19.477-20.787-40.905-39.747-61.547-59.433
		c-10.796-10.296-21.877-20.292-32.668-30.593c-14.987-14.306-29.822-28.771-44.722-43.167c11.508-1.023,21.687,3.477,31.661,8.138
		c22.907,10.704,45.948,21.195,68.321,32.943c12.569,6.6,24.514,14.766,35.708,23.546c46.281,36.304,86.032,78.447,116.639,129.199
		c29.134,48.31,49.495,99.883,61.503,154.795c3.443,15.745,4.208,32.1,6.54,48.023c3.327,22.717,2.286,45.29,2.988,67.934
		c0.626,20.217-3.032,39.947-6.418,59.723c-0.529,3.09-0.51,6.272-0.845,10.758c22.973-1.401,37.192,13.553,51.953,26.466
		c23.027,20.145,42.559,43.764,59.566,69.053c10.789,16.043,18.814,34.007,27.387,51.451c3.079,6.265,5.524,13.264,4.117,20.714
		c-5.292-0.679-9.046-3.305-11.278-8.302c-1.974-4.42-4.335-8.666-6.526-12.989c-6.104-16.648-16.86-30.498-27.215-44.507
		c-6.518-8.818-14.002-16.922-21.049-25.34c-6.361-10.856-15.399-19.286-25.876-25.756c-17.554-10.84-35.644-20.812-53.771-31.301
		c-5.684,5.291-6.359,11.383-5.79,18.415c6.799,4.05,13.671,7.695,20.055,12.056c9.012,6.156,19.043,11.324,24.146,21.858
		c-0.977,1.038-1.954,2.077-2.931,3.115c-10.928-3.71-21.893-7.315-32.765-11.184c-4.229-1.505-8.097-4.221-12.401-5.269
		c-4.866-1.184-7.002,1.569-5.763,7.824c9.306,4.325,19.789,7.233,30.075,10.641c19.779,6.553,38.007,15.946,53.567,29.981
		c7.072,6.378,12.778,14.436,23.94,14.49C1098.443,814.525,1100.858,818.399,1103.282,820.494z M953.246,841.606
		c2.422,0.79,4.733,1.934,7.157,2.273c18.523,2.595,37.043,5.244,55.615,7.447c13.744,1.63,27.102-1.163,40.085-5.414
		c8.893-2.911,10.047-8.89,3.581-16.262c-2.131-2.43-4.386-4.802-6.856-6.877c-21.446-18.009-45.003-32.464-71.088-42.531
		c-5.966,8.392-26.261,46.786-28.91,55.139C952.303,837.044,953.041,839.11,953.246,841.606z M794.637,768.326
		c0.475,0.178,0.948,0.458,1.428,0.472c0.142,0.004,0.307-0.738,0.461-1.139c-0.474-0.173-0.948-0.453-1.424-0.457
		C794.951,767.201,794.793,767.931,794.637,768.326z"/>
	<path fill="#432113" d="M125.166,478.388c2.077-1.1,4.099-2.888,6.251-3.061c1.463-0.118,3.341,1.808,4.637,3.192
		c39.386,42.072,78.437,84.464,118.148,126.225c38.486,40.473,80.432,77.084,125.973,109.496
		c33.774,24.037,67.089,48.745,101.329,72.096c73.038,49.809,150.497,91.464,233.603,121.906
		c28.515,10.445,57.919,18.461,86.956,27.463c3.048,0.945,6.357,1.049,9.547,1.542c14.369,6.531,30.041,7.116,45.234,9.736
		c67.138,11.579,132.779,4.257,196.671-18.053c35.144-12.272,66.668-31.062,90.687-60.598c1.106-1.36,3.372-1.773,5.098-2.627
		c-5.461,39.292-25.61,68.874-59.918,88.276c-28.326,16.02-58.231,28.649-90.159,35.598c-16.403,3.57-32.93,6.996-49.936,6.466
		c-7.13-0.222-14.281-0.139-21.411,0.126c-35.148,1.306-69.822-2.316-104.15-9.74c-1.863-0.403-3.795-0.482-6.711-0.835
		c-24.628,18.227-52.102,32.843-80.447,45.742c-37.323,16.986-76.251,29.025-116.931,34.726
		c-21.108,2.958-42.297,5.678-63.543,7.185c-11.497,0.816-23.193-1.102-34.793-1.868c-4.518-0.298-9.013-1.006-13.533-1.213
		c-44.397-2.032-87.241-11.647-128.555-27.636c-44.366-17.169-86.049-39.441-123.398-69.242
		c-24.315-19.4-48.606-38.798-67.289-64.206c-9.966-13.553-21.123-26.229-31.103-39.772c-3.74-5.075-5.67-11.488-8.421-17.291
		c15.88,9.549,31.642,19.297,47.68,28.565c8.209,4.744,16.039,10.817,26.301,10.64l-0.047,0.007
		c0.991,4.848,4.118,6.848,8.879,6.666c0.864,0.429,1.738,0.835,2.622,1.22c1.525,1.073,3.049,2.147,4.574,3.221
		c18.425,9.425,36.825,18.899,55.294,28.239c4.571,2.311,9.186,4.995,14.71,3.253l-0.174-0.195c1.393,1.375,2.787,2.749,4.18,4.124
		l-0.336-0.27c2.644,1.194,5.288,2.388,7.932,3.582c10.827,6.683,22.33,11.37,35.227,11.931c0.427,0.285,0.854,0.57,1.282,0.855
		c-0.474-0.239-0.947-0.478-1.421-0.716c-3.706-4.39-7.031-9.185-11.189-13.092c-11.715-11.008-23.846-21.57-35.62-32.516
		c-1.894-1.76-5.871-3.525-1.985-8.692c9.969,5.695,20.296,10.864,29.855,17.196c26.287,17.415,52.291,35.259,78.319,53.064
		c7.071,4.837,14.119,9.134,23.203,6.737c9.184,2.218,18.367,4.437,27.551,6.655c12.436,1.538,24.632,5.653,40.036,4.259
		c-3.464-3.287-4.994-5.138-6.886-6.474c-25.856-18.242-51.71-36.486-77.702-54.532c-4.66-3.236-8.84-7.845-15.321-7.528
		c-1.342-1.126-2.683-2.252-4.025-3.378c-1.49-5.606-5.801-7.77-10.911-8.96c-13.96-11.359-28.133-22.467-41.826-34.141
		c-16.684-14.224-32.999-28.883-49.366-43.474c-1.584-1.412-4.385-2.944-2.338-6.122c7.297-0.373,11.35,8.831,19.235,6.479
		l-0.129-0.248c0.052,1.433,0.103,2.866,0.155,4.3c0.412,0.502,0.731,1.144,1.249,1.486
		c57.388,37.88,114.489,76.211,172.356,113.345c20.686,13.274,43.221,23.663,64.929,35.337c5.772,3.104,11.747,5.808,18.524,4.735
		c14.053-2.228,28.082-4.611,42.103-7.03c2.372-0.409,5.315-0.609,4.727-4.385c-0.989-0.832-1.833-1.999-2.956-2.421
		c-42.586-16.003-83.279-36.128-123.821-56.614c-33.659-17.008-65.671-36.74-96.448-58.446
		c-10.559-7.447-20.241-16.163-30.111-24.55c-2.407-2.045-4.26-5.057,0.007-8.772c4.151,2.393,8.588,4.844,12.921,7.466
		c11.651,7.052,22.93,14.796,34.942,21.158c37.264,19.735,74.394,39.797,112.349,58.127c34.428,16.626,69.668,31.63,104.93,46.446
		c28.493,11.972,33.169,11.333,60.877-1.301c2.461-1.122,4.302-3.608,6.948-5.911c-2.914-1.922-4.382-3.289-6.119-3.978
		c-36.228-14.373-71.095-31.434-105.145-50.479c-34.044-19.042-66.969-39.629-98.198-62.959
		c-15.06-11.251-29.576-23.282-45.07-33.889c-52.545-35.97-102.122-75.706-148.672-119.03
		c-40.37-37.573-78.32-77.633-114.23-119.571c-2.383-2.783-6.151-4.379-9.275-6.527l-0.128,0.048
		c-1.323-2.525-2.645-5.049-3.968-7.574c-11.041-15.69-22.156-31.329-33.09-47.093C131.689,493.52,125.956,487.201,125.166,478.388z
		"/>
	<path fill="#588B47" d="M316.733,828.627c-7.885,2.352-11.938-6.853-19.235-6.479c-2.047,3.178,0.754,4.709,2.338,6.122
		c16.367,14.591,32.681,29.251,49.366,43.474c13.693,11.673,27.866,22.781,41.826,34.143c1.448,5.659,5.36,8.308,10.911,8.957
		c1.342,1.126,2.683,2.252,4.029,3.377c1.608,3.416,2.429,7.631,4.953,10.112c11.502,11.308,23.328,22.301,35.349,33.058
		c7.207,6.45,15.35,11.92,19.568,21.105c-9.184-2.218-18.367-4.437-27.556-6.653c-2.448-2.892-4.489-6.301-7.409-8.583
		c-8.161-6.379-16.787-12.156-25.048-18.411c-33.039-25.014-65.883-50.231-96.325-78.492
		c-20.958-19.456-45.127-34.768-69.234-49.992c-2.894-1.827-6.923-1.854-10.464-2.726c-2.718,12.786-2.736,12.794,0.911,21.402
		c11.888,28.059,30.202,51.242,53.755,70.335c9.042,7.33,18.624,14.027,24.548,24.454c-5.523,1.742-10.139-0.942-14.71-3.253
		c-18.468-9.34-36.869-18.814-55.294-28.239c-1.525-1.073-3.049-2.147-4.573-3.221c-0.884-0.384-1.758-0.791-2.625-1.219
		c-1.359-4.356-3.986-7.019-8.876-6.667c0,0,0.047-0.007,0.049-0.01c-6.381-7.996-12.796-15.964-19.14-23.988
		c-20.047-25.353-36.956-52.846-54.928-79.64c-17.784-26.514-31.532-54.714-43.077-84.254c-4.697-12.019-9.968-23.813-15.039-35.684
		c-2.677-6.267-6.613-11.117-14.06-11.681c-1.43-17.356-3.87-34.705-4.012-52.072c-0.148-18.023,1.163-36.152,3.201-54.08
		c3.577-31.461,10.247-62.364,19.824-92.583c1.361-4.293,3.349-8.387,5.052-12.577c3.441,5.308,6.817,10.66,10.327,15.922
		c4.202,6.298,7.116,13.631,14.035,17.791c0.786,8.823,6.519,15.142,11.22,21.919c10.935,15.764,22.049,31.403,33.088,47.094
		c-0.25,3.351,0.462,6.197,3.97,7.573c0,0,0.128-0.048,0.123-0.044c-0.078,12.14,6.038,22.382,10.594,32.958
		c12.548,29.127,23.926,58.956,38.989,86.757c27.133,50.08,56.584,98.902,90.042,145.15
		C315.001,822.279,315.582,825.659,316.733,828.627z M112.636,586.085c2.009-18.701,3.895-36.033,5.713-53.371
		c0.337-3.211,0.624-6.457,0.546-9.678c-0.163-6.784-2.938-10.611-8.077-11.65c-5.619-1.137-10.955,2.375-12.598,9.315
		c-1.329,5.613-2.224,11.496-2.148,17.243c0.218,16.408,4.465,31.957,11.652,46.673C108.082,585.347,109.966,585.33,112.636,586.085
		z M198.074,694.255c-9.353-1.041-14.242-2.001-19.138-2.043c-10.092-0.088-18.814-2.967-26.291-10.045
		c-3.186-3.016-7.204-5.334-11.182-7.276c-4.19-2.046-9.423,0.789-10.687,5.309c-1.85,6.614-1.612,13.325,4.068,17.674
		c4.949,3.789,10.796,7.632,16.727,8.654c12.722,2.191,25.688,1.698,37.713-4.165C191.363,701.348,192.863,699.138,198.074,694.255z
		 M149.333,653.732c0.021,14.561,8.641,23.989,20.063,25.205c10.751,1.145,19.956-9.427,17.117-19.832
		c-2.09-7.66-6.251-13.988-12.981-18.412c-6.546-4.304-14.203-3.733-18.914,2.398C151.665,646.932,150.199,651.916,149.333,653.732z
		"/>
	<path fill="#F7F2E3" d="M444.219,143.149c15.488-0.898,30.968-1.998,46.467-2.649c25.866-1.087,51.739-2.12,77.619-2.718
		c14.385-0.332,28.228,2.769,41.633,8.233c8.373,3.413,17.302,5.453,25.688,8.838c5.135,2.073,11.445,3.255,13.393,9.821
		c-2.499,5.479-7.442,4.835-11.791,4.699c-18.107-0.569-36.218-1.192-54.304-2.207c-52.5-2.948-104.873-3.169-156.806,6.71
		c-19.774,3.761-38.929,9.631-57.365,17.799c-4.72,2.091-9.47,4.328-14.436,5.597c-8.5,2.173-13.566-3.119-11.938-11.87
		c0.576-3.099,1.168-6.194,1.754-9.302c24.515-13.024,50.251-22.671,77.483-28.21C429.159,146.354,436.685,144.731,444.219,143.149z
		"/>
	<path fill="#37612B" d="M76.742,655.976c7.448,0.564,11.383,5.414,14.06,11.681c5.071,11.871,10.342,23.665,15.039,35.684
		c11.545,29.54,25.294,57.74,43.077,84.254c17.973,26.794,34.881,54.287,54.928,79.64c6.344,8.024,12.759,15.992,19.14,23.988
		c-10.263,0.18-18.093-5.892-26.303-10.636c-16.038-9.268-31.8-19.016-47.68-28.565c-7.994-6.116-12.174-15.038-16.88-23.47
		c-25.15-45.059-42.776-92.876-51.716-143.771C78.735,675.258,77.941,665.581,76.742,655.976z"/>
	<path fill="#D1B253" d="M1149.301,865.704c-1.726,0.854-3.993,1.267-5.098,2.627c-24.019,29.536-55.544,48.326-90.687,60.598
		c-63.891,22.31-129.532,29.633-196.671,18.053c-15.193-2.62-30.865-3.205-45.234-9.736c1.282-0.156,2.59-0.559,3.845-0.431
		c23.124,2.354,46.199,5.391,69.373,6.97c16.734,1.139,33.607,0.687,50.404,0.307c9.648-0.218,19.254-2.264,28.904-2.512
		c24.298-0.625,47.72-5.681,69.402-16.178c20.329-9.841,39.987-21.28,59.091-33.362c9.681-6.122,18.022-14.705,25.99-23.104
		c7.638-8.052,12.989-17.756,13.167-29.45c2.193,4.329,4.555,8.575,6.529,12.995c2.232,4.998,5.986,7.623,11.278,8.302
		C1149.494,862.421,1149.397,864.063,1149.301,865.704z"/>
	<path fill="#432113" d="M276.489,184.842c-15.05-10.698-30.099-21.396-44.813-31.855c0.882-2.978,1.421-4.8,1.975-6.617
		c15.725,7.145,31.527,14.095,47.12,21.488c12.153,5.761,24.045,12.072,36.05,18.146c-4.926,6.736-11.69,10.368-19.776,11.776
		C290.191,193.466,283.34,189.154,276.489,184.842z"/>
	<path fill="#432113" d="M690.749,158.225c-1.291-1.307-2.582-2.615-3.871-3.92C688.169,155.613,689.459,156.919,690.749,158.225z"
		/>
	<path fill="#37612B" d="M314.147,462.687c-27.828-32.194-56.136-63.982-81.852-97.952c-2.238-2.957-5.815-4.898-8.769-7.317
		c-4.52-6.281-9.218-12.438-13.523-18.858c-8.962-13.367-17.716-26.873-26.556-40.322c21.377-22.905,42.365-46.203,67.425-65.319
		c2.994-2.283,5.272-5.506,7.882-8.293c9.373-6.715,18.746-13.43,28.119-20.145c0.963-0.524,1.99-0.739,3.082-0.647
		c3.838,8.161,7.058,16.688,11.624,24.418c17.379,29.423,35.231,58.348,57.945,84.356c29.364,33.622,61.751,64.15,92.719,96.125
		c4.855,5.013,8.804,10.905,13.165,16.376c-0.069,1.859-0.043,3.74-0.21,5.604c-0.674,7.545,2.119,13.559,8.365,17.66
		c6.201,4.072,11.942,1.387,17.449-2.017c10.059,7.94,20.497,15.447,30.109,23.897c33.924,29.824,70.319,56.273,108.32,80.573
		c14.066,8.994,28.268,17.774,42.408,26.656c-1.874,0.481-3.839,0.736-5.607,1.467c-13.406,5.545-17.445,14.805-12.131,27.573
		c6.92,16.626,23.115,22.727,35.286,22.783c10.796,0.05,18.55-6.489,20.148-17.067c0.664-4.396-0.023-8.996-0.095-13.504
		c4.28,1.247,8.817,1.947,12.799,3.826c41.451,19.547,83.805,36.941,126.714,52.952c24.832,9.266,50.351,15.95,77.058,17.324
		c8.314,0.428,16.568,2.041,24.848,3.112c-1.614,7.58-3.031,15.209-4.923,22.718c-0.931,3.698-2.74,7.173-4.276,11.065
		c-9.23,3.564-17.972,1.476-26.76-0.728c-50.236-12.603-100.937-23.586-149.148-43.214c-1.548-0.63-3.576-0.08-5.644-0.08
		c0.75,6.918,6.019,8.667,10.176,11.291c26.949,17.015,55.423,31.021,85.291,42.048c16.995,6.274,34.343,11.587,51.505,17.41
		c6.647,2.256,13.222,4.724,19.338,6.919c0.762,9.192-5.219,12.555-8.76,17.29c-29.486-8.95-57.959-17.541-86.401-26.237
		c-40.533-12.392-78.281-31.242-115.057-51.793c-44.102-24.645-87.505-50.566-130.844-76.548
		c-30.005-17.988-59.377-37.031-89.06-55.557c-5.325-3.323-10.789-6.422-16.037-9.534c-3.878,4.715-0.776,7.186,1.31,9.118
		c13.302,12.317,26.453,24.836,40.322,36.492c37.242,31.297,76.289,60.263,117.394,86.243
		c38.877,24.573,78.499,47.967,117.826,71.824c8.308,5.04,16.815,9.755,25.095,14.84c1.371,0.842,2.045,2.818,4.518,6.424
		c-5.107-1.107-8.231-1.272-10.914-2.445c-23.144-10.121-46.518-19.788-69.232-30.809c-43.747-21.227-87.079-43.309-130.654-64.894
		c-8.698-4.309-17.898-7.616-26.534-12.036c-9.776-5.003-19.87-9.81-28.61-16.334c-25.43-18.98-50.292-38.725-75.293-58.277
		c-9.18-7.179-18.208-14.559-27.127-22.059c-2.409-2.026-4.167-4.828-6.225-7.273c-7.088-5.316-11.307-14.569-21.471-15.66
		c0,0,0.097,0.079,0.096,0.079c-1.332-1.32-2.664-2.639-3.996-3.959c0,0,0.07,0.066,0.07,0.066c-0.89-1.669-1.438-3.683-2.72-4.957
		c-20.444-20.304-40.918-40.578-61.592-60.645C320.419,464.684,316.974,464.004,314.147,462.687z M314.44,380.551
		c12.788,0.218,18.992-4.503,22.709-16.65c3.414-11.154-0.976-20.565-7.022-29.004c-7.523-10.502-26.94-13.125-36.986-5.967
		c-11.297,8.049-14.712,24.767-6.44,36.298C293.315,374.445,302.472,380.402,314.44,380.551z"/>
	<path fill="#D1B253" d="M289.955,203.835c-1.092-0.093-2.119,0.123-3.088,0.643c-16.04-10.346-34.496-13.59-52.582-17.887
		c-1.837-0.437-4.218-0.959-5.683-0.185c-8.625,4.557-16.226-0.115-24.057-2.308c-9.909-2.774-19.636-6.266-29.636-8.622
		c-6.179-1.456-12.717-1.819-19.1-1.87c-8.364-0.067-14.906,4.401-19.284,11.085c-1.838,2.807-2.421,7.523-1.483,10.766
		c0.977,3.379,4.475,6.027,6.871,8.995c-1.135,11.904,1.524,23.014,6.535,33.783c9.816,21.095,20.712,41.532,34.998,60.002
		c8.839,13.449,17.593,26.955,26.556,40.322c4.305,6.421,9.004,12.577,13.523,18.858c-2.07,10.909,2.156,20.263,7.759,28.983
		c9.35,14.549,19.268,28.731,28.736,43.205c8.712,13.317,17.146,26.816,25.703,40.235c-7.702,0.45-11.519-5.403-15.484-10.256
		c-27.811-34.046-54.586-68.891-79.54-105.105c-17.25-25.032-34.281-50.216-51.567-75.222c-11.98-17.33-19.381-36.494-23.484-57.021
		c-6.228-31.156,12.136-60.312,41.209-63.925c13.376-1.662,27.227-2.408,40.434,1.887c19.645,6.388,39.205,13.063,58.641,20.062
		c6.735,2.425,13.174,5.388,20.556,4.58c6.853,4.313,13.705,8.625,20.557,12.939C294.681,199.798,292.318,201.817,289.955,203.835z"
		/>
	<path fill="#37612B" d="M955.545,622.217c-0.126,15.671,1.527,31.508-4.367,46.639c-11.662-5.356-23.788-9.893-34.891-16.228
		c-27.956-15.952-55.264-33.036-77.657-56.626c-8.833-9.305-16.922-19.333-25.06-29.269c-1.48-1.806-1.556-4.765-2.28-7.191
		l0.186-0.185c3.058,0.886,6.295,1.389,9.147,2.719c22.113,10.315,44.159,20.775,66.209,31.223
		c5.801,2.749,11.427,6.053,18.255,5.041c0,0-0.236-0.116-0.236-0.116c2.667,1.347,5.333,2.694,7.999,4.042
		c0,0-0.229-0.151-0.228-0.151c4.219,8.47,11.842,8.445,19.675,7.899c0,0-0.163-0.107-0.162-0.107
		C937.251,619.128,946.184,621.079,955.545,622.217z"/>
	<path fill="#F7F2E3" d="M611.268,463.433c9.931,5.162,16.221,8.076,22.165,11.579c37.418,22.054,74.778,44.205,112.101,66.419
		c4.984,2.967,9.889,6.185,14.33,9.889c1.619,1.35,3.125,5.582,2.333,6.526c-1.833,2.186-5.004,4.095-7.812,4.386
		c-2.999,0.311-6.385-0.961-9.279-2.261c-5.305-2.384-10.522-5.045-15.514-8.031c-36.26-21.687-70.304-46.489-102.606-73.695
		C622.603,474.556,618.62,470.393,611.268,463.433z"/>
	<path fill="#432113" d="M709.452,598.733c0.073,4.508,0.76,9.108,0.095,13.504c-1.598,10.578-9.353,17.117-20.148,17.067
		c-12.171-0.056-28.365-6.157-35.286-22.783c-5.315-12.768-1.275-22.027,12.131-27.573c1.768-0.731,3.733-0.987,5.607-1.467
		C686.883,580.135,698.684,588.52,709.452,598.733z"/>
	<path fill="#432113" d="M434.353,267.147c-2.158-4.636-4.232-9.315-6.493-13.9c-4.536-9.198,4.258-21.8,14.832-21.628
		c3.17,0.051,6.593-0.069,9.452,1.044c11.853,4.617,20.529,13.074,25.879,24.464c4.661,9.923,3.589,19.92-2.161,29.327
		C460.759,282.749,446.538,277.14,434.353,267.147z"/>
	<path fill="#37612B" d="M678.408,453.778c1.13,2.849,2.26,5.698,3.702,9.335c-8.07,4.64-15.792,3.712-22.908,1.56
		c-9.174-2.776-18.233-6.375-26.748-10.771c-9.277-4.788-16.571-12.246-20.841-21.974c-1.481-3.375-2.09-7.399-2.047-11.114
		c0.067-5.8,5.398-9.23,10.761-7.435c5.417,1.813,10.785,3.772,16.174,5.667c0,0-0.322-0.095-0.322-0.095
		c1.989,1.372,3.978,2.744,5.966,4.116c3.03,3.971,5.906,8.071,9.121,11.887C658.598,443.658,666.072,452.258,678.408,453.778z"/>
	<path fill="#432113" d="M678.408,453.778c-12.336-1.52-19.81-10.12-27.143-18.825c-3.214-3.816-6.091-7.916-9.122-11.888
		c-1.989-1.373-3.977-2.744-5.965-4.115c0,0,0.323,0.094,0.322,0.095c-1.386-3.479-2.178-7.373-4.265-10.362
		c-7.026-10.064-14.559-19.772-21.787-29.696c-1.731-2.377-3.037-5.064-5.667-9.522c3.979,0.943,5.949,0.861,7.163,1.779
		c24.892,18.835,45.714,41.83,66.195,65.166C683.152,442.122,683.503,447.909,678.408,453.778z"/>
	<path fill="#37612B" d="M815.002,407.457c0.438,11.522-4.986,18.107-16.445,19.763c-2.525,0.365-4.967,1.273-7.478,1.775
		c-12.888,2.578-24.146-2.808-30.42-14.496c-6.119-11.398,0.581-23.061,13.472-22.37c6.921,0.371,13.732,2.778,20.579,4.259
		C800.596,401.668,807.102,405.843,815.002,407.457z"/>
	<path fill="#432113" d="M614.116,321.946c-2.278-5.985-3.877-12.353-6.984-17.87c-5.397-9.585-11.807-18.595-17.617-27.955
		c-1.907-3.071-3.272-6.479-5.084-10.136c2.489-0.321,4.01-1.015,4.685-0.531c19.606,14.086,37.197,30.291,50.478,50.62
		c6.102,9.34,5.374,11.364-3.363,21.732c-10.985,1.053-18.171-3.426-20.97-14.369C615.117,322.878,614.508,322.44,614.116,321.946z"
		/>
	<path fill="#F7F2E3" d="M564.686,194.266c-2.957,0.564-5.899,1.509-8.874,1.631c-21.235,0.875-42.475,1.661-63.719,2.269
		c-3.804,0.109-7.955,0.02-11.347-1.406c-2.497-1.049-5.107-4.173-5.72-6.824c-0.954-4.123,1.72-7.806,5.856-8.632
		c4.954-0.989,10.233-1.536,15.219-0.958c15.976,1.851,31.899,4.198,47.808,6.584c6.941,1.041,13.797,2.643,20.692,3.991
		C564.629,192.036,564.657,193.151,564.686,194.266z"/>
	<path fill="#432113" d="M815.002,407.457c-7.901-1.614-14.407-5.789-20.293-11.069c-5.378-19.347-4.625-21.715,10.567-33.192
		c6.754,2.922,13.511,5.844,20.269,8.766c1.142,2.255,2.328,4.489,3.416,6.77c2.863,5.999,3.429,12.294,0.849,18.375
		C827.129,403.423,821.711,406.54,815.002,407.457z"/>
	<path fill="#37612B" d="M434.353,267.147c12.185,9.993,26.406,15.602,41.509,19.308c4.964,0.985,10.21,1.42,13.249,6.887
		c-1.193,1.378-2.135,3.235-3.644,4.087c-12.533,7.082-26.022,6.688-39.054,2.796C430.124,295.361,426.765,284.842,434.353,267.147z
		"/>
	<path fill="#37612B" d="M614.116,321.946c0.392,0.494,1.001,0.932,1.144,1.491c2.799,10.944,9.985,15.423,20.97,14.369
		c-5.897,10.749-6.616,11.374-15.508,8.81c-9.815-2.829-19.463-6.232-29.209-9.305c-5.28-1.665-8.55-5.308-10.721-10.214
		c-2.25-5.083-1.41-10.527,2.289-14.126c3.459-3.366,9.226-3.528,14.055,0.122c3.551,2.684,6.415,6.333,10.108,8.752
		C608.864,322.905,611.786,321.973,614.116,321.946z"/>
	<path fill="#F7F2E3" d="M825.545,371.961c-6.757-2.922-13.514-5.844-20.269-8.766c-5.404-4.587-10.94-9.035-16.159-13.828
		c-2.319-2.13-4.289-4.787-5.894-7.513c-1.9-3.228,0.799-8.661,4.532-9.033c3.115-0.31,6.968-0.827,9.376,0.616
		C811.855,342.264,824.523,352.896,825.545,371.961z"/>
	<path fill="#F7F2E3" d="M500.631,352.212c3.567,2.882,6.013,4.642,8.212,6.671c10.349,9.551,20.65,19.155,30.918,28.794
		c1.849,1.736,3.853,3.507,5.05,5.669c0.775,1.4,0.968,4.274,0.083,5.189c-1.558,1.611-4.068,2.774-6.322,3.082
		c-1.651,0.226-3.679-0.971-5.284-1.952C519.397,391.178,506.389,372.644,500.631,352.212z"/>
	<path fill="#37612B" d="M693.391,262.494c3.809,2.222,7.665,4.365,11.415,6.683c5.218,3.226,5.337,8.658,0.388,12.504
		c-8.472,6.583-17.932,6.185-27.32,3.124c-6.094-1.987-8.388-10.877-4.308-16.21c2.655-3.471,6.455-6.064,9.738-9.054
		C686.663,260.523,690.027,261.509,693.391,262.494z"/>
	<path fill="#432113" d="M491.014,446.356c-5.507,3.404-11.248,6.089-17.449,2.017c-6.246-4.101-9.039-10.115-8.365-17.66
		c0.167-1.864,0.14-3.745,0.209-5.604c5.547-0.534,11.088-1.082,15.749-1.544C488.628,430.505,492.551,437.31,491.014,446.356z"/>
	<path fill="#F7F2E3" d="M734.978,241.793c-6.915,3.839-11.982,1.325-16.668-2.179c-4.108-3.072-8.211-6.549-8.39-12.185
		c-0.073-2.289,0.752-5.695,2.351-6.692c2.348-1.463,6.4-2.544,8.604-1.474C730.131,223.756,734.668,231.537,734.978,241.793z"/>
	<path fill="#432113" d="M927.899,552.94c-1.267,1.773-2.934,5.215-5.585,7.528c-3.241,2.827-7.384,2.052-10.551-0.529
		c-2.915-2.375-5.597-5.216-7.765-8.288c-3.522-4.991-0.892-11.848,4.969-13.949C917.42,534.672,927.716,541.998,927.899,552.94z"/>
	<path fill="#432113" d="M693.391,262.494c-3.364-0.986-6.727-1.971-10.087-2.953c-1.548-3.406-3.926-6.691-4.464-10.254
		c-0.881-5.829,3.23-10.543,8.228-10.794c5.137-0.258,10.029,3.364,11.229,8.496C699.723,253.091,698.246,258.346,693.391,262.494z"
		/>
	<path fill="#37612B" d="M811.289,559.541c-0.449-0.26-0.897-0.521-1.346-0.781c0.51,0.199,1.02,0.399,1.53,0.598
		C811.475,559.357,811.289,559.541,811.289,559.541z"/>
	<path fill="#D1B253" d="M355.952,547.492c3.694,2.455,7.717,4.533,11.032,7.423c50.856,44.341,104.069,85.719,158.745,125.166
		c57.89,41.766,118.525,79.148,182.529,110.932c59.037,29.318,121.383,48.401,185.928,60.778
		c26.764,5.133,53.763,8.212,80.995,9.488c10.986,0.514,21.991,1.476,32.88,3.006c21.808,3.064,42.567,0.189,62.503-9.21
		c4.02-1.895,8.438-2.943,12.674-4.382c-0.38,4.416-3.392,6.808-6.875,8.731c-31.046,17.145-63.418,28.502-99.726,28.086
		c-61.516-0.705-121.014-10.765-178.198-33.777c-22.225-8.944-45.022-16.644-66.653-26.837
		c-23.989-11.304-47.404-24.025-70.253-37.513c-56.418-33.301-109.451-71.66-161.269-111.63
		c-25.608-19.753-49.934-41.166-74.947-61.698c-21.022-17.256-42.113-34.425-61.112-53.964
		C360.209,557.988,355.155,554.361,355.952,547.492z"/>
	<path fill="#F7F2E3" d="M317.227,605.261c-4.273-2.413-8.925-4.336-12.751-7.322c-15.315-11.954-31.132-23.413-45.375-36.563
		c-34.284-31.652-67.795-64.143-101.598-96.315c-12.816-12.198-22.646-26.732-31.228-42.002c-4.4-7.83-7.077-16.65-10.309-25.108
		c-1.483-3.88-1.058-7.8,2.272-10.667c3.692-3.18,7.196-1.255,10.57,0.955c13.723,8.989,24.556,21.023,35.197,33.284
		c25.89,29.831,50.475,60.733,77.907,89.311c25.526,26.592,51.359,53.134,72.856,83.347c1.817,2.554,3.363,5.303,5.034,7.962
		C318.942,603.182,318.084,604.221,317.227,605.261z"/>
	<path fill="#432113" d="M351.468,602.888c-30.835-24.982-58.804-53.037-85.728-82.045c-31.789-34.248-62.961-69.098-93.525-104.445
		c-14.392-16.645-27.197-34.741-39.826-52.806c-6.635-9.491-11.454-20.273-16.819-30.614c-1.033-1.991-0.785-4.646-1.645-10.537
		c4.563,4.797,6.778,6.883,8.718,9.201c30.821,36.833,61.334,73.927,92.464,110.496c45.444,53.384,91.103,106.595,140.431,156.497
		C354.182,600.052,352.825,601.47,351.468,602.888z"/>
	<path fill="#D1B253" d="M1042.287,764.915c-5.103-10.533-15.133-15.701-24.146-21.858c-6.384-4.361-13.256-8.005-20.055-12.056
		c-0.569-7.033,0.106-13.124,5.79-18.415c18.127,10.489,36.217,20.461,53.771,31.301c10.477,6.47,19.515,14.9,25.876,25.756
		c-2.688,2.642-2.337,5.313-0.606,8.456c6.097,11.07,12.102,22.195,17.863,33.442c1.385,2.704,1.697,5.958,2.502,8.957
		c-2.424-2.099-4.839-5.972-7.273-5.984c-11.162-0.054-16.868-8.112-23.94-14.49c-15.561-14.035-33.788-23.427-53.567-29.981
		c-10.286-3.408-20.769-6.316-30.075-10.641c-1.24-6.256,0.897-9.008,5.763-7.824c4.304,1.048,8.172,3.764,12.401,5.269
		c10.871,3.869,21.837,7.473,32.769,11.174c1.536-0.074,3.068-0.138,4.6-0.202C1043.402,766.85,1042.844,765.882,1042.287,764.915z"
		/>
	<path fill="#F7F2E3" d="M187.359,377.012c-10.892-5.531-16.378-12.048-21.684-18.333c-11.694-13.848-23.433-27.75-33.911-42.513
		c-15.374-21.662-30.058-43.846-44.22-66.323c-5.807-9.217-9.68-19.694-14.007-29.78c-1.212-2.825-1.419-6.34-1.179-9.468
		c0.316-4.099,2.689-7.303,6.817-8.553c4.312-1.305,7.584,0.73,10.02,4.079c1.512,2.078,2.73,4.408,3.831,6.742
		c15.805,33.514,36.063,64.434,55.575,95.794c12.323,19.806,24.509,39.699,36.648,59.619
		C186.132,369.723,186.124,371.714,187.359,377.012z"/>
	<path fill="#F7F2E3" d="M656.016,819.14c4.495,0.201,7.615-0.351,10.21,0.572c14.007,4.98,27.916,10.239,41.799,15.56
		c39.922,15.301,81.059,26.459,122.608,36.238c4.178,0.984,9.198,0.554,11.391,6.784c-9.936,0-19.633,1.136-28.976-0.2
		c-36.553-5.229-72.095-15.062-107.201-26.221c-12.217-3.884-23.715-10.25-35.195-16.156
		C664.559,832.583,658.641,828.492,656.016,819.14z"/>
	<path fill="#432113" d="M549.822,770.922c-17.529-11.051-35.358-21.657-52.512-33.265c-22.544-15.254-44.68-31.125-66.726-47.098
		c-7.175-5.199-15.267-10.099-17.387-21.448c2.824-0.078,5.473-0.902,7.354-0.042c3.485,1.592,6.6,4.059,9.732,6.349
		c41.332,30.219,82.64,60.472,123.955,90.715C552.766,767.73,551.294,769.326,549.822,770.922z"/>
	<path fill="#987B50" d="M549.822,770.922c1.472-1.596,2.944-3.192,4.415-4.788c11.059,4.933,20.802,11.802,30.435,19.439
		c-1.693,1.342-2.793,2.728-3.298,2.538C570.075,783.84,558.776,779.515,549.822,770.922z"/>
	<path fill="#987B50" d="M351.468,602.888c1.357-1.418,2.714-2.836,4.071-4.254c15.282,12.068,15.282,12.068,19.619,21.444
		C363.254,615.122,363.254,615.122,351.468,602.888z"/>
	<path fill="#D1B253" d="M285.661,469.765c1.818,2.163,3.636,4.326,5.458,6.488C286.574,476.39,285.365,473.712,285.661,469.765z"/>
	<path fill="#D1B253" d="M308.834,497.27c1.883,2.068,3.765,4.136,5.65,6.203C310.166,503.63,308.829,501.062,308.834,497.27z"/>
	<path fill="#D1B253" d="M321.402,511.789c1.484,1.417,2.968,2.834,4.455,4.252C324.374,514.625,322.888,513.207,321.402,511.789z"
		/>
	<path fill="#D1B253" d="M336.283,527.78c1.377,1.442,2.755,2.884,4.133,4.326C339.038,530.664,337.66,529.222,336.283,527.78z"/>
	<path fill="#D1B253" d="M291.109,476.283c1.123,1.483,2.247,2.967,3.372,4.451C291.816,480.422,290.632,478.983,291.109,476.283z"
		/>
	<path fill="#D1B253" d="M340.278,531.965c1.334,1.347,2.668,2.695,4.002,4.042C342.946,534.66,341.612,533.313,340.278,531.965z"/>
	<path fill="#D1B253" d="M294.302,480.559c1.222,1.498,2.443,2.996,3.666,4.495C296.747,483.556,295.524,482.058,294.302,480.559z"
		/>
	<path fill="#D1B253" d="M297.756,484.823c1.268,1.451,2.535,2.903,3.804,4.355C300.292,487.727,299.024,486.275,297.756,484.823z"
		/>
	<path fill="#D1B253" d="M344.157,535.885c1.338,1.34,2.675,2.681,4.014,4.022C346.833,538.567,345.495,537.226,344.157,535.885z"/>
	<path fill="#D1B253" d="M348.049,539.787c1.345,1.333,2.69,2.667,4.036,4C350.74,542.454,349.394,541.121,348.049,539.787z"/>
	<path fill="#D1B253" d="M351.957,543.662c1.368,1.318,2.736,2.637,4.104,3.956C354.693,546.3,353.325,544.981,351.957,543.662z"/>
	<path fill="#D1B253" d="M1083.151,850.813c1.755-0.988,3.511-1.976,5.273-2.967C1086.67,848.832,1084.91,849.822,1083.151,850.813z
		"/>
	<path fill="#D1B253" d="M301.409,489.013c1.264,1.406,2.529,2.813,3.793,4.22C303.938,491.826,302.673,490.419,301.409,489.013z"/>
	<path fill="#D1B253" d="M305.135,493.157c1.233,1.369,2.467,2.738,3.701,4.107C307.602,495.896,306.369,494.526,305.135,493.157z"
		/>
	<path fill="#D1B253" d="M314.507,503.523c1.168,1.414,2.336,2.828,3.506,4.244C315.381,507.566,314.168,506.186,314.507,503.523z"
		/>
	<path fill="#D1B253" d="M317.904,507.666c1.244,1.45,2.488,2.899,3.734,4.349C320.395,510.567,319.15,509.116,317.904,507.666z"/>
	<path fill="#987B50" d="M314.147,462.687c2.828,1.317,6.273,1.997,8.387,4.049c20.675,20.067,41.149,40.341,61.592,60.645
		c1.282,1.274,1.83,3.288,2.72,4.957c-2.313-0.91-5.134-1.256-6.864-2.814C356.715,508.559,333.298,487.719,314.147,462.687z"/>
	<path fill="#588B47" d="M955.545,622.217c-9.36-1.138-18.294-3.089-23.411-12.311c5.736,0.606,11.551,0.813,17.185,1.934
		C954.692,612.909,956.231,617.089,955.545,622.217z"/>
	<path fill="#987B50" d="M390.677,536.151c10.164,1.091,14.383,10.345,21.471,15.66
		C401.909,550.825,395.901,544.026,390.677,536.151z"/>
	<path fill="#588B47" d="M932.296,610.014c-7.833,0.546-15.456,0.571-19.675-7.899C920.245,602.089,926.856,604.591,932.296,610.014
		z"/>
	<path fill="#588B47" d="M912.85,602.265c-2.666-1.347-5.333-2.695-7.999-4.042C908.402,597.814,911.308,598.688,912.85,602.265z"/>
	<path fill="#37612B" d="M794.637,768.326c0.155-0.395,0.314-1.126,0.465-1.124c0.476,0.004,0.949,0.284,1.424,0.457
		c-0.154,0.401-0.318,1.143-0.461,1.139C795.585,768.784,795.113,768.504,794.637,768.326z"/>
	<path fill="#987B50" d="M386.777,532.272c1.332,1.32,2.664,2.639,3.996,3.959C389.441,534.911,388.109,533.591,386.777,532.272z"/>
	<path fill="#37612B" d="M316.733,828.627c-1.151-2.968-1.732-6.348-3.536-8.842c-33.458-46.248-62.908-95.07-90.042-145.15
		c-15.063-27.802-26.441-57.631-38.989-86.757c-4.557-10.576-10.673-20.818-10.594-32.958c3.129,2.145,6.897,3.74,9.28,6.523
		c35.91,41.938,73.86,81.998,114.23,119.571c46.55,43.324,96.127,83.06,148.672,119.03c15.494,10.607,30.01,22.639,45.07,33.889
		c31.229,23.33,64.154,43.918,98.198,62.959c34.05,19.044,68.918,36.105,105.145,50.479c1.737,0.689,3.206,2.055,6.119,3.978
		c-2.647,2.303-4.487,4.789-6.948,5.911c-27.709,12.634-32.384,13.273-60.877,1.301c-35.261-14.816-70.502-29.82-104.93-46.446
		c-37.956-18.33-75.086-38.392-112.349-58.127c-12.012-6.362-23.291-14.106-34.942-21.158c-4.333-2.623-8.77-5.074-12.921-7.466
		c-4.267,3.715-2.414,6.727-0.007,8.772c9.87,8.387,19.552,17.103,30.111,24.55c30.778,21.706,62.79,41.438,96.448,58.446
		c40.541,20.485,81.235,40.611,123.821,56.614c1.123,0.422,1.967,1.589,2.956,2.421c0.588,3.776-2.355,3.977-4.727,4.385
		c-14.022,2.418-28.05,4.802-42.103,7.03c-6.777,1.074-12.753-1.63-18.524-4.735c-21.708-11.674-44.244-22.063-64.929-35.337
		c-57.867-37.134-114.967-75.465-172.356-113.345c-0.517-0.342-0.837-0.984-1.25-1.487c1.877-1.502,2.622-2.963-0.154-4.298
		L316.733,828.627z M356.59,819.835c-1.482-1.13-2.964-2.259-4.446-3.389c-0.618-0.499-1.235-0.998-1.853-1.497
		c0.469,0.649,0.938,1.299,1.415,1.939c1.202,1.409,2.404,2.819,3.615,4.218c0.811,0.391,1.621,0.781,2.432,1.171
		C357.366,821.463,356.978,820.649,356.59,819.835z M467.44,832.202c-12.331-0.229-17.262,6.799-12.924,16.356
		c1.284,2.83,3.407,5.506,5.741,7.582c4.23,3.761,9.358,4.241,14.443,1.847c4.94-2.325,8.327-6.16,8.684-11.861
		c0.317-5.056-4.434-11.067-10.095-12.85C470.867,832.515,468.26,832.345,467.44,832.202z"/>
	<path fill="#37612B" d="M309.015,933.831c-5.923-10.428-15.506-17.124-24.548-24.454c-23.553-19.093-41.867-42.276-53.755-70.335
		c-3.647-8.608-3.628-8.616-0.911-21.402c3.541,0.871,7.57,0.898,10.464,2.726c24.108,15.223,48.277,30.536,69.234,49.992
		c30.442,28.26,63.285,53.478,96.325,78.492c8.261,6.255,16.887,12.032,25.048,18.411c2.92,2.283,4.962,5.691,7.409,8.583
		c-9.079,2.394-16.126-1.903-23.197-6.74c-26.027-17.805-52.031-35.649-78.319-53.064c-9.558-6.332-19.886-11.5-29.855-17.196
		c-3.886,5.167,0.092,6.931,1.985,8.692c11.774,10.946,23.905,21.508,35.62,32.516c4.158,3.907,7.483,8.702,11.189,13.092
		l0.14-0.139c-12.897-0.561-24.4-5.247-35.227-11.929c-2.644-1.194-5.288-2.389-7.933-3.583c0,0,0.336,0.269,0.335,0.269
		c-1.394-1.374-2.786-2.749-4.179-4.124L309.015,933.831z"/>
	<path fill="#37612B" d="M465.838,982.496c-4.218-9.185-12.36-14.655-19.568-21.105c-12.021-10.757-23.847-21.75-35.349-33.058
		c-2.523-2.481-3.344-6.696-4.953-10.112c6.478-0.316,10.658,4.293,15.318,7.529c25.992,18.046,51.846,36.29,77.702,54.532
		c1.892,1.335,3.422,3.187,6.886,6.474C490.469,988.149,478.273,984.034,465.838,982.496z"/>
	<path fill="#37612B" d="M401.939,914.844c-5.551-0.649-9.463-3.298-10.911-8.957C396.139,907.074,400.45,909.238,401.939,914.844z"
		/>
	<path fill="#37612B" d="M222.937,891.233c4.89-0.353,7.517,2.31,8.876,6.667C227.055,898.08,223.928,896.081,222.937,891.233z"/>
	<path fill="#588B47" d="M312.685,937.492c2.645,1.195,5.289,2.389,7.933,3.583C317.973,939.88,315.329,938.685,312.685,937.492z"/>
	<path fill="#37612B" d="M173.449,554.964c-3.508-1.376-4.22-4.222-3.97-7.573C170.803,549.914,172.126,552.439,173.449,554.964z"/>
	<path fill="#37612B" d="M234.438,899.119c1.524,1.074,3.049,2.148,4.573,3.221C237.487,901.266,235.962,900.192,234.438,899.119z"
		/>
	<path fill="#37612B" d="M355.705,953.144c0.474,0.238,0.947,0.477,1.421,0.716c-0.427-0.285-0.855-0.569-1.282-0.855
		C355.845,953.004,355.705,953.144,355.705,953.144z"/>
	<path fill="#588B47" d="M308.841,933.637c1.393,1.375,2.785,2.75,4.179,4.124C311.628,936.386,310.234,935.012,308.841,933.637z"/>
	<path fill="#588B47" d="M316.604,828.379c2.776,1.336,2.031,2.797,0.154,4.298C316.708,831.246,316.656,829.813,316.604,828.379z"
		/>
	<path fill="#F7F2E3" d="M112.636,586.085c-2.67-0.755-4.554-0.738-4.911-1.469c-7.187-14.716-11.434-30.265-11.652-46.673
		c-0.076-5.747,0.819-11.63,2.148-17.243c1.643-6.939,6.979-10.452,12.598-9.315c5.139,1.04,7.915,4.866,8.077,11.65
		c0.077,3.221-0.21,6.467-0.546,9.678C116.531,550.052,114.645,567.384,112.636,586.085z"/>
	<path fill="#37612B" d="M198.074,694.255c-5.21,4.883-6.711,7.092-8.793,8.107c-12.025,5.864-24.991,6.357-37.713,4.165
		c-5.931-1.022-11.778-4.865-16.727-8.654c-5.679-4.348-5.917-11.059-4.068-17.674c1.264-4.52,6.498-7.355,10.687-5.309
		c3.978,1.942,7.997,4.26,11.182,7.276c7.477,7.078,16.199,9.958,26.291,10.045C183.832,692.254,188.721,693.215,198.074,694.255z"
		/>
	<path fill="#432113" d="M149.333,653.732c0.866-1.815,2.332-6.8,5.284-10.641c4.711-6.131,12.368-6.702,18.914-2.398
		c6.73,4.424,10.891,10.753,12.981,18.412c2.839,10.405-6.366,20.977-17.117,19.832
		C157.974,677.721,149.354,668.293,149.333,653.732z"/>
	<path fill="#432113" d="M258.754,224.627c-15.954,0.625-28.12-8.574-41.025-15.852c-15.949-8.993-32.515-15.544-51.263-16.155
		c-10.731-0.35-18.925,2.557-24.552,11.834c-2.397-2.969-5.895-5.618-6.872-8.996c-0.938-3.243-0.355-7.959,1.483-10.766
		c4.378-6.684,10.919-11.152,19.284-11.085c6.383,0.051,12.921,0.415,19.1,1.87c10,2.355,19.727,5.847,29.636,8.622
		c7.832,2.193,15.433,6.865,24.057,2.308c1.465-0.774,3.847-0.251,5.683,0.185c18.086,4.298,36.541,7.541,52.582,17.887
		C277.5,211.197,268.127,217.912,258.754,224.627z"/>
	<path fill="#432113" d="M314.44,380.551c-11.968-0.148-21.126-6.106-27.738-15.323c-8.272-11.531-4.857-28.25,6.44-36.298
		c10.046-7.158,29.463-4.535,36.986,5.967c6.045,8.44,10.435,17.85,7.022,29.004C333.432,376.047,327.228,380.768,314.44,380.551z"
		/>
	<path fill="#588B47" d="M636.178,418.951c1.988,1.371,3.976,2.743,5.965,4.115C640.156,421.695,638.167,420.323,636.178,418.951z"
		/>
	<path fill="#432113" d="M1042.287,764.915c0.558,0.968,1.116,1.935,1.674,2.903c-1.532,0.064-3.064,0.128-4.6,0.202
		C1040.333,766.991,1041.31,765.953,1042.287,764.915z"/>
	<path fill="#432113" d="M467.44,832.202c0.82,0.143,3.428,0.313,5.849,1.075c5.661,1.783,10.412,7.794,10.095,12.85
		c-0.357,5.701-3.744,9.536-8.684,11.861c-5.085,2.393-10.214,1.914-14.443-1.847c-2.334-2.076-4.457-4.752-5.741-7.582
		C450.178,839.001,455.109,831.974,467.44,832.202z"/>
	<path fill="#432113" d="M351.699,816.897c-0.469-0.649-0.938-1.299-1.407-1.949c0.618,0.499,1.235,0.998,1.853,1.497
		C352.144,816.446,351.699,816.897,351.699,816.897z"/>
	<path fill="#432113" d="M352.144,816.446c1.482,1.13,2.964,2.259,4.446,3.389l-1.277,1.281c-1.202-1.409-2.404-2.819-3.611-4.223
		C351.699,816.897,352.144,816.446,352.144,816.446z"/>
	<path fill="#432113" d="M356.59,819.835c0.388,0.814,0.776,1.628,1.164,2.442c-0.811-0.391-1.621-0.781-2.436-1.166
		C355.314,821.116,356.59,819.835,356.59,819.835z"/>
</g>
</svg>
