<?xml version="1.0" encoding="utf-8"?>
<!-- Designed by Vexels.com - 2020 All Rights Reserved - https://vexels.com/terms-and-conditions/  -->
<svg version="1.1" id="Capa_1" xmlns="http://www.w3.org/2000/svg" xmlns:xlink="http://www.w3.org/1999/xlink" x="0px" y="0px"
	 viewBox="0 0 1200 1200" enable-background="new 0 0 1200 1200" xml:space="preserve">
<g>
	<path fill="none" d="M194.613,662.529c0.49-0.7,0.983-1.398,1.487-2.085c0.537-0.063,1.073-0.134,1.608-0.211
		c-0.535,0.076-1.071,0.147-1.608,0.211C195.596,661.131,195.104,661.829,194.613,662.529z"/>
	<path fill="none" d="M352.669,718.8c2.479,0.459,4.983,0.824,7.461,1.287C357.651,719.624,355.147,719.259,352.669,718.8
		C352.668,718.8,352.668,718.8,352.669,718.8z"/>
	<path fill="none" d="M197.709,660.234c1.76-2.061,3.529-4.115,5.28-6.184C201.238,656.119,199.469,658.173,197.709,660.234
		C197.709,660.233,197.709,660.233,197.709,660.234z"/>
	<path fill="none" d="M449.418,750.603c0.652-1.772,0.989-3.66,1.471-5.495c0.573-0.086,1.146-0.172,1.719-0.259
		c-0.573,0.086-1.146,0.172-1.722,0.256C450.407,746.943,450.07,748.831,449.418,750.603z"/>
	<path fill="none" d="M591.047,467.626c0,0-0.001,0-0.001-0.001c0.886,2.83,1.744,5.668,2.661,8.486
		C592.79,473.293,591.932,470.455,591.047,467.626z"/>
	<path fill="none" d="M594.952,512.237c0.259-0.735,0.509-1.481,0.749-2.237h0C595.46,510.757,595.211,511.502,594.952,512.237z"/>
	<path fill="none" d="M589.274,466.113c-3.134-6.606-7.162-12.415-12.028-17.423C582.112,453.698,586.14,459.506,589.274,466.113
		C589.273,466.112,589.274,466.113,589.274,466.113z"/>
	<path fill="none" d="M688.835,743.048c-0.039,0.621-0.078,1.242-0.118,1.864c-0.467,0.39-0.937,0.777-1.407,1.163
		c0.47-0.386,0.94-0.773,1.407-1.163c1.898,8.361,2.372,16.647,1.096,24.854c1.276-8.207,0.802-16.493-1.096-24.854
		C688.757,744.29,688.797,743.669,688.835,743.048c-0.197-0.357-0.412-0.706-0.616-1.06
		C688.424,742.341,688.638,742.691,688.835,743.048z"/>
	<path fill="none" d="M549.49,825.929c-8.141,2.104-15.737,5.559-23.313,9.067c7.576-3.509,15.172-6.964,23.315-9.068
		c0.124-0.382,0.286-0.748,0.486-1.098C549.778,825.181,549.616,825.547,549.49,825.929z"/>
	<path fill="none" d="M991.632,644.901c-2.841,0.918-5.706,1.767-8.518,2.765c2.812-0.998,5.678-1.847,8.519-2.763
		c0.129-3.25,0.201-6.502,0.402-9.746C991.833,638.401,991.762,641.653,991.632,644.901z"/>
	<path fill="none" d="M1120.877,506.915C1120.877,506.915,1120.877,506.915,1120.877,506.915c-3.052-2.994-5.6-6.353-7.794-9.938
		C1115.276,500.563,1117.825,503.921,1120.877,506.915z"/>
	<path fill="none" d="M94.907,584.964C94.907,584.964,94.907,584.965,94.907,584.964c3.114,1.672,6.463,3.031,9.395,4.947
		C101.37,587.996,98.021,586.637,94.907,584.964z"/>
	<path fill="none" d="M1022.88,639.711c-0.038-1.607,0.027-3.216,0.045-4.825c0,0.001,0,0.001,0,0.002
		C1022.907,636.493,1022.842,638.103,1022.88,639.711z"/>
	<path fill="none" d="M385.006,841.128c1.021,0.045,2.042,0.09,3.063,0.135c10.858,3.015,21.921,4.753,33.091,5.699
		c-11.17-0.946-22.233-2.684-33.088-5.7C387.049,841.217,386.027,841.173,385.006,841.128z"/>
	<path fill="none" d="M162.639,672.677c3.69,4.033,7.53,7.861,12.254,10.734c0-0.001,0.001-0.001,0.001-0.002
		C170.169,680.539,166.329,676.711,162.639,672.677z"/>
	<path fill="none" d="M176.544,683.235c-0.55,0.059-1.1,0.115-1.65,0.174c0.55-0.059,1.1-0.115,1.651-0.171
		c2.312,1.402,4.584,2.874,6.941,4.195C181.129,686.111,178.856,684.64,176.544,683.235
		C176.544,683.235,176.544,683.235,176.544,683.235z"/>
	<path fill="none" d="M989.201,525.806c-3.18-4.403-6.902-8.444-10.336-12.678c-0.44-0.739-0.881-1.479-1.321-2.218
		c17.224-11.749,36.058-20.064,55.524-27.033c-19.466,6.969-38.3,15.283-55.526,27.03c0.443,0.743,0.884,1.482,1.326,2.224
		C982.299,517.362,986.021,521.403,989.201,525.806z"/>
	<path fill="none" d="M379.605,841.656c-0.284,0.072-0.568,0.144-0.852,0.217C379.037,841.799,379.321,841.728,379.605,841.656z"/>
	<path fill="none" d="M375.323,842.732c-1.33,0.317-2.663,0.605-4.004,0.814C372.66,843.337,373.993,843.049,375.323,842.732z"/>
	<path fill="none" d="M75.161,604.316c1.621-1.762,3.545-3.245,5.331-4.854c0-0.001,0-0.002-0.001-0.003
		C78.706,601.072,76.782,602.555,75.161,604.316z"/>
	<path fill="none" d="M592.975,468.693c0.141,0.076,0.282,0.152,0.422,0.228C593.257,468.845,593.117,468.769,592.975,468.693z"/>
	<path fill="none" d="M1106.174,560.546c-0.175,0.369-0.359,0.732-0.567,1.081C1105.815,561.278,1105.999,560.915,1106.174,560.546z
		"/>
	<path fill="none" d="M572.779,444.504c0.936,0.792,1.838,1.618,2.723,2.46C574.617,446.122,573.715,445.296,572.779,444.504z"/>
	<path fill="none" d="M594.791,512.671c-0.21,0.585-0.422,1.169-0.645,1.74C594.369,513.839,594.581,513.256,594.791,512.671z"/>
	<path fill="none" d="M565.868,545.788c-0.833,0.414-1.674,0.819-2.534,1.202C564.194,546.607,565.035,546.202,565.868,545.788z"/>
	<path fill="none" d="M80.158,597.949c0.001,0.001,0.001,0.001,0.002,0.001c4.914-4.329,9.831-8.657,14.747-12.986
		C89.991,589.294,85.074,593.621,80.158,597.949z"/>
	<path fill="none" d="M94.902,583.474C94.902,583.474,94.902,583.474,94.902,583.474c2.35-1.605,4.736-3.16,7.072-4.785
		C99.638,580.314,97.251,581.869,94.902,583.474z"/>
	<polygon fill="#E07E50" points="344.543,714.002 344.541,714 344.543,714.002 	"/>
	<path fill="#E07E50" d="M82.83,555.305c-2.596,5.188-6.781,8.244-12.675,8.461c-2.383,0.088-4.786-0.335-7.179-0.526
		c1.311,3.737,4.744,4.986,7.807,6.695c8.05,4.494,16.08,9.024,24.119,13.539c2.35-1.606,4.736-3.16,7.072-4.785
		c0.779-0.542,1.552-1.091,2.316-1.652c15.871-11.662,32.837-21.164,51.859-26.724c9.689-2.832,19.576-4.598,29.619-5.262
		c9.324-0.617,18.494,0.84,27.172,4.234c15.22,5.952,23.036,17.513,24.057,33.666c0.704,11.134-2.428,21.476-7.159,31.416
		c-6.942,14.586-16.467,27.424-26.847,39.684c-1.751,2.069-3.52,4.123-5.28,6.184c2.134,1.861,4.134,3.915,6.377,5.616
		c0.32,0.243,0.646,0.479,0.977,0.706c4.697,3.217,9.64,6.072,14.46,9.112c10.555,6.659,21.242,13.122,31.604,20.07
		c10.076,6.757,20.848,11.589,32.792,13.709c7.477,1.327,14.962,2.647,22.484,3.673c3.467,0.473,7.069,0.599,10.543,0.241
		c6.254-0.645,12.434-0.657,18.662,0.21c2.941,0.41,5.954,0.305,8.934,0.433l-0.109-0.107c0,0,0.001,0,0.001,0
		c0,0-0.001-0.001-0.001-0.001c0.428,0.1,0.858,0.185,1.291,0.258c-0.41-0.137-0.832-0.221-1.266-0.255
		c-1.653-2.077-3.313-4.147-4.955-6.232c-2.347-2.979-5.005-5.772-6.964-8.989c-7.167-11.773-5.425-25.28,4.218-35.071
		c4.659-4.73,10.179-8.065,16.373-10.369c13.099-4.872,26.655-7.372,40.601-7.834c27.19-0.902,53.515,3.843,79.273,12.215
		c3.094,1.006,6.216,2.017,9.161,3.379c11.182,5.17,15.187,15.73,10.59,27.063c-3.751,9.248-9.169,17.2-17.114,23.358
		c-1.928,1.495-3.683,3.211-5.575,4.754c-9.204,7.506-14.569,17.337-17.459,28.679c24.048,2.275,48.099,4.525,72.143,6.842
		c6.214,0.599,12.408,1.401,18.61,2.12c1.348,0.156,2.686,0.418,4.038,0.527c18.145,1.469,19.048,0.317,30.623-9.036
		c13.932-11.257,27.79-22.606,41.672-33.925c1.262-1.029,2.51-2.082,3.685-3.207c19.229-18.405,37.879-37.369,54.654-58.067
		c4.425-5.46,8.336-11.383,12.046-17.364c4.439-7.155,5.519-15.198,5.071-23.513c-0.186-3.443-1.305-6.39-4.007-8.565
		c-8.35-6.726-14.831-15.031-20.658-23.942c-3.017-4.614-7.102-8.185-11.999-10.775c-11.187-5.917-20.449-14.006-28.786-23.564
		c-8.55-9.801-18.039-18.794-27.281-27.975c-0.465-0.462-0.977-0.878-1.517-1.265c-1.622-1.159-3.506-2.054-5.2-3.14
		c-0.24,0.757-0.49,1.502-0.749,2.237c-0.052,0.146-0.108,0.287-0.16,0.433c-0.21,0.585-0.422,1.169-0.645,1.74
		c-5.735,14.751-15.391,24.962-28.279,31.377c-0.833,0.414-1.674,0.819-2.534,1.202c-5.15,2.294-10.778,4.026-16.845,5.237
		c-7.471,1.492-15.101,2.073-22.719,1.521c-28.748-2.083-57.407-4.89-85.249-12.896c-13.875-3.989-27.238-9.317-39.735-16.638
		c-6.369-3.731-12.072-8.318-17.1-13.726c-19.281-20.734-17.345-46.419-4.252-65.914c5.534-8.241,13.549-13.334,23.362-15.046
		c6.223-1.085,12.029-3.165,17.849-5.488c26.722-10.665,54.286-12.691,82.475-7.608c13.661,2.463,27.151,5.709,40.073,10.798
		c7.301,2.875,14.461,6.275,21.293,10.133c3.714,2.097,7.148,4.478,10.293,7.141c0.936,0.792,1.838,1.618,2.723,2.46
		c0.593,0.565,1.175,1.14,1.745,1.727c4.866,5.008,8.894,10.816,12.028,17.423c0.591,0.504,1.181,1.008,1.772,1.513
		c0,0,0.001,0,0.001,0.001l0,0c0.627,0.374,1.278,0.72,1.928,1.068c0.141,0.076,0.282,0.152,0.422,0.228
		c0.881,0.476,1.749,0.967,2.534,1.553c0.213,0.158,0.419,0.324,0.619,0.498c19.041,16.605,37.894,33.421,55.258,51.81
		c5.84,6.185,12.426,11.326,19.827,15.487c2.602,1.463,5.093,3.124,7.627,4.705c7.036,4.39,12.766,10.082,17.105,17.159
		c3.284,5.356,7.174,10.198,11.806,14.476c2.953,2.726,6.207,4.173,10.291,3.999c11.42-0.487,22.798,0.076,34.176,1.233
		c5.109,0.519,10.324,0.326,15.471,0.063c7.918-0.405,15.575-1.902,22.73-5.703c9.473-5.031,19.703-7.683,30.369-8.7
		c5.948-0.567,11.897-1.124,17.832-1.805c2.688-0.308,5.343-0.906,8.011-1.372c-3.185-3.33-6.375-6.657-9.557-9.99
		c-5.875-6.156-10.585-13.066-13.461-21.121c-6.624-18.548,0.001-37.485,17.355-46.72c18.896-10.056,38.883-14.877,60.49-9.904
		c25.223,5.804,48.392,15.884,69.03,31.605c2.154,1.641,4.415,3.143,6.629,4.712c17.226-11.746,36.06-20.061,55.526-27.03
		c2.781-0.996,5.575-1.964,8.378-2.91c6.426-2.169,12.879-4.264,19.255-6.569c7.432-2.687,14.409-6.279,20.78-11.012
		c3.616-2.687,6.107-5.96,7.074-10.514c1.248-5.877,3.788-11.282,6.903-16.427c1.684-2.78,3.204-5.665,4.703-8.551
		c2.04-3.928,4.618-7.339,8.572-9.531c-2.891-4.26-6.424-7.917-10.405-11.161c-4.594-3.744-9.086-7.62-13.781-11.233
		c-8.749-6.733-17.491-13.494-27.253-18.764c0.739,3.452,1.567,6.888,2.202,10.359c3.489,19.092-6.243,36.008-24.445,42.719
		c-8.084,2.98-16.47,3.584-24.911,2.931c-16.952-1.312-33.368-4.991-48.347-13.333c-17.716-9.866-29.763-24.337-33.959-44.532
		c-2.855-13.741,0.718-25.818,10.449-36c1.5-1.57,3.044-3.109,4.676-4.539c2.04-1.787,4.193-3.447,6.306-5.158
		c-2.762-1.066-5.501-2.23-8.31-3.19c-19.61-6.695-39.913-9.885-60.456-11.812c-23.726-2.227-47.489-4.106-71.018-8.079
		c-2.117-0.357-4.308-0.274-6.465-0.395c-2.517,4.619-6.175,8.23-10.233,11.468c-7.252,5.788-15.033,10.773-23.642,14.253
		c-12.835,5.188-25.685,10.37-38.71,15.053c-17.645,6.344-35.064,13.13-51.939,21.372c-24.723,12.075-51.012,16.576-78.368,14.474
		c-6.17-0.474-12.378-1.841-18.316-3.631c-10.411-3.138-18.967-9.304-25.509-18.036c-3.089-4.123-5.881-8.471-8.772-12.74
		c-2.076-3.065-4.769-4.052-8.436-3.195c-6.34,1.482-12.729,2.769-19.122,4.008c-14.477,2.805-28.078,0.148-40.928-6.825
		c-3.339-1.812-6.624-3.731-9.868-5.709c-3.762-2.292-6.96-5.186-9.045-9.156c-2.419,1.186-4.973,2.16-7.23,3.599
		c-6.409,4.084-12.769,8.253-19.021,12.575c-27.691,19.143-55.239,38.492-83.033,57.484c-17.721,12.109-36.161,23.039-55.638,32.184
		c-23.398,10.986-47.641,19.732-72.169,27.746c-22.206,7.255-44.129,15.232-65.581,24.515
		c-26.999,11.682-51.039,27.606-71.388,48.934c-1.666,1.746-3.043,3.767-4.555,5.66c2.895,3.868,3.693,7.947,2.479,12.161
		c-0.187,0.648-0.421,1.3-0.703,1.954C83.147,554.649,82.995,554.977,82.83,555.305z M580.654,600.204
		c9.623-0.104,17.711,7.89,17.613,17.409c-0.1,9.713-8.053,17.61-17.59,17.465c-9.575-0.145-17.412-8.296-17.188-17.879
		C563.707,607.816,571.292,600.305,580.654,600.204z M536.017,719.935c3.797-7.115,12.455-12.308,21.861-12.36
		c5.2,0.091,10.386,2.629,13.271,8.525c2.846,5.816,2.182,11.586-1.844,16.729c-1.822,2.328-3.877,4.515-6.056,6.516
		c-6.621,6.078-16.837,6.201-23.708,0.427C533.736,734.893,532.312,726.878,536.017,719.935z M419.556,617.593
		c0.891-2.471,2.776-3.897,5.356-4.297c3.37-0.522,6.375,0.456,9.008,2.537c2.591,2.047,3.537,5.16,2.509,7.854
		c-1.041,2.728-3.701,4.421-7.56,4.454c-2.822-0.056-5.701-1.279-7.961-3.821C419.163,622.357,418.668,620.056,419.556,617.593z
		 M930.498,430.628c2.412-1.427,5.023-1.955,7.769-1.402c2.544,0.512,4.436,1.962,5.245,4.498c0.803,2.517,0.158,4.78-1.569,6.74
		c-1.896,2.152-4.84,3.374-7.939,3.333c-3.64-0.048-6.645-2.099-7.445-5.082C925.751,435.706,927.292,432.525,930.498,430.628z
		 M872.595,333.987c2.454-6.479,8.665-10.568,16.742-10.413c5.431,0.481,11.308,2.413,16.429,6.14
		c5.66,4.12,7.217,9.971,5.646,16.552c-1.55,6.493-6.177,10.193-12.549,11.07c-7.803,1.074-15.092-1.218-21.336-5.835
		C872.061,347.46,870.312,340.015,872.595,333.987z M824.492,398.938c1.565-7.718,6.326-13.159,13.63-15.998
		c7.511-2.918,15.835,0.896,18.803,8.293c4.816,11.998-6.59,26.912-17.781,26.006C829.598,417.075,822.556,408.487,824.492,398.938z
		 M821.222,435.466c2.047-0.426,4.31-0.34,6.386,0.024c3.26,0.573,5.345,3.068,5.619,6.054c0.268,2.921-1.42,5.67-4.475,6.992
		c-1.214,0.525-2.562,0.742-3.24,0.931c-3.846,0.063-6.473-1.089-8.246-3.792C814.645,441.678,816.592,436.43,821.222,435.466z
		 M738.088,365.901c4.021,0.134,7.096,3.289,7.158,7.345c0.064,4.161-3.03,7.411-6.994,7.348c-4.232-0.067-7.873-3.735-7.74-7.798
		C730.639,368.914,734.095,365.768,738.088,365.901z M695.71,452.271c2.472-5.915,6.306-10.794,11.549-14.438
		c7.221-5.019,15.215-8.351,23.834-10.126c4.925-1.014,9.747-0.678,14.306,1.589c5.714,2.841,9.423,7.206,10.22,13.736
		c0.624,5.113,1.294,10.221,1.792,14.133c0.114,18.065-13.014,33.519-29.65,36.03c-8.788,1.326-16.78-0.858-23.751-6.245
		C693.836,479.087,690.507,464.72,695.71,452.271z M656.536,422.313c0.805,0.119,2.465,0.133,3.965,0.628
		c5.153,1.701,6.617,8.335,2.298,11.577c-3.391,2.546-7.279,4.578-11.205,6.221c-4.141,1.734-8.088-1.258-8.44-5.851
		C642.609,427.765,647.908,422.475,656.536,422.313z M485.479,381.262c0.345-9.223,8.465-17.055,17.574-16.951
		c9.764,0.112,17.486,8.11,17.3,17.917c-0.178,9.363-8.038,16.921-17.479,16.807C493,398.916,485.12,390.864,485.479,381.262z
		 M340.853,439.418c1.743-3.125,4.74-4.162,8.907-4.13c0.866,0.21,2.463,0.464,3.956,1.004c0.976,0.354,1.901,1.014,2.678,1.724
		c2.929,2.674,2.872,6.732-0.074,11.809c-2.273,3.916-5.682,5.544-9.382,3.858c-2.093-0.953-4.118-2.582-5.518-4.408
		C339.134,446.293,338.998,442.744,340.853,439.418z M340.443,550.126c10.074,2.248,15.186,13.378,10.067,22.344
		c-3.474,6.084-8.828,9.427-15.971,9.58c-5.981,0.121-10.534-2.435-13.554-7.505c-3.048-5.119-2.79-10.383,0.078-15.499
		C324.905,552.195,333.085,548.483,340.443,550.126z M312.727,523.541c0.543-4.34,3.996-7.511,8.361-7.121
		c3.209,0.286,6.426,1.02,9.514,1.964c2.751,0.841,4.538,2.933,4.919,5.908c0.358,2.795-1.38,5.836-4.482,7.038
		c-2.478,0.96-5.201,1.29-7.116,1.736c-2.127-0.212-3.501-0.213-4.809-0.505C314.811,531.599,312.19,527.829,312.727,523.541z
		 M281.407,650.94c3.736-0.335,6.902,2.271,7.249,5.968c0.429,4.577-3.465,9.021-8.13,9.277c-3.71,0.204-6.795-2.653-6.859-6.352
		C273.592,655.487,277.223,651.316,281.407,650.94z M218.932,498.27c5.923-4.618,12.504-4.945,19.02-1.508
		c5.973,3.151,9.183,8.205,8.586,15.229c-0.706,8.317-7.712,14.199-18.11,14.134c-0.889-0.195-3.061-0.442-5.07-1.153
		c-5.867-2.076-9.298-6.389-10.286-12.45C212.117,506.67,214.36,501.835,218.932,498.27z M167.451,526.845
		c3.447,0.048,6.123,2.915,5.935,6.357c-0.187,3.42-3.17,5.966-6.619,5.649c-3.096-0.284-5.547-2.882-5.593-5.927
		C161.125,529.588,164.007,526.797,167.451,526.845z"/>
	<path fill="#B75B32" d="M1100.16,427.893c-1.499,2.887-3.019,5.771-4.703,8.551c-3.116,5.145-5.656,10.551-6.903,16.427
		c-0.967,4.553-3.458,7.827-7.074,10.514c-6.37,4.733-13.347,8.325-20.78,11.012c-6.376,2.305-12.83,4.4-19.255,6.569
		c-2.804,0.947-5.598,1.915-8.378,2.91c-19.466,6.969-38.3,15.284-55.524,27.033c0.44,0.74,0.881,1.479,1.321,2.218
		c3.434,4.234,7.156,8.275,10.336,12.678c0.454,0.629,0.897,1.265,1.327,1.911c3.181,4.777,6.474,9.356,10.548,13.396
		c4.475,4.438,7.977,9.58,10.81,15.213c12.243,24.34-4.471,42.331-20.908,47.102c-8.94,2.595-18.1,3.26-27.445,2.275
		c-21.243-2.238-41.577-8.068-61.588-15.178c-14.879-5.287-29.314-11.571-42.631-20.201c-3.439-2.229-6.829-4.458-9.286-7.825
		c-0.991-0.058-1.982-0.116-2.972-0.174c-2.669,0.466-5.324,1.064-8.011,1.372c-5.935,0.68-11.885,1.238-17.832,1.805
		c-10.666,1.017-20.896,3.669-30.369,8.7c-7.155,3.8-14.812,5.297-22.73,5.703c-5.147,0.263-10.362,0.457-15.471-0.063
		c-11.379-1.157-22.756-1.72-34.176-1.233c-4.083,0.174-7.338-1.273-10.291-3.999c-4.632-4.277-8.522-9.119-11.806-14.476
		c-4.339-7.077-10.069-12.769-17.105-17.159c-2.535-1.581-5.026-3.242-7.627-4.705c-7.401-4.16-13.987-9.302-19.827-15.487
		c-17.363-18.389-36.216-35.205-55.258-51.81c-0.199-0.174-0.406-0.339-0.619-0.498c-0.785-0.586-1.653-1.077-2.534-1.553
		c-0.141-0.076-0.281-0.152-0.422-0.228c-0.65-0.348-1.302-0.693-1.928-1.068l0,0c0.885,2.829,1.743,5.667,2.66,8.486
		c2.273,6.984,3.795,14.116,3.461,21.483c-0.145,3.19-1.004,6.348-1.539,9.52c0.024,0.962,0.047,1.925,0.071,2.886h0
		c1.694,1.086,3.579,1.981,5.2,3.14c0.541,0.387,1.052,0.802,1.517,1.265c9.242,9.181,18.731,18.174,27.281,27.975
		c8.337,9.558,17.599,17.647,28.786,23.564c4.897,2.59,8.983,6.161,11.999,10.775c5.827,8.911,12.308,17.216,20.658,23.942
		c2.702,2.176,3.821,5.122,4.007,8.565c0.448,8.315-0.632,16.359-5.071,23.513c-3.711,5.981-7.621,11.904-12.046,17.364
		c-16.774,20.699-35.425,39.662-54.654,58.067c-1.175,1.125-2.423,2.179-3.685,3.207c-13.882,11.319-27.74,22.668-41.672,33.925
		c-11.575,9.352-12.477,10.505-30.623,9.036c-1.351-0.109-2.689-0.371-4.038-0.527c-6.202-0.719-12.396-1.522-18.61-2.12
		c-24.044-2.316-48.095-4.567-72.143-6.842c-0.573,0.086-1.146,0.172-1.719,0.259c-0.482,1.835-0.819,3.723-1.471,5.495
		c-4.962,13.488-9.896,26.988-15.019,40.416c-4.609,12.084-12.045,22.418-20.639,31.944c-5.14,5.698-11.386,9.997-18.125,13.631
		c-2.602,1.404-5.045,3.103-7.564,4.668c10.856,3.016,21.918,4.753,33.088,5.7c2.578,0.218,5.161,0.395,7.749,0.535
		c16.222,0.878,32.442,1.698,48.327,5.439c4.456,1.05,8.585,0.352,12.635-1.474c10.358-4.67,20.721-9.328,31.058-14.043
		c1.753-0.799,3.5-1.612,5.248-2.422c7.576-3.509,15.172-6.964,23.313-9.067c0.126-0.383,0.288-0.749,0.488-1.098
		c1.422-19.667,9.499-36.645,21.241-52.085c10.565-13.892,22.378-26.62,36.134-37.435c9.291-7.305,19.86-12.247,30.937-16.17
		c6.34-2.245,12.765-2.455,19.238-0.591c1.828,0.526,3.626,1.157,5.458,1.668c11.356,3.169,20.037,9.509,24.68,20.684
		c0.155,0.374,0.35,0.732,0.554,1.086c0.205,0.354,0.419,0.703,0.616,1.06c16.674-13.904,28.437-31.185,35.33-51.736
		c1.198-3.572,1.991-7.359,2.381-11.108c0.91-8.749,5.686-15.083,12.13-20.429c6.337-5.257,14.245-5.751,21.118-1.131
		c2.663,1.79,4.941,4.205,7.211,6.515c4.181,4.255,8.23,8.639,12.326,12.975c3.226,3.415,7.082,5.897,11.423,7.622
		c8.322,3.306,16.682,6.519,24.992,9.858c5.885,2.365,11.429,2.349,17.169-0.848c6.67-3.716,14.047-5.775,21.473-7.46
		c6.35-1.44,12.716-2.903,19.148-3.868c19.617-2.946,38.915-7.403,58.243-11.757c4.854-1.093,9.164-2.981,13.23-5.912
		c11.573-8.343,24.782-13.374,38.105-18.101c2.812-0.998,5.678-1.847,8.518-2.765c0.13-3.248,0.202-6.5,0.403-9.744
		c0.396-6.386,3.929-10.679,9.66-12.882c6.069-2.333,11.86-1.289,16.462,3.506c2.033,2.118,3.458,4.82,5.158,7.256
		c3.328-1.8,6.812-3.365,9.96-5.439c16.503-10.877,32.956-21.83,49.327-32.903c2.415-1.633,4.772-3.742,6.346-6.157
		c5.759-8.837,11.267-17.842,16.659-26.91c0.208-0.349,0.392-0.712,0.567-1.081c0.965-2.036,1.496-4.329,2.278-6.47
		c-2.117,0.005-4.256,0.181-6.362,0.052c-0.301-0.018-0.601-0.043-0.901-0.075c-6.182-0.665-11.31-3.474-15.137-8.388
		c-4.625-5.941-4.742-13.035-0.486-18.71c4.431-5.908,10.974-8.028,17.93-5.602c2.274,0.793,4.4,2.025,6.566,3.111
		c2.402,1.205,4.773,2.473,7.158,3.714c1.359-5.504,2.717-11.009,4.075-16.513c-0.139-1.583-0.279-3.166-0.419-4.749
		c-3.052-2.994-5.6-6.353-7.794-9.938c-1.316-2.151-2.505-4.385-3.598-6.67c-5.505-11.51-3.337-22.053,5.802-30.967
		c4.354-4.246,9.842-6.574,14.971-9.528c-4.668-10.596-11.025-20.132-18.432-28.989c-0.828-0.991-2.053-1.65-3.094-2.461
		C1104.778,420.554,1102.2,423.965,1100.16,427.893z M455.013,828.138c-1.272,0.909-2.791,1.642-4.306,2.007
		c-3.576,0.86-7.145-1.105-8.508-4.413c-1.214-2.946-0.169-6.406,2.859-8.398c1.509-0.993,3.352-1.48,4.191-1.835
		c4.548-0.182,7.507,1.749,8.456,4.836C458.58,823.177,457.632,826.265,455.013,828.138z M498.456,840.578
		c-3.062,3.854-7.144,5.583-12.957,5.49c-8.249-0.133-14.686-4.836-16.416-11.995c-1.597-6.608,0.573-12.561,6.01-16.486
		c5.116-3.693,13.573-3.541,19.176,0.344C502.379,823.555,504.192,833.361,498.456,840.578z M878.229,668.317
		c-5.59,3.866-11.894,5.196-18.547,3.709c-6.829-1.526-12.03-7.782-12.384-14.372c-0.35-6.528,4.049-13.174,10.779-15.64
		c2.742-1.005,5.766-1.238,8.227-1.734c2.672,0.407,4.88,0.48,6.92,1.103c5.927,1.81,9.704,5.779,10.795,11.955
		C885.098,659.438,883.455,664.702,878.229,668.317z M932.486,644.536c-0.883,0.589-1.89,1.049-2.902,1.379
		c-3.321,1.086-6.651,2.152-10.013,3.099c-3.895,1.098-7.105-0.2-8.998-3.475c-1.821-3.149-1.404-6.93,1.208-9.694
		c3.157-3.342,7.23-4.507,11.386-4.654c3.599,0.032,6.753,0.636,9.497,2.569C936.723,636.62,936.638,641.765,932.486,644.536z
		 M1061.713,560.275c-0.164,1.276-0.68,2.658-1.45,3.677c-2.269,3.002-5.479,3.111-8.791,2.279c-3.48-0.875-6.992-2.077-7.721-6.122
		c-0.295-1.636,0.346-3.771,1.272-5.227c1.699-2.672,4.563-3.62,6.85-3.633C1058.383,551.268,1062.365,555.189,1061.713,560.275z"/>
	<path fill="#6C3015" d="M1127.388,516.788c-1.858-1.879-4.052-3.425-6.092-5.123c-1.358,5.504-2.717,11.009-4.075,16.513
		c-1.463,5.757-2.703,11.584-4.48,17.243c-0.953,3.035-2.832,5.781-4.288,8.656c-0.782,2.141-1.313,4.434-2.278,6.47
		c-0.175,0.369-0.359,0.732-0.567,1.081c-5.392,9.067-10.9,18.073-16.659,26.91c-1.574,2.416-3.931,4.524-6.346,6.157
		c-16.371,11.073-32.825,22.026-49.327,32.903c-3.147,2.075-6.631,3.639-9.96,5.439c-0.13,0.615-0.26,1.23-0.391,1.849
		c-0.018,1.608-0.083,3.218-0.045,4.825c0.203,8.634-11.128,17.058-21.536,11.357c-2.788-1.527-5.156-3.819-7.717-5.761
		c-0.665-0.134-1.329-0.268-1.995-0.404c-2.842,0.916-5.707,1.765-8.519,2.763c-13.323,4.727-26.532,9.758-38.105,18.101
		c-4.066,2.932-8.376,4.819-13.23,5.912c-19.328,4.353-38.626,8.811-58.243,11.757c-6.432,0.966-12.798,2.428-19.148,3.868
		c-7.426,1.685-14.803,3.744-21.473,7.46c-5.739,3.198-11.284,3.213-17.169,0.848c-8.309-3.339-16.669-6.552-24.992-9.858
		c-4.341-1.725-8.197-4.207-11.423-7.622c-4.097-4.336-8.145-8.72-12.326-12.975c-2.27-2.31-4.548-4.725-7.211-6.515
		c-6.873-4.62-14.781-4.125-21.118,1.131c-6.444,5.346-11.22,11.68-12.13,20.429c-0.39,3.749-1.183,7.536-2.381,11.108
		c-6.893,20.551-18.656,37.832-35.33,51.736c-0.039,0.621-0.078,1.242-0.117,1.863c1.898,8.361,2.372,16.647,1.096,24.854
		c-0.58,3.73-1.521,7.444-2.855,11.141c-4.647,12.884-11.596,24.439-19.99,35.199c-9.052,11.603-19.242,22.082-31.014,30.91
		c-9.808,7.356-20.371,13.358-32.371,16.575c-6.915,1.854-13.896,2.359-20.964,1.769c-14.992-1.252-25.974-9.878-30.344-24.273
		c-1.482-4.884-1.886-10.095-2.785-15.156c-8.143,2.104-15.739,5.559-23.315,9.068c-1.748,0.81-3.495,1.622-5.248,2.422
		c-10.337,4.716-20.701,9.373-31.058,14.043c-4.05,1.826-8.179,2.523-12.635,1.474c-15.885-3.742-32.105-4.561-48.327-5.439
		c-2.588-0.14-5.171-0.316-7.749-0.535c-11.17-0.946-22.233-2.683-33.091-5.699c-1.021-0.045-2.042-0.09-3.063-0.135
		c-0.911-0.04-1.822-0.08-2.734-0.12c-0.89,0.201-1.779,0.422-2.667,0.647c-0.284,0.072-0.568,0.144-0.852,0.217
		c-1.143,0.294-2.285,0.587-3.43,0.86c-1.33,0.317-2.663,0.605-4.004,0.814c-0.526,0.082-1.053,0.152-1.581,0.208
		c-13.027,1.38-24.438-6.692-27.159-18.78c-0.665-2.952-0.809-5.829,0.383-8.674c-0.577-0.881-1.154-1.763-1.731-2.644
		c-13.015-11.566-26.03-23.133-39.044-34.698c-0.518,0.012-1.035,0.022-1.552,0.027c-0.483,5.817-2.403,11.186-5.013,16.234
		c-0.602,1.165-1.241,2.313-1.908,3.445c-3.956,6.719-8.555,13.06-12.874,19.565c1.178,1.484,2.238,3.086,3.555,4.438
		c17.25,17.7,34.44,35.46,51.857,52.994c7.856,7.909,16.492,15.003,25.84,21.104c5.901,3.851,11.907,7.695,18.285,10.635
		c24.517,11.301,50.001,14.123,76.32,7.455c8.426-2.135,16.807-4.45,25.177-6.798c24.436-6.854,49.224-11.342,74.697-11.358
		c0.457-0.292,0.886-0.646,1.375-0.868c24.758-11.251,50.485-17.974,77.934-17.313c15.329,0.37,26.837,7.511,36.17,18.993
		c0.834,1.026,1.259,2.385,1.873,3.588c3.256-0.066,6.567,0.229,9.758-0.258c13.962-2.13,27.985-4.02,41.804-6.88
		c17.613-3.646,34.621-9.376,50.582-17.844c14.667-7.782,28.461-16.979,42.094-26.412c2.208-1.528,4.085-3.535,6.115-5.32
		c-0.414-1.292-0.793-2.596-1.248-3.873c-6.489-18.185-4.026-35.844,3.418-53.078c7.734-17.906,19.315-33.247,32.604-47.357
		c6.329-6.72,13.009-13.076,20.384-18.671c12.448-9.444,25.837-16.971,41.24-20.449c12.704-2.868,25.346-2.078,37.937,0.724
		c3.707,0.825,7.37,1.843,11.059,2.748c4.887,1.199,9.035,3.516,12.26,7.499c0.424,0.524,0.87,1.03,1.329,1.525
		c1.378,1.486,2.878,2.873,4.292,4.333c2.48-2.084,5.152-3.985,7.401-6.299c5.67-5.834,11.011-11.989,16.728-17.774
		c17.543-17.755,35.146-35.453,52.831-53.066c14.838-14.778,30.792-28.265,48.378-39.67c10.78-6.991,19.039-16.054,24.744-27.462
		c5.857-11.71,10.733-23.745,10.904-37.14c-2.41-1.676-5.099-3.065-7.173-5.085C1136.555,526.607,1132.107,521.561,1127.388,516.788
		z M358.65,861.291c-3.316,4.241-7.763,6.571-12.694,7.054c-3.059-0.174-5.205-1.154-6.431-3.549
		c-1.243-2.429-0.709-4.766,0.838-6.843c2.645-3.551,6.098-6.122,10.252-7.629c3.193-1.158,6.259-0.31,8.11,1.959
		C360.752,854.771,360.859,858.464,358.65,861.291z M410.635,881.624c-5.22-0.016-8.621-3.096-8.507-7.703
		c0.123-4.954,3.965-9.317,8.309-9.437c4.526-0.125,8.392,4.526,8.42,10.13C418.878,878.824,415.576,881.639,410.635,881.624z
		 M709.397,826.001c-6.069,5.444-15.584,6.759-22.734,2.867c-5.378-2.927-8.654-7.478-8.698-13.693
		c-0.046-6.575,3.4-11.337,9.164-14.208c5.273-2.626,10.999-2.926,16.661-1.609c6.337,1.474,10.778,7.627,10.909,15.131
		C714.993,818.771,713.051,822.723,709.397,826.001z M766.534,783.529c-0.446,2.509-1.54,4.626-4.008,5.667
		c-2.85,1.202-5.38,0.239-7.36-1.791c-1.466-1.503-2.884-3.285-3.63-5.211c-1.76-4.543,0.651-9.045,5.08-10.175
		c4.929-1.258,9.235,1.614,9.996,6.69c0.119,0.795,0.12,1.607,0.178,2.439C766.709,781.927,766.675,782.738,766.534,783.529z
		 M783.623,700.833c-2.317,6.444-10.401,11.287-18.378,11.128c-6.143-0.122-12.497-4.779-14.903-10.923
		c-2.499-6.383-0.473-14.942,4.744-19.389c4.548-3.876,9.943-4.318,15.362-2.71c6.333,1.879,10.61,6.366,13.21,12.366
		c0.629,1.451,0.689,3.149,1.016,4.756C784.328,697.682,784.165,699.326,783.623,700.833z"/>
	<path fill="#C93F1A" d="M469.173,336.666c3.244,1.977,6.529,3.896,9.868,5.709c12.85,6.973,26.451,9.63,40.928,6.825
		c6.394-1.239,12.782-2.526,19.122-4.008c3.667-0.857,6.361,0.13,8.436,3.195c2.892,4.27,5.683,8.617,8.772,12.74
		c6.542,8.733,15.098,14.898,25.509,18.036c5.939,1.79,12.146,3.157,18.316,3.631c27.357,2.102,53.646-2.399,78.368-14.474
		c16.875-8.242,34.294-15.027,51.939-21.372c13.024-4.683,25.874-9.865,38.71-15.053c8.609-3.48,16.389-8.465,23.642-14.253
		c4.058-3.238,7.715-6.849,10.233-11.468c-2.067-0.605-4.106-1.335-6.205-1.791c-6.629-1.441-13.302-2.685-19.92-4.173
		c-26.561-5.972-53.361-9.76-80.666-9.692c-7.848,0.019-15.732-0.648-23.541-1.521c-17.26-1.932-34.485-4.171-51.719-6.329
		c-16.078-2.013-32.003-1.36-47.6,3.183c-10.154,2.958-20.155,6.439-30.243,9.627c-5.427,1.715-10.81,3.701-16.358,4.881
		c-15.481,3.292-30.393,8.24-44.68,14.961c-7.57,3.561-15.441,6.688-21.957,12.189C462.213,331.48,465.412,334.374,469.173,336.666z
		"/>
	<path fill="#601908" d="M983.256,713.452c-0.459-0.495-0.905-1.002-1.329-1.525c-3.225-3.983-7.373-6.3-12.26-7.499
		c-3.689-0.905-7.352-1.923-11.059-2.748c-12.591-2.802-25.233-3.592-37.937-0.724c-15.403,3.477-28.792,11.005-41.24,20.449
		c-7.376,5.596-14.055,11.951-20.384,18.671c-13.289,14.11-24.87,29.451-32.604,47.357c-7.444,17.234-9.907,34.893-3.418,53.078
		c0.456,1.277,0.834,2.581,1.248,3.873c4.579-2.879,9.309-5.546,13.712-8.673c19.872-14.112,39.687-28.306,59.456-42.562
		c24.821-17.898,49.827-35.567,72.087-56.721c6.271-5.959,13.024-11.449,18.019-18.645l0,0
		C986.134,716.325,984.633,714.938,983.256,713.452z"/>
	<path fill="#C93F1A" d="M938.282,339.348c-9.731,10.181-13.304,22.258-10.449,36c4.196,20.195,16.243,34.666,33.959,44.532
		c14.979,8.342,31.395,12.022,48.347,13.333c8.441,0.653,16.827,0.049,24.911-2.931c18.202-6.711,27.934-23.627,24.445-42.719
		c-0.634-3.471-1.463-6.907-2.202-10.359c-13.113-9.711-27.173-17.764-42.189-24.163c-20.478-8.726-41.602-15.672-62.667-22.779
		c-1.008-0.34-2.107-0.41-3.172-0.61c-2.113,1.711-4.266,3.371-6.306,5.158C941.327,336.239,939.782,337.778,938.282,339.348z"/>
	<path fill="#601908" d="M169.293,690.113c0.27-0.254,0.543-0.504,0.815-0.754c1.905-1.746,3.797-3.448,4.785-5.948
		c-4.725-2.873-8.564-6.701-12.254-10.734c-0.527-0.576-1.051-1.156-1.575-1.739c-18.869-20.998-38.657-41.074-60.962-58.469
		c-6.167-4.809-13.054-8.695-19.61-13.007c-1.785,1.609-3.71,3.092-5.331,4.854c-6.615,7.188-10.396,15.501-9.692,25.496
		c1.219,1.782,2.202,3.795,3.699,5.295c5.741,5.75,11.374,11.654,17.542,16.921c20.035,17.108,41.862,31.764,64.053,45.885
		c2.259,1.437,4.816,2.406,7.235,3.593C161.748,697.694,165.398,693.773,169.293,690.113z"/>
	<path fill="#6C3015" d="M246.426,746.233c0.819-0.437,1.652-0.849,2.494-1.245c2.525-1.187,5.127-2.229,7.673-3.374l0,0
		c-0.034-0.487-0.06-0.974-0.077-1.461c-7.943-6.554-15.91-13.079-23.825-19.666c-15.268-12.708-31.914-23.356-49.205-33.052
		c-2.357-1.322-4.629-2.793-6.941-4.195c-0.55,0.056-1.101,0.112-1.651,0.171c0,0.001-0.001,0.001-0.001,0.002
		c-0.988,2.5-2.88,4.201-4.785,5.948c-0.272,0.25-0.545,0.5-0.815,0.754c-3.896,3.66-7.545,7.581-11.297,11.394
		c2.624,2.276,5.125,4.714,7.894,6.797c7.745,5.827,15.816,11.239,23.363,17.306c11.34,9.116,21.866,19.156,31.893,29.715
		c1.647,1.734,3.721,3.061,5.598,4.577c0.751-0.669,1.511-1.325,2.281-1.968C234.408,753.429,240.227,749.54,246.426,746.233z"/>
	<path fill="#601908" d="M295.622,795.218c2.61-5.048,4.53-10.417,5.013-16.234c0,0,0,0-0.001,0
		c-1.362-1.477-2.636-3.054-4.033-4.492c-0.465-0.479-0.945-0.943-1.445-1.383c-9.271-8.142-18.559-16.269-28.012-24.198
		c-2.447-2.052-5.173-3.772-7.872-5.523c-0.9-0.583-1.797-1.171-2.679-1.774c-2.546,1.145-5.148,2.187-7.673,3.374
		c-0.842,0.396-1.674,0.807-2.494,1.245c-6.199,3.307-12.018,7.196-17.402,11.701c-0.769,0.643-1.529,1.299-2.281,1.968l0,0
		c2.391,2.928,4.657,5.971,7.197,8.764c10.209,11.225,20.42,22.449,30.799,33.517c5.18,5.523,10.721,10.708,16.1,16.047
		c4.32-6.505,8.918-12.846,12.874-19.565C294.38,797.531,295.019,796.383,295.622,795.218z"/>
	<path fill="#601908" d="M635.878,878.517c-27.449-0.661-53.176,6.062-77.934,17.313c-0.489,0.222-0.918,0.576-1.375,0.868
		c9.92,1.364,19.826,2.852,29.766,4.054c7.792,0.943,15.614,1.941,23.446,2.2c21.407,0.708,42.792-0.129,64.141-1.854
		c-0.614-1.203-1.039-2.562-1.873-3.588C662.715,886.028,651.207,878.887,635.878,878.517z"/>
	<path fill="#601908" d="M1135.974,460.471c-0.806-1.69-2.011-3.19-3.031-4.779c-0.826,2.564-1.876,5.079-2.44,7.699
		c-2.731,12.687-5.311,25.406-7.999,38.102c-0.39,1.839-1.078,3.616-1.627,5.422c0,0,0,0,0,0c0.14,1.583,0.28,3.166,0.419,4.749
		c2.04,1.698,4.234,3.245,6.092,5.123c4.72,4.774,9.168,9.82,13.974,14.501c2.074,2.02,4.763,3.409,7.173,5.085
		c0.45-2.664,1.18-5.315,1.306-7.995C1150.957,504.583,1146.218,481.953,1135.974,460.471z"/>
	<path fill="#A12E0F" d="M1109.485,490.307c1.093,2.285,2.281,4.519,3.598,6.67c2.194,3.586,4.742,6.944,7.794,9.938
		c0.55-1.806,1.238-3.583,1.627-5.422c2.688-12.696,5.269-25.415,7.999-38.102c0.564-2.62,1.614-5.135,2.44-7.699
		c-0.894-1.958-1.788-3.916-2.685-5.88c-5.129,2.954-10.617,5.282-14.971,9.528C1106.148,468.254,1103.98,478.797,1109.485,490.307z
		"/>
	<path fill="#B75B32" d="M94.907,584.965C94.907,584.965,94.907,584.964,94.907,584.965
		C94.906,584.964,94.906,584.964,94.907,584.965c0.004-0.497,0.003-0.994-0.004-1.49l0,0c0,0,0,0-0.001,0
		c-8.039-4.515-16.069-9.045-24.119-13.539c-3.063-1.709-6.495-2.958-7.807-6.695c-0.1-0.412-0.223-0.818-0.364-1.22
		c-5.238,5.644-8.869,12.145-10.482,19.719c9.342,5.403,18.683,10.806,28.028,16.21C85.074,593.621,89.991,589.294,94.907,584.965z"
		/>
	<path fill="#6C3015" d="M75.161,604.316c1.621-1.762,3.545-3.245,5.33-4.856c-0.105-0.506-0.214-1.008-0.331-1.51
		c-0.001,0-0.001-0.001-0.002-0.001c-9.344-5.404-18.686-10.807-28.028-16.21c-5.564,16.019,0.082,36.37,13.338,48.074
		C64.765,619.817,68.545,611.505,75.161,604.316z"/>
	<path fill="#C93F1A" d="M70.155,563.766c5.894-0.218,10.079-3.274,12.675-8.461c0.165-0.329,0.317-0.657,0.458-0.984
		c0.282-0.654,0.516-1.306,0.703-1.954c1.214-4.214,0.415-8.292-2.481-12.158c-7.536,6.201-13.47,13.784-18.899,21.811
		c0.142,0.402,0.264,0.808,0.364,1.22C65.37,563.431,67.772,563.855,70.155,563.766z"/>
	<path fill="#C93F1A" d="M595.629,507.114c-7.68-4.33-13.363-10.862-18.685-17.624c-1.895-2.409-3.063-5.772-3.52-8.855
		c-1.192-8.041,5.122-14.143,11.002-14.309c1.616-0.046,3.231-0.142,4.847-0.214c-3.134-6.606-7.161-12.414-12.027-17.422
		c-0.57-0.587-1.152-1.162-1.745-1.727c-0.885-0.842-1.786-1.667-2.723-2.46c-3.146-2.663-6.579-5.044-10.293-7.141
		c-6.832-3.857-13.993-7.257-21.293-10.133c-12.922-5.09-26.411-8.335-40.073-10.798c-28.189-5.083-55.753-3.057-82.475,7.608
		c-5.819,2.323-11.626,4.402-17.849,5.488c-9.814,1.712-17.828,6.805-23.362,15.046c-13.092,19.496-15.028,45.18,4.252,65.914
		c5.028,5.407,10.731,9.994,17.1,13.726c12.497,7.321,25.86,12.649,39.735,16.638c27.842,8.006,56.501,10.813,85.249,12.896
		c7.619,0.552,15.249-0.029,22.719-1.521c6.067-1.211,11.695-2.943,16.845-5.237c0.86-0.383,1.701-0.787,2.534-1.202
		c12.887-6.415,22.544-16.625,28.279-31.377c0.222-0.572,0.434-1.155,0.645-1.74c0.052-0.146,0.109-0.287,0.16-0.433
		c0.259-0.735,0.509-1.481,0.749-2.237C595.677,509.039,595.653,508.077,595.629,507.114z"/>
	<path fill="#C93F1A" d="M352.668,718.8c2.479,0.459,4.983,0.824,7.461,1.287c1.497,0.28,2.984,0.596,4.45,0.992
		c5.24,1.413,10.409,3.129,15.526,4.949c23.096,8.214,46.99,13.444,70.781,19.078c0.576-0.084,1.149-0.17,1.722-0.256
		c2.89-11.341,8.255-21.172,17.459-28.679c1.893-1.543,3.647-3.26,5.575-4.754c7.945-6.157,13.364-14.11,17.114-23.358
		c4.596-11.332,0.591-21.892-10.59-27.063c-2.945-1.362-6.066-2.373-9.161-3.379c-25.758-8.372-52.083-13.117-79.273-12.215
		c-13.946,0.462-27.502,2.962-40.601,7.834c-6.193,2.304-11.713,5.638-16.373,10.369c-9.643,9.79-11.385,23.297-4.218,35.071
		c1.958,3.217,4.616,6.01,6.964,8.989c1.643,2.085,3.303,4.155,4.955,6.232c0.434,0.034,0.856,0.118,1.266,0.255
		c1.742,1.01,3.484,2.021,5.227,3.032C351.525,717.723,352.097,718.261,352.668,718.8z"/>
	<path fill="#C93F1A" d="M344.541,714c-0.005-0.004-0.104-0.102-0.106-0.105c0,0-0.001,0-0.001,0l0.109,0.107h0
		C344.542,714.002,344.542,714.001,344.541,714z"/>
	<path fill="#C93F1A" d="M105.531,590.769c14.332,10.713,29.125,20.733,44.219,30.324c10.105,6.421,19.245,13.961,27.647,22.527
		c5.86,5.974,12.443,11.241,18.703,16.823c0.537-0.063,1.073-0.134,1.608-0.211c1.761-2.06,3.529-4.114,5.281-6.183
		c10.38-12.26,19.905-25.098,26.847-39.684c4.731-9.94,7.864-20.282,7.159-31.416c-1.022-16.153-8.837-27.714-24.057-33.666
		c-8.679-3.394-17.848-4.851-27.172-4.234c-10.043,0.665-19.929,2.43-29.619,5.262c-19.022,5.56-35.988,15.063-51.859,26.724
		c-0.764,0.561-1.537,1.111-2.316,1.652c-2.336,1.625-4.723,3.18-7.072,4.785l0,0c0.008,0.496,0.009,0.993,0.004,1.489
		c0,0,0,0,0.001,0c3.114,1.672,6.463,3.031,9.395,4.947C104.721,590.185,105.131,590.47,105.531,590.769z"/>
	<path fill="#C93F1A" d="M850.028,562.499c11.419-0.777,22.659-2.739,33.637-5.877c14.352-4.102,28.559-8.711,42.88-12.925
		c9.518-2.801,18.037-7.426,25.936-13.312c5.442-4.055,10.867-8.131,16.293-12.207c3.059-2.298,6.212-4.397,10.092-5.047
		c-0.442-0.742-0.882-1.482-1.326-2.224c-2.214-1.569-4.474-3.071-6.629-4.712c-20.638-15.721-43.806-25.801-69.03-31.605
		c-21.608-4.972-41.595-0.152-60.49,9.904c-17.354,9.235-23.978,28.172-17.355,46.72c2.877,8.055,7.586,14.965,13.461,21.121
		c3.182,3.334,6.371,6.661,9.557,9.99C848.046,562.383,849.037,562.441,850.028,562.499z"/>
	<path fill="#B75B32" d="M352.684,773.107c2.199-8.633,3.947-17.384,5.784-26.106c0.443-2.103,0.419-4.301,0.657-6.45
		c0.903-8.176-0.713-15.591-6.509-21.76c0.018,0.003,0.035,0.006,0.053,0.009c0,0,0,0,0,0c-0.572-0.539-1.143-1.077-1.716-1.615
		c-1.743-1.011-3.485-2.022-5.227-3.032c-0.433-0.073-0.864-0.159-1.291-0.258c0,0,0.001,0.001,0.001,0.001
		c0.002,0.003,0.101,0.101,0.106,0.105c0,0,0.002,0.002,0.002,0.002c0,0,0,0,0,0h0c-2.98-0.128-5.993-0.024-8.934-0.433
		c-6.229-0.867-12.408-0.854-18.662-0.21c-3.474,0.359-7.076,0.233-10.543-0.241c-7.522-1.026-15.007-2.346-22.484-3.673
		c-11.944-2.12-22.716-6.952-32.792-13.709c-10.362-6.948-21.049-13.411-31.604-20.07c-4.819-3.04-9.763-5.896-14.46-9.112
		c-0.331-0.227-0.657-0.463-0.977-0.706c-2.243-1.701-4.243-3.755-6.377-5.616c0,0,0,0-0.001-0.001
		c-0.535,0.076-1.071,0.147-1.608,0.211c-0.504,0.688-0.997,1.385-1.487,2.085c-1.471,2.1-2.922,4.217-4.604,6.131
		c-4.366,4.965-8.964,9.726-13.465,14.575c2.312,1.405,4.585,2.876,6.942,4.198c17.291,9.697,33.937,20.344,49.205,33.052
		c7.915,6.587,15.881,13.113,23.825,19.666c2.934-0.356,5.862-0.766,8.803-1.054c3.474-0.341,6.963-0.867,10.437-0.809
		c13.74,0.23,24.029,9.257,25.89,22.947c0.648,4.766,0.35,9.659,0.48,14.495c0.029,1.075,0.042,2.152,0.062,3.226
		c13.015,11.565,26.029,23.132,39.044,34.698c0.616-1.784,1.329-3.541,1.833-5.356C346.314,796.581,349.682,784.891,352.684,773.107
		z"/>
	<path fill="#C93F1A" d="M704.01,486.95c6.971,5.387,14.964,7.571,23.751,6.245c16.636-2.511,29.764-17.965,29.65-36.03
		c-0.497-3.912-1.168-9.02-1.792-14.133c-0.797-6.53-4.506-10.894-10.22-13.736c-4.559-2.267-9.381-2.602-14.306-1.589
		c-8.619,1.774-16.613,5.107-23.834,10.126c-5.243,3.644-9.077,8.524-11.549,14.438C690.507,464.72,693.836,479.087,704.01,486.95z"
		/>
	<path fill="#C93F1A" d="M877.527,351.501c6.244,4.617,13.533,6.909,21.336,5.835c6.372-0.877,10.999-4.577,12.549-11.07
		c1.571-6.581,0.014-12.432-5.646-16.552c-5.121-3.727-10.998-5.659-16.429-6.14c-8.076-0.155-14.288,3.934-16.742,10.413
		C870.312,340.015,872.061,347.46,877.527,351.501z"/>
	<path fill="#C93F1A" d="M539.541,739.772c6.871,5.774,17.087,5.651,23.708-0.427c2.18-2.001,4.234-4.188,6.056-6.516
		c4.026-5.143,4.69-10.913,1.844-16.729c-2.885-5.896-8.071-8.434-13.271-8.525c-9.406,0.052-18.064,5.245-21.861,12.36
		C532.312,726.878,533.736,734.893,539.541,739.772z"/>
	<path fill="#C93F1A" d="M580.676,635.079c9.537,0.144,17.49-7.752,17.59-17.465c0.098-9.52-7.989-17.513-17.613-17.409
		c-9.362,0.101-16.947,7.611-17.166,16.995C563.264,626.783,571.101,634.934,580.676,635.079z"/>
	<path fill="#C93F1A" d="M502.873,399.035c9.442,0.114,17.302-7.443,17.479-16.807c0.186-9.807-7.536-17.805-17.3-17.917
		c-9.109-0.104-17.229,7.728-17.574,16.951C485.12,390.864,493,398.916,502.873,399.035z"/>
	<path fill="#C93F1A" d="M839.144,417.239c11.191,0.906,22.597-14.008,17.781-26.006c-2.968-7.396-11.292-11.211-18.803-8.293
		c-7.304,2.838-12.066,8.28-13.63,15.998C822.556,408.487,829.598,417.075,839.144,417.239z"/>
	<path fill="#C93F1A" d="M321.063,559.046c-2.869,5.116-3.127,10.38-0.078,15.499c3.02,5.07,7.573,7.626,13.554,7.505
		c7.143-0.154,12.497-3.496,15.971-9.58c5.12-8.966,0.008-20.096-10.067-22.344C333.085,548.483,324.905,552.195,321.063,559.046z"
		/>
	<path fill="#C93F1A" d="M223.358,524.972c2.008,0.711,4.181,0.958,5.07,1.153c10.398,0.066,17.403-5.817,18.11-14.134
		c0.597-7.025-2.613-12.078-8.586-15.229c-6.516-3.437-13.096-3.11-19.02,1.508c-4.573,3.565-6.815,8.4-5.86,14.252
		C214.061,518.583,217.492,522.896,223.358,524.972z"/>
	<path fill="#A12E0F" d="M584.426,466.327c-5.88,0.166-12.194,6.268-11.002,14.309c0.457,3.082,1.625,6.446,3.52,8.855
		c5.322,6.762,11.005,13.294,18.685,17.624c0.535-3.172,1.394-6.33,1.539-9.52c0.334-7.367-1.188-14.499-3.461-21.483
		c-0.917-2.819-1.775-5.657-2.661-8.486c-0.591-0.504-1.182-1.008-1.772-1.513c0,0,0,0,0,0
		C587.657,466.185,586.042,466.281,584.426,466.327z"/>
	<path fill="#C93F1A" d="M651.594,440.739c3.926-1.644,7.815-3.676,11.205-6.221c4.319-3.242,2.855-9.876-2.298-11.577
		c-1.5-0.495-3.16-0.509-3.965-0.628c-8.629,0.162-13.928,5.452-13.383,12.576C643.505,439.481,647.452,442.473,651.594,440.739z"/>
	<path fill="#C93F1A" d="M319.113,532.562c1.308,0.293,2.682,0.293,4.809,0.505c1.915-0.447,4.638-0.776,7.116-1.736
		c3.102-1.202,4.84-4.243,4.482-7.038c-0.381-2.976-2.168-5.068-4.919-5.908c-3.088-0.944-6.305-1.678-9.514-1.964
		c-4.365-0.39-7.818,2.781-8.361,7.121C312.19,527.829,314.811,531.599,319.113,532.562z"/>
	<path fill="#C93F1A" d="M346.939,453.684c3.7,1.685,7.109,0.058,9.382-3.858c2.946-5.077,3.003-9.135,0.074-11.809
		c-0.777-0.71-1.702-1.37-2.678-1.724c-1.493-0.54-3.09-0.795-3.956-1.004c-4.167-0.032-7.163,1.005-8.907,4.13
		c-1.855,3.326-1.719,6.875,0.567,9.858C342.821,451.102,344.846,452.73,346.939,453.684z"/>
	<path fill="#C93F1A" d="M428.869,628.141c3.858-0.033,6.519-1.726,7.56-4.454c1.028-2.694,0.082-5.807-2.509-7.854
		c-2.633-2.081-5.638-3.059-9.008-2.537c-2.58,0.4-4.465,1.826-5.356,4.297c-0.888,2.464-0.393,4.765,1.352,6.727
		C423.168,626.862,426.047,628.085,428.869,628.141z"/>
	<path fill="#C93F1A" d="M934.003,443.797c3.099,0.041,6.043-1.181,7.939-3.333c1.727-1.96,2.372-4.222,1.569-6.74
		c-0.809-2.536-2.701-3.985-5.245-4.498c-2.746-0.553-5.357-0.025-7.769,1.402c-3.206,1.896-4.747,5.077-3.94,8.086
		C927.359,441.697,930.364,443.748,934.003,443.797z"/>
	<path fill="#C93F1A" d="M825.512,449.467c0.678-0.188,2.025-0.405,3.24-0.931c3.055-1.322,4.743-4.071,4.475-6.992
		c-0.274-2.986-2.359-5.481-5.619-6.054c-2.075-0.365-4.339-0.451-6.386-0.024c-4.63,0.964-6.578,6.212-3.956,10.209
		C819.04,448.377,821.667,449.53,825.512,449.467z"/>
	<path fill="#C93F1A" d="M280.526,666.185c4.665-0.256,8.559-4.701,8.13-9.277c-0.347-3.697-3.513-6.303-7.249-5.968
		c-4.184,0.376-7.815,4.547-7.74,8.892C273.731,663.532,276.816,666.389,280.526,666.185z"/>
	<path fill="#C93F1A" d="M738.253,380.595c3.964,0.063,7.058-3.188,6.994-7.348c-0.062-4.056-3.137-7.211-7.158-7.345
		c-3.993-0.133-7.449,3.013-7.576,6.895C730.38,376.86,734.021,380.528,738.253,380.595z"/>
	<path fill="#C93F1A" d="M166.767,538.851c3.449,0.317,6.432-2.23,6.619-5.649c0.188-3.442-2.488-6.308-5.935-6.357
		c-3.444-0.048-6.326,2.743-6.276,6.079C161.22,535.969,163.671,538.567,166.767,538.851z"/>
	<path fill="#A12E0F" d="M395.636,836.594c6.739-3.635,12.985-7.933,18.125-13.631c8.593-9.526,16.029-19.86,20.639-31.944
		c5.122-13.428,10.056-26.928,15.019-40.416c0.652-1.772,0.989-3.66,1.468-5.497c-23.791-5.634-47.685-10.865-70.781-19.078
		c-5.117-1.82-10.286-3.535-15.526-4.949c-1.466-0.396-2.953-0.712-4.45-0.992c-2.478-0.464-4.982-0.828-7.461-1.287
		c0.024,0.023,0.048,0.045,0.072,0.068c-0.024-0.023-0.048-0.045-0.072-0.068c-0.018-0.003-0.035-0.006-0.053-0.009
		c5.796,6.17,7.412,13.585,6.509,21.76c-0.237,2.149-0.214,4.347-0.657,6.45c-1.838,8.722-3.585,17.473-5.784,26.106
		c-3.002,11.783-6.37,23.473-9.621,35.192c-0.503,1.815-1.216,3.572-1.833,5.356c0.577,0.881,1.154,1.763,1.731,2.644
		c1.962,1.396,4.101,2.6,5.857,4.219c8.792,8.106,18.774,14.258,29.863,18.676c1.24,0.494,2.394,1.204,3.59,1.814
		c0.911,0.04,1.823,0.08,2.734,0.12c1.022,0.045,2.043,0.089,3.066,0.134C390.59,839.697,393.033,837.998,395.636,836.594z"/>
	<path fill="#A12E0F" d="M968.774,518.178c-5.425,4.076-10.851,8.153-16.293,12.207c-7.899,5.886-16.418,10.511-25.936,13.312
		c-14.321,4.214-28.528,8.823-42.88,12.925c-10.978,3.138-22.218,5.1-33.637,5.877c2.457,3.367,5.848,5.597,9.286,7.825
		c13.317,8.63,27.752,14.914,42.631,20.201c20.011,7.11,40.344,12.94,61.588,15.178c9.345,0.985,18.505,0.32,27.445-2.275
		c16.437-4.772,33.151-22.762,20.908-47.102c-2.834-5.633-6.335-10.775-10.81-15.213c-4.074-4.041-7.367-8.619-10.548-13.396
		c-0.43-0.645-0.873-1.282-1.327-1.911c-3.18-4.403-6.902-8.444-10.335-12.675C974.986,513.78,971.832,515.879,968.774,518.178z"/>
	<path fill="#A12E0F" d="M651.058,778.351c10.864-9.38,21.377-19.165,32.066-28.747c1.358-1.218,2.775-2.37,4.186-3.529
		c0.47-0.386,0.94-0.773,1.407-1.163c0.04-0.621,0.079-1.242,0.118-1.864c-0.197-0.357-0.412-0.706-0.616-1.06
		c-0.205-0.354-0.399-0.712-0.554-1.086c-4.642-11.175-13.324-17.514-24.68-20.684c-1.832-0.511-3.63-1.142-5.458-1.668
		c-6.473-1.864-12.899-1.654-19.238,0.591c-11.077,3.923-21.646,8.865-30.937,16.17c-13.755,10.815-25.569,23.543-36.134,37.435
		c-11.742,15.44-19.818,32.418-21.241,52.085c19.102-6.096,38.289-11.922,56.927-19.406
		C623.183,798.888,637.844,789.76,651.058,778.351z"/>
	<path fill="#601908" d="M688.718,744.911c-0.467,0.39-0.937,0.777-1.407,1.163c-1.411,1.159-2.828,2.311-4.186,3.529
		c-10.689,9.583-21.203,19.368-32.066,28.747c-13.214,11.409-27.875,20.537-44.154,27.075c-18.638,7.484-37.825,13.31-56.927,19.406
		c-0.199,0.35-0.362,0.716-0.486,1.098c0.899,5.062,1.302,10.272,2.785,15.156c4.37,14.396,15.352,23.021,30.344,24.273
		c7.068,0.59,14.05,0.084,20.964-1.769c11.999-3.216,22.562-9.219,32.371-16.575c11.772-8.828,21.962-19.307,31.014-30.91
		c8.394-10.76,15.343-22.314,19.99-35.199c1.333-3.697,2.275-7.411,2.855-11.141C691.09,761.558,690.616,753.272,688.718,744.911z"
		/>
	<path fill="#A12E0F" d="M873.226,641.382c-2.04-0.623-4.248-0.696-6.92-1.103c-2.461,0.496-5.485,0.729-8.227,1.734
		c-6.73,2.466-11.129,9.113-10.779,15.64c0.353,6.59,5.554,12.846,12.384,14.372c6.653,1.487,12.957,0.158,18.547-3.709
		c5.226-3.614,6.869-8.879,5.792-14.98C882.93,647.161,879.152,643.193,873.226,641.382z"/>
	<path fill="#A12E0F" d="M1103.497,521.353c-6.956-2.425-13.499-0.305-17.93,5.602c-4.256,5.675-4.14,12.769,0.486,18.71
		c3.827,4.914,8.955,7.723,15.137,8.388c0.299,0.032,0.6,0.057,0.901,0.075c2.106,0.129,4.245-0.047,6.362-0.052
		c1.456-2.875,3.335-5.621,4.288-8.656c1.777-5.658,3.017-11.486,4.48-17.243c-2.385-1.241-4.755-2.509-7.158-3.714
		C1107.897,523.378,1105.771,522.146,1103.497,521.353z"/>
	<path fill="#A12E0F" d="M494.269,817.932c-5.603-3.885-14.061-4.037-19.176-0.344c-5.436,3.924-7.606,9.878-6.01,16.486
		c1.73,7.159,8.167,11.863,16.416,11.995c5.812,0.093,9.894-1.636,12.957-5.49C504.192,833.361,502.379,823.555,494.269,817.932z"/>
	<path fill="#A12E0F" d="M1001.695,622.275c-5.731,2.203-9.264,6.496-9.66,12.882c-0.201,3.244-0.273,6.496-0.402,9.746
		c0.665,0.136,1.33,0.27,1.995,0.404c3.391-1.512,6.693-3.282,10.191-4.479c6.307-2.159,12.73-3.975,19.106-5.939
		c0-0.001,0-0.001,0-0.002c0.131-0.619,0.261-1.234,0.391-1.849c-1.701-2.437-3.125-5.138-5.158-7.256
		C1013.555,620.986,1007.764,619.942,1001.695,622.275z"/>
	<path fill="#A12E0F" d="M932.663,633.76c-2.745-1.933-5.898-2.536-9.497-2.569c-4.155,0.147-8.228,1.312-11.386,4.654
		c-2.611,2.765-3.028,6.545-1.208,9.694c1.894,3.276,5.103,4.573,8.998,3.475c3.362-0.947,6.692-2.014,10.013-3.099
		c1.012-0.331,2.018-0.79,2.902-1.379C936.638,641.765,936.723,636.62,932.663,633.76z"/>
	<path fill="#A12E0F" d="M1051.873,551.248c-2.286,0.013-5.15,0.961-6.85,3.633c-0.926,1.456-1.567,3.59-1.272,5.227
		c0.73,4.046,4.241,5.247,7.721,6.122c3.311,0.832,6.522,0.723,8.791-2.279c0.77-1.019,1.286-2.401,1.45-3.677
		C1062.365,555.189,1058.383,551.268,1051.873,551.248z"/>
	<path fill="#A12E0F" d="M449.249,815.498c-0.839,0.355-2.682,0.842-4.191,1.835c-3.029,1.992-4.073,5.452-2.859,8.398
		c1.363,3.308,4.932,5.273,8.508,4.413c1.515-0.364,3.035-1.097,4.306-2.007c2.619-1.873,3.567-4.96,2.693-7.803
		C456.756,817.247,453.798,815.316,449.249,815.498z"/>
	<path fill="#601908" d="M703.79,799.358c-5.662-1.317-11.388-1.016-16.661,1.609c-5.764,2.871-9.21,7.633-9.164,14.208
		c0.044,6.215,3.32,10.765,8.698,13.693c7.15,3.892,16.665,2.577,22.734-2.867c3.654-3.278,5.596-7.23,5.302-11.512
		C714.568,806.985,710.127,800.832,703.79,799.358z"/>
	<path fill="#601908" d="M770.448,678.94c-5.418-1.608-10.814-1.166-15.362,2.71c-5.217,4.446-7.244,13.006-4.744,19.389
		c2.406,6.144,8.76,10.801,14.903,10.923c7.978,0.159,16.061-4.685,18.378-11.128c0.542-1.507,0.705-3.151,1.051-4.772
		c-0.327-1.607-0.387-3.304-1.016-4.756C781.058,685.306,776.78,680.82,770.448,678.94z"/>
	<path fill="#A12E0F" d="M302.125,775.732c-0.13-4.835,0.168-9.729-0.48-14.495c-1.861-13.691-12.15-22.718-25.89-22.947
		c-3.474-0.058-6.963,0.468-10.437,0.809c-2.941,0.289-5.869,0.698-8.803,1.054c0.018,0.488,0.044,0.975,0.077,1.461l0,0
		c0.883,0.604,1.78,1.191,2.679,1.774c2.699,1.751,5.425,3.471,7.872,5.523c9.453,7.929,18.741,16.056,28.012,24.198
		c0.5,0.439,0.98,0.903,1.445,1.383c1.396,1.438,2.67,3.016,4.033,4.492c0,0,0,0,0.001,0c0.517-0.005,1.034-0.014,1.552-0.027
		C302.167,777.883,302.154,776.807,302.125,775.732z"/>
	<path fill="#601908" d="M378.681,839.195c-11.089-4.418-21.071-10.57-29.863-18.676c-1.756-1.619-3.895-2.823-5.857-4.219
		c-1.192,2.845-1.048,5.721-0.383,8.674c2.721,12.088,14.132,20.16,27.159,18.78c0.529-0.056,1.056-0.126,1.581-0.208
		c1.341-0.209,2.674-0.497,4.004-0.814c1.145-0.273,2.288-0.566,3.43-0.86c0.284-0.073,0.568-0.144,0.852-0.217
		c0.888-0.226,1.776-0.447,2.667-0.647C381.076,840.399,379.922,839.689,378.681,839.195z"/>
	<path fill="#601908" d="M1003.818,640.827c-3.498,1.198-6.801,2.967-10.191,4.479c2.561,1.941,4.929,4.234,7.717,5.761
		c10.408,5.701,21.739-2.723,21.536-11.357c-0.038-1.608,0.027-3.217,0.044-4.822
		C1016.549,636.852,1010.125,638.668,1003.818,640.827z"/>
	<path fill="#601908" d="M350.614,850.324c-4.154,1.507-7.606,4.078-10.252,7.629c-1.548,2.078-2.081,4.415-0.838,6.843
		c1.226,2.395,3.372,3.375,6.431,3.549c4.932-0.484,9.378-2.813,12.694-7.054c2.21-2.827,2.103-6.519,0.074-9.007
		C356.873,850.014,353.807,849.165,350.614,850.324z"/>
	<path fill="#601908" d="M410.437,864.484c-4.344,0.12-8.186,4.484-8.309,9.437c-0.114,4.607,3.287,7.687,8.507,7.703
		c4.941,0.015,8.244-2.8,8.222-7.011C418.829,869.009,414.963,864.359,410.437,864.484z"/>
	<path fill="#601908" d="M756.617,772.019c-4.43,1.13-6.84,5.632-5.08,10.175c0.746,1.926,2.164,3.708,3.63,5.211
		c1.979,2.03,4.509,2.993,7.36,1.791c2.468-1.041,3.562-3.158,4.008-5.667c0.141-0.792,0.175-1.602,0.256-2.381
		c-0.057-0.832-0.058-1.644-0.178-2.439C765.851,773.633,761.545,770.762,756.617,772.019z"/>
	<path fill="#A12E0F" d="M176.544,683.235c4.501-4.849,9.099-9.61,13.465-14.575c1.683-1.914,3.133-4.031,4.604-6.131
		c0.49-0.7,0.983-1.398,1.487-2.085c-6.26-5.582-12.843-10.849-18.703-16.823c-8.402-8.566-17.543-16.106-27.647-22.527
		c-15.094-9.591-29.888-19.612-44.219-30.324c-0.4-0.299-0.81-0.584-1.229-0.858c-2.932-1.916-6.281-3.275-9.395-4.947
		c-4.916,4.329-9.833,8.657-14.747,12.986c0.117,0.502,0.226,1.004,0.331,1.51c0,0.001,0,0.002,0.001,0.003
		c6.557,4.312,13.444,8.198,19.61,13.007c22.305,17.395,42.093,37.471,60.962,58.469c0.523,0.582,1.047,1.163,1.575,1.739
		c3.69,4.033,7.53,7.861,12.255,10.732C175.444,683.35,175.994,683.294,176.544,683.235
		C176.544,683.235,176.544,683.235,176.544,683.235z"/>
	<path fill="none" stroke="#A12E0F" stroke-width="0" stroke-linecap="round" stroke-linejoin="round" d="M352.669,718.8
		c0.024,0.023,0.048,0.045,0.072,0.068"/>
	<path fill="none" stroke="#A12E0F" stroke-width="0" stroke-linecap="round" stroke-linejoin="round" d="M350.952,717.185
		c0.573,0.539,1.144,1.077,1.716,1.615"/>
	
		<line fill="none" stroke="#A12E0F" stroke-width="0" stroke-linecap="round" stroke-linejoin="round" x1="352.668" y1="718.8" x2="352.669" y2="718.8"/>
</g>
</svg>
