<?xml version="1.0" encoding="utf-8"?>
<!-- Designed by Vexels.com - 2020 All Rights Reserved - https://vexels.com/terms-and-conditions/  -->
<svg version="1.1" id="Layer_1" xmlns="http://www.w3.org/2000/svg" xmlns:xlink="http://www.w3.org/1999/xlink" x="0px" y="0px"
	 viewBox="0 0 1200 1200" enable-background="new 0 0 1200 1200" xml:space="preserve">
<g>
	<path fill="#8B5178" d="M734.875,450.582c12.511,35.002,32.785,66.512,48.419,100.097c7.98,17.145,14.318,34.765,20.854,52.535
		c1.247,3.389,2.504,6.823,2.864,10.416c1.052,10.49-7.085,17.757-16.635,19.9c-2.444,0.548-5.205,0.793-7.268-0.626
		c-1.259-0.866-2.067-2.23-2.835-3.551c-18.468-31.742-36.935-63.485-55.403-95.227c-11.726-20.154-23.781-41.415-24.428-64.723
		c-0.088-3.178,0.057-6.442,1.272-9.38c3.205-7.752,12.421-10.734,20.547-12.814"/>
	<path fill="#31353E" d="M518.977,1100.454c-0.324,1.112-0.662,2.244-1.316,3.193c-0.544,0.789-1.282,1.414-2.018,2.02
		c-14.89,12.259-32.61,20.635-47.135,33.341c-2.66,2.328-5.399,5.223-5.4,8.797c0,0.397,0.046,0.822,0.296,1.126
		c0.337,0.409,1.558,0.983,2.081,1.005c14.917,0.635,29.039-3.586,43.341-7.954c3.751-1.146,7.487-2.339,11.224-3.532
		c8.984-2.869,17.967-5.737,26.951-8.605c0.776-0.248,1.582-0.513,2.17-1.087c0.736-0.718,1.003-1.789,1.235-2.8
		c4.193-18.291,7.623-36.763,10.279-55.35c0.12-0.84,0.231-1.737-0.125-2.504c-0.52-1.121-1.829-1.571-3.008-1.873
		c-7.462-1.91-17.527-3.552-25.034-0.872c-6.832,2.439-7.249,11.477-8.781,17.564
		C522.258,1088.797,520.671,1094.642,518.977,1100.454z"/>
	<path fill="#31353E" d="M650.238,1106.305c-1.006,6.652,1.775,9.224,7.418,12.175c19.843,10.375,41.163,17.067,62.976,21.862
		c3.815,0.838,7.642,1.618,11.478,2.354c2.478,0.475,6.828,2.227,9.118,0.481c1.126-0.858,2.664-3.229,2.604-4.643
		c-0.044-1.045-7.226-6.511-8.027-7.183c-18.769-15.764-23.031-18.066-38.871-31.766c-2.46-2.127-6.734-6.144-6.971-9.387
		c-0.092-1.254,0.287-2.49,0.653-3.693c3.665-12.06,6.409-24.401,8.201-36.877c0.144-1.003,0.273-2.073-0.151-2.993
		c-0.495-1.073-1.619-1.688-2.672-2.225c-11.107-5.665-23.945-5.39-31.963,5.544c-2.272,3.098-3.017,6.861-3.872,10.527
		c-1.504,6.455-3.301,12.833-4.813,19.286C653.289,1088.54,651.585,1097.396,650.238,1106.305z"/>
	
		<ellipse transform="matrix(0.066 -0.9978 0.9978 0.066 -408.4887 1659.6117)" fill="#582C3D" cx="682.276" cy="1048.01" rx="19.142" ry="32.018"/>
	<path fill="#8B5178" d="M763.755,702.275c-2.284,65.03-13.336,125.151-26.303,186.691c-2.549,12.103-5.258,24.165-8.099,36.199
		c-2.194,9.311-4.464,18.601-6.797,27.87c-7.535,29.959-15.704,59.772-23.991,89.536c-0.815,2.918-1.706,5.919-4.144,7.925
		c-1.72,1.421-3.949,2.11-6.17,2.34c-4.004,0.404-8.58,0.035-12.243-1.72c-2.34-1.121-4.45-2.932-5.62-5.272
		c-1.372-2.723-0.871-5.94-0.348-8.81c12.981-71.04,23.232-142.574,30.718-214.401c0.125-1.184,0.244-2.375,0.369-3.559
		c0.808-7.827,1.581-15.662,2.319-23.496c0.912-9.631,1.776-19.297,3.19-28.866c0.153-1.017,0.306-2.033,0.467-3.043
		c0.954-5.94,2.138-11.832,3.698-17.647c4.339-16.149,11.79-31.832,23.817-43.455c5.557-5.376,13.761-9.993,20.704-6.595
		L763.755,702.275z"/>
	
		<ellipse transform="matrix(0.066 -0.9978 0.9978 0.066 -544.8119 1533.6621)" fill="#582C3D" cx="546.835" cy="1057.855" rx="19.142" ry="32.018"/>
	
		<ellipse transform="matrix(0.8979 -0.4401 0.4401 0.8979 -123.4025 351.7061)" fill="#582C3D" cx="696.619" cy="441.924" rx="40.861" ry="51.359"/>
	<path fill="#31353E" d="M701.128,819.076c3.775-2.34,7.34-5.042,10.641-7.988c6.017-5.376,11.247-11.588,15.913-18.162
		c4.993-7.048,20.119-24.876,10.864-33.177c-8.002-7.173-21.338-0.731-31.442,3.921c-0.16,1.01-0.313,2.027-0.467,3.043
		c-1.414,9.569-2.277,19.235-3.189,28.866C702.708,803.414,701.935,811.248,701.128,819.076z"/>
	<path fill="#8B5178" d="M544.396,486.628c0.23,2.026,0.494,4.06,0.794,6.086c0.648,4.492,1.421,8.97,2.124,13.392
		c8.176,51.352,6.644,103.478,6.198,155.583c-0.167,19.325-0.188,38.65,0.494,57.927c0.209,6.024,0.488,12.041,0.857,18.057
		c0.703,11.623,1.79,23.497,6.637,34.075c7.438,16.247,23.148,27.647,40.12,33.225c16.971,5.571,35.21,5.94,53.045,4.903
		c20.154-1.17,40.76-4.255,58.317-14.228c25.057-14.227,40.99-41.185,47.585-69.229c1.532-6.518,2.619-13.099,3.343-19.729
		c2.382-21.798,0.843-44.075-1.588-65.963c-0.014-0.104-0.021-0.202-0.035-0.306c-6.699-60.197-19.826-119.669-39.089-177.095
		c-5.321-15.85-10.739-37.661-23.831-49.201c-9.011-7.946-21.512-8.092-32.814-9.785c-37.111-5.55-74.069-0.501-102.434,26.352
		c-2.27,2.145-4.457,4.408-6.49,6.797c-1.825,2.138-3.545,4.366-5.091,6.699c-2.5,3.761-4.575,7.779-6.031,12.055
		C543.177,465.994,543.246,476.293,544.396,486.628z"/>
	<path fill="#31353E" d="M544.396,486.628c0.23,2.026,0.494,4.06,0.794,6.086c45.036,7.18,88.805,19.186,130.854,28.629
		l-1.379-7.389c-10.502-14.575-21.435-29.548-37.411-39.409c-10.502-6.476-22.668-10.404-34.688-14.269
		c-16.324-5.251-32.647-10.501-48.978-15.752c-0.348-0.112-0.703-0.223-1.051-0.334c-2.5,3.761-4.575,7.779-6.031,12.055
		C543.177,465.994,543.246,476.293,544.396,486.628z"/>
	<path fill="#FFD393" d="M708.908,467.426c-1.066,5.05-2.25,10.074-3.551,15.069c-3.348,12.858-6.767,36.383-22.668,39.835
		c-7.131,1.548-21.52-5.027-29.831-8.829c-25.453-11.643-50.905-23.286-76.357-34.929c-31.417-14.372-63.528-29.213-88.138-53.46
		c-7.331-7.223-14.329-16.496-13.169-26.721c0.888-7.826,6.456-14.347,12.639-19.226c20.224-15.957,47.46-18.926,73.112-21.288
		c39.909-3.675,77.34-10.568,117.307-13.536c12.078-0.897,20.978-2.451,27.326,9.972c11.782,23.06,11.413,49.508,9.123,74.652
		C713.524,441.883,711.588,454.733,708.908,467.426z"/>
	<path fill="#BABBA7" d="M611.849,377.843c0.808,7.159,1.595,8.607,2.221,15.78c0.404,4.624,0.71,11.707,1.567,17.96
		c0.453,3.294,1.059,6.351,1.908,8.705c5.063,14.061,21.609,21.24,34.103,27.167c3.016,1.435,6.894,2.632,9.422,0.453
		c2.228-1.922,2.054-5.362,1.692-8.287c-0.759-6.129-1.518-12.264-2.27-18.392c-2.493-20.14-4.986-40.266-7.466-60.406
		c-0.961-7.758-0.682-17.577-8.949-21.199c-8.628-3.774-20.112,0.021-25.76,7.131C611.57,355.266,610.637,367.049,611.849,377.843z"
		/>
	<path fill="#31353E" d="M611.849,377.843c0.808,7.159,1.595,8.607,2.221,15.78c0.404,4.624,0.71,11.707,1.567,17.96
		c4.68,1.769,9.471,3.252,14.297,4.485c10.028,2.549,20.258,4.081,30.558,5.16c-2.493-20.14-4.986-40.266-7.466-60.406
		c-0.961-7.758-0.682-17.577-8.949-21.199c-8.628-3.774-20.112,0.021-25.76,7.131C611.57,355.266,610.637,367.049,611.849,377.843z"
		/>
	<path fill="#8B5178" d="M609.927,786.352c-0.564,17.103-3.816,32.111-7.41,48.713c-3.879,17.912-8.252,39.925-10.878,58.045
		c-5.307,36.561-12.744,73.477-18.615,109.969c-2.43,15.147-5.773,30.266-9.025,45.301c-0.78,3.594-1.692,7.417-4.457,10
		c-5.112,4.791-13.58,3.113-20.446,1.1c-1.219-0.355-2.479-0.738-3.426-1.553c-1.95-1.685-1.866-4.568-1.63-7.061
		c3.12-32.856,6.86-65.685,10.982-98.457c0.989-7.855,1.999-15.704,3.022-23.552c0.703-5.355,1.393-10.711,2.061-16.066
		c4.429-35.126,8.371-70.309,12.64-105.449c0.028-0.209,0.049-0.411,0.077-0.62c1.532-12.605,0.773-31.157,13.057-39.528
		c5.404-3.684,12.876-4.039,19.081-1.769c6.212,2.27,11.226,6.881,14.785,12.187L609.927,786.352z"/>
	<path fill="#582C3D" d="M554.006,719.616c12.424,4.394,25.753,5.989,38.929,7.124c57.697,4.937,117.281,1.379,170.974-20.049
		c2.382-21.798,0.843-44.075-1.588-65.963c-14.527,6.491-30.593,9.116-46.373,11.637c-53.776,8.601-108.562,17.208-162.436,9.325
		C553.344,681.014,553.323,700.339,554.006,719.616z"/>
	<ellipse fill="#F2A661" cx="697.276" cy="690.793" rx="22.541" ry="30.838"/>
	
		<ellipse transform="matrix(0.9845 -0.1753 0.1753 0.9845 -85.919 128.9957)" fill="#FFD393" cx="687.197" cy="550.827" rx="12.814" ry="17.53"/>
	
		<ellipse transform="matrix(0.8979 -0.4401 0.4401 0.8979 -171.4568 293.586)" fill="#582C3D" cx="547.278" cy="516.474" rx="40.861" ry="51.359"/>
	<path fill="#BABBA7" d="M770.51,400.706c-4.722,12.605-13.573,29.144-26.693,35.516c-13.517,6.567-29.103,4.937-42.745,0.515
		c-24.061-7.807-44.528-22.717-65.761-35.83c-13.935-8.607-28.859-16.637-44.716-21.212c-2.11-0.613-4.332-0.856-6.553-0.71
		c-97.956,6.497-182.213-56.012-190.487-143.312c-5.669-59.793,25.732-116.209,77.287-150.82
		c26.24-17.619,57.697-29.597,92.148-33.497c73.066-8.28,139.775,22.006,174.964,72.955c2.034,2.765,3.997,5.571,5.905,8.419
		c2.284,3.419,4.485,6.887,6.609,10.383c10.265,16.867,34.542,38.03,35.447,57.704C789.584,280.535,791.137,345.662,770.51,400.706z
		"/>
	<path fill="#31353E" d="M774.517,210.27c10.071,16.298,9.628,37.275,1.477,61.919c-8.151,24.644-25.637,34.692-30.995,27.325
		c-5.856-8.052-11.627-49.487-3.476-74.131C749.674,200.738,764.446,193.972,774.517,210.27z"/>
	<path fill="#E2DED0" d="M744.516,243.076c-0.027,2.063,0.357,5.1,1.541,6.194c0.833,0.77,1.463-0.061,1.926-0.906
		c2.602-4.751,4.733-10.406,7.287-15.254c2.553-4.848,5.602-8.937,9.58-10.079c2.504-0.718,5.454-0.348,7.077-3.369
		c0.84-1.564,1.137-4.705-0.031-7.388c-0.859-1.974-2.128-2.831-3.232-3.351c-11.141-5.251-18.55,4.637-22.32,19.549
		C745.263,232.751,744.587,237.63,744.516,243.076z"/>
	<path fill="#31353E" d="M554.271,246.624c-9.864,25.364,18.444,60.045,63.228,77.46s88.297,2.828,98.948-14.393
		c8.266-13.366-18.444-60.045-63.228-77.46C608.435,214.816,564.135,221.26,554.271,246.624z"/>
	<path fill="#E2DED0" d="M582.748,236.315c-5.325,1.579-10.867,3.906-13.845,8.594s-1.817,12.247,3.426,14.081
		c2.279,0.797,4.784,0.391,7.15-0.091c12.315-2.507,24.312-6.841,36.843-7.8c12.718-0.973,25.446,1.575,38.201,1.572
		c1.26,0,2.77-0.173,3.338-1.298c0.678-1.342-0.534-2.842-1.69-3.804C636.115,230.872,607.252,229.049,582.748,236.315z"/>
	<g>
		<path fill="#31353E" d="M516.091,261.557c-0.15,0.159-0.736-0.138-1.794-0.937c-0.265-0.2-0.559-0.431-0.883-0.695
			c-0.301-0.284-0.625-0.606-0.978-0.962c-0.351-0.36-0.732-0.752-1.143-1.174c-0.384-0.445-0.771-0.946-1.195-1.475
			c-1.669-2.129-3.556-5.045-5.094-8.932c-1.567-3.866-2.788-8.704-3.049-14.398c-0.114-1.422-0.03-2.895-0.015-4.417
			c0.048-0.759,0.123-1.529,0.187-2.313c0.048-0.785,0.17-1.575,0.299-2.376c0.204-1.612,0.604-3.239,0.992-4.919
			c0.249-0.827,0.501-1.666,0.757-2.516c0.25-0.854,0.608-1.675,0.916-2.531c2.639-6.77,7.105-13.694,13.498-19.78
			c6.372-6.069,14.634-11.416,24.488-14.803c9.809-3.472,21.046-5.055,32.979-4.764c11.962,0.294,22.863,2.388,32.72,4.804
			c9.863,2.46,18.732,5.29,26.817,7.902c8.085,2.624,15.406,5.108,21.917,7.607c6.515,2.486,12.228,4.95,17.166,7.326
			c4.947,2.361,9.082,4.7,12.544,6.761c1.711,1.067,3.288,2.008,4.653,2.962c1.379,0.93,2.618,1.751,3.665,2.553
			c1.056,0.787,1.984,1.456,2.75,2.064c0.752,0.624,1.375,1.141,1.871,1.553c0.983,0.834,1.441,1.27,1.396,1.327
			c-0.045,0.057-0.59-0.269-1.656-0.987c-0.528-0.365-1.191-0.823-1.99-1.375c-0.804-0.546-1.769-1.151-2.859-1.872
			c-1.08-0.735-2.352-1.487-3.76-2.345c-1.393-0.881-2.998-1.746-4.732-2.734c-3.51-1.903-7.679-4.068-12.651-6.244
			c-4.963-2.191-10.69-4.458-17.218-6.742c-6.524-2.296-13.862-4.573-21.984-6.993c-8.128-2.411-17.004-5.021-26.762-7.244
			c-9.751-2.182-20.43-4.017-31.957-4.116c-11.51-0.097-22.174,1.569-31.36,4.919c-9.215,3.262-16.844,8.274-22.751,13.884
			c-5.917,5.625-10.028,11.922-12.524,18.037c-0.289,0.773-0.635,1.519-0.871,2.283c-0.245,0.762-0.487,1.514-0.726,2.254
			c-0.376,1.512-0.778,2.975-0.996,4.434c-0.136,0.724-0.269,1.438-0.329,2.152c-0.079,0.711-0.157,1.412-0.234,2.101
			c-0.051,1.386-0.181,2.73-0.121,4.032c0.045,5.214,0.925,9.706,2.113,13.365c1.159,3.681,2.629,6.533,3.91,8.722
			c0.324,0.55,0.627,1.064,0.908,1.542c0.312,0.461,0.601,0.888,0.867,1.281c0.261,0.402,0.5,0.77,0.716,1.103
			c0.238,0.316,0.449,0.605,0.632,0.866C515.949,260.792,516.241,261.399,516.091,261.557z"/>
	</g>
	<g>
		<path fill="#31353E" d="M719.654,211.055c-0.436-0.023-0.806-0.772-1.065-2.322c-0.138-0.776-0.208-1.748-0.259-2.93
			c-0.052-1.182-0.023-2.568,0.044-4.168c0.054-0.799,0.112-1.651,0.174-2.558c0.095-0.904,0.196-1.862,0.303-2.876
			c0.127-1.011,0.282-2.075,0.447-3.196c0.191-1.115,0.379-2.29,0.621-3.513c0.946-4.894,2.397-10.638,4.643-17.144
			c1.118-3.256,2.304-6.218,3.45-8.946c1.169-2.731,2.416-5.239,3.847-7.391c1.427-2.154,3.019-3.945,4.71-5.283
			c1.692-1.355,3.432-2.203,5.016-2.738c1.594-0.523,3.045-0.721,4.271-0.723c1.227,0.004,2.23,0.165,2.987,0.407
			c0.384,0.096,0.701,0.241,0.971,0.353c0.272,0.105,0.482,0.231,0.646,0.335c0.329,0.205,0.469,0.336,0.44,0.401
			c-0.029,0.066-0.228,0.064-0.592-0.002c-0.182-0.034-0.403-0.088-0.679-0.119c-0.273-0.037-0.584-0.105-0.951-0.122
			c-0.723-0.085-1.645-0.079-2.731,0.069c-1.086,0.154-2.343,0.489-3.691,1.108c-1.338,0.627-2.782,1.534-4.111,2.833
			c-1.345,1.295-2.607,2.995-3.724,5.036c-1.124,2.045-2.098,4.442-3.037,7.147c-0.924,2.724-1.896,5.686-2.808,8.905
			c-1.835,6.44-3.052,12.041-3.984,16.783c-0.227,1.187-0.443,2.319-0.649,3.397c-0.194,1.081-0.379,2.108-0.554,3.081
			c-0.344,1.951-0.651,3.689-0.921,5.222c-0.264,1.535-0.536,2.863-0.767,3.994c-0.233,1.131-0.485,2.061-0.7,2.801
			C720.551,210.373,720.091,211.077,719.654,211.055z"/>
	</g>
	<g>
		<path fill="#31353E" d="M741.988,342.289c-0.87,0.067-1.702-0.46-2.176-1.732c-0.481-1.268-0.584-3.284-0.174-6.068
			c0.419-2.783,1.018-4.725,1.465-5.97c0.462-1.245,0.8-1.796,1.081-1.768c0.288,0.029,0.49,0.638,0.747,1.915
			c0.249,1.275,0.573,3.216,0.915,5.877c0.35,2.659,0.424,4.531,0.077,5.789C743.592,341.585,742.865,342.221,741.988,342.289z"/>
	</g>
	<g>
		<path fill="#31353E" d="M753.716,339.078c-0.804,0.348-1.706,0.228-2.477-0.541c-0.781-0.765-1.41-2.19-1.927-4.34
			c-0.517-2.15-0.714-3.762-0.795-4.83c-0.072-1.072-0.009-1.609,0.254-1.723c0.263-0.114,0.697,0.208,1.429,0.995
			c0.722,0.791,1.762,2.038,2.975,3.887c1.213,1.849,1.821,3.283,1.844,4.376C755.051,337.991,754.52,338.731,753.716,339.078z"/>
	</g>
	<path fill="#FFFFFF" d="M715.927,368.771c-0.175,0.044-0.35,0.089-0.525,0.135c-0.231,0.061-0.472,0.129-0.662,0.237
		c-0.394,0.224-0.419,0.524-0.334,0.751c0.527,1.415,3.468,2.072,5.833,2.403c2.168,0.303,4.549,0.331,6.897,0.403
		c2.787,0.085,5.847-0.096,8.936-0.83c3.142-0.747,6.025-2.137,8.499-3.603c3.713-2.2,8.057-5.083,10.007-7.699
		c1.338-1.795-1.769-0.769-3.473-0.22c-5.814,1.871-11.758,3.446-17.709,4.813c-3.073,0.706-6.151,1.325-9.226,1.936
		C721.461,367.633,718.639,368.09,715.927,368.771z"/>
	<g>
		<path fill="#31353E" d="M728.763,395.992c-0.199-0.512,2.646-2.212,9.878-4.546c7.25-2.275,10.555-2.531,10.688-1.998
			c0.149,0.585-2.891,1.741-10.055,3.989C732.128,395.742,728.979,396.555,728.763,395.992z"/>
	</g>
	<path fill="#BABBA7" d="M780.599,576.943c5.12,5.02,7.31,13.1,4.633,19.752c-0.535,1.328-1.266,2.612-2.351,3.547
		c-0.791,0.682-1.739,1.154-2.693,1.578c-3.765,1.673-7.812,2.711-11.917,3.058c-1.662,0.14-3.374,0.162-4.951-0.378
		c-1.232-0.422-2.324-1.166-3.398-1.902c-7.737-5.297-24.367-15.581-13.116-26.161C755.595,568.173,772.104,568.613,780.599,576.943
		z"/>
	<circle fill="#582C3D" cx="750.906" cy="598.208" r="21.99"/>
	<path fill="#BABBA7" d="M685.76,609.398c-5.816-0.329-11.66-0.597-17.46-0.052c-3.908,0.367-7.877,1.14-11.237,3.169
		c-4.223,2.549-7.124,6.896-8.823,11.528c-1.699,4.631-2.31,9.58-2.844,14.484c-0.311,2.857-0.587,5.828,0.375,8.536
		c1.056,2.974,3.533,5.293,6.36,6.694c2.827,1.401,5.994,1.972,9.136,2.265c6.822,0.637,13.77,0.029,20.343-1.906
		c4.561-1.342,8.948-3.326,12.861-6.027c2.665-1.839,5.093-3.996,7.513-6.148c5.214-4.634,10.429-9.269,15.643-13.903
		c0.687-0.611,1.392-1.245,1.785-2.075c1.517-3.202-1.161-9.261-2.978-11.918c-1.555-2.275-3.378-3.593-6.145-3.781
		c-3.035-0.207-6.097,0.338-9.156,0.146C696.008,610.089,690.889,609.689,685.76,609.398z"/>
	<circle fill="#582C3D" cx="721.471" cy="619.525" r="21.99"/>
	<path fill="#8B5178" d="M521.66,529.391c9.369,20.747,26.914,39.525,41.992,56.48c21.728,24.434,46.303,45.824,70.624,67.567
		c7.518,6.72,15.072,13.467,23.508,18.991c8.626,5.648,19.046,10.072,29.067,7.647c5.569-1.348,10.427-4.685,14.996-8.144
		c20.473-15.499,38.029-34.836,51.485-56.705c2.006-3.26,3.971-6.729,4.235-10.548c0.264-3.819-1.69-8.061-5.344-9.202
		c-3.358-1.049-6.886,0.719-9.935,2.474c-14.748,8.486-28.913,17.986-42.363,28.409c-6.321,4.899-13.366,10.289-21.334,9.612
		c-7.069-0.601-12.748-5.846-17.788-10.839c-20.839-20.645-41.063-41.91-60.636-63.758c-9.787-10.924-19.411-21.994-28.868-33.204
		c-6.017-7.132-19.399-24.15-29.312-26.044C524.987,498.878,517.673,520.56,521.66,529.391z"/>
	<path fill="#8B5178" d="M792.673,634.11c-3.016,1.177-6.28,1.54-9.505,1.825c-17.399,1.537-35.106,1.111-52.08-3.005
		c-2.347-0.569-4.741-1.238-6.668-2.693c-1.927-1.455-3.307-3.877-2.867-6.251c0.617-3.329,4.231-5.06,7.397-6.258
		c17.438-6.595,35.346-12.775,53.959-13.831c8.965-0.509,20.883,1.407,23.887,11.61C808.999,622.986,798.793,631.721,792.673,634.11
		z"/>
	<g>
		<path fill="#31353E" d="M550.677,958.213c0.009-0.16,0.255-0.306,0.75-0.431c0.247-0.065,0.556-0.115,0.928-0.175
			c0.372-0.07,0.809-0.137,1.31-0.2c0.499-0.075,1.065-0.16,1.699-0.256c0.629-0.13,1.332-0.212,2.093-0.388
			c1.527-0.306,3.322-0.737,5.352-1.441c2.03-0.704,3.707-1.476,5.096-2.181c0.707-0.332,1.31-0.703,1.884-0.99
			c0.557-0.318,1.054-0.601,1.493-0.851c0.433-0.261,0.817-0.478,1.153-0.654c0.33-0.184,0.604-0.335,0.838-0.437
			c0.465-0.208,0.75-0.246,0.856-0.125c0.106,0.121,0.024,0.389-0.274,0.819c-0.15,0.213-0.349,0.474-0.614,0.764
			c-0.271,0.282-0.602,0.604-0.994,0.965c-0.398,0.353-0.876,0.723-1.413,1.14c-0.561,0.379-1.167,0.835-1.89,1.244
			c-1.422,0.858-3.195,1.749-5.371,2.503c-2.175,0.755-4.119,1.153-5.768,1.359c-0.821,0.127-1.579,0.143-2.254,0.193
			c-0.68,0.005-1.284,0.01-1.815-0.021c-0.532-0.041-0.991-0.089-1.379-0.142c-0.388-0.064-0.705-0.145-0.955-0.22
			C550.899,958.532,550.669,958.373,550.677,958.213z"/>
	</g>
	<g>
		<path fill="#31353E" d="M695.047,1014.33c-0.081,0.292-0.648,0.478-1.759,0.236c-0.549-0.129-1.235-0.36-2.006-0.788
			c-0.774-0.419-1.642-1.024-2.504-1.888c-0.863-0.864-1.465-1.734-1.883-2.508c-0.426-0.772-0.656-1.458-0.783-2.008
			c-0.24-1.111-0.052-1.678,0.239-1.759c0.324-0.092,0.699,0.297,1.27,1.109c0.293,0.403,0.63,0.917,1.083,1.512
			c0.445,0.598,0.995,1.286,1.718,2.012c0.723,0.725,1.411,1.276,2.008,1.722c0.594,0.454,1.107,0.792,1.51,1.087
			C694.751,1013.631,695.14,1014.006,695.047,1014.33z"/>
	</g>
	<path fill="#D898B5" d="M564.542,934.581c-1.191,11.393-8.155,20.001-15.557,19.228c-1.421-0.146-2.751-0.634-3.963-1.4
		c0.989-7.855,1.999-15.704,3.022-23.552c0.703-5.355,1.393-10.711,2.061-16.066c1.045-0.272,2.117-0.355,3.197-0.244
		C560.705,913.32,565.74,923.181,564.542,934.581z"/>
	<path fill="#D898B5" d="M729.353,925.166c-2.194,9.311-4.464,18.601-6.797,27.87c-3.412,3.384-7.486,5.007-11.289,4.025
		c-7.201-1.867-10.718-12.361-7.855-23.455c2.862-11.094,11.031-18.573,18.232-16.714
		C725.251,917.825,727.932,920.917,729.353,925.166z"/>
	<g>
		<path fill="#31353E" d="M645.01,663.744c-0.29,0.265-3.405-3.233-11.531-9.212c-2.043-1.492-4.361-3.184-6.963-5.084
			c-2.602-1.913-5.497-4.069-8.527-6.652c-3.031-2.575-6.201-5.542-9.532-8.861c-3.334-3.32-6.832-6.979-10.619-10.897
			c-15.132-15.693-25.854-27-32.734-34.439c-6.881-7.439-9.921-11.01-9.69-11.233c0.231-0.223,3.689,2.945,10.873,10.092
			c7.184,7.147,18.093,18.273,33.224,33.967c3.788,3.919,7.274,7.589,10.558,10.902c3.284,3.315,6.378,6.273,9.32,8.849
			c2.934,2.579,5.742,4.76,8.287,6.734c2.549,1.968,4.833,3.723,6.811,5.325c3.965,3.193,6.677,5.781,8.328,7.599
			c0.828,0.908,1.407,1.609,1.756,2.104C644.926,663.424,645.069,663.69,645.01,663.744z"/>
	</g>
	<g>
		<path fill="#31353E" d="M655.187,618.366c-0.464,0.444-10.928-9.728-34.42-34.253c-23.492-24.524-33.205-35.416-32.742-35.86
			c0.464-0.444,10.928,9.729,34.42,34.253S655.651,617.922,655.187,618.366z"/>
	</g>
	<g>
		<path fill="#31353E" d="M683.445,655.335c-0.326-0.094-0.395-0.747-0.38-2.024c-0.001-0.64,0.027-1.438-0.004-2.411
			c-0.022-0.971-0.087-2.118-0.296-3.439c-0.209-1.321-0.503-2.432-0.783-3.362c-0.271-0.934-0.545-1.684-0.742-2.294
			c-0.41-1.21-0.546-1.852-0.265-2.043c0.248-0.171,0.877,0.153,1.718,1.274c0.411,0.563,0.879,1.323,1.301,2.328
			c0.43,0.999,0.83,2.24,1.067,3.731c0.237,1.491,0.241,2.795,0.141,3.878c-0.09,1.086-0.3,1.953-0.517,2.617
			C684.231,654.919,683.734,655.421,683.445,655.335z"/>
	</g>
	<g>
		<path fill="#31353E" d="M692.584,644.641c-0.596,0.324-1.409-0.357-2.929-1.974c-1.574-1.564-2.232-2.396-1.892-2.982
			c0.163-0.271,0.548-0.391,1.164-0.222c0.61,0.171,1.464,0.637,2.394,1.585c0.922,0.956,1.364,1.822,1.517,2.437
			C692.991,644.104,692.859,644.485,692.584,644.641z"/>
	</g>
	<g>
		<path fill="none" stroke="#4E6D44" stroke-width="1.1125" stroke-miterlimit="10" d="M742.173,634.326"/>
	</g>
	<g>
		<path fill="none" stroke="#4E6D44" stroke-width="1.1125" stroke-miterlimit="10" d="M738.995,636.927"/>
	</g>
	<g>
		<path fill="#31353E" d="M758.514,606.366c0.143,0.055,0.114,0.594-0.221,1.628c-0.339,1.03-1.009,2.551-2.184,4.46
			c-1.168,1.92-2.838,4.177-4.866,6.926c-2.037,2.752-4.48,5.99-7.36,9.744c-11.519,15.015-16.879,21.146-17.388,20.756
			c-0.509-0.391,4.025-7.156,15.544-22.171c2.88-3.754,5.374-6.952,7.505-9.633c2.13-2.688,3.915-4.818,5.206-6.546
			C757.348,608.079,758.174,606.234,758.514,606.366z"/>
	</g>
	<g>
		<path fill="none" stroke="#4E6D44" stroke-width="1.1125" stroke-miterlimit="10" d="M782.623,603.122"/>
	</g>
	<g>
		<path fill="#31353E" d="M794.305,607.707c-0.271,0.203-0.783-0.1-1.743-0.641c-0.959-0.531-2.444-1.313-4.785-1.742
			c-2.36-0.391-4.185-0.358-5.38-0.521c-1.201-0.138-1.783-0.38-1.804-0.702c-0.021-0.318,0.506-0.655,1.71-0.939
			c0.603-0.139,1.378-0.265,2.353-0.323c0.973-0.053,2.153-0.046,3.531,0.197c2.784,0.502,4.573,1.763,5.433,2.772
			C794.495,606.837,794.548,607.534,794.305,607.707z"/>
	</g>
	<g>
		<path fill="#31353E" d="M791.869,598.491c0.001,0.673-0.71,1.085-2.214,1.578c-1.483,0.549-2.297,0.67-2.714,0.142
			c-0.191-0.252-0.209-0.616,0.075-1.051c0.282-0.428,0.88-0.933,1.874-1.286c0.997-0.342,1.779-0.318,2.267-0.159
			C791.649,597.878,791.861,598.175,791.869,598.491z"/>
	</g>
	<g>
		<path fill="#31353E" d="M761.246,636.968c0.03,0.31-0.696,0.694-2.344,0.992c-1.645,0.288-4.226,0.496-7.81,0.182
			c-3.582-0.337-6.083-1.007-7.649-1.586c-1.568-0.59-2.212-1.099-2.127-1.398c0.09-0.318,0.889-0.37,2.504-0.201
			c1.617,0.159,4.053,0.548,7.483,0.871c3.432,0.301,5.898,0.357,7.517,0.492C760.438,636.444,761.215,636.639,761.246,636.968z"/>
	</g>
	<g>
		<path fill="#31353E" d="M749.872,571.786c-0.327,0.056-1.146-3.143-2.642-10.104c-1.508-6.959-3.684-17.683-7.039-32.62
			c-3.38-14.931-6.017-25.552-7.641-32.484c-1.635-6.93-2.269-10.17-1.949-10.26c0.298-0.084,1.492,3.001,3.537,9.836
			c2.034,6.836,4.931,17.424,8.321,32.397c3.364,14.978,5.29,25.785,6.387,32.833C749.931,568.435,750.177,571.734,749.872,571.786z
			"/>
	</g>
	<path fill="#D2D4BB" d="M623.45,191.122c-7.437-1.745-15.199-3.206-22.666-1.596c-1.69,0.364-3.776,1.721-3.059,3.295
		c0.263,0.579,0.85,0.931,1.41,1.232c6.187,3.314,13.224,4.572,20.031,6.282c22.091,5.549,42.537,16.155,63.946,23.931
		c3.069,1.115,6.852,2.336,9.811,0.507c-2.404-11.881-15.299-15.521-25.014-19.477C653.488,199.424,638.608,194.678,623.45,191.122z
		"/>
	<path fill="#D2D4BB" d="M739.156,162.075c-3.588,5.584-5.613,12.16-5.787,18.794c-0.025,0.965,0.007,1.995,0.552,2.791
		c0.969,1.413,3.136,1.422,4.654,0.627s2.642-2.163,3.994-3.217c5.045-3.932,12.309-2.916,18.377-0.894
		c1.805,0.601,4.303,1.017,5.16-0.681c0.394-0.782,0.222-1.726-0.055-2.556c-0.801-2.396-2.369-4.447-3.911-6.448
		c-3.322-4.312-7.14-11.942-11.747-14.865C746.228,152.984,740.951,158.487,739.156,162.075z"/>
	<path fill="#D2D4BB" d="M743.859,132.731c-6.428-0.849-13.252,1.1-18.044,5.502c-2.159,1.978-4.011,4.45-6.706,5.599
		c-2.695,1.142-6.637,0.091-7.082-2.806c-0.515-3.329,3.489-5.258,5.878-7.64c3.67-3.67,3.684-9.868,1.372-14.513
		c-2.319-4.645-6.483-8.057-10.641-11.177c-37.181-27.877-83.652-43.156-130.13-42.78c-17.375,0.139-34.667,2.389-51.819,5.209
		c-18.26,2.995-36.568,6.678-53.651,13.789c-0.731,0.306-1.462,0.62-2.194,0.94c26.24-17.619,57.697-29.597,92.148-33.497
		c73.066-8.28,139.775,22.006,174.964,72.955C739.987,127.076,741.951,129.882,743.859,132.731z"/>
	<path fill="#D2D4BB" d="M741.27,313.763c1.101,1.084,2.203,2.168,3.304,3.253c1.275,1.255,2.583,2.534,4.202,3.298
		c0.509,0.24,1.067,0.429,1.627,0.37c1.55-0.166,2.283-2.217,1.694-3.66c-0.589-1.443-2-2.356-3.357-3.124
		c-2.773-1.568-6.407-3.856-9.57-4.208C738.644,311.283,740.219,312.728,741.27,313.763z"/>
	<path fill="#D2D4BB" d="M670.959,346.097c-0.715,0.602-1.45,1.453-1.212,2.357c0.218,0.825,1.13,1.228,1.94,1.494
		c8.896,2.928,18.706,3.01,27.65,0.232c3.943-1.225,8.053-3.19,10.514-6.642c1.896-2.66,3.955-10.12-1.655-9.396
		c-1.768,0.228-3.853,1.765-5.593,2.342c-2.043,0.678-4.146,1.161-6.255,1.584c-4.217,0.848-8.499,1.361-12.692,2.333
		C679.101,341.457,674.585,343.045,670.959,346.097z"/>
	<path fill="#D2D4BB" d="M774.817,291.776c-2.156,2.726-4.758,5.191-6.137,8.381c-0.109,0.253-0.213,0.53-0.151,0.799
		c0.08,0.348,0.41,0.576,0.729,0.737c2.432,1.228,5.511,0.473,7.628-1.241c2.118-1.714,3.434-4.218,4.46-6.742
		c0.858-2.109,3.004-6.9-0.511-7.687C777.864,285.357,776.279,289.928,774.817,291.776z"/>
</g>
</svg>
