<?xml version="1.0" encoding="utf-8"?>
<!-- Designed by Vexels.com - 2020 All Rights Reserved - https://vexels.com/terms-and-conditions/  -->
<svg version="1.1" id="Layer_1" xmlns="http://www.w3.org/2000/svg" xmlns:xlink="http://www.w3.org/1999/xlink" x="0px" y="0px"
	 viewBox="0 0 1200 1200" enable-background="new 0 0 1200 1200" xml:space="preserve">
<g>
	<path fill="#50969B" d="M809.757,904.124c8.282,20.8,17.711,43.705,37.837,53.513c6.429,3.133,13.504,4.648,20.276,6.947
		c10.529,3.574,20.609,9.277,27.622,17.905c7.013,8.628,10.582,20.469,7.633,31.19c-4.437,16.129-21.544,25.28-37.78,29.304
		c-15.782,3.911-34.268,4.117-46.305-6.814c-5.912-5.368-9.499-12.765-12.934-19.974c-35.413-74.319-69.568-149.237-102.445-224.712
		c-3.77-8.655-7.536-17.354-10.007-26.465c-5.643-20.81-4.183-43.477,4.083-63.392c4.105-9.891,19.141-30.942,30.825-18.204
		c8.735,9.523,9.841,36.166,13.577,48.459c11.534,37.949,26.788,74.621,42.204,111.121
		C792.926,863.33,801.594,883.623,809.757,904.124z"/>
	<ellipse fill="#285C6D" cx="878.538" cy="998.231" rx="46.55" ry="43.98"/>
	<path fill="#BABBA7" d="M926.188,964.945c14.194,4.67,20.468,20.919,24.334,35.353c2.365,8.83,4.5,18.292,1.625,26.97
		c-2.574,7.769-8.928,13.83-16.101,17.772c-7.173,3.942-15.192,6.028-23.116,8.077c-1.701-0.675-0.647-3.168-0.072-4.906
		c1.365-4.124-1.901-8.214-4.921-11.337c-4.327-4.476-8.921-9.12-14.873-10.946c-14.071-4.317-28.896,8.693-43.181,5.149
		c-5.039-1.25-9.969-7.133-6.729-11.19c1.47-1.841,3.993-2.358,6.13-3.349c17.753-8.234,6.654-37.146,24.881-45.634
		c6.075-2.829,14.035-2.165,20.534-3.338C905.064,965.694,915.653,961.479,926.188,964.945z"/>
	<path fill="#50969B" d="M390.243,904.124c-8.282,20.8-17.711,43.705-37.837,53.513c-6.429,3.133-13.504,4.648-20.277,6.947
		c-10.529,3.574-20.609,9.277-27.621,17.905c-7.013,8.628-10.582,20.469-7.633,31.19c4.437,16.129,21.544,25.28,37.78,29.304
		c15.782,3.911,34.268,4.117,46.305-6.814c5.912-5.368,9.499-12.765,12.934-19.974c35.413-74.319,69.568-149.237,102.445-224.712
		c3.77-8.655,7.536-17.354,10.007-26.465c5.643-20.81,4.183-43.477-4.083-63.392c-4.106-9.891-19.141-30.942-30.825-18.204
		c-8.735,9.523-9.841,36.166-13.577,48.459c-11.534,37.949-26.788,74.621-42.204,111.121
		C407.074,863.33,398.406,883.623,390.243,904.124z"/>
	<path fill="#31353E" d="M840.383,1102.877c5.775,2.333,12.128,5.729,13.402,11.656c1.213,5.646-2.84,11.071-7.383,14.767
		c-15.345,12.483-37.021,14.127-57.119,14.069c-46.396-0.133-92.909-6.362-137.261-19.787c-3.379-1.023-6.86-2.151-9.467-4.476
		c-7.073-6.311-3.855-18.58,3.859-24.059c7.713-5.479,17.942-6.033,27.532-6.221c31.09-0.609,61.973,3.11,92.933,3.09
		c10.549-0.007,19.138-2.997,29.939-1.257C811.738,1093.064,826.413,1097.232,840.383,1102.877z"/>
	<path fill="#285C6D" d="M476.996,745.459c2.324,3.975,4.931,7.974,8.785,10.493c3.854,2.519,9.273,3.188,12.959,0.428
		c2.256-1.688,3.538-4.35,4.629-6.948c12.391-29.507,10.462-62.915,6.311-94.648c-1.531-11.705-3.499-23.808-10.092-33.6
		c-6.466-9.602-22.812-19.793-33.754-11.129c-10.221,8.093-10.289,29.921-10.963,41.707
		C453.01,684.242,460.55,717.331,476.996,745.459z"/>
	<path fill="#285C6D" d="M722.806,745.459c-2.324,3.975-4.931,7.974-8.785,10.493c-3.854,2.519-9.273,3.188-12.959,0.428
		c-2.256-1.688-3.538-4.35-4.629-6.948c-12.391-29.507-10.462-62.915-6.311-94.648c1.531-11.705,3.499-23.808,10.092-33.6
		c6.466-9.602,22.812-19.793,33.754-11.129c10.221,8.093,10.289,29.921,10.964,41.707
		C746.793,684.242,739.252,717.331,722.806,745.459z"/>
	<path fill="#50969B" d="M737.261,1052.402c-6.302,18.474-21.91,30.926-37.904,42.112c-40.879,28.59-97.288,25.686-143.61,14.773
		c-28.157-6.634-58.876-21.551-73.707-47.625c-11.768-20.688-9.424-47.794-10.631-70.827c-1.618-30.886-2.26-61.829-1.925-92.762
		c0.038-4.176,0.105-8.341,0.182-12.517c1.197-62.308,5.047-126.138,14.682-188.349c2.672-17.344,5.803-34.563,9.452-51.591
		c13.293-62.03,102.761-61.532,151.814-48.402c11.31,3.026,22.554,7.202,31.748,14.461c17.602,13.896,24.852,36.392,29.612,58.726
		c0.776,3.611,1.475,7.221,2.155,10.794c11.31,59.942,15.974,120.679,23.578,181.205c1.226,9.768,2.471,19.585,3.668,29.42
		c3.563,29.286,6.656,58.783,7.355,88.031C744.677,1019.814,750.17,1014.506,737.261,1052.402z"/>
	<path fill="#31353E" d="M706.973,670.399c-19.844,18.982-41.966,35.598-65.707,49.379c-11.406,6.617-24.948,15.955-38.221,17.526
		c-14.164,1.676-29.832,0.46-43.403-3.888c-7.891-2.538-15.381-6.148-22.851-9.75c-7.326-3.534-14.653-7.068-21.979-10.602
		c-10.286-4.961-20.667-9.989-30.464-15.859c2.672-17.344,5.803-34.563,9.452-51.591c13.293-62.03,102.761-61.532,151.814-48.402
		c11.31,3.026,22.554,7.202,31.748,14.461C694.963,625.57,702.213,648.066,706.973,670.399z"/>
	<path fill="#E2DED0" d="M639.044,716.776c31.738-31.438,63.623-63.046,89.995-99.103c11.862-16.218,22.862-34.104,24.908-54.092
		c0.686-6.703,0.259-13.785-3.04-19.661c-2.609-4.647-6.845-8.21-11.473-10.851c-11.142-6.36-24.362-7.693-37.144-8.796
		c-73.324-6.329-148.313-9.429-219.447,9.446c-10.075,2.673-20.224,5.871-28.742,11.878s-15.284,15.286-15.949,25.688
		c-0.566,8.851,3.221,17.339,7.044,25.342c15.209,31.834,32.57,63.045,56.179,89.263c19.532,21.691,42.511,37.699,69.218,49.227
		C598.916,747.341,617.519,738.097,639.044,716.776z"/>
	<path fill="#BABBA7" d="M626.325,607.278c0.105,9.261-0.345,18.522-1.36,27.725c-0.326,3.065-0.718,6.13-1.178,9.175
		c-1.226,8.236-3.18,16.922-9.127,22.745c-7.068,6.924-19.259,7.777-27.218,1.896c-5.708-4.214-8.648-10.649-10.324-17.679
		c-1.12-4.75-1.666-9.768-2.088-14.537c-0.939-10.717-1.868-21.424-2.806-32.14l9.299-24.01c9.653-5.258,21.395-10.133,31.24-5.229
		c5.468,2.73,9.251,8.14,11.205,13.935C625.923,594.952,626.258,601.158,626.325,607.278z"/>
	<path fill="#31353E" d="M626.325,607.278c0.105,9.261-0.345,18.522-1.36,27.725c-7.623,3.343-15.323,6.283-22.774,8.868
		c-8.226,2.863-16.597,5.286-25.072,7.269c-1.12-4.75-1.666-9.768-2.088-14.537c-0.939-10.717-1.868-21.424-2.806-32.14l9.299-24.01
		c9.653-5.258,21.395-10.133,31.24-5.229c5.468,2.73,9.251,8.14,11.205,13.935C625.923,594.952,626.258,601.158,626.325,607.278z"/>
	<path fill="#BABBA7" d="M854.865,308.645c0,142.838-203.518,316.64-266.565,316.64c-61.351,0-266.556-173.802-266.556-316.64
		c0-27.073,4.287-53.182,12.241-77.716c8.273-25.515,20.514-49.326,36.026-70.743C418.217,93.55,498.016,50,588.3,50
		c108.637,0,202.097,63.064,243.624,153.521c6.93,15.099,12.413,30.964,16.278,47.423
		C852.567,269.495,854.865,288.812,854.865,308.645z"/>
	<path fill="#888A7C" d="M805.221,363.354c20.757,31.142-6.99,86.098-61.974,122.748c-54.985,36.649-117.741,29.944-137.144,9.971
		c-15.059-15.502,6.99-86.098,61.974-122.748C723.063,336.676,784.464,332.212,805.221,363.354z"/>
	<path fill="#888A7C" d="M372.881,363.354c-20.757,31.142,6.99,86.098,61.974,122.748s117.741,29.944,137.144,9.971
		c15.059-15.502-6.99-86.098-61.974-122.748S393.639,332.212,372.881,363.354z"/>
	<g>
		<path fill="#31353E" d="M577.663,541.244c-1.108-0.61-1.788-1.689-1.691-3.114c0.081-1.439,0.972-3.205,2.609-5.567
			c1.629-2.368,2.949-4.057,3.861-5.154c0.924-1.094,1.465-1.578,1.843-1.455c0.369,0.121,0.541,0.834,0.569,2.301
			c0.009,1.46-0.092,3.696-0.774,6.688c-0.692,2.991-1.691,4.948-2.857,5.917C580.064,541.84,578.764,541.85,577.663,541.244z"/>
	</g>
	<g>
		<path fill="#31353E" d="M600.044,540.588c-0.941,0.598-2.112,0.645-3.23-0.224c-1.12-0.857-2.168-2.649-2.905-5.42
			c-0.724-2.774-0.814-4.855-0.776-6.208c0.056-1.361,0.269-2.02,0.642-2.127c0.383-0.111,0.887,0.348,1.709,1.367
			c0.813,1.021,1.964,2.585,3.429,4.724c1.475,2.131,2.324,3.69,2.461,4.991C601.525,538.976,600.995,539.984,600.044,540.588z"/>
	</g>
	<path fill="#31353E" d="M743.729,979.849c-57.586,16.463-118.419,17.612-178.38,18.627c-31.518,0.536-63.801,0.948-93.94-7.642
		c-1.618-30.886-2.26-61.829-1.925-92.762c15.543,0.948,33.596,4.338,40.75,4.644c50.461,2.165,101.056,1.389,151.431-2.318
		c24.517-1.8,50.039-7.47,74.71-8.581C739.936,921.104,743.03,950.601,743.729,979.849z"/>
	<path fill="#E2DED0" d="M622.78,774.113c0,10.391-6.857,19.173-16.29,22.075c-2.145,0.661-4.434,1.015-6.8,1.015
		c-12.747,0-23.081-10.334-23.081-23.09c0-3.103,0.613-6.062,1.733-8.763c3.438-8.399,11.703-14.318,21.347-14.318
		C612.446,751.033,622.78,761.366,622.78,774.113z"/>
	<path fill="#F2A661" d="M646.112,950.595c0,17.038-11.244,31.438-26.711,36.196c-3.518,1.084-7.271,1.665-11.15,1.665
		c-20.901,0-37.846-16.944-37.846-37.861c0-5.088,1.005-9.94,2.842-14.369c5.637-13.772,19.19-23.477,35.003-23.477
		C629.168,912.75,646.112,929.694,646.112,950.595z"/>
	<g>
		<path fill="#31353E" d="M825.727,334.416c-0.298-0.033-0.538-0.667-0.712-1.9c-0.179-1.234-0.36-3.073-0.627-5.521
			c-0.31-2.445-0.726-5.506-1.571-9.119c-0.403-1.81-0.976-3.738-1.642-5.794c-0.74-2.028-1.553-4.201-2.686-6.38
			c-1.124-2.179-2.473-4.41-4.162-6.551c-0.439-0.518-0.884-1.044-1.336-1.578c-0.496-0.497-0.999-1.002-1.51-1.514
			c-0.254-0.256-0.51-0.515-0.768-0.775c-0.282-0.235-0.566-0.472-0.853-0.711c-0.578-0.471-1.14-0.974-1.747-1.442
			c-2.468-1.832-5.301-3.475-8.467-4.9c-3.17-1.424-6.712-2.534-10.508-3.467c-7.609-1.861-16.324-2.733-25.917-3.279
			c-9.463-0.553-19.774-0.201-30.768,1.304c-10.995,1.51-21.082,3.898-30.259,6.675c-9.194,2.762-17.511,5.803-25.022,8.85
			c-7.511,3.05-14.218,6.108-20.205,8.992c-5.996,2.872-11.231,5.651-15.847,8.101c-4.593,2.493-8.544,4.704-11.881,6.625
			c-3.341,1.913-6.073,3.528-8.249,4.799c-2.18,1.266-3.78,2.226-4.871,2.815c-1.087,0.595-1.647,0.846-1.701,0.764
			c-0.055-0.083,0.398-0.495,1.378-1.254c0.985-0.753,2.48-1.879,4.555-3.32c4.137-2.9,10.518-7.18,19.522-12.618
			c4.524-2.68,9.673-5.705,15.603-8.844c5.922-3.151,12.58-6.495,20.082-9.849c7.501-3.35,15.848-6.712,25.14-9.802
			c9.289-3.108,19.588-5.841,30.908-7.657c11.32-1.812,22.04-2.384,31.938-1.937c9.756,0.43,18.877,1.252,27.139,3.277
			c4.12,1.017,8.032,2.264,11.612,3.916c3.576,1.652,6.835,3.606,9.68,5.826c0.702,0.565,1.359,1.172,2.022,1.746
			c0.328,0.292,0.654,0.581,0.978,0.868c0.299,0.315,0.595,0.628,0.889,0.939c0.583,0.625,1.158,1.242,1.725,1.849
			c0.517,0.654,1.026,1.299,1.528,1.935c1.909,2.607,3.347,5.255,4.49,7.797c1.151,2.544,1.905,5.017,2.549,7.313
			c0.567,2.316,1,4.467,1.236,6.461c0.51,3.984,0.489,7.284,0.315,9.876c-0.218,2.595-0.573,4.487-0.953,5.716
			C826.37,333.877,826.026,334.449,825.727,334.416z"/>
	</g>
	<g>
		<path fill="#31353E" d="M340.721,332.226c-0.406,0.161-1.013-0.293-1.843-1.462c-0.201-0.294-0.443-0.625-0.647-1.017
			c-0.198-0.393-0.407-0.834-0.625-1.323c-0.207-0.491-0.47-1.023-0.657-1.62c-0.186-0.597-0.378-1.245-0.574-1.944
			c-0.706-2.797-1.202-6.49-0.821-10.942c0.393-4.431,1.572-9.644,4.219-15.113c1.278-2.757,3.006-5.519,5.074-8.295
			c0.54-0.677,1.057-1.391,1.646-2.064c0.597-0.667,1.203-1.345,1.817-2.032c0.646-0.641,1.302-1.292,1.966-1.952
			c0.667-0.657,1.398-1.259,2.113-1.902c5.825-5.015,13.262-9.292,21.865-12.403c4.3-1.568,8.896-2.828,13.73-3.838
			c2.416-0.52,4.898-0.927,7.431-1.281c2.527-0.416,5.129-0.641,7.777-0.917c10.607-0.905,22.142-0.684,34.315,1.021
			c12.174,1.715,23.223,4.576,33.159,7.933c1.249,0.4,2.472,0.835,3.677,1.282c1.206,0.44,2.4,0.876,3.581,1.307
			c2.331,0.944,4.645,1.789,6.847,2.762c1.106,0.473,2.2,0.941,3.282,1.404c1.078,0.471,2.13,0.969,3.178,1.444
			c2.101,0.938,4.116,1.935,6.089,2.9c7.877,3.889,14.795,7.826,20.898,11.564c6.103,3.742,11.392,7.287,15.994,10.486
			c4.604,3.198,8.491,6.096,11.778,8.575c3.276,2.495,5.943,4.589,8.03,6.286c2.1,1.682,3.61,2.981,4.602,3.852
			c0.989,0.875,1.444,1.341,1.384,1.42c-0.061,0.079-0.633-0.233-1.743-0.947c-1.113-0.71-2.746-1.841-4.976-3.337
			c-2.217-1.512-5.019-3.403-8.436-5.668c-3.427-2.249-7.46-4.89-12.205-7.794c-9.486-5.788-21.702-12.919-37.485-19.793
			c-7.898-3.4-16.655-6.806-26.425-9.599c-9.752-2.832-20.498-5.147-32.172-6.369c-11.674-1.213-22.577-1.076-32.515,0.004
			c-2.479,0.32-4.914,0.578-7.271,1.016c-2.368,0.377-4.67,0.793-6.891,1.306c-4.449,0.998-8.631,2.19-12.491,3.615
			c-7.728,2.833-14.184,6.506-19.245,10.641c-0.617,0.533-1.261,1.025-1.839,1.565c-0.58,0.539-1.153,1.072-1.717,1.596
			c-0.527,0.547-1.045,1.086-1.556,1.617c-0.509,0.534-0.957,1.112-1.432,1.651c-1.813,2.227-3.401,4.45-4.622,6.688
			c-2.537,4.433-3.944,8.68-4.788,12.345c-0.831,3.683-1.008,6.816-1.048,9.332c0.009,0.627,0.009,1.22,0.001,1.778
			c-0.007,0.558,0.059,1.063,0.068,1.544c0.019,0.479,0.028,0.923,0.026,1.333c0.004,0.408,0.045,0.766,0.045,1.098
			C341.316,331.298,341.127,332.065,340.721,332.226z"/>
	</g>
	<g>
		<path fill="#31353E" d="M605.816,493.694c0.053-0.598,2.267-1.015,6.767-1.186c2.252-0.131,5.081-0.252,8.5-0.361
			c1.709-0.082,3.568-0.171,5.58-0.267c2.01-0.085,4.169-0.281,6.484-0.412c1.158-0.058,2.351-0.161,3.583-0.283
			c1.232-0.11,2.503-0.224,3.813-0.341c2.621-0.227,5.385-0.616,8.317-0.927c1.459-0.211,2.958-0.427,4.498-0.65
			c1.541-0.211,3.119-0.441,4.729-0.741c1.612-0.278,3.266-0.564,4.959-0.856c1.685-0.342,3.41-0.693,5.176-1.051
			c14.084-2.99,30.625-7.675,48.873-15.839c9.111-4.091,17.342-8.42,24.733-12.819c7.395-4.395,13.965-8.828,19.832-13.092
			c5.891-4.239,10.953-8.464,15.511-12.281c2.212-1.984,4.355-3.807,6.292-5.619c1.919-1.829,3.787-3.487,5.43-5.149
			c1.65-1.655,3.228-3.164,4.633-4.625c1.402-1.466,2.696-2.821,3.887-4.065c2.325-2.546,4.24-4.643,5.76-6.308
			c2.963-3.401,4.464-4.985,4.621-4.864c0.157,0.121-1.043,1.936-3.704,5.612c-1.365,1.81-3.123,4.064-5.309,6.761
			c-1.122,1.326-2.343,2.768-3.664,4.329c-1.332,1.554-2.837,3.161-4.417,4.918c-1.572,1.765-3.372,3.532-5.225,5.476
			c-1.871,1.926-3.951,3.87-6.103,5.98c-1.113,1.016-2.256,2.059-3.43,3.131c-0.588,0.535-1.183,1.078-1.786,1.628
			c-0.618,0.533-1.244,1.072-1.877,1.619c-1.272,1.088-2.577,2.204-3.913,3.347c-1.37,1.103-2.774,2.233-4.21,3.389
			c-5.795,4.565-12.322,9.32-19.722,14.05c-7.395,4.733-15.68,9.408-24.908,13.834c-9.239,4.404-18.103,7.912-26.471,10.667
			c-8.368,2.76-16.229,4.789-23.489,6.325c-1.82,0.362-3.597,0.716-5.334,1.062c-1.747,0.286-3.452,0.564-5.115,0.836
			c-1.661,0.288-3.29,0.501-4.88,0.69c-1.589,0.195-3.137,0.385-4.643,0.569c-3.026,0.247-5.88,0.553-8.584,0.679
			c-1.351,0.06-2.662,0.119-3.932,0.175c-1.269,0.063-2.499,0.101-3.691,0.091c-2.382-0.006-4.601,0.037-6.663-0.047
			c-2.062-0.087-3.964-0.182-5.71-0.283c-3.49-0.286-6.354-0.614-8.615-0.972C607.879,495.015,605.762,494.292,605.816,493.694z"/>
	</g>
	<g>
		<path fill="#31353E" d="M570.949,493.694c0.053,0.598-2.063,1.322-6.581,2.13c-2.261,0.359-5.125,0.687-8.615,0.972
			c-1.746,0.101-3.648,0.196-5.71,0.283c-2.062,0.083-4.281,0.041-6.663,0.047c-1.192,0.011-2.422-0.028-3.691-0.091
			c-1.271-0.057-2.581-0.115-3.933-0.175c-2.704-0.126-5.557-0.432-8.583-0.679c-1.506-0.185-3.054-0.374-4.643-0.569
			c-1.591-0.189-3.22-0.402-4.881-0.69c-1.663-0.272-3.368-0.551-5.115-0.836c-1.736-0.346-3.514-0.699-5.334-1.062
			c-7.259-1.536-15.12-3.565-23.489-6.325c-8.368-2.754-17.233-6.263-26.471-10.667c-9.228-4.426-17.513-9.102-24.908-13.834
			c-7.4-4.73-13.928-9.485-19.722-14.05c-1.437-1.156-2.84-2.286-4.21-3.389c-1.336-1.143-2.641-2.259-3.913-3.347
			c-0.634-0.546-1.259-1.086-1.877-1.619c-0.603-0.55-1.199-1.092-1.786-1.628c-1.174-1.071-2.317-2.115-3.43-3.131
			c-2.152-2.11-4.232-4.055-6.103-5.98c-1.853-1.944-3.652-3.711-5.225-5.476c-1.58-1.758-3.085-3.365-4.417-4.918
			c-1.322-1.561-2.542-3.003-3.664-4.329c-2.186-2.698-3.944-4.951-5.309-6.761c-2.661-3.676-3.861-5.491-3.704-5.612
			c0.157-0.121,1.658,1.463,4.622,4.864c1.52,1.665,3.435,3.762,5.76,6.308c1.19,1.245,2.485,2.599,3.886,4.065
			c1.405,1.461,2.983,2.971,4.633,4.625c1.643,1.662,3.511,3.32,5.43,5.149c1.937,1.811,4.08,3.635,6.292,5.619
			c4.558,3.817,9.62,8.042,15.511,12.281c5.867,4.264,12.437,8.697,19.831,13.092c7.391,4.399,15.623,8.728,24.733,12.819
			c18.247,8.164,34.788,12.849,48.873,15.839c1.766,0.359,3.491,0.709,5.175,1.051c1.694,0.293,3.347,0.578,4.959,0.856
			c1.609,0.3,3.188,0.53,4.729,0.741c1.539,0.223,3.039,0.439,4.498,0.65c2.931,0.31,5.696,0.699,8.316,0.927
			c1.311,0.117,2.582,0.231,3.814,0.341c1.232,0.122,2.426,0.225,3.583,0.283c2.314,0.13,4.473,0.326,6.483,0.412
			c2.013,0.096,3.872,0.185,5.58,0.267c3.42,0.109,6.248,0.23,8.501,0.361C568.681,492.678,570.895,493.095,570.949,493.694z"/>
	</g>
	<g>
		<path fill="#31353E" d="M607.015,568.732c-0.004,0.837-4.639,1.298-15.384,1.902c-10.739,0.701-15.396,0.804-15.501-0.027
			c-0.099-0.743,4.45-2.131,15.327-2.841C602.34,567.155,607.022,567.983,607.015,568.732z"/>
	</g>
	
		<ellipse transform="matrix(0.1941 -0.981 0.981 0.1941 -550.7428 1522.8511)" fill="#285C6D" cx="651.458" cy="1096.616" rx="42.836" ry="29.537"/>
	<ellipse fill="#285C6D" cx="321.462" cy="998.231" rx="46.55" ry="43.98"/>
	<path fill="#50969B" d="M612.369,1119.385c-5.966,8.996-18.611,3.917-27.65,2.608c-27.615-3.977-55.205-8.143-82.76-12.534
		c-53.75-8.565-107.38-17.922-160.855-28.08c-13.153-2.505-27.09-5.535-38.789-11.656c-7.179-3.762-13.515-8.677-18.318-15.357
		c-3.512-4.889-6.043-10.915-5.088-16.864c1.076-6.758,6.405-12.112,12.31-15.564c12.473-7.3,27.236-7.816,41.879-6.172
		c5.501,0.62,10.993,1.541,16.339,2.522c75.942,13.945,150.353,35.105,224.367,57.065c11.681,3.461,31.498,7.567,39.925,16.347
		C619.583,1097.795,617.741,1111.267,612.369,1119.385z"/>
	<path fill="#31353E" d="M535.957,1087.473c-51.816-7.263-104.592,1.185-152.772,21.053c-8.766,3.615-17.806,7.869-23.366,15.549
		c-2.503,3.457-4.158,8.233-2.011,11.922c1.61,2.766,4.855,4.067,7.896,5.064c24.513,8.04,50.749,8.781,76.547,8.917
		c44.476,0.235,89.741-1.246,131.914-15.374c8.4-2.814,17.695-7.251,19.927-15.824c0.73-2.804,0.587-5.768,0.113-8.627
		c-1.646-9.936-9.103-20.934-19.871-21.544c-7.73-0.438-15.426,0.499-23.032,0.342
		C546.231,1088.848,541.092,1088.193,535.957,1087.473z"/>
	
		<ellipse transform="matrix(0.9727 -0.232 0.232 0.9727 -240.2656 164.3842)" fill="#285C6D" cx="578.812" cy="1103.777" rx="29.537" ry="42.836"/>
	<path fill="#50969B" d="M919.032,1048.435c-6.835,9.245-16.829,15.306-27.908,19.704c-8.428,3.357-17.484,5.75-26.255,7.859
		c-78.861,18.938-159.409,30.68-239.94,41.535c-12.706,1.713-33.486,6.232-45.417,1.756c-8.272-3.108-12.422-16.115-10.829-25.739
		c1.756-10.657,16.098-11.303,25.334-13.885c28.192-7.885,56.453-15.581,84.766-23.062c55.248-14.591,110.72-28.407,166.399-41.44
		c15.116-3.538,31.438-6.878,46.571-5.208c6.981,0.766,13.722,2.608,19.971,5.991c5.518,2.987,10.571,7.403,12.275,13.214
		C925.927,1035.746,923.172,1042.84,919.032,1048.435z"/>
	<path fill="#84C5C1" d="M336.094,1030.831c0,19.825-14.686,36.224-33.779,38.892c-7.179-3.762-13.515-8.677-18.318-15.357
		c-3.512-4.889-6.043-10.915-5.088-16.864c1.076-6.758,6.405-12.112,12.31-15.564c12.473-7.3,27.236-7.816,41.879-6.172
		C335.026,1020.406,336.094,1025.494,336.094,1030.831z"/>
	<path fill="#BABBA7" d="M273.812,964.945c-14.194,4.67-20.468,20.919-24.334,35.353c-2.365,8.83-4.5,18.292-1.625,26.97
		c2.574,7.769,8.928,13.83,16.101,17.772c7.173,3.942,15.192,6.028,23.116,8.077c1.701-0.675,0.647-3.168,0.072-4.906
		c-1.365-4.124,1.901-8.214,4.921-11.337c4.327-4.476,8.921-9.12,14.873-10.946c14.071-4.317,28.896,8.693,43.181,5.149
		c5.039-1.25,9.969-7.133,6.729-11.19c-1.47-1.841-3.993-2.358-6.13-3.349c-17.753-8.234-6.654-37.146-24.881-45.634
		c-6.075-2.829-14.035-2.165-20.534-3.338C294.936,965.694,284.347,961.479,273.812,964.945z"/>
	<g>
		<path fill="#31353E" d="M470.282,857.501c-0.792-0.042-0.617-15.522,1.286-51.487c1.903-35.965,3.363-51.377,4.155-51.335
			c0.792,0.042,0.617,15.522-1.286,51.487C472.534,842.131,471.074,857.543,470.282,857.501z"/>
	</g>
	<g>
		<path fill="#31353E" d="M731.415,851.195c-0.409,0.023-0.932-3.496-1.713-11.117c-0.795-7.621-1.836-19.348-3.656-35.716
			c-1.852-16.365-3.436-28.031-4.35-35.638c-0.928-7.605-1.198-11.152-0.794-11.221c0.378-0.064,1.357,3.364,2.801,10.908
			c1.43,7.544,3.339,19.208,5.197,35.631c1.827,16.426,2.55,28.222,2.828,35.896C731.992,847.614,731.797,851.174,731.415,851.195z"
			/>
	</g>
	<g>
		<path fill="#31353E" d="M386.544,985.177c-0.741-0.104-1.418-0.538-1.964-1.231c-0.278-0.347-0.501-0.759-0.72-1.237
			c-0.249-0.481-0.464-1.026-0.633-1.641c-0.198-0.615-0.429-1.299-0.583-2.067c-0.122-0.38-0.235-0.781-0.339-1.205
			c-0.05-0.212-0.101-0.43-0.153-0.653c-0.068-0.22-0.137-0.446-0.208-0.677c-0.232-0.938-0.583-1.937-0.936-3.051
			c-0.219-0.54-0.436-1.11-0.654-1.713c-0.269-0.576-0.546-1.182-0.826-1.824c-0.332-0.617-0.652-1.212-0.961-1.785
			c-0.351-0.557-0.69-1.093-1.016-1.608c-0.713-0.988-1.383-1.924-2.095-2.697c-0.172-0.203-0.341-0.4-0.505-0.594
			c-0.178-0.178-0.352-0.352-0.522-0.521c-0.345-0.345-0.673-0.673-0.984-0.985c-0.671-0.554-1.266-1.096-1.824-1.528
			c-0.571-0.406-1.072-0.772-1.501-1.097c-0.44-0.297-0.818-0.522-1.109-0.736c-0.588-0.419-0.862-0.708-0.81-0.899
			c0.052-0.191,0.423-0.27,1.179-0.251c0.376,0.014,0.857,0.032,1.427,0.115c0.56,0.11,1.222,0.255,1.996,0.44
			c0.76,0.211,1.596,0.53,2.56,0.881c0.46,0.219,0.945,0.449,1.456,0.691c0.255,0.126,0.523,0.249,0.788,0.39
			c0.256,0.154,0.518,0.312,0.786,0.474c1.101,0.626,2.206,1.451,3.392,2.403c0.559,0.516,1.14,1.052,1.744,1.609
			c0.556,0.603,1.128,1.244,1.718,1.918c0.535,0.711,1.048,1.408,1.531,2.092c0.433,0.712,0.842,1.409,1.225,2.086
			c0.686,1.394,1.262,2.717,1.606,3.996c0.092,0.317,0.181,0.626,0.269,0.929c0.07,0.308,0.119,0.613,0.172,0.91
			c0.102,0.594,0.184,1.16,0.247,1.696c0.037,1.092,0.04,2.061-0.084,2.91c-0.153,0.854-0.353,1.579-0.589,2.179
			c-0.266,0.6-0.601,1.074-0.931,1.43C388.022,985.039,387.285,985.282,386.544,985.177z"/>
	</g>
	<g>
		<path fill="#31353E" d="M810.726,989.312c-0.495,0.024-0.969-0.309-1.381-1.074c-0.202-0.382-0.406-0.873-0.555-1.477
			c-0.126-0.602-0.223-1.318-0.284-2.151c-0.039-0.83,0.021-1.768,0.103-2.825c0.179-1.035,0.31-2.213,0.698-3.444
			c0.319-1.252,0.826-2.57,1.42-3.977c0.339-0.684,0.691-1.396,1.057-2.135c0.423-0.706,0.862-1.439,1.317-2.198
			c0.513-0.719,1.007-1.412,1.484-2.08c0.525-0.627,1.03-1.231,1.515-1.812c1.036-1.103,2.007-2.087,2.987-2.89
			c0.928-0.853,1.909-1.47,2.724-2.082c0.881-0.538,1.65-1.022,2.36-1.393c0.724-0.352,1.352-0.642,1.888-0.874
			c0.549-0.213,1.021-0.346,1.393-0.446c0.75-0.194,1.145-0.197,1.235-0.02c0.09,0.177-0.134,0.518-0.67,1.041
			c-0.266,0.265-0.619,0.56-1.034,0.929c-0.402,0.389-0.88,0.831-1.432,1.325c-0.539,0.512-1.116,1.129-1.781,1.779
			c-0.602,0.727-1.343,1.437-2.017,2.355c-0.723,0.867-1.42,1.885-2.172,2.978c-0.348,0.564-0.709,1.151-1.085,1.762
			c-0.339,0.628-0.69,1.279-1.054,1.954c-0.323,0.692-0.634,1.359-0.934,2.002c-0.264,0.655-0.519,1.285-0.763,1.891
			c-0.43,1.232-0.838,2.354-1.129,3.409c-0.359,1.036-0.53,2.013-0.815,2.87c-0.187,0.874-0.418,1.65-0.607,2.343
			c-0.165,0.694-0.352,1.3-0.554,1.822c-0.179,0.522-0.347,0.959-0.551,1.313C811.688,988.913,811.22,989.288,810.726,989.312z"/>
	</g>
	<g>
		<path fill="#31353E" d="M806.576,957.315c-0.26-0.275-0.07-1.006,0.905-2.087c0.973-1.059,2.767-2.495,5.707-3.58
			c2.954-1.047,5.252-1.092,6.676-0.9c1.441,0.207,2.055,0.648,2.031,1.025c-0.024,0.413-0.666,0.696-1.944,1.004
			c-1.276,0.323-3.212,0.661-5.786,1.572c-2.561,0.947-4.266,1.925-5.453,2.494C807.532,957.424,806.859,957.617,806.576,957.315z"
			/>
	</g>
	<g>
		<path fill="#31353E" d="M552.326,1069.173c-0.123,0.384-2.87-0.131-8.676-1.658c-5.809-1.52-14.675-4.058-27.098-7.543
			c-12.427-3.469-21.323-5.901-27.078-7.616c-5.756-1.708-8.372-2.693-8.277-3.085c0.092-0.379,2.877-0.092,8.771,1.115
			c5.892,1.214,14.896,3.341,27.358,6.82c12.458,3.494,21.258,6.348,26.924,8.369
			C549.915,1067.601,552.445,1068.802,552.326,1069.173z"/>
	</g>
	<g>
		<path fill="#31353E" d="M737.309,1042.142c0.095,0.395-4.917,1.939-15.852,4.885c-10.948,2.891-27.78,7.337-51.333,13.557
			c-23.53,6.305-40.346,10.811-51.284,13.741c-10.953,2.876-16.069,4.027-16.183,3.637c-0.109-0.372,4.805-2.212,15.623-5.59
			c10.82-3.369,27.544-8.286,51.106-14.565c23.567-6.258,40.523-10.301,51.587-12.753
			C732.041,1042.61,737.219,1041.765,737.309,1042.142z"/>
	</g>
	<g>
		<path fill="#31353E" d="M641.684,1104.292c-0.163,0.674-0.567,1.246-1.273,1.63c-0.352,0.189-0.783,0.344-1.285,0.42
			c-0.496,0.061-1.069,0.061-1.718-0.009c-0.642-0.084-1.342-0.278-2.116-0.535c-0.741-0.316-1.588-0.654-2.414-1.197
			c-0.854-0.501-1.711-1.163-2.599-1.921c-0.428-0.399-0.865-0.822-1.31-1.265c-0.422-0.468-0.849-0.962-1.283-1.475
			c-0.406-0.541-0.79-1.063-1.149-1.568c-0.326-0.528-0.639-1.037-0.941-1.526c-0.546-1.011-1.012-1.944-1.352-2.838
			c-0.381-0.868-0.592-1.718-0.826-2.443c-0.174-0.757-0.331-1.418-0.424-2.01c-0.079-0.599-0.134-1.112-0.168-1.547
			c-0.019-0.44-0.001-0.809,0.021-1.1c0.05-0.584,0.163-0.875,0.355-0.924c0.192-0.048,0.448,0.151,0.797,0.592
			c0.177,0.219,0.365,0.502,0.6,0.836c0.25,0.329,0.529,0.715,0.836,1.156c0.329,0.423,0.7,0.902,1.117,1.439
			c0.465,0.501,0.899,1.087,1.483,1.653c0.542,0.592,1.189,1.183,1.869,1.815c0.354,0.3,0.722,0.612,1.104,0.936
			c0.392,0.302,0.799,0.615,1.221,0.94c0.431,0.301,0.847,0.592,1.247,0.872c0.415,0.257,0.805,0.508,1.172,0.756
			c0.755,0.455,1.449,0.873,2.084,1.256c0.617,0.409,1.213,0.703,1.704,1.074c0.519,0.309,0.958,0.652,1.348,0.973
			c0.395,0.306,0.724,0.631,0.995,0.969c0.275,0.323,0.496,0.641,0.657,0.98C641.758,1102.907,641.847,1103.618,641.684,1104.292z"
			/>
	</g>
	<g>
		<path fill="#31353E" d="M467.909,1076.001c-0.217-0.347,0.083-0.925,0.869-1.826c0.78-0.91,2.06-2.141,3.646-4.039
			c1.565-1.916,2.532-3.405,3.279-4.343c0.736-0.942,1.248-1.346,1.629-1.198c0.358,0.137,0.516,0.812,0.201,2.079
			c-0.322,1.253-1.125,3.126-2.895,5.292c-1.792,2.147-3.481,3.289-4.651,3.841C468.804,1076.355,468.111,1076.327,467.909,1076.001
			z"/>
	</g>
	<g>
		<path fill="#31353E" d="M556.513,870.02c0.025-0.41,4.834-0.422,15.201-0.219c2.59,0.045,5.528,0.095,8.826,0.152
			c3.296,0.003,6.952,0.106,10.975,0.06c2.011-0.02,4.116,0.005,6.313-0.044c2.195-0.049,4.484-0.099,6.87-0.152
			c2.38-0.106,4.857-0.216,7.43-0.331c2.569-0.149,5.229-0.37,7.99-0.556c2.754-0.248,5.401-0.552,7.956-0.803
			c2.545-0.32,4.983-0.689,7.333-1.002c4.672-0.778,8.966-1.513,12.836-2.443c0.972-0.214,1.922-0.422,2.849-0.626
			c0.929-0.198,1.811-0.48,2.685-0.704c1.746-0.466,3.404-0.908,4.977-1.327c1.557-0.467,3.013-0.961,4.4-1.389
			c1.377-0.452,2.704-0.801,3.901-1.246c2.394-0.889,4.484-1.631,6.279-2.234c1.769-0.658,3.207-1.256,4.392-1.648
			c2.358-0.81,3.606-1.017,3.789-0.677c0.183,0.34-0.717,1.196-2.832,2.599c-1.063,0.688-2.405,1.568-4.108,2.487
			c-1.729,0.864-3.784,1.846-6.179,2.95c-1.198,0.552-2.528,1-3.922,1.544c-1.402,0.519-2.881,1.097-4.469,1.639
			c-1.606,0.481-3.3,0.988-5.083,1.521c-0.896,0.252-1.803,0.559-2.754,0.779c-0.951,0.223-1.925,0.451-2.921,0.685
			c-3.976,0.999-8.383,1.758-13.179,2.514c-2.407,0.302-4.908,0.649-7.513,0.935c-2.61,0.217-5.316,0.477-8.125,0.669
			c-2.811,0.13-5.521,0.289-8.132,0.371c-2.61,0.04-5.122,0.079-7.536,0.116c-2.412-0.029-4.727-0.058-6.946-0.085
			c-2.218-0.032-4.337-0.141-6.363-0.207c-4.054-0.126-7.719-0.406-11.027-0.59c-3.302-0.25-6.244-0.468-8.831-0.7
			C561.242,871.116,556.489,870.399,556.513,870.02z"/>
	</g>
	<g>
		<path fill="#31353E" d="M608.61,847.588c0.016,0.378-1.788,0.864-5.752,1.341c-1.983,0.228-4.506,0.458-7.612,0.586
			c-1.553,0.073-3.251,0.105-5.099,0.119c-1.848,0.001-3.845-0.034-5.995-0.121c-2.149-0.099-4.143-0.236-5.985-0.406
			c-1.841-0.183-3.531-0.379-5.07-0.618c-3.081-0.459-5.561-1.026-7.485-1.604c-3.849-1.169-5.457-2.411-5.263-3.316
			c0.2-0.936,2.145-1.343,6.061-1.092c1.961,0.116,4.417,0.401,7.422,0.789c3.006,0.4,6.568,0.873,10.721,1.426
			c2.083,0.254,4.02,0.479,5.817,0.678c1.8,0.183,3.456,0.352,4.971,0.506c3.045,0.281,5.527,0.511,7.486,0.692
			C606.754,846.928,608.592,847.178,608.61,847.588z"/>
	</g>
	<path fill="#84C5C1" d="M919.032,1048.435c-6.835,9.245-16.829,15.306-27.908,19.704c-7.739-7.171-12.585-17.423-12.585-28.803
		c0-11.69,5.105-22.192,13.214-29.38c6.981,0.766,13.722,2.608,19.971,5.991c5.518,2.987,10.571,7.403,12.275,13.214
		C925.927,1035.746,923.172,1042.84,919.032,1048.435z"/>
	<path fill="#D2D4BB" d="M776.938,290.151c6.549,0.567,13.228,1.495,19.055,4.538c5.827,3.043,10.719,8.589,11.348,15.133
		c0.119,1.234,0.026,2.629-0.877,3.48c-1.067,1.006-2.755,0.813-4.192,0.517c-4.97-1.025-9.836-2.496-14.779-3.646
		c-20.72-4.822-42.418-3.901-63.407-0.436c-20.99,3.465-41.473,9.418-62.092,14.659c-3.137,0.797-13.424,3.332-11.871-3.427
		c0.76-3.308,12.937-7.857,15.875-9.335c11.42-5.743,23.375-10.416,35.653-13.971C726.011,290.609,751.663,287.963,776.938,290.151z
		"/>
	<path fill="#D2D4BB" d="M458.408,286.847c-17.446-4.533-35.486-7.841-53.443-6.264c-17.957,1.577-35.969,8.485-48.144,21.778
		c-1.705,1.861-3.347,3.967-3.718,6.464c-0.371,2.497,1.004,5.414,3.478,5.915c1.587,0.321,3.181-0.378,4.659-1.04
		c24.191-10.841,50.886-16.044,77.377-15.081c14.797,0.538,29.457,2.978,43.833,6.449c8.69,2.098,29.815,12.94,38.027,9.524
		c11.299-4.699-16.608-12.863-21.377-14.693C485.794,294.793,472.202,290.431,458.408,286.847z"/>
	<path fill="#D2D4BB" d="M831.924,203.521c-1.463-1.248-2.944-2.488-4.433-3.693c-32.35-26.221-72.413-41.699-113.32-49.506
		c-40.898-7.799-82.838-8.272-124.459-7.033c-14.824,0.448-29.879,1.076-44.238-2.582c-4.235-1.076-9.039-3.254-9.796-7.558
		c-0.603-3.392,1.661-6.603,4.08-9.056c10.58-10.752,25.79-15.409,40.545-18.56c37.567-8.014,76.235-8.858,114.637-9.667
		c0.215-10.752-12.49-16.442-22.993-18.732c-72.981-15.917-151.618-4.321-216.895,31.971
		c-50.703,28.192-92.995,71.087-121.067,121.825c8.273-25.515,20.514-49.326,36.026-70.743C418.217,93.55,498.016,50,588.3,50
		C696.937,50,790.398,113.064,831.924,203.521z"/>
	<path fill="#D2D4BB" d="M580.928,517.814c-0.689,0.796-1.697,1.785-1.162,2.692c0.423,0.717,1.547,0.635,2.195,0.112
		c0.648-0.523,0.995-1.321,1.49-1.99c1.161-1.566,3.248-2.386,5.165-2.028c2.666,0.498,4.535,2.932,7.047,3.953
		c0.435,0.177,0.912,0.311,1.369,0.205c0.76-0.176,1.237-0.988,1.278-1.767c0.041-0.779-0.257-1.533-0.562-2.251
		c-0.849-2.001-1.794-3.961-2.832-5.871c-1.085-1.995-2.378-4.037-4.414-5.041C583.069,502.164,583.701,514.611,580.928,517.814z"/>
	<path fill="#D2D4BB" d="M700.995,523.553c1.359-0.464,2.771-0.962,4.196-0.785c1.425,0.177,2.852,1.274,2.865,2.711
		c0.009,1.026-0.674,1.92-1.391,2.655c-5.621,5.764-14.413,6.693-22.443,7.283c-3.379,0.248-6.758,0.497-10.137,0.745
		c-2.549,0.187-12.425,1.511-13.704-1.594c-1.858-4.512,5.257-5.128,7.639-5.297C679.372,528.467,690.143,527.256,700.995,523.553z"
		/>
	<path fill="#D2D4BB" d="M502.016,527.26c-1.944-0.072-4.326,0.133-5.154,1.893c3.284,4.14,9.187,4.85,14.457,5.237
		c6.818,0.502,13.728,0.977,20.536,0.095c2.118-0.274,16.948-2.823,13.826-6.975c-1.275-1.696-7.328,0.263-9.302,0.435
		c-3.627,0.317-7.27,0.394-10.909,0.357C517.642,528.223,509.837,527.549,502.016,527.26z"/>
	<g>
		<path fill="#31353E" d="M290.48,1034.164c-0.132,0.119-0.619-0.047-1.221-0.838c-0.597-0.778-1.226-2.241-1.25-4.291
			c-0.014-1.024,0.124-2.149,0.348-3.336c0.219-1.193,0.514-2.418,0.68-3.711c0.179-1.315,0.275-2.794,0.38-4.47
			c0.1-1.678,0.265-3.575,0.535-5.568c0.545-4.002,1.364-7.388,2.262-10.172c0.897-2.786,1.869-4.974,2.788-6.619
			c1.846-3.295,3.409-4.429,4.235-4.023c0.863,0.421,0.833,2.263-0.085,5.709c-0.455,1.727-1.115,3.868-1.902,6.498
			c-0.785,2.629-1.694,5.752-2.538,9.464c-0.42,1.865-0.756,3.574-1.059,5.24c-0.309,1.666-0.631,3.259-1.06,4.715
			c-0.43,1.481-0.955,2.7-1.352,3.743c-0.406,1.044-0.706,1.947-0.88,2.739c-0.35,1.595-0.221,2.797-0.054,3.58
			C290.472,1033.614,290.644,1034.027,290.48,1034.164z"/>
	</g>
	<g>
		<path fill="#31353E" d="M326.803,1011.63c0.221,0.787-2.873,2.145-9.149,5.936c-3.119,1.914-5.295,3.26-6.967,3.828
			c-1.655,0.582-2.791,0.417-3.366-0.341c-0.562-0.741-0.423-1.934,0.84-3.357c1.254-1.416,3.656-3.057,7.388-4.484
			c3.74-1.403,6.575-1.844,8.416-1.996C325.816,1011.082,326.707,1011.26,326.803,1011.63z"/>
	</g>
	<g>
		<path fill="#31353E" d="M281.146,1046.089c-0.043,0.171-0.704,0.246-1.82-0.354c-0.55-0.296-1.175-0.771-1.844-1.372
			c-0.663-0.598-1.407-1.29-2.268-2.128c-0.857-0.836-1.818-1.81-2.849-2.972c-1.028-1.166-2.131-2.525-3.194-4.173
			c-1.058-1.65-2.041-3.554-2.907-5.679c-0.866-2.124-1.619-4.463-2.307-6.966c-1.37-4.986-2.229-9.391-2.634-13.173
			c-0.193-1.892-0.295-3.621-0.296-5.186c-0.008-1.564,0.078-2.961,0.211-4.186c0.142-1.226,0.335-2.279,0.559-3.165
			c0.224-0.886,0.483-1.603,0.731-2.16c0.535-1.113,1.05-1.589,1.514-1.519c0.464,0.07,0.835,0.677,1.072,1.819
			c0.137,0.574,0.235,1.282,0.33,2.131c0.094,0.85,0.182,1.84,0.272,2.979c0.098,1.136,0.208,2.425,0.332,3.871
			c0.129,1.445,0.305,3.047,0.514,4.814c0.439,3.534,1.102,7.735,2.099,12.646c0.972,4.891,2.141,8.872,3.675,11.976
			c1.537,3.101,3.311,5.489,4.667,7.402c0.685,0.96,1.278,1.792,1.783,2.5c0.488,0.697,0.894,1.227,1.25,1.62
			C280.741,1045.597,281.215,1045.885,281.146,1046.089z"/>
	</g>
	<g>
		<path fill="#31353E" d="M885.191,1006.689c-0.812-0.045-1.149-2.692-2.815-7.938c-0.853-2.607-1.448-4.396-1.482-5.754
			c-0.051-1.344,0.419-2.253,1.277-2.666c0.837-0.404,1.903-0.194,2.88,0.997c0.971,1.177,1.84,3.364,2.082,6.545
			c0.215,3.182-0.242,5.434-0.666,6.839C886.019,1006.123,885.572,1006.72,885.191,1006.689z"/>
	</g>
	<g>
		<path fill="#31353E" d="M908.677,1015.177c-0.189-0.061-0.287-0.399-0.308-1.024c-0.013-0.313,0.006-0.695,0.022-1.154
			c0.001-0.464,0.016-1.001,0.046-1.612c0.005-0.61,0.011-1.301,0.018-2.077c-0.052-0.776-0.021-1.62-0.123-2.551
			c-0.052-0.928-0.186-1.934-0.325-3.017c-0.092-0.537-0.187-1.096-0.287-1.678c-0.125-0.573-0.255-1.167-0.389-1.784
			c-0.162-0.607-0.318-1.192-0.469-1.756c-0.173-0.555-0.339-1.089-0.499-1.602c-0.358-1.012-0.67-1.944-1.007-2.779
			c-0.291-0.854-0.65-1.587-0.885-2.295c-0.296-0.676-0.515-1.308-0.713-1.869c-0.211-0.553-0.364-1.058-0.463-1.515
			c-0.112-0.448-0.186-0.838-0.196-1.188c-0.025-0.696,0.161-1.204,0.533-1.49c0.372-0.286,0.897-0.321,1.578-0.033
			c0.338,0.146,0.725,0.365,1.13,0.685c0.392,0.328,0.817,0.747,1.273,1.262c0.442,0.522,0.877,1.161,1.349,1.892
			c0.41,0.76,0.907,1.594,1.286,2.584c0.425,0.972,0.774,2.078,1.113,3.288c0.137,0.613,0.279,1.25,0.427,1.912
			c0.099,0.67,0.202,1.365,0.309,2.085c0.055,0.725,0.108,1.423,0.158,2.096c0.004,0.673,0.009,1.321,0.013,1.944
			c-0.055,1.245-0.134,2.38-0.301,3.41c-0.117,1.031-0.372,1.95-0.542,2.772c-0.239,0.816-0.445,1.536-0.672,2.157
			c-0.243,0.618-0.465,1.145-0.665,1.585c-0.216,0.437-0.428,0.783-0.604,1.053C909.127,1015.018,908.866,1015.239,908.677,1015.177
			z"/>
	</g>
	<g>
		<path fill="#31353E" d="M923.593,1024.241c-0.138-0.142-0.092-0.465,0.131-0.981c0.109-0.26,0.273-0.559,0.463-0.922
			c0.179-0.373,0.398-0.798,0.658-1.273c0.238-0.485,0.508-1.035,0.811-1.651c0.253-0.641,0.601-1.299,0.87-2.082
			c0.31-0.759,0.579-1.612,0.873-2.525c0.127-0.462,0.258-0.944,0.395-1.443c0.112-0.503,0.228-1.024,0.348-1.565
			c0.093-0.543,0.183-1.066,0.27-1.571c0.065-0.505,0.127-0.991,0.186-1.458c0.081-0.937,0.173-1.792,0.206-2.579
			c0.081-0.786,0.057-1.499,0.133-2.149c0.01-0.645,0.071-1.23,0.123-1.752c0.037-0.519,0.108-0.982,0.208-1.389
			c0.084-0.404,0.18-0.749,0.315-1.041c0.266-0.583,0.643-0.947,1.098-1.065c0.454-0.118,0.944,0.025,1.442,0.496
			c0.247,0.236,0.507,0.552,0.744,0.959c0.221,0.41,0.436,0.908,0.639,1.499c0.188,0.592,0.322,1.279,0.452,2.058
			c0.064,0.779,0.173,1.654,0.115,2.612c-0.011,0.961-0.142,2.003-0.325,3.125c-0.124,0.554-0.252,1.131-0.386,1.73
			c-0.18,0.585-0.366,1.193-0.56,1.823c-0.241,0.611-0.473,1.201-0.697,1.768c-0.265,0.548-0.519,1.075-0.764,1.582
			c-0.544,0.986-1.065,1.871-1.621,2.631c-0.513,0.783-1.1,1.414-1.576,2.003c-0.532,0.553-0.997,1.042-1.44,1.44
			c-0.456,0.389-0.856,0.712-1.204,0.975c-0.359,0.253-0.679,0.433-0.938,0.568C924.043,1024.33,923.731,1024.383,923.593,1024.241z
			"/>
	</g>
</g>
</svg>
