<?xml version="1.0" encoding="utf-8"?>
<!-- Designed by Vexels.com - 2020 All Rights Reserved - https://vexels.com/terms-and-conditions/  -->
<svg version="1.1" id="Layer_1" xmlns="http://www.w3.org/2000/svg" xmlns:xlink="http://www.w3.org/1999/xlink" x="0px" y="0px"
	 viewBox="0 0 1200 1200" enable-background="new 0 0 1200 1200" xml:space="preserve">
<g>
	<path fill="#8AABBE" d="M772.547,279.806c35.608,19.205,65.455,49.578,104.063,61.669c55.906,17.509,116.506-7.128,174.707-0.441
		c31.311,3.598,61.492,16.518,85.708,36.691c2.339,1.948,4.749,4.166,5.424,7.134c0.719,3.163-0.702,6.373-2.032,9.332
		c-18.379,40.905-25.308,86.884-19.8,131.389c2.36,19.067,6.939,37.802,9.422,56.853c5.125,39.331,1.216,79.398-6.837,118.236
		c-37.199-37.608-88.557-60.866-141.361-64.016c-56.335-3.36-113.531,15.206-168.701,3.32
		c-37.587-8.098-70.628-29.623-105.389-46.055c-34.761-16.432-75.181-27.944-111.308-14.783c2.302-0.839,2.997-44.413,3.408-48.923
		c1.517-16.653,3.35-33.276,5.321-49.881c3.987-33.586,8.577-67.099,12.382-100.708c3.656-32.299,3.143-65.686,7.779-97.727
		c3.539-24.458,28.373-24.646,48.899-25.214C708.256,255.739,742.563,263.635,772.547,279.806z"/>
	<path fill="#BABBA7" d="M559.65,681.661c7.127,2.528,14.634,3.789,22.122,4.847c3.491,0.493,7.271,0.896,10.347-0.826
		c2.152-1.204,3.653-3.298,4.883-5.436c2.433-4.228,4.112-9.093,3.557-13.94c-0.145-1.266-0.459-2.555-1.229-3.571
		c-0.634-0.836-1.532-1.428-2.427-1.977c-10.729-6.581-24.002-9.334-36.233-6.365c-6.424,1.56-18.148,4.155-17.826,12.73
		C543.154,675.38,553.132,679.349,559.65,681.661z"/>
	<path fill="#31353E" d="M535.394,1142.182L535.394,1142.182c3.588,0.394,6.817-2.196,7.21-5.785l105.281-959.903
		c0.394-3.588-2.196-6.816-5.785-7.21h0c-3.588-0.394-6.816,2.196-7.21,5.785L529.61,1134.971
		C529.216,1138.56,531.806,1141.788,535.394,1142.182z"/>
	<path fill="#BABBA7" d="M580.748,675.858c-0.927,4.28-0.184,8.599,0.561,12.826c0.133,0.753,0.29,1.551,0.896,2.094
		c0.609,0.545,1.549,0.72,2.441,0.837c6.456,0.84,13.353-0.195,19.297-2.894c2.151-0.977,4.486-3.062,3.274-4.742
		c-0.354-0.491-0.98-0.841-1.159-1.403c-0.291-0.91,0.7-1.774,1.522-2.469c3.453-2.919,5.492-6.997,5.505-11.012
		c0.004-1.212-0.167-2.426,0.076-3.632c0.361-1.791,1.601-3.407,2.186-5.165c1.294-3.889-0.933-8.055-4.657-10.315
		c-6.461-3.921-20.809-3.662-26.816,2.009c-2.459,2.322-3.202,5.82-3.245,8.756c-0.037,2.491,1.091,4.553,1.388,6.964
		C582.366,670.533,581.352,673.071,580.748,675.858z"/>
	<path fill="#BABBA7" d="M589.432,663.625c3.071-1.897,7.245-4.115,9.875-1.642c1.167,1.097,1.519,2.785,1.811,4.36
		c0.647,3.49,1.294,6.981,1.941,10.471c0.168,0.905,0.355,1.852,0.939,2.563c1.293,1.571,3.986,1.155,5.389-0.318
		s1.841-3.597,2.155-5.608c1.431-9.155,1.547-18.515,0.342-27.702c-0.374-2.855-1.23-6.159-3.899-7.239
		c-1.534-0.62-3.262-0.306-4.9-0.071c-10.178,1.459-20.484-0.557-30.724-1.495c-10.494-0.962-22.608-0.772-31.388,5.906
		c-6.23,4.739-11.918,14.464-6.949,21.93C544.257,680.154,577.264,671.142,589.432,663.625z"/>
	
		<ellipse transform="matrix(0.2718 -0.9624 0.9624 0.2718 -236.0485 985.3956)" fill="#E57E55" cx="533.109" cy="648.675" rx="31.589" ry="24.585"/>
	<path fill="#FCBE7D" d="M423.772,568.607c26.216,26.925,57.624,49.622,93.412,61.085c8.39,2.688,18.575,6.453,19.826,15.174
		c0.524,3.651-0.836,7.398-3.085,10.322c-5.185,6.742-14.559,9.14-22.996,8.067c-8.437-1.073-16.189-5.066-23.664-9.123
		c-38.838-21.082-76.094-46.041-106.112-78.472c-11.751-12.695-28.823-29.066-35.114-45.181c-3.702-9.482-3.658-27.067,2.523-36.605
		c7.995-12.336,16.871,0.195,21.799,7.418C386.512,524.969,403.745,548.038,423.772,568.607z"/>
	<path fill="#31353E" d="M248.246,1131.979c-0.066,1.359,0.054,2.81-0.667,3.964c-0.842,1.348-2.466,1.953-3.99,2.405
		c-5.288,1.567-10.766,2.37-16.223,3.169l-57.764,8.453c-2.804,0.41-4.207-3.289-1.829-4.831c0.023-0.015,0.047-0.03,0.07-0.046
		c15.643-10.124,31.275-20.264,46.897-30.421c1.387-0.902,2.829-1.862,3.625-3.313c0.976-1.78,0.794-3.943,0.6-5.963
		c-0.948-9.901-1.528-19.837-1.738-29.781c-0.053-2.523-0.061-5.047-0.089-7.57c-0.042-3.807-0.102-4.109,3.245-5.581
		c3.33-1.465,14.606-5.778,18.247-5.237c8.349,1.241,7.68,29.418,8.457,40.275C247.917,1109.069,248.883,1118.8,248.246,1131.979z"
		/>
	
		<ellipse transform="matrix(0.9327 -0.3606 0.3606 0.9327 -364.3912 153.4803)" fill="#E57E55" cx="229.069" cy="1053.16" rx="29.095" ry="22.851"/>
	<path fill="#31353E" d="M296.357,1131.979c0.066,1.359-0.054,2.81,0.667,3.964c0.842,1.348,2.466,1.953,3.99,2.405
		c5.288,1.567,10.766,2.37,16.223,3.169l57.764,8.453c2.804,0.41,4.207-3.289,1.829-4.831c-0.023-0.015-0.047-0.03-0.07-0.046
		c-15.643-10.124-31.275-20.264-46.897-30.421c-1.387-0.902-2.829-1.862-3.625-3.313c-0.976-1.78-0.794-3.943-0.6-5.963
		c0.948-9.901,1.528-19.837,1.738-29.781c0.053-2.523,0.061-5.047,0.089-7.57c0.042-3.807,0.102-4.109-3.245-5.581
		c-3.329-1.465-14.606-5.778-18.247-5.237c-8.349,1.241-7.68,29.418-8.457,40.275C296.686,1109.069,295.72,1118.8,296.357,1131.979z
		"/>
	
		<ellipse transform="matrix(0.3606 -0.9327 0.9327 0.3606 -780.5478 967.6548)" fill="#E57E55" cx="315.534" cy="1053.16" rx="22.851" ry="29.095"/>
	<path fill="#FCBE7D" d="M241.049,1049.01c-2.165,5.378-8.306,5.743-14.455,6.261c-4.044,0.345-7.138-1.235-8.838-4.92
		c-1.706-3.692-2.184-7.808-2.643-11.839c-2.623-23.1-5.252-46.199-7.875-69.299c-1.766-15.517-3.526-31.034-5.292-46.545
		c-1.215-10.69-2.43-21.38-3.645-32.07c-1.726-15.225-3.459-30.45-5.186-45.674c-1.567-13.777-3.134-27.555-4.701-41.332
		c-0.863-7.596-4.648-21.692,1.208-28.365c6.321-7.191,18.386-0.923,24.355,3.765c0.232,0.179,0.458,0.365,0.684,0.551
		c7.629,6.294,12.722,15.444,15.431,24.846c3.758,13.014,3.546,26.798,3.486,40.343c-0.007,1.494-0.007,2.981-0.007,4.469
		c-0.093,60.992,3.473,121.952,7.828,182.791C241.812,1037.775,243.22,1043.625,241.049,1049.01z"/>
	<path fill="#FCBE7D" d="M356.188,803.592c-1.567,13.777-3.134,27.555-4.701,41.332c-1.726,15.225-3.459,30.45-5.192,45.674
		c-1.049,9.222-2.091,18.445-3.147,27.674c-1.706,15.092-3.426,30.184-5.139,45.276c-2.842,24.985-5.677,49.971-8.519,74.962
		c-0.458,4.03-0.936,8.147-2.643,11.839c-1.7,3.685-4.794,5.265-8.838,4.92c-6.148-0.518-12.29-0.883-14.461-6.261
		c-2.165-5.385-0.757-11.234-0.345-17.018c4.336-60.554,7.888-121.228,7.835-181.935c0-1.773-0.007-3.546-0.013-5.325
		c-0.06-13.545-0.272-27.329,3.486-40.343c2.789-9.681,8.107-19.096,16.115-25.397c1.096-0.863,2.463-2.317,4.01-4.077
		c6.819-7.795,17.031-21.526,22.19-15.65C362.682,765.932,357.051,795.996,356.188,803.592z"/>
	<path fill="#31353E" d="M230.093,804.389c3.758,13.014,3.546,26.798,3.486,40.343c-0.007,1.494-0.007,2.981-0.007,4.469
		c-0.398-0.226-0.797-0.458-1.195-0.697c-4.867-2.954-9.096-6.839-13.107-10.876c-7.018-7.078-13.625-14.986-16.739-24.454
		c-3.114-9.475-2.111-20.829,4.694-28.106c2.125-2.271,4.694-4.05,7.436-5.524C222.292,785.837,227.384,794.987,230.093,804.389z"/>
	<path fill="#31353E" d="M348.977,797.092c-5.989,12.688-12.051,25.503-20.676,36.578c-4.874,6.261-10.677,11.978-17.263,16.387
		c0-1.773-0.007-3.546-0.013-5.325c-0.06-13.545-0.272-27.329,3.486-40.343c2.789-9.681,8.107-19.096,16.115-25.397
		c1.096-0.863,2.463-2.317,4.01-4.077c2.696,1.434,5.292,3.041,7.782,4.834L348.977,797.092z"/>
	<path fill="#FCBE7D" d="M126.414,543.021c-8.599,9.711-17.203,19.428-25.273,29.583c-14.302,17.995-26.902,37.343-37.578,57.7
		c-3.907,7.45-7.657,15.837-5.642,24.004c1.329,5.389,5.037,9.891,9.17,13.597c8.655,7.762,19.389,12.755,30.033,17.431
		c10.305,4.526,20.693,8.861,31.158,13.004c1.987,0.787,4.069,1.58,6.197,1.381c5.183-0.485,7.928-6.219,9.667-11.126
		c1.136-3.205,2.263-6.804,0.857-9.901c-1.117-2.46-3.574-3.985-5.898-5.364c-10.903-6.471-21.806-12.943-32.709-19.414
		c-2.506-1.487-5.085-3.04-6.794-5.4c-2.788-3.849-2.698-9.207-0.972-13.635c1.727-4.428,4.86-8.139,7.939-11.76
		c28.287-33.269,56.574-66.537,84.861-99.806c4.256-5.006,8.563-10.089,11.365-16.032c2.802-5.944,3.967-12.953,1.703-19.121
		c-2.229-6.072-10.677-13.656-17.812-12.054c-6.081,1.365-11.821,12.199-15.759,16.646
		C156.088,509.508,141.251,526.264,126.414,543.021z"/>
	
		<ellipse transform="matrix(0.5 -0.866 0.866 0.5 -526.9686 459.7683)" fill="#E57E55" cx="134.687" cy="686.252" rx="29.095" ry="22.851"/>
	<path fill="#BABBA7" d="M133.324,685.214c-1.357,2.687-2.733,5.435-3.153,8.416c-1.085,7.701,4.289,14.66,9.337,20.576
		c3.962,4.643,7.923,9.286,11.885,13.93c1.008,1.181,2.07,2.813,1.291,4.156c-0.531,0.916-1.68,1.212-2.666,1.597
		c-3.498,1.365-6.002,4.964-6.067,8.719c-0.064,3.755,2.315,7.437,5.764,8.922c5.371,2.312,11.431-0.633,16.525-3.506
		c5.082-2.866,10.165-5.732,15.247-8.598c5.473-3.086,11.185-6.399,14.437-11.775c2.856-4.722,3.438-10.429,3.952-15.923
		c0.384-4.11,0.612-8.736-2.114-11.836c-1.275-1.45-3.042-2.355-4.764-3.227c-11.313-5.725-22.66-11.474-34.533-15.968
		C147.278,676.464,139.697,672.594,133.324,685.214z"/>
	<path fill="#E57E55" d="M179.362,548.737c1.611,2.756,3.419,5.528,6.091,7.275c2.672,1.747,6.429,2.21,8.984,0.297
		c1.564-1.171,2.453-3.016,3.21-4.817c8.591-20.458,7.253-43.619,4.375-65.62c-1.062-8.115-2.426-16.506-6.997-23.295
		c-4.483-6.657-15.816-13.723-23.402-7.716c-7.086,5.611-7.133,20.744-7.601,28.915C162.732,506.295,167.96,529.235,179.362,548.737
		z"/>
	<path fill="#E57E55" d="M349.783,548.737c-1.611,2.756-3.419,5.528-6.091,7.275c-2.672,1.747-6.429,2.21-8.984,0.297
		c-1.564-1.171-2.453-3.016-3.21-4.817c-8.591-20.458-7.253-43.619-4.375-65.62c1.062-8.115,2.426-16.506,6.997-23.295
		c4.483-6.657,15.816-13.723,23.402-7.716c7.086,5.611,7.133,20.744,7.601,28.915C366.413,506.295,361.185,529.235,349.783,548.737z
		"/>
	<path fill="#FCBE7D" d="M353.552,792.617c-4.369,12.808-9.581,20.67-20.669,28.425c-12.748,8.91-30.344,14.375-45.894,14.395
		c-15.351,0.013-30.775,0.027-45.954-2.257c-12.377-1.866-24.833-5.405-34.845-12.914c-21.758-16.327-26.712-46.491-28.87-73.615
		c-0.737-9.256-1.355-18.518-1.833-27.794c-1.122-21.413-1.567-42.866-1.334-64.312c0.027-2.895,0.073-5.783,0.126-8.678
		c0.83-43.198,3.499-87.452,10.179-130.583c1.853-12.024,4.024-23.963,6.553-35.768c9.216-43.005,71.244-42.66,105.253-33.557
		c7.842,2.098,15.637,4.993,22.011,10.026c12.204,9.634,17.23,25.231,20.53,40.715c0.538,2.504,1.023,5.006,1.494,7.483
		c7.842,41.558,11.075,83.667,16.347,125.63c0.85,6.772,1.713,13.578,2.543,20.397c2.47,20.304,4.615,40.755,5.099,61.032
		C364.946,738.948,362.503,766.343,353.552,792.617z"/>
	<path fill="#31353E" d="M338.805,496.697c-13.758,13.16-29.095,24.68-45.555,34.235c-7.908,4.588-17.297,11.062-26.499,12.151
		c-9.82,1.162-20.683,0.319-30.091-2.696c-5.471-1.759-10.663-4.263-15.842-6.759c-5.079-2.45-10.159-4.9-15.238-7.35
		c-7.131-3.439-14.328-6.925-21.121-10.995c1.853-12.024,4.024-23.963,6.553-35.768c9.216-43.005,71.244-42.66,105.253-33.557
		c7.842,2.098,15.637,4.993,22.011,10.026C330.479,465.617,335.505,481.214,338.805,496.697z"/>
	<path fill="#E2DED0" d="M291.711,528.85c22.004-21.796,44.11-43.71,62.394-68.708c8.224-11.244,15.85-23.645,17.269-37.502
		c0.476-4.647,0.18-9.557-2.108-13.631c-1.809-3.221-4.745-5.692-7.954-7.523c-7.725-4.41-16.89-5.333-25.752-6.098
		c-50.835-4.388-102.826-6.537-152.144,6.549c-6.985,1.853-14.022,4.07-19.927,8.235c-5.906,4.165-10.596,10.598-11.057,17.809
		c-0.392,6.136,2.233,12.021,4.884,17.569c10.545,22.071,22.581,43.71,38.949,61.886c13.542,15.038,29.473,26.137,47.989,34.129
		C263.89,550.041,276.787,543.633,291.711,528.85z"/>
	<path fill="#BABBA7" d="M282.892,452.935c0.073,6.421-0.239,12.841-0.943,19.222c-0.226,2.125-0.498,4.25-0.817,6.361
		c-0.85,5.71-2.204,11.732-6.328,15.769c-4.9,4.801-13.352,5.392-18.87,1.315c-3.957-2.921-5.996-7.383-7.158-12.257
		c-0.777-3.293-1.155-6.772-1.447-10.079c-0.651-7.43-1.295-14.853-1.946-22.283l6.447-16.646
		c6.693-3.645,14.833-7.025,21.659-3.625c3.791,1.892,6.414,5.644,7.769,9.661C282.613,444.39,282.846,448.692,282.892,452.935z"/>
	<path fill="#31353E" d="M282.892,452.935c0.073,6.421-0.239,12.841-0.943,19.222c-5.285,2.317-10.624,4.356-15.789,6.149
		c-5.703,1.985-11.507,3.665-17.383,5.039c-0.777-3.293-1.155-6.772-1.447-10.079c-0.651-7.43-1.295-14.853-1.946-22.283
		l6.447-16.646c6.693-3.645,14.833-7.025,21.659-3.625c3.791,1.892,6.414,5.644,7.769,9.661
		C282.613,444.39,282.846,448.692,282.892,452.935z"/>
	<path fill="#BABBA7" d="M441.341,234.803c0,102.066-141.101,226.255-184.81,226.255c-42.534,0-184.803-124.189-184.803-226.255
		c0-37.401,11.108-72.207,30.211-101.295C134.958,83.212,191.867,50,256.531,50c88.162,0,161.91,61.729,180.361,144.328
		C439.807,207.355,441.341,220.9,441.341,234.803z"/>
	<path fill="#31353E" d="M406.922,272.896c14.391,21.591-4.846,59.692-42.967,85.101s-81.63,20.761-95.082,6.913
		c-10.441-10.747,4.846-59.692,42.967-85.101S392.531,251.305,406.922,272.896z"/>
	<path fill="#31353E" d="M107.179,272.896c-14.391,21.591,4.846,59.692,42.967,85.101s81.63,20.761,95.082,6.913
		c10.441-10.747-4.846-59.692-42.967-85.101S121.57,251.305,107.179,272.896z"/>
	<g>
		<path fill="#31353E" d="M249.155,396.227c-0.769-0.423-1.24-1.171-1.173-2.159c0.056-0.998,0.674-2.222,1.808-3.86
			c1.129-1.641,2.045-2.813,2.677-3.573c0.64-0.758,1.016-1.094,1.277-1.009c0.256,0.084,0.375,0.578,0.394,1.595
			c0.006,1.012-0.064,2.563-0.537,4.637c-0.479,2.074-1.172,3.43-1.98,4.102C250.819,396.64,249.918,396.648,249.155,396.227z"/>
	</g>
	<g>
		<path fill="#31353E" d="M264.672,395.772c-0.652,0.415-1.464,0.447-2.239-0.155c-0.777-0.594-1.503-1.836-2.014-3.758
			c-0.502-1.923-0.564-3.366-0.538-4.304c0.039-0.943,0.187-1.401,0.445-1.475c0.266-0.077,0.615,0.242,1.185,0.948
			c0.564,0.707,1.362,1.793,2.378,3.275c1.023,1.477,1.611,2.559,1.706,3.46C265.698,394.655,265.331,395.353,264.672,395.772z"/>
	</g>
	<path fill="#E57E55" d="M364.289,711.24c-39.925,11.414-82.1,12.211-123.671,12.914c-21.851,0.372-44.234,0.657-65.129-5.299
		c-1.122-21.413-1.567-42.866-1.334-64.312c10.776,0.657,23.292,3.008,28.252,3.22c34.985,1.501,70.062,0.963,104.987-1.607
		c16.998-1.248,34.693-5.179,51.797-5.949C361.659,670.512,363.804,690.962,364.289,711.24z"/>
	<path fill="#E2DED0" d="M280.434,568.603c0,7.204-4.754,13.293-11.294,15.304c-1.487,0.458-3.074,0.704-4.714,0.704
		c-8.838,0-16.002-7.164-16.002-16.008c0-2.151,0.425-4.203,1.202-6.075c2.384-5.823,8.114-9.927,14.8-9.927
		C273.27,552.601,280.434,559.765,280.434,568.603z"/>
	<path fill="#F2A661" d="M296.611,690.958c0,11.813-7.795,21.796-18.519,25.095c-2.439,0.752-5.041,1.154-7.73,1.154
		c-14.491,0-26.239-11.747-26.239-26.249c0-3.528,0.697-6.892,1.971-9.962c3.908-9.548,13.304-16.277,24.268-16.277
		C284.863,664.72,296.611,676.467,296.611,690.958z"/>
	<g>
		<path fill="#31353E" d="M279.494,416.079c0.052,0.127-0.238,0.379-0.905,0.763c-0.334,0.19-0.759,0.421-1.288,0.671
			c-0.533,0.24-1.165,0.51-1.902,0.811c-0.74,0.29-1.592,0.583-2.55,0.916c-0.971,0.286-2.038,0.647-3.244,0.933
			c-2.398,0.623-5.286,1.213-8.694,1.586c-3.409,0.373-6.356,0.422-8.832,0.333c-1.239-0.019-2.36-0.141-3.369-0.209
			c-1.007-0.117-1.903-0.219-2.688-0.342c-0.784-0.135-1.46-0.262-2.032-0.38c-0.571-0.129-1.036-0.263-1.403-0.376
			c-0.734-0.231-1.071-0.413-1.048-0.549c0.023-0.136,0.403-0.211,1.164-0.218c0.381-0.005,0.856,0.016,1.431,0.039
			c0.577,0.013,1.252,0.04,2.029,0.083c0.778,0.028,1.659,0.06,2.649,0.095c0.99-0.004,2.085,0.055,3.293,0.023
			c2.414-0.013,5.275-0.115,8.589-0.478c3.315-0.363,6.13-0.882,8.489-1.392c1.186-0.23,2.243-0.525,3.21-0.735
			c0.958-0.249,1.812-0.47,2.566-0.666c0.749-0.21,1.403-0.383,1.963-0.52c0.557-0.147,1.016-0.27,1.388-0.347
			C279.054,415.96,279.442,415.951,279.494,416.079z"/>
	</g>
	<g>
		<path fill="#31353E" d="M420.947,245.375c-0.207,0.016-0.451-0.387-0.725-1.206c-0.278-0.818-0.633-2.05-1.125-3.684
			c-0.52-1.628-1.19-3.662-2.223-6.018c-0.503-1.183-1.137-2.425-1.851-3.742c-0.76-1.289-1.589-2.668-2.637-4.01
			c-1.042-1.344-2.243-2.694-3.664-3.94c-0.364-0.298-0.734-0.6-1.11-0.907c-0.401-0.277-0.808-0.557-1.22-0.841
			c-0.206-0.143-0.413-0.287-0.622-0.431c-0.222-0.125-0.446-0.251-0.671-0.377c-0.453-0.248-0.9-0.52-1.373-0.763
			c-1.913-0.937-4.052-1.699-6.391-2.271c-2.341-0.57-4.896-0.88-7.601-1.036c-5.422-0.308-11.474,0.199-18.082,1.038
			c-6.521,0.818-13.506,2.361-20.809,4.775c-7.305,2.418-13.879,5.32-19.784,8.372c-5.919,3.045-11.204,6.168-15.94,9.193
			c-4.735,3.028-8.921,5.96-12.638,8.682c-3.724,2.715-6.942,5.271-9.78,7.524c-5.637,4.556-9.639,8.043-12.28,10.33
			c-1.326,1.138-2.296,1.995-2.965,2.534c-0.666,0.543-1.016,0.785-1.064,0.736c-0.048-0.049,0.209-0.388,0.781-1.029
			c0.576-0.637,1.453-1.594,2.685-2.838c2.454-2.5,6.263-6.223,11.715-11.068c2.746-2.398,5.874-5.111,9.519-7.999
			c3.639-2.896,7.755-6.017,12.446-9.251c4.691-3.231,9.956-6.577,15.9-9.857c5.94-3.292,12.616-6.456,20.103-9.123
			c7.488-2.665,14.724-4.409,21.528-5.354c6.705-0.939,13.026-1.531,18.914-1.194c2.937,0.173,5.761,0.529,8.411,1.202
			c2.646,0.675,5.115,1.595,7.334,2.749c0.55,0.296,1.074,0.627,1.599,0.935c0.261,0.157,0.519,0.314,0.776,0.468
			c0.243,0.177,0.485,0.353,0.725,0.528c0.477,0.353,0.947,0.7,1.409,1.043c0.435,0.381,0.864,0.756,1.286,1.126
			c1.631,1.536,2.946,3.16,4.046,4.748c1.106,1.589,1.932,3.179,2.661,4.663c0.679,1.507,1.246,2.919,1.659,4.248
			c0.851,2.651,1.254,4.903,1.462,6.693c0.179,1.796,0.176,3.131,0.072,4.017C421.317,244.926,421.155,245.36,420.947,245.375z"/>
	</g>
	<g>
		<path fill="#31353E" d="M82.661,247.22c-0.295,0.069-0.665-0.304-1.115-1.19c-0.107-0.222-0.24-0.474-0.34-0.764
			c-0.096-0.29-0.194-0.613-0.294-0.971c-0.092-0.358-0.218-0.75-0.286-1.178c-0.067-0.428-0.132-0.892-0.196-1.392
			c-0.199-1.99-0.163-4.573,0.552-7.587c0.721-2.999,2.061-6.453,4.434-9.934c1.157-1.761,2.624-3.478,4.325-5.171
			c0.439-0.409,0.866-0.846,1.339-1.248c0.477-0.397,0.962-0.799,1.453-1.208c0.509-0.374,1.024-0.753,1.547-1.138
			c0.525-0.383,1.087-0.721,1.643-1.089c4.506-2.846,10.042-5.02,16.258-6.278c3.109-0.637,6.389-1.033,9.807-1.233
			c1.71-0.11,3.454-0.136,5.226-0.121c1.776-0.028,3.583,0.083,5.427,0.164c7.366,0.46,15.254,1.787,23.428,4.197
			c8.174,2.417,15.459,5.504,21.931,8.82c6.49,3.293,12.135,6.876,17.147,10.328c5.005,3.47,9.349,6.874,13.153,10.06
			c3.804,3.188,7.07,6.158,9.9,8.821c2.832,2.662,5.201,5.046,7.203,7.081c1.993,2.045,3.608,3.752,4.866,5.129
			c1.269,1.367,2.172,2.412,2.764,3.11c0.589,0.701,0.854,1.067,0.804,1.114c-0.049,0.048-0.41-0.224-1.099-0.827
			c-0.691-0.6-1.696-1.543-3.072-2.796c-1.366-1.263-3.095-2.845-5.208-4.747c-2.121-1.892-4.617-4.114-7.576-6.589
			c-5.915-4.936-13.566-11.071-23.689-17.394c-5.069-3.137-10.728-6.365-17.143-9.276c-6.399-2.936-13.532-5.618-21.414-7.646
			c-7.882-2.021-15.373-3.039-22.299-3.311c-1.733-0.033-3.429-0.104-5.09-0.044c-1.663,0.017-3.284,0.068-4.859,0.194
			c-3.153,0.23-6.142,0.622-8.934,1.206c-5.589,1.155-10.39,3.016-14.282,5.336c-0.478,0.302-0.969,0.574-1.421,0.886
			c-0.453,0.311-0.9,0.617-1.34,0.919c-0.417,0.322-0.827,0.638-1.232,0.951c-0.404,0.315-0.77,0.665-1.15,0.987
			c-1.47,1.343-2.786,2.705-3.851,4.115c-2.192,2.782-3.589,5.551-4.542,7.978c-0.945,2.441-1.385,4.571-1.67,6.292
			c-0.064,0.435-0.124,0.841-0.18,1.22c-0.061,0.382-0.068,0.735-0.111,1.066c-0.035,0.33-0.075,0.636-0.118,0.917
			c-0.03,0.281-0.057,0.534-0.081,0.757C83.164,246.645,82.956,247.151,82.661,247.22z"/>
	</g>
	<g>
		<path fill="#31353E" d="M265.887,432.986c0.024,0.55-1.875,1.08-6.342,1.278s-6.406-0.163-6.431-0.712
			c-0.024-0.55,1.875-1.08,6.342-1.278C263.924,432.075,265.863,432.436,265.887,432.986z"/>
	</g>
	<path fill="#F79653" d="M343.148,918.273c-1.706,15.092-3.426,30.184-5.139,45.276c-1.507,0.478-3.061,0.644-4.621,0.438
		c-8.432-1.102-13.89-12.496-12.197-25.45c1.693-12.947,9.893-22.555,18.326-21.459
		C340.797,917.244,342.019,917.656,343.148,918.273z"/>
	<path fill="#F79653" d="M210.805,969.134c-1.189,0.239-2.384,0.259-3.566,0.08c-1.766-15.517-3.526-31.034-5.292-46.545
		c8.213-1.301,16.805,7.649,19.322,20.251C223.825,955.735,219.144,967.467,210.805,969.134z"/>
	<path fill="#E2DED0" d="M307.124,300.791c-1.513,2.33-2.653,5.891-0.387,7.498c1.594,1.13,3.791,0.384,5.568-0.43
		c9.99-4.58,19.405-10.329,29.337-15.034c9.932-4.705,20.601-8.396,31.591-8.458c6.916-0.039,14.214,1.294,20.483-1.628
		c3.245-1.513,6.204-4.981,5.089-8.383c-0.82-2.504-3.469-3.867-5.934-4.799c-24.863-9.402-50.759-0.488-70.848,15.247
		C316.262,289.318,311.118,294.639,307.124,300.791z"/>
	<path fill="#E2DED0" d="M135.809,269.143c-5.282,0.377-10.92,1.405-14.655,5.16c-3.735,3.754-4.206,11.03,0.299,13.814
		c1.958,1.21,4.374,1.346,6.676,1.384c11.981,0.194,24.041-1.378,35.904,0.302c12.042,1.705,23.368,6.69,35.245,9.306
		c1.173,0.258,2.614,0.408,3.374-0.523c0.906-1.111,0.086-2.756-0.792-3.889C186.615,275.032,160.116,267.409,135.809,269.143z"/>
	<g>
		<path fill="#31353E" d="M245.659,635.044c0.018-0.152,0.774-0.226,2.321-0.212c0.774,0.002,1.743,0.049,2.92,0.077
			c1.179,0,2.563,0.015,4.159,0.045c1.597,0.001,3.408-0.061,5.438-0.083c1.014-0.056,2.083-0.115,3.209-0.177
			c0.563-0.03,1.139-0.062,1.73-0.094c0.589-0.055,1.193-0.112,1.81-0.17c4.94-0.423,10.782-1.2,17.454-2.774
			c6.672-1.572,12.246-3.486,16.855-5.313c0.579-0.224,1.144-0.443,1.695-0.656c0.543-0.235,1.073-0.465,1.59-0.689
			c1.035-0.447,2.018-0.872,2.95-1.275c1.826-0.887,3.475-1.64,4.903-2.354c1.414-0.74,2.646-1.371,3.701-1.898
			c1.04-0.551,1.887-1.026,2.578-1.373c1.377-0.703,2.087-0.975,2.171-0.847c0.084,0.128-0.466,0.643-1.713,1.578
			c-0.626,0.463-1.415,1.05-2.406,1.709c-1.006,0.635-2.199,1.37-3.585,2.209c-1.4,0.813-3.032,1.66-4.854,2.633
			c-0.933,0.442-1.917,0.908-2.953,1.398c-0.52,0.242-1.052,0.491-1.598,0.746c-0.556,0.231-1.125,0.468-1.708,0.71
			c-4.649,1.964-10.315,3.976-17.117,5.579c-6.802,1.604-12.769,2.334-17.806,2.652c-0.63,0.044-1.245,0.086-1.846,0.128
			c-0.602,0.016-1.19,0.031-1.763,0.046c-1.146,0.024-2.234,0.046-3.267,0.068c-2.065-0.057-3.903-0.086-5.519-0.188
			c-1.615-0.131-3.011-0.257-4.195-0.375c-1.182-0.147-2.15-0.32-2.916-0.455C246.364,635.411,245.641,635.196,245.659,635.044z"/>
	</g>
	<g>
		<path fill="#31353E" d="M247.563,617.415c-0.026,0.298-1.104,0.499-3.411,0.455c-2.304-0.051-5.841-0.341-10.721-1.196
			c-4.878-0.87-8.3-1.811-10.481-2.553c-2.182-0.749-3.126-1.308-3.048-1.597c0.082-0.302,1.169-0.279,3.424,0.076
			c2.257,0.348,5.682,1.034,10.491,1.892c4.811,0.843,8.263,1.374,10.503,1.821C246.561,616.752,247.59,617.104,247.563,617.415z"/>
	</g>
	<g>
		<path fill="#31353E" d="M75.736,635.328c-0.067-0.279,0.661-0.79,2.454-1.187c0.894-0.195,2.058-0.34,3.49-0.311
			c1.431,0.023,3.135,0.227,5.042,0.784c1.911,0.546,3.454,1.312,4.674,2.063c1.228,0.735,2.178,1.585,2.744,2.411
			c0.578,0.827,0.756,1.612,0.734,2.101c-0.022,0.498-0.189,0.715-0.33,0.719c-0.346,0.013-0.475-0.786-1.597-1.803
			c-0.569-0.514-1.389-1.075-2.558-1.651c-1.157-0.586-2.563-1.22-4.287-1.712c-1.72-0.502-3.245-0.745-4.541-0.873
			c-1.296-0.134-2.366-0.157-3.215-0.168C76.648,635.682,75.808,635.643,75.736,635.328z"/>
	</g>
	<g>
		<path fill="#31353E" d="M85.933,627.699c-0.029-0.15,0.015-0.303,0.167-0.456c0.151-0.163,0.412-0.295,0.808-0.379
			c0.777-0.163,2.119,0.139,3.286,1.172c1.158,1.026,1.632,1.962,1.856,2.602c0.211,0.651,0.127,1.049-0.127,1.214
			c-0.26,0.168-0.644,0.068-1.154-0.311c-0.515-0.368-1.144-1.055-2.018-1.823c-0.884-0.756-1.496-1.046-1.962-1.291
			C86.324,628.199,85.995,628.015,85.933,627.699z"/>
	</g>
	<g>
		<path fill="#31353E" d="M256.601,751.542c-0.004-0.153,0.759-0.326,2.347-0.517c0.794-0.098,1.795-0.188,3.008-0.304
			c1.213-0.132,2.639-0.273,4.287-0.423c1.645-0.176,3.51-0.375,5.605-0.598c2.087-0.285,4.412-0.511,6.955-0.905
			c5.094-0.713,11.114-1.697,18.059-3.214c6.945-1.516,12.827-3.131,17.754-4.606c2.476-0.702,4.683-1.465,6.699-2.076
			c1.997-0.67,3.776-1.267,5.344-1.793c1.56-0.551,2.915-1.017,4.073-1.402c1.152-0.4,2.099-0.736,2.861-0.977
			c1.523-0.489,2.289-0.649,2.349-0.509c0.06,0.141-0.59,0.569-2.018,1.305c-0.715,0.365-1.618,0.82-2.733,1.332
			c-1.12,0.497-2.445,1.069-3.981,1.718c-1.542,0.634-3.311,1.302-5.295,2.062c-2.007,0.692-4.213,1.528-6.696,2.29
			c-4.941,1.597-10.869,3.289-17.886,4.821c-7.017,1.532-13.111,2.466-18.268,3.074c-2.575,0.342-4.928,0.502-7.041,0.709
			c-2.12,0.136-4.007,0.266-5.672,0.332c-1.667,0.051-3.109,0.083-4.335,0.097c-1.226-0.001-2.237-0.037-3.039-0.071
			C257.375,751.812,256.605,751.695,256.601,751.542z"/>
	</g>
	
		<ellipse transform="matrix(0.109 -0.994 0.994 0.109 331.9379 837.8405)" fill="#31353E" cx="633.348" cy="233.753" rx="7.6" ry="48.623"/>
	<circle fill="#31353E" cx="643.413" cy="157.313" r="24.785"/>
	<g>
		<path fill="#31353E" d="M935.894,580.759c-0.079,0.138-0.735-0.07-1.995-0.646c-0.629-0.29-1.415-0.663-2.344-1.148
			c-0.917-0.506-1.984-1.112-3.206-1.82c-1.22-0.712-2.547-1.596-4.051-2.556c-0.746-0.489-1.504-1.042-2.314-1.604
			c-0.804-0.571-1.662-1.151-2.512-1.819c-3.482-2.569-7.388-5.854-11.624-9.946c-4.22-4.105-8.744-9.058-13.239-15.078
			c-4.456-6.036-8.944-13.125-12.874-21.414c-3.981-8.262-7.466-17.63-10.916-27.855c-3.418-10.231-7.092-21.263-10.877-33.231
			c-3.776-11.965-7.047-23.165-9.71-33.631c-2.654-10.473-4.709-20.169-6.747-28.993c-2.023-8.828-4.026-16.792-6.17-23.868
			c-2.149-7.072-4.342-13.293-6.71-18.589c-0.285-0.667-0.565-1.323-0.841-1.967c-0.284-0.64-0.603-1.251-0.895-1.861
			c-0.593-1.216-1.166-2.389-1.717-3.519c-1.174-2.221-2.34-4.231-3.383-6.095c-1.156-1.795-2.211-3.432-3.165-4.913
			c-1.017-1.438-1.985-2.686-2.809-3.814c-0.417-0.561-0.808-1.085-1.171-1.573c-0.396-0.462-0.763-0.889-1.101-1.282
			c-0.673-0.791-1.231-1.446-1.675-1.968c-0.438-0.528-0.764-0.922-0.981-1.185c-0.213-0.266-0.312-0.404-0.298-0.417
			s0.138,0.101,0.377,0.342c0.235,0.247,0.589,0.617,1.063,1.113c0.468,0.504,1.056,1.136,1.765,1.9
			c0.353,0.384,0.737,0.8,1.151,1.25c0.38,0.479,0.788,0.992,1.224,1.542c0.862,1.108,1.869,2.337,2.929,3.759
			c0.996,1.468,2.097,3.09,3.304,4.869c1.092,1.85,2.312,3.85,3.542,6.064c0.579,1.126,1.181,2.296,1.804,3.508
			c0.307,0.609,0.641,1.219,0.941,1.858c0.291,0.644,0.587,1.298,0.887,1.964c2.495,5.291,4.825,11.514,7.121,18.589
			c2.29,7.08,4.447,15.049,6.626,23.859c2.193,8.807,4.406,18.46,7.203,28.83c2.807,10.371,6.22,21.474,10.135,33.359
			c3.921,11.879,7.719,22.89,11.21,33.062c3.518,10.151,7.005,19.366,10.91,27.442c3.854,8.098,8.189,14.989,12.484,20.92
			c4.33,5.908,8.668,10.809,12.696,14.919c4.044,4.096,7.755,7.443,11.047,10.122c0.803,0.696,1.613,1.306,2.371,1.91
			c0.763,0.596,1.476,1.185,2.176,1.712c1.413,1.037,2.652,2.009,3.784,2.818c2.265,1.631,3.942,2.838,5.053,3.639
			C935.472,580.142,935.973,580.62,935.894,580.759z"/>
	</g>
	<g>
		<path fill="#31353E" d="M949.736,516.769c-0.085,0.308-0.9,0.387-2.516,0.185c-0.804-0.114-1.805-0.307-3.008-0.596
			c-1.198-0.302-2.599-0.698-4.191-1.241c-1.593-0.539-3.373-1.232-5.343-2.086c-1.951-0.892-4.109-1.911-6.386-3.225
			c-4.553-2.605-9.757-6.159-14.903-11.312c-5.146-5.162-8.615-10.412-11.045-15.034c-1.227-2.312-2.129-4.512-2.903-6.499
			c-0.349-1.009-0.694-1.957-0.971-2.865c-0.257-0.916-0.537-1.763-0.726-2.578c-0.189-0.815-0.386-1.568-0.529-2.277
			c-0.131-0.711-0.252-1.367-0.363-1.971c-0.185-1.213-0.305-2.215-0.387-3.01c-0.109-1.599-0.13-2.363-0.058-2.37
			s0.232,0.746,0.502,2.307c0.163,0.776,0.369,1.753,0.647,2.929c0.155,0.584,0.324,1.219,0.507,1.907
			c0.192,0.685,0.44,1.41,0.681,2.192c0.241,0.782,0.574,1.593,0.885,2.468c0.332,0.868,0.73,1.77,1.133,2.727
			c0.882,1.885,1.891,3.96,3.214,6.126c2.621,4.331,6.243,9.188,11.378,13.903c5.143,4.715,10.209,7.954,14.59,10.436
			c2.19,1.251,4.252,2.254,6.104,3.171c1.871,0.88,3.55,1.644,5.044,2.293c1.499,0.647,2.797,1.208,3.901,1.684
			c1.109,0.472,2.02,0.881,2.736,1.237C949.169,515.956,949.821,516.461,949.736,516.769z"/>
	</g>
	<path fill="#D2D4BB" d="M378.682,221.353c6.134-0.754,12.489-0.978,18.366,0.932c5.878,1.91,11.24,6.292,12.939,12.234
		c0.577,2.016,0.424,4.699-1.488,5.56c-1.298,0.584-2.796,0.027-4.117-0.502c-20.636-8.257-43.984-9.561-65.412-3.654
		c-5.158,1.422-3.131-2.444-0.003-3.859c4.104-1.856,8.607-3.16,12.891-4.535C360.603,224.722,369.555,222.475,378.682,221.353z"/>
	<path fill="#D2D4BB" d="M111.136,220.866c-4.841,0.967-9.694,2.277-13.92,4.829c-4.225,2.552-7.799,6.495-9.002,11.283
		c-0.762,3.032,0.196,7.167,3.289,7.625c1.657,0.245,3.229-0.711,4.63-1.629c3.111-2.039,6.219-4.094,9.507-5.833
		c9.55-5.052,20.415-7.302,31.214-7.608c7.606-0.215,15.21,0.509,22.711,1.736c3.368,0.551,13.903,4.902,13.227-2.013
		c-0.487-4.974-11.662-6.523-15.554-7.494c-7.063-1.761-14.317-2.729-21.591-2.952C127.435,218.558,119.193,219.257,111.136,220.866
		z"/>
	<path fill="#D2D4BB" d="M249.199,378.992c-0.215,0.561-0.434,1.147-0.375,1.745c0.059,0.598,0.488,1.205,1.087,1.253
		c0.623,0.05,1.122-0.482,1.517-0.967c0.966-1.185,1.933-2.37,2.899-3.556c0.242-0.297,0.5-0.606,0.857-0.749
		c0.606-0.242,1.28,0.067,1.854,0.379c1.861,1.014,3.663,2.137,5.394,3.36c0.657,0.465,1.505,0.962,2.21,0.573
		c0.804-0.444,0.7-1.623,0.429-2.501c-1.133-3.667-3.209-6.983-5.604-9.982c-0.843-1.055-1.821-2.135-3.137-2.435
		c-2.625-0.598-3.062,2.376-3.753,4.136C251.435,373.157,250.317,376.075,249.199,378.992z"/>
	<path fill="#D2D4BB" d="M330.712,381.898c0.748-0.203,1.574-0.404,2.272-0.067c0.835,0.402,1.172,1.475,0.99,2.383
		c-0.181,0.908-0.765,1.68-1.374,2.378c-4.343,4.982-10.727,7.908-17.262,8.901c-6.021,0.915-12.378,0.385-18.277-1.071
		c-4.578-1.13-4.81-3.531-0.717-6.12c4.359-2.757,10.61-1.819,15.552-2.476C318.253,384.981,324.526,383.575,330.712,381.898z"/>
	<path fill="#D2D4BB" d="M216.389,383.3c-6.477-0.331-12.946-1.243-19.422-0.898c-0.854,0.045-1.753,0.128-2.455,0.617
		c-1.465,1.02-1.316,3.392-0.152,4.746c1.163,1.354,2.971,1.932,4.694,2.398c4.748,1.285,9.599,2.186,14.491,2.693
		c4.515,0.468,9.194,0.581,13.469-0.946c2.665-0.952,10.834-5.894,5.894-9.086c-1.951-1.261-5.213,0.145-7.35,0.355
		C222.514,383.478,219.442,383.456,216.389,383.3z"/>
	<path fill="#D2D4BB" d="M436.893,194.328c-9.156-12.058-16.725-25.709-25.596-38.039c-25.125-34.938-62.792-60.654-104.476-71.33
		c-11.155-2.855-22.761-4.741-32.893-10.219c1.394-3.791,6.454-4.356,10.491-4.17c20.982,0.956,41.844,4.595,61.909,10.796
		c-4.86-5.199-11.58-8.207-18.239-10.73c-46.797-17.695-100.333-16.825-146.532,2.384c-31.12,12.934-58.689,34.095-79.617,60.488
		C134.958,83.212,191.867,50,256.531,50C344.693,50,418.441,111.729,436.893,194.328z"/>
</g>
</svg>
