<?xml version="1.0" encoding="utf-8"?>
<!-- Designed by Vexels.com - 2020 All Rights Reserved - https://vexels.com/terms-and-conditions/  -->
<svg version="1.1" id="Capa_1" xmlns="http://www.w3.org/2000/svg" xmlns:xlink="http://www.w3.org/1999/xlink" x="0px" y="0px"
	 viewBox="0 0 1200 1200" enable-background="new 0 0 1200 1200" xml:space="preserve">
<g>
	<path fill="none" d="M596.15,285.179c0.05-0.06,0.102-0.116,0.157-0.161C596.252,285.063,596.201,285.119,596.15,285.179z"/>
	<path fill="none" d="M636.807,838.847L636.807,838.847c-3.021-0.07-6.042-0.152-9.064-0.233c-3.379-0.087-6.759-0.174-10.138-0.26
		c3.379,0.087,6.758,0.174,10.13,0.26C630.765,838.695,633.786,838.778,636.807,838.847z"/>
	<path fill="none" d="M498.774,752.035c-0.463,0.009-0.926,0.012-1.389,0.01C497.849,752.047,498.312,752.044,498.774,752.035z"/>
	<path fill="none" d="M636.028,839.431c0.169-0.234,0.42-0.432,0.779-0.584l0,0C636.448,838.999,636.197,839.197,636.028,839.431z"
		/>
	<path fill="none" d="M590.459,838.12c-2.681,0.077-5.361,0.154-8.041,0.231c-3.127,0.084-6.255,0.168-9.382,0.251
		c3.127-0.084,6.255-0.167,9.38-0.251C585.099,838.274,587.778,838.197,590.459,838.12z"/>
	<path fill="none" d="M617.606,838.354c-2.665-0.076-5.329-0.152-7.993-0.228c-1.772-0.057-3.545-0.115-5.317-0.172
		c1.772,0.057,3.545,0.115,5.314,0.172C612.277,838.202,614.941,838.278,617.606,838.354z"/>
	<path fill="none" d="M595.823,285.579c0.028-0.029,0.055-0.059,0.082-0.091C595.877,285.519,595.851,285.55,595.823,285.579
		L595.823,285.579z"/>
	<polygon fill="none" points="665.426,840.013 665.426,840.013 665.426,840.013 	"/>
	<path fill="none" d="M600.023,837.478c0.712,0,1.424,0.04,2.136,0.12C601.447,837.519,600.735,837.479,600.023,837.478z"/>
	<polygon fill="none" points="534.559,840.016 534.559,840.016 534.559,840.016 	"/>
	<path fill="none" d="M678.999,840.366c0.338-0.046,0.676-0.092,1.014-0.138C679.675,840.274,679.337,840.32,678.999,840.366
		c0.329,1.876,0.608,3.764,0.936,5.64C679.607,844.13,679.329,842.242,678.999,840.366z"/>
	<path fill="none" d="M459.774,394.105c0.504-5.259,0.042-10.609,0.003-15.919c0,0-0.001,0.001-0.002,0.001
		C459.816,383.497,460.277,388.848,459.774,394.105z"/>
	<path fill="none" d="M649.165,839.365c0.308,6.413,0.602,12.826,0.949,19.237C649.767,852.191,649.473,845.777,649.165,839.365
		c3.625,0.169,7.249,0.338,10.873,0.508l0,0c-3.624-0.169-7.248-0.338-10.872-0.508c-4.059-0.19-8.119-0.38-12.179-0.57l0,0
		C641.047,838.985,645.106,839.175,649.165,839.365z"/>
	<path fill="none" d="M552.126,191.237c-3.68-0.061-7.36-0.169-11.039-0.295C544.766,191.069,548.446,191.177,552.126,191.237z"/>
	<path fill="none" d="M520.797,190.198c5.448,0.174,10.896,0.401,16.345,0.605C531.693,190.599,526.245,190.371,520.797,190.198
		L520.797,190.198z"/>
	<path fill="none" d="M518.866,168.03c-0.518-0.1-0.947-0.248-1.314-0.465C517.919,167.782,518.348,167.93,518.866,168.03z"/>
	<path fill="none" d="M595.998,285.37c-0.019,0.025-0.039,0.049-0.058,0.073C595.959,285.419,595.979,285.395,595.998,285.37z"/>
	<path fill="none" d="M589.173,509.444c0.165,0.132,0.343,0.254,0.533,0.365C589.515,509.697,589.338,509.575,589.173,509.444z"/>
	<path fill="none" d="M832.447,707.23c0.751,1.223,1.784,2.118,3.327,2.36c0.065,0.46,0.129,0.92,0.194,1.38
		c-0.065-0.46-0.129-0.92-0.193-1.381C834.231,709.347,833.198,708.453,832.447,707.23z"/>
	<path fill="none" d="M517.414,167.47c-0.08-0.053-0.16-0.107-0.234-0.168C517.254,167.364,517.334,167.417,517.414,167.47z"/>
	<path fill="none" d="M589.095,509.383c-0.543-0.458-0.896-1.052-0.824-1.892c0,0-0.002,0.002-0.002,0.002
		C588.199,508.332,588.553,508.925,589.095,509.383z"/>
	<path fill="none" d="M531.638,168.082c-3.384,0.052-6.769,0.172-10.152,0.139c3.383,0.033,6.768-0.087,10.151-0.138
		c1.285-0.14,2.568-0.364,3.852-0.476C534.205,167.719,532.921,167.943,531.638,168.082z"/>
	<path fill="none" d="M680.254,168.111c0.018,0.02,0.031,0.046,0.048,0.068C680.285,168.158,680.272,168.132,680.254,168.111z"/>
	<path fill="none" d="M581.812,290.32c0.239-0.118,0.479-0.235,0.72-0.349C582.292,290.085,582.052,290.202,581.812,290.32z"/>
	<path fill="none" d="M595.391,285.447c-0.401-0.068-0.79-0.084-1.163-0.02C594.601,285.363,594.99,285.379,595.391,285.447z"/>
	<path fill="#E8F4F5" d="M498.774,752.035c2.082-0.041,4.154-0.216,6.2-0.791c0.306-0.086,0.639-0.084,0.961-0.106
		c5.623-0.368,11.249-0.685,16.866-1.12c3.046-0.235,6.08-0.646,9.115-1.018c16.921-2.072,33.046-7.013,48.858-13.236
		c9.485-3.733,18.611-8.187,27.593-12.936c5.552-2.936,10.84-6.372,16.254-9.568c1.2-0.708,1.853-1.694,2.026-3.093
		c0.472-3.833,1.056-7.64,0.991-11.534c-0.062-3.694-0.217-7.41,0.718-11.069c0.312-1.22,0.161-2.566,0.172-3.855
		c0.043-4.839,0.018-9.679,0.119-14.517c0.04-1.922,0.36-3.836,0.52-5.757c0.134-1.603,0.311-3.21,0.313-4.815
		c0.02-25.164,0.027-50.328-0.007-75.492c-0.003-1.92-0.337-3.838-0.504-5.759c-0.126-1.442-0.304-2.884-0.329-4.329
		c-0.068-3.871-0.056-7.743-0.094-11.614c-0.03-3.058-0.134-6.085-0.637-9.141c-0.492-2.994-0.147-6.116-0.347-9.17
		c-0.326-4.954-0.797-9.899-1.182-14.544c-1.472-1.543-2.957-1.128-4.367-0.949c-3.987,0.506-7.968,1.066-11.953,1.588
		c-0.477,0.062-0.971,0.065-1.45,0.019c-9.008-0.869-18.024-1.92-26.171-6.175c-4.698-2.454-9.256-5.293-13.506-8.456
		c-8.379-6.237-14.865-14.309-20.166-23.201c-5.626-9.438-10.045-19.479-13.087-30.09c-2.09-7.29-3.657-14.701-4.67-22.189
		c-0.666-4.922-1.452-9.86-1.345-14.894c0.167-7.901,0.025-15.807,0.062-23.711c0.016-3.378-0.169-6.78,0.798-10.092
		c0.133-0.455,0.12-0.96,0.126-1.442c0.117-9.082,1.862-17.957,4.157-26.655c2.216-8.398,5.175-16.611,8.063-24.816
		c1.816-5.159,3.88-10.258,6.221-15.2c5.052-10.664,11.172-20.699,18.657-29.863c2.337-2.862,4.697-5.707,7.244-8.8
		c-0.362-1.225-0.643-2.64-1.19-3.945c-2.054-4.905-3.929-9.911-6.363-14.625c-3.99-7.729-8.28-15.308-12.616-22.851
		c-2.002-3.483-4.417-6.728-6.635-10.088c-6.329-9.589-13.621-18.369-21.962-26.284c-1.375-1.305-3.093-2.423-3.382-4.56
		c0,0-0.001,0-0.001,0c-3.523-0.061-7.046-0.121-10.568-0.182c-0.288,0.573-0.625,1.128-0.856,1.723
		c-15.043,38.676-25.61,78.588-33.027,119.371c-1.036,5.697-2.113,11.387-3.172,17.08c-0.504,3.861-1.022,7.72-1.521,11.582
		c-0.201,1.558-0.4,3.116-0.593,4.675c-1.203,9.745-2.453,19.486-3.52,29.247c-0.996,9.121-1.809,18.263-2.639,27.401
		c-0.408,4.489-0.826,8.986-0.973,13.487c-0.495,15.134-1.559,30.247-1.473,45.403c0.032,5.634-0.48,11.271-0.412,16.903
		c0.186,15.467,0.324,30.94,0.911,46.394c0.489,12.866,1.574,25.711,2.421,38.563c0.424,6.427,0.833,12.856,1.391,19.272
		c0.334,3.844,0.969,7.661,1.417,11.496c0.032,0.274,0.053,0.549,0.066,0.825c0.04,0.828,0.015,1.664,0.037,2.494
		c0.07,0.58,0.141,1.161,0.211,1.742c0.755,1.21,1.056,2.454,0.286,3.779c0.242,1.972,0.483,3.944,0.724,5.916
		c0.258,0.329,0.466,0.662,0.585,1.005c0.2,0.57,0.154,1.163-0.318,1.797c0,0,0,0,0,0c0,0,0,0,0,0
		c0.217,1.644,0.434,3.288,0.651,4.932c0,0,0,0,0,0c0,0,0,0,0,0c0.743,1.351,0.991,2.751,0.416,4.232c0,0,0,0,0,0c0,0,0,0,0,0
		c0.172,1.168,0.344,2.337,0.517,3.506c0.821,1.347,1.023,2.758,0.434,4.248c0.18,1.168,0.361,2.336,0.541,3.505c0,0,0,0,0,0
		c0,0,0,0,0,0c0.697,0.874,0.944,1.795,0.302,2.812c0,0,0,0,0,0s0,0,0,0c0.244,1.646,0.487,3.292,0.732,4.939
		c0.672,1.023,0.906,2.097,0.387,3.261c0.185,1.171,0.37,2.342,0.555,3.513c0.718,1.023,0.884,2.107,0.367,3.269
		c0.2,1.17,0.4,2.341,0.601,3.511c0,0,0,0,0,0c0,0,0,0,0,0c0.687,0.866,1.083,1.768,0.345,2.809c0,0,0,0,0,0c0,0,0,0,0,0
		c0.172,0.911,0.344,1.823,0.517,2.734c0.798,1.094,0.921,2.274,0.448,3.529c0.212,1.17,0.424,2.34,0.635,3.51
		c0.355,0.507,0.592,1.029,0.675,1.571c0.083,0.542,0.013,1.105-0.245,1.692c0.166,0.848,0.332,1.697,0.498,2.545
		c0.693,0.863,1.038,1.77,0.361,2.808c0.19,0.915,0.379,1.83,0.568,2.745c0.284,0.409,0.498,0.827,0.629,1.257
		c0.218,0.717,0.201,1.469-0.123,2.264c0.538,2.771,1.077,5.542,1.616,8.314c0.466,0.334,0.755,0.692,0.716,1.095
		c-0.024,0.242-0.166,0.5-0.46,0.778c0.206,0.956,0.412,1.911,0.618,2.866c0.265,0.175,0.477,0.357,0.616,0.548
		c0.308,0.422,0.265,0.894-0.338,1.443c0,0,0,0,0,0c0,0,0,0,0,0c0.202,0.949,0.405,1.898,0.607,2.847l0,0v0
		c0.693,0.523,1.056,1.096,1.004,1.73c-0.032,0.381-0.213,0.784-0.563,1.212c0.216,0.957,0.431,1.914,0.647,2.872
		c0.148,0.104,0.282,0.211,0.397,0.32c0.076,0.073,0.144,0.147,0.201,0.223c0.029,0.038,0.055,0.076,0.078,0.115
		c0.231,0.387,0.177,0.816-0.385,1.32l0,0v0c0.212,0.953,0.423,1.907,0.635,2.86c0.847,0.551,1.172,1.18,0.298,1.989
		c0.219,0.951,0.439,1.901,0.659,2.852c0.841,0.552,1.187,1.178,0.301,1.991c0.222,0.95,0.443,1.9,0.665,2.85
		c0.827,0.551,1.19,1.175,0.308,1.991c0.22,0.95,0.44,1.9,0.66,2.85c0.479,0.305,0.798,0.635,0.83,1.013
		c0.025,0.293-0.124,0.615-0.506,0.975c0.231,0.952,0.461,1.904,0.692,2.856c0.254,0.172,0.465,0.35,0.609,0.539
		c0.316,0.416,0.304,0.882-0.304,1.44v0v0c0.514,2.244,1.028,4.488,1.542,6.732l0,0v0c0.217,0.133,0.402,0.272,0.543,0.419
		c0.035,0.036,0.068,0.074,0.098,0.111c0.06,0.075,0.108,0.152,0.143,0.232c0.158,0.357,0.055,0.76-0.437,1.231
		c0.261,0.981,0.521,1.963,0.782,2.944c0.927,0.003,1.855,0.021,2.781,0.029c0.232,0.002,0.464,0.004,0.695,0.004
		C497.849,752.047,498.312,752.044,498.774,752.035z"/>
	<path fill="#87A7A4" d="M832.447,707.23c-0.107-0.175-0.209-0.356-0.305-0.543c-5.687-11.037-11.873-21.817-16.852-33.222
		c-2.322-5.318-5.18-10.399-7.631-15.664c-3.403-7.308-6.679-14.676-9.959-22.041c-3.149-7.069-6.064-14.248-9.385-21.234
		c-6.099-12.834-11.161-26.092-16.356-39.293c-5.502-13.977-9.692-28.382-13.016-43.021c-1.102-4.856-1.585-9.851-2.428-14.769
		c-1.415-8.253-2.834-16.507-4.358-24.741c-2.636-14.253-5.432-28.478-7.988-42.745c-0.736-4.107-0.917-8.317-1.291-12.486
		c-0.604-6.73-1.276-13.457-1.69-20.2c-0.286-4.665-0.18-9.354-0.263-14.032c-0.065-3.703-0.187-7.384-0.641-11.087
		c-0.446-3.644-0.037-7.392-0.003-11.095c-1.48-5.137-1.165-10.497-1.935-15.728c-0.489-3.32-0.475-6.714-0.717-10.072
		c-0.081-1.117,0.325-1.849,1.416-2.169c-3.949-3.991-7.792-8.097-11.893-11.924c-2.02-1.885-3.044-3.975-3.485-6.632
		c-1.215-7.307-2.522-14.601-3.918-21.876c-7.089-36.94-17.039-73.074-30.542-108.211c-1.73-4.503-3.19-9.11-4.774-13.668
		c-4.347-0.059-8.694-0.23-13.037-0.151c-9.359,0.169-18.716,0.646-28.075,0.676c-28.905,0.093-57.812,0.144-86.716-0.016
		c-1.492-0.008-2.984-0.026-4.477-0.05c-3.68-0.061-7.36-0.169-11.039-0.295c-1.315-0.045-2.63-0.091-3.945-0.14
		c-5.449-0.203-10.897-0.431-16.345-0.605c-1.61,0.093-3.216,0.186-4.822,0.28c-1.231,3.544-2.464,7.088-3.696,10.633
		c3.523,0.061,7.046,0.122,10.568,0.182c0,0,0.001,0,0.001,0c0,0,0-0.001,0-0.001c2.047-0.533,3.882-0.171,5.66,0.701
		c0.41,0.201,0.818,0.429,1.224,0.68c10.572,6.529,20.572,13.84,30.431,21.398c14.523,11.133,27.251,24.143,39.882,37.259
		c4.234,4.397,7.952,9.294,11.854,14.004c2.259,2.726,4.439,5.52,6.601,8.323c0.432,0.56,0.628,1.303,1.185,2.503
		c-1.344-0.184-2.103-0.23-2.835-0.399c-2.509-0.577-5.002-1.223-7.513-1.795c-4.373-0.996-8.638-0.324-12.846,0.946
		c-0.067,0.02-0.128,0.057-0.186,0.106c-0.055,0.046-0.106,0.101-0.157,0.161c-0.052,0.061-0.102,0.127-0.152,0.192
		c-0.019,0.025-0.039,0.049-0.058,0.073c-0.012,0.015-0.024,0.03-0.036,0.044c-0.027,0.032-0.054,0.062-0.082,0.091
		c2.293,0.059,4.599-0.002,6.887,0.103c0.763,0.035,1.524,0.088,2.281,0.17c10.358,1.121,18.961,5.974,26.552,12.858
		c8.388,7.607,14.431,16.902,19.253,27.028c7.788,16.351,11.851,33.7,13.722,51.642c0.94,9.012,1.131,18.044,0.712,27.063
		c-1.105,23.784-5.909,46.691-17.214,67.899c-4.733,8.879-10.543,16.989-18.127,23.722c-4.131,3.667-8.64,6.768-13.706,8.994
		c-7.724,3.396-15.721,4.741-24.101,3.001c-1.256-0.261-2.541-0.382-3.814-0.568c-0.072,0.84,0.282,1.434,0.824,1.892
		c0.025,0.021,0.052,0.04,0.078,0.061c0.165,0.132,0.343,0.254,0.533,0.365c13.227,7.786,26.571,8.194,39.924,0.408
		c7.671-4.472,13.567-10.846,18.563-18.094c6.94-10.067,11.648-21.169,15.115-32.831c1.792-6.028,3.368-12.115,4.31-18.345
		c0.601-3.976,1.243-7.951,1.672-11.947c0.67-6.238,1.365-12.484,1.688-18.745c0.248-4.811,0.441-9.646-0.392-14.477
		c-0.462-2.677-0.278-5.467-0.347-8.207c-0.019-0.734,0.106-1.472,0.168-2.247c1.296,0.2,1.395,1.117,1.62,1.818
		c4.132,12.903,7.977,25.889,10.798,39.15c1.508,7.091,2.945,14.199,4.242,21.331c1.008,5.54,1.82,11.119,2.591,16.698
		c0.969,7.012,1.851,14.038,2.684,21.068c0.435,3.675,0.748,7.367,1.003,11.06c0.399,5.782,0.948,11.569,1.001,17.358
		c0.14,15.489,0.049,30.979,0.049,46.469c-1.371,7.643-0.425,15.442-1.645,23.116c-0.73,4.596-0.702,9.307-1.193,13.947
		c-0.762,7.2-1.633,14.388-2.54,21.572c-0.705,5.588-1.524,11.162-2.315,16.739c-0.384,2.71-0.757,5.424-1.248,8.116
		c-1.186,6.494-2.315,13.001-3.69,19.456c-2.449,11.503-4.84,23.025-7.673,34.436c-2.619,10.547-6.887,20.469-13.112,29.46
		c-3.967,5.729-8.522,11.011-13.877,15.428c-5.485,4.525-11.482,8.397-18.697,9.733c-1.735,0.321-3.503,0.56-5.263,0.628
		c-3.226,0.123-6.459,0.063-9.688,0.129c-4.671,0.095-9.326,0.05-14.004,0.664c-4.133,0.543-8.382,0.222-12.58,0.247
		c-14.682,0.086-29.332,1.447-44.025,1.09c-10.121,1.368-20.319,0.45-30.456,1.032c-5.795,0.333-11.572,0.872-17.384,0.715
		c0.369,2.222,0.737,4.444,1.106,6.667c1.206,0.052,2.411,0.135,3.616,0.175c0.402,0.013,0.804,0.021,1.206,0.022
		c4.351,0.006,8.702-0.017,13.053-0.068c27.068-0.317,54.134-0.795,81.203-0.922c21.27-0.1,42.543,0.185,63.814,0.384
		c13.371,0.125,26.74,0.402,40.11,0.622c1.607,0.027,3.213,0.126,4.82,0.192c0,0,0.109-0.179,0.164-0.269
		c0.018-0.03,0.03-0.05,0.03-0.05l0,0c0.12-1.116,0.144-2.252,0.376-3.344c2.305-10.873,4.712-21.725,6.958-32.61
		c4.266-20.673,7.863-41.469,10.965-62.344c2.794-18.802,5.286-37.647,7.092-56.576c0.086-0.899,0.501-1.767,0.799-2.774
		c2.054,0.658,3.081,2.166,4.222,3.458c12.082,13.691,22.829,28.382,32.458,43.877c7.069,11.377,13.122,23.306,18.579,35.535
		c3.433,7.693,7.659,14.892,13.147,21.325c3.186,3.735,6.93,6.718,11.368,8.834c3.147,1.501,6.426,2.145,9.875,1.457
		c5.814-1.16,11.053-3.495,15.254-7.801c0.389-0.399,0.505-1.062,0.748-1.603c-0.065-0.46-0.129-0.92-0.194-1.38
		C834.231,709.348,833.198,708.453,832.447,707.23z M658.788,267.644c-2.026,0.696-3.772,0.176-5.266-1.375
		c-1.384-1.437-2.228-3.149-2.735-5.034c-0.961-3.57-1.823-7.168-2.817-10.729c-2.116-7.588-4.288-15.161-6.444-22.739
		c-0.264-0.928-0.563-1.847-0.863-2.765c-0.767-2.351,0.223-4.072,2.004-5.472c1.523-1.197,3.318-1.116,4.88,0.104
		c1.472,1.15,2.163,2.741,2.7,4.462c2.014,6.448,4.134,12.865,6.074,19.335c1.663,5.543,3.143,11.141,4.683,16.721
		c0.255,0.924,0.401,1.877,0.501,2.36C661.553,265.243,660.559,267.036,658.788,267.644z M664.546,219.439
		c-2.447-0.165-4.07-2.035-3.935-4.534c0.133-2.452,1.976-4.079,4.497-3.971c2.218,0.095,3.958,2.111,3.971,4.601
		C669.093,217.805,667.004,219.604,664.546,219.439z M717.513,547.586c-0.203,7.557-0.426,15.143-1,22.675
		c-0.417,5.469-0.499,10.936-0.849,16.395c-0.402,6.257-1.103,12.495-1.628,18.745c-0.431,5.131-0.759,10.271-1.197,15.402
		c-0.383,4.488-0.816,8.973-1.298,13.452c-0.5,4.637-1.042,9.271-1.643,13.896c-0.706,5.425-1.413,10.853-2.269,16.256
		c-1.436,9.06-2.917,18.115-4.513,27.148c-1.906,10.793-4.329,21.478-7.124,32.078c-0.411,1.558-0.78,3.129-1.259,4.666
		c-0.284,0.914-0.629,1.848-1.146,2.644c-1.512,2.326-4.087,3.217-6.259,2.285c-2.276-0.976-3.634-3.832-2.969-6.454
		c1.15-4.53,2.429-9.028,3.538-13.567c3.059-12.521,5.621-25.142,7.664-37.871c1.505-9.375,2.913-18.754,3.982-28.195
		c0.977-8.631,2.262-17.221,2.813-25.904c0.315-4.97,1.055-9.912,1.604-14.867c0.018-0.16,0.05-0.319,0.061-0.48
		c0.372-5.621,0.852-11.237,1.085-16.864c0.346-8.366,0.813-16.735,1.302-25.082c0.435-7.41,0.505-14.807,0.708-22.21
		c0.101-3.701-0.111-7.408,0.677-11.083c0.298-1.394,0.139-2.892,0.141-4.343c0.013-9.678,0.07-19.357-0.005-29.034
		c-0.049-6.276,0.088-12.537-0.605-18.827c-0.615-5.583-0.115-11.28-0.285-16.922c-0.277-9.176-0.425-18.369-1.169-27.511
		c-0.393-4.822-0.536-9.641-0.863-14.457c-0.37-5.452-1.039-10.884-1.565-16.326c-0.372-3.843-0.745-7.685-1.076-11.531
		c-0.4-4.649-0.687-9.309-1.152-13.951c-0.417-4.16-1.003-8.303-1.525-12.452c-0.421-3.353-0.833-6.707-1.292-10.054
		c-0.808-5.898-1.529-11.811-2.504-17.681c-1.714-10.32-3.401-20.652-5.46-30.906c-1.713-8.526-3.757-16.998-5.998-25.402
		c-2.575-9.659-5.641-19.18-9.383-28.466c-0.663-1.644-1.393-3.262-2.138-4.871c-0.774-1.669-0.945-3.418-0.723-5.203
		c0.233-1.883,1.543-3.356,3.337-3.688c1.983-0.367,4.026-0.358,5.156,1.644c1.423,2.522,2.758,5.12,3.844,7.801
		c4.059,10.029,7.097,20.389,9.93,30.822c3.805,14.008,6.585,28.237,9.287,42.478c1.379,7.269,2.274,14.629,3.373,21.95
		c0.836,5.568,1.688,11.135,2.459,16.712c0.506,3.665,0.891,7.347,1.309,11.024c0.618,5.434,1.284,10.863,1.802,16.307
		c0.472,4.965,0.755,9.948,1.157,14.92c0.558,6.893,1.149,13.783,1.727,20.675c0.027,0.321,0.071,0.642,0.085,0.963
		c0.368,8.527,0.725,17.054,1.101,25.58c0.284,6.433,0.778,12.862,0.849,19.297c0.137,12.419,0.04,24.84,0.04,37.26
		c-0.01,0-0.019,0-0.028,0C717.618,520.168,717.883,533.885,717.513,547.586z"/>
	<path fill="#C6D0CF" d="M512.389,756.07c10.138-0.582,20.336,0.336,30.456-1.032c14.693,0.357,29.343-1.003,44.025-1.09
		c4.198-0.025,8.447,0.296,12.58-0.247c4.678-0.614,9.333-0.569,14.004-0.664c3.229-0.066,6.461-0.005,9.688-0.129
		c1.761-0.067,3.528-0.306,5.263-0.628c7.215-1.337,13.212-5.208,18.697-9.733c5.354-4.418,9.91-9.699,13.877-15.428
		c6.225-8.991,10.493-18.914,13.112-29.46c2.833-11.411,5.224-22.934,7.673-34.436c1.375-6.455,2.504-12.963,3.69-19.456
		c0.491-2.692,0.863-5.406,1.248-8.116c0.791-5.577,1.61-11.151,2.315-16.739c0.907-7.183,1.778-14.372,2.54-21.572
		c0.491-4.64,0.462-9.352,1.193-13.947c1.22-7.675,0.274-15.474,1.645-23.116c0-15.49,0.091-30.981-0.049-46.469
		c-0.052-5.789-0.602-11.576-1.001-17.358c-0.255-3.692-0.567-7.385-1.003-11.06c-0.833-7.03-1.715-14.055-2.684-21.068
		c-0.771-5.579-1.583-11.158-2.591-16.698c-1.297-7.132-2.734-14.24-4.242-21.331c-2.82-13.262-6.666-26.247-10.798-39.15
		c-0.225-0.701-0.324-1.618-1.62-1.818c-0.062,0.775-0.187,1.513-0.168,2.247c0.069,2.74-0.115,5.53,0.347,8.207
		c0.833,4.831,0.64,9.666,0.392,14.477c-0.323,6.261-1.018,12.507-1.688,18.745c-0.429,3.996-1.071,7.971-1.672,11.947
		c-0.942,6.229-2.518,12.316-4.31,18.345c-3.467,11.661-8.175,22.764-15.115,32.831c-4.996,7.248-10.893,13.622-18.563,18.094
		c-13.353,7.785-26.697,7.378-39.924-0.408c-0.19-0.112-0.368-0.234-0.533-0.365c-0.026-0.02-0.053-0.04-0.078-0.061
		c-0.542-0.458-0.896-1.051-0.827-1.89c-0.007,0.006-0.106,0.125-0.107,0.126c-0.984,0.37-1.655,0.009-2.095-0.895l0,0
		c-0.204-0.128-0.398-0.281-0.606-0.399c-0.069-0.04-0.14-0.076-0.213-0.105c-13.245-5.427-22.635-15.171-30.097-27.001
		c-7.293-11.565-12.151-24.18-15.313-37.421c-7.409-31.027-6.985-61.979,1.495-92.754c3.794-13.767,9.423-26.733,17.799-38.398
		c5.122-7.135,11.161-13.324,18.635-18.063c0.293-0.186,0.588-0.367,0.884-0.545c1.035-0.62,2.09-1.188,3.162-1.717
		c0.239-0.118,0.479-0.235,0.72-0.349c3.311-1.569,6.773-2.764,10.307-3.807c0.424-0.427,0.892-0.652,1.389-0.737
		c0.373-0.064,0.762-0.048,1.163,0.02c0.134,0.023,0.268,0.052,0.404,0.085c0,0,0.028,0.046,0.027,0.047
		c0.028-0.029,0.055-0.059,0.082-0.091c0.012-0.014,0.023-0.029,0.036-0.044c0.019-0.024,0.039-0.048,0.058-0.073
		c0.05-0.065,0.101-0.13,0.152-0.192c0.05-0.06,0.102-0.116,0.157-0.161c0.058-0.048,0.119-0.086,0.186-0.106
		c4.208-1.27,8.473-1.942,12.846-0.946c2.51,0.572,5.003,1.218,7.513,1.795c0.732,0.168,1.492,0.215,2.835,0.399
		c-0.556-1.201-0.753-1.943-1.185-2.503c-2.163-2.803-4.342-5.597-6.601-8.323c-3.903-4.71-7.62-9.608-11.854-14.004
		c-12.631-13.116-25.359-26.126-39.882-37.259c-9.859-7.557-19.859-14.869-30.431-21.398c-0.406-0.251-0.813-0.479-1.224-0.68
		c-1.778-0.872-3.613-1.234-5.66-0.701c0,0,0,0.001,0,0.001c0.288,2.137,2.006,3.255,3.382,4.56
		c8.341,7.915,15.633,16.695,21.962,26.284c2.218,3.36,4.633,6.605,6.635,10.088c4.336,7.543,8.626,15.122,12.616,22.851
		c2.434,4.714,4.308,9.72,6.363,14.625c0.546,1.305,0.828,2.72,1.19,3.945c-2.548,3.093-4.907,5.938-7.244,8.8
		c-7.484,9.164-13.605,19.199-18.657,29.863c-2.341,4.942-4.406,10.041-6.221,15.2c-2.888,8.205-5.847,16.419-8.063,24.816
		c-2.295,8.698-4.039,17.573-4.157,26.655c-0.007,0.482,0.006,0.988-0.126,1.442c-0.966,3.311-0.782,6.713-0.798,10.092
		c-0.037,7.904,0.105,15.811-0.062,23.711c-0.106,5.034,0.68,9.972,1.345,14.894c1.013,7.489,2.58,14.899,4.67,22.189
		c3.042,10.612,7.46,20.653,13.087,30.09c5.301,8.892,11.786,16.964,20.166,23.201c4.25,3.164,8.808,6.003,13.506,8.456
		c8.147,4.255,17.163,5.306,26.171,6.175c0.479,0.046,0.973,0.043,1.45-0.019c3.985-0.522,7.965-1.083,11.953-1.588
		c1.41-0.179,2.895-0.594,4.367,0.949c0.385,4.645,0.856,9.59,1.182,14.544c0.201,3.054-0.145,6.176,0.347,9.17
		c0.502,3.056,0.607,6.083,0.637,9.141c0.038,3.871,0.026,7.743,0.094,11.614c0.025,1.445,0.203,2.887,0.329,4.329
		c0.167,1.92,0.502,3.839,0.504,5.759c0.034,25.164,0.027,50.328,0.007,75.492c-0.001,1.605-0.179,3.212-0.313,4.815
		c-0.16,1.921-0.48,3.835-0.52,5.757c-0.101,4.838-0.076,9.678-0.119,14.517c-0.011,1.289,0.14,2.635-0.172,3.855
		c-0.936,3.66-0.78,7.375-0.718,11.069c0.065,3.893-0.519,7.701-0.991,11.534c-0.173,1.399-0.826,2.385-2.026,3.093
		c-5.415,3.196-10.702,6.632-16.254,9.568c-8.982,4.75-18.108,9.204-27.593,12.936c-15.812,6.222-31.938,11.163-48.858,13.236
		c-3.035,0.372-6.069,0.782-9.115,1.018c-5.617,0.434-11.244,0.751-16.866,1.12c-0.321,0.021-0.654,0.02-0.961,0.106
		c-2.046,0.575-4.118,0.75-6.2,0.791c-0.463,0.009-0.926,0.012-1.389,0.01c-0.232-0.001-0.463-0.002-0.695-0.004
		c-0.927-0.008-1.855-0.026-2.781-0.029c0.365,1.591,0.731,3.182,1.096,4.773C500.817,756.942,506.594,756.403,512.389,756.07z"/>
	<path fill="#E76D1E" d="M678.999,840.366c0.33,1.876,0.608,3.764,0.936,5.64c0.198,1.126,0.414,2.247,0.67,3.359
		c1.959,8.489,2.895,17.06,3.367,25.774c0.328,6.06,0.328,12.208,1.507,18.228c0.245,1.252,0.236,2.567,0.238,3.853
		c0.017,10.806,0.026,21.612-0.008,32.418c-0.005,1.55,0.415,3.259-1.09,4.587c-0.435-0.106-0.989-0.081-1.305-0.343
		c-2.474-2.056-5.039-4.03-7.314-6.292c-3.595-3.576-7.984-6.007-12.155-8.728c-3.907-2.549-7.968-1.715-10.698,1.857
		c-0.647,0.846-1.075,1.986-1.234,3.046c-0.213,1.421-0.178,2.905-0.05,4.344c0.313,3.518,0.49,7.078,1.199,10.523
		c0.594,2.889,0.689,5.745,0.696,8.642c0.009,3.71,0.072,7.421-0.029,11.128c-0.057,2.078-0.392,4.149-0.615,6.222
		c-0.069,0.64-0.24,1.272-0.27,1.911c-0.463,9.899-3.328,19.313-5.835,28.796c-0.36,1.362-1.013,2.647-1.462,3.796
		c-1.282,0.364-1.815-0.258-2.235-0.954c-0.499-0.827-0.973-1.681-1.341-2.572c-1.352-3.269-3.856-4.463-7.283-4.482
		c-3.452-0.019-5.336,2.135-6.76,4.696c-1.163,2.091-1.891,4.446-2.643,6.739c-1.807,5.511-3.391,11.098-5.29,16.577
		c-3.379,9.749-7.08,19.38-11.964,28.498c-1.899,3.545-4.032,6.966-6.095,10.421c-0.314,0.525-0.831,0.929-1.156,1.283
		c-1.583,0.135-2.28-0.841-2.838-1.789c-2.693-4.581-5.635-9.053-7.896-13.842c-4.61-9.761-8.65-19.778-11.927-30.08
		c-1.612-5.066-3.191-10.143-4.77-15.22c-0.587-1.887-1.471-3.602-3.01-4.869c-0.861-0.709-1.8-1.418-2.825-1.814
		c-2.782-1.075-5.28-0.758-7.506,1.543c-1.626,1.68-2.567,3.674-3.542,5.706c-0.347,0.721-1.677,0.717-2.042,0.023
		c-0.372-0.707-0.735-1.437-0.965-2.198c-2.521-8.329-4.271-16.845-6.083-25.344c-0.199-0.934-0.145-1.925-0.181-2.89
		c-0.042-1.128,0.133-2.299-0.11-3.378c-1.62-7.184-0.763-14.461-0.771-21.689c-0.004-3.989,0.821-7.978,1.251-11.969
		c0.223-2.073,0.582-4.152,0.563-6.226c-0.057-6.135-5.531-9.539-11.084-6.97c-0.726,0.336-1.382,0.824-2.065,1.251
		c-6.166,3.857-11.668,8.569-17.156,13.299c-0.576,0.496-1.198,0.936-1.938,1.51c-1.303-1.919-1.625-3.759-1.624-5.701
		c0.004-10,0.003-20,0.003-29.999c1.33-5.392,0.374-10.957,1.125-16.34c0.652-4.669,0.437-9.323,0.891-13.95
		c0.485-4.946,1.503-9.842,2.339-14.751c0.377-2.216,0.771-4.429,1.17-6.641c0.399-2.212,0.802-4.424,1.198-6.637
		c-3.623,0.106-7.245,0.212-10.864,0.318c-0.378,1.552-0.946,3.084-1.103,4.658c-0.353,3.529-0.481,7.08-0.736,10.62
		c-1.136,15.768-2.29,31.536-3.426,47.304c-0.928,12.871-1.842,25.744-2.762,38.616c-0.759,10.62-1.532,21.24-2.26,31.862
		c-0.099,1.441-0.122,2.917,0.077,4.341c0.27,1.93,1.858,3.248,3.623,3.298c1.611,0.045,3.163-0.969,3.653-2.639
		c0.36-1.225,0.525-2.528,0.621-3.807c0.533-7.077,0.997-14.16,1.526-21.237c0.323-4.311,0.393-8.65,1.337-13.731
		c0.616,1.378,1.035,2.033,1.208,2.747c1.024,4.233,2.063,8.464,2.937,12.729c0.318,1.553,0.38,3.213,0.242,4.796
		c-1.354,15.427-2.657,30.862-5.338,46.137c-0.139,0.791-0.248,1.602-0.234,2.401c0.032,1.897,1.063,3.233,2.656,3.58
		c1.586,0.346,3.211-0.433,3.879-2.162c0.576-1.489,0.961-3.081,1.212-4.662c1.267-7.965,2.456-15.942,3.699-23.911
		c0.086-0.554-0.073-1.337,1.167-1.544c1.43,1.618,1.578,3.957,2.501,5.917c1.059,2.248,1.28,4.601,1.034,7.081
		c-0.303,3.046-0.356,6.116-0.534,9.175c-0.638,10.95-1.286,21.899-1.924,32.848c-0.103,1.771-0.284,3.547-0.229,5.314
		c0.065,2.138,1.387,3.574,3.114,3.677c1.708,0.102,3.229-1.121,3.702-3.177c0.324-1.41,0.5-2.863,0.623-4.307
		c0.739-8.679,1.434-17.361,2.173-26.04c0.075-0.88-0.269-1.966,1.115-2.604c0.344,0.414,0.808,0.815,1.076,1.322
		c1.962,3.707,3.844,7.457,5.84,11.147c0.804,1.485,0.999,3.028,1.032,4.659c0.115,5.646,0.271,11.29,0.398,16.936
		c0.157,6.936,0.255,13.875,0.485,20.809c0.052,1.58,0.371,3.203,0.881,4.7c0.439,1.289,1.618,1.972,3.06,1.951
		c1.45-0.022,2.85-1.038,3.142-2.542c0.242-1.248,0.225-2.558,0.226-3.84c0.001-7.422-0.043-14.845-0.026-22.267
		c0.002-0.863-0.347-1.95,1.005-2.519c1.397,1.068,1.943,2.852,3.098,4.135c2.671,2.967,3.176,6.419,3.092,10.301
		c-0.388,18.067-0.569,36.139-0.821,54.209c-0.018,1.291-0.099,2.589,0.012,3.87c0.081,0.944,0.318,1.911,0.681,2.787
		c0.533,1.285,1.619,2.019,3.004,2.121c1.595,0.118,2.928-0.58,3.552-2.016c0.499-1.149,0.738-2.469,0.818-3.73
		c0.143-2.251,0.078-4.516,0.101-6.775c0.129-13.069,0.24-26.139,0.416-39.208c0.018-1.355-0.523-2.902,0.966-4.239
		c0.59,0.5,1.244,0.922,1.728,1.489c1.363,1.594,2.645,3.258,3.978,4.877c4.209,5.112,4.199,5.109,3.98,11.729
		c-0.586,17.738-1.161,35.477-1.735,53.216c-0.032,0.966-0.112,1.943-0.016,2.9c0.255,2.524,1.828,4.162,3.892,4.17
		c1.901,0.007,3.416-1.348,3.857-3.66c0.239-1.258,0.275-2.563,0.315-3.849c0.442-14.191,0.864-28.383,1.296-42.574
		c0.044-1.451,0.053-2.909,0.206-4.35c0.077-0.72,0.441-1.41,0.776-2.414c0.931,0.627,1.646,0.984,2.202,1.509
		c1.409,1.328,2.749,2.728,4.111,4.106c4.391,4.445,4.057,3.201,3.979,9.66c-0.182,15.005-0.383,30.01-0.567,45.015
		c-0.018,1.451-0.087,2.915,0.061,4.353c0.281,2.742,1.724,3.986,4.458,4.025c1.284,0.018,2.57,0.039,3.854,0.003
		c2.26-0.063,3.641-1.181,4.016-3.393c0.187-1.103,0.166-2.25,0.152-3.376c-0.185-15.166-0.384-30.332-0.581-45.498
		c-0.019-1.452-0.014-2.905-0.071-4.356c-0.061-1.552,0.489-2.81,1.589-3.895c2.529-2.493,5.006-5.037,7.553-7.51
		c0.371-0.36,1.015-0.44,1.852-0.778c0.113,1.208,0.227,1.976,0.251,2.747c0.402,13.063,0.781,26.126,1.191,39.188
		c0.102,3.225,0.265,6.448,0.453,9.669c0.056,0.958,0.174,1.947,0.482,2.846c0.512,1.492,1.642,2.367,3.247,2.507
		c1.597,0.139,3.167-0.885,3.733-2.511c0.26-0.748,0.397-1.567,0.428-2.36c0.055-1.449,0.019-2.904-0.032-4.355
		c-0.507-14.512-1.035-29.023-1.531-43.535c-0.132-3.87-0.118-7.745-0.275-11.613c-0.077-1.893,0.486-3.414,1.727-4.846
		c2.218-2.561,4.291-5.247,6.459-7.852c0.478-0.574,0.932-1.357,2.303-0.885c0.445,1.328,0.277,2.92,0.296,4.475
		c0.179,14.521,0.338,29.042,0.522,43.563c0.018,1.448,0.031,2.917,0.282,4.335c0.339,1.912,1.956,3.205,3.706,3.231
		c1.699,0.025,3.322-1.265,3.695-3.229c0.268-1.41,0.291-2.884,0.272-4.327c-0.163-12.585-0.377-25.169-0.54-37.753
		c-0.088-6.776-0.119-13.553-0.137-20.33c-0.003-1.118,0.051-2.274,0.329-3.347c0.394-1.521,4.315-6.713,6.14-8.423
		c1.129,0.815,0.703,2.029,0.705,3.064c0.017,7.261-0.023,14.522-0.052,21.782c-0.003,0.806-0.113,1.616-0.06,2.417
		c0.145,2.183,1.271,3.579,3.009,3.834c1.89,0.276,3.409-0.979,3.994-3.377c0.19-0.778,0.282-1.589,0.337-2.391
		c0.077-1.126,0.087-2.257,0.11-3.386c0.23-11.453,0.468-22.907,0.676-34.361c0.036-1.951,0.164-3.819,1.147-5.608
		c2.02-3.676,3.889-7.433,5.863-11.135c0.253-0.475,0.759-0.815,1.542-1.624c0.686,2.386,0.646,4.29,0.813,6.152
		c0.733,8.192,1.43,16.388,2.194,24.577c0.118,1.269,0.376,2.565,0.819,3.755c0.525,1.409,2.169,2.212,3.533,1.993
		c1.422-0.229,2.643-1.393,2.794-2.936c0.124-1.275,0.065-2.578-0.029-3.861c-0.304-4.182-0.75-8.356-0.979-12.541
		c-0.589-10.792-1.052-21.591-1.659-32.382c-0.131-2.32,0.142-4.486,1.054-6.606c0.637-1.481,1.151-3.017,1.831-4.477
		c0.217-0.466,0.792-0.766,1.552-1.463c0.419,2.908,0.741,5.296,1.112,7.677c0.993,6.375,1.953,12.757,3.053,19.114
		c0.268,1.552,0.851,3.113,1.605,4.499c0.662,1.218,2.022,1.593,3.396,1.256c1.364-0.334,2.347-1.252,2.464-2.662
		c0.104-1.263-0.062-2.565-0.237-3.831c-0.861-6.232-1.91-12.441-2.618-18.69c-1.018-8.975-1.835-17.973-2.646-26.969
		c-0.142-1.579-0.013-3.237,0.304-4.794c0.837-4.108,1.822-8.187,2.805-12.265c0.21-0.871,0.661-1.685,1.34-3.36
		c0.255,1.88,0.433,2.822,0.504,3.772c0.755,10.134,1.486,20.27,2.247,30.404c0.108,1.443,0.203,2.911,0.546,4.308
		c0.493,2.009,2.028,3.167,3.785,3.138c1.932-0.033,3.542-1.531,3.74-3.735c0.128-1.434,0.009-2.9-0.092-4.345
		c-0.897-12.874-1.823-25.746-2.724-38.62c-0.754-10.782-1.471-21.567-2.231-32.35c-1.281-18.184-2.555-36.368-3.909-54.547
		c-0.178-2.387-0.812-4.741-1.235-7.109c-2.693-0.24-5.386-0.479-8.079-0.719c-0.638,0.087-1.275,0.174-1.913,0.26
		C679.675,840.274,679.337,840.32,678.999,840.366z"/>
	<path fill="#C6D0CF" d="M368.007,706.389c6.166-11.865,12.783-23.501,18.058-35.818c1.394-3.255,3.208-6.328,4.681-9.552
		c4.147-9.083,8.225-18.198,12.314-27.307c2.836-6.319,5.495-12.722,8.501-18.959c5.395-11.191,9.745-22.811,14.448-34.287
		c5.877-14.342,10.408-29.123,14.039-44.167c1.468-6.085,2.287-12.327,3.384-18.501c2.11-11.879,4.153-23.77,6.327-35.637
		c1.972-10.762,4.19-21.479,6.075-32.255c0.746-4.264,0.909-8.632,1.295-12.957c0.572-6.403,1.161-12.804,1.633-19.215
		c0.213-2.888,0.177-5.796,0.227-8.696c0.087-4.988,0.306-9.951,0.784-14.934c0.504-5.258,0.042-10.608,0.002-15.918
		c-0.478,0.467-1.138,0.863-1.467,1.389c-0.047,0.075-0.087,0.153-0.119,0.234c-0.528,1.338-0.684,2.819-1.159,4.182
		c-0.524,1.502-1.208,2.951-1.878,4.398c-0.268,0.579-0.755,1.058-1.018,1.638c-4.334,9.568-10.088,18.35-15.337,27.403
		c-6.962,12.005-13.238,24.358-19.264,36.835c-6.585,13.635-12.734,27.475-18.322,41.554c-5.469,13.779-10.677,27.655-15.216,41.772
		c-5.227,16.258-10.051,32.638-13.823,49.297c-2.237,9.88-4.213,19.828-5.955,29.806c-1.104,6.321-1.501,12.762-2.324,19.135
		c-1.465,11.351-2.184,22.745-1.734,34.177c0.195,4.963,1.108,9.893,1.481,14.854c0.216,2.866,0.056,5.765-0.039,8.646
		c-0.043,1.277-0.502,2.545-0.5,3.817c0.006,4.027-0.14,8.033-0.976,11.987c0.28,0.399,0.561,0.797,0.841,1.196
		C365.436,710.1,366.927,708.466,368.007,706.389z"/>
	<path fill="#87A7A4" d="M468.819,592.211c-0.559-6.416-0.968-12.845-1.391-19.272c-0.847-12.852-1.933-25.696-2.421-38.563
		c-0.587-15.454-0.725-30.927-0.911-46.394c-0.068-5.632,0.444-11.27,0.412-16.903c-0.086-15.155,0.978-30.269,1.473-45.403
		c0.147-4.502,0.566-8.999,0.973-13.487c0.83-9.138,1.643-18.28,2.639-27.401c1.066-9.761,2.316-19.502,3.52-29.247
		c0.193-1.559,0.392-3.117,0.593-4.675c0.499-3.862,1.017-7.721,1.521-11.582c-5.253,4.092-9.807,8.905-14.262,13.819
		c0.203,0.432,0.487,0.855,0.689,1.286c0.121,0.259,0.213,0.521,0.24,0.789c0.128,1.257,0.042,2.549-0.074,3.815
		c-0.465,5.071-0.975,10.138-1.464,15.207c0.376,0.76,0.331,1.418-0.246,1.949c-0.082,0.076-0.176,0.149-0.28,0.22
		c-0.016,0.606-0.033,1.212-0.05,1.817c0.038,5.31,0.5,10.661-0.003,15.919c-0.478,4.983-0.697,9.946-0.784,14.934
		c-0.051,2.899-0.014,5.807-0.227,8.696c-0.472,6.41-1.061,12.812-1.633,19.215c-0.386,4.324-0.549,8.692-1.295,12.957
		c-1.885,10.776-4.104,21.493-6.075,32.255c-2.174,11.867-4.217,23.758-6.327,35.637c-1.097,6.174-1.916,12.416-3.384,18.501
		c-3.631,15.044-8.162,29.825-14.039,44.167c-4.702,11.476-9.053,23.096-14.448,34.287c-3.006,6.237-5.665,12.64-8.501,18.959
		c-4.089,9.109-8.167,18.224-12.314,27.307c-1.472,3.224-3.287,6.297-4.681,9.552c-5.276,12.317-11.892,23.953-18.058,35.818
		c-1.079,2.077-2.571,3.711-5.041,4.118c3.515,4.726,8.447,7.294,13.873,9.126c4.851,1.638,9.466,1.173,14.031-1.152
		c4.71-2.399,8.429-5.89,11.702-9.927c4.799-5.92,8.584-12.453,11.687-19.4c8.432-18.881,18.279-36.968,30.622-53.607
		c5.948-8.019,12.157-15.846,18.345-23.684c1.672-2.117,3.41-4.26,5.769-5.67c0.523,0.324,0.933,0.579,1.344,0.834
		c-0.022-0.83,0.003-1.666-0.037-2.494c-0.013-0.276-0.034-0.551-0.066-0.825C469.788,599.873,469.153,596.055,468.819,592.211z"/>
	<path fill="#3A2684" d="M647.491,153.597c1.583-0.005,3.166-0.139,4.985-0.224c0.102-1.196,0.227-2.101,0.236-3.008
		c0.005-0.47-0.163-0.952-0.308-1.411c-4.157-13.198-7.723-26.558-14.01-39.055c-5.95-11.828-12.247-23.407-19.608-34.401
		c-5.88-8.782-13.037-16.355-21.755-22.402c-0.52-0.361-0.956-0.844-1.432-1.271c-1.969-0.025-3.291,1.235-4.55,2.45
		c-3.238,3.126-6.588,6.168-9.547,9.547c-20.609,23.54-35.667,50.268-45.49,79.937c-1.052,3.177-1.497,6.555-2.223,9.84
		c29.353,0.006,58.706,0.013,88.059,0.018C630.396,153.618,638.943,153.621,647.491,153.597z M587.568,80.554
		c-0.296,0.904-0.759,1.778-1.276,2.583c-5.419,8.444-9.895,17.343-13.136,26.852c-0.36,1.057-0.841,2.107-1.456,3.035
		c-1.107,1.669-2.993,2.239-4.64,1.575c-1.695-0.683-2.635-2.31-2.428-4.717c0.158-0.499,0.417-1.427,0.742-2.331
		c3.559-9.908,8.367-19.186,14.215-27.928c0.707-1.057,1.576-2.052,2.538-2.879c1.106-0.949,2.914-0.854,4.063-0.029
		C587.373,77.566,588.021,79.17,587.568,80.554z"/>
	<path fill="#E8F4F5" d="M849.131,609.159c-2.672-19.01-6.479-37.797-11.223-56.398c-8.304-32.553-19.006-64.283-33.096-94.802
		c-10.753-23.291-23.363-45.602-36.771-67.462c-8.296-13.526-18.395-25.663-28.997-37.408c-1.091,0.32-1.497,1.052-1.416,2.169
		c0.242,3.358,0.229,6.751,0.717,10.072c0.77,5.231,0.455,10.591,1.935,15.728c1.548,0.464,2.194,1.86,2.994,3.03
		c7.644,11.183,14.949,22.57,20.981,34.731c1.932,3.895,4.268,7.595,6.116,11.526c7.61,16.186,15.027,32.457,21.125,49.295
		c1.204,3.326,2.83,6.497,4.132,9.791c1.242,3.141,2.417,6.316,3.438,9.534c1.412,4.451,2.654,8.957,3.966,13.439
		c3.576,12.212,7.371,24.364,10.664,36.652c3.374,12.589,6.521,25.252,9.275,37.989c2.446,11.312,4.3,22.755,6.259,34.167
		c1.359,7.917,2.562,15.865,3.625,23.828c0.616,4.614,0.788,9.287,1.209,13.928c0.536,5.918,1.123,11.831,1.683,17.747
		c0.076,0.802,0.173,1.606,0.175,2.409c0.02,9.675,0.027,19.35,0.026,29.025c0,0.48-0.111,0.959-0.171,1.44
		c0.064,0.461,0.128,0.921,0.193,1.381c0.553-0.295,1.248-0.464,1.638-0.904c4.979-5.605,9.028-11.719,10.817-19.157
		c2.158-8.97,3.399-18.067,3.788-27.259C852.985,645.393,851.672,627.234,849.131,609.159z"/>
	<path fill="#E8F4F5" d="M363.6,693.507c0.095-2.881,0.255-5.78,0.039-8.646c-0.373-4.961-1.285-9.892-1.481-14.854
		c-0.449-11.432,0.27-22.826,1.734-34.177c0.823-6.373,1.22-12.814,2.324-19.135c1.743-9.979,3.718-19.927,5.955-29.806
		c3.772-16.659,8.596-33.039,13.823-49.297c4.538-14.116,9.747-27.993,15.216-41.772c5.588-14.079,11.737-27.919,18.322-41.554
		c6.026-12.478,12.302-24.831,19.264-36.835c5.25-9.052,11.003-17.834,15.337-27.403c0.263-0.581,0.75-1.059,1.018-1.638
		c0.669-1.447,1.354-2.896,1.878-4.398c0.476-1.364,0.631-2.844,1.159-4.182c0.032-0.081,0.072-0.159,0.119-0.234
		c0.329-0.526,0.988-0.922,1.467-1.389c0,0,0.001-0.001,0.002-0.001c0.018-0.605,0.034-1.211,0.05-1.817
		c-0.999-1.01-0.431-1.636,0.526-2.168c0.489-5.069,1-10.136,1.464-15.207c0.116-1.266,0.201-2.558,0.074-3.815
		c-0.027-0.268-0.119-0.53-0.24-0.789c-0.202-0.431-0.486-0.855-0.689-1.286c-10.385,11.517-20.268,23.417-28.499,36.615
		c-7.77,12.459-14.948,25.248-21.98,38.133c-6.263,11.475-12.273,23.063-17.522,35.033c-20.649,47.091-34.859,96.036-42.135,146.95
		c-2.262,15.828-3.525,31.745-3.212,47.754c0.215,10.994,1.256,21.892,3.832,32.616c1.773,7.38,5.176,13.821,10.678,19.105
		c0.836-3.955,0.982-7.96,0.976-11.987C363.098,696.052,363.558,694.784,363.6,693.507z"/>
	<path fill="#2363A9" d="M678.295,836.847c-9.03-6.786-19.42-10.653-30.101-13.86c-7.862-2.36-15.74-4.669-23.625-6.952
		c-8.973-2.597-18.085-4.582-27.327-5.941c-6.673-0.982-13.338-2.171-20.051-2.691c-6.243-0.483-12.453-1.611-18.767-1.257
		c-1.903,0.106-3.833-0.406-5.754-0.445c-3.687-0.074-7.376-0.04-11.063,0.016c-0.955,0.015-1.904,0.391-2.859,0.411
		c-3.867,0.083-7.74-0.016-11.6,0.161c-3.687,0.17-7.365,0.563-11.041,0.924c-4.952,0.486-9.898,1.039-14.848,1.556
		c-1.76,0.184-3.521,0.348-5.282,0.522c-0.098,6.28-0.232,12.558-0.278,18.837c-0.021,2.885,1.021,5.448,3.31,7.225
		c3.299,2.562,6.602,5.246,11.114,5.332c3.619-0.106,7.241-0.212,10.864-0.318l0,0c4.524-0.117,9.049-0.235,13.573-0.352v0l0,0
		v0.001c0,0.036,0,0.071,0,0.107c0.645-0.059,1.29-0.137,1.934-0.211c1.093-0.125,2.187-0.237,3.278-0.221
		c0.4,0.006,0.745,0.054,1.046,0.142c3.341-0.156,6.682-0.312,10.022-0.468c4.09-0.185,8.18-0.37,12.229-0.562
		c3.35-0.062,6.659-0.13,9.967-0.199c3.127-0.084,6.255-0.167,9.382-0.251c2.68-0.077,5.36-0.154,8.041-0.231
		c1.763-0.056,3.527-0.112,5.289-0.168c1.425-0.317,2.85-0.475,4.274-0.474c0.712,0,1.424,0.04,2.136,0.12
		c0.712,0.079,1.424,0.198,2.136,0.356c1.772,0.057,3.545,0.115,5.317,0.172c2.664,0.076,5.328,0.152,7.993,0.228
		c3.379,0.087,6.758,0.174,10.138,0.26c3.021,0.081,6.042,0.163,9.064,0.233c0.044-0.018,0.085-0.038,0.132-0.055
		c0.072-0.053,0.143-0.106,0.215-0.159c-0.055,0.046-0.111,0.113-0.167,0.161c4.06,0.19,8.119,0.38,12.179,0.57
		c3.624,0.169,7.248,0.338,10.872,0.508c0.98-0.208,1.609-0.276,2.43-0.212c0.716,0.056,1.582,0.211,2.959,0.459
		c0-0.035,0-0.071,0-0.106v-0.001l0,0l0,0c4.524,0.118,9.048,0.235,13.572,0.353c0.338-0.046,0.677-0.092,1.014-0.138
		c0.638-0.087,1.275-0.174,1.913-0.26l0,0c0,0,0,0-0.001,0C680.719,838.923,679.568,837.804,678.295,836.847z"/>
	<path fill="#1E204D" d="M517.18,167.302c0.074,0.061,0.154,0.114,0.234,0.168c0.046,0.031,0.089,0.067,0.138,0.095
		c0.367,0.217,0.796,0.365,1.314,0.465c0.693,0.133,1.544,0.181,2.62,0.191c3.383,0.033,6.768-0.087,10.152-0.139
		c1.283-0.14,2.567-0.363,3.85-0.475c0.242-0.021,0.483-0.039,0.725-0.051c0.218-0.011,0.436-0.017,0.654-0.018
		c15.294-0.077,30.588-0.105,45.882-0.125c29.461-0.039,58.922-0.069,88.383-0.08c1.924-0.001,3.848,0.191,5.773,0.293
		c0.661,0.01,1.322,0.02,1.982,0.03c0.582-0.031,1.063,0.115,1.367,0.456c0.018,0.02,0.031,0.046,0.048,0.068
		c0.096,0.124,0.176,0.266,0.226,0.437c0.03,0.1,0.052,0.208,0.064,0.325c0.43,4.003-1.19,7.228-4.064,9.844
		c-0.651,0.593-1.714,0.856-2.631,1.009c-2.061,0.345-4.144,0.601-6.227,0.76c-9.787,0.747-19.58,1.405-29.364,2.186
		c-4.97,0.397-9.925,0.989-14.886,1.491c-0.801,0.081-1.601,0.18-2.404,0.217c-8.844,0.402-17.692,0.728-26.532,1.205
		c-8.354,0.45-16.698,1.066-25.049,1.585c-1.928,0.12-3.863,0.108-5.793,0.213c-13.339,0.726-26.677,1.459-40.014,2.219
		c-0.949,0.054-1.885,0.347-2.832,0.528c5.448,0.174,10.896,0.401,16.345,0.605c1.315,0.049,2.63,0.095,3.945,0.14
		c3.68,0.126,7.359,0.234,11.039,0.295c1.492,0.025,2.985,0.042,4.477,0.05c28.905,0.16,57.811,0.109,86.716,0.016
		c9.359-0.03,18.716-0.507,28.075-0.676c4.343-0.078,8.69,0.092,13.037,0.151c0,0,0.001,0,0.001,0
		c0.224-0.231,0.407-0.529,0.674-0.687c3.621-2.145,4.807-5.397,4.466-9.438c-0.378-4.477-0.64-8.963-0.976-13.444
		c-0.103-1.375-0.796-2.53-1.95-3.176c-1.24-0.694-2.609-1.249-3.99-1.576c-3.297-0.78-6.654-1.093-10.059-0.994
		c-1.558,0.045-3.242,0.4-4.885-0.988c-0.12-1.038-0.22-2.295-0.418-3.537c-0.327-2.054-0.53-4.153-1.118-6.135
		c-1.187-4.004-2.583-7.947-3.92-11.905c-2.888-8.549-6.362-16.846-10.421-24.915c-3.113-6.188-6.515-12.199-10.045-18.155
		c-8.989-15.167-19.487-29.13-32.451-41.153c-1.407-1.305-2.93-2.537-4.565-3.531c-2.649-1.612-5.544-1.28-8.378-0.475
		c-0.347,0.099-0.536,0.756-0.797,1.155c0.476,0.427,0.912,0.91,1.432,1.271c8.718,6.047,15.875,13.62,21.755,22.402
		c7.361,10.994,13.659,22.573,19.608,34.401c6.286,12.497,9.852,25.857,14.01,39.055c0.145,0.459,0.313,0.942,0.308,1.411
		c-0.009,0.907-0.134,1.813-0.236,3.008c-1.819,0.085-3.402,0.22-4.985,0.224c-8.548,0.024-17.096,0.02-25.644,0.019
		c-29.353-0.005-58.705-0.012-88.059-0.018c-1.294,1.262-0.96,2.927-1.158,4.478c-0.133,1.042-0.494,2.055-0.814,3.317
		c-2.448,0.039-4.659,0.1-6.87,0.105c-3.353,0.007-6.607,0.549-9.764,1.676c0,0,0,0,0,0c0,0,0,0,0,0
		C515.819,165.343,516.316,166.59,517.18,167.302z"/>
	<path fill="#1E204D" d="M492.802,788.85c-1.609-0.001-3.217,0.127-4.825,0.195c2.004,1.947,4.887,1.281,7.364,2.362
		c1.051,3.95,0.258,7.977,0.51,11.942c1.93-0.081,3.86-0.234,5.791-0.234c47.567,0.018,95.134,0.129,142.701,0.012
		c8.342-0.021,16.365,1.366,24.286,3.587c8.181,2.294,15.397,6.598,22.074,11.735c3.437,2.644,6.52,5.747,9.773,8.632
		c0.958,0.849,1.949,1.661,2.926,2.491c1.104-1.578,0.76-3.388,0.764-5.119c0.019-9.276-0.026-18.552,0.002-27.828
		c0.005-1.722-0.363-3.522,0.682-5.286c2.223-1.035,5.069-0.365,7.146-2.117c-1.77-0.064-3.541-0.183-5.311-0.185
		C635.39,788.965,564.096,788.902,492.802,788.85z"/>
	<path fill="#223E91" d="M704.096,763.587c-0.054,0.09-0.164,0.269-0.164,0.269c-0.01,0.945-0.567,1.453-1.403,1.711
		c-5.079,1.57-10.109,3.328-15.25,4.656c-9.361,2.417-18.981,3.471-28.527,4.846c-4.923,0.709-9.938,0.761-14.904,1.198
		c-5.922,0.52-11.829,1.208-17.755,1.678c-3.048,0.242-6.126,0.103-9.184,0.256c-2.564,0.128-5.119,0.441-7.68,0.649
		c-1.284,0.104-2.572,0.22-3.858,0.222c-14.838,0.019-29.676,0.019-44.514,0.014c-1.127,0-2.307,0.116-3.372-0.165
		c-3.492-0.922-7.048-0.623-10.581-0.807c-2.885-0.151-5.758-0.551-8.644-0.686c-3.703-0.174-7.415-0.133-11.117-0.302
		c-2.726-0.124-5.441-0.454-8.164-0.654c-1.445-0.106-2.896-0.177-4.345-0.181c-8.871-0.022-17.741,0.002-26.612-0.039
		c-2.415-0.011-4.829-0.191-7.245-0.294c-0.64,6.167,1.697,10.415,7.198,13.088c1.609-0.068,3.217-0.196,4.825-0.195
		c71.294,0.052,142.588,0.115,213.882,0.186c1.77,0.002,3.541,0.12,5.311,0.185c5.468-2.984,8.192-7.812,7.506-13.307
		c-0.723-5.794-4.782-10.317-10.617-11.693c-1.554-0.366-3.17-0.464-4.758-0.684l0,0
		C704.126,763.537,704.114,763.557,704.096,763.587z"/>
	<path fill="#2363A9" d="M514.635,776.291c1.449,0.003,2.9,0.075,4.345,0.181c2.723,0.199,5.438,0.53,8.164,0.654
		c3.703,0.168,7.415,0.128,11.117,0.302c2.885,0.136,5.758,0.536,8.644,0.686c3.533,0.184,7.089-0.115,10.581,0.807
		c1.065,0.281,2.245,0.165,3.372,0.165c14.838,0.005,29.676,0.005,44.514-0.014c1.286-0.002,2.574-0.117,3.858-0.222
		c2.561-0.208,5.116-0.521,7.68-0.649c3.058-0.153,6.135-0.014,9.184-0.256c5.925-0.47,11.833-1.157,17.755-1.678
		c4.966-0.437,9.981-0.489,14.904-1.198c9.547-1.375,19.167-2.428,28.527-4.846c5.141-1.328,10.171-3.086,15.25-4.656
		c0.836-0.258,1.393-0.766,1.403-1.711c-1.607-0.066-3.213-0.165-4.82-0.192c-13.37-0.22-26.739-0.497-40.11-0.622
		c-21.271-0.199-42.544-0.484-63.814-0.384c-27.068,0.127-54.135,0.605-81.203,0.922c-4.351,0.051-8.702,0.075-13.053,0.068
		c-0.402-0.001-0.804-0.009-1.206-0.022c-1.205-0.039-2.411-0.123-3.617-0.174c-1.25,0.186-2.508,0.323-3.745,0.564
		c-6.817,1.328-10.31,4.941-11.586,11.941c2.415,0.104,4.83,0.283,7.245,0.294C496.894,776.292,505.765,776.269,514.635,776.291z"/>
	<path fill="#223E91" d="M690.702,818.448c-6.678-5.137-13.894-9.441-22.074-11.735c-7.922-2.221-15.944-3.608-24.286-3.587
		c-47.567,0.117-95.134,0.006-142.701-0.012c-1.93-0.001-3.86,0.152-5.791,0.234c0.043,1.982,0.085,3.964,0.127,5.945
		c1.76-0.174,3.522-0.338,5.282-0.522c4.949-0.517,9.895-1.07,14.848-1.556c3.676-0.361,7.354-0.755,11.041-0.924
		c3.861-0.178,7.734-0.078,11.6-0.161c0.955-0.021,1.904-0.397,2.859-0.411c3.687-0.056,7.377-0.09,11.063-0.016
		c1.921,0.038,3.851,0.551,5.754,0.445c6.314-0.353,12.524,0.774,18.767,1.257c6.713,0.52,13.378,1.71,20.051,2.691
		c9.242,1.359,18.354,3.344,27.327,5.941c7.885,2.282,15.763,4.591,23.625,6.952c10.681,3.207,21.071,7.073,30.101,13.86
		c1.273,0.957,2.424,2.076,3.63,3.12c0,0,0,0,0.001,0c2.692,0.24,5.385,0.479,8.082,0.718c4.671-0.074,8.027-2.902,11.4-5.573
		c1.708-1.352,2.581-3.245,1.994-5.543c-0.977-0.83-1.968-1.641-2.926-2.491C697.223,824.195,694.139,821.092,690.702,818.448z"/>
	<path fill="#2363A9" d="M571.839,183.64c2.396-0.011,4.789-0.432,7.187-0.608c1.763-0.129,3.533-0.178,5.3-0.244
		c5.776-0.217,11.597,0.431,17.319-0.902c0.615-0.143,1.283-0.081,1.927-0.086c6.6-0.055,13.12-0.962,19.655-1.769
		c4.141-0.511,8.314-0.762,12.466-1.195c2.394-0.249,4.78-0.594,7.161-0.954c8.251-1.249,16.62-1.769,24.727-3.912
		c3.421-0.904,6.898-1.757,9.736-4.029c0.691-0.553,1.056-1.513,1.572-2.285c-0.661-0.01-1.321-0.02-1.982-0.03
		c-1.419,0.182-2.839,0.522-4.259,0.524c-46.039,0.042-92.078,0.053-138.117,0.061c-0.964,0-1.929-0.082-2.892-0.127
		c-3.383,0.051-6.768,0.171-10.151,0.138c-1.076-0.011-1.927-0.058-2.62-0.191c-0.518-0.1-0.947-0.248-1.314-0.465
		c-0.049-0.029-0.092-0.064-0.138-0.095c-0.08-0.053-0.16-0.107-0.234-0.168c-0.864-0.713-1.361-1.959-1.996-4.127c0,0,0,0,0,0
		c-2.437,0.345-3.788,1.948-3.894,4.198c-0.253,5.412-0.232,10.836-0.321,16.255c2.092,0.046,4.184,0.133,6.277,0.131
		C535.443,183.738,553.641,183.724,571.839,183.64z M519.294,173.091c1.214-0.648,2.755-0.9,4.158-0.939
		c4.84-0.134,9.684-0.111,14.526-0.118c9.362-0.012,18.724-0.004,28.086-0.004c0-0.096-0.001-0.193-0.001-0.289
		c13.558-0.123,27.115-0.255,40.673-0.358c1.608-0.012,3.245-0.034,4.818,0.238c2.212,0.383,3.508,2.058,3.441,4.028
		c-0.06,1.757-1.246,3.252-3.243,3.726c-1.239,0.294-2.554,0.344-3.836,0.362c-5.165,0.073-10.33,0.079-15.495,0.131
		c-21.789,0.219-43.578,0.446-65.368,0.667c-1.452,0.015-2.914,0.103-4.355-0.026c-1.1-0.098-2.277-0.288-3.242-0.783
		C516.683,178.303,516.559,174.552,519.294,173.091z"/>
	<path fill="#223E91" d="M520.797,190.198c0.947-0.182,1.883-0.474,2.832-0.528c13.336-0.761,26.675-1.493,40.014-2.219
		c1.929-0.105,3.865-0.093,5.793-0.213c8.35-0.519,16.695-1.134,25.049-1.585c8.84-0.477,17.688-0.803,26.532-1.205
		c0.803-0.037,1.604-0.136,2.404-0.217c4.962-0.501,9.916-1.094,14.886-1.491c9.784-0.781,19.577-1.439,29.364-2.186
		c2.084-0.159,4.166-0.415,6.227-0.76c0.917-0.153,1.98-0.417,2.631-1.009c2.874-2.616,4.494-5.841,4.064-9.844
		c-0.013-0.117-0.034-0.225-0.064-0.325c-0.051-0.17-0.13-0.312-0.226-0.437c-0.017-0.022-0.03-0.048-0.048-0.068
		c-0.304-0.341-0.786-0.487-1.367-0.456c-0.515,0.772-0.881,1.731-1.572,2.285c-2.837,2.272-6.315,3.124-9.736,4.029
		c-8.106,2.143-16.476,2.663-24.727,3.912c-2.381,0.36-4.767,0.705-7.161,0.954c-4.152,0.433-8.325,0.684-12.466,1.195
		c-6.534,0.807-13.055,1.714-19.655,1.769c-0.644,0.005-1.312-0.057-1.927,0.086c-5.722,1.333-11.542,0.686-17.319,0.902
		c-1.767,0.066-3.537,0.115-5.3,0.244c-2.398,0.176-4.79,0.597-7.187,0.608c-18.197,0.084-36.396,0.098-54.594,0.119
		c-2.092,0.002-4.184-0.085-6.277-0.131c-0.656,2.518,0.478,4.26,2.49,5.563c0.787,0.509,1.675,0.862,2.517,1.286
		C517.581,190.384,519.187,190.291,520.797,190.198L520.797,190.198z"/>
	<path fill="#87A7A4" d="M473.409,633.935c0.144,1.416,0.289,2.832,0.434,4.248C474.432,636.693,474.231,635.282,473.409,633.935z"
		/>
	<path fill="#87A7A4" d="M472.477,626.198C472.477,626.198,472.477,626.198,472.477,626.198c-0.428,1.466-0.333,2.881,0.416,4.231
		c0,0,0,0,0,0C473.468,628.949,473.22,627.549,472.477,626.198z"/>
	<path fill="#87A7A4" d="M470.549,608.77c0.095,1.26,0.19,2.519,0.286,3.779C471.604,611.224,471.304,609.98,470.549,608.77z"/>
	<path fill="#C6D0CF" d="M485.012,708.349L485.012,708.349c0.147,0.981,0.294,1.962,0.44,2.942c0.35-0.428,0.532-0.831,0.563-1.212
		C486.068,709.444,485.704,708.872,485.012,708.349z"/>
	<path fill="#87A7A4" d="M481.636,690.457c0.324-0.795,0.341-1.546,0.123-2.264c-0.131-0.43-0.345-0.849-0.629-1.257
		C481.299,688.11,481.467,689.284,481.636,690.457z"/>
	<path fill="#87A7A4" d="M480.201,681.383c0.121,0.936,0.241,1.872,0.361,2.808C481.239,683.153,480.894,682.245,480.201,681.383z"
		/>
	<path fill="#87A7A4" d="M479.948,677.146c-0.083-0.542-0.32-1.065-0.675-1.571c-0.357,1.153-0.269,2.248,0.43,3.263
		C479.961,678.251,480.031,677.688,479.948,677.146z"/>
	<path fill="#87A7A4" d="M478.19,668.536c0.149,1.176,0.298,2.352,0.448,3.529C479.111,670.81,478.989,669.63,478.19,668.536z"/>
	<path fill="#87A7A4" d="M477.328,662.993C477.328,662.993,477.328,662.993,477.328,662.993c0.115,0.936,0.23,1.872,0.345,2.809
		c0,0,0,0,0,0C478.411,664.761,478.016,663.859,477.328,662.993z"/>
	<path fill="#87A7A4" d="M476.36,656.213c0.122,1.089,0.245,2.179,0.367,3.269C477.245,658.32,477.078,657.236,476.36,656.213z"/>
	<path fill="#87A7A4" d="M475.418,649.439c-0.396,1.149-0.284,2.238,0.387,3.261C476.324,651.536,476.09,650.461,475.418,649.439z"
		/>
	<path fill="#87A7A4" d="M474.384,641.688C474.384,641.688,474.384,641.688,474.384,641.688c0.101,0.937,0.201,1.874,0.302,2.812
		c0,0,0,0,0,0C475.328,643.483,475.082,642.562,474.384,641.688z"/>
	<path fill="#87A7A4" d="M472.144,619.469c-0.12-0.342-0.328-0.676-0.585-1.005c0.089,0.934,0.178,1.867,0.268,2.801c0,0,0,0,0,0
		C472.298,620.632,472.344,620.039,472.144,619.469z"/>
	<path fill="#C6D0CF" d="M488.948,728.682c0.103,0.663,0.206,1.327,0.308,1.991C490.138,729.857,489.775,729.233,488.948,728.682z"
		/>
	<path fill="#C6D0CF" d="M487.982,723.841c0.101,0.664,0.201,1.327,0.301,1.991C489.169,725.02,488.822,724.393,487.982,723.841z"/>
	<path fill="#C6D0CF" d="M486.775,714.821c-0.023-0.039-0.049-0.077-0.078-0.115c-0.057-0.076-0.125-0.15-0.201-0.223
		c-0.115-0.109-0.249-0.216-0.397-0.32c0.097,0.659,0.194,1.319,0.291,1.978l0,0C486.952,715.637,487.006,715.208,486.775,714.821z"
		/>
	<path fill="#C6D0CF" d="M487.025,719.001c0.099,0.663,0.199,1.326,0.298,1.989C488.197,720.181,487.871,719.552,487.025,719.001z"
		/>
	<path fill="#C6D0CF" d="M484.743,704.059c-0.14-0.192-0.352-0.374-0.616-0.548c0.093,0.664,0.185,1.327,0.278,1.991c0,0,0,0,0,0
		C485.008,704.953,485.051,704.482,484.743,704.059z"/>
	<path fill="#C6D0CF" d="M483.252,698.771c0.085,0.625,0.171,1.249,0.256,1.873c0.294-0.279,0.436-0.537,0.46-0.778
		C484.007,699.463,483.717,699.105,483.252,698.771z"/>
	<path fill="#C6D0CF" d="M493.564,747.838c-0.035-0.08-0.083-0.157-0.143-0.232c-0.029-0.037-0.062-0.075-0.098-0.111
		c-0.142-0.146-0.327-0.286-0.543-0.419v0c0.116,0.664,0.232,1.328,0.347,1.993C493.618,748.598,493.722,748.195,493.564,747.838z"
		/>
	<path fill="#C6D0CF" d="M491.541,738.905c-0.144-0.189-0.355-0.367-0.609-0.539c0.102,0.66,0.203,1.319,0.305,1.979v0
		C491.845,739.786,491.857,739.32,491.541,738.905z"/>
	<path fill="#C6D0CF" d="M489.916,733.522c0.108,0.662,0.216,1.325,0.324,1.987c0.383-0.36,0.531-0.682,0.506-0.975
		C490.714,734.157,490.395,733.827,489.916,733.522z"/>
	<path fill="#C6D0CF" d="M740.283,392.153c0.454,3.704,0.575,7.384,0.641,11.087c0.082,4.678-0.023,9.367,0.263,14.032
		c0.414,6.742,1.086,13.47,1.69,20.2c0.374,4.169,0.555,8.379,1.291,12.486c2.557,14.267,5.352,28.492,7.988,42.745
		c1.524,8.234,2.943,16.487,4.358,24.741c0.844,4.918,1.326,9.912,2.428,14.769c3.323,14.639,7.514,29.043,13.016,43.021
		c5.196,13.2,10.257,26.459,16.356,39.293c3.321,6.987,6.236,14.165,9.385,21.234c3.28,7.365,6.556,14.732,9.959,22.041
		c2.451,5.265,5.309,10.346,7.631,15.664c4.979,11.405,11.164,22.184,16.852,33.222c0.096,0.187,0.198,0.369,0.305,0.543
		c0.751,1.223,1.784,2.118,3.328,2.359c0.06-0.481,0.171-0.961,0.171-1.44c0.002-9.675-0.005-19.35-0.026-29.025
		c-0.002-0.803-0.099-1.608-0.175-2.409c-0.56-5.916-1.147-11.829-1.683-17.747c-0.421-4.642-0.593-9.314-1.209-13.928
		c-1.063-7.962-2.266-15.911-3.625-23.828c-1.959-11.412-3.813-22.855-6.259-34.167c-2.754-12.737-5.901-25.4-9.275-37.989
		c-3.293-12.287-7.089-24.44-10.664-36.652c-1.313-4.483-2.554-8.988-3.966-13.439c-1.021-3.218-2.196-6.393-3.438-9.534
		c-1.302-3.294-2.927-6.465-4.132-9.791c-6.098-16.838-13.515-33.109-21.125-49.295c-1.849-3.931-4.184-7.631-6.116-11.526
		c-6.032-12.161-13.337-23.547-20.981-34.731c-0.8-1.17-1.446-2.566-2.994-3.03C740.247,384.761,739.838,388.509,740.283,392.153z"
		/>
	<path fill="#3A2684" d="M595.795,285.532c-0.85,0.846-1.886,0.819-2.956,0.632c-3.534,1.043-6.996,2.239-10.307,3.807
		c-0.241,0.114-0.481,0.231-0.72,0.349c-1.071,0.529-2.127,1.097-3.162,1.717c-0.296,0.177-0.591,0.359-0.884,0.545
		c-7.474,4.739-13.512,10.928-18.635,18.063c-8.376,11.665-14.005,24.631-17.799,38.398c-8.48,30.775-8.904,61.727-1.495,92.754
		c3.162,13.24,8.02,25.856,15.313,37.421c7.461,11.831,16.852,21.574,30.097,27.001c0.073,0.03,0.144,0.066,0.213,0.105
		c0.208,0.119,0.402,0.272,0.606,0.399l0,0v0c0.698,0.299,1.396,0.598,2.095,0.895c0.001-0.001,0.1-0.12,0.107-0.126
		c0,0,0.002-0.002,0.002-0.002c1.273,0.186,2.558,0.308,3.814,0.568c8.379,1.74,16.376,0.395,24.101-3.001
		c5.065-2.227,9.575-5.327,13.706-8.994c7.583-6.733,13.394-14.843,18.127-23.722c11.305-21.208,16.109-44.116,17.214-67.899
		c0.419-9.019,0.229-18.051-0.712-27.063c-1.871-17.942-5.935-35.291-13.722-51.642c-4.823-10.126-10.866-19.42-19.253-27.028
		c-7.591-6.884-16.194-11.738-26.552-12.858c-0.758-0.082-1.518-0.135-2.281-0.17c-2.288-0.104-4.594-0.044-6.887-0.103l0,0
		C595.823,285.578,595.795,285.532,595.795,285.532z M617.127,304.556c6.1,3.817,11.161,8.68,15.271,14.606
		c5.098,7.35,8.896,15.321,11.965,23.683c3.46,9.427,5.628,19.193,7.173,29.064c1.32,8.44,1.685,16.997,1.345,25.558
		c0,2.098-0.002,4.195,0,6.292c0.009,8.567-1.125,16.998-2.559,25.438c-1.824,10.731-5.122,20.98-9.227,30.991
		c-3.391,8.269-8.12,15.832-14.054,22.465c-5.769,6.448-12.679,11.454-21.48,13.196c-6.206,1.229-12.165,0.485-17.97-1.975
		c-7.52-3.187-13.214-8.618-18.113-14.91c-7.952-10.214-12.73-21.983-16.388-34.284c-2.259-7.598-3.664-15.38-4.625-23.197
		c-0.883-7.176-1.316-14.417-1.356-21.691c-0.073-13.286,1.288-26.411,4.199-39.316c2.559-11.342,6.306-22.356,11.971-32.608
		c4.094-7.409,9.182-14.07,15.693-19.501c6.633-5.533,14.19-8.897,23.061-8.462C607.449,300.171,612.507,301.665,617.127,304.556z"
		/>
	<path fill="#C6D0CF" d="M717.646,506.458c0-12.42,0.097-24.841-0.04-37.26c-0.071-6.434-0.565-12.864-0.849-19.297
		c-0.376-8.526-0.733-17.053-1.101-25.58c-0.014-0.322-0.058-0.642-0.085-0.963c-0.577-6.891-1.169-13.782-1.727-20.675
		c-0.402-4.972-0.684-9.955-1.157-14.92c-0.518-5.443-1.184-10.873-1.802-16.307c-0.418-3.677-0.803-7.359-1.309-11.024
		c-0.77-5.577-1.623-11.144-2.459-16.712c-1.099-7.321-1.995-14.681-3.373-21.95c-2.702-14.241-5.482-28.47-9.287-42.478
		c-2.833-10.433-5.871-20.793-9.93-30.822c-1.086-2.681-2.421-5.279-3.844-7.801c-1.129-2.002-3.173-2.011-5.156-1.644
		c-1.795,0.332-3.104,1.805-3.337,3.688c-0.221,1.785-0.05,3.534,0.723,5.203c0.746,1.609,1.475,3.227,2.138,4.871
		c3.742,9.286,6.808,18.807,9.383,28.466c2.241,8.404,4.285,16.876,5.998,25.402c2.06,10.254,3.746,20.585,5.46,30.906
		c0.975,5.871,1.695,11.784,2.504,17.681c0.459,3.348,0.871,6.702,1.292,10.054c0.522,4.149,1.108,8.292,1.525,12.452
		c0.465,4.642,0.752,9.302,1.152,13.951c0.331,3.846,0.704,7.689,1.076,11.531c0.526,5.442,1.195,10.874,1.565,16.326
		c0.327,4.815,0.47,9.635,0.863,14.457c0.744,9.142,0.892,18.336,1.169,27.511c0.17,5.642-0.33,11.339,0.285,16.922
		c0.693,6.29,0.556,12.552,0.605,18.827c0.075,9.677,0.017,19.356,0.005,29.034c-0.002,1.451,0.157,2.949-0.141,4.343
		c-0.788,3.675-0.576,7.382-0.677,11.083c-0.203,7.403-0.273,14.8-0.708,22.21c-0.49,8.347-0.956,16.716-1.302,25.082
		c-0.233,5.627-0.714,11.243-1.085,16.864c-0.011,0.16-0.043,0.32-0.061,0.48c-0.549,4.955-1.289,9.897-1.604,14.867
		c-0.551,8.683-1.835,17.273-2.813,25.904c-1.069,9.441-2.478,18.82-3.982,28.195c-2.043,12.729-4.605,25.351-7.664,37.871
		c-1.109,4.539-2.388,9.037-3.538,13.567c-0.665,2.622,0.693,5.478,2.969,6.454c2.172,0.932,4.747,0.041,6.259-2.285
		c0.517-0.796,0.862-1.73,1.146-2.644c0.478-1.537,0.847-3.108,1.259-4.666c2.795-10.599,5.218-21.284,7.124-32.078
		c1.596-9.034,3.077-18.088,4.513-27.148c0.856-5.403,1.564-10.831,2.269-16.256c0.602-4.625,1.144-9.259,1.643-13.896
		c0.482-4.479,0.915-8.964,1.298-13.452c0.438-5.131,0.766-10.271,1.197-15.402c0.525-6.25,1.227-12.488,1.628-18.745
		c0.35-5.459,0.432-10.926,0.849-16.395c0.574-7.532,0.797-15.118,1-22.675c0.369-13.701,0.105-27.418,0.105-41.129
		C717.628,506.458,717.637,506.458,717.646,506.458z"/>
	<path fill="#C6D0CF" d="M656.319,243.429c-1.94-6.47-4.06-12.886-6.074-19.335c-0.537-1.721-1.228-3.312-2.7-4.462
		c-1.562-1.22-3.357-1.301-4.88-0.104c-1.78,1.4-2.771,3.121-2.004,5.472c0.3,0.918,0.599,1.837,0.863,2.765
		c2.156,7.577,4.328,15.15,6.444,22.739c0.994,3.561,1.856,7.159,2.817,10.729c0.507,1.886,1.351,3.598,2.735,5.034
		c1.494,1.552,3.24,2.071,5.266,1.375c1.771-0.608,2.765-2.401,2.715-5.134c-0.101-0.483-0.247-1.436-0.501-2.36
		C659.462,254.57,657.982,248.972,656.319,243.429z"/>
	<path fill="#C6D0CF" d="M665.109,210.933c-2.521-0.108-4.364,1.519-4.497,3.971c-0.136,2.499,1.488,4.369,3.935,4.534
		c2.457,0.165,4.547-1.634,4.534-3.904C669.067,213.044,667.327,211.029,665.109,210.933z"/>
	<path fill="#87A7A4" d="M595.795,285.532c-0.136-0.034-0.271-0.062-0.404-0.085c-0.401-0.068-0.79-0.084-1.163-0.02
		c-0.497,0.085-0.965,0.31-1.389,0.737C593.909,286.351,594.946,286.378,595.795,285.532z"/>
	<path fill="#87A7A4" d="M586.066,506.724L586.066,506.724c0.44,0.904,1.111,1.266,2.095,0.895
		C587.462,507.322,586.764,507.023,586.066,506.724z"/>
	<path fill="#E77F1F" d="M518.618,853.646c-0.835,4.909-1.853,9.805-2.339,14.751c-0.454,4.627-0.239,9.281-0.891,13.95
		c-0.751,5.383,0.205,10.948-1.125,16.34c0,10,0.001,19.999-0.003,29.999c-0.001,1.941,0.321,3.782,1.624,5.701
		c0.739-0.574,1.362-1.014,1.938-1.51c5.489-4.73,10.99-9.442,17.156-13.299c0.683-0.427,1.339-0.915,2.065-1.251
		c5.552-2.569,11.027,0.835,11.084,6.97c0.019,2.073-0.339,4.153-0.563,6.226c-0.429,3.991-1.255,7.98-1.251,11.969
		c0.008,7.228-0.85,14.505,0.771,21.689c0.243,1.079,0.068,2.25,0.11,3.378c0.036,0.965-0.018,1.956,0.181,2.89
		c1.812,8.499,3.562,17.015,6.083,25.344c0.23,0.761,0.594,1.491,0.965,2.198c0.365,0.694,1.695,0.698,2.042-0.023
		c0.976-2.032,1.917-4.026,3.542-5.706c2.227-2.302,4.724-2.619,7.506-1.543c1.025,0.396,1.964,1.105,2.825,1.814
		c1.539,1.267,2.423,2.982,3.01,4.869c1.579,5.077,3.159,10.154,4.77,15.22c3.278,10.302,7.317,20.318,11.927,30.08
		c2.262,4.789,5.204,9.261,7.896,13.842c0.558,0.948,1.254,1.923,2.838,1.789c0.325-0.354,0.843-0.758,1.156-1.283
		c2.064-3.455,4.197-6.876,6.095-10.421c4.884-9.118,8.585-18.749,11.964-28.498c1.899-5.478,3.483-11.065,5.29-16.577
		c0.752-2.293,1.48-4.648,2.643-6.739c1.424-2.56,3.308-4.714,6.76-4.696c3.427,0.018,5.931,1.213,7.283,4.482
		c0.368,0.891,0.842,1.745,1.341,2.572c0.421,0.696,0.953,1.319,2.235,0.954c0.45-1.148,1.102-2.434,1.462-3.796
		c2.506-9.483,5.372-18.897,5.835-28.796c0.03-0.64,0.201-1.272,0.27-1.911c0.224-2.073,0.559-4.144,0.615-6.222
		c0.102-3.707,0.039-7.418,0.029-11.128c-0.007-2.897-0.102-5.753-0.696-8.642c-0.708-3.445-0.886-7.005-1.199-10.523
		c-0.128-1.439-0.163-2.924,0.05-4.344c0.159-1.06,0.587-2.2,1.234-3.046c2.73-3.571,6.791-4.405,10.698-1.857
		c4.171,2.72,8.56,5.152,12.155,8.728c2.275,2.262,4.84,4.236,7.314,6.292c0.315,0.262,0.869,0.237,1.305,0.343
		c1.505-1.328,1.085-3.037,1.09-4.587c0.034-10.806,0.026-21.612,0.008-32.418c-0.002-1.286,0.007-2.6-0.238-3.853
		c-1.179-6.02-1.179-12.168-1.507-18.228c-0.472-8.714-1.408-17.285-3.367-25.774c-0.256-1.112-0.472-2.234-0.67-3.359
		c-0.329-1.876-0.607-3.764-0.937-5.64c-4.524-0.118-9.048-0.235-13.572-0.353c0,0,0.033,0.113,0.033,0.113l0,0l0,0l0,0c0,0,0,0,0,0
		c-0.01-0.001-0.021-0.001-0.032-0.002c0.02,6.412,0.02,12.824,0.08,19.236c0.01,1.117,0.331,2.228,0.419,3.348
		c0.126,1.6,0.306,3.214,0.221,4.81c-0.188,3.532-0.469,7.061-0.818,10.58c-0.461,4.638-1.038,9.265-1.534,13.9
		c-0.171,1.6-0.294,3.208-0.361,4.815c-0.081,1.95-0.371,3.827-1.388,5.487c-1.077,0.316-1.497-0.441-1.975-1.064
		c-5.191-6.776-10.339-13.586-15.59-20.315c-1.382-1.771-2.963-3.429-4.658-4.903c-3.047-2.649-6.172-2.537-9.088,0.216
		c-2.389,2.255-3.381,5.025-2.68,8.32c0.535,2.518,1.053,5.04,1.534,7.568c1.897,9.999,0.866,19.872-1.306,29.696
		c-3.409,15.42-9.783,29.636-17.546,43.295c-2.309,4.062-4.528,8.175-6.843,12.233c-0.636,1.114-1.415,2.161-2.231,3.155
		c-0.955,1.163-2.443,1.214-3.312,0.006c-1.692-2.353-3.419-4.712-4.805-7.247c-3.556-6.506-7.132-13.015-10.336-19.698
		c-4.601-9.599-8.753-19.412-11.133-29.842c-1.941-8.504-3.211-17.13-2.475-25.867c0.363-4.311,1.328-8.586,2.256-12.827
		c0.439-2.007,0.412-3.878-0.468-5.642c-0.63-1.264-1.473-2.526-2.516-3.459c-2.657-2.374-5.574-2.454-8.338-0.211
		c-1.617,1.313-3.127,2.828-4.412,4.465c-5.171,6.588-10.231,13.264-15.344,19.897c-0.664,0.862-1.404,1.666-2.364,2.798
		c-1.328-1.698-1.649-3.373-1.797-5.1c-0.712-8.333-1.399-16.667-2.122-24.999c-0.097-1.119-0.434-2.219-0.513-3.338
		c-0.126-1.763-0.397-3.576-0.137-5.297c0.681-4.513,0.818-9.037,0.81-13.563c-0.007-3.485-0.099-6.971-0.096-10.456
		c-0.011,0-0.022,0.001-0.033,0.002c0,0,0,0,0,0l0,0l0,0l0,0c0,0.001,0.033-0.111,0.033-0.111c0,0.036,0,0.072,0,0.108l0,0
		c0-0.036,0-0.071,0-0.107c0,0,0-0.001,0-0.001v0c-4.524,0.117-9.049,0.235-13.573,0.352l0,0c-0.396,2.213-0.799,4.424-1.198,6.637
		C519.39,849.217,518.996,851.43,518.618,853.646z"/>
	<path fill="#C6D0CF" d="M459.828,376.369c0.105-0.071,0.198-0.144,0.28-0.22c0.577-0.531,0.622-1.189,0.246-1.949
		C459.396,374.733,458.828,375.36,459.828,376.369z"/>
	<path fill="#E8F4F5" d="M586.189,76.716c-1.148-0.825-2.957-0.921-4.063,0.029c-0.963,0.827-1.832,1.822-2.538,2.879
		c-5.849,8.742-10.656,18.02-14.215,27.928c-0.325,0.904-0.584,1.832-0.742,2.331c-0.206,2.407,0.733,4.033,2.428,4.717
		c1.648,0.664,3.533,0.094,4.64-1.575c0.615-0.928,1.096-1.978,1.456-3.035c3.241-9.509,7.717-18.408,13.136-26.852
		c0.517-0.805,0.98-1.678,1.276-2.583C588.021,79.17,587.373,77.566,586.189,76.716z"/>
	<polygon fill="#EEB346" points="534.526,840.126 534.526,840.126 534.526,840.126 	"/>
	<polygon fill="#EEB346" points="665.459,840.125 665.459,840.125 665.458,840.125 	"/>
	<path fill="#EEB346" d="M665.426,840.013L665.426,840.013C665.426,840.013,665.426,840.013,665.426,840.013
		c0,0.036,0,0.071,0,0.107c0.011,0.002,0.021,0.004,0.032,0.006C665.459,840.125,665.426,840.013,665.426,840.013z"/>
	<path fill="#EEB346" d="M534.559,840.123c0-0.036,0-0.072,0-0.108c0,0-0.033,0.111-0.033,0.111
		C534.537,840.125,534.548,840.124,534.559,840.123z"/>
	<path fill="#EEB346" d="M534.559,840.125c-0.003,3.485,0.089,6.971,0.096,10.456c0.009,4.527-0.128,9.051-0.81,13.563
		c-0.26,1.721,0.011,3.533,0.137,5.297c0.08,1.119,0.416,2.219,0.513,3.338c0.723,8.331,1.41,16.666,2.122,24.999
		c0.148,1.727,0.468,3.401,1.797,5.1c0.959-1.131,1.699-1.935,2.364-2.798c5.114-6.633,10.174-13.308,15.344-19.897
		c1.285-1.638,2.795-3.152,4.412-4.465c2.763-2.243,5.681-2.163,8.338,0.211c1.044,0.933,1.886,2.195,2.516,3.459
		c0.88,1.763,0.906,3.635,0.468,5.642c-0.928,4.24-1.893,8.516-2.256,12.827c-0.736,8.738,0.534,17.363,2.475,25.867
		c2.381,10.43,6.532,20.242,11.133,29.842c3.203,6.683,6.779,13.191,10.336,19.698c1.386,2.535,3.113,4.895,4.805,7.247
		c0.869,1.208,2.357,1.157,3.312-0.006c0.816-0.994,1.595-2.041,2.231-3.155c2.316-4.058,4.535-8.171,6.843-12.233
		c7.763-13.659,14.137-27.875,17.546-43.295c2.172-9.825,3.204-19.697,1.306-29.696c-0.48-2.529-0.998-5.051-1.534-7.568
		c-0.701-3.295,0.291-6.065,2.68-8.32c2.917-2.753,6.042-2.865,9.088-0.216c1.695,1.474,3.276,3.133,4.658,4.903
		c5.251,6.729,10.399,13.539,15.59,20.315c0.478,0.623,0.897,1.379,1.975,1.064c1.017-1.659,1.307-3.537,1.388-5.487
		c0.067-1.607,0.19-3.215,0.361-4.815c0.496-4.635,1.073-9.262,1.534-13.9c0.35-3.52,0.631-7.049,0.818-10.58
		c0.085-1.595-0.095-3.209-0.221-4.81c-0.088-1.121-0.409-2.231-0.419-3.348c-0.06-6.412-0.06-12.824-0.08-19.236
		c-1.796-0.084-3.593-0.168-5.389-0.252c-0.455,0.097-0.984,0.222-1.648,0.381c-1.224,1.346-0.89,3.016-0.884,4.593
		c0.014,4.182,0.12,8.364,0.125,12.546c0.001,1.112-0.057,2.279-0.392,3.323c-0.472,1.475-1.605,2.378-3.219,2.509
		c-1.426,0.116-2.684-0.721-3.323-2.303c-0.297-0.734-0.54-1.536-0.582-2.319c-0.347-6.411-0.641-12.824-0.949-19.237
		c-4.058-0.19-8.118-0.38-12.178-0.57c-0.036,0.031-0.072,0.056-0.107,0.055c-0.024-0.001-0.049-0.001-0.073-0.002
		c-0.359,0.152-0.61,0.35-0.779,0.584c-0.416,0.577-0.353,1.363-0.302,2.147c0.144,2.229,0.373,4.458,0.374,6.687
		c0.001,1.083-0.317,2.209-0.7,3.238c-0.477,1.283-1.472,2.076-2.918,2.108c-1.636,0.037-2.767-0.836-3.37-2.246
		c-0.365-0.853-0.472-1.853-0.523-2.796c-0.103-1.915-0.007-3.842-0.152-5.753c-0.107-1.411-0.464-2.803-0.702-4.203
		c-3.371-0.087-6.751-0.173-10.13-0.26c-0.107,3.357-0.213,6.714-0.322,10.07c-0.073,2.242-0.172,4.484-0.223,6.727
		c-0.073,3.208-0.077,6.417-0.189,9.624c-0.039,1.108-0.184,2.246-0.509,3.301c-0.458,1.489-1.546,2.431-3.151,2.578
		c-1.472,0.134-3.001-1.043-3.531-2.749c-0.234-0.753-0.374-1.571-0.368-2.359c0.077-9.14,0.19-18.28,0.297-27.42
		c-1.769-0.057-3.542-0.115-5.314-0.172c0.039,21.265,0.095,42.53,0.11,63.795c0.008,11.592,0.693,23.152,1.489,34.709
		c0.183,2.653-1.164,4.244-3.894,4.417c-1.284,0.081-2.58,0.069-3.866,0.005c-2.435-0.122-4.046-1.593-3.96-3.928
		c0.208-5.626,0.57-11.247,0.884-16.869c0.125-2.247,0.406-4.491,0.415-6.737c0.09-23.36,0.138-46.719,0.201-70.079
		c0.005-1.772,0.047-3.543,0.073-5.315c-1.762,0.056-3.526,0.112-5.289,0.168c0.073,9.339,0.148,18.677,0.213,28.015
		c0.003,0.481-0.035,0.97-0.128,1.441c-0.349,1.757-1.716,3.121-3.168,3.203c-1.466,0.083-3.108-1.014-3.714-2.605
		c-0.282-0.739-0.514-1.557-0.506-2.337c0.086-8.854-1.409-17.657-0.849-26.525c0.02-0.321,0.07-0.64,0.108-0.961
		c-3.125,0.083-6.252,0.167-9.38,0.251c-1.352,2.488-1.508,5.209-1.593,7.956c-0.044,1.442-0.056,2.912-0.355,4.311
		c-0.356,1.665-1.953,2.766-3.531,2.747c-1.434-0.017-2.579-0.901-3.2-2.512c-0.782-2.027-0.566-4.118-0.35-6.204
		c0.132-1.277,0.378-2.549,0.411-3.827c0.025-0.978-0.259-1.928-1.348-2.272c-4.049,0.192-8.138,0.377-12.229,0.562
		c0.012,0.804,0.149,1.629,0.016,2.408c-0.899,5.259-0.788,10.569-0.921,15.87c-0.027,1.1-0.269,2.24-0.648,3.275
		c-0.59,1.61-1.883,2.424-3.312,2.307c-1.618-0.132-2.741-1.044-3.205-2.523c-0.329-1.048-0.38-2.212-0.384-3.326
		c-0.014-3.86,0.049-7.721,0.078-11.581c0.009-1.125,0.069-2.255-0.008-3.375c-0.1-1.444-0.572-2.277-1.638-2.587
		C538.731,839.93,536.645,840.028,534.559,840.125z"/>
	<path fill="#E76D1E" d="M595.675,843.267c-0.064,23.36-0.111,46.719-0.201,70.079c-0.009,2.246-0.289,4.49-0.415,6.737
		c-0.314,5.622-0.677,11.243-0.884,16.869c-0.086,2.335,1.525,3.806,3.96,3.928c1.286,0.064,2.582,0.076,3.866-0.005
		c2.729-0.173,4.076-1.764,3.894-4.417c-0.797-11.556-1.481-23.117-1.489-34.709c-0.016-21.265-0.071-42.53-0.11-63.795
		c-0.712-0.158-1.424-0.277-2.136-0.356c-0.712-0.079-1.424-0.119-2.136-0.12c-1.424-0.001-2.849,0.157-4.274,0.474
		C595.723,839.724,595.68,841.495,595.675,843.267z"/>
	<path fill="#E76D1E" d="M582.307,839.312c-0.56,8.867,0.935,17.67,0.849,26.525c-0.008,0.78,0.224,1.598,0.506,2.337
		c0.605,1.591,2.247,2.687,3.714,2.605c1.452-0.082,2.82-1.446,3.168-3.203c0.093-0.471,0.132-0.96,0.128-1.441
		c-0.065-9.338-0.141-18.677-0.213-28.015c-2.681,0.077-5.361,0.154-8.043,0.232C582.377,838.672,582.327,838.991,582.307,839.312z"
		/>
	<path fill="#E76D1E" d="M609.313,865.546c-0.007,0.787,0.134,1.605,0.368,2.359c0.53,1.705,2.058,2.883,3.531,2.749
		c1.606-0.146,2.693-1.089,3.151-2.578c0.324-1.055,0.47-2.193,0.509-3.301c0.112-3.206,0.116-6.416,0.189-9.624
		c0.052-2.243,0.151-4.485,0.223-6.727c0.109-3.357,0.215-6.713,0.322-10.07c-2.665-0.076-5.329-0.152-7.996-0.228
		C609.503,847.266,609.389,856.406,609.313,865.546z"/>
	<path fill="#E76D1E" d="M542.455,842.419c0.078,1.12,0.017,2.25,0.008,3.375c-0.029,3.86-0.092,7.721-0.078,11.581
		c0.004,1.113,0.056,2.278,0.384,3.326c0.464,1.479,1.587,2.391,3.205,2.523c1.429,0.117,2.722-0.697,3.312-2.307
		c0.379-1.035,0.621-2.175,0.648-3.275c0.133-5.301,0.022-10.61,0.921-15.87c0.133-0.779-0.004-1.604-0.016-2.408
		c-3.341,0.156-6.682,0.312-10.022,0.468C541.883,840.143,542.355,840.976,542.455,842.419z"/>
	<path fill="#E76D1E" d="M534.526,840.126L534.526,840.126L534.526,840.126C534.526,840.126,534.526,840.126,534.526,840.126
		c0.012-0.001,0.023-0.001,0.033-0.002c2.086-0.097,4.172-0.195,6.258-0.293c-0.301-0.087-0.645-0.135-1.046-0.142
		c-1.091-0.016-2.185,0.096-3.278,0.221c-0.645,0.074-1.289,0.152-1.934,0.211l0,0C534.548,840.124,534.537,840.125,534.526,840.126
		z"/>
	<path fill="#E76D1E" d="M650.114,858.602c0.043,0.783,0.286,1.585,0.582,2.319c0.639,1.582,1.898,2.419,3.323,2.303
		c1.615-0.131,2.748-1.034,3.219-2.509c0.335-1.045,0.393-2.211,0.392-3.323c-0.006-4.182-0.111-8.364-0.125-12.546
		c-0.006-1.576-0.339-3.247,0.884-4.593c0.664-0.158,1.193-0.284,1.648-0.381c-3.624-0.169-7.248-0.338-10.873-0.508
		C649.473,845.777,649.767,852.191,650.114,858.602z"/>
	<path fill="#E76D1E" d="M665.427,840.124c0.011,0.001,0.021,0.001,0.032,0.002c0,0,0,0,0,0l0,0l0,0
		c-0.011-0.002-0.021-0.004-0.032-0.006c-1.377-0.248-2.243-0.404-2.959-0.459c-0.821-0.064-1.45,0.004-2.43,0.212l0,0
		C661.834,839.956,663.63,840.04,665.427,840.124z"/>
	<path fill="#E76D1E" d="M564.417,841.074c-0.033,1.278-0.279,2.55-0.411,3.827c-0.216,2.085-0.432,4.177,0.35,6.204
		c0.621,1.61,1.766,2.495,3.2,2.512c1.579,0.019,3.176-1.081,3.531-2.747c0.299-1.399,0.311-2.869,0.355-4.311
		c0.085-2.747,0.241-5.468,1.593-7.956c-3.309,0.069-6.617,0.138-9.967,0.199C564.158,839.146,564.442,840.096,564.417,841.074z"/>
	<path fill="#E76D1E" d="M636.807,838.847c0.024,0.001,0.049,0.001,0.073,0.002c0.035,0.001,0.071-0.024,0.107-0.055l0,0
		c0.056-0.048,0.112-0.116,0.167-0.161c-0.072,0.053-0.143,0.106-0.215,0.159C636.892,838.809,636.851,838.829,636.807,838.847
		L636.807,838.847L636.807,838.847z"/>
	<path fill="#E76D1E" d="M636.807,838.847c-3.021-0.07-6.042-0.152-9.072-0.233c0.238,1.4,0.595,2.792,0.702,4.203
		c0.144,1.91,0.049,3.838,0.152,5.753c0.051,0.943,0.158,1.943,0.523,2.796c0.603,1.41,1.734,2.283,3.37,2.246
		c1.446-0.032,2.442-0.826,2.918-2.108c0.383-1.029,0.7-2.155,0.7-3.238c-0.001-2.229-0.23-4.458-0.374-6.687
		c-0.051-0.784-0.114-1.57,0.302-2.147C636.197,839.197,636.448,838.999,636.807,838.847z"/>
	<path fill="#223E91" d="M582.749,167.413c-15.294,0.02-30.588,0.049-45.882,0.125c-0.218,0.001-0.436,0.007-0.654,0.018
		c-0.242,0.012-0.483,0.03-0.725,0.051c-1.284,0.112-2.567,0.336-3.852,0.476c0.963,0.044,1.928,0.127,2.892,0.127
		c46.039-0.008,92.078-0.018,138.117-0.061c1.42-0.001,2.839-0.341,4.259-0.524c-1.924-0.102-3.848-0.294-5.773-0.293
		C641.671,167.344,612.21,167.374,582.749,167.413z"/>
	<path fill="#E8F4F5" d="M519.456,179.727c0.965,0.496,2.142,0.685,3.242,0.783c1.441,0.129,2.903,0.04,4.355,0.026
		c21.789-0.221,43.578-0.448,65.368-0.667c5.165-0.052,10.33-0.058,15.495-0.131c1.282-0.018,2.597-0.068,3.836-0.362
		c1.996-0.474,3.182-1.969,3.243-3.726c0.068-1.97-1.229-3.646-3.441-4.028c-1.573-0.272-3.211-0.25-4.818-0.238
		c-13.558,0.104-27.116,0.235-40.673,0.358c0,0.096,0.001,0.193,0.001,0.289c-9.362,0-18.724-0.009-28.086,0.004
		c-4.842,0.006-9.686-0.016-14.526,0.118c-1.403,0.039-2.944,0.29-4.158,0.939C516.559,174.552,516.683,178.303,519.456,179.727z"/>
	<path fill="#2363A9" d="M578.971,308.368c-6.511,5.431-11.599,12.092-15.693,19.501c-5.665,10.252-9.412,21.266-11.971,32.608
		c-2.911,12.905-4.272,26.031-4.199,39.316c0.04,7.274,0.474,14.515,1.356,21.691c0.961,7.817,2.366,15.6,4.625,23.197
		c3.658,12.301,8.436,24.07,16.388,34.284c4.899,6.292,10.592,11.723,18.113,14.91c5.805,2.46,11.764,3.204,17.97,1.975
		c8.8-1.742,15.711-6.748,21.48-13.196c5.934-6.632,10.664-14.195,14.054-22.465c4.105-10.011,7.404-20.26,9.227-30.991
		c1.434-8.44,2.568-16.871,2.559-25.438c-0.002-2.097,0-4.195,0-6.292c0.34-8.561-0.025-17.118-1.345-25.558
		c-1.544-9.871-3.713-19.637-7.173-29.064c-3.069-8.362-6.867-16.333-11.965-23.683c-4.111-5.926-9.172-10.789-15.271-14.606
		c-4.619-2.891-9.678-4.385-15.094-4.651C593.161,299.471,585.604,302.835,578.971,308.368z M631.45,336.272
		c5.811,10.224,9.375,21.128,11.726,32.583c2.61,12.722,3.256,25.551,2.753,38.451c-0.206,5.284-1.04,10.557-1.818,15.801
		c-1.137,7.66-2.851,15.192-5.508,22.496c-2.768,7.608-6.104,14.907-10.817,21.545c-4.748,6.686-10.415,12.242-18.086,15.515
		c-6.907,2.947-13.767,2.935-20.635-0.12c-3.413-1.518-6.709-3.298-9.401-5.862c-2.551-2.43-4.819-5.179-7.044-7.924
		c-4.202-5.183-6.938-11.21-9.597-17.265c-4.118-9.379-6.359-19.31-7.841-29.348c-1.077-7.299-1.098-14.753-1.59-22.138
		c0.118-0.008,0.237-0.016,0.356-0.024c0-1.775-0.048-3.551,0.007-5.324c0.5-16.229,3.235-31.988,9.486-47.086
		c2.672-6.455,5.774-12.638,10.176-18.039c4.282-5.254,8.916-10.164,15.421-12.903c9.733-4.098,18.907-3.228,27.539,2.752
		C622.909,323.769,627.627,329.546,631.45,336.272z"/>
	<path fill="#223E91" d="M589.037,316.631c-6.505,2.739-11.139,7.648-15.421,12.903c-4.402,5.401-7.504,11.584-10.176,18.039
		c-6.251,15.098-8.985,30.857-9.486,47.086c-0.055,1.773-0.007,3.549-0.007,5.324c-0.119,0.008-0.238,0.016-0.356,0.024
		c0.492,7.385,0.513,14.839,1.59,22.138c1.482,10.038,3.724,19.969,7.841,29.348c2.658,6.054,5.394,12.081,9.597,17.265
		c2.225,2.745,4.493,5.494,7.044,7.924c2.691,2.564,5.988,4.344,9.401,5.862c6.868,3.055,13.728,3.068,20.635,0.12
		c7.671-3.273,13.339-8.829,18.086-15.515c4.713-6.638,8.049-13.937,10.817-21.545c2.657-7.304,4.372-14.836,5.508-22.496
		c0.778-5.244,1.612-10.517,1.818-15.801c0.503-12.899-0.143-25.729-2.753-38.451c-2.35-11.455-5.915-22.359-11.726-32.583
		c-3.823-6.726-8.541-12.503-14.873-16.889C607.944,313.404,598.77,312.534,589.037,316.631z M620.287,392.137
		c-2.419,3.221-4.778,6.486-7.173,9.725c-8.717,11.79-17.425,23.588-26.181,35.35c-0.847,1.138-1.871,2.25-3.045,3.017
		c-2.413,1.576-4.488,1.08-6.399-1.149c-1.18-1.375-1.488-2.93-0.701-4.49c0.867-1.717,1.899-3.378,3.048-4.923
		c9.807-13.189,19.662-26.341,29.486-39.518c1.06-1.421,2.037-2.906,3.005-4.392c1.263-1.937,2.995-2.873,5.052-2.654
		c3.271,0.064,4.323,1.13,4.468,4.081C621.936,389.053,621.402,390.652,620.287,392.137z M614.871,343.144
		c1.876-1.714,3.526-1.901,5.22-0.739c2.31,1.584,3.219,3.983,2.235,6.267c-0.442,1.025-1.085,1.984-1.75,2.889
		c-4.864,6.624-9.777,13.212-14.635,19.84c-7.239,9.878-14.438,19.785-21.671,29.668c-3.14,4.291-6.287,8.577-9.507,12.808
		c-0.664,0.872-1.575,1.641-2.526,2.193c-3.229,1.874-6.716-0.259-6.666-4.077c-0.086-1.991,0.894-3.645,2.049-5.232
		c3.415-4.689,6.818-9.386,10.248-14.065c7.526-10.267,15.068-20.521,22.596-30.786c3.811-5.198,7.579-10.427,11.427-15.598
		C612.752,345.156,613.802,344.12,614.871,343.144z"/>
	<path fill="#2363A9" d="M577.869,392.696c-3.429,4.678-6.833,9.376-10.248,14.065c-1.155,1.586-2.136,3.241-2.049,5.232
		c-0.051,3.818,3.437,5.95,6.666,4.077c0.951-0.552,1.862-1.321,2.526-2.193c3.22-4.231,6.367-8.517,9.507-12.808
		c7.232-9.883,14.432-19.791,21.671-29.668c4.858-6.628,9.771-13.216,14.635-19.84c0.665-0.906,1.308-1.864,1.75-2.889
		c0.984-2.284,0.075-4.683-2.235-6.267c-1.694-1.161-3.343-0.975-5.22,0.739c-1.068,0.976-2.119,2.012-2.98,3.168
		c-3.847,5.171-7.615,10.4-11.427,15.598C592.937,372.175,585.394,382.429,577.869,392.696z"/>
	<path fill="#2363A9" d="M617.377,383.105c-2.057-0.22-3.789,0.716-5.052,2.654c-0.968,1.486-1.946,2.971-3.005,4.392
		c-9.824,13.176-19.679,26.329-29.486,39.518c-1.149,1.545-2.181,3.205-3.048,4.923c-0.787,1.559-0.478,3.114,0.701,4.49
		c1.911,2.229,3.987,2.725,6.399,1.149c1.175-0.768,2.198-1.879,3.045-3.017c8.756-11.762,17.464-23.559,26.181-35.35
		c2.395-3.239,4.753-6.504,7.173-9.725c1.116-1.485,1.649-3.085,1.558-4.951C621.7,384.235,620.648,383.169,617.377,383.105z"/>
</g>
</svg>
