<?xml version="1.0" encoding="utf-8"?>
<!-- Designed by Vexels.com - 2020 All Rights Reserved - https://vexels.com/terms-and-conditions/  -->
<svg version="1.1" id="Layer_1" xmlns="http://www.w3.org/2000/svg" xmlns:xlink="http://www.w3.org/1999/xlink" x="0px" y="0px"
	 viewBox="0 0 1200 1200" enable-background="new 0 0 1200 1200" xml:space="preserve">
<g>
	<path fill="#BFE9FA" d="M592.623,1113.913L592.623,1113.913C592.624,1113.913,592.624,1113.913,592.623,1113.913L592.623,1113.913
		 M593.409,1113.912c-0.039,0-0.085,0-0.125,0C593.345,1113.912,593.349,1113.912,593.409,1113.912 M594.115,1113.911
		c-0.019,0-0.03,0-0.049,0H594.115 M594.871,1113.91c-0.059,0-0.113,0-0.172,0C594.76,1113.91,594.811,1113.91,594.871,1113.91
		 M595.598,1113.908c-0.039,0-0.061,0-0.101,0C595.528,1113.908,595.568,1113.908,595.598,1113.908 M596.332,1113.905
		c-0.078,0-0.134,0-0.212,0.001C596.18,1113.906,596.272,1113.906,596.332,1113.905 M597.087,1113.902
		c-0.058,0-0.118,0.001-0.177,0.001C596.971,1113.903,597.027,1113.902,597.087,1113.902 M597.738,1113.899
		c-0.059,0-0.094,0-0.153,0.001C597.645,1113.899,597.678,1113.899,597.738,1113.899 M598.527,1113.894
		c-0.058,0-0.129,0.001-0.187,0.001C598.4,1113.895,598.468,1113.895,598.527,1113.894 M599.189,1113.89
		c-0.078,0.001-0.121,0.001-0.199,0.001C599.08,1113.891,599.099,1113.891,599.189,1113.89 M599.997,1113.884
		c-0.097,0.001-0.157,0.001-0.254,0.002C599.833,1113.885,599.908,1113.885,599.997,1113.884 M600.602,1113.879
		c-0.058,0.001-0.112,0.001-0.171,0.001C600.491,1113.88,600.542,1113.88,600.602,1113.879 M601.395,1113.872
		c-0.078,0.001-0.133,0.001-0.211,0.002C601.244,1113.873,601.335,1113.872,601.395,1113.872 M602.138,1113.865
		c-0.078,0.001-0.187,0.002-0.265,0.003C601.962,1113.866,602.048,1113.865,602.138,1113.865 M602.82,1113.857
		c-0.077,0.001-0.136,0.001-0.213,0.002C602.667,1113.859,602.761,1113.858,602.82,1113.857 M603.586,1113.849
		c-0.077,0.001-0.151,0.002-0.228,0.003C603.448,1113.85,603.497,1113.85,603.586,1113.849 M604.239,1113.841
		c-0.077,0.001-0.143,0.002-0.22,0.003C604.078,1113.843,604.179,1113.842,604.239,1113.841 M605.016,1113.831
		c-0.077,0.001-0.138,0.002-0.216,0.003C604.889,1113.833,604.927,1113.832,605.016,1113.831 M605.664,1113.822
		c-0.077,0.001-0.154,0.002-0.231,0.003C605.522,1113.824,605.574,1113.823,605.664,1113.822 M606.448,1113.811
		c-0.077,0.001-0.161,0.002-0.238,0.004C606.299,1113.813,606.359,1113.812,606.448,1113.811 M607.076,1113.801
		c-0.096,0.002-0.144,0.002-0.24,0.004C606.924,1113.804,606.987,1113.803,607.076,1113.801 M607.883,1113.788
		c-0.096,0.002-0.193,0.003-0.289,0.005C607.683,1113.792,607.795,1113.79,607.883,1113.788 M608.48,1113.778
		c-0.077,0.001-0.161,0.003-0.238,0.004C608.331,1113.781,608.392,1113.78,608.48,1113.778 M609.265,1113.765
		c-0.096,0.002-0.146,0.003-0.242,0.004C609.111,1113.767,609.176,1113.766,609.265,1113.765 M609.865,1113.754
		c-0.058,0.001-0.09,0.002-0.147,0.003C609.748,1113.756,609.836,1113.754,609.865,1113.754 M610.678,1113.738
		c-0.077,0.001-0.181,0.004-0.258,0.005C610.509,1113.741,610.59,1113.74,610.678,1113.738 M611.442,1113.723
		c-0.115,0.002-0.253,0.005-0.367,0.007C611.192,1113.728,611.324,1113.725,611.442,1113.723 M612.087,1113.709
		c-0.095,0.002-0.188,0.004-0.284,0.006C611.892,1113.714,611.999,1113.711,612.087,1113.709 M612.841,1113.693
		c-0.095,0.002-0.205,0.004-0.3,0.006C612.629,1113.698,612.753,1113.695,612.841,1113.693 M613.48,1113.679
		c-0.095,0.002-0.182,0.004-0.278,0.006C613.291,1113.683,613.392,1113.681,613.48,1113.679 M614.266,1113.661
		c-0.114,0.003-0.189,0.005-0.303,0.007C614.051,1113.666,614.178,1113.663,614.266,1113.661 M614.881,1113.646
		c-0.114,0.003-0.179,0.004-0.293,0.007C614.676,1113.651,614.793,1113.648,614.881,1113.646 M615.646,1113.627
		c-0.076,0.002-0.177,0.004-0.253,0.006C615.481,1113.631,615.559,1113.629,615.646,1113.627 M616.262,1113.611
		c-0.095,0.002-0.182,0.005-0.277,0.007C616.072,1113.616,616.174,1113.614,616.262,1113.611 M617.06,1113.59
		c-0.095,0.002-0.203,0.005-0.298,0.008C616.849,1113.596,616.972,1113.593,617.06,1113.59 M617.87,1113.568
		c-0.17,0.005-0.352,0.01-0.522,0.014C617.522,1113.578,617.695,1113.573,617.87,1113.568 M618.478,1113.551
		c-0.114,0.003-0.24,0.007-0.353,0.01C618.241,1113.558,618.362,1113.554,618.478,1113.551 M619.324,1113.527
		c-0.227,0.007-0.424,0.012-0.651,0.019C618.877,1113.54,619.12,1113.533,619.324,1113.527 M619.852,1113.511
		c-0.113,0.004-0.249,0.007-0.362,0.011C619.606,1113.518,619.736,1113.515,619.852,1113.511 M620.65,1113.487
		c-0.188,0.006-0.399,0.012-0.588,0.018C620.236,1113.499,620.476,1113.492,620.65,1113.487 M621.224,1113.469
		c-0.113,0.004-0.23,0.007-0.343,0.011C620.997,1113.476,621.107,1113.473,621.224,1113.469 M622.061,1113.442
		c-0.207,0.007-0.417,0.013-0.624,0.02C621.669,1113.455,621.83,1113.449,622.061,1113.442 M622.607,1113.424
		c-0.132,0.004-0.252,0.008-0.383,0.013C622.368,1113.432,622.462,1113.429,622.607,1113.424 M623.411,1113.397
		c-0.225,0.008-0.474,0.016-0.699,0.024C622.943,1113.413,623.18,1113.405,623.411,1113.397 M624.766,1113.35
		c-0.374,0.013-0.782,0.028-1.157,0.041C624.012,1113.376,624.363,1113.364,624.766,1113.35 M626.144,1113.299
		c-0.392,0.015-0.771,0.028-1.164,0.043C625.383,1113.328,625.742,1113.314,626.144,1113.299 M626.97,1113.268
		c-0.205,0.008-0.438,0.017-0.643,0.024C626.528,1113.285,626.769,1113.276,626.97,1113.268 M627.508,1113.247
		c-0.13,0.005-0.249,0.01-0.379,0.015C627.273,1113.256,627.365,1113.253,627.508,1113.247 M628.353,1113.214
		c-0.223,0.009-0.474,0.019-0.698,0.028C627.885,1113.232,628.124,1113.223,628.353,1113.214 M628.874,1113.193
		c-0.149,0.006-0.249,0.01-0.398,0.016C628.591,1113.204,628.759,1113.198,628.874,1113.193 M629.738,1113.157
		c-0.26,0.011-0.512,0.021-0.773,0.032C629.252,1113.178,629.452,1113.169,629.738,1113.157 M630.23,1113.137
		c-0.148,0.006-0.271,0.011-0.42,0.018C629.953,1113.148,630.088,1113.143,630.23,1113.137 M631.057,1113.101
		c-0.278,0.012-0.519,0.022-0.797,0.034C630.517,1113.125,630.8,1113.112,631.057,1113.101 M631.566,1113.079
		c-0.13,0.006-0.27,0.012-0.4,0.017C631.309,1113.09,631.423,1113.085,631.566,1113.079 M632.378,1113.043
		c-0.259,0.012-0.505,0.023-0.764,0.034C631.87,1113.066,632.122,1113.055,632.378,1113.043 M633.735,1112.981
		c-0.406,0.019-0.815,0.037-1.221,0.056C632.912,1113.019,633.338,1113,633.735,1112.981 M635.075,1112.918
		c-0.405,0.02-0.827,0.039-1.233,0.058C634.239,1112.958,634.678,1112.937,635.075,1112.918 M636.434,1112.851
		c-0.423,0.021-0.838,0.041-1.262,0.062C635.598,1112.893,636.01,1112.872,636.434,1112.851 M637.302,1112.808
		c-0.293,0.015-0.559,0.028-0.853,0.043C636.731,1112.837,637.019,1112.822,637.302,1112.808 M637.758,1112.784
		c-0.147,0.007-0.286,0.015-0.433,0.022C637.466,1112.799,637.617,1112.792,637.758,1112.784 M638.638,1112.739
		c-0.293,0.015-0.579,0.03-0.872,0.045C638.047,1112.769,638.356,1112.753,638.638,1112.739 M639.955,1112.668
		c-0.438,0.024-0.876,0.047-1.316,0.07C639.09,1112.715,639.506,1112.693,639.955,1112.668 M641.266,1112.596
		c-0.438,0.024-0.873,0.048-1.311,0.072C640.377,1112.645,640.846,1112.62,641.266,1112.596 M149.312,485.537
		c0,0.015,0,0.026,0,0.041C149.312,485.562,149.312,485.552,149.312,485.537 M149.314,484.823c0,0.015,0,0.046,0,0.061
		C149.314,484.86,149.314,484.846,149.314,484.823 M149.317,484.107c0,0.029,0,0.052,0,0.081
		C149.316,484.165,149.317,484.13,149.317,484.107 M149.321,483.394c0,0.029,0,0.062,0,0.091
		C149.32,483.454,149.321,483.425,149.321,483.394 M149.326,482.681c0,0.029-0.001,0.071-0.001,0.101
		C149.326,482.751,149.326,482.712,149.326,482.681 M149.332,481.976c0,0.03-0.001,0.062-0.001,0.092
		C149.332,482.037,149.332,482.007,149.332,481.976 M149.34,481.267c0,0.03-0.001,0.064-0.001,0.094
		C149.339,481.33,149.34,481.298,149.34,481.267 M149.348,480.573c0,0.029-0.001,0.04-0.001,0.069
		C149.348,480.612,149.348,480.603,149.348,480.573 M149.358,479.876c0,0.015-0.001,0.041-0.001,0.056
		C149.357,479.909,149.357,479.899,149.358,479.876 M149.368,479.189l-0.001,0.028C149.368,479.202,149.368,479.204,149.368,479.189
		 M149.38,478.502v0.005C149.38,478.5,149.38,478.509,149.38,478.502 M149.393,477.802v0.004V477.802 M149.407,477.088
		c0,0.015-0.001,0.027-0.001,0.042C149.407,477.114,149.407,477.103,149.407,477.088 M149.423,476.38
		c0,0.015-0.001,0.036-0.001,0.05C149.422,476.415,149.422,476.395,149.423,476.38 M149.439,475.666
		c-0.001,0.029-0.001,0.044-0.002,0.074C149.438,475.717,149.439,475.689,149.439,475.666 M149.457,474.964
		c-0.001,0.029-0.001,0.037-0.002,0.067C149.456,475.008,149.456,474.987,149.457,474.964 M149.476,474.249
		c-0.001,0.029-0.002,0.06-0.002,0.089C149.474,474.307,149.475,474.279,149.476,474.249 M149.496,473.552
		c-0.001,0.029-0.001,0.044-0.002,0.073C149.494,473.602,149.495,473.575,149.496,473.552 M149.517,472.842
		c-0.001,0.029-0.002,0.054-0.002,0.083C149.515,472.902,149.516,472.865,149.517,472.842 M149.538,472.161
		c-0.001,0.015-0.001,0.03-0.002,0.045C149.538,472.191,149.538,472.177,149.538,472.161 M149.562,471.463
		c-0.001,0.015-0.001,0.026-0.002,0.04C149.56,471.495,149.561,471.47,149.562,471.463 M149.637,469.388l0,0.009L149.637,469.388
		 M149.665,468.669c-0.001,0.029-0.001,0.033-0.002,0.062C149.663,468.708,149.664,468.692,149.665,468.669 M149.694,467.97
		c-0.001,0.029-0.001,0.026-0.002,0.055C149.692,468.01,149.693,467.986,149.694,467.97 M149.724,467.265
		c-0.002,0.029-0.002,0.037-0.003,0.065C149.722,467.308,149.723,467.288,149.724,467.265 M149.755,466.57
		c-0.002,0.029-0.001,0.022-0.002,0.051C149.753,466.606,149.754,466.585,149.755,466.57 M149.787,465.867
		c-0.002,0.029-0.001,0.027-0.003,0.056C149.785,465.907,149.786,465.882,149.787,465.867 M149.82,465.182l-0.002,0.029
		C149.818,465.204,149.819,465.19,149.82,465.182 M149.853,464.49l-0.001,0.02C149.853,464.502,149.853,464.497,149.853,464.49
		 M150.124,459.615l-0.002,0.029C150.123,459.629,150.123,459.63,150.124,459.615 M150.167,458.925l-0.001,0.015
		C150.167,458.932,150.167,458.933,150.167,458.925 M150.211,458.234l0,0.007L150.211,458.234 M150.257,457.534l-0.001,0.016
		L150.257,457.534 M150.303,456.842l-0.001,0.011C150.303,456.845,150.303,456.849,150.303,456.842 M935.225,745.536
		c-13.92,0-27.862-6.24-37.796-17.643c-11.977-13.746-17.649-34.776-14.065-53.945c2.139-11.446,7.28-21.832,13.173-31.306
		c14.778-23.761,44.417-53.429,72.351-53.429c11.555,0,22.818,5.076,32.617,17.746c7.622,9.856,10.282,23.793,10.154,37.079
		c-0.246,25.668-9.941,50.488-24.411,69.793c-11.406,15.218-26.399,27.661-43.481,30.906
		C940.943,745.273,938.086,745.536,935.225,745.536 M493.411,217.895c-10.126-12.426-19.425-25.761-27.651-40.189
		c-4.793-8.408-9.284-17.458-10.364-27.484c-1.703-15.805,5.598-31.553,15.985-41.863c10.386-10.31,23.502-16.025,36.553-20.596
		c30.639-10.73,62.18-16.064,93.585-16.064c58.409,0,116.319,18.467,166.862,55.03c54.516,39.435,109.26,81.371,149.304,139.901
		c40.043,58.531,63.677,137.13,47.205,209.565c-6.649,29.235-20.766,57.794-43.664,71.878c-8.197,5.042-17.223,8.054-26.359,9.839
		c-6.883,1.345-13.813,1.988-20.746,1.988c-31.664,0-63.262-13.429-89.398-34.761c-16.808-13.718-31.537-30.479-44.489-49.075
		C695.398,540.77,625.82,593.363,597.487,593.363c-42.206,0-183.364-123.215-183.364-224.484
		C414.124,306.261,445.509,250.976,493.411,217.895 M592.624,50c-116.739,0-222.945,44.41-302.116,116.992
		c-3.911,4.075-7.348,7.827-9.76,11.133c-23.175,31.754-42.635,67.156-58.328,104.631c-17.122,40.865-29.799,84.275-37.874,128.78
		c-23.676,130.54-10.082,267.239,21.172,395.58c7.274,29.887,15.83,60.201,32.454,84.453c14.776,21.555,37.282,37.619,60.556,37.619
		c2.903,0,5.818-0.25,8.731-0.77C232.703,841.031,192.987,714.26,201.776,591.09c37.825,153.153,116.932,305.063,244.252,362.083
		c48.835,21.874,101.636,28.35,154.079,28.35c6.773,0,13.54-0.108,20.292-0.305c81.042-2.365,162.636-17.34,237.202-54.541
		c67.646-33.751,129.365-86.722,171.889-156.589c-22.686,171.066-105.261,326.711-388.219,342.508
		c443.835-24.764,394.665-393.581,394.665-626.341C1035.936,245.318,837.457,50,592.624,50"/>
	<path fill="#50969B" d="M693.749,915.672c-4.335,12.708-9.507,20.508-20.508,28.203c-12.649,8.841-30.107,14.263-45.535,14.283
		c-15.231,0.013-30.535,0.026-45.594-2.24c-12.28-1.852-24.638-5.363-34.573-12.814c-21.588-16.2-26.503-46.128-28.644-73.039
		c-0.732-9.184-1.344-18.373-1.819-27.577c-1.113-21.246-1.554-42.531-1.324-63.81c0.026-2.872,0.073-5.738,0.126-8.611
		c0.823-42.86,3.472-86.768,10.099-129.563c1.838-11.931,3.992-23.775,6.502-35.489c9.144-42.67,70.687-42.327,104.43-33.295
		c7.78,2.082,15.514,4.954,21.839,9.948c12.108,9.559,17.095,25.034,20.37,40.396c0.533,2.484,1.014,4.967,1.482,7.425
		c7.781,41.233,10.989,83.013,16.219,124.649c0.843,6.72,1.7,13.472,2.523,20.238c2.451,20.146,4.579,40.436,5.06,60.555
		C705.054,862.422,702.629,889.604,693.749,915.672z"/>
	<path fill="#31353E" d="M679.117,622.064c-13.651,13.057-28.868,24.487-45.2,33.967c-7.846,4.552-17.161,10.975-26.292,12.056
		c-9.743,1.153-20.521,0.316-29.856-2.675c-5.428-1.746-10.58-4.229-15.718-6.706c-5.039-2.431-10.079-4.862-15.119-7.293
		c-7.076-3.413-14.217-6.871-20.956-10.91c1.838-11.931,3.992-23.775,6.502-35.489c9.144-42.67,70.687-42.327,104.43-33.295
		c7.78,2.082,15.514,4.954,21.839,9.948C670.856,591.227,675.843,606.702,679.117,622.064z"/>
	<path fill="#E2DED0" d="M632.39,653.966c21.831-21.625,43.765-43.368,61.906-68.171c8.16-11.156,15.726-23.46,17.134-37.209
		c0.472-4.611,0.179-9.483-2.091-13.524c-1.795-3.196-4.709-5.648-7.892-7.464c-7.664-4.375-16.758-5.292-25.551-6.051
		c-50.438-4.353-102.022-6.487-150.955,6.497c-6.931,1.839-13.912,4.038-19.771,8.171s-10.514,10.515-10.971,17.67
		c-0.389,6.088,2.215,11.927,4.845,17.432c10.462,21.898,22.405,43.368,38.645,61.403c13.436,14.921,29.243,25.933,47.614,33.862
		C604.786,674.992,617.583,668.633,632.39,653.966z"/>
	<path fill="#BABBA7" d="M623.641,578.644c0.073,6.371-0.237,12.741-0.936,19.072c-0.224,2.108-0.494,4.216-0.81,6.311
		c-0.843,5.666-2.187,11.641-6.278,15.646c-4.862,4.763-13.248,5.35-18.722,1.304c-3.926-2.898-5.949-7.325-7.102-12.161
		c-0.771-3.267-1.146-6.72-1.436-10c-0.646-7.372-1.285-14.737-1.93-22.109l6.397-16.516c6.64-3.617,14.717-6.97,21.489-3.597
		c3.762,1.878,6.364,5.6,7.708,9.586C623.364,570.166,623.595,574.434,623.641,578.644z"/>
	<path fill="#31353E" d="M623.641,578.644c0.073,6.371-0.237,12.741-0.936,19.072c-5.244,2.299-10.54,4.322-15.665,6.1
		c-5.659,1.97-11.417,3.637-17.247,5c-0.771-3.267-1.146-6.72-1.436-10c-0.646-7.372-1.285-14.737-1.93-22.109l6.397-16.516
		c6.64-3.617,14.717-6.97,21.489-3.597c3.762,1.878,6.364,5.6,7.708,9.586C623.364,570.166,623.595,574.434,623.641,578.644z"/>
	<path fill="#BABBA7" d="M780.85,368.88c0,101.269-139.996,224.484-183.363,224.484c-42.206,0-183.364-123.215-183.364-224.484
		c0-101.268,82.094-183.363,183.364-183.363C698.755,185.517,780.85,267.612,780.85,368.88"/>
	<path fill="#31353E" d="M746.701,413.712c14.278,21.422-4.808,59.226-42.632,84.437c-37.823,25.21-80.993,20.598-94.338,6.859
		c-10.359-10.663,4.807-59.226,42.632-84.437C690.185,395.361,732.422,392.29,746.701,413.712"/>
	<path fill="#31353E" d="M449.3,413.712c-14.279,21.423,4.808,59.226,42.631,84.437c37.823,25.211,80.992,20.598,94.339,6.859
		c10.359-10.664-4.808-59.226-42.631-84.437S463.579,392.29,449.3,413.712z"/>
	<path fill="#31353E" d="M590.167,536.08c-0.762-0.419-1.23-1.162-1.163-2.142c0.056-0.99,0.668-2.205,1.794-3.829
		c1.12-1.629,2.029-2.791,2.656-3.546c0.635-0.752,1.008-1.085,1.267-1c0.255,0.083,0.372,0.574,0.392,1.583
		c0.006,1.004-0.063,2.542-0.533,4.601c-0.475,2.057-1.163,3.404-1.965,4.07C591.818,536.49,590.924,536.497,590.167,536.08z"/>
	<path fill="#31353E" d="M605.563,535.629c-0.647,0.412-1.453,0.444-2.222-0.154c-0.77-0.589-1.492-1.822-1.998-3.728
		c-0.498-1.908-0.56-3.34-0.534-4.271c0.039-0.936,0.185-1.39,0.442-1.463c0.264-0.076,0.61,0.24,1.175,0.94
		c0.559,0.702,1.351,1.779,2.359,3.25c1.015,1.466,1.599,2.539,1.693,3.433C606.581,534.52,606.216,535.214,605.563,535.629z"/>
	<path fill="#31353E" d="M704.401,834.931c-39.612,11.325-81.458,12.115-122.705,12.814c-21.681,0.369-43.888,0.652-64.621-5.257
		c-1.113-21.246-1.554-42.531-1.324-63.81c10.692,0.652,23.11,2.984,28.031,3.195c34.712,1.489,69.515,0.955,104.167-1.594
		c16.865-1.238,34.422-5.138,51.392-5.903C701.793,794.521,703.92,814.812,704.401,834.931z"/>
	<path fill="#E2DED0" d="M621.202,693.408c0,7.148-4.717,13.189-11.206,15.185c-1.476,0.455-3.05,0.699-4.677,0.699
		c-8.769,0-15.877-7.108-15.877-15.883c0-2.135,0.422-4.17,1.192-6.028c2.365-5.778,8.05-9.849,14.684-9.849
		C614.093,677.531,621.202,684.64,621.202,693.408z"/>
	<path fill="#31353E" d="M620.268,546.531c0.051,0.126-0.236,0.376-0.897,0.757c-0.331,0.188-0.754,0.418-1.278,0.666
		c-0.529,0.238-1.156,0.506-1.887,0.805c-0.734,0.288-1.58,0.578-2.53,0.908c-0.963,0.283-2.023,0.642-3.219,0.926
		c-2.379,0.618-5.244,1.203-8.626,1.573c-3.383,0.37-6.307,0.419-8.763,0.33c-1.23-0.018-2.341-0.14-3.343-0.208
		c-0.999-0.116-1.888-0.217-2.666-0.339c-0.778-0.134-1.449-0.26-2.016-0.378c-0.567-0.128-1.028-0.261-1.392-0.373
		c-0.728-0.229-1.063-0.411-1.04-0.545c0.023-0.135,0.4-0.21,1.155-0.216c0.378-0.005,0.849,0.015,1.419,0.038
		c0.572,0.012,1.242,0.04,2.013,0.083c0.771,0.027,1.646,0.059,2.628,0.094c0.983-0.004,2.069,0.054,3.268,0.023
		c2.395-0.013,5.233-0.114,8.522-0.474c3.288-0.36,6.082-0.876,8.423-1.381c1.177-0.228,2.224-0.52,3.185-0.729
		c0.95-0.247,1.798-0.467,2.545-0.66c0.744-0.209,1.392-0.381,1.947-0.516c0.553-0.146,1.008-0.268,1.378-0.345
		C619.833,546.413,620.217,546.405,620.268,546.531z"/>
	<path fill="#31353E" d="M760.617,386.407c-0.207,0.015-0.448-0.384-0.72-1.196c-0.276-0.811-0.629-2.033-1.116-3.655
		c-0.517-1.614-1.181-3.633-2.206-5.97c-0.499-1.174-1.128-2.406-1.837-3.713c-0.753-1.28-1.575-2.647-2.615-3.98
		c-1.034-1.332-2.226-2.673-3.635-3.909c-0.362-0.296-0.729-0.595-1.101-0.901c-0.398-0.274-0.802-0.552-1.211-0.834
		c-0.204-0.141-0.41-0.284-0.616-0.427c-0.221-0.125-0.443-0.249-0.666-0.374c-0.451-0.246-0.893-0.517-1.363-0.756
		c-1.898-0.93-4.022-1.687-6.341-2.254c-2.322-0.566-4.858-0.872-7.542-1.028c-5.38-0.305-11.383,0.198-17.94,1.031
		c-6.471,0.811-13.4,2.342-20.647,4.738c-7.248,2.398-13.77,5.278-19.63,8.306c-5.872,3.021-11.116,6.119-15.814,9.121
		c-4.698,3.004-8.851,5.914-12.539,8.614c-3.695,2.694-6.888,5.23-9.703,7.466c-5.592,4.521-9.564,7.98-12.184,10.249
		c-1.316,1.129-2.279,1.979-2.943,2.514c-0.66,0.539-1.007,0.778-1.056,0.73c-0.047-0.049,0.208-0.385,0.776-1.021
		c0.572-0.633,1.442-1.582,2.664-2.816c2.434-2.48,6.216-6.175,11.623-10.982c2.725-2.38,5.828-5.071,9.445-7.938
		c3.611-2.872,7.695-5.969,12.348-9.177c4.654-3.206,9.878-6.527,15.776-9.781c5.894-3.266,12.517-6.406,19.947-9.052
		c7.429-2.645,14.609-4.375,21.36-5.313c6.652-0.932,12.923-1.519,18.767-1.184c2.914,0.173,5.715,0.526,8.345,1.194
		c2.626,0.669,5.073,1.582,7.277,2.727c0.546,0.295,1.066,0.622,1.587,0.927c0.258,0.156,0.515,0.311,0.77,0.465
		c0.241,0.176,0.481,0.351,0.718,0.525c0.473,0.35,0.94,0.695,1.4,1.034c0.432,0.378,0.857,0.75,1.276,1.118
		c1.618,1.524,2.922,3.135,4.013,4.711c1.098,1.577,1.917,3.155,2.64,4.626c0.674,1.496,1.237,2.896,1.646,4.215
		c0.845,2.631,1.244,4.865,1.451,6.64c0.177,1.783,0.175,3.107,0.072,3.985C760.984,385.962,760.823,386.392,760.617,386.407"/>
	<path fill="#31353E" d="M424.974,388.238c-0.292,0.068-0.66-0.302-1.106-1.181c-0.107-0.22-0.238-0.47-0.338-0.757
		c-0.095-0.288-0.193-0.609-0.291-0.964c-0.091-0.355-0.217-0.744-0.284-1.169c-0.066-0.425-0.131-0.885-0.194-1.381
		c-0.197-1.974-0.161-4.537,0.548-7.528c0.716-2.975,2.044-6.403,4.399-9.857c1.148-1.747,2.604-3.451,4.291-5.131
		c0.435-0.406,0.859-0.84,1.328-1.238c0.473-0.394,0.954-0.793,1.442-1.199c0.504-0.371,1.016-0.747,1.535-1.129
		c0.52-0.38,1.078-0.715,1.63-1.081c4.47-2.823,9.963-4.981,16.13-6.229c3.085-0.632,6.339-1.025,9.73-1.223
		c1.697-0.109,3.427-0.135,5.186-0.12c1.762-0.027,3.555,0.083,5.385,0.162c7.308,0.457,15.135,1.773,23.245,4.165
		c8.11,2.398,15.338,5.461,21.76,8.751c6.44,3.268,12.041,6.822,17.013,10.247c4.966,3.442,9.275,6.821,13.05,9.982
		c3.774,3.163,7.014,6.11,9.822,8.752c2.81,2.641,5.161,5.006,7.147,7.025c1.977,2.029,3.58,3.723,4.828,5.089
		c1.259,1.357,2.156,2.394,2.742,3.086c0.584,0.695,0.848,1.058,0.798,1.106c-0.049,0.048-0.407-0.223-1.09-0.821
		c-0.685-0.595-1.682-1.531-3.048-2.774c-1.356-1.253-3.071-2.823-5.167-4.709c-2.105-1.877-4.582-4.082-7.517-6.537
		c-5.869-4.897-13.46-10.985-23.503-17.258c-5.03-3.112-10.644-6.315-17.009-9.203c-6.35-2.913-13.427-5.575-21.247-7.587
		c-7.821-2.005-15.253-3.015-22.124-3.285c-1.719-0.033-3.403-0.104-5.05-0.044c-1.649,0.017-3.257,0.067-4.821,0.192
		c-3.128,0.229-6.094,0.617-8.864,1.197c-5.546,1.146-10.309,2.992-14.171,5.294c-0.474,0.3-0.961,0.57-1.41,0.879
		c-0.45,0.308-0.893,0.613-1.329,0.912c-0.414,0.319-0.821,0.633-1.223,0.943c-0.4,0.312-0.763,0.66-1.141,0.979
		c-1.459,1.332-2.764,2.684-3.821,4.083c-2.174,2.76-3.561,5.507-4.506,7.916c-0.938,2.422-1.375,4.536-1.657,6.243
		c-0.064,0.431-0.124,0.834-0.179,1.21c-0.061,0.379-0.068,0.729-0.11,1.057c-0.035,0.328-0.074,0.631-0.116,0.91
		c-0.03,0.279-0.057,0.529-0.08,0.751C425.473,387.667,425.267,388.169,424.974,388.238z"/>
	<path fill="#31353E" d="M606.768,563.306c0.024,0.545-1.86,1.071-6.293,1.268c-4.433,0.196-6.356-0.161-6.38-0.707
		c-0.024-0.545,1.86-1.072,6.293-1.268C604.821,562.403,606.744,562.761,606.768,563.306z"/>
	<path fill="#E2DED0" d="M647.684,441.39c-1.502,2.312-2.633,5.845-0.384,7.439c1.581,1.122,3.761,0.381,5.523-0.426
		c9.913-4.544,19.254-10.249,29.109-14.917c9.855-4.668,20.44-8.33,31.345-8.392c1.673-0.009,3.368,0.062,5.067,0.134
		c5.265,0.222,10.553,0.444,15.256-1.749c3.22-1.5,6.156-4.942,5.05-8.317c-0.814-2.484-3.442-3.837-5.887-4.763
		c-24.669-9.329-50.363-0.485-70.294,15.128C656.749,430.007,651.647,435.286,647.684,441.39"/>
	<path fill="#E2DED0" d="M477.707,409.989c-5.241,0.374-10.835,1.395-14.541,5.12c-3.706,3.725-4.173,10.944,0.297,13.706
		c1.943,1.201,4.341,1.336,6.624,1.373c11.887,0.193,23.853-1.368,35.624,0.299c11.948,1.691,23.186,6.638,34.97,9.233
		c1.164,0.257,2.594,0.405,3.347-0.519c0.899-1.102,0.086-2.734-0.786-3.858C528.115,415.832,501.824,408.269,477.707,409.989z"/>
	<path fill="#285C6D" d="M503.172,695.186c2.356,2.37,4.99,4.708,8.828,5.803c3.838,1.095,9.184,0.634,12.768-1.916
		c2.192-1.561,3.411-3.633,4.44-5.627c11.701-22.654,9.236-45.577,4.61-66.954c-1.858-8.587-4.469-17.267-11.564-22.27
		c-9.463-6.672-24.547-8.655-33.803-0.108c-5.054,4.667-7.348,12.003-8.074,19.123C477.584,650.641,484.339,676.243,503.172,695.186
		z"/>
	<path fill="#50969B" d="M481.341,721.372c-1.811,12.735-3.622,25.478-4.806,38.292c-2.098,22.708-2.215,45.609-0.349,68.297
		c0.683,8.303,1.952,17.297,7.552,22.964c3.696,3.74,8.784,5.448,13.805,6.265c10.516,1.711,21.26-0.006,31.778-1.937
		c10.182-1.87,20.334-3.943,30.45-6.218c1.921-0.432,3.918-0.91,5.459-2.235c3.753-3.229,3.025-9.476,1.933-14.49
		c-0.714-3.276-1.63-6.872-4.247-8.671c-2.08-1.429-4.729-1.352-7.203-1.228c-11.608,0.585-23.215,1.169-34.823,1.754
		c-2.668,0.134-5.424,0.255-7.911-0.769c-4.056-1.669-6.642-6.156-7.508-10.767c-0.865-4.61-0.291-9.394,0.286-14.072
		c5.301-42.99,10.602-85.979,15.904-128.968c0.798-6.469,1.596-13.028,0.808-19.481c-0.788-6.452-3.364-12.895-8.167-16.771
		c-4.727-3.815-11.931-4.755-16.634,0.463c-4.008,4.448-6.124,15.818-6.953,21.65C487.59,677.424,484.466,699.398,481.341,721.372z"
		/>
	<path fill="#285C6D" d="M572.865,835.421c0.762,15.91-9.469,29.435-22.85,30.211c-13.382,0.775-24.847-11.493-25.608-27.403
		c-0.761-15.909,9.469-29.435,22.851-30.21C560.638,807.243,572.103,819.512,572.865,835.421z"/>
	<path fill="#285C6D" d="M692.786,693.542c-2.267,2.455-4.815,4.888-8.609,6.123c-3.795,1.235-9.155,0.971-12.83-1.446
		c-2.248-1.479-3.541-3.505-4.644-5.46c-12.525-22.209-10.902-45.207-7.064-66.739c1.542-8.65,3.832-17.42,10.739-22.68
		c9.211-7.015,24.213-9.55,33.776-1.349c5.222,4.478,7.784,11.725,8.771,18.814C716.721,648.088,710.911,673.921,692.786,693.542z"
		/>
	<path fill="#50969B" d="M715.562,718.909c2.278,12.66,4.556,25.328,6.209,38.09c2.93,22.616,3.887,45.497,2.854,68.239
		c-0.378,8.322-1.315,17.356-6.704,23.226c-3.556,3.873-8.578,5.767-13.565,6.767c-10.446,2.096-21.246,0.775-31.828-0.77
		c-10.244-1.495-20.465-3.194-30.658-5.096c-1.935-0.361-3.949-0.765-5.537-2.033c-3.869-3.089-3.371-9.359-2.463-14.41
		c0.592-3.299,1.376-6.926,3.926-8.82c2.026-1.505,4.676-1.525,7.153-1.492c11.621,0.158,23.243,0.316,34.864,0.474
		c2.672,0.036,5.43,0.055,7.878-1.058c3.993-1.816,6.412-6.396,7.107-11.035c0.695-4.639-0.054-9.398-0.802-14.053
		c-6.875-42.766-13.75-85.531-20.626-128.297c-1.035-6.435-2.073-12.961-1.523-19.438c0.551-6.477,2.889-13.01,7.546-17.059
		c4.584-3.986,11.748-5.191,16.64-0.148c4.168,4.297,6.7,15.583,7.743,21.38C707.705,675.22,711.633,697.065,715.562,718.909z"/>
	<path fill="#285C6D" d="M628.287,836.241c-0.177,15.927,10.543,29.068,23.944,29.352c13.401,0.284,24.407-12.398,24.585-28.324
		s-10.543-29.068-23.944-29.351C639.471,807.633,628.463,820.314,628.287,836.241z"/>
	<path fill="#C35252" d="M565.172,877.016L565.172,877.016c-5.93,0-10.737-4.808-10.737-10.738V759.057
		c0-5.931,4.807-10.738,10.737-10.738s10.738,4.807,10.738,10.738v107.221C575.91,872.208,571.102,877.016,565.172,877.016z"/>
	<path fill="#C35252" d="M639.066,877.016L639.066,877.016c-5.931,0-10.738-4.808-10.738-10.738V759.057
		c0-5.931,4.807-10.738,10.738-10.738c5.93,0,10.737,4.807,10.737,10.738v107.221C649.804,872.208,644.997,877.016,639.066,877.016z
		"/>
	<path fill="#BABBA7" d="M560.453,782.161c-7.252-0.198-15.166,3.895-16.873,10.946c-1.077,4.449,0.444,9.095,0.315,13.671
		c-0.137,4.874-2.139,9.537-2.41,14.405c-0.223,4.014,0.739,7.994,1.825,11.865c0.617,2.202,1.299,4.438,2.636,6.293
		c3.26,4.525,9.522,5.668,15.093,5.422c6.037-0.265,12.019-1.733,17.493-4.292c1.701-0.795,3.535-1.928,3.886-3.773
		c0.414-2.175-1.42-4.075-2.094-6.185c-1.22-3.822,1.451-7.671,2.453-11.556c1.192-4.618-0.034-9.323-0.789-13.899
		c-0.698-4.224,0.495-8.711-0.311-12.753C580.281,785.302,566.263,782.32,560.453,782.161z"/>
	<path fill="#BABBA7" d="M583.571,786c1.161,0,2.39,0.018,3.38,0.626c1.88,1.155,2.036,3.787,1.905,5.989
		c-0.387,6.53-1.412,13.049-1.058,19.581c0.082,1.515,0.232,3.08-0.274,4.51c-0.506,1.43-1.898,2.683-3.398,2.462
		c-1.62-0.239-2.535-1.942-3.174-3.45c-2.925-6.898-5.399-14.028-6.548-21.454c-0.311-2.009-1.126-5.241,0.252-7.038
		C576.378,784.979,581.147,786,583.571,786z"/>
	<path fill="#BABBA7" d="M649.306,782.161c7.252-0.198,15.166,3.895,16.873,10.946c1.077,4.449-0.444,9.095-0.316,13.671
		c0.136,4.874,2.14,9.537,2.41,14.405c0.224,4.014-0.738,7.994-1.824,11.865c-0.617,2.202-1.3,4.438-2.636,6.293
		c-3.26,4.525-9.521,5.668-15.093,5.422c-6.037-0.265-12.018-1.733-17.493-4.292c-1.701-0.795-3.535-1.928-3.886-3.773
		c-0.414-2.175,1.42-4.075,2.094-6.185c1.22-3.822-1.45-7.671-2.453-11.556c-1.192-4.618,0.034-9.323,0.79-13.899
		c0.697-4.224-0.495-8.711,0.311-12.753C629.479,785.302,643.496,782.32,649.306,782.161z"/>
	<path fill="#BABBA7" d="M626.188,786c-1.161,0-2.39,0.018-3.38,0.626c-1.88,1.155-2.036,3.787-1.905,5.989
		c0.388,6.53,1.412,13.049,1.058,19.581c-0.082,1.515-0.232,3.08,0.274,4.51c0.505,1.43,1.897,2.683,3.398,2.462
		c1.62-0.239,2.535-1.942,3.174-3.45c2.925-6.898,5.398-14.028,6.548-21.454c0.311-2.009,1.126-5.241-0.252-7.038
		C633.381,784.979,628.613,786,626.188,786z"/>
	<path fill="#E7EDF0" d="M593.285,1113.912c-0.212,0-0.449,0-0.661,0C592.84,1113.913,593.069,1113.913,593.285,1113.912
		 M594.066,1113.911c-0.211,0-0.445,0.001-0.656,0.001C593.625,1113.912,593.85,1113.912,594.066,1113.911 M594.699,1113.91
		c-0.211,0.001-0.373,0.001-0.585,0.001C594.311,1113.911,594.503,1113.911,594.699,1113.91 M595.498,1113.908
		c-0.211,0.001-0.415,0.001-0.626,0.002C595.087,1113.91,595.282,1113.909,595.498,1113.908 M596.12,1113.906
		c-0.181,0.001-0.341,0.001-0.522,0.002C595.755,1113.907,595.964,1113.907,596.12,1113.906 M596.91,1113.903
		c-0.18,0.001-0.398,0.002-0.578,0.002C596.528,1113.905,596.715,1113.904,596.91,1113.903 M597.585,1113.9
		c-0.18,0.001-0.317,0.002-0.498,0.002C597.244,1113.901,597.429,1113.901,597.585,1113.9 M598.34,1113.895
		c-0.18,0.001-0.422,0.002-0.602,0.003C597.933,1113.898,598.145,1113.897,598.34,1113.895 M598.99,1113.891
		c-0.15,0.001-0.313,0.002-0.463,0.003C598.684,1113.893,598.834,1113.892,598.99,1113.891 M599.743,1113.886
		c-0.18,0.001-0.375,0.003-0.555,0.004C599.364,1113.889,599.568,1113.887,599.743,1113.886 M600.431,1113.88
		c-0.119,0.001-0.314,0.002-0.434,0.004C600.134,1113.883,600.295,1113.881,600.431,1113.88 M601.184,1113.874
		c-0.209,0.002-0.372,0.003-0.582,0.005C600.797,1113.877,600.99,1113.875,601.184,1113.874 M601.873,1113.867
		c-0.179,0.002-0.299,0.003-0.478,0.005C601.55,1113.87,601.717,1113.869,601.873,1113.867 M602.607,1113.86
		c-0.149,0.002-0.32,0.003-0.469,0.005C602.293,1113.863,602.452,1113.861,602.607,1113.86 M603.358,1113.851
		c-0.179,0.002-0.359,0.004-0.538,0.006C602.995,1113.856,603.184,1113.853,603.358,1113.851 M604.018,1113.844
		c-0.149,0.002-0.283,0.003-0.432,0.005C603.741,1113.847,603.864,1113.846,604.018,1113.844 M604.8,1113.834
		c-0.178,0.002-0.383,0.005-0.561,0.007C604.413,1113.839,604.626,1113.836,604.8,1113.834 M605.433,1113.825
		c-0.119,0.002-0.298,0.004-0.417,0.006C605.151,1113.829,605.298,1113.827,605.433,1113.825 M606.21,1113.814
		c-0.178,0.003-0.368,0.005-0.546,0.008C605.856,1113.819,606.017,1113.817,606.21,1113.814 M606.836,1113.805
		c-0.119,0.002-0.269,0.004-0.388,0.006C606.563,1113.809,606.72,1113.807,606.836,1113.805 M607.595,1113.793
		c-0.178,0.003-0.341,0.005-0.519,0.008C607.249,1113.799,607.422,1113.796,607.595,1113.793 M608.243,1113.782
		c-0.119,0.002-0.241,0.004-0.359,0.006C607.999,1113.786,608.127,1113.784,608.243,1113.782 M609.023,1113.769
		c-0.177,0.003-0.365,0.006-0.542,0.009C608.653,1113.775,608.85,1113.772,609.023,1113.769 M609.718,1113.756
		c-0.147,0.003-0.306,0.006-0.453,0.008C609.399,1113.762,609.584,1113.759,609.718,1113.756 M610.42,1113.743
		c-0.206,0.004-0.348,0.007-0.555,0.01C610.057,1113.75,610.229,1113.747,610.42,1113.743 M611.075,1113.73
		c-0.118,0.002-0.279,0.005-0.397,0.008C610.812,1113.735,610.941,1113.733,611.075,1113.73 M611.803,1113.715
		c-0.118,0.002-0.244,0.005-0.361,0.007C611.576,1113.72,611.67,1113.718,611.803,1113.715 M612.541,1113.7
		c-0.176,0.004-0.277,0.006-0.453,0.01C612.24,1113.706,612.388,1113.703,612.541,1113.7 M613.203,1113.685
		c-0.117,0.003-0.245,0.005-0.362,0.008C612.955,1113.691,613.089,1113.688,613.203,1113.685 M613.963,1113.668
		c-0.176,0.004-0.307,0.007-0.483,0.011C613.633,1113.675,613.811,1113.671,613.963,1113.668 M614.588,1113.653
		c-0.117,0.003-0.205,0.005-0.322,0.008C614.361,1113.658,614.493,1113.655,614.588,1113.653 M615.393,1113.633
		c-0.175,0.004-0.337,0.008-0.513,0.013C615.051,1113.642,615.222,1113.638,615.393,1113.633 M615.985,1113.618
		c-0.117,0.003-0.222,0.006-0.339,0.009C615.76,1113.624,615.871,1113.621,615.985,1113.618 M616.761,1113.598
		c-0.175,0.005-0.324,0.009-0.499,0.013C616.433,1113.607,616.591,1113.603,616.761,1113.598 M617.348,1113.583
		c-0.087,0.002-0.2,0.005-0.288,0.008C617.155,1113.588,617.253,1113.585,617.348,1113.583 M618.125,1113.561
		c-0.087,0.002-0.168,0.005-0.255,0.007C617.965,1113.566,618.03,1113.564,618.125,1113.561 M618.673,1113.546
		c-0.087,0.003-0.108,0.003-0.195,0.006C618.535,1113.55,618.616,1113.547,618.673,1113.546 M619.49,1113.522
		c-0.058,0.002-0.108,0.003-0.166,0.005C619.38,1113.525,619.433,1113.524,619.49,1113.522 M620.062,1113.505
		c-0.087,0.003-0.123,0.004-0.21,0.006C619.927,1113.509,619.987,1113.507,620.062,1113.505 M620.881,1113.48
		c-0.087,0.003-0.144,0.004-0.231,0.007C620.725,1113.484,620.805,1113.482,620.881,1113.48 M621.437,1113.462
		c-0.058,0.002-0.156,0.005-0.214,0.007C621.299,1113.467,621.362,1113.464,621.437,1113.462 M622.223,1113.437
		c-0.029,0.001-0.133,0.005-0.162,0.005C622.118,1113.44,622.167,1113.438,622.223,1113.437 M622.712,1113.421
		c-0.029,0.001-0.076,0.003-0.105,0.004C622.644,1113.423,622.674,1113.422,622.712,1113.421 M623.608,1113.39
		c-0.058,0.002-0.14,0.005-0.197,0.007C623.486,1113.395,623.533,1113.393,623.608,1113.39 M624.98,1113.342
		c-0.058,0.002-0.157,0.006-0.214,0.008C624.841,1113.347,624.905,1113.345,624.98,1113.342 M626.326,1113.292
		c-0.057,0.002-0.125,0.005-0.182,0.007C626.2,1113.297,626.27,1113.295,626.326,1113.292 M627.129,1113.262
		c-0.057,0.002-0.102,0.004-0.159,0.006C627.026,1113.266,627.073,1113.264,627.129,1113.262 M627.656,1113.241
		c-0.029,0.001-0.119,0.005-0.147,0.006C627.564,1113.245,627.6,1113.244,627.656,1113.241 M628.476,1113.209
		c-0.057,0.002-0.065,0.003-0.122,0.005C628.391,1113.212,628.439,1113.21,628.476,1113.209 M628.965,1113.189
		c-0.029,0.001-0.063,0.003-0.091,0.004C628.892,1113.192,628.947,1113.19,628.965,1113.189 M629.81,1113.154l-0.072,0.003
		C629.756,1113.157,629.791,1113.155,629.81,1113.154 M630.26,1113.135c-0.028,0.001-0.001,0-0.03,0.001L630.26,1113.135
		 M631.166,1113.097c-0.029,0.001-0.08,0.003-0.109,0.005C631.094,1113.1,631.129,1113.098,631.166,1113.097 M631.613,1113.077
		l-0.047,0.002C631.585,1113.078,631.595,1113.078,631.613,1113.077 M632.514,1113.037c-0.057,0.002-0.079,0.004-0.136,0.006
		C632.415,1113.042,632.477,1113.039,632.514,1113.037 M633.842,1112.976c-0.057,0.003-0.05,0.002-0.107,0.005
		C633.773,1112.979,633.805,1112.978,633.842,1112.976 M635.173,1112.913c-0.028,0.001-0.07,0.003-0.098,0.005
		C635.111,1112.916,635.136,1112.915,635.173,1112.913 M636.448,1112.851l-0.014,0.001L636.448,1112.851 M637.325,1112.806
		c-0.028,0.001,0.005,0-0.023,0.001L637.325,1112.806 M637.765,1112.784l-0.007,0L637.765,1112.784 M638.64,1112.738l-0.002,0
		L638.64,1112.738 M639.955,1112.668L639.955,1112.668L639.955,1112.668 M641.271,1112.596l-0.004,0L641.271,1112.596
		 M149.312,485.578c-0.001,0.223-0.001,0.454-0.001,0.677c0,240.934-24.5,627.658,443.312,627.658l0,0
		c-467.811,0-443.312-386.721-443.312-627.658C149.311,486.034,149.311,485.798,149.312,485.578 M149.314,484.883
		c-0.001,0.215-0.001,0.438-0.002,0.653C149.312,485.316,149.313,485.104,149.314,484.883 M149.316,484.188
		c-0.001,0.215-0.002,0.419-0.003,0.634C149.315,484.602,149.315,484.408,149.316,484.188 M149.32,483.485
		c-0.002,0.207-0.003,0.414-0.004,0.622C149.318,483.901,149.319,483.691,149.32,483.485 M149.325,482.782
		c-0.002,0.207-0.003,0.405-0.005,0.613C149.322,483.189,149.324,482.987,149.325,482.782 M149.331,482.068
		c-0.002,0.207-0.004,0.405-0.005,0.613C149.328,482.475,149.329,482.274,149.331,482.068 M149.339,481.361
		c-0.002,0.2-0.004,0.416-0.006,0.615C149.334,481.771,149.336,481.566,149.339,481.361 M149.347,480.642
		c-0.003,0.207-0.005,0.418-0.008,0.625C149.342,481.062,149.345,480.848,149.347,480.642 M149.357,479.931
		c-0.003,0.207-0.006,0.434-0.009,0.641C149.351,480.353,149.354,480.151,149.357,479.931 M149.368,479.217
		c-0.003,0.214-0.007,0.444-0.01,0.659C149.361,479.656,149.365,479.437,149.368,479.217 M149.38,478.507
		c-0.004,0.222-0.008,0.459-0.012,0.682C149.372,478.954,149.376,478.741,149.38,478.507 M149.393,477.806
		c-0.004,0.23-0.009,0.466-0.013,0.696C149.384,478.267,149.388,478.04,149.393,477.806 M149.407,477.129
		c-0.005,0.222-0.009,0.451-0.014,0.673C149.397,477.582,149.402,477.349,149.407,477.129 M149.422,476.43
		c-0.005,0.222-0.01,0.435-0.014,0.657C149.412,476.868,149.417,476.65,149.422,476.43 M149.438,475.74
		c-0.005,0.214-0.01,0.426-0.015,0.64C149.428,476.161,149.432,475.959,149.438,475.74 M149.455,475.031
		c-0.005,0.214-0.011,0.421-0.016,0.635C149.444,475.462,149.45,475.236,149.455,475.031 M149.474,474.338
		c-0.005,0.207-0.011,0.42-0.016,0.626C149.462,474.759,149.468,474.543,149.474,474.338 M149.494,473.625
		c-0.006,0.206-0.012,0.418-0.018,0.624C149.482,474.044,149.488,473.829,149.494,473.625 M149.514,472.925
		c-0.006,0.214-0.012,0.413-0.019,0.627C149.502,473.347,149.508,473.129,149.514,472.925 M149.537,472.207
		c-0.007,0.214-0.013,0.422-0.02,0.636C149.524,472.623,149.53,472.426,149.537,472.207 M149.56,471.503
		c-0.008,0.221-0.015,0.437-0.022,0.659C149.545,471.942,149.553,471.722,149.56,471.503 M149.636,469.397
		c-0.027,0.694-0.051,1.371-0.075,2.066C149.585,470.777,149.61,470.081,149.636,469.397 M149.662,468.731
		c-0.009,0.221-0.017,0.437-0.026,0.657C149.645,469.17,149.654,468.949,149.662,468.731 M149.691,468.025
		c-0.009,0.213-0.018,0.43-0.027,0.643C149.673,468.465,149.683,468.229,149.691,468.025 M149.721,467.33
		c-0.009,0.213-0.018,0.427-0.027,0.64C149.702,467.767,149.712,467.534,149.721,467.33 M149.752,466.621
		c-0.009,0.213-0.019,0.43-0.028,0.644C149.733,467.061,149.743,466.825,149.752,466.621 M149.784,465.923
		c-0.01,0.221-0.02,0.427-0.03,0.647C149.764,466.367,149.775,466.126,149.784,465.923 M149.818,465.212
		c-0.011,0.221-0.021,0.435-0.031,0.655C149.797,465.649,149.807,465.43,149.818,465.212 M149.853,464.509
		c-0.011,0.228-0.022,0.445-0.033,0.673C149.831,464.95,149.841,464.742,149.853,464.509 M150.122,459.644
		c-0.098,1.607-0.189,3.234-0.269,4.845C149.935,462.862,150.023,461.267,150.122,459.644 M150.166,458.94
		c-0.014,0.22-0.029,0.455-0.042,0.675C150.139,459.383,150.152,459.172,150.166,458.94 M150.211,458.241
		c-0.015,0.227-0.029,0.457-0.044,0.685C150.182,458.694,150.196,458.473,150.211,458.241 M150.256,457.549
		c-0.016,0.235-0.03,0.449-0.045,0.684C150.226,458.002,150.24,457.781,150.256,457.549 M150.302,456.853
		c-0.015,0.227-0.03,0.454-0.045,0.681C150.272,457.302,150.287,457.084,150.302,456.853 M290.518,166.981
		c-80.063,73.4-132.485,175.615-140.215,289.86c7.727-114.248,60.142-216.451,140.205-289.85
		C290.512,166.988,290.515,166.985,290.518,166.981"/>
	<path fill="#B1DAED" d="M290.508,166.992c-80.063,73.399-132.478,175.602-140.205,289.85c-0.001,0.008,0,0.003-0.001,0.011
		c-0.016,0.232-0.03,0.449-0.045,0.681l-0.001,0.016c-0.016,0.231-0.03,0.453-0.045,0.684l0,0.007
		c-0.015,0.232-0.029,0.453-0.044,0.685c-0.001,0.008-0.001,0.007-0.001,0.015c-0.015,0.232-0.028,0.443-0.042,0.675
		c-0.001,0.015-0.001,0.014-0.002,0.029c-0.099,1.623-0.188,3.218-0.269,4.845c0,0.008-0.001,0.012-0.001,0.02
		c-0.012,0.232-0.022,0.44-0.033,0.673c-0.001,0.008-0.001,0.022-0.002,0.029c-0.011,0.218-0.021,0.437-0.031,0.655
		c-0.001,0.015-0.002,0.041-0.003,0.056c-0.009,0.204-0.02,0.444-0.03,0.647c-0.001,0.015-0.002,0.036-0.002,0.051
		c-0.009,0.204-0.019,0.44-0.028,0.644c-0.001,0.023-0.002,0.043-0.003,0.065c-0.009,0.204-0.019,0.436-0.027,0.64
		c-0.001,0.015-0.002,0.04-0.002,0.055c-0.009,0.204-0.018,0.44-0.027,0.643c-0.001,0.023-0.002,0.039-0.002,0.062
		c-0.009,0.218-0.017,0.439-0.026,0.657l0,0.009c-0.027,0.685-0.051,1.381-0.075,2.066c0,0.008-0.001,0.033-0.002,0.04
		c-0.007,0.219-0.015,0.44-0.022,0.659c-0.001,0.015-0.001,0.03-0.002,0.045c-0.007,0.219-0.013,0.417-0.02,0.636
		c-0.001,0.023-0.002,0.06-0.002,0.083c-0.006,0.204-0.013,0.422-0.019,0.627c-0.001,0.023-0.002,0.05-0.002,0.073
		c-0.006,0.204-0.012,0.419-0.018,0.624c-0.001,0.03-0.002,0.058-0.002,0.089c-0.005,0.205-0.011,0.422-0.016,0.626
		c-0.001,0.023-0.001,0.044-0.002,0.067c-0.005,0.205-0.011,0.431-0.016,0.635c-0.001,0.023-0.001,0.051-0.002,0.074
		c-0.005,0.219-0.01,0.421-0.015,0.64c0,0.016-0.001,0.035-0.001,0.05c-0.005,0.219-0.01,0.438-0.014,0.657
		c0,0.015-0.001,0.026-0.001,0.042c-0.005,0.22-0.009,0.453-0.014,0.673v0.004c-0.005,0.234-0.009,0.462-0.013,0.696
		c0,0.008,0-0.002,0,0.005c-0.004,0.234-0.008,0.447-0.012,0.682c0,0.015,0,0.012-0.001,0.028c-0.003,0.22-0.007,0.439-0.01,0.659
		c0,0.023,0,0.033-0.001,0.056c-0.003,0.22-0.006,0.421-0.009,0.641c-0.001,0.03-0.001,0.039-0.001,0.069
		c-0.003,0.205-0.005,0.419-0.008,0.625c0,0.031-0.001,0.063-0.001,0.094c-0.002,0.205-0.004,0.41-0.006,0.615
		c0,0.031-0.001,0.061-0.001,0.092c-0.002,0.205-0.004,0.407-0.005,0.613c0,0.031-0.001,0.07-0.001,0.101
		c-0.002,0.205-0.003,0.407-0.005,0.613c0,0.03,0,0.06,0,0.091c-0.002,0.206-0.003,0.416-0.004,0.622c0,0.023,0,0.058,0,0.081
		c-0.001,0.22-0.002,0.414-0.003,0.634c0,0.023,0,0.038,0,0.061c-0.001,0.22-0.001,0.433-0.002,0.653c0,0.015,0,0.025,0,0.041
		c-0.001,0.22-0.001,0.456-0.001,0.677c0,240.937-24.499,627.658,443.313,627.658c-0.001,0-0.001,0-0.001,0c0.213,0,0.45,0,0.662,0
		c0.039,0,0.085,0,0.125,0c0.212,0,0.445,0,0.656-0.001c0.019,0,0.03,0,0.049,0c0.211,0,0.374-0.001,0.585-0.001
		c0.059,0,0.113,0,0.172,0c0.211,0,0.416-0.001,0.626-0.002c0.039,0,0.062,0,0.101,0c0.181-0.001,0.341-0.001,0.522-0.002
		c0.078,0,0.133,0,0.212-0.001c0.181-0.001,0.398-0.002,0.578-0.002c0.059,0,0.119-0.001,0.177-0.001
		c0.18-0.001,0.317-0.001,0.498-0.002c0.058,0,0.094,0,0.153-0.001c0.18-0.001,0.422-0.002,0.602-0.003
		c0.058,0,0.129-0.001,0.187-0.001c0.15-0.001,0.313-0.002,0.463-0.003c0.078-0.001,0.121-0.001,0.199-0.001
		c0.18-0.001,0.375-0.003,0.555-0.004c0.097-0.001,0.157-0.001,0.254-0.002c0.12-0.001,0.314-0.003,0.434-0.004
		c0.058-0.001,0.113-0.001,0.171-0.001c0.21-0.002,0.373-0.003,0.582-0.005c0.078-0.001,0.133-0.001,0.211-0.002
		c0.179-0.002,0.299-0.003,0.478-0.005c0.078-0.001,0.187-0.002,0.265-0.003c0.149-0.001,0.32-0.003,0.469-0.005
		c0.078-0.001,0.136-0.001,0.213-0.002c0.179-0.002,0.359-0.004,0.538-0.006c0.078-0.001,0.151-0.002,0.228-0.003
		c0.149-0.002,0.283-0.003,0.432-0.005c0.077-0.001,0.143-0.002,0.22-0.003c0.179-0.002,0.383-0.005,0.561-0.007
		c0.077-0.001,0.138-0.002,0.216-0.003c0.119-0.002,0.298-0.004,0.417-0.006c0.077-0.001,0.153-0.002,0.231-0.003
		c0.178-0.002,0.368-0.005,0.546-0.008c0.077-0.001,0.161-0.002,0.238-0.004c0.119-0.002,0.269-0.004,0.388-0.006
		c0.097-0.002,0.144-0.002,0.24-0.004c0.178-0.003,0.341-0.005,0.519-0.008c0.096-0.001,0.193-0.003,0.289-0.005
		c0.118-0.002,0.241-0.004,0.359-0.006c0.077-0.001,0.161-0.003,0.238-0.004c0.177-0.003,0.365-0.006,0.542-0.009
		c0.096-0.002,0.146-0.003,0.242-0.004c0.148-0.003,0.306-0.005,0.453-0.008c0.058-0.001,0.09-0.002,0.147-0.003
		c0.207-0.004,0.349-0.007,0.555-0.01c0.076-0.001,0.181-0.004,0.258-0.005c0.118-0.002,0.279-0.005,0.397-0.008
		c0.115-0.002,0.253-0.005,0.367-0.007c0.118-0.002,0.244-0.005,0.361-0.007c0.096-0.002,0.189-0.004,0.284-0.006
		c0.176-0.004,0.277-0.006,0.453-0.01c0.095-0.002,0.205-0.005,0.3-0.006c0.117-0.003,0.245-0.005,0.362-0.008
		c0.095-0.002,0.182-0.004,0.278-0.006c0.176-0.004,0.307-0.007,0.483-0.011c0.114-0.003,0.189-0.004,0.303-0.007
		c0.117-0.003,0.205-0.005,0.322-0.008c0.114-0.003,0.178-0.004,0.293-0.007c0.175-0.004,0.338-0.008,0.513-0.013
		c0.076-0.002,0.177-0.004,0.253-0.006c0.117-0.003,0.222-0.006,0.339-0.009c0.095-0.002,0.182-0.005,0.277-0.007
		c0.175-0.005,0.324-0.009,0.499-0.013c0.095-0.003,0.203-0.005,0.298-0.008c0.088-0.002,0.2-0.005,0.288-0.008
		c0.17-0.005,0.352-0.01,0.522-0.014c0.087-0.002,0.168-0.005,0.255-0.007c0.113-0.003,0.239-0.007,0.353-0.01
		c0.087-0.002,0.108-0.003,0.195-0.006c0.227-0.006,0.424-0.012,0.651-0.019c0.058-0.002,0.108-0.003,0.166-0.005
		c0.113-0.003,0.249-0.007,0.362-0.011c0.087-0.003,0.123-0.004,0.21-0.006c0.189-0.006,0.4-0.012,0.588-0.018
		c0.087-0.003,0.144-0.004,0.231-0.007c0.113-0.003,0.23-0.007,0.343-0.011c0.058-0.002,0.156-0.005,0.214-0.007
		c0.207-0.007,0.417-0.013,0.624-0.02c0.029-0.001,0.133-0.004,0.162-0.005c0.132-0.004,0.252-0.008,0.383-0.013
		c0.029-0.001,0.076-0.002,0.105-0.004c0.225-0.007,0.474-0.016,0.699-0.024c0.058-0.002,0.139-0.005,0.197-0.007
		c0.375-0.013,0.783-0.027,1.157-0.041c0.058-0.002,0.157-0.006,0.214-0.008c0.393-0.014,0.772-0.028,1.164-0.043
		c0.057-0.002,0.125-0.005,0.182-0.007c0.206-0.008,0.438-0.017,0.643-0.024c0.058-0.002,0.102-0.004,0.159-0.006
		c0.131-0.005,0.249-0.01,0.379-0.015c0.029-0.001,0.118-0.005,0.147-0.006c0.224-0.009,0.474-0.019,0.698-0.028
		c0.057-0.002,0.065-0.003,0.122-0.005c0.149-0.006,0.249-0.01,0.398-0.016c0.029-0.001,0.063-0.003,0.091-0.004
		c0.26-0.011,0.513-0.021,0.773-0.032l0.072-0.003c0.149-0.006,0.272-0.011,0.42-0.018c0.029-0.001,0.002,0,0.03-0.001
		c0.278-0.012,0.519-0.022,0.797-0.034c0.028-0.001,0.08-0.004,0.109-0.005c0.13-0.006,0.271-0.012,0.4-0.017l0.047-0.002
		c0.259-0.011,0.506-0.022,0.764-0.034c0.057-0.003,0.079-0.004,0.136-0.006c0.407-0.018,0.815-0.037,1.221-0.056
		c0.057-0.003,0.05-0.002,0.107-0.005c0.406-0.019,0.828-0.039,1.233-0.058c0.028-0.001,0.07-0.003,0.098-0.005
		c0.423-0.021,0.839-0.041,1.262-0.062l0.014-0.001c0.294-0.015,0.56-0.028,0.853-0.043c0.028-0.001-0.005,0,0.023-0.001
		c0.147-0.007,0.286-0.015,0.433-0.022l0.007,0c0.293-0.015,0.579-0.03,0.872-0.045l0.002,0c0.439-0.023,0.877-0.046,1.316-0.07l0,0
		c0.438-0.024,0.874-0.048,1.311-0.072l0.004,0c282.959-15.797,365.533-171.442,388.219-342.508
		c-42.525,69.867-104.244,122.838-171.889,156.589c-74.566,37.2-156.159,52.175-237.202,54.541
		c-6.752,0.197-13.518,0.305-20.292,0.305c-52.443,0-105.244-6.476-154.079-28.35c-127.32-57.02-206.427-208.93-244.252-362.083
		c-8.79,123.17,30.927,249.942,105.683,337.328c-2.913,0.521-5.828,0.77-8.731,0.77c-23.273,0-45.779-16.064-60.556-37.619
		c-16.624-24.253-25.18-54.566-32.454-84.453c-31.254-128.341-44.848-265.04-21.172-395.58
		c8.075-44.505,20.752-87.915,37.874-128.78c15.692-37.475,35.153-72.876,58.328-104.631
		C283.161,174.819,286.598,171.067,290.508,166.992"/>
	<path fill="#C35C52" d="M1131.664,932.741c-8.173,10.694-17.077,21.113-26.685,31.227c-8.966,9.446-18.53,18.624-28.662,27.515
		c-63.752,55.94-149.97,100.437-250.008,127.871C754.365,1139.088,675.272,1150,592.248,1150
		c-81.146,0-158.536-10.419-229.17-29.318c-91.527-24.489-171.706-63.202-234.01-111.899
		c-14.107-11.024-27.296-22.561-39.494-34.565c-5.241-5.16-10.301-10.401-15.168-15.723c-29.604-32.375-8.435-84.59,35.376-86.936
		c154.081-8.254,315.775-12.647,482.465-12.647c177.397,0,349.129,4.972,512.058,14.288
		C1133.998,874.898,1149.726,909.107,1131.664,932.741z"/>
	<path fill="#31353E" d="M1131.664,932.741c-8.173,10.694-17.077,21.113-26.685,31.227c-8.966,9.446-18.53,18.624-28.662,27.515
		c-0.15-0.019-0.293-0.031-0.443-0.05c-314.24-35.245-631.593-10.426-946.806,17.351c-14.107-11.024-27.296-22.561-39.494-34.565
		c-5.241-5.16-10.301-10.401-15.168-15.723c-29.604-32.375-8.435-84.59,35.376-86.936c154.081-8.254,315.775-12.647,482.465-12.647
		c177.397,0,349.129,4.972,512.058,14.288C1133.998,874.898,1149.726,909.107,1131.664,932.741z"/>
	<path fill="#E2DED0" d="M1139.332,909.75c0.137,7.836-2.24,15.891-7.668,22.991c-6.72,8.791-13.932,17.395-21.619,25.799
		c-3.151,3.438-7.767,5.159-12.403,4.642l-0.075-0.006c-327.704-36.43-658.602-14.868-987.616,9.527
		c-13.333,0.992-26.379-4.186-35.401-14.044l-0.144-0.162c-9.015-9.858-13.32-21.556-13.713-33.13
		c-0.899-26.423,18.617-52.178,49.089-53.806c154.081-8.254,315.775-12.647,482.465-12.647c177.397,0,349.129,4.972,512.058,14.288
		C1125.081,874.387,1139.02,891.494,1139.332,909.75z"/>
	<path fill="#E6A477" d="M826.309,1119.354C754.365,1139.088,675.272,1150,592.248,1150c-81.146,0-158.536-10.419-229.17-29.318
		c61.861-12.204,144.411-19.653,235.072-19.653C685.479,1101.029,765.278,1107.942,826.309,1119.354z"/>
	<path fill="#E6A477" d="M338.191,1081.326c-2.075,3.595-11.117,2.26-20.195-2.982s-14.755-12.404-12.68-15.999
		c2.075-3.595,11.117-2.26,20.196,2.982C334.59,1070.568,340.266,1077.731,338.191,1081.326z"/>
	<path fill="#E6A477" d="M915.934,1062.934c1.457,3.886-5.318,10.021-15.133,13.702c-9.815,3.681-18.953,3.514-20.411-0.372
		c-1.458-3.886,5.317-10.021,15.132-13.702C905.339,1058.88,914.477,1059.047,915.934,1062.934z"/>
	<path fill="#E6A477" d="M631.697,1036.283c0,9.111-7.386,16.497-16.497,16.497s-16.497-7.386-16.497-16.497
		c0-9.111,7.386-16.497,16.497-16.497S631.697,1027.172,631.697,1036.283z"/>
	<path fill="#E6A477" d="M790.893,1055.319c-5.47,6.322-13.384,8.436-17.678,4.722c-4.294-3.714-3.34-11.851,2.13-18.173
		c5.469-6.322,13.384-8.436,17.677-4.722C797.315,1040.86,796.362,1048.997,790.893,1055.319z"/>
	<path fill="#E6A477" d="M463.36,1042.946c5.911,5.911,7.449,13.958,3.435,17.972c-4.015,4.015-12.061,2.477-17.972-3.434
		c-5.911-5.911-7.449-13.958-3.435-17.972C449.402,1035.497,457.449,1037.035,463.36,1042.946z"/>
	<path fill="#9FA190" d="M1139.332,909.75c0.137,7.836-2.24,15.891-7.668,22.991c-6.72,8.791-13.932,17.395-21.619,25.799
		c-3.151,3.438-7.767,5.159-12.403,4.642l-0.075-0.006c-327.704-36.43-658.602-14.868-987.616,9.527
		c-13.333,0.992-26.379-4.186-35.401-14.044l-0.144-0.162c-9.015-9.858-13.32-21.556-13.713-33.13
		c4.467,8.367,11.467,15.666,19.772,19.984c20.763,10.806,45.614,8.51,68.898,6.114c292.022-30.06,586.89-32.468,879.361-7.175
		c32.063,2.77,68.025,4.704,92.407-16.297C1127.503,922.496,1133.112,915.459,1139.332,909.75z"/>
	<path fill="#DEF3F6" d="M601.519,71.7c-31.406,0-62.947,5.334-93.585,16.064c-13.051,4.571-26.167,10.285-36.553,20.596
		c-10.387,10.31-17.688,26.058-15.985,41.863c1.08,10.026,5.571,19.075,10.364,27.484c8.226,14.428,17.525,27.763,27.651,40.189
		c29.566-20.418,65.426-32.378,104.076-32.378c101.268,0,183.363,82.095,183.363,183.363c0,35.108-16.824,72.851-40.616,107.186
		c12.952,18.596,27.68,35.357,44.489,49.075c26.136,21.332,57.734,34.761,89.398,34.761c6.933,0,13.863-0.643,20.746-1.988
		c9.136-1.785,18.162-4.798,26.359-9.839c22.898-14.084,37.015-42.643,43.664-71.878c16.472-72.435-7.162-151.034-47.205-209.565
		c-40.044-58.53-94.788-100.466-149.304-139.901C717.838,90.167,659.928,71.7,601.519,71.7"/>
	<path fill="#DDDED1" d="M597.487,185.517c-38.65,0-74.51,11.96-104.076,32.378c37.33,45.809,85.943,79.308,133.861,110.087
		c17.02,10.932,34.467,22.025,48.648,37.292c4.271-2.102,8.88-4.093,13.85-5.863c7.429-2.645,14.609-4.375,21.36-5.313
		c5.367-0.752,10.486-1.279,15.332-1.279c1.161,0,2.305,0.03,3.435,0.095c2.914,0.173,5.715,0.526,8.345,1.194
		c2.626,0.669,5.073,1.582,7.277,2.727c0.546,0.295,1.066,0.622,1.587,0.927c0.258,0.156,0.515,0.311,0.77,0.465
		c0.241,0.176,0.481,0.351,0.718,0.525c0.473,0.35,0.94,0.695,1.4,1.034c0.432,0.378,0.857,0.75,1.276,1.118
		c1.618,1.524,2.922,3.135,4.013,4.711c1.098,1.577,1.917,3.155,2.64,4.626c0.674,1.496,1.237,2.896,1.646,4.215
		c0.845,2.631,1.244,4.865,1.451,6.64c0.177,1.783,0.175,3.107,0.072,3.985c-0.107,0.88-0.268,1.31-0.473,1.326
		c-0.004,0-0.008,0-0.011,0c-0.204,0-0.442-0.399-0.708-1.197c-0.276-0.811-0.629-2.033-1.116-3.655
		c-0.517-1.614-1.181-3.633-2.206-5.97c-0.499-1.174-1.128-2.406-1.837-3.713c-0.753-1.28-1.575-2.647-2.615-3.98
		c-1.034-1.332-2.226-2.673-3.635-3.909c-0.362-0.296-0.729-0.595-1.101-0.901c-0.398-0.274-0.802-0.552-1.211-0.834
		c-0.204-0.141-0.41-0.284-0.616-0.427c-0.221-0.125-0.443-0.249-0.666-0.374c-0.451-0.246-0.893-0.517-1.363-0.756
		c-1.898-0.93-4.022-1.687-6.341-2.254c-2.322-0.566-4.858-0.872-7.542-1.028c-1.079-0.061-2.184-0.09-3.313-0.09
		c-4.498,0-9.386,0.455-14.628,1.121c-6.471,0.811-13.4,2.342-20.647,4.738c-4.473,1.48-8.67,3.144-12.605,4.912
		c2.299,2.635,4.499,5.392,6.586,8.292c5.437,7.553,9.954,15.879,14.164,24.45c5.035-0.914,9.895-1.373,14.49-1.374
		c14.662-0.001,26.624,4.681,33.006,14.255c9.422,14.137,4.316,35.406-11.118,55.484c1.524,2.315,3.074,4.606,4.651,6.869
		c23.792-34.335,40.616-72.078,40.616-107.186C780.85,267.612,698.755,185.517,597.487,185.517"/>
	<path fill="#9FA1A1" d="M713.695,399.457c-4.595,0-9.454,0.46-14.49,1.374c1.055,2.147,2.09,4.31,3.116,6.48
		c3.147-0.474,6.321-0.724,9.512-0.724c6.955,0,13.984,1.187,20.928,3.812c2.445,0.925,5.073,2.279,5.887,4.763
		c1.106,3.375-1.83,6.817-5.05,8.317c-3.277,1.528-6.839,1.884-10.479,1.884c-1.583,0-3.181-0.067-4.777-0.134
		c-1.597-0.067-3.191-0.135-4.766-0.135c-0.1,0-0.2,0-0.3,0.001c-0.844,0.005-1.686,0.031-2.526,0.078
		c7.425,15.263,15.663,30.095,24.833,44.024c15.434-20.078,20.54-41.347,11.118-55.484
		C740.319,404.138,728.357,399.456,713.695,399.457"/>
	<path fill="#9FA1A1" d="M726.462,352.819c-4.846,0-9.965,0.527-15.332,1.279c-6.751,0.938-13.93,2.668-21.36,5.313
		c-4.97,1.77-9.579,3.761-13.85,5.863c0.857,0.923,1.702,1.861,2.535,2.815c3.935-1.768,8.132-3.432,12.605-4.912
		c7.247-2.396,14.177-3.927,20.647-4.738c5.242-0.665,10.129-1.121,14.628-1.121c1.129,0,2.233,0.029,3.313,0.09
		c2.685,0.156,5.22,0.462,7.542,1.028c2.32,0.567,4.443,1.324,6.341,2.254c0.47,0.239,0.912,0.51,1.363,0.756
		c0.223,0.126,0.445,0.25,0.666,0.374c0.207,0.143,0.412,0.286,0.616,0.427c0.41,0.283,0.813,0.561,1.211,0.834
		c0.372,0.305,0.74,0.605,1.101,0.901c1.41,1.236,2.601,2.577,3.635,3.909c1.04,1.332,1.862,2.7,2.615,3.98
		c0.709,1.306,1.338,2.539,1.837,3.713c1.025,2.337,1.689,4.356,2.206,5.97c0.487,1.622,0.841,2.844,1.116,3.655
		c0.266,0.798,0.504,1.197,0.708,1.197c0.004,0,0.008,0,0.011,0c0.206-0.015,0.367-0.445,0.473-1.326
		c0.103-0.878,0.106-2.202-0.072-3.985c-0.207-1.775-0.606-4.01-1.451-6.64c-0.409-1.319-0.972-2.72-1.646-4.215
		c-0.723-1.471-1.542-3.05-2.64-4.626c-1.091-1.575-2.396-3.187-4.013-4.711c-0.419-0.367-0.844-0.74-1.276-1.118
		c-0.459-0.339-0.926-0.684-1.4-1.034c-0.237-0.174-0.478-0.349-0.718-0.525c-0.255-0.154-0.512-0.309-0.77-0.465
		c-0.521-0.305-1.041-0.633-1.587-0.927c-2.203-1.145-4.651-2.058-7.277-2.727c-2.63-0.668-5.432-1.021-8.345-1.194
		C728.767,352.849,727.622,352.819,726.462,352.819"/>
	<path fill="#EFEDE3" d="M711.833,406.587c-3.191,0-6.366,0.25-9.512,0.724c2.403,5.083,4.752,10.203,7.173,15.258
		c0.416,0.869,0.835,1.737,1.257,2.603c0.84-0.047,1.682-0.073,2.526-0.078c0.1,0,0.2-0.001,0.3-0.001
		c1.575,0,3.169,0.067,4.766,0.135c1.596,0.067,3.194,0.134,4.777,0.134c3.64,0,7.201-0.355,10.479-1.884
		c3.22-1.5,6.156-4.942,5.05-8.317c-0.814-2.484-3.442-3.837-5.887-4.763C725.817,407.774,718.789,406.587,711.833,406.587"/>
	<path fill="#DEF3F6" d="M968.888,589.213c-27.934,0-57.573,29.667-72.351,53.429c-5.893,9.474-11.034,19.861-13.173,31.306
		c-3.584,19.169,2.088,40.199,14.065,53.945c9.934,11.403,23.877,17.643,37.796,17.643c2.86,0,5.717-0.263,8.541-0.799
		c17.082-3.245,32.075-15.688,43.481-30.906c14.469-19.304,24.164-44.125,24.411-69.793c0.128-13.286-2.532-27.223-10.154-37.079
		C991.706,594.289,980.443,589.213,968.888,589.213"/>
</g>
</svg>
