<?xml version="1.0" encoding="utf-8"?>
<!-- Designed by Vexels.com - 2020 All Rights Reserved - https://vexels.com/terms-and-conditions/  -->
<svg version="1.1" id="Layer_1" xmlns="http://www.w3.org/2000/svg" xmlns:xlink="http://www.w3.org/1999/xlink" x="0px" y="0px"
	 viewBox="0 0 1200 1200" enable-background="new 0 0 1200 1200" xml:space="preserve">
<g>
	<path fill="#BABBA7" d="M267.002,565.155c-2.152,0.558-4.77,0.869-6.343-1.026c5.275-6.938,15.41-7.054,20.423-14.247
		c0.43-0.617,0.83-1.416,0.58-2.184c-0.254-0.78-1.044-1.125-1.739-1.359c-16.972-5.719-35.08-5.731-50.849,2.072
		c-2.15,1.064-7.873,4.031-9.416,1.869c-1.046-1.466-0.198-4.17,1.824-5.686c3.252-2.437,14.404-7.211,18.279-8.006
		c9.897-2.03,12.516-2.022,22.413-4.052c0.594-0.122,0.548-1.114-0.056-1.228c-9.594-1.807-19.363-1.917-28.848-0.322
		c-0.999,0.168-1.752-1.101-1.222-2.066c1.324-2.413,4.307-3.703,6.952-4.336c7.299-1.747,14.874-2.238,22.401-1.45l-4.276-2.089
		c-0.413-0.202-0.376-0.889,0.054-0.978c5.579-1.156,11.328-1.314,17.04-1.49c6.776-0.208,13.552-0.416,20.329-0.623
		c4.14-0.115,8.315-0.119,12.387,0.971c5.509,1.474,12.087,6.638,11.287,13.917c-0.644,5.855-5.857,10.164-10.082,12.576
		C294.857,552.998,281.718,561.337,267.002,565.155z"/>
	<path fill="#31353E" d="M641.46,1055.805c-0.774,1.347-1.561,2.731-1.817,4.263c-0.288,1.725,0.123,3.481,0.531,5.181
		c3.002,12.5,6.087,24.992,9.85,37.289c3.679,12.02,8.21,23.7,12.512,35.501c1.062,2.913,2.63,5.239,4.32,7.807
		c0.862,1.309,1.846,2.59,3.184,3.405c2.064,1.257,4.209,0.918,5.728-0.907c1.275-1.532,2.028-3.522,2.159-5.511
		c2.007-30.616-3.096-39.723,4.517-70.443c1.971-7.953,3.358-17.579,6.184-25.27c2.616-7.118,7.413-14.726,4.316-21.648
		c-5.532-12.364-23.093-5.482-31.161,0.083C652.186,1032.177,647.044,1046.085,641.46,1055.805z"/>
	
		<ellipse transform="matrix(0.5098 -0.8603 0.8603 0.5098 -546.1031 1087.0624)" fill="#285C6D" cx="680.851" cy="1022.739" rx="23.406" ry="32.507"/>
	
		<ellipse transform="matrix(0.9655 -0.2605 0.2605 0.9655 -125.4345 101.9129)" fill="#285C6D" cx="321.703" cy="524.101" rx="22.649" ry="30.613"/>
	<path fill="#50969B" d="M332.854,507.275c-4.363,1.532-9.133,3.384-11.487,7.817c-3.592,6.765,0.97,15.862,7.369,18.728
		c6.4,2.866,13.686,1.326,20.484-0.377c64.452-16.148,126.827-43.76,184.084-81.489c6.625-4.365,13.426-9.128,17.546-16.427
		c4.689-8.308,5.097-19.392,1.026-27.908c-12.13-25.379-28.257-9.17-41.833,3.156c-17.167,15.587-35.741,29.103-55.062,40.965
		C416.28,475.501,374.723,492.57,332.854,507.275z"/>
	
		<ellipse transform="matrix(0.9655 -0.2605 0.2605 0.9655 -94.0869 149.5876)" fill="#285C6D" cx="517.208" cy="429.694" rx="28.316" ry="44.599"/>
	<path fill="#31353E" d="M528.188,763.509c5.935-0.544,12.345,0.902,16.496,5.18c3.734,3.848,5.13,9.337,6.285,14.573
		c5.906,26.754,9.279,54.921,2.049,81.348c-1.08,3.948-3.333,8.581-7.425,8.671c-4.018,0.089-6.473-4.263-7.986-7.986
		c-7.504-18.463-14.432-37.159-20.77-56.054c-3.493-10.413-7.722-22.118-6.809-33.292
		C510.777,766.776,520.171,764.244,528.188,763.509z"/>
	
		<ellipse transform="matrix(0.2483 -0.9687 0.9687 0.2483 -378.8549 1092.3198)" fill="#285C6D" cx="514.421" cy="790.279" rx="24.484" ry="24.982"/>
	<path fill="#50969B" d="M710.156,439.721c-1.89,16.988-4.613,33.885-8.162,50.608c-3.795,17.857-8.557,35.717-8.831,53.962
		c-0.01,0.328-0.014,0.657-0.017,0.985c-0.103,16.547,3.546,33.168,4.537,49.607c0.501,8.308,0.32,16.571-1.364,24.76
		c-5.165,25.045-24.633,45.95-48.284,55.681c-23.645,9.731-50.832,8.99-75.093,0.922c-18.621-6.198-37.176-18.253-42.772-37.063
		c-1.948-6.568-2.174-13.521-1.939-20.367c0.254-7.485,1.046-14.938,1.9-22.384c0.826-7.175,1.702-14.343,2.225-21.553
		c0.546-7.532,0.693-15.062,0.537-22.583c-0.437-21.368-3.319-42.674-6.495-63.795c-5.092-33.892-21.799-79.472,8.72-104.991
		c32.229-26.941,72.699-42.695,114.698-30.851c30.139,8.501,57.838,32.828,61.072,63.977
		C711.687,424.309,711.006,432.054,710.156,439.721z"/>
	<path fill="#E2DED0" d="M645.031,482.191c21.739-23.915,43.578-47.957,61.276-75.018c7.96-12.171,15.237-25.518,15.978-40.057
		c0.248-4.876-0.321-9.985-2.917-14.115c-2.053-3.267-5.24-5.689-8.677-7.431c-8.273-4.193-17.859-4.672-27.121-5.001
		c-53.131-1.888-107.346-1.378-157.97,14.892c-7.17,2.304-14.374,4.991-20.298,9.65c-5.924,4.66-10.463,11.622-10.56,19.174
		c-0.082,6.425,2.962,12.429,6.015,18.079c12.145,22.478,29.858,39.929,49.579,56.14c16.772,13.787,31,26.663,49.235,37.542
		C618.718,507.468,630.288,498.41,645.031,482.191z"/>
	<path fill="#BABBA7" d="M637.467,413.545c-0.727,6.067-1.816,12.086-3.271,18.019c-0.476,1.976-0.996,3.947-1.559,5.9
		c-0.482,1.683-1.013,3.397-1.664,5.051c-1.381,3.527-3.269,6.797-6.26,9.042c-5.218,3.922-13.265,3.432-17.966-1.097
		c-1.029-0.995-1.878-2.101-2.563-3.293c-1.562-2.71-2.333-5.869-2.672-9.157c-0.325-3.203-0.251-6.533-0.117-9.689
		c0.307-7.09,0.618-14.174,0.925-21.264l8.145-14.906c6.766-2.61,14.865-4.79,20.883-0.737c3.342,2.255,5.352,6.119,6.133,10.077
		C638.262,405.448,637.948,409.536,637.467,413.545z"/>
	<path fill="#31353E" d="M637.467,413.545c-0.727,6.067-1.816,12.086-3.271,18.019c-0.476,1.976-0.996,3.947-1.559,5.9
		c-0.482,1.683-1.013,3.397-1.664,5.051c-8.474,3.341-17.661,4.882-26.788,4.652c-1.562-2.71-2.333-5.869-2.672-9.157
		c-0.325-3.203-0.251-6.533-0.117-9.689c0.307-7.09,0.618-14.174,0.925-21.264l8.145-14.906c6.766-2.61,14.865-4.79,20.883-0.737
		c3.342,2.255,5.352,6.119,6.133,10.077C638.262,405.448,637.948,409.536,637.467,413.545z"/>
	<path fill="#BABBA7" d="M614.434,433.782c-39.084,10.526-200.53-68.374-225.789-162.154c-15.018-55.77-1.46-112.5,31.723-154.641
		c0-0.006,0-0.006,0.006-0.006c22.612-28.716,54.342-50.652,92.345-60.887c93.786-25.254,190.282,30.295,215.535,124.075
		c0.758,2.818,1.409,5.692,1.946,8.605C747.619,282.792,653.391,423.287,614.434,433.782z"/>
	<path fill="#31353E" d="M706.057,223.684c18.566,16.277,10.318,56.046-18.421,88.825s-69.867,39.274-85.653,29.88
		c-12.252-7.291-10.318-56.046,18.421-88.825S687.492,207.406,706.057,223.684z"/>
	<path fill="#31353E" d="M430.646,297.853c-7.88,23.399,19.223,53.647,60.537,67.561c41.314,13.914,80.141-1.124,89.074-17.175
		c6.934-12.458-19.223-53.647-60.537-67.561C478.407,266.764,438.527,274.454,430.646,297.853z"/>
	<g>
		<path fill="#31353E" d="M591.615,376.042c-0.811-0.198-1.429-0.769-1.612-1.694c-0.195-0.93,0.07-2.208,0.707-3.994
			c0.632-1.788,1.183-3.091,1.576-3.946c0.401-0.855,0.662-1.257,0.924-1.243c0.256,0.014,0.487,0.439,0.757,1.369
			c0.256,0.928,0.575,2.37,0.654,4.393c0.073,2.024-0.228,3.442-0.805,4.259C593.247,376.01,592.421,376.239,591.615,376.042z"/>
	</g>
	<g>
		<path fill="#31353E" d="M605.76,371.784c-0.497,0.543-1.235,0.773-2.096,0.412c-0.861-0.354-1.836-1.315-2.781-2.954
			c-0.937-1.643-1.351-2.953-1.559-3.821c-0.197-0.876-0.175-1.333,0.044-1.465c0.225-0.136,0.625,0.07,1.323,0.578
			c0.693,0.511,1.695,1.31,2.995,2.421c1.306,1.104,2.114,1.952,2.424,2.757C606.426,370.504,606.262,371.236,605.76,371.784z"/>
	</g>
	<g>
		<path fill="#31353E" d="M624.403,386.775c0.079,0.104-0.125,0.407-0.643,0.925c-0.26,0.257-0.593,0.575-1.018,0.935
			c-0.43,0.352-0.944,0.757-1.547,1.216c-0.608,0.45-1.319,0.93-2.116,1.472c-0.821,0.502-1.713,1.099-2.75,1.66
			c-2.049,1.165-4.556,2.422-7.596,3.609c-3.04,1.186-5.735,1.961-8.032,2.491c-1.143,0.289-2.203,0.454-3.147,0.641
			c-0.954,0.141-1.802,0.27-2.554,0.35c-0.754,0.07-1.406,0.121-1.961,0.153c-0.556,0.022-1.017,0.014-1.382,0.001
			c-0.731-0.03-1.087-0.115-1.099-0.245c-0.013-0.13,0.318-0.294,1.016-0.488c0.349-0.099,0.79-0.197,1.324-0.319
			c0.533-0.131,1.16-0.273,1.885-0.425c0.721-0.167,1.539-0.356,2.457-0.568c0.909-0.249,1.93-0.466,3.032-0.794
			c2.215-0.609,4.818-1.41,7.774-2.564c2.956-1.153,5.414-2.327,7.456-3.38c1.033-0.505,1.931-1.037,2.768-1.469
			c0.819-0.466,1.549-0.881,2.193-1.247c0.636-0.379,1.194-0.699,1.674-0.964c0.475-0.273,0.866-0.499,1.19-0.662
			C623.97,386.774,624.324,386.67,624.403,386.775z"/>
	</g>
	<g>
		<path fill="#31353E" d="M712.134,194.927c-0.187,0.066-0.51-0.244-0.965-0.928c-0.458-0.683-1.089-1.727-1.945-3.107
			c-0.88-1.367-2-3.07-3.531-4.979c-0.755-0.963-1.645-1.947-2.627-2.981c-1.018-0.996-2.12-2.057-3.415-3.032
			c-1.29-0.977-2.727-1.921-4.342-2.714c-0.409-0.184-0.823-0.37-1.244-0.559c-0.437-0.155-0.88-0.312-1.33-0.471
			c-0.224-0.08-0.45-0.161-0.678-0.242c-0.235-0.06-0.472-0.12-0.71-0.18c-0.478-0.115-0.956-0.255-1.45-0.361
			c-1.99-0.387-4.144-0.558-6.434-0.505c-2.292,0.055-4.716,0.403-7.241,0.929c-5.058,1.059-10.493,3.022-16.357,5.428
			c-5.789,2.366-11.825,5.511-17.939,9.537c-6.114,4.029-11.436,8.323-16.107,12.588c-4.685,4.262-8.769,8.439-12.371,12.391
			c-3.602,3.954-6.722,7.684-9.464,11.105c-2.75,3.416-5.075,6.561-7.124,9.333c-4.052,5.58-6.866,9.775-8.727,12.53
			c-0.937,1.374-1.616,2.401-2.097,3.062c-0.477,0.664-0.739,0.973-0.795,0.939c-0.056-0.034,0.096-0.408,0.463-1.139
			c0.372-0.728,0.94-1.824,1.765-3.273c1.636-2.904,4.215-7.268,8.025-13.068c1.929-2.883,4.132-6.15,6.767-9.706
			c2.627-3.561,5.637-7.448,9.146-11.579c3.51-4.13,7.52-8.507,12.17-12.992c4.643-4.495,9.994-9.053,16.214-13.357
			c6.221-4.301,12.438-7.695,18.455-10.247c5.928-2.522,11.59-4.63,17.084-5.777c2.742-0.568,5.425-0.939,8.026-0.976
			c2.599-0.035,5.094,0.2,7.419,0.71c0.579,0.136,1.142,0.311,1.701,0.464c0.278,0.08,0.555,0.16,0.829,0.238
			c0.267,0.103,0.533,0.205,0.797,0.306c0.525,0.206,1.043,0.409,1.553,0.609c0.494,0.242,0.981,0.481,1.46,0.716
			c1.878,1.008,3.488,2.175,4.892,3.362c1.409,1.186,2.562,2.443,3.599,3.626c0.997,1.217,1.867,2.374,2.576,3.493
			c1.438,2.226,2.365,4.195,2.999,5.787c0.609,1.607,0.937,2.834,1.06,3.673C712.363,194.423,712.321,194.861,712.134,194.927z"/>
	</g>
	<g>
		<path fill="#31353E" d="M401.766,280.329c-0.254,0.136-0.686-0.114-1.319-0.818c-0.154-0.178-0.338-0.376-0.502-0.617
			c-0.16-0.243-0.33-0.516-0.51-0.82c-0.173-0.306-0.386-0.635-0.554-1.012c-0.168-0.377-0.342-0.787-0.524-1.231
			c-0.675-1.779-1.281-4.162-1.37-7.108c-0.079-2.934,0.296-6.44,1.615-10.225c0.627-1.904,1.55-3.845,2.694-5.822
			c0.302-0.485,0.587-0.992,0.921-1.478c0.34-0.483,0.686-0.973,1.036-1.47c0.375-0.469,0.755-0.946,1.14-1.428
			c0.387-0.482,0.821-0.931,1.24-1.407c3.436-3.729,7.984-7.098,13.385-9.791c2.699-1.355,5.615-2.53,8.706-3.559
			c1.544-0.524,3.139-0.98,4.772-1.405c1.625-0.465,3.313-0.81,5.027-1.192c6.882-1.4,14.458-2.132,22.565-1.94
			c8.108,0.198,15.566,1.232,22.333,2.677c6.779,1.42,12.852,3.315,18.311,5.246c5.457,1.95,10.291,4.003,14.575,5.989
			c4.284,1.988,8.019,3.909,11.279,5.655c3.26,1.745,6.028,3.349,8.37,4.724c2.337,1.386,4.243,2.555,5.741,3.509
			c1.504,0.942,2.593,1.679,3.309,2.174c0.715,0.498,1.048,0.769,1.015,0.825c-0.034,0.056-0.433-0.105-1.214-0.488
			c-0.783-0.38-1.94-0.998-3.514-1.809c-1.568-0.822-3.548-1.848-5.959-3.073c-2.417-1.213-5.261-2.637-8.591-4.179
			c-6.656-3.071-15.204-6.815-26.07-10.12c-5.434-1.628-11.432-3.194-18.046-4.281c-6.606-1.114-13.824-1.814-21.567-1.727
			c-7.743,0.093-14.877,1.012-21.307,2.476c-1.6,0.398-3.177,0.753-4.688,1.219c-1.523,0.427-3,0.875-4.416,1.38
			c-2.84,0.992-5.49,2.092-7.911,3.319c-4.849,2.445-8.8,5.342-11.802,8.437c-0.364,0.396-0.748,0.768-1.086,1.166
			c-0.339,0.398-0.674,0.79-1.004,1.177c-0.303,0.399-0.602,0.791-0.897,1.178c-0.293,0.389-0.543,0.802-0.813,1.191
			c-1.018,1.597-1.89,3.175-2.52,4.734c-1.325,3.098-1.924,5.988-2.199,8.454c-0.265,2.476-0.142,4.543,0.023,6.195
			c0.048,0.415,0.094,0.803,0.136,1.165c0.038,0.366,0.119,0.692,0.161,1.007c0.049,0.312,0.089,0.603,0.119,0.871
			c0.042,0.266,0.08,0.504,0.113,0.716C402.085,279.676,402.02,280.193,401.766,280.329z"/>
	</g>
	<path fill="#E2DED0" d="M621.263,274.009c-0.814,2.515-0.98,6.069,1.5,6.985c1.745,0.644,3.578-0.585,5.009-1.773
		c8.046-6.68,15.274-14.292,23.235-21.073c7.961-6.781,16.852-12.812,26.934-15.588c6.345-1.747,13.381-2.328,18.418-6.564
		c2.608-2.193,4.468-6.112,2.602-8.962c-1.373-2.097-4.145-2.695-6.639-2.941c-25.171-2.486-46.759,12.111-61.323,31.54
		C626.82,261.206,623.411,267.368,621.263,274.009z"/>
	<path fill="#E2DED0" d="M456.024,287.321c-4.76,1.653-9.686,3.993-12.189,8.367c-2.503,4.374-1.135,11.176,3.693,12.619
		c2.098,0.627,4.352,0.155,6.476-0.381c11.056-2.786,21.748-7.215,33.065-8.607c11.486-1.413,23.127,0.365,34.687-0.171
		c1.142-0.053,2.503-0.272,2.971-1.315c0.558-1.245-0.603-2.553-1.69-3.377C504.162,280.16,477.929,279.713,456.024,287.321z"/>
	<path fill="#31353E" d="M697.683,594.883c-46.99,26.441-106.412,29.535-155.873,8.06c-4.1-1.777-8.191-3.756-11.679-6.513
		c0.826-7.175,1.702-14.343,2.225-21.553c0.546-7.532,0.693-15.062,0.537-22.583c8.357,1.869,18.341,7.522,23.866,8.905
		c29.721,7.429,61.142,6.409,90.817-0.701c15.712-3.773,31.014-9.244,45.586-16.208c-0.01,0.328-0.014,0.657-0.017,0.985
		C693.042,561.824,696.692,578.444,697.683,594.883z"/>
	
		<ellipse transform="matrix(0.0112 -0.9999 0.9999 0.0112 11.4931 1200.9003)" fill="#F2A661" cx="612.96" cy="594.639" rx="19.557" ry="22.65"/>
	<path fill="#50969B" d="M557.325,667.153c-21.412,37.643-42.818,75.293-64.23,112.936c6.217-1.042,12.687-2.072,18.752-0.354
		c6.065,1.719,11.606,7.038,11.404,13.338c-0.164,5.054-3.797,9.275-7.487,12.731c-10.968,10.273-24.312,17.981-38.66,22.417
		c-3.867,1.2-7.816,2.161-11.809,2.875c-5.351,0.948-11.132,1.403-15.978-1.068c-7.803-3.98-10.311-13.912-10.558-22.676
		c-0.025-0.859-0.031-1.712-0.031-2.565c0.076-28.198,14.159-54.506,28.109-79.153c16.933-29.916,34.257-59.611,51.954-89.079
		c4.89-8.144,9.496-21.873,19.34-24.893c10.715-3.292,24.457,4.486,28.412,14.468C571.894,639.638,564.502,654.529,557.325,667.153z
		"/>
	
		<ellipse transform="matrix(0.2217 -0.9751 0.9751 0.2217 154.6518 1010.5557)" fill="#285C6D" cx="710.379" cy="408.398" rx="44.599" ry="28.316"/>
	<path fill="#50969B" d="M710.558,424.335c3.156,2.983,15.323,3.084,19.662,2.926c41.949-1.523,74.543-14.24,105.137-37.829
		c46.319-35.714,56.537-53.89,70.015-89.836c1.822-4.859,3.547-10.085,2.399-15.145c-0.755-3.327-2.703-6.283-5.045-8.764
		c-9.539-10.104-26.444-12.191-38.153-4.711c-15.453,9.872-15.884,30.761-23.072,47.63c-10.047,23.58-29.702,42.119-52.338,54.142
		c-18.867,10.021-52,14.227-72.023,20.754C705.079,397.434,698.528,412.962,710.558,424.335z"/>
	
		<ellipse transform="matrix(0.0717 -0.9974 0.9974 0.0717 539.7092 1145.9944)" fill="#285C6D" cx="885.538" cy="283.039" rx="29.68" ry="40.667"/>
	<path fill="#BABBA7" d="M847.043,200.255c0.346-4.619,2.829-10.638,7.376-9.752c1.125,14.512,3.662,28.915,7.564,42.938
		c0.847,3.043,2.585,6.707,5.742,6.604c4.031-8.879,4.731-18.839,6.149-28.486c2.83-19.254,8.757-38.049,17.484-55.444
		c2.759-5.499,7.524-11.713,13.538-10.416c-8.894,26.394-15.721,53.484-20.398,80.94c-0.186,1.094-0.342,2.322,0.304,3.225
		c1.603,2.246,4.991-0.219,6.478-2.544c11.964-18.717,23.929-37.433,35.893-56.15c4.222-6.605,9.981-14.035,17.802-13.504
		c0.928,10.684-6.199,20.151-12.311,28.963c-9.846,14.195-17.944,29.6-24.055,45.758c5.427,1.063,10.192-3.429,13.999-7.442
		c10.444-11.011,21.69-21.261,33.618-30.644c7.152-5.626,15.537-11.216,24.566-10.087c-4.362,13.649-17.23,22.36-27.694,32.149
		c-15.609,14.601-26.879,33.166-37.314,51.82c-2.726,4.874-5.484,9.867-9.617,13.622c-12.875,11.698-38.534,8.974-45.084-7.723
		C852.103,251.194,845.191,224.985,847.043,200.255z"/>
	<path fill="#50969B" d="M764.331,858.976c-0.208,9.616-1.876,19.087-4.17,28.444c-1.314,5.402-2.837,10.76-4.404,16.086
		c-10.836,36.796-24.04,73.195-43.86,106.036c-4.732,7.841-10.324,15.884-18.784,19.39c-8.46,3.506-20.325,0.114-22.562-8.77
		c-1.226-4.878,0.638-9.938,2.477-14.62c9.054-23.112,18.114-46.217,27.174-69.329c8.302-21.184,16.699-42.761,18.379-65.449
		c2.862-38.711-13.963-75.849-30.403-111.009c-11.335-24.255-22.676-48.504-34.01-72.759c-7.487-16.01-14.898-35.249-5.971-50.507
		c5.427-9.282,24.204-22.998,34.434-16.162c10.216,6.823,16.857,42.464,21.273,54.045c14.506,38.079,29.019,76.158,43.532,114.244
		c5.686,14.93,11.436,30.163,14.544,45.756C763.604,842.48,764.508,850.674,764.331,858.976z"/>
	<g>
		<path fill="#31353E" d="M587.798,549.296c0.009-0.303,2.609-0.433,8.199-0.552c2.795-0.067,6.337-0.142,10.666-0.389
			c4.325-0.263,9.447-0.675,15.318-1.734c5.868-1.06,10.772-2.539,14.796-4.055c4.024-1.528,7.172-3.094,9.585-4.447
			c4.822-2.724,6.847-4.362,7.07-4.087c0.093,0.112-0.325,0.622-1.312,1.568c-1.012,0.909-2.599,2.258-4.988,3.796
			c-2.376,1.553-5.547,3.307-9.645,4.978c-4.097,1.659-9.124,3.236-15.129,4.321c-6.003,1.083-11.22,1.441-15.605,1.6
			c-4.389,0.144-7.962,0.064-10.771-0.06C590.364,549.971,587.789,549.574,587.798,549.296z"/>
	</g>
	<g>
		<path fill="#31353E" d="M596.166,536.385c0.017,0.283-0.45,0.593-1.519,0.792c-1.065,0.191-2.745,0.275-5.042-0.105
			c-2.293-0.397-3.853-1.028-4.796-1.559c-0.945-0.539-1.284-0.985-1.174-1.247c0.115-0.276,0.652-0.319,1.67-0.159
			c1.021,0.153,2.525,0.518,4.652,0.886c2.13,0.352,3.67,0.502,4.684,0.693C595.655,535.869,596.148,536.087,596.166,536.385z"/>
	</g>
	<g>
		<path fill="#31353E" d="M483.573,803.571c-0.102-0.104-0.057-0.35,0.144-0.74c0.209-0.383,0.553-0.93,1.041-1.648
			c0.239-0.361,0.509-0.77,0.813-1.229c0.279-0.475,0.631-0.969,0.956-1.554c0.684-1.146,1.443-2.534,2.165-4.227
			c0.722-1.693,1.199-3.202,1.552-4.488c0.197-0.64,0.31-1.236,0.46-1.765c0.121-0.537,0.229-1.015,0.325-1.438
			c0.18-0.849,0.338-1.476,0.469-1.892c0.142-0.416,0.289-0.619,0.435-0.616c0.145,0.002,0.276,0.209,0.385,0.647
			c0.12,0.438,0.188,1.106,0.193,2.024c-0.002,0.458-0.04,0.976-0.082,1.56c-0.081,0.577-0.137,1.227-0.293,1.924
			c-0.271,1.403-0.727,3.049-1.504,4.872c-0.777,1.822-1.65,3.29-2.475,4.457c-0.396,0.595-0.825,1.086-1.186,1.544
			c-0.392,0.434-0.74,0.82-1.069,1.139c-0.666,0.632-1.195,1.045-1.594,1.261C483.915,803.626,483.676,803.675,483.573,803.571z"/>
	</g>
	<g>
		<path fill="#31353E" d="M498.589,796.189c-0.575,0.089-1.283-1.395-1.846-5.018c-0.563-3.624-0.338-5.253,0.238-5.342
			c0.576-0.089,1.284,1.394,1.846,5.018C499.389,794.471,499.164,796.1,498.589,796.189z"/>
	</g>
	<g>
		<path fill="#31353E" d="M656.883,644.638c-0.213-0.189,0.4-1.323,2.113-3.485c0.862-1.077,2.004-2.412,3.555-3.932
			c1.555-1.507,3.52-3.23,6.154-4.785c2.651-1.559,5.206-2.369,7.4-2.752c2.205-0.367,4.055-0.3,5.466-0.046
			c1.418,0.237,2.393,0.66,3.001,0.968c0.599,0.348,0.844,0.584,0.79,0.719c-0.122,0.32-1.34-0.092-3.948-0.205
			c-1.302-0.05-2.959,0.039-4.938,0.47c-1.969,0.449-4.276,1.236-6.703,2.663c-2.438,1.439-4.333,3.018-5.899,4.391
			c-1.561,1.384-2.791,2.584-3.78,3.518C658.123,644.039,657.105,644.836,656.883,644.638z"/>
	</g>
	<g>
		<path fill="#31353E" d="M557.439,667.098c-0.088,0.116-0.414,0.035-1.003-0.268c-0.293-0.153-0.656-0.355-1.078-0.628
			c-0.414-0.281-0.894-0.624-1.441-1.032c-0.54-0.416-1.126-0.919-1.788-1.483c-0.627-0.599-1.357-1.234-2.078-2.015
			c-1.478-1.526-3.121-3.452-4.773-5.887c-1.653-2.434-2.835-4.673-3.708-6.61c-0.46-0.958-0.78-1.871-1.105-2.675
			c-0.279-0.823-0.531-1.554-0.718-2.209c-0.176-0.659-0.318-1.232-0.427-1.72c-0.098-0.492-0.151-0.905-0.185-1.233
			c-0.064-0.659-0.019-0.992,0.122-1.031c0.14-0.038,0.362,0.221,0.666,0.798c0.154,0.288,0.319,0.657,0.52,1.104
			c0.212,0.443,0.447,0.967,0.706,1.574c0.273,0.601,0.583,1.282,0.931,2.047c0.384,0.747,0.749,1.602,1.24,2.5
			c0.934,1.819,2.118,3.936,3.703,6.271c1.585,2.336,3.115,4.218,4.461,5.758c0.654,0.788,1.313,1.443,1.866,2.076
			c0.582,0.605,1.101,1.145,1.559,1.621c0.469,0.465,0.869,0.878,1.202,1.238c0.34,0.352,0.623,0.642,0.833,0.891
			C557.367,666.679,557.527,666.982,557.439,667.098z"/>
	</g>
	<g>
		<path fill="#31353E" d="M732.177,879.216c-0.142,0.248-0.72,0.236-1.766-0.192c-1.041-0.431-2.559-1.278-4.437-2.794
			c-1.87-1.526-3.011-2.838-3.646-3.768c-0.633-0.936-0.764-1.499-0.551-1.689c0.221-0.197,0.744,0.012,1.624,0.654
			c0.885,0.639,2.125,1.715,3.902,3.165c1.784,1.44,3.092,2.433,3.899,3.168C732.012,878.491,732.324,878.959,732.177,879.216z"/>
	</g>
	<g>
		<path fill="#31353E" d="M704.934,964.076c0.03-0.142,0.303-0.233,0.828-0.265c0.263-0.018,0.588-0.012,0.98-0.006
			c0.394-0.005,0.853,0.003,1.379,0.024c0.526,0.007,1.123,0.015,1.792,0.023c0.669-0.03,1.408,0.001,2.221-0.06
			c1.624-0.07,3.547-0.234,5.752-0.653c2.205-0.418,4.054-0.97,5.591-1.5c0.779-0.242,1.455-0.541,2.088-0.758
			c0.62-0.253,1.172-0.479,1.659-0.678c0.482-0.213,0.906-0.388,1.275-0.528c0.363-0.149,0.663-0.273,0.914-0.353
			c0.5-0.163,0.788-0.178,0.868-0.057c0.08,0.122-0.054,0.369-0.432,0.753c-0.19,0.19-0.436,0.422-0.755,0.675
			c-0.324,0.244-0.714,0.52-1.173,0.828c-0.464,0.299-1.011,0.603-1.626,0.948c-0.634,0.301-1.324,0.677-2.129,0.986
			c-1.589,0.664-3.542,1.31-5.887,1.755c-2.345,0.445-4.399,0.56-6.12,0.524c-0.862,0.008-1.641-0.089-2.342-0.137
			c-0.698-0.096-1.319-0.179-1.86-0.287c-0.54-0.119-1.004-0.233-1.395-0.341c-0.389-0.119-0.703-0.244-0.95-0.352
			C705.12,964.399,704.904,964.218,704.934,964.076z"/>
	</g>
	<g>
		<path fill="#31353E" d="M715.211,951.673c0.024,0.143-0.113,0.296-0.452,0.455c-0.169,0.076-0.389,0.168-0.663,0.234
			c-0.274,0.044-0.603,0.082-0.989,0.11c-0.383,0.009-0.815-0.043-1.306-0.096c-0.468-0.124-1.022-0.205-1.565-0.455
			c-1.115-0.429-2.366-1.17-3.509-2.363c-1.145-1.191-1.834-2.471-2.216-3.604c-0.227-0.553-0.285-1.11-0.39-1.583
			c-0.033-0.493-0.067-0.927-0.042-1.309c0.044-0.384,0.095-0.711,0.151-0.984c0.077-0.271,0.178-0.487,0.261-0.653
			c0.173-0.332,0.331-0.462,0.474-0.432c0.142,0.03,0.257,0.218,0.339,0.549c0.044,0.166,0.066,0.366,0.104,0.604
			c0.058,0.24,0.113,0.515,0.161,0.826c0.067,0.31,0.178,0.656,0.265,1.039c0.161,0.371,0.251,0.8,0.487,1.231
			c0.397,0.878,0.995,1.883,1.93,2.855c0.933,0.974,1.912,1.612,2.773,2.046c0.421,0.253,0.846,0.361,1.21,0.537
			c0.38,0.103,0.72,0.228,1.027,0.308c0.309,0.06,0.581,0.126,0.818,0.195c0.236,0.047,0.435,0.077,0.599,0.128
			C715.004,951.407,715.187,951.529,715.211,951.673z"/>
	</g>
	<path fill="#84C5C1" d="M477.104,828.22c-3.867,1.2-7.816,2.161-11.809,2.875c-5.351,0.948-11.132,1.403-15.978-1.068
		c-7.803-3.98-10.311-13.912-10.558-22.676c-0.025-0.859-0.031-1.712-0.031-2.565c5.061-1.466,10.842-1.611,16.673-0.12
		C468.057,807.914,476.807,817.833,477.104,828.22z"/>
	<path fill="#84C5C1" d="M764.331,858.976c-0.208,9.616-1.876,19.087-4.17,28.444c-12.175,1.933-24.097-8.39-26.763-23.238
		c-2.685-15.012,5.111-28.962,17.419-31.167c3.829-0.689,7.645-0.152,11.164,1.358C763.604,842.48,764.508,850.674,764.331,858.976z
		"/>
	<path fill="#D2D4BB" d="M670.094,182.723c-14.884,3.382-28.75,11.121-39.442,22.013c-2.497,2.544-4.979,5.708-4.606,9.253
		c3.672,1.493,7.856,0.327,11.529-1.161c7.18-2.909,13.824-6.995,20.896-10.156s14.85-5.411,22.52-4.318
		c2.733,0.389,5.401,1.197,8.15,1.446c2.749,0.249,5.706-0.136,7.858-1.864c2.446-1.964,3.391-5.591,2.215-8.5
		c-1.512-3.739-7.132-6.158-10.832-7.151C682.423,180.684,676.029,181.374,670.094,182.723z"/>
	<path fill="#D2D4BB" d="M465.922,238.898c-3.427-0.109-7.106,0-9.899,1.988c-1.996,1.421-3.295,4.366-1.828,6.329
		c1.178,1.577,3.444,1.716,5.412,1.754c5.851,0.113,11.7,0.589,17.467,1.577c10.606,1.817,21.229,5.374,31.882,3.86
		c0.943-0.134,2.067-0.473,2.288-1.4c0.186-0.782-0.396-1.519-0.938-2.113c-5.012-5.492-12.796-7.067-19.785-8.721
		C482.458,240.264,474.204,239.162,465.922,238.898z"/>
	<path fill="#D2D4BB" d="M730.2,188.773c-4.189-3.886-8.763-7.336-13.647-10.28c-3.797-2.293-7.891-4.385-10.583-7.904
		c-2.047-2.673-3.102-5.945-4.309-9.085c-7.923-20.584-23.611-37.441-41.522-50.311c-17.906-12.87-38.098-22.139-58.152-31.325
		c5.326-3.393,12.087-4.448,18.19-2.837c-36.803-18.594-81.036-20.363-120.385-8.043c-29.802,9.338-56.806,26.353-79.418,47.992
		c22.612-28.716,54.342-50.652,92.345-60.887c93.786-25.254,190.282,30.295,215.535,124.075
		C729.013,182.985,729.663,185.86,730.2,188.773z"/>
	<path fill="#D2D4BB" d="M665.764,341.621c-5.007,2.434-10.312,4.187-15.483,6.249c-0.872,0.348-1.771,0.725-2.409,1.413
		s-0.943,1.78-0.458,2.585c7.845,2.96,16.709,0.503,24.237-3.192c4.841-2.376,9.822-5.759,11.168-10.981
		c0.375-1.454,0.427-3.047-0.196-4.413c-2.195-4.817-5.2,0.282-7.284,2.137C672.488,337.957,669.187,339.957,665.764,341.621z"/>
	<path fill="#D2D4BB" d="M588.939,359.4c0.566,0.508,1.499,0.194,2.038-0.342c0.539-0.537,0.884-1.256,1.479-1.731
		c0.794-0.634,1.909-0.72,2.907-0.529c0.999,0.191,1.932,0.623,2.9,0.935c2.259,0.728,4.73,0.787,7.022,0.168
		c0.196-0.053,0.405-0.121,0.521-0.286c0.212-0.301,0.002-0.71-0.212-1.01c-2.578-3.61-6.071-6.562-10.06-8.501
		c-2.554-1.242-5.923-0.764-6.252,2.501c-0.118,1.176,0.179,2.375,0.06,3.564C589.217,355.426,587.805,358.381,588.939,359.4z"/>
	<path fill="#D2D4BB" d="M555.264,372.513c-1.647,0.615-3.537,1.533-3.802,3.271c-0.245,1.611,1.102,3.038,2.529,3.825
		c3.323,1.831,7.502,1.648,10.998,0.175c3.497-1.474,6.389-4.107,8.837-7.006c3.647-4.318,4.156-10.303-2.658-6.804
		C566.057,368.599,560.638,370.506,555.264,372.513z"/>
</g>
</svg>
